<svg width="25" height="24" viewBox="0 0 25 24" fill="none" xmlns="http://www.w3.org/2000/svg">
<g id="bank-note-01-fill">
<path id="Icon" fill-rule="evenodd" clip-rule="evenodd" d="M11.9976 4.04422C13.6283 3.54246 15.5037 3 17.6667 3C20.2122 3 21.6827 3.38891 22.5024 3.7505C22.5048 3.75155 22.5074 3.7527 22.5103 3.75396C22.5536 3.77295 22.653 3.81648 22.762 3.88804C22.8732 3.961 22.9661 4.04322 23.0475 4.12094C23.1734 4.24114 23.2788 4.39405 23.335 4.4803C23.3912 4.56656 23.4886 4.72464 23.5478 4.88838C23.6668 5.21806 23.6668 5.45216 23.6667 5.6493L23.6667 16.445C23.6667 16.8704 23.6667 17.2391 23.6475 17.529C23.6295 17.7996 23.5889 18.178 23.3941 18.5118C23.2881 18.6936 23.1497 18.8856 22.9468 19.0533C22.7438 19.221 22.5291 19.3206 22.3306 19.3905C21.9518 19.5238 21.5377 19.4798 21.2582 19.4429C20.9397 19.4008 20.5297 19.322 20.0417 19.2282L20.0102 19.2222C19.3439 19.0942 18.5525 19 17.6667 19C16.4321 19 15.1809 19.3863 13.6403 19.8619C13.5401 19.8928 13.4386 19.9241 13.3358 19.9558C11.7051 20.4575 9.82966 21 7.66669 21C5.12115 21 3.65073 20.6111 2.83099 20.2495C2.82862 20.2485 2.82599 20.2473 2.82312 20.246C2.77977 20.227 2.68044 20.1835 2.57138 20.112C2.46019 20.039 2.36733 19.9568 2.28589 19.8791C2.15995 19.7589 2.05463 19.606 1.9984 19.5197C1.94217 19.4334 1.84477 19.2754 1.78563 19.1116C1.66655 18.7819 1.66663 18.5478 1.66669 18.3507L1.66669 7.55506C1.66668 7.12959 1.66667 6.76088 1.68593 6.471C1.70391 6.2004 1.74445 5.82202 1.93925 5.48818C2.0453 5.30643 2.18365 5.11439 2.38663 4.94669C2.58962 4.77899 2.80432 4.67936 3.00281 4.60951C3.38154 4.47624 3.79569 4.52015 4.07516 4.55709C4.39373 4.5992 4.80365 4.67797 5.29175 4.77177L5.32321 4.77781C5.98948 4.90583 6.78086 5 7.66669 5C8.90127 5 10.1525 4.61372 11.6931 4.13813C11.7933 4.10718 11.8948 4.07585 11.9976 4.04422ZM19.6667 8C20.219 8 20.6667 8.44771 20.6667 9V13C20.6667 13.5523 20.219 14 19.6667 14C19.1144 14 18.6667 13.5523 18.6667 13V9C18.6667 8.44771 19.1144 8 19.6667 8ZM12.6667 10.5C11.8383 10.5 11.1667 11.1716 11.1667 12C11.1667 12.8284 11.8383 13.5 12.6667 13.5C13.4951 13.5 14.1667 12.8284 14.1667 12C14.1667 11.1716 13.4951 10.5 12.6667 10.5ZM9.16669 12C9.16669 10.067 10.7337 8.5 12.6667 8.5C14.5997 8.5 16.1667 10.067 16.1667 12C16.1667 13.933 14.5997 15.5 12.6667 15.5C10.7337 15.5 9.16669 13.933 9.16669 12ZM5.66669 10C6.21898 10 6.66669 10.4477 6.66669 11V15C6.66669 15.5523 6.21898 16 5.66669 16C5.11441 16 4.66669 15.5523 4.66669 15V11C4.66669 10.4477 5.11441 10 5.66669 10Z" fill="white"/>
</g>
</svg>
