<svg width="25" height="24" viewBox="0 0 25 24" fill="none" xmlns="http://www.w3.org/2000/svg">
<g id="calendar-check-01-fill">
<path id="Icon" fill-rule="evenodd" clip-rule="evenodd" d="M8.33337 1C8.88566 1 9.33337 1.44772 9.33337 2V3H15.3334V2C15.3334 1.44772 15.7811 1 16.3334 1C16.8857 1 17.3334 1.44772 17.3334 2V3.00163C17.8088 3.00489 18.2244 3.01471 18.5852 3.04419C19.1473 3.09012 19.664 3.18868 20.1493 3.43597C20.902 3.81947 21.5139 4.43139 21.8974 5.18404C22.1447 5.66937 22.2433 6.18608 22.2892 6.74817C22.3334 7.28936 22.3334 7.95372 22.3334 8.75868V17.2413C22.3334 18.0463 22.3334 18.7106 22.2892 19.2518C22.2433 19.8139 22.1447 20.3306 21.8974 20.816C21.5139 21.5686 20.902 22.1805 20.1493 22.564C19.664 22.8113 19.1473 22.9099 18.5852 22.9558C18.044 23 17.3797 23 16.5747 23H8.09205C7.28709 23 6.62274 23 6.08155 22.9558C5.51945 22.9099 5.00275 22.8113 4.51741 22.564C3.76476 22.1805 3.15284 21.5686 2.76935 20.816C2.52206 20.3306 2.42349 19.8139 2.37757 19.2518C2.33335 18.7106 2.33336 18.0463 2.33337 17.2413V8.7587C2.33336 7.95373 2.33335 7.28937 2.37757 6.74817C2.42349 6.18608 2.52206 5.66937 2.76935 5.18404C3.15284 4.43139 3.76476 3.81947 4.51741 3.43597C5.00275 3.18868 5.51945 3.09012 6.08155 3.04419C6.44236 3.01471 6.85791 3.00489 7.33337 3.00163V2C7.33337 1.44772 7.78109 1 8.33337 1ZM7.33337 5.00176C6.88785 5.00489 6.538 5.01356 6.24441 5.03755C5.806 5.07337 5.58179 5.1383 5.42539 5.21799C5.04907 5.40973 4.74311 5.71569 4.55136 6.09202C4.47167 6.24842 4.40675 6.47262 4.37093 6.91104C4.33415 7.36113 4.33337 7.94342 4.33337 8.8V9H20.3334V8.8C20.3334 7.94342 20.3326 7.36113 20.2958 6.91104C20.26 6.47262 20.1951 6.24842 20.1154 6.09202C19.9236 5.7157 19.6177 5.40973 19.2414 5.21799C19.085 5.1383 18.8608 5.07337 18.4223 5.03755C18.1287 5.01356 17.7789 5.00489 17.3334 5.00176V6C17.3334 6.55228 16.8857 7 16.3334 7C15.7811 7 15.3334 6.55228 15.3334 6V5H9.33337V6C9.33337 6.55228 8.88566 7 8.33337 7C7.78109 7 7.33337 6.55228 7.33337 6V5.00176ZM16.5405 12.7929C16.931 13.1834 16.931 13.8166 16.5405 14.2071L12.0405 18.7071C11.65 19.0976 11.0168 19.0976 10.6263 18.7071L8.62627 16.7071C8.23574 16.3166 8.23574 15.6834 8.62627 15.2929C9.01679 14.9024 9.64996 14.9024 10.0405 15.2929L11.3334 16.5858L15.1263 12.7929C15.5168 12.4024 16.15 12.4024 16.5405 12.7929Z" fill="white"/>
</g>
</svg>
