<svg width="25" height="24" viewBox="0 0 25 24" fill="none" xmlns="http://www.w3.org/2000/svg">
<path d="M12.6667 13C13.219 13 13.6667 12.5523 13.6667 12C13.6667 11.4477 13.219 11 12.6667 11C12.1144 11 11.6667 11.4477 11.6667 12C11.6667 12.5523 12.1144 13 12.6667 13Z" fill="white"/>
<path fill-rule="evenodd" clip-rule="evenodd" d="M12.6667 1C6.59155 1 1.66669 5.92487 1.66669 12C1.66669 18.0751 6.59155 23 12.6667 23C18.7418 23 23.6667 18.0751 23.6667 12C23.6667 5.92487 18.7418 1 12.6667 1ZM15.1919 13.8356L17.6187 8.15482C17.8843 7.53291 18.0172 7.22195 17.9679 7.03023C17.925 6.86339 17.8033 6.74172 17.6364 6.69881C17.4447 6.6495 17.1338 6.78234 16.5119 7.04801L10.831 9.47481C10.6539 9.55047 10.5653 9.58831 10.4891 9.64461C10.4215 9.69448 10.3613 9.75472 10.3114 9.82228C10.2551 9.89854 10.2173 9.98711 10.1416 10.1642L7.71481 15.8451C7.44914 16.467 7.3163 16.7779 7.36561 16.9696C7.40852 17.1365 7.53019 17.2582 7.69703 17.3011C7.88876 17.3504 8.19971 17.2175 8.82162 16.9519L14.5024 14.5251C14.6796 14.4494 14.7681 14.4116 14.8444 14.3553C14.912 14.3054 14.9722 14.2452 15.0221 14.1776C15.0784 14.1013 15.1162 14.0128 15.1919 13.8356Z" fill="white"/>
</svg>
