<svg width="25" height="24" viewBox="0 0 25 24" fill="none" xmlns="http://www.w3.org/2000/svg">
<g id="file-check-03-fill">
<path id="Icon" fill-rule="evenodd" clip-rule="evenodd" d="M14.3334 1L9.09208 1C8.28711 0.999988 7.62274 0.999977 7.08155 1.04419C6.51945 1.09012 6.00275 1.18868 5.51741 1.43597C4.76476 1.81947 4.15284 2.43139 3.76935 3.18404C3.52206 3.66937 3.42349 4.18608 3.37757 4.74817C3.33335 5.28937 3.33336 5.95373 3.33337 6.7587V17.2413C3.33336 18.0463 3.33335 18.7106 3.37757 19.2518C3.42349 19.8139 3.52206 20.3306 3.76935 20.816C4.15284 21.5686 4.76476 22.1805 5.51741 22.564C6.00275 22.8113 6.51945 22.9099 7.08155 22.9558C7.62274 23 8.28709 23 9.09205 23H15.5747C16.3797 23 17.044 23 17.5852 22.9558C18.1473 22.9099 18.664 22.8113 19.1493 22.564C19.902 22.1805 20.5139 21.5686 20.8974 20.816C21.1447 20.3306 21.2433 19.8139 21.2892 19.2518C21.3334 18.7106 21.3334 18.0463 21.3334 17.2413V8C21.3334 7.73478 21.228 7.48043 21.0405 7.29289L15.0405 1.29289C14.8529 1.10536 14.5986 1 14.3334 1ZM16.5405 14.2071C16.931 13.8166 16.931 13.1834 16.5405 12.7929C16.15 12.4024 15.5168 12.4024 15.1263 12.7929L11.3334 16.5858L10.0405 15.2929C9.64996 14.9024 9.01679 14.9024 8.62627 15.2929C8.23574 15.6834 8.23574 16.3166 8.62627 16.7071L10.6263 18.7071C11.0168 19.0976 11.65 19.0976 12.0405 18.7071L16.5405 14.2071ZM18.9192 8L14.4192 3.5L14.3645 6.3695C14.3536 6.93917 14.3482 7.224 14.4556 7.44206C14.5501 7.63382 14.7036 7.79025 14.8935 7.8884C15.1095 8 15.3944 8 15.9642 8H18.9192Z" fill="white"/>
</g>
</svg>
