<svg width="25" height="24" viewBox="0 0 25 24" fill="none" xmlns="http://www.w3.org/2000/svg">
<path fill-rule="evenodd" clip-rule="evenodd" d="M12.0568 1.08468C12.2396 1.05039 12.4271 1.05039 12.6099 1.08468C12.8264 1.12529 13.0195 1.22382 13.1128 1.27143C13.1224 1.27633 13.1309 1.2807 13.1383 1.2844L22.7806 6.10552C23.1193 6.27491 23.3333 6.62117 23.3333 6.99994C23.3333 7.37872 23.1193 7.72498 22.7806 7.89437L13.1383 12.7155C13.1309 12.7192 13.1224 12.7236 13.1128 12.7285C13.0195 12.7761 12.8264 12.8746 12.6099 12.9152C12.4271 12.9495 12.2396 12.9495 12.0568 12.9152C11.8403 12.8746 11.6472 12.7761 11.5539 12.7285C11.5443 12.7236 11.5358 12.7192 11.5284 12.7155L1.88614 7.89437C1.54735 7.72498 1.33335 7.37872 1.33335 6.99994C1.33335 6.62117 1.54735 6.27491 1.88614 6.10552L11.5284 1.2844C11.5358 1.2807 11.5443 1.27633 11.5539 1.27143C11.6472 1.22382 11.8403 1.12529 12.0568 1.08468ZM1.43892 11.5527C1.68591 11.0588 2.28658 10.8585 2.78056 11.1055L12.3333 15.8819L21.8861 11.1055C22.3801 10.8585 22.9808 11.0588 23.2278 11.5527C23.4748 12.0467 23.2745 12.6474 22.7806 12.8944L13.1383 17.7155C13.1309 17.7192 13.1224 17.7236 13.1128 17.7285C13.0195 17.7761 12.8264 17.8746 12.6099 17.9152C12.4271 17.9495 12.2396 17.9495 12.0568 17.9152C11.8403 17.8746 11.6472 17.7761 11.5539 17.7285C11.5443 17.7236 11.5358 17.7192 11.5284 17.7155L1.88614 12.8944C1.39216 12.6474 1.19193 12.0467 1.43892 11.5527ZM1.43892 16.5527C1.68591 16.0588 2.28658 15.8585 2.78056 16.1055L12.3333 20.8819L21.8861 16.1055C22.3801 15.8585 22.9808 16.0588 23.2278 16.5527C23.4748 17.0467 23.2745 17.6474 22.7806 17.8944L13.1383 22.7155C13.1309 22.7192 13.1224 22.7236 13.1128 22.7285C13.0195 22.7761 12.8264 22.8746 12.6099 22.9152C12.4271 22.9495 12.2396 22.9495 12.0568 22.9152C11.8403 22.8746 11.6472 22.7761 11.5539 22.7285C11.5443 22.7236 11.5358 22.7192 11.5284 22.7155L1.88614 17.8944C1.39216 17.6474 1.19193 17.0467 1.43892 16.5527Z" fill="white"/>
</svg>
