<svg width="25" height="24" viewBox="0 0 25 24" fill="none" xmlns="http://www.w3.org/2000/svg">
<g id="warehouse">
<g id="Union">
<path d="M4.24003 4.83984C3.3215 5.04039 2.66666 5.85363 2.66666 6.79381V20C2.66666 21.1046 3.56209 22 4.66666 22H6.20511C6.75739 22 7.20511 21.5523 7.20511 21V11.1026C7.20511 10.5504 7.65282 10.1026 8.20511 10.1026H17.1283C17.6806 10.1026 18.1283 10.5504 18.1283 11.1026V21C18.1283 21.5523 18.576 22 19.1283 22H20.6667C21.7712 22 22.6667 21.1046 22.6667 20V6.79381C22.6667 5.85363 22.0118 5.04039 21.0933 4.83984L13.0933 2.09315C12.8122 2.03178 12.5211 2.03178 12.24 2.09315L4.24003 4.83984Z" fill="white"/>
<path d="M9.66666 14.024C9.66666 13.4718 10.1144 13.024 10.6667 13.024H14.6667C15.2189 13.024 15.6667 13.4718 15.6667 14.024C15.6667 14.5763 15.2189 15.024 14.6667 15.024H10.6667C10.1144 15.024 9.66666 14.5763 9.66666 14.024Z" fill="white"/>
<path d="M10.6667 17.8685C10.1144 17.8685 9.66666 18.3162 9.66666 18.8685C9.66666 19.4208 10.1144 19.8685 10.6667 19.8685H14.6667C15.2189 19.8685 15.6667 19.4208 15.6667 18.8685C15.6667 18.3162 15.2189 17.8685 14.6667 17.8685H10.6667Z" fill="white"/>
</g>
</g>
</svg>
