<svg width="25" height="24" viewBox="0 0 25 24" fill="none" xmlns="http://www.w3.org/2000/svg">
<path fill-rule="evenodd" clip-rule="evenodd" d="M8.0922 2H16.5748C17.3798 1.99999 18.0441 1.99998 18.5853 2.04419C19.1474 2.09012 19.6641 2.18868 20.1495 2.43597C20.9021 2.81947 21.514 3.43139 21.8975 4.18404C22.1448 4.66937 22.2434 5.18608 22.2893 5.74817C22.3335 6.28936 22.3335 6.95372 22.3335 7.75868V13.5343C22.3335 14.2041 22.3335 14.7569 22.3026 15.2095C22.2706 15.6788 22.2021 16.1129 22.029 16.5307C21.623 17.5108 20.8443 18.2895 19.8642 18.6955C19.4464 18.8686 19.0123 18.9371 18.543 18.9691C18.0904 19 17.5376 19 16.8678 19H16.8335C16.2969 19 16.1904 19.0063 16.1037 19.0268C15.9527 19.0624 15.8119 19.1328 15.6927 19.2322C15.6244 19.2893 15.5554 19.3707 15.2335 19.8L13.7565 21.7693C13.6632 21.8938 13.5577 22.0346 13.4561 22.1476C13.3441 22.2721 13.1579 22.4555 12.8772 22.5647C12.5275 22.7007 12.1395 22.7007 11.7898 22.5647C11.5091 22.4555 11.3229 22.2721 11.2109 22.1476C11.1093 22.0346 11.0038 21.8938 10.9104 21.7693L9.4335 19.8C9.11156 19.3708 9.04263 19.2893 8.97424 19.2322C8.85505 19.1328 8.71434 19.0624 8.56325 19.0268C8.47656 19.0063 8.37006 19 7.8335 19H7.79922C7.12943 19 6.57657 19 6.12396 18.9691C5.65467 18.9371 5.22058 18.8686 4.80276 18.6955C3.82265 18.2895 3.04395 17.5108 2.63798 16.5307C2.46491 16.1129 2.39638 15.6788 2.36436 15.2095C2.33348 14.7569 2.33349 14.2041 2.3335 13.5343L2.3335 7.7587C2.33348 6.95373 2.33347 6.28937 2.37769 5.74817C2.42362 5.18608 2.52218 4.66937 2.76947 4.18404C3.15296 3.43139 3.76489 2.81947 4.51753 2.43597C5.00287 2.18868 5.51957 2.09012 6.08167 2.04419C6.62287 1.99998 7.28723 1.99999 8.0922 2ZM6.24453 4.03755C5.80612 4.07337 5.58192 4.1383 5.42552 4.21799C5.04919 4.40973 4.74323 4.7157 4.55148 5.09202C4.47179 5.24842 4.40687 5.47262 4.37105 5.91104C4.33427 6.36113 4.3335 6.94342 4.3335 7.8V13.5C4.3335 14.2126 4.33404 14.697 4.35972 15.0734C4.38479 15.4409 4.43044 15.6319 4.48574 15.7654C4.68873 16.2554 5.07807 16.6448 5.56813 16.8478C5.70163 16.9031 5.89265 16.9487 6.2601 16.9738C6.63654 16.9995 7.1209 17 7.8335 17C7.86167 17 7.88961 17 7.91732 16.9999C8.32289 16.9996 8.67961 16.9992 9.02276 17.0803C9.47603 17.1873 9.89817 17.3983 10.2557 17.6967C10.5264 17.9227 10.7402 18.2082 10.9832 18.5329C10.9998 18.5551 11.0166 18.5775 11.0335 18.6L12.3335 20.3333L13.6335 18.6C13.6504 18.5775 13.6671 18.5551 13.6838 18.5329C13.9268 18.2082 14.1406 17.9227 14.4113 17.6967C14.7688 17.3983 15.191 17.1873 15.6442 17.0803C15.9874 16.9992 16.3441 16.9996 16.7497 16.9999C16.7774 17 16.8053 17 16.8335 17C17.5461 17 18.0305 16.9995 18.4069 16.9738C18.7743 16.9487 18.9654 16.9031 19.0989 16.8478C19.5889 16.6448 19.9783 16.2554 20.1813 15.7654C20.2366 15.6319 20.2822 15.4409 20.3073 15.0734C20.333 14.697 20.3335 14.2126 20.3335 13.5V7.8C20.3335 6.94342 20.3327 6.36113 20.2959 5.91104C20.2601 5.47262 20.1952 5.24842 20.1155 5.09202C19.9238 4.7157 19.6178 4.40973 19.2415 4.21799C19.0851 4.1383 18.8609 4.07337 18.4225 4.03755C17.9724 4.00078 17.3901 4 16.5335 4H8.1335C7.27692 4 6.69462 4.00078 6.24453 4.03755ZM12.3302 7.02681C11.2238 6.32244 9.74375 6.25391 8.55639 7.24023C7.14389 8.41358 6.92389 10.4234 8.05805 11.8423C8.59124 12.5094 9.81151 13.6206 10.6424 14.3565C10.6663 14.3777 10.6908 14.3996 10.7159 14.4221C10.9848 14.6626 11.3256 14.9675 11.759 15.0968C12.1266 15.2065 12.5349 15.2065 12.9026 15.0968C13.336 14.9675 13.6767 14.6626 13.9456 14.4221C13.9707 14.3996 13.9952 14.3777 14.0191 14.3565C14.85 13.6206 16.0703 12.5094 16.6035 11.8423C17.7284 10.4349 17.5486 8.40654 16.0947 7.23165C14.9011 6.26715 13.4345 6.32306 12.3302 7.02681ZM11.58 8.99114C11.0775 8.42006 10.3533 8.3476 9.83436 8.77867C9.24282 9.27006 9.18067 10.0436 9.6203 10.5936C10.023 11.0973 11.0949 12.0856 11.9685 12.8594C12.1563 13.0257 12.2533 13.1106 12.3276 13.1663C12.3287 13.1671 12.3297 13.1679 12.3308 13.1687C12.3318 13.1679 12.3328 13.1671 12.3339 13.1663C12.4082 13.1106 12.5052 13.0257 12.6931 12.8594C13.5667 12.0856 14.6385 11.0973 15.0412 10.5936C15.49 10.0321 15.4222 9.25958 14.8376 8.78725C14.291 8.34558 13.5766 8.42845 13.0815 8.99114C12.8917 9.20693 12.6182 9.3306 12.3308 9.3306C12.0433 9.3306 11.7698 9.20693 11.58 8.99114Z" fill="white"/>
</svg>
