<svg width="25" height="24" viewBox="0 0 25 24" fill="none" xmlns="http://www.w3.org/2000/svg">
<path fill-rule="evenodd" clip-rule="evenodd" d="M12.3253 2.03212C12.4415 2.02193 12.5585 2.02193 12.6747 2.03212C12.8084 2.04385 12.936 2.07238 13.0372 2.09503C13.0464 2.09708 13.0553 2.09909 13.064 2.10103L20.4907 3.75139C20.6911 3.7959 20.8903 3.84015 21.0587 3.89077C21.2467 3.94728 21.4607 4.02937 21.6691 4.17952C21.9634 4.39158 22.1946 4.6797 22.3377 5.01304C22.4391 5.24906 22.4728 5.47571 22.4872 5.67147C22.5001 5.84688 22.5 6.05096 22.5 6.25626V7.432C22.5 7.68437 22.5001 7.93016 22.4831 8.13831C22.4644 8.3669 22.4203 8.63664 22.282 8.90806C22.0903 9.28439 21.7843 9.59035 21.408 9.78209C21.1366 9.92039 20.8668 9.96446 20.6382 9.98314C20.5938 9.98677 20.5476 9.98962 20.5 9.99187V16.0083C20.5476 16.0105 20.5938 16.0134 20.6382 16.017C20.8668 16.0357 21.1366 16.0798 21.408 16.2181C21.7843 16.4098 22.0903 16.7158 22.282 17.0921C22.4203 17.3635 22.4644 17.6333 22.4831 17.8619C22.5001 18.07 22.5 18.3158 22.5 18.5682V19.432C22.5 19.6844 22.5001 19.9302 22.4831 20.1383C22.4644 20.3669 22.4203 20.6366 22.282 20.9081C22.0903 21.2844 21.7843 21.5903 21.408 21.7821C21.1366 21.9204 20.8668 21.9645 20.6382 21.9831C20.4301 22.0001 20.1843 22.0001 19.9319 22.0001H5.06809C4.81571 22.0001 4.56993 22.0001 4.36178 21.9831C4.13318 21.9645 3.86345 21.9204 3.59202 21.7821C3.2157 21.5903 2.90974 21.2844 2.71799 20.9081C2.57969 20.6366 2.53563 20.3669 2.51695 20.1383C2.49994 19.9302 2.49997 19.6844 2.5 19.432L2.5 18.5682C2.49997 18.3158 2.49994 18.07 2.51695 17.8619C2.53563 17.6333 2.57969 17.3635 2.71799 17.0921C2.90974 16.7158 3.2157 16.4098 3.59202 16.2181C3.86345 16.0798 4.13318 16.0357 4.36178 16.017C4.40624 16.0134 4.45241 16.0105 4.50001 16.0083V9.99187C4.45241 9.98962 4.40624 9.98677 4.36178 9.98314C4.13318 9.96446 3.86345 9.92039 3.59202 9.78209C3.2157 9.59035 2.90974 9.28439 2.71799 8.90806C2.57969 8.63664 2.53563 8.3669 2.51695 8.13831C2.49994 7.93015 2.49997 7.68436 2.5 7.43198C2.5 7.42136 2.50001 7.41072 2.50001 7.40008L2.50001 6.28356C2.50001 6.27446 2.5 6.26536 2.5 6.25626C2.49998 6.05096 2.49995 5.84688 2.51284 5.67148C2.52721 5.47571 2.56094 5.24906 2.6623 5.01304C2.80546 4.6797 3.03659 4.39157 3.33093 4.17952C3.53935 4.02937 3.75328 3.94727 3.94126 3.89077C4.1097 3.84015 4.30892 3.7959 4.50934 3.75139C4.51822 3.74942 4.5271 3.74744 4.53599 3.74547L11.936 2.10102C11.9447 2.09909 11.9537 2.09708 11.9628 2.09503C12.064 2.07238 12.1916 2.04385 12.3253 2.03212ZM6.50001 10.0001V16.0001H9.00001V10.0001H6.50001ZM5.1 8.00008C4.80348 8.00008 4.64122 7.9993 4.52464 7.98978C4.52 7.9894 4.5156 7.98902 4.51145 7.98863C4.51107 7.98448 4.51069 7.98009 4.51031 7.97545C4.50078 7.85886 4.50001 7.69661 4.50001 7.40008V6.28356C4.50001 6.04004 4.50063 5.91102 4.50746 5.81797C4.5077 5.81476 4.50794 5.81171 4.50817 5.8088C4.51095 5.80794 4.51388 5.80705 4.51697 5.80612C4.60631 5.77927 4.73213 5.75067 4.96985 5.69784L12.3698 4.0534C12.4394 4.03795 12.4734 4.03047 12.4983 4.02561C12.4989 4.02549 12.4995 4.02538 12.5 4.02528C12.5006 4.02538 12.5011 4.02549 12.5017 4.02561C12.5266 4.03047 12.5606 4.03795 12.6302 4.0534L20.0302 5.69784C20.2679 5.75067 20.3937 5.77927 20.483 5.80612C20.4861 5.80705 20.4891 5.80794 20.4918 5.8088C20.4921 5.8117 20.4923 5.81476 20.4925 5.81797C20.4994 5.91102 20.5 6.04004 20.5 6.28356V7.40008C20.5 7.69661 20.4992 7.85886 20.4897 7.97545C20.4893 7.98009 20.4889 7.98448 20.4886 7.98862C20.4844 7.98901 20.48 7.9894 20.4754 7.98978C20.3588 7.9993 20.1965 8.00008 19.9 8.00008H5.1ZM11 10.0001V16.0001H14V10.0001H11ZM16 10.0001V16.0001H18.5V10.0001H16ZM5.10001 18.0001C4.80348 18.0001 4.64122 18.0009 4.52464 18.0104C4.52 18.0108 4.5156 18.0111 4.51145 18.0115C4.51107 18.0157 4.51069 18.0201 4.51031 18.0247C4.50078 18.1413 4.50001 18.3036 4.50001 18.6001V19.4001C4.50001 19.6966 4.50078 19.8589 4.51031 19.9754C4.51069 19.9801 4.51107 19.9845 4.51145 19.9886C4.5156 19.989 4.52 19.9894 4.52464 19.9898C4.64122 19.9993 4.80348 20.0001 5.1 20.0001H19.9C20.1965 20.0001 20.3588 19.9993 20.4754 19.9898C20.48 19.9894 20.4844 19.989 20.4886 19.9886C20.4889 19.9845 20.4893 19.9801 20.4897 19.9754C20.4992 19.8589 20.5 19.6966 20.5 19.4001V18.6001C20.5 18.3036 20.4992 18.1413 20.4897 18.0247C20.4893 18.0201 20.4889 18.0157 20.4885 18.0115C20.4844 18.0111 20.48 18.0108 20.4754 18.0104C20.3588 18.0009 20.1965 18.0001 19.9 18.0001H5.10001Z" fill="white"/>
</svg>
