<svg width="25" height="24" viewBox="0 0 25 24" fill="none" xmlns="http://www.w3.org/2000/svg">
<path fill-rule="evenodd" clip-rule="evenodd" d="M12.0443 6.07167C10.5868 6.52371 9.05144 6.99994 7.50001 6.99994C6.4728 6.99994 5.55445 6.89079 4.77915 6.74182C4.25131 6.64041 3.89967 6.57327 3.64638 6.53979C3.59648 6.53319 3.55516 6.52859 3.52121 6.52545C3.51903 6.54745 3.51685 6.57334 3.51484 6.60353C3.50054 6.81877 3.50001 7.11978 3.50001 7.58879L3.50001 18.3372C3.50001 18.3744 3.50004 18.3982 3.50031 18.4168C3.50252 18.4203 3.50482 18.4239 3.50717 18.4275C3.50951 18.4311 3.51184 18.4346 3.51413 18.438C4.0354 18.6589 5.21281 18.9999 7.50001 18.9999C9.33704 18.9999 10.9616 18.5424 12.5809 18.0442C12.7053 18.0059 12.8302 17.9671 12.9557 17.9282C14.4132 17.4762 15.9486 16.9999 17.5 16.9999C18.5272 16.9999 19.4456 17.1091 20.2209 17.2581C20.7487 17.3595 21.1003 17.4266 21.3536 17.4601C21.4035 17.4667 21.4449 17.4713 21.4788 17.4744C21.481 17.4524 21.4832 17.4265 21.4852 17.3963C21.4995 17.1811 21.5 16.8801 21.5 16.4111V5.66268C21.5 5.62551 21.5 5.60168 21.4997 5.58309C21.4975 5.57959 21.4952 5.57602 21.4928 5.57241C21.4905 5.56882 21.4882 5.5653 21.4859 5.56188C20.9646 5.34099 19.7872 4.99994 17.5 4.99994C15.663 4.99994 14.0384 5.45748 12.4191 5.95572C12.2948 5.99398 12.1698 6.03273 12.0443 6.07167ZM21.5972 17.4802C21.5995 17.48 21.6007 17.48 21.601 17.48L21.5972 17.4802ZM3.4028 6.51964C3.40033 6.51987 3.39903 6.51993 3.39899 6.5199L3.4028 6.51964ZM11.8309 4.04416C13.4616 3.5424 15.337 2.99994 17.5 2.99994C20.0455 2.99994 21.516 3.38885 22.3357 3.75044C22.3381 3.75149 22.3407 3.75264 22.3436 3.7539C22.3869 3.77289 22.4863 3.81641 22.5953 3.88798C22.7065 3.96094 22.7994 4.04316 22.8808 4.12088C23.0068 4.24108 23.1121 4.39399 23.1683 4.48024C23.2245 4.5665 23.3219 4.72458 23.3811 4.88832C23.5001 5.218 23.5001 5.4521 23.5 5.64924L23.5 16.4449C23.5 16.8704 23.5 17.2391 23.4808 17.5289C23.4628 17.7995 23.4222 18.1779 23.2275 18.5118C23.1214 18.6935 22.9831 18.8856 22.7801 19.0533C22.5771 19.221 22.3624 19.3206 22.1639 19.3904C21.7852 19.5237 21.371 19.4798 21.0915 19.4428C20.773 19.4007 20.3631 19.322 19.875 19.2282L19.8435 19.2221C19.1772 19.0941 18.3858 18.9999 17.5 18.9999C16.2654 18.9999 15.0142 19.3862 13.4736 19.8618C13.3734 19.8928 13.2719 19.9241 13.1691 19.9557C11.5384 20.4575 9.66298 20.9999 7.50001 20.9999C4.95447 20.9999 3.48405 20.611 2.6643 20.2494C2.66193 20.2484 2.6593 20.2472 2.65643 20.246C2.61309 20.227 2.51375 20.1835 2.40469 20.1119C2.2935 20.0389 2.20064 19.9567 2.11921 19.879C1.99326 19.7588 1.88794 19.6059 1.83171 19.5196C1.77548 19.4334 1.67809 19.2753 1.61895 19.1116C1.49987 18.7819 1.49994 18.5478 1.5 18.3506L1.50001 7.555C1.49999 7.12953 1.49998 6.76082 1.51924 6.47094C1.53722 6.20034 1.57777 5.82196 1.77256 5.48811C1.87861 5.30637 2.01696 5.11433 2.21995 4.94663C2.42293 4.77893 2.63763 4.6793 2.83612 4.60945C3.21485 4.47618 3.629 4.52009 3.90848 4.55703C4.22704 4.59914 4.63696 4.67791 5.12506 4.7717L5.15652 4.77775C5.8228 4.90577 6.61417 4.99994 7.50001 4.99994C8.73458 4.99994 9.98584 4.61366 11.5264 4.13807C11.6266 4.10712 11.7281 4.07579 11.8309 4.04416ZM18.5 7.99994C19.0523 7.99994 19.5 8.44765 19.5 8.99994V12.9999C19.5 13.5522 19.0523 13.9999 18.5 13.9999C17.9477 13.9999 17.5 13.5522 17.5 12.9999V8.99994C17.5 8.44765 17.9477 7.99994 18.5 7.99994ZM12.5 10.4999C11.6716 10.4999 11 11.1715 11 11.9999C11 12.8284 11.6716 13.4999 12.5 13.4999C13.3284 13.4999 14 12.8284 14 11.9999C14 11.1715 13.3284 10.4999 12.5 10.4999ZM9.00001 11.9999C9.00001 10.0669 10.567 8.49994 12.5 8.49994C14.433 8.49994 16 10.0669 16 11.9999C16 13.9329 14.433 15.4999 12.5 15.4999C10.567 15.4999 9.00001 13.9329 9.00001 11.9999ZM6.50001 9.99994C7.05229 9.99994 7.50001 10.4477 7.50001 10.9999V14.9999C7.50001 15.5522 7.05229 15.9999 6.50001 15.9999C5.94772 15.9999 5.50001 15.5522 5.50001 14.9999V10.9999C5.50001 10.4477 5.94772 9.99994 6.50001 9.99994Z" fill="white"/>
</svg>
