<svg width="465" height="287" viewBox="0 0 465 287" fill="none" xmlns="http://www.w3.org/2000/svg">
<g clip-path="url(#clip0_311_53209)">
<rect y="-1" width="505" height="288" fill="url(#paint0_linear_311_53209)"/>
<g filter="url(#filter0_b_311_53209)">
<mask id="path-2-inside-1_311_53209" fill="white">
<path fill-rule="evenodd" clip-rule="evenodd" d="M383.774 37.347C325.147 27.2032 269.397 66.5063 259.254 125.133C249.11 183.76 288.413 239.509 347.04 249.653C405.667 259.797 461.416 220.494 471.56 161.867C481.704 103.24 442.4 47.4908 383.774 37.347ZM385.642 97.6705C386.786 91.0575 382.353 84.769 375.74 83.6248C369.127 82.4806 362.838 86.9139 361.694 93.527L353.407 141.423C352.263 148.036 356.696 154.324 363.309 155.468C369.922 156.613 376.211 152.179 377.355 145.566L385.642 97.6705ZM359.166 179.416C352.553 178.272 346.264 182.705 345.12 189.318C343.976 195.932 348.409 202.22 355.022 203.364L355.142 203.385C361.755 204.529 368.043 200.096 369.188 193.483C370.332 186.87 365.898 180.581 359.285 179.437L359.166 179.416Z"/>
</mask>
<path fill-rule="evenodd" clip-rule="evenodd" d="M383.774 37.347C325.147 27.2032 269.397 66.5063 259.254 125.133C249.11 183.76 288.413 239.509 347.04 249.653C405.667 259.797 461.416 220.494 471.56 161.867C481.704 103.24 442.4 47.4908 383.774 37.347ZM385.642 97.6705C386.786 91.0575 382.353 84.769 375.74 83.6248C369.127 82.4806 362.838 86.9139 361.694 93.527L353.407 141.423C352.263 148.036 356.696 154.324 363.309 155.468C369.922 156.613 376.211 152.179 377.355 145.566L385.642 97.6705ZM359.166 179.416C352.553 178.272 346.264 182.705 345.12 189.318C343.976 195.932 348.409 202.22 355.022 203.364L355.142 203.385C361.755 204.529 368.043 200.096 369.188 193.483C370.332 186.87 365.898 180.581 359.285 179.437L359.166 179.416Z" fill="url(#paint1_linear_311_53209)" fill-opacity="0.26"/>
<path d="M261.478 125.518C271.409 68.1196 325.991 29.64 383.389 39.5712L384.159 35.1227C324.303 24.7664 267.386 64.8931 257.029 124.748L261.478 125.518ZM347.425 247.429C290.026 237.498 251.547 182.916 261.478 125.518L257.029 124.748C246.673 184.603 286.8 241.521 346.655 251.877L347.425 247.429ZM469.336 161.482C459.404 218.881 404.823 257.36 347.425 247.429L346.655 251.877C406.51 262.234 463.428 222.107 473.784 162.252L469.336 161.482ZM383.389 39.5712C440.787 49.5025 479.267 104.084 469.336 161.482L473.784 162.252C484.14 102.397 444.014 45.479 384.159 35.1227L383.389 39.5712ZM375.355 85.8491C380.74 86.7807 384.349 91.9011 383.418 97.2857L387.866 98.0554C389.223 90.2139 383.966 82.7573 376.125 81.4005L375.355 85.8491ZM363.918 93.9118C364.85 88.5272 369.97 84.9174 375.355 85.8491L376.125 81.4005C368.283 80.0438 360.827 85.3007 359.47 93.1421L363.918 93.9118ZM355.631 141.808L363.918 93.9118L359.47 93.1421L351.183 141.038L355.631 141.808ZM363.694 153.244C358.309 152.313 354.7 147.192 355.631 141.808L351.183 141.038C349.826 148.879 355.083 156.336 362.924 157.693L363.694 153.244ZM375.131 145.181C374.199 150.566 369.079 154.176 363.694 153.244L362.924 157.693C370.766 159.049 378.222 153.793 379.579 145.951L375.131 145.181ZM383.418 97.2857L375.131 145.181L379.579 145.951L387.866 98.0554L383.418 97.2857ZM347.344 189.703C348.276 184.319 353.396 180.709 358.781 181.641L359.551 177.192C351.709 175.835 344.252 181.092 342.896 188.934L347.344 189.703ZM355.407 201.14C350.022 200.208 346.413 195.088 347.344 189.703L342.896 188.934C341.539 196.775 346.796 204.232 354.637 205.588L355.407 201.14ZM355.527 201.161L355.407 201.14L354.637 205.588L354.757 205.609L355.527 201.161ZM366.963 193.098C366.032 198.483 360.911 202.092 355.527 201.161L354.757 205.609C362.599 206.966 370.055 201.709 371.412 193.868L366.963 193.098ZM358.901 181.661C364.285 182.593 367.895 187.713 366.963 193.098L371.412 193.868C372.769 186.026 367.512 178.57 359.67 177.213L358.901 181.661ZM358.781 181.641L358.901 181.661L359.67 177.213L359.551 177.192L358.781 181.641Z" fill="white" fill-opacity="0.16" mask="url(#path-2-inside-1_311_53209)"/>
</g>
<g filter="url(#filter1_b_311_53209)">
<rect x="227.873" y="149.352" width="73.0683" height="73.0683" rx="36.5342" transform="rotate(-8.50395 227.873 149.352)" fill="white" fill-opacity="0.2"/>
<rect x="228.819" y="150.051" width="71.4055" height="71.4055" rx="35.7028" transform="rotate(-8.50395 228.819 150.051)" stroke="white" stroke-opacity="0.08" stroke-width="1.66284"/>
</g>
<g clip-path="url(#clip1_311_53209)">
<path fill-rule="evenodd" clip-rule="evenodd" d="M266.972 165.918L266.972 165.918L266.972 165.918ZM267.307 166.026L280.512 170.332L269.144 178.312L255.939 174.006L267.307 166.026ZM268.855 178.513C268.855 178.513 268.855 178.513 268.855 178.513L268.855 178.513ZM269.48 178.42C269.48 178.42 269.48 178.42 269.48 178.42L269.48 178.42ZM267.596 165.825L267.596 165.825L267.596 165.825ZM266.388 162.873C266.669 162.776 266.966 162.732 267.264 162.743C267.616 162.756 267.945 162.866 268.104 162.919C268.12 162.925 268.135 162.929 268.147 162.934L284.547 168.281C285.123 168.469 285.543 168.967 285.633 169.566C285.723 170.165 285.466 170.764 284.97 171.112L270.852 181.023C270.841 181.031 270.829 181.04 270.815 181.05C270.678 181.147 270.396 181.349 270.063 181.464C269.782 181.562 269.485 181.606 269.188 181.595C268.835 181.582 268.507 181.472 268.348 181.419C268.331 181.413 268.317 181.408 268.304 181.404L251.905 176.056C251.328 175.868 250.908 175.371 250.818 174.772C250.729 174.172 250.985 173.574 251.481 173.225L265.599 163.315C265.61 163.307 265.623 163.298 265.637 163.288C265.773 163.191 266.055 162.989 266.388 162.873ZM252.063 181.951C252.337 181.111 253.24 180.652 254.08 180.926L270.327 186.225L284.314 176.406C285.038 175.898 286.036 176.073 286.543 176.796C287.051 177.519 286.876 178.517 286.153 179.025L272.035 188.936C272.024 188.943 272.012 188.952 271.998 188.962C271.861 189.06 271.579 189.261 271.246 189.377C270.965 189.474 270.668 189.519 270.371 189.508C270.019 189.495 269.69 189.384 269.531 189.331C269.514 189.326 269.5 189.321 269.487 189.317L253.088 183.969C252.248 183.695 251.789 182.792 252.063 181.951ZM270.038 186.426C270.038 186.426 270.038 186.426 270.038 186.426L270.038 186.426ZM270.663 186.332C270.663 186.332 270.663 186.332 270.663 186.332L270.663 186.332ZM253.246 189.864C253.52 189.024 254.423 188.565 255.263 188.839L271.51 194.137L285.497 184.318C286.221 183.81 287.219 183.985 287.726 184.708C288.234 185.432 288.059 186.43 287.336 186.937L273.218 196.848C273.207 196.856 273.195 196.865 273.181 196.875C273.044 196.972 272.762 197.174 272.429 197.289C272.148 197.387 271.851 197.431 271.554 197.42C271.202 197.407 270.873 197.297 270.714 197.244C270.698 197.238 270.683 197.233 270.67 197.229L254.271 191.881C253.431 191.607 252.972 190.704 253.246 189.864Z" fill="white"/>
</g>
</g>
<defs>
<filter id="filter0_b_311_53209" x="225.471" y="3.56471" width="279.871" height="279.871" filterUnits="userSpaceOnUse" color-interpolation-filters="sRGB">
<feFlood flood-opacity="0" result="BackgroundImageFix"/>
<feGaussianBlur in="BackgroundImageFix" stdDeviation="16.0937"/>
<feComposite in2="SourceAlpha" operator="in" result="effect1_backgroundBlur_311_53209"/>
<feBlend mode="normal" in="SourceGraphic" in2="effect1_backgroundBlur_311_53209" result="shape"/>
</filter>
<filter id="filter1_b_311_53209" x="194.617" y="105.29" width="149.584" height="149.584" filterUnits="userSpaceOnUse" color-interpolation-filters="sRGB">
<feFlood flood-opacity="0" result="BackgroundImageFix"/>
<feGaussianBlur in="BackgroundImageFix" stdDeviation="16.6284"/>
<feComposite in2="SourceAlpha" operator="in" result="effect1_backgroundBlur_311_53209"/>
<feBlend mode="normal" in="SourceGraphic" in2="effect1_backgroundBlur_311_53209" result="shape"/>
</filter>
<linearGradient id="paint0_linear_311_53209" x1="385.574" y1="112.712" x2="-1.5506e-06" y2="112.712" gradientUnits="userSpaceOnUse">
<stop stop-color="#6188FF"/>
<stop offset="1" stop-color="#6188FF" stop-opacity="0"/>
</linearGradient>
<linearGradient id="paint1_linear_311_53209" x1="383.774" y1="37.347" x2="478.773" y2="303.336" gradientUnits="userSpaceOnUse">
<stop stop-color="white"/>
<stop offset="1" stop-color="white" stop-opacity="0"/>
</linearGradient>
<clipPath id="clip0_311_53209">
<rect width="465" height="287" fill="white"/>
</clipPath>
<clipPath id="clip1_311_53209">
<rect width="38.4021" height="38.4021" fill="white" transform="translate(247.579 163.931) rotate(-8.50395)"/>
</clipPath>
</defs>
</svg>
