<svg width="42" height="42" viewBox="0 0 42 42" fill="none" xmlns="http://www.w3.org/2000/svg">
<rect width="42" height="42" rx="21" fill="#285BF3"/>
<g clip-path="url(#clip0_311_48506)">
<path fill-rule="evenodd" clip-rule="evenodd" d="M12 21C12 16.0294 16.0294 12 21 12C25.9706 12 30 16.0294 30 21C30 25.9706 25.9706 30 21 30C16.0294 30 12 25.9706 12 21ZM23.6942 17.1487C24.0137 16.8292 24.5317 16.8292 24.8513 17.1487C25.1708 17.4683 25.1708 17.9863 24.8513 18.3058L18.3058 24.8513C17.9863 25.1708 17.4683 25.1708 17.1487 24.8513C16.8292 24.5317 16.8292 24.0137 17.1487 23.6942L23.6942 17.1487ZM17.3182 18.5455C17.3182 17.8677 17.8677 17.3182 18.5455 17.3182C19.2233 17.3182 19.7727 17.8677 19.7727 18.5455C19.7727 19.2233 19.2233 19.7727 18.5455 19.7727C17.8677 19.7727 17.3182 19.2233 17.3182 18.5455ZM22.2273 23.4545C22.2273 22.7767 22.7767 22.2273 23.4545 22.2273C24.1323 22.2273 24.6818 22.7767 24.6818 23.4545C24.6818 24.1323 24.1323 24.6818 23.4545 24.6818C22.7767 24.6818 22.2273 24.1323 22.2273 23.4545Z" fill="white"/>
</g>
<defs>
<clipPath id="clip0_311_48506">
<rect width="18" height="18" fill="white" transform="translate(12 12)"/>
</clipPath>
</defs>
</svg>
