<svg width="259" height="238" viewBox="0 0 259 238" fill="none" xmlns="http://www.w3.org/2000/svg">
<g opacity="0.2" filter="url(#filter0_f_311_53223)">
<ellipse cx="150.278" cy="127.961" rx="102.121" ry="79.5337" transform="rotate(5.50343 150.278 127.961)" fill="#5580FF"/>
</g>
<g filter="url(#filter1_b_311_53223)">
<rect x="66.6951" y="6" width="158.555" height="158.555" rx="79.2773" transform="rotate(9.32636 66.6951 6)" fill="#285BF3"/>
<g clip-path="url(#clip0_311_53223)">
<path fill-rule="evenodd" clip-rule="evenodd" d="M123.605 62.2109L151.255 66.7517C153.879 67.1826 156.044 67.5382 157.784 67.972C159.592 68.4226 161.224 69.0205 162.673 70.0864C164.921 71.7393 166.588 74.0615 167.435 76.7201C167.982 78.4344 168.026 80.1714 167.875 82.0282C167.729 83.8159 167.374 85.9814 166.943 88.6052L162.402 116.255C161.971 118.879 161.615 121.044 161.182 122.785C160.731 124.592 160.133 126.224 159.067 127.673C157.414 129.921 155.092 131.588 152.434 132.435C150.719 132.982 148.982 133.026 147.126 132.875C145.338 132.73 143.172 132.374 140.549 131.943L112.899 127.402C110.275 126.971 108.11 126.616 106.369 126.182C104.562 125.731 102.93 125.133 101.48 124.067C99.2325 122.414 97.5654 120.092 96.7183 117.434C96.1721 115.719 96.1274 113.982 96.2786 112.126C96.4242 110.338 96.7798 108.172 97.2108 105.549L101.752 77.899C102.183 75.2751 102.538 73.1096 102.972 71.3692C103.423 69.5616 104.02 67.9302 105.086 66.4806C106.739 64.2325 109.061 62.5655 111.72 61.7184C113.434 61.1722 115.171 61.1275 117.028 61.2787C118.816 61.4243 120.981 61.7799 123.605 62.2109ZM124.148 74.0162C125.948 74.3118 127.168 76.0108 126.872 77.811L126.337 81.0706L129.596 81.6059C131.397 81.9016 132.616 83.6006 132.321 85.4008C132.025 87.201 130.326 88.4207 128.526 88.125L125.266 87.5897L124.731 90.8493C124.435 92.6495 122.736 93.8692 120.936 93.5735C119.136 93.2779 117.916 91.5788 118.212 89.7786L118.747 86.5191L115.488 85.9838C113.687 85.6881 112.468 83.9891 112.763 82.1889C113.059 80.3887 114.758 79.169 116.558 79.4647L119.818 80L120.353 76.7404C120.649 74.9402 122.348 73.7205 124.148 74.0162ZM151.022 79.4102C152.504 78.3463 154.568 78.6852 155.632 80.1672C156.696 81.6492 156.357 83.713 154.875 84.7769L113.131 114.744C111.649 115.807 109.586 115.469 108.522 113.987C107.458 112.505 107.797 110.441 109.279 109.377L151.022 79.4102ZM131.833 108.753C132.129 106.953 133.828 105.733 135.628 106.029L148.666 108.17C150.466 108.466 151.686 110.165 151.39 111.965C151.095 113.765 149.396 114.985 147.595 114.689L134.557 112.548C132.757 112.252 131.537 110.553 131.833 108.753Z" fill="white"/>
</g>
<rect x="67.515" y="7.14216" width="156.566" height="156.566" rx="78.2831" transform="rotate(9.32636 67.515 7.14216)" stroke="white" stroke-opacity="0.16" stroke-width="1.98837"/>
</g>
<defs>
<filter id="filter0_f_311_53223" x="0.337158" y="0.182129" width="299.881" height="255.558" filterUnits="userSpaceOnUse" color-interpolation-filters="sRGB">
<feFlood flood-opacity="0" result="BackgroundImageFix"/>
<feBlend mode="normal" in="SourceGraphic" in2="BackgroundImageFix" result="shape"/>
<feGaussianBlur stdDeviation="24" result="effect1_foregroundBlur_311_53223"/>
</filter>
<filter id="filter1_b_311_53223" x="12.6474" y="-22.3526" width="238.859" height="238.859" filterUnits="userSpaceOnUse" color-interpolation-filters="sRGB">
<feFlood flood-opacity="0" result="BackgroundImageFix"/>
<feGaussianBlur in="BackgroundImageFix" stdDeviation="14.1763"/>
<feComposite in2="SourceAlpha" operator="in" result="effect1_backgroundBlur_311_53223"/>
<feBlend mode="normal" in="SourceGraphic" in2="effect1_backgroundBlur_311_53223" result="shape"/>
</filter>
<clipPath id="clip0_311_53223">
<rect width="79.2773" height="79.2773" fill="white" transform="translate(99.386 51.5383) rotate(9.32636)"/>
</clipPath>
</defs>
</svg>
