<svg width="234" height="234" viewBox="0 0 234 234" fill="none" xmlns="http://www.w3.org/2000/svg">
<path fill-rule="evenodd" clip-rule="evenodd" d="M255.694 166.763C255.398 164.313 255.843 161.83 256.971 159.635C258.05 157.481 259.734 155.69 261.818 154.481C263.902 153.272 266.293 152.699 268.698 152.832L269.371 152.872C273.334 153.107 277.229 151.758 280.198 149.121C283.167 146.485 284.967 142.777 285.202 138.813C285.437 134.849 284.088 130.955 281.452 127.986C278.815 125.017 275.107 123.217 271.143 122.982L269.873 122.906C267.469 122.754 265.162 121.902 263.236 120.456C261.31 119.009 259.849 117.031 259.033 114.764L259.068 114.167C258.207 111.854 258.059 109.336 258.642 106.938C259.225 104.54 260.513 102.372 262.341 100.713L262.815 100.291C264.287 98.9854 265.487 97.4025 266.347 95.6328C267.207 93.8631 267.709 91.9413 267.826 89.9773C267.942 88.0132 267.67 86.0455 267.026 84.1866C266.381 82.3277 265.377 80.614 264.07 79.1436C262.764 77.6718 261.181 76.4717 259.411 75.612C257.642 74.7523 255.72 74.2498 253.756 74.1333C251.792 74.0169 249.824 74.2887 247.965 74.9332C246.106 75.5777 244.393 76.5823 242.922 77.8895L242.447 78.3113C240.584 79.9295 238.279 80.9525 235.828 81.2483C233.378 81.544 230.896 81.099 228.701 79.9707C226.547 78.8924 224.755 77.2077 223.546 75.1242C222.338 73.0406 221.764 70.6491 221.898 68.2439L221.937 67.5714C222.172 63.6077 220.823 59.7129 218.187 56.744C215.55 53.775 211.842 51.975 207.879 51.7399C203.915 51.5049 200.02 52.854 197.051 55.4905C194.082 58.1271 192.282 61.8351 192.047 65.7988L191.972 67.0691C191.82 69.4731 190.968 71.7802 189.521 73.7062C188.075 75.6323 186.096 77.0934 183.83 77.9096L183.232 77.8741C180.919 78.7352 178.402 78.8836 176.004 78.3003C173.606 77.717 171.437 76.4288 169.778 74.6016L169.357 74.1267C168.051 72.6548 166.468 71.4547 164.698 70.595C162.929 69.7353 161.007 69.2329 159.043 69.1164C157.079 68.9999 155.111 69.2717 153.252 69.9162C151.393 70.5607 149.68 71.5653 148.209 72.8725C146.737 74.1781 145.537 75.761 144.678 77.5308C143.818 79.3005 143.315 81.2223 143.199 83.1863C143.082 85.1503 143.354 87.118 143.999 88.977C144.643 90.8359 145.648 92.5495 146.955 94.0199L147.377 94.4949C148.995 96.3582 150.018 98.6635 150.314 101.114C150.61 103.564 150.165 106.046 149.036 108.241C148.045 110.513 146.392 112.433 144.295 113.753C142.197 115.073 139.751 115.731 137.274 115.642L136.601 115.603C132.638 115.367 128.743 116.717 125.774 119.353C122.805 121.99 121.005 125.698 120.77 129.661C120.535 133.625 121.884 137.52 124.521 140.489C127.157 143.458 130.865 145.258 134.829 145.493L136.099 145.568C138.503 145.72 140.81 146.572 142.736 148.019C144.662 149.465 146.123 151.444 146.94 153.71C147.801 156.023 147.949 158.541 147.366 160.939C146.783 163.337 145.494 165.505 143.667 167.164L143.192 167.586C141.72 168.891 140.52 170.474 139.661 172.244C138.801 174.013 138.298 175.935 138.182 177.899C138.065 179.863 138.337 181.831 138.982 183.69C139.626 185.549 140.631 187.263 141.938 188.733C143.244 190.205 144.827 191.405 146.596 192.265C148.366 193.124 150.288 193.627 152.252 193.743C154.216 193.86 156.184 193.588 158.043 192.943C159.901 192.299 161.615 191.294 163.085 189.987L163.56 189.565C165.424 187.947 167.729 186.924 170.179 186.628C172.629 186.333 175.112 186.778 177.307 187.906C179.578 188.898 181.499 190.55 182.819 192.647C184.138 194.745 184.797 197.191 184.708 199.668L184.668 200.341C184.433 204.304 185.782 208.199 188.419 211.168C191.055 214.137 194.763 215.937 198.727 216.172C202.691 216.407 206.585 215.058 209.554 212.421C212.523 209.785 214.323 206.077 214.558 202.113L214.634 200.843C214.786 198.439 215.638 196.132 217.084 194.206C218.531 192.28 220.509 190.819 222.776 190.002C225.088 189.141 227.606 188.993 230.004 189.576C232.402 190.16 234.57 191.448 236.229 193.275L236.651 193.75C237.957 195.222 239.54 196.422 241.309 197.282C243.079 198.141 245.001 198.644 246.965 198.76C248.929 198.877 250.897 198.605 252.756 197.96C254.614 197.316 256.328 196.311 257.799 195.004C259.27 193.698 260.47 192.116 261.33 190.346C262.19 188.576 262.692 186.654 262.809 184.69C262.925 182.726 262.653 180.759 262.009 178.9C261.364 177.041 260.36 175.327 259.053 173.857L258.631 173.382C257.013 171.518 255.99 169.213 255.694 166.763ZM201.541 158.598C215.161 159.405 226.856 149.02 227.663 135.401C228.471 121.782 218.085 110.086 204.466 109.279C190.847 108.471 179.152 118.857 178.344 132.476C177.537 146.095 187.922 157.79 201.541 158.598Z" fill="#353E54"/>
<mask id="mask0_311_53257" style="mask-type:alpha" maskUnits="userSpaceOnUse" x="120" y="51" width="166" height="166">
<path fill-rule="evenodd" clip-rule="evenodd" d="M255.694 166.763C255.398 164.313 255.843 161.83 256.972 159.635C258.05 157.481 259.735 155.69 261.818 154.481C263.902 153.272 266.293 152.699 268.698 152.832L269.371 152.872C273.335 153.107 277.229 151.758 280.198 149.121C283.167 146.485 284.967 142.777 285.202 138.813C285.438 134.849 284.088 130.954 281.452 127.985C278.815 125.016 275.107 123.216 271.144 122.981L269.873 122.906C267.469 122.754 265.162 121.902 263.236 120.455C261.31 119.009 259.849 117.031 259.033 114.764L259.068 114.167C258.207 111.854 258.059 109.336 258.642 106.938C259.225 104.54 260.514 102.372 262.341 100.713L262.816 100.291C264.288 98.9853 265.488 97.4024 266.347 95.6327C267.207 93.863 267.71 91.9412 267.826 89.9771C267.942 88.0131 267.671 86.0454 267.026 84.1865C266.382 82.3276 265.377 80.6139 264.07 79.1435C262.764 77.6716 261.181 76.4715 259.412 75.6118C257.642 74.7521 255.72 74.2497 253.756 74.1332C251.792 74.0167 249.824 74.2885 247.965 74.933C246.107 75.5775 244.393 76.5821 242.922 77.8894L242.448 78.3111C240.584 79.9294 238.279 80.9524 235.829 81.2481C233.379 81.5439 230.896 81.0989 228.701 79.9705C226.547 78.8922 224.756 77.2076 223.547 75.1241C222.338 73.0405 221.765 70.6489 221.898 68.2438L221.938 67.5713C222.173 63.6076 220.824 59.7128 218.187 56.7439C215.55 53.7749 211.842 51.9749 207.879 51.7398C203.915 51.5047 200.02 52.8539 197.051 55.4904C194.082 58.127 192.282 61.835 192.047 65.7987L191.972 67.069C191.82 69.473 190.968 71.78 189.521 73.7061C188.075 75.6322 186.097 77.0933 183.83 77.9094L183.232 77.874C180.92 78.735 178.402 78.8835 176.004 78.3002C173.606 77.7169 171.438 76.4286 169.779 74.6015L169.357 74.1265C168.051 72.6547 166.468 71.4546 164.699 70.5949C162.929 69.7352 161.007 69.2327 159.043 69.1163C157.079 68.9998 155.111 69.2716 153.252 69.9161C151.393 70.5606 149.68 71.5652 148.209 72.8724C146.738 74.178 145.537 75.7609 144.678 77.5306C143.818 79.3003 143.316 81.2222 143.199 83.1862C143.083 85.1502 143.354 87.1179 143.999 88.9768C144.643 90.8358 145.648 92.5494 146.955 94.0198L147.377 94.4948C148.995 96.3581 150.018 98.6634 150.314 101.114C150.61 103.564 150.165 106.046 149.036 108.241C148.045 110.512 146.393 112.433 144.295 113.753C142.197 115.073 139.751 115.731 137.274 115.642L136.602 115.602C132.638 115.367 128.743 116.717 125.774 119.353C122.805 121.99 121.005 125.698 120.77 129.661C120.535 133.625 121.884 137.52 124.521 140.489C127.157 143.458 130.865 145.258 134.829 145.493L136.099 145.568C138.503 145.72 140.811 146.572 142.737 148.019C144.663 149.465 146.124 151.443 146.94 153.71C147.801 156.023 147.949 158.54 147.366 160.938C146.783 163.336 145.495 165.505 143.667 167.164L143.192 167.585C141.721 168.891 140.521 170.474 139.661 172.244C138.801 174.013 138.299 175.935 138.182 177.899C138.066 179.863 138.338 181.831 138.982 183.69C139.627 185.549 140.631 187.262 141.938 188.733C143.244 190.205 144.827 191.405 146.597 192.264C148.366 193.124 150.288 193.627 152.252 193.743C154.216 193.86 156.184 193.588 158.043 192.943C159.902 192.299 161.615 191.294 163.086 189.987L163.561 189.565C165.424 187.947 167.729 186.924 170.179 186.628C172.63 186.332 175.112 186.777 177.307 187.906C179.578 188.897 181.499 190.55 182.819 192.647C184.139 194.745 184.797 197.191 184.708 199.668L184.668 200.341C184.433 204.304 185.782 208.199 188.419 211.168C191.056 214.137 194.764 215.937 198.727 216.172C202.691 216.407 206.586 215.058 209.555 212.421C212.524 209.785 214.324 206.077 214.559 202.113L214.634 200.843C214.786 198.439 215.638 196.132 217.085 194.206C218.531 192.28 220.509 190.819 222.776 190.002C225.089 189.141 227.606 188.993 230.004 189.576C232.402 190.159 234.571 191.448 236.23 193.275L236.651 193.75C237.957 195.222 239.54 196.422 241.31 197.281C243.079 198.141 245.001 198.644 246.965 198.76C248.929 198.877 250.897 198.605 252.756 197.96C254.615 197.316 256.328 196.311 257.799 195.004C259.271 193.698 260.471 192.115 261.33 190.346C262.19 188.576 262.693 186.654 262.809 184.69C262.926 182.726 262.654 180.758 262.009 178.9C261.365 177.041 260.36 175.327 259.053 173.857L258.631 173.382C257.013 171.518 255.99 169.213 255.694 166.763ZM201.542 158.598C215.161 159.405 226.856 149.02 227.664 135.401C228.471 121.781 218.086 110.086 204.466 109.279C190.847 108.471 179.152 118.857 178.345 132.476C177.537 146.095 187.923 157.79 201.542 158.598Z" fill="#353E54"/>
</mask>
<g mask="url(#mask0_311_53257)">
<g opacity="0.3" filter="url(#filter0_f_311_53257)">
<ellipse cx="150.871" cy="105.708" rx="58.1638" ry="33.8159" transform="rotate(-19.6897 150.871 105.708)" fill="#285BF3"/>
</g>
</g>
<path fill-rule="evenodd" clip-rule="evenodd" d="M108.328 217.97C108.563 216.326 109.285 214.791 110.401 213.561C111.477 212.349 112.885 211.479 114.45 211.056C116.015 210.634 117.669 210.679 119.209 211.185L119.639 211.328C122.174 212.172 124.94 211.975 127.33 210.779C129.719 209.583 131.536 207.487 132.38 204.952C133.224 202.417 133.026 199.651 131.831 197.261C130.635 194.872 128.539 193.055 126.004 192.211L125.192 191.941C123.656 191.423 122.305 190.467 121.306 189.191C120.306 187.915 119.702 186.374 119.566 184.759L119.694 184.377C119.537 182.723 119.88 181.061 120.677 179.604C121.475 178.148 122.69 176.963 124.167 176.204L124.549 176.012C125.733 175.421 126.789 174.601 127.657 173.601C128.524 172.601 129.186 171.439 129.604 170.183C130.022 168.927 130.189 167.601 130.094 166.28C130 164.96 129.646 163.671 129.053 162.487C128.461 161.303 127.641 160.247 126.641 159.38C125.641 158.512 124.48 157.851 123.223 157.432C121.967 157.014 120.641 156.848 119.321 156.942C118 157.037 116.711 157.391 115.528 157.984L115.145 158.175C113.652 158.902 111.975 159.165 110.332 158.93C108.688 158.695 107.152 157.972 105.922 156.856C104.71 155.78 103.84 154.372 103.418 152.807C102.995 151.243 103.04 149.588 103.546 148.048L103.689 147.618C104.533 145.083 104.336 142.317 103.14 139.927C101.944 137.538 99.8484 135.721 97.3133 134.877C94.7783 134.033 92.0118 134.231 89.6224 135.427C87.2331 136.622 85.4165 138.718 84.5724 141.253L84.3019 142.066C83.7837 143.601 82.8278 144.952 81.5517 145.952C80.2756 146.951 78.7352 147.556 77.1199 147.691L76.7376 147.563C75.0843 147.72 73.4221 147.377 71.9654 146.58C70.5087 145.782 69.3242 144.567 68.5647 143.09L68.3734 142.708C67.7816 141.524 66.9622 140.468 65.962 139.6C64.9618 138.733 63.8004 138.071 62.5443 137.653C61.2882 137.235 59.962 137.068 58.6415 137.163C57.3209 137.257 56.032 137.612 54.8484 138.205C53.6641 138.796 52.6081 139.616 51.7407 140.616C50.8734 141.616 50.2116 142.778 49.7934 144.034C49.3752 145.29 49.2086 146.616 49.3033 147.937C49.3979 149.257 49.7519 150.546 50.345 151.73L50.5363 152.112C51.2631 153.605 51.5258 155.282 51.2907 156.926C51.0556 158.57 50.3334 160.105 49.2173 161.335C48.1766 162.638 46.768 163.598 45.1745 164.09C43.581 164.582 41.8764 164.583 40.2822 164.094L39.8521 163.95C37.317 163.106 34.5505 163.304 32.1612 164.5C29.7718 165.695 27.9552 167.791 27.1112 170.326C26.2671 172.861 26.4646 175.628 27.6603 178.017C28.856 180.406 30.9519 182.223 33.4869 183.067L34.2993 183.338C35.8352 183.856 37.1859 184.812 38.1854 186.088C39.1849 187.364 39.7894 188.904 39.9246 190.52C40.0808 192.173 39.7381 193.835 38.9408 195.292C38.1435 196.749 36.9281 197.933 35.4513 198.692L35.0691 198.884C33.8848 199.476 32.8288 200.295 31.9614 201.295C31.094 202.295 30.4323 203.457 30.0141 204.713C29.5958 205.969 29.4293 207.295 29.5239 208.616C29.6186 209.936 29.9726 211.225 30.5657 212.409C31.1575 213.593 31.9769 214.649 32.9771 215.516C33.9773 216.384 35.1387 217.046 36.3948 217.464C37.6509 217.882 38.9771 218.049 40.2977 217.954C41.6182 217.859 42.9071 217.505 44.0907 216.912L44.4729 216.721C45.9661 215.994 47.6428 215.731 49.2867 215.966C50.9307 216.202 52.4665 216.924 53.6961 218.04C54.9993 219.081 55.9593 220.489 56.4513 222.083C56.9433 223.676 56.9445 225.381 56.4548 226.975L56.3115 227.405C55.4675 229.94 55.665 232.707 56.8607 235.096C58.0564 237.485 60.1522 239.302 62.6873 240.146C65.2223 240.99 67.9888 240.793 70.3782 239.597C72.7675 238.401 74.5841 236.305 75.4281 233.77L75.6987 232.958C76.2169 231.422 77.1728 230.071 78.4489 229.072C79.725 228.072 81.2654 227.468 82.8807 227.333C84.534 227.176 86.1961 227.519 87.6529 228.316C89.1096 229.114 90.2941 230.329 91.0536 231.806L91.2449 232.188C91.8367 233.372 92.6561 234.428 93.6563 235.296C94.6565 236.163 95.8178 236.825 97.074 237.243C98.3301 237.661 99.6563 237.828 100.977 237.733C102.297 237.639 103.586 237.285 104.77 236.691C105.954 236.1 107.01 235.28 107.878 234.28C108.745 233.28 109.407 232.118 109.825 230.862C110.243 229.606 110.41 228.28 110.315 226.96C110.22 225.639 109.866 224.35 109.273 223.166L109.082 222.784C108.355 221.291 108.092 219.614 108.328 217.97ZM74.5579 203.219C83.2681 206.119 92.6801 201.409 95.5803 192.699C98.4805 183.989 93.7706 174.577 85.0604 171.677C76.3502 168.777 66.9381 173.487 64.0379 182.197C61.1377 190.907 65.8477 200.319 74.5579 203.219Z" fill="#353E54"/>
<mask id="mask1_311_53257" style="mask-type:alpha" maskUnits="userSpaceOnUse" x="26" y="134" width="107" height="107">
<path fill-rule="evenodd" clip-rule="evenodd" d="M108.326 217.97C108.561 216.326 109.284 214.79 110.4 213.561C111.476 212.349 112.884 211.478 114.448 211.056C116.013 210.634 117.668 210.678 119.208 211.184L119.638 211.328C122.173 212.172 124.939 211.974 127.329 210.778C129.718 209.583 131.535 207.487 132.379 204.952C133.223 202.417 133.025 199.65 131.829 197.261C130.634 194.872 128.538 193.055 126.003 192.211L125.19 191.94C123.655 191.422 122.304 190.466 121.304 189.19C120.305 187.914 119.7 186.374 119.565 184.758L119.692 184.376C119.536 182.723 119.879 181.061 120.676 179.604C121.474 178.147 122.689 176.963 124.166 176.203L124.548 176.012C125.732 175.42 126.788 174.601 127.656 173.601C128.523 172.6 129.185 171.439 129.603 170.183C130.021 168.927 130.188 167.601 130.093 166.28C129.998 164.959 129.644 163.671 129.051 162.487C128.46 161.303 127.64 160.247 126.64 159.379C125.64 158.512 124.478 157.85 123.222 157.432C121.966 157.014 120.64 156.847 119.319 156.942C117.999 157.036 116.71 157.39 115.526 157.984L115.144 158.175C113.651 158.902 111.974 159.164 110.33 158.929C108.686 158.694 107.151 157.972 105.921 156.856C104.709 155.779 103.839 154.372 103.416 152.807C102.994 151.242 103.039 149.588 103.545 148.048L103.688 147.618C104.532 145.083 104.334 142.316 103.139 139.927C101.943 137.538 99.8471 135.721 97.3121 134.877C94.7771 134.033 92.0106 134.23 89.6212 135.426C87.2318 136.622 85.4153 138.718 84.5712 141.253L84.3007 142.065C83.7825 143.601 82.8266 144.952 81.5505 145.951C80.2744 146.951 78.734 147.555 77.1187 147.69L76.7364 147.563C75.0831 147.719 73.4209 147.377 71.9642 146.579C70.5074 145.782 69.3229 144.567 68.5635 143.09L68.3722 142.708C67.7804 141.523 66.9609 140.467 65.9608 139.6C64.9606 138.733 63.7992 138.071 62.5431 137.653C61.287 137.234 59.9608 137.068 58.6402 137.162C57.3197 137.257 56.0308 137.611 54.8472 138.204C53.6629 138.796 52.6069 139.615 51.7395 140.616C50.8721 141.616 50.2104 142.777 49.7922 144.033C49.3739 145.289 49.2074 146.616 49.302 147.936C49.3967 149.257 49.7507 150.546 50.3438 151.729L50.5351 152.111C51.2618 153.605 51.5246 155.281 51.2895 156.925C51.0544 158.569 50.3322 160.105 49.2161 161.335C48.1754 162.638 46.7668 163.598 45.1733 164.09C43.5798 164.582 41.8751 164.583 40.281 164.093L39.8508 163.95C37.3158 163.106 34.5493 163.304 32.1599 164.499C29.7706 165.695 27.954 167.791 27.1099 170.326C26.2659 172.861 26.4634 175.627 27.6591 178.017C28.8548 180.406 30.9506 182.223 33.4857 183.067L34.2981 183.337C35.8339 183.855 37.1847 184.811 38.1842 186.087C39.1837 187.363 39.7882 188.904 39.9233 190.519C40.0796 192.172 39.7369 193.835 38.9396 195.291C38.1423 196.748 36.9269 197.933 35.4501 198.692L35.0679 198.883C33.8836 199.475 32.8276 200.295 31.9602 201.295C31.0928 202.295 30.4311 203.456 30.0128 204.712C29.5946 205.969 29.4281 207.295 29.5227 208.615C29.6174 209.936 29.9714 211.225 30.5645 212.408C31.1563 213.593 31.9757 214.649 32.9759 215.516C33.9761 216.383 35.1375 217.045 36.3936 217.463C37.6497 217.882 38.9759 218.048 40.2964 217.954C41.617 217.859 42.9059 217.505 44.0895 216.912L44.4717 216.72C45.9649 215.994 47.6416 215.731 49.2855 215.966C50.9295 216.201 52.4653 216.923 53.6949 218.04C54.9981 219.08 55.9581 220.489 56.4501 222.082C56.942 223.676 56.9432 225.38 56.4535 226.975L56.3103 227.405C55.4662 229.94 55.6638 232.706 56.8595 235.096C58.0551 237.485 60.151 239.302 62.686 240.146C65.2211 240.99 67.9876 240.792 70.3769 239.596C72.7663 238.401 74.5828 236.305 75.4269 233.77L75.6974 232.957C76.2156 231.422 77.1716 230.071 78.4477 229.071C79.7237 228.072 81.2642 227.467 82.8794 227.332C84.5327 227.176 86.1949 227.519 87.6517 228.316C89.1084 229.113 90.2929 230.329 91.0524 231.806L91.2436 232.188C91.8354 233.372 92.6549 234.428 93.6551 235.295C94.6553 236.163 95.8166 236.824 97.0727 237.243C98.3288 237.661 99.6551 237.828 100.976 237.733C102.296 237.638 103.585 237.284 104.769 236.691C105.953 236.099 107.009 235.28 107.876 234.28C108.744 233.279 109.405 232.118 109.824 230.862C110.242 229.606 110.408 228.28 110.314 226.959C110.219 225.639 109.865 224.35 109.272 223.166L109.081 222.784C108.354 221.291 108.091 219.614 108.326 217.97ZM74.5566 203.219C83.2668 206.119 92.6789 201.409 95.5791 192.699C98.4793 183.989 93.7694 174.577 85.0592 171.676C76.349 168.776 66.9369 173.486 64.0367 182.196C61.1365 190.907 65.8465 200.319 74.5566 203.219Z" fill="#353E54"/>
</mask>
<g mask="url(#mask1_311_53257)">
<g opacity="0.3" filter="url(#filter1_f_311_53257)">
<ellipse cx="28.9976" cy="157.317" rx="54.2191" ry="33.8159" transform="rotate(-26.6186 28.9976 157.317)" fill="#89B4F4"/>
</g>
</g>
<g filter="url(#filter2_b_311_53257)">
<rect x="33.8018" y="112.835" width="46.7923" height="46.7923" rx="23.3961" transform="rotate(20.2198 33.8018 112.835)" fill="#89B4F4" fill-opacity="0.2"/>
<g clip-path="url(#clip0_311_53257)">
<path fill-rule="evenodd" clip-rule="evenodd" d="M50.2782 135.972C48.1922 135.147 45.8328 136.17 45.0084 138.256C44.1839 140.342 45.2066 142.701 47.2925 143.526C49.3785 144.35 51.7379 143.327 52.5623 141.241C53.3868 139.155 52.3642 136.796 50.2782 135.972ZM43.4976 137.659C44.6518 134.738 47.9549 133.307 50.8753 134.461C53.7957 135.615 55.2274 138.918 54.0731 141.839C53.9098 142.252 53.7033 142.636 53.461 142.986C54.997 144.54 55.5614 146.912 54.7062 149.076C53.552 151.996 50.2488 153.428 47.3285 152.274C46.2056 151.83 45.302 151.067 44.6816 150.132C43.5889 150.391 42.4088 150.329 41.2853 149.885C38.3649 148.731 36.9332 145.428 38.0874 142.508C38.9426 140.344 40.9763 138.999 43.1597 138.915C43.2226 138.493 43.3342 138.072 43.4976 137.659ZM43.154 140.541C41.6194 140.626 40.1998 141.583 39.5982 143.105C38.7738 145.191 39.7964 147.55 41.8824 148.375C42.8468 148.756 43.8697 148.742 44.7723 148.411C44.7782 148.409 44.784 148.407 44.7899 148.405C45.8318 148.017 46.7114 147.206 47.1522 146.09C47.2606 145.816 47.3369 145.538 47.3833 145.26C47.1524 145.2 46.9228 145.126 46.6954 145.036C44.7244 144.257 43.4315 142.499 43.154 140.541ZM49.0006 145.432C48.9377 145.854 48.8262 146.275 48.663 146.688C48.1748 147.923 47.3021 148.892 46.2365 149.511C46.665 150.052 47.2371 150.491 47.9256 150.763C50.0116 151.588 52.371 150.565 53.1954 148.479C53.797 146.957 53.4152 145.288 52.3532 144.177C51.4041 144.94 50.226 145.385 49.0006 145.432Z" fill="white"/>
</g>
<rect x="34.0115" y="113.289" width="46.0844" height="46.0844" rx="23.0422" transform="rotate(20.2198 34.0115 113.289)" stroke="white" stroke-opacity="0.08" stroke-width="0.707853"/>
</g>
<rect x="131.82" y="52.1785" width="57.0888" height="57.0888" rx="28.5444" transform="rotate(12.566 131.82 52.1785)" fill="#285BF3"/>
<path fill-rule="evenodd" clip-rule="evenodd" d="M149.187 79.1899C148.609 79.103 148.071 79.5005 147.984 80.0779C147.897 80.6552 148.294 81.1938 148.872 81.2807C149.449 81.3677 149.988 80.9702 150.075 80.3928C150.162 79.8154 149.764 79.2769 149.187 79.1899ZM145.893 79.7629C146.154 78.0308 147.77 76.8382 149.502 77.0991C151.234 77.36 152.426 78.9757 152.166 80.7077C151.905 82.4398 150.289 83.6325 148.557 83.3716C146.825 83.1107 145.632 81.495 145.893 79.7629ZM162.74 79.4063C163.086 79.876 162.987 80.5379 162.517 80.8847L145.677 93.3159C145.207 93.6626 144.545 93.5629 144.198 93.0932C143.852 92.6234 143.951 91.9615 144.421 91.6147L161.261 79.1836C161.731 78.8368 162.393 78.9365 162.74 79.4063ZM158.066 91.2187C157.489 91.1317 156.95 91.5293 156.863 92.1066C156.776 92.684 157.174 93.2225 157.751 93.3095C158.329 93.3965 158.867 92.9989 158.954 92.4216C159.041 91.8442 158.644 91.3056 158.066 91.2187ZM154.772 91.7917C155.033 90.0596 156.649 88.867 158.381 89.1279C160.113 89.3888 161.306 91.0044 161.045 92.7365C160.784 94.4686 159.168 95.6612 157.436 95.4003C155.704 95.1394 154.512 93.5238 154.772 91.7917Z" fill="white"/>
<defs>
<filter id="filter0_f_311_53257" x="50.5977" y="23.9895" width="200.547" height="163.436" filterUnits="userSpaceOnUse" color-interpolation-filters="sRGB">
<feFlood flood-opacity="0" result="BackgroundImageFix"/>
<feBlend mode="normal" in="SourceGraphic" in2="BackgroundImageFix" result="shape"/>
<feGaussianBlur stdDeviation="22.1633" result="effect1_foregroundBlur_311_53257"/>
</filter>
<filter id="filter1_f_311_53257" x="-66.1276" y="74.2064" width="190.251" height="166.221" filterUnits="userSpaceOnUse" color-interpolation-filters="sRGB">
<feFlood flood-opacity="0" result="BackgroundImageFix"/>
<feBlend mode="normal" in="SourceGraphic" in2="BackgroundImageFix" result="shape"/>
<feGaussianBlur stdDeviation="22.1633" result="effect1_foregroundBlur_311_53257"/>
</filter>
<filter id="filter2_b_311_53257" x="3.47234" y="98.6775" width="88.3952" height="88.3952" filterUnits="userSpaceOnUse" color-interpolation-filters="sRGB">
<feFlood flood-opacity="0" result="BackgroundImageFix"/>
<feGaussianBlur in="BackgroundImageFix" stdDeviation="7.07853"/>
<feComposite in2="SourceAlpha" operator="in" result="effect1_backgroundBlur_311_53257"/>
<feBlend mode="normal" in="SourceGraphic" in2="effect1_backgroundBlur_311_53257" result="shape"/>
</filter>
<clipPath id="clip0_311_53257">
<rect width="19.4943" height="19.4943" fill="white" transform="translate(42.1091 130.123) rotate(21.566)"/>
</clipPath>
</defs>
</svg>
