<svg width="123" height="167" viewBox="0 0 123 167" fill="none" xmlns="http://www.w3.org/2000/svg">
<g filter="url(#filter0_b_311_54204)">
<mask id="path-1-inside-1_311_54204" fill="white">
<path fill-rule="evenodd" clip-rule="evenodd" d="M104.186 12.2744C65.0064 5.49543 27.7498 31.7612 20.9709 70.9406C14.1919 110.12 40.4576 147.377 79.637 154.155C118.816 160.934 156.073 134.669 162.852 95.4893C169.631 56.3099 143.365 19.0533 104.186 12.2744ZM105.435 52.5877C106.199 48.1683 103.237 43.9658 98.8171 43.2011C94.3977 42.4365 90.1953 45.3992 89.4306 49.8186L83.8925 81.8266C83.1278 86.246 86.0905 90.4485 90.5099 91.2132C94.9293 91.9778 99.1318 89.0151 99.8965 84.5957L105.435 52.5877ZM87.7409 107.217C83.3215 106.453 79.119 109.415 78.3543 113.835C77.5897 118.254 80.5524 122.457 84.9718 123.221L85.0518 123.235C89.4712 124 93.6737 121.037 94.4384 116.618C95.203 112.198 92.2403 107.996 87.8209 107.231L87.7409 107.217Z"/>
</mask>
<path fill-rule="evenodd" clip-rule="evenodd" d="M104.186 12.2744C65.0064 5.49543 27.7498 31.7612 20.9709 70.9406C14.1919 110.12 40.4576 147.377 79.637 154.155C118.816 160.934 156.073 134.669 162.852 95.4893C169.631 56.3099 143.365 19.0533 104.186 12.2744ZM105.435 52.5877C106.199 48.1683 103.237 43.9658 98.8171 43.2011C94.3977 42.4365 90.1953 45.3992 89.4306 49.8186L83.8925 81.8266C83.1278 86.246 86.0905 90.4485 90.5099 91.2132C94.9293 91.9778 99.1318 89.0151 99.8965 84.5957L105.435 52.5877ZM87.7409 107.217C83.3215 106.453 79.119 109.415 78.3543 113.835C77.5897 118.254 80.5524 122.457 84.9718 123.221L85.0518 123.235C89.4712 124 93.6737 121.037 94.4384 116.618C95.203 112.198 92.2403 107.996 87.8209 107.231L87.7409 107.217Z" fill="url(#paint0_linear_311_54204)" fill-opacity="0.26"/>
<path d="M87.7409 107.217L87.998 105.731L87.7409 107.217ZM84.9718 123.221L85.229 121.735L84.9718 123.221ZM85.0518 123.235L84.7946 124.721L85.0518 123.235ZM87.8209 107.231L87.5637 108.717L87.8209 107.231ZM22.4573 71.1977C29.0942 32.8393 65.5702 7.12391 103.929 13.7608L104.443 10.7879C64.4427 3.86695 26.4054 30.683 19.4844 70.6834L22.4573 71.1977ZM79.8942 152.669C41.5358 146.032 15.8204 109.556 22.4573 71.1977L19.4844 70.6834C12.5634 110.684 39.3795 148.721 79.3798 155.642L79.8942 152.669ZM161.366 95.2321C154.729 133.591 118.253 159.306 79.8942 152.669L79.3798 155.642C119.38 162.563 157.417 135.747 164.338 95.7465L161.366 95.2321ZM103.929 13.7608C142.287 20.3977 168.002 56.8737 161.366 95.2321L164.338 95.7465C171.259 55.7462 144.443 17.7089 104.443 10.7879L103.929 13.7608ZM98.5599 44.6876C102.158 45.3102 104.571 48.732 103.948 52.3305L106.921 52.8449C107.828 47.6045 104.315 42.6214 99.0743 41.7147L98.5599 44.6876ZM90.917 50.0758C91.5396 46.4773 94.9615 44.0649 98.5599 44.6876L99.0743 41.7147C93.834 40.808 88.8509 44.3211 87.9442 49.5614L90.917 50.0758ZM85.3789 82.0838L90.917 50.0758L87.9442 49.5614L82.406 81.5694L85.3789 82.0838ZM90.7671 89.7267C87.1687 89.1041 84.7563 85.6823 85.3789 82.0838L82.406 81.5694C81.4993 86.8098 85.0124 91.7929 90.2527 92.6996L90.7671 89.7267ZM98.41 84.3385C97.7874 87.937 94.3656 90.3494 90.7671 89.7267L90.2527 92.6996C95.4931 93.6063 100.476 90.0932 101.383 84.8529L98.41 84.3385ZM103.948 52.3305L98.41 84.3385L101.383 84.8529L106.921 52.8449L103.948 52.3305ZM79.8408 114.092C80.4634 110.493 83.8852 108.081 87.4837 108.704L87.998 105.731C82.7577 104.824 77.7746 108.337 76.8679 113.577L79.8408 114.092ZM85.229 121.735C81.6305 121.112 79.2181 117.69 79.8408 114.092L76.8679 113.577C75.9612 118.818 79.4743 123.801 84.7146 124.708L85.229 121.735ZM85.309 121.749L85.229 121.735L84.7146 124.708L84.7946 124.721L85.309 121.749ZM92.9519 116.36C92.3293 119.959 88.9074 122.371 85.309 121.749L84.7946 124.721C90.035 125.628 95.0181 122.115 95.9248 116.875L92.9519 116.36ZM87.5637 108.717C91.1621 109.34 93.5745 112.762 92.9519 116.36L95.9248 116.875C96.8315 111.634 93.3184 106.651 88.0781 105.745L87.5637 108.717ZM87.4837 108.704L87.5637 108.717L88.0781 105.745L87.998 105.731L87.4837 108.704Z" fill="white" fill-opacity="0.16" mask="url(#path-1-inside-1_311_54204)"/>
</g>
<g filter="url(#filter1_b_311_54204)">
<rect y="87.1255" width="48.8305" height="48.8305" rx="24.4152" transform="rotate(-8.50395 0 87.1255)" fill="white" fill-opacity="0.2"/>
<rect x="0.63168" y="87.5928" width="47.7192" height="47.7192" rx="23.8596" transform="rotate(-8.50395 0.63168 87.5928)" stroke="white" stroke-opacity="0.08" stroke-width="1.11125"/>
</g>
<g clip-path="url(#clip0_311_54204)">
<path fill-rule="evenodd" clip-rule="evenodd" d="M26.1287 98.1964L26.1287 98.1964L26.1287 98.1964ZM26.3529 98.2684L35.1776 101.146L27.5806 106.479L18.7559 103.602L26.3529 98.2684ZM27.3873 106.614C27.3871 106.614 27.3871 106.614 27.3873 106.614L27.3873 106.614ZM27.8047 106.551C27.805 106.551 27.805 106.551 27.8048 106.551L27.8047 106.551ZM26.5462 98.134L26.5462 98.134L26.5462 98.134ZM25.7389 96.1618C25.9268 96.0966 26.1251 96.067 26.3239 96.0743C26.5592 96.0831 26.779 96.1567 26.8852 96.1923C26.8961 96.196 26.9058 96.1993 26.9143 96.202L37.8738 99.7759C38.2589 99.9015 38.54 100.234 38.5999 100.634C38.6598 101.035 38.4882 101.435 38.1567 101.668L28.7218 108.291C28.7146 108.296 28.7062 108.302 28.6969 108.309C28.6057 108.374 28.4171 108.509 28.1946 108.586C28.0067 108.651 27.8083 108.681 27.6096 108.673C27.3743 108.665 27.1545 108.591 27.0483 108.555C27.0374 108.552 27.0276 108.548 27.0192 108.546L16.0596 104.972C15.6746 104.846 15.3935 104.514 15.3336 104.113C15.2737 103.713 15.4453 103.313 15.7768 103.08L25.2116 96.4566C25.2189 96.4515 25.2272 96.4455 25.2366 96.4388C25.3278 96.3737 25.5164 96.239 25.7389 96.1618ZM16.1652 108.911C16.3483 108.35 16.9518 108.043 17.5133 108.226L28.3712 111.767L37.7186 105.205C38.2019 104.866 38.8688 104.983 39.2082 105.466C39.5475 105.949 39.4307 106.616 38.9474 106.956L29.5125 113.579C29.5052 113.584 29.4969 113.59 29.4875 113.597C29.3964 113.662 29.2077 113.796 28.9853 113.874C28.7974 113.939 28.599 113.968 28.4002 113.961C28.1649 113.952 27.9451 113.879 27.8389 113.843C27.828 113.839 27.8183 113.836 27.8098 113.833L16.8503 110.26C16.2888 110.076 15.9821 109.473 16.1652 108.911ZM28.1779 111.901C28.1777 111.902 28.1777 111.902 28.1779 111.901L28.1779 111.901ZM28.5954 111.839C28.5956 111.839 28.5956 111.839 28.5954 111.839L28.5954 111.839ZM16.9558 114.199C17.1389 113.638 17.7425 113.331 18.3039 113.514L29.1619 117.055L38.5092 110.493C38.9926 110.154 39.6595 110.27 39.9988 110.754C40.3381 111.237 40.2213 111.904 39.738 112.243L30.3031 118.867C30.2959 118.872 30.2875 118.878 30.2781 118.884C30.187 118.95 29.9984 119.084 29.7759 119.161C29.588 119.227 29.3896 119.256 29.1909 119.249C28.9555 119.24 28.7358 119.167 28.6296 119.131C28.6186 119.127 28.6089 119.124 28.6005 119.121L17.6409 115.547C17.0794 115.364 16.7727 114.761 16.9558 114.199Z" fill="white"/>
</g>
<defs>
<filter id="filter0_b_311_54204" x="-1.60539" y="-10.3019" width="187.034" height="187.034" filterUnits="userSpaceOnUse" color-interpolation-filters="sRGB">
<feFlood flood-opacity="0" result="BackgroundImageFix"/>
<feGaussianBlur in="BackgroundImageFix" stdDeviation="10.7552"/>
<feComposite in2="SourceAlpha" operator="in" result="effect1_backgroundBlur_311_54204"/>
<feBlend mode="normal" in="SourceGraphic" in2="effect1_backgroundBlur_311_54204" result="shape"/>
</filter>
<filter id="filter1_b_311_54204" x="-22.225" y="57.6796" width="99.9646" height="99.9646" filterUnits="userSpaceOnUse" color-interpolation-filters="sRGB">
<feFlood flood-opacity="0" result="BackgroundImageFix"/>
<feGaussianBlur in="BackgroundImageFix" stdDeviation="11.1125"/>
<feComposite in2="SourceAlpha" operator="in" result="effect1_backgroundBlur_311_54204"/>
<feBlend mode="normal" in="SourceGraphic" in2="effect1_backgroundBlur_311_54204" result="shape"/>
</filter>
<linearGradient id="paint0_linear_311_54204" x1="104.186" y1="12.2744" x2="167.673" y2="190.031" gradientUnits="userSpaceOnUse">
<stop stop-color="white"/>
<stop offset="1" stop-color="white" stop-opacity="0"/>
</linearGradient>
<clipPath id="clip0_311_54204">
<rect width="25.6636" height="25.6636" fill="white" transform="translate(13.1693 96.8684) rotate(-8.50395)"/>
</clipPath>
</defs>
</svg>
