<svg width="542" height="554" viewBox="0 0 542 554" fill="none" xmlns="http://www.w3.org/2000/svg">
<g clip-path="url(#clip0_311_43412)">
<g filter="url(#filter0_f_311_43412)">
<path d="M404.054 424.008C358.039 496.173 328.767 548.373 245.829 513.496C162.891 478.62 48.1916 433.027 83.7131 377.319C119.235 321.611 355.201 200.023 438.139 234.9C521.077 269.776 450.069 351.844 404.054 424.008Z" fill="#5591FF"/>
</g>
<g filter="url(#filter1_b_311_43412)">
<rect width="290.976" height="343.345" rx="16.9441" transform="matrix(0.86817 0.365077 -0.570754 0.8951 242.674 104)" fill="white" fill-opacity="0.93"/>
<rect x="0.251973" y="1.06763" width="289.282" height="341.65" rx="16.0969" transform="matrix(0.86817 0.365077 -0.570754 0.8951 243.317 104.02)" stroke="white" stroke-opacity="0.47" stroke-width="1.69441"/>
</g>
<mask id="mask0_311_43412" style="mask-type:alpha" maskUnits="userSpaceOnUse" x="55" y="110" width="432" height="401">
<rect width="290.976" height="343.345" rx="22.9818" transform="matrix(0.86817 0.365077 -0.570754 0.8951 242.674 104)" fill="#F4F4F4"/>
</mask>
<g mask="url(#mask0_311_43412)">
<rect opacity="0.2" width="192.182" height="10.1145" rx="3.61174" transform="matrix(0.86817 0.365077 -0.570754 0.8951 278.801 153.654)" fill="#323847"/>
<rect opacity="0.2" width="67.5583" height="7.08016" rx="3.54008" transform="matrix(0.86817 0.365077 -0.570754 0.8951 268.987 169.045)" fill="#323847"/>
<rect opacity="0.2" width="42.1004" height="7.08016" rx="3.54008" transform="matrix(0.86817 0.365077 -0.570754 0.8951 331.624 195.385)" fill="#323847"/>
<path opacity="0.5" d="M257.797 158.599C254.069 164.446 246.088 167.235 239.924 164.643C233.76 162.051 231.958 155.149 235.686 149.302C239.415 143.455 247.395 140.667 253.559 143.259C259.723 145.851 261.525 152.753 257.797 158.599Z" stroke="#323847" stroke-width="2.40783"/>
<rect opacity="0.2" width="142.481" height="10.1145" rx="3.61174" transform="matrix(0.86817 0.365077 -0.570754 0.8951 250.513 198.017)" fill="#323847"/>
<rect opacity="0.2" width="33.2573" height="7.08016" rx="3.54008" transform="matrix(0.86817 0.365077 -0.570754 0.8951 240.699 213.408)" fill="#323847"/>
<rect opacity="0.2" width="46.5812" height="7.08016" rx="3.54008" transform="matrix(-0.86817 -0.365077 -0.570754 0.8951 314.655 244.507)" fill="#323847"/>
<ellipse cx="13.9377" cy="13.1489" rx="13.9377" ry="13.1489" transform="matrix(0.86817 0.365077 -0.570754 0.8951 213.859 181.455)" fill="#5580FF"/>
<path d="M211.883 196.123L213.474 201.959L227.046 197.333" stroke="#F4F4F4" stroke-width="2.40783" stroke-linecap="round" stroke-linejoin="round"/>
<rect opacity="0.2" width="179.008" height="10.1145" rx="3.61174" transform="matrix(0.86817 0.365077 -0.570754 0.8951 222.226 242.379)" fill="#323847"/>
<rect opacity="0.2" width="77.2101" height="7.08016" rx="3.54008" transform="matrix(0.86817 0.365077 -0.570754 0.8951 212.412 257.77)" fill="#323847"/>
<ellipse cx="13.9377" cy="13.1489" rx="13.9377" ry="13.1489" transform="matrix(0.86817 0.365077 -0.570754 0.8951 185.572 225.817)" fill="#5580FF"/>
<path d="M183.596 240.486L185.186 246.321L198.759 241.696" stroke="#F4F4F4" stroke-width="2.40783" stroke-linecap="round" stroke-linejoin="round"/>
<rect opacity="0.2" width="138.289" height="10.1145" rx="3.61174" transform="matrix(0.86817 0.365077 -0.570754 0.8951 193.939 286.741)" fill="#323847"/>
<rect opacity="0.2" width="67.5583" height="7.08016" rx="3.54008" transform="matrix(0.86817 0.365077 -0.570754 0.8951 184.125 302.132)" fill="#323847"/>
<ellipse cx="13.9377" cy="13.1489" rx="13.9377" ry="13.1489" transform="matrix(0.86817 0.365077 -0.570754 0.8951 157.284 270.179)" fill="#5580FF"/>
<path d="M155.308 284.848L156.899 290.683L170.472 286.058" stroke="#F4F4F4" stroke-width="2.40783" stroke-linecap="round" stroke-linejoin="round"/>
<rect opacity="0.2" width="118.526" height="10.1145" rx="3.61174" transform="matrix(0.86817 0.365077 -0.570754 0.8951 165.652 331.103)" fill="#323847"/>
<rect opacity="0.2" width="97.3213" height="7.08016" rx="3.54008" transform="matrix(0.86817 0.365077 -0.570754 0.8951 155.838 346.494)" fill="#323847"/>
<path opacity="0.5" d="M144.648 336.048C140.92 341.895 132.939 344.683 126.775 342.091C120.611 339.499 118.81 332.597 122.538 326.751C126.266 320.904 134.247 318.116 140.41 320.707C146.574 323.299 148.376 330.202 144.648 336.048Z" stroke="#323847" stroke-width="2.40783"/>
<rect opacity="0.2" width="162.862" height="10.1145" rx="3.61174" transform="matrix(0.86817 0.365077 -0.570754 0.8951 137.364 375.466)" fill="#323847"/>
<rect opacity="0.2" width="56.8405" height="7.08016" rx="3.54008" transform="matrix(0.86817 0.365077 -0.570754 0.8951 127.55 390.856)" fill="#323847"/>
<g opacity="0.2" filter="url(#filter2_f_311_43412)">
<rect width="282.902" height="97.247" rx="3.61174" transform="matrix(0.86817 0.365077 -0.570754 0.8951 202.191 49.5574)" fill="#323847"/>
</g>
<g opacity="0.2" filter="url(#filter3_f_311_43412)">
<rect width="248.426" height="72.0957" rx="2.67762" transform="matrix(0.86817 0.365077 -0.570754 0.8951 129.167 237.408)" fill="#323847"/>
</g>
<path opacity="0.5" d="M116.361 380.411C112.632 386.257 104.652 389.046 98.4878 386.454C92.324 383.862 90.5222 376.96 94.2503 371.113C97.9784 365.266 105.959 362.478 112.123 365.07C118.287 367.662 120.089 374.564 116.361 380.411Z" stroke="#323847" stroke-width="2.40783"/>
</g>
<g filter="url(#filter4_b_311_43412)">
<rect width="379.344" height="93.3531" rx="22.7204" transform="matrix(0.86817 0.365077 -0.570754 0.8951 160.138 -1.58496)" fill="white" fill-opacity="0.8"/>
<rect x="0.337871" y="1.43159" width="377.072" height="91.081" rx="21.5844" transform="matrix(0.86817 0.365077 -0.570754 0.8951 160.999 -1.55814)" stroke="white" stroke-opacity="0.47" stroke-width="2.27204"/>
</g>
<mask id="mask1_311_43412" style="mask-type:alpha" maskUnits="userSpaceOnUse" x="115" y="5" width="366" height="209">
<rect width="379.344" height="93.3531" rx="22.7204" transform="matrix(0.86817 0.365077 -0.570754 0.8951 160.138 -1.58496)" fill="#F4F4F4"/>
</mask>
<g mask="url(#mask1_311_43412)">
<g opacity="0.46" filter="url(#filter5_f_311_43412)">
<ellipse cx="40.8373" cy="38.526" rx="40.8373" ry="38.526" transform="matrix(0.86817 0.365077 -0.570754 0.8951 156.666 11.2339)" fill="url(#paint0_linear_311_43412)"/>
</g>
</g>
<rect opacity="0.2" width="257.697" height="13.5626" rx="4.84299" transform="matrix(0.86817 0.365077 -0.570754 0.8951 219.318 58.2571)" fill="#323847"/>
<rect opacity="0.2" width="90.5891" height="9.49381" rx="4.7469" transform="matrix(0.86817 0.365077 -0.570754 0.8951 206.158 78.8953)" fill="#323847"/>
<path opacity="0.2" d="M195.619 66.1888C190.056 74.9135 178.159 79.0597 168.984 75.2016C159.81 71.3435 157.113 61.0609 162.677 52.3362C168.24 43.6115 180.136 39.4653 189.311 43.3234C198.486 47.1815 201.182 57.4641 195.619 66.1888Z" stroke="#323847" stroke-width="3.22866"/>
<rect opacity="0.2" width="56.4526" height="9.49381" rx="4.7469" transform="matrix(0.86817 0.365077 -0.570754 0.8951 290.148 114.214)" fill="#323847"/>
<ellipse cx="29.6854" cy="28.0053" rx="29.6854" ry="28.0053" transform="matrix(0.86817 0.365077 -0.570754 0.8951 169.14 12.4958)" fill="#5580FF"/>
<path d="M165.564 44.0035L168.792 55.8444L196.333 46.4587" stroke="#F4F4F4" stroke-width="4.54409" stroke-linecap="round" stroke-linejoin="round"/>
<g filter="url(#filter6_b_311_43412)">
<rect width="248.536" height="61.1624" rx="14.8858" transform="matrix(0.86817 0.365077 -0.570754 0.8951 140.965 227.794)" fill="white" fill-opacity="0.8"/>
<rect x="0.221364" y="0.937938" width="247.047" height="59.6738" rx="14.1415" transform="matrix(0.86817 0.365077 -0.570754 0.8951 141.529 227.812)" stroke="white" stroke-opacity="0.47" stroke-width="1.48858"/>
</g>
<mask id="mask2_311_43412" style="mask-type:alpha" maskUnits="userSpaceOnUse" x="112" y="232" width="239" height="137">
<rect width="248.536" height="61.1624" rx="14.8858" transform="matrix(0.86817 0.365077 -0.570754 0.8951 140.965 227.794)" fill="#F4F4F4"/>
</mask>
<g mask="url(#mask2_311_43412)">
<g opacity="0.46" filter="url(#filter7_f_311_43412)">
<ellipse cx="26.7555" cy="25.2412" rx="26.7555" ry="25.2412" transform="matrix(0.86817 0.365077 -0.570754 0.8951 138.69 236.193)" fill="url(#paint1_linear_311_43412)"/>
</g>
</g>
<rect opacity="0.2" width="168.836" height="8.88584" rx="3.173" transform="matrix(0.86817 0.365077 -0.570754 0.8951 179.738 267.001)" fill="#323847"/>
<rect opacity="0.2" width="59.3515" height="6.22009" rx="3.11004" transform="matrix(0.86817 0.365077 -0.570754 0.8951 171.116 280.523)" fill="#323847"/>
<path opacity="0.2" d="M164.211 272.198C160.566 277.914 152.772 280.63 146.761 278.103C140.75 275.575 138.983 268.838 142.628 263.122C146.273 257.406 154.067 254.689 160.078 257.217C166.089 259.745 167.856 266.482 164.211 272.198Z" stroke="#323847" stroke-width="2.11533"/>
<rect opacity="0.2" width="36.9862" height="6.22009" rx="3.11004" transform="matrix(0.86817 0.365077 -0.570754 0.8951 226.144 303.663)" fill="#323847"/>
<ellipse cx="19.4491" cy="18.3483" rx="19.4491" ry="18.3483" transform="matrix(0.86817 0.365077 -0.570754 0.8951 146.863 237.02)" fill="#5580FF"/>
<path d="M144.52 257.663L146.635 265.42L164.679 259.271" stroke="#F4F4F4" stroke-width="2.97716" stroke-linecap="round" stroke-linejoin="round"/>
<g filter="url(#filter8_b_311_43412)">
<rect x="356.872" y="317.974" width="96.1493" height="96.1493" rx="48.0747" transform="rotate(-10.4499 356.872 317.974)" fill="#89B4F4" fill-opacity="0.2"/>
<path d="M408.192 340.12C408.672 338.508 410.807 338.173 411.759 339.56L417.256 347.577C417.639 348.135 418.278 348.462 418.955 348.445L428.673 348.205C430.355 348.163 431.333 350.09 430.308 351.423L424.382 359.129C423.969 359.666 423.856 360.375 424.081 361.013L427.313 370.181C427.873 371.767 426.342 373.294 424.757 372.73L415.598 369.476C414.96 369.249 414.25 369.36 413.713 369.772L405.992 375.679C404.656 376.701 402.732 375.717 402.778 374.036L403.043 364.319C403.061 363.642 402.736 363.002 402.178 362.617L394.175 357.1C392.79 356.146 393.131 354.011 394.744 353.535L404.068 350.784C404.717 350.593 405.225 350.086 405.418 349.437L408.192 340.12Z" stroke="white" stroke-width="4.13"/>
<rect x="358.725" y="319.25" width="92.9687" height="92.9687" rx="46.4843" transform="rotate(-10.4499 358.725 319.25)" stroke="white" stroke-opacity="0.08" stroke-width="3.18066"/>
</g>
</g>
<defs>
<filter id="filter0_f_311_43412" x="16.0759" y="167.719" width="521.312" height="417.866" filterUnits="userSpaceOnUse" color-interpolation-filters="sRGB">
<feFlood flood-opacity="0" result="BackgroundImageFix"/>
<feBlend mode="normal" in="SourceGraphic" in2="BackgroundImageFix" result="shape"/>
<feGaussianBlur stdDeviation="30.4995" result="effect1_foregroundBlur_311_43412"/>
</filter>
<filter id="filter1_b_311_43412" x="37.3865" y="92.8716" width="467.227" height="435.813" filterUnits="userSpaceOnUse" color-interpolation-filters="sRGB">
<feFlood flood-opacity="0" result="BackgroundImageFix"/>
<feGaussianBlur in="BackgroundImageFix" stdDeviation="8.04847"/>
<feComposite in2="SourceAlpha" operator="in" result="effect1_backgroundBlur_311_43412"/>
<feBlend mode="normal" in="SourceGraphic" in2="effect1_backgroundBlur_311_43412" result="shape"/>
</filter>
<filter id="filter2_f_311_43412" x="44.2133" y="-53.3015" width="506.059" height="396.044" filterUnits="userSpaceOnUse" color-interpolation-filters="sRGB">
<feFlood flood-opacity="0" result="BackgroundImageFix"/>
<feBlend mode="normal" in="SourceGraphic" in2="BackgroundImageFix" result="shape"/>
<feGaussianBlur stdDeviation="51.959" result="effect1_foregroundBlur_311_43412"/>
</filter>
<filter id="filter3_f_311_43412" x="12.0474" y="161.152" width="408.767" height="307.74" filterUnits="userSpaceOnUse" color-interpolation-filters="sRGB">
<feFlood flood-opacity="0" result="BackgroundImageFix"/>
<feBlend mode="normal" in="SourceGraphic" in2="BackgroundImageFix" result="shape"/>
<feGaussianBlur stdDeviation="38.5206" result="effect1_foregroundBlur_311_43412"/>
</filter>
<filter id="filter4_b_311_43412" x="19.2611" y="-91.6017" width="557.806" height="402.083" filterUnits="userSpaceOnUse" color-interpolation-filters="sRGB">
<feFlood flood-opacity="0" result="BackgroundImageFix"/>
<feGaussianBlur in="BackgroundImageFix" stdDeviation="48.3396"/>
<feComposite in2="SourceAlpha" operator="in" result="effect1_backgroundBlur_311_43412"/>
<feBlend mode="normal" in="SourceGraphic" in2="effect1_backgroundBlur_311_43412" result="shape"/>
</filter>
<filter id="filter5_f_311_43412" x="64.0931" y="-41.2642" width="212.075" height="203.783" filterUnits="userSpaceOnUse" color-interpolation-filters="sRGB">
<feFlood flood-opacity="0" result="BackgroundImageFix"/>
<feBlend mode="normal" in="SourceGraphic" in2="BackgroundImageFix" result="shape"/>
<feGaussianBlur stdDeviation="32.1563" result="effect1_foregroundBlur_311_43412"/>
</filter>
<filter id="filter6_b_311_43412" x="48.6662" y="168.818" width="365.46" height="263.434" filterUnits="userSpaceOnUse" color-interpolation-filters="sRGB">
<feFlood flood-opacity="0" result="BackgroundImageFix"/>
<feGaussianBlur in="BackgroundImageFix" stdDeviation="31.6708"/>
<feComposite in2="SourceAlpha" operator="in" result="effect1_backgroundBlur_311_43412"/>
<feBlend mode="normal" in="SourceGraphic" in2="effect1_backgroundBlur_311_43412" result="shape"/>
</filter>
<filter id="filter7_f_311_43412" x="78.0389" y="201.798" width="138.946" height="133.513" filterUnits="userSpaceOnUse" color-interpolation-filters="sRGB">
<feFlood flood-opacity="0" result="BackgroundImageFix"/>
<feBlend mode="normal" in="SourceGraphic" in2="BackgroundImageFix" result="shape"/>
<feGaussianBlur stdDeviation="21.0679" result="effect1_foregroundBlur_311_43412"/>
</filter>
<filter id="filter8_b_311_43412" x="327.782" y="271.445" width="170.174" height="170.174" filterUnits="userSpaceOnUse" color-interpolation-filters="sRGB">
<feFlood flood-opacity="0" result="BackgroundImageFix"/>
<feGaussianBlur in="BackgroundImageFix" stdDeviation="14.545"/>
<feComposite in2="SourceAlpha" operator="in" result="effect1_backgroundBlur_311_43412"/>
<feBlend mode="normal" in="SourceGraphic" in2="effect1_backgroundBlur_311_43412" result="shape"/>
</filter>
<linearGradient id="paint0_linear_311_43412" x1="26.5608" y1="29.734" x2="39.0362" y2="77.5222" gradientUnits="userSpaceOnUse">
<stop stop-color="#5580FF"/>
<stop offset="1" stop-color="#5580FF" stop-opacity="0"/>
</linearGradient>
<linearGradient id="paint1_linear_311_43412" x1="17.4019" y1="19.4809" x2="25.5754" y2="50.7905" gradientUnits="userSpaceOnUse">
<stop stop-color="#5580FF"/>
<stop offset="1" stop-color="#5580FF" stop-opacity="0"/>
</linearGradient>
<clipPath id="clip0_311_43412">
<rect width="542" height="556" fill="white" transform="translate(0 -2)"/>
</clipPath>
</defs>
</svg>
