<svg width="20" height="20" viewBox="0 0 20 20" fill="none" xmlns="http://www.w3.org/2000/svg">
<path fill-rule="evenodd" clip-rule="evenodd" d="M4.30138 1.66663L4.7025 1.66663C5.60566 1.66662 6.33412 1.66661 6.92402 1.71481C7.53139 1.76443 8.06488 1.86928 8.55846 2.12077C9.12809 2.41101 9.62034 2.82686 10.0002 3.33329C10.38 2.82686 10.8722 2.41101 11.4419 2.12077C11.9354 1.86928 12.4689 1.76443 13.0763 1.71481C13.6662 1.66661 14.3947 1.66662 15.2978 1.66663L15.6989 1.66663C16.1382 1.66661 16.5172 1.6666 16.8294 1.6921C17.1588 1.71902 17.4865 1.77845 17.8018 1.93911C18.2722 2.1788 18.6547 2.56125 18.8943 3.03165C19.055 3.34697 19.1144 3.67465 19.1414 4.0041C19.1669 4.31624 19.1668 4.69521 19.1668 5.13449V12.3654C19.1668 12.8047 19.1669 13.1837 19.1414 13.4958C19.1144 13.8253 19.055 14.153 18.8943 14.4683C18.6547 14.9387 18.2722 15.3211 17.8018 15.5608C17.4865 15.7215 17.1588 15.7809 16.8294 15.8078C16.5172 15.8333 16.1383 15.8333 15.699 15.8333H14.5211C13.4257 15.8333 13.0516 15.8418 12.7243 15.9412C12.4098 16.0367 12.1173 16.1932 11.8634 16.4019C11.5991 16.6191 11.3846 16.9257 10.7769 17.8371L10.6935 17.9622C10.539 18.194 10.2788 18.3333 10.0002 18.3333C9.72154 18.3333 9.46134 18.194 9.30679 17.9622L9.22341 17.8371C8.61576 16.9257 8.40118 16.6191 8.13695 16.4019C7.88305 16.1932 7.59049 16.0367 7.27601 15.9412C6.94875 15.8418 6.57464 15.8333 5.47918 15.8333H4.30136C3.86208 15.8333 3.48311 15.8333 3.17097 15.8078C2.84152 15.7809 2.51384 15.7215 2.19852 15.5608C1.72812 15.3211 1.34566 14.9387 1.10598 14.4683C0.94532 14.153 0.88589 13.8253 0.858972 13.4958C0.833469 13.1837 0.833482 12.8047 0.833497 12.3654V5.13451C0.833482 4.69522 0.833469 4.31625 0.858972 4.0041C0.88589 3.67465 0.94532 3.34697 1.10598 3.03165C1.34566 2.56125 1.72812 2.17879 2.19852 1.93911C2.51384 1.77845 2.84152 1.71902 3.17097 1.6921C3.48312 1.6666 3.86209 1.66661 4.30138 1.66663ZM9.16683 7.83329C9.16683 6.88612 9.16618 6.22586 9.12418 5.71183C9.08298 5.20752 9.00617 4.91778 8.89435 4.69832C8.65466 4.22791 8.27221 3.84546 7.80181 3.60578C7.58234 3.49396 7.2926 3.41714 6.7883 3.37594C6.27426 3.33394 5.614 3.33329 4.66683 3.33329H4.3335C3.85304 3.33329 3.54281 3.33394 3.30669 3.35323C3.08031 3.37173 2.99638 3.40313 2.95517 3.42412C2.79837 3.50402 2.67089 3.6315 2.59099 3.7883C2.57 3.82951 2.5386 3.91344 2.5201 4.13982C2.50081 4.37594 2.50016 4.68617 2.50016 5.16663V12.3333C2.50016 12.8138 2.50081 13.124 2.5201 13.3601C2.5386 13.5865 2.57 13.6704 2.59099 13.7116C2.67089 13.8684 2.79837 13.9959 2.95517 14.0758C2.99638 14.0968 3.08031 14.1282 3.30669 14.1467C3.54281 14.166 3.85304 14.1666 4.3335 14.1666H5.47918C5.52074 14.1666 5.56173 14.1666 5.60218 14.1666C6.52689 14.1663 7.16631 14.166 7.76032 14.3464C8.27277 14.502 8.7503 14.755 9.16683 15.0912V7.83329ZM10.8335 15.0912C11.25 14.755 11.7276 14.502 12.24 14.3464C12.834 14.166 13.4734 14.1663 14.3982 14.1666C14.4386 14.1666 14.4796 14.1666 14.5211 14.1666H15.6668C16.1473 14.1666 16.4575 14.166 16.6936 14.1467C16.92 14.1282 17.004 14.0968 17.0452 14.0758C17.202 13.9959 17.3294 13.8684 17.4093 13.7116C17.4303 13.6704 17.4617 13.5865 17.4802 13.3601C17.4995 13.124 17.5002 12.8138 17.5002 12.3333V5.16663C17.5002 4.68617 17.4995 4.37594 17.4802 4.13982C17.4617 3.91344 17.4303 3.82951 17.4093 3.7883C17.3294 3.6315 17.202 3.50402 17.0452 3.42412C17.004 3.40313 16.92 3.37173 16.6936 3.35323C16.4575 3.33394 16.1473 3.33329 15.6668 3.33329H15.3335C14.3863 3.33329 13.7261 3.33394 13.212 3.37594C12.7077 3.41714 12.418 3.49396 12.1985 3.60578C11.7281 3.84546 11.3457 4.22791 11.106 4.69832C10.9942 4.91778 10.9173 5.20752 10.8761 5.71183C10.8341 6.22586 10.8335 6.88612 10.8335 7.83329V15.0912Z" fill="white"/>
</svg>
