<svg width="32" height="32" viewBox="0 0 32 32" fill="none" xmlns="http://www.w3.org/2000/svg">
<path fill-rule="evenodd" clip-rule="evenodd" d="M14.705 1.86097C15.5104 1.41353 16.4897 1.41353 17.2951 1.86097L27.9618 7.7869C28.3818 8.02023 28.7229 8.35776 28.9596 8.75642C29.2 9.16121 29.3334 9.6301 29.3334 10.118V14.6667C29.3334 15.4031 28.7365 16.0001 28.0001 16.0001C27.2637 16.0001 26.6668 15.4031 26.6668 14.6667V11.5994L17.3333 16.7846V27.0675C17.977 26.7099 18.7889 26.9418 19.1465 27.5855C19.5041 28.2292 19.2722 29.041 18.6285 29.3986L17.2951 30.1393C16.8924 30.3631 16.4459 30.4749 15.9999 30.4749C15.554 30.4749 15.1076 30.363 14.705 30.1393L4.03835 24.2133C3.19179 23.743 2.66675 22.8507 2.66675 21.8822V10.118C2.66675 9.63016 2.80014 9.16132 3.04046 8.75656C3.2772 8.35784 3.61832 8.02026 4.03837 7.7869M14.6667 27.0675V16.7846L5.33341 11.5995V21.8822L14.6667 27.0675ZM6.74557 9.33345L16 14.4748L25.2545 9.33341L16.0001 4.19206L6.74557 9.33345ZM4.03837 7.7869L14.705 1.86097L4.03837 7.7869Z" fill="#285BF3"/>
<path fill-rule="evenodd" clip-rule="evenodd" d="M29.6919 18.9525L26.7761 17.9106C25.7849 17.5556 24.7 17.5557 23.7088 17.9106L20.7944 18.9526C20.264 19.1422 19.9099 19.6447 19.9099 20.2081V23.5445C19.9099 25.5966 21.3185 27.131 22.3892 28.024C22.9578 28.4983 23.5194 28.8657 23.9358 29.1137C24.1455 29.2387 24.322 29.3355 24.4491 29.4026C24.5128 29.4362 24.5643 29.4624 24.6016 29.4811L24.6469 29.5035L24.6611 29.5104L24.6661 29.5128L24.6689 29.5141C25.0318 29.6871 25.4541 29.6875 25.817 29.5145L25.2433 28.3109C25.817 29.5145 25.8185 29.5137 25.8185 29.5137L25.8204 29.5128L25.8254 29.5104L25.8397 29.5035L25.8849 29.4811C25.9223 29.4624 25.9738 29.4362 26.0374 29.4026C26.1645 29.3355 26.3411 29.2387 26.5507 29.1137C26.9671 28.8657 27.5288 28.4983 28.0973 28.024C29.168 27.131 30.5766 25.5966 30.5766 23.5445V20.2081C30.5766 19.6447 30.2225 19.1421 29.6919 18.9525ZM25.2433 26.7884C25.5689 26.5914 25.9821 26.3158 26.3892 25.9762C27.3185 25.2011 27.9099 24.3523 27.9099 23.5445V21.1475L25.8778 20.4214C25.4677 20.2745 25.0182 20.2742 24.6081 20.4211L22.5766 21.1474V23.5445C22.5766 24.3523 23.168 25.2011 24.0973 25.9762C24.5044 26.3158 24.9177 26.5914 25.2433 26.7884Z" fill="#285BF3"/>
</svg>
