<svg width="584" height="476" viewBox="0 0 584 476" fill="none" xmlns="http://www.w3.org/2000/svg">
<g filter="url(#filter0_b_2190_11934)">
<g clip-path="url(#clip0_2190_11934)">
<rect x="155.877" y="40.0001" width="318.358" height="318.358" rx="159.179" transform="rotate(8.64934 155.877 40.0001)" fill="url(#paint0_linear_2190_11934)" fill-opacity="0.26"/>
<g clip-path="url(#clip1_2190_11934)">
<path fill-rule="evenodd" clip-rule="evenodd" d="M255.923 151.993L258.945 152.453C265.749 153.488 271.238 154.322 275.627 155.361C280.146 156.431 284.045 157.833 287.475 160.293C291.434 163.133 294.666 166.83 296.948 171.081C300.39 167.7 304.575 165.132 309.199 163.598C313.206 162.269 317.345 162.09 321.978 162.412C326.478 162.725 331.966 163.56 338.77 164.595L341.793 165.055C345.102 165.558 347.957 165.993 350.28 166.542C352.731 167.123 355.132 167.946 357.323 169.518C360.593 171.863 363.036 175.183 364.302 179.001C365.151 181.561 365.224 184.098 365.049 186.611C364.883 188.992 364.449 191.847 363.945 195.156L355.658 249.634C355.155 252.944 354.721 255.799 354.171 258.122C353.591 260.573 352.767 262.974 351.195 265.165C348.851 268.434 345.531 270.877 341.712 272.144C339.152 272.993 336.615 273.065 334.103 272.891C331.722 272.725 328.867 272.291 325.557 271.787L316.683 270.437C308.43 269.182 305.602 268.817 303.022 269.191C300.544 269.55 298.16 270.394 296.008 271.675C293.768 273.009 291.8 275.072 286.178 281.243L285.406 282.09C283.976 283.659 281.856 284.41 279.757 284.091C277.658 283.772 275.857 282.424 274.958 280.501L274.473 279.463C270.94 271.899 269.675 269.344 267.933 267.405C266.259 265.541 264.234 264.027 261.975 262.947C259.623 261.823 256.814 261.33 248.561 260.075L239.687 258.725C236.378 258.221 233.522 257.787 231.2 257.237C228.749 256.657 226.348 255.834 224.157 254.262C220.887 251.917 218.444 248.597 217.177 244.779C216.328 242.219 216.256 239.682 216.431 237.169C216.597 234.788 217.031 231.933 217.535 228.623L225.822 174.146C226.325 170.836 226.759 167.981 227.309 165.658C227.889 163.207 228.713 160.806 230.284 158.615C232.629 155.345 235.949 152.902 239.768 151.636C242.327 150.787 244.864 150.714 247.377 150.889C249.758 151.055 252.613 151.489 255.923 151.993ZM285.512 204.029C286.598 196.893 287.349 191.918 287.622 187.997C287.89 184.15 287.643 181.879 287.052 180.097C285.785 176.279 283.342 172.959 280.073 170.614C278.548 169.52 276.453 168.609 272.701 167.721C268.876 166.815 263.902 166.054 256.766 164.968L254.255 164.586C250.635 164.036 248.297 163.685 246.496 163.56C244.769 163.44 244.101 163.58 243.766 163.691C242.494 164.113 241.387 164.928 240.605 166.017C240.4 166.304 240.067 166.9 239.668 168.585C239.252 170.341 238.892 172.678 238.341 176.298L230.128 230.291C229.577 233.911 229.227 236.249 229.102 238.05C228.981 239.777 229.122 240.445 229.233 240.78C229.655 242.053 230.469 243.159 231.559 243.941C231.845 244.146 232.442 244.479 234.126 244.878C235.883 245.294 238.22 245.654 241.839 246.205L250.471 247.518C250.784 247.566 251.093 247.612 251.398 247.659C258.365 248.716 263.183 249.447 267.451 251.487C271.133 253.247 274.441 255.699 277.194 258.71L285.512 204.029ZM289.751 260.62C293.274 258.564 297.162 257.206 301.201 256.621C305.883 255.942 310.7 256.677 317.667 257.739C317.971 257.786 318.28 257.833 318.593 257.88L327.225 259.194C330.845 259.744 333.183 260.095 334.984 260.22C336.711 260.34 337.379 260.2 337.713 260.089C338.986 259.667 340.093 258.852 340.874 257.762C341.08 257.476 341.413 256.88 341.811 255.195C342.227 253.439 342.588 251.102 343.138 247.482L351.352 193.488C351.902 189.869 352.253 187.531 352.378 185.73C352.498 184.003 352.358 183.334 352.247 183C351.825 181.727 351.011 180.62 349.921 179.839C349.634 179.633 349.038 179.301 347.354 178.902C345.597 178.486 343.26 178.126 339.64 177.575L337.129 177.193C329.993 176.107 325.018 175.356 321.097 175.083C317.25 174.815 314.979 175.062 313.198 175.653C309.379 176.92 306.059 179.363 303.715 182.632C302.621 184.157 301.71 186.252 300.821 190.004C299.916 193.829 299.154 198.803 298.069 205.939L289.751 260.62Z" fill="white"/>
</g>
<g filter="url(#filter1_f_2190_11934)">
<rect x="386.717" y="240.803" width="110.385" height="110.385" transform="rotate(19.7696 386.717 240.803)" fill="#285BF3"/>
</g>
</g>
<rect x="156.246" y="40.5012" width="317.478" height="317.478" rx="158.739" transform="rotate(8.64934 156.246 40.5012)" stroke="white" stroke-opacity="0.16" stroke-width="0.880004"/>
</g>
<g filter="url(#filter2_b_2190_11934)">
<rect x="405.881" y="251.093" width="72.1853" height="72.1853" rx="36.0927" transform="rotate(10 405.881 251.093)" fill="#285BF3"/>
<g clip-path="url(#clip2_2190_11934)">
<path fill-rule="evenodd" clip-rule="evenodd" d="M424.122 283.323C424.363 281.96 425.663 281.05 427.026 281.29C428.389 281.53 429.299 282.83 429.059 284.194C428.819 285.557 427.519 286.467 426.155 286.227C424.792 285.986 423.882 284.686 424.122 283.323ZM431.527 284.629C431.648 283.947 432.298 283.492 432.979 283.612L447.789 286.224C448.471 286.344 448.926 286.994 448.806 287.675C448.686 288.357 448.036 288.812 447.354 288.692L432.544 286.081C431.862 285.96 431.407 285.31 431.527 284.629ZM422.817 290.728C423.057 289.365 424.357 288.455 425.72 288.695C427.083 288.935 427.994 290.235 427.753 291.599C427.513 292.962 426.213 293.872 424.85 293.632C423.486 293.391 422.576 292.091 422.817 290.728ZM430.222 292.034C430.342 291.352 430.992 290.897 431.673 291.017L446.484 293.629C447.165 293.749 447.62 294.399 447.5 295.081C447.38 295.762 446.73 296.217 446.048 296.097L431.238 293.486C430.557 293.365 430.101 292.715 430.222 292.034ZM421.511 298.133C421.751 296.77 423.051 295.86 424.414 296.1C425.778 296.34 426.688 297.64 426.448 299.004C426.207 300.367 424.907 301.277 423.544 301.037C422.181 300.796 421.27 299.496 421.511 298.133ZM428.916 299.439C429.036 298.757 429.686 298.302 430.368 298.422L445.178 301.034C445.859 301.154 446.315 301.804 446.194 302.486C446.074 303.167 445.424 303.622 444.743 303.502L429.932 300.891C429.251 300.771 428.796 300.121 428.916 299.439Z" fill="white"/>
</g>
<rect x="406.491" y="251.964" width="70.6815" height="70.6815" rx="35.3407" transform="rotate(10 406.491 251.964)" stroke="white" stroke-opacity="0.08" stroke-width="1.50386"/>
</g>
<defs>
<filter id="filter0_b_2190_11934" x="93.8374" y="25.8375" width="390.939" height="390.939" filterUnits="userSpaceOnUse" color-interpolation-filters="sRGB">
<feFlood flood-opacity="0" result="BackgroundImageFix"/>
<feGaussianBlur in="BackgroundImageFix" stdDeviation="7.08128"/>
<feComposite in2="SourceAlpha" operator="in" result="effect1_backgroundBlur_2190_11934"/>
<feBlend mode="normal" in="SourceGraphic" in2="effect1_backgroundBlur_2190_11934" result="shape"/>
</filter>
<filter id="filter1_f_2190_11934" x="184.738" y="76.1603" width="470.5" height="470.5" filterUnits="userSpaceOnUse" color-interpolation-filters="sRGB">
<feFlood flood-opacity="0" result="BackgroundImageFix"/>
<feBlend mode="normal" in="SourceGraphic" in2="BackgroundImageFix" result="shape"/>
<feGaussianBlur stdDeviation="82.3211" result="effect1_foregroundBlur_2190_11934"/>
</filter>
<filter id="filter2_b_2190_11934" x="364.289" y="222.035" width="141.739" height="141.739" filterUnits="userSpaceOnUse" color-interpolation-filters="sRGB">
<feFlood flood-opacity="0" result="BackgroundImageFix"/>
<feGaussianBlur in="BackgroundImageFix" stdDeviation="14.5288"/>
<feComposite in2="SourceAlpha" operator="in" result="effect1_backgroundBlur_2190_11934"/>
<feBlend mode="normal" in="SourceGraphic" in2="effect1_backgroundBlur_2190_11934" result="shape"/>
</filter>
<linearGradient id="paint0_linear_2190_11934" x1="315.056" y1="40.0001" x2="520.374" y2="403.332" gradientUnits="userSpaceOnUse">
<stop stop-color="white"/>
<stop offset="1" stop-color="white" stop-opacity="0"/>
</linearGradient>
<clipPath id="clip0_2190_11934">
<rect x="155.877" y="40.0001" width="318.358" height="318.358" rx="159.179" transform="rotate(8.64934 155.877 40.0001)" fill="white"/>
</clipPath>
<clipPath id="clip1_2190_11934">
<rect width="152.414" height="152.414" fill="white" transform="translate(225.428 134.507) rotate(8.64934)"/>
</clipPath>
<clipPath id="clip2_2190_11934">
<rect width="30.0772" height="30.0772" fill="white" transform="translate(422.96 275.483) rotate(10)"/>
</clipPath>
</defs>
</svg>
