<svg width="584" height="476" viewBox="0 0 584 476" fill="none" xmlns="http://www.w3.org/2000/svg">
<g filter="url(#filter0_b_2190_11789)">
<g clip-path="url(#clip0_2190_11789)">
<rect x="155.877" y="40" width="318.358" height="318.358" rx="159.179" transform="rotate(8.64934 155.877 40)" fill="url(#paint0_linear_2190_11789)" fill-opacity="0.26"/>
<g clip-path="url(#clip1_2190_11789)">
<path fill-rule="evenodd" clip-rule="evenodd" d="M292.98 164.408C291.75 163.907 290.326 163.649 285.42 162.903L260.233 159.072C256.766 158.544 254.382 155.306 254.91 151.838C255.437 148.371 258.676 145.988 262.143 146.515L287.331 150.346C287.547 150.379 287.76 150.412 287.97 150.444C291.957 151.048 294.97 151.505 297.769 152.644C300.237 153.649 302.533 155.036 304.57 156.755C306.88 158.704 308.685 161.159 311.074 164.408C311.2 164.579 311.327 164.753 311.457 164.929L351.883 219.86C353.962 222.685 353.357 226.66 350.532 228.739C347.707 230.818 343.732 230.213 341.653 227.388L301.227 172.457C298.286 168.461 297.396 167.32 296.381 166.464C295.362 165.604 294.214 164.911 292.98 164.408ZM281.381 184.949C280.847 184.731 280.191 184.59 276.821 184.078L258.146 181.237C254.526 180.686 252.188 180.336 250.387 180.21C248.66 180.09 247.992 180.231 247.658 180.342C246.385 180.764 245.278 181.578 244.497 182.668C244.291 182.954 243.958 183.551 243.56 185.235C243.144 186.992 242.783 189.328 242.233 192.948L240.347 205.345C239.834 208.715 239.774 209.383 239.823 209.958C239.879 210.622 240.04 211.273 240.298 211.887C240.522 212.418 240.886 212.982 242.907 215.727L284.429 272.148C286.599 275.097 288.004 276.998 289.189 278.36C290.325 279.666 290.897 280.039 291.212 280.197C292.411 280.799 293.769 281.005 295.092 280.787C295.44 280.73 296.097 280.544 297.57 279.635C299.106 278.687 301.013 277.289 303.962 275.119L321.861 261.946C324.81 259.776 326.711 258.371 328.074 257.186C329.38 256.05 329.753 255.478 329.911 255.163C330.512 253.964 330.719 252.606 330.501 251.283C330.444 250.935 330.257 250.278 329.348 248.805C328.4 247.269 327.003 245.362 324.833 242.413L285.973 189.609C283.952 186.863 283.522 186.349 283.082 185.977C282.572 185.547 281.998 185.2 281.381 184.949ZM279.254 171.6C281.809 171.986 284.062 172.327 286.17 173.185C288.021 173.939 289.743 174.979 291.271 176.268C293.01 177.736 294.359 179.572 295.889 181.654C295.992 181.795 296.097 181.937 296.202 182.081L335.207 235.081C337.192 237.778 338.904 240.104 340.157 242.135C341.48 244.279 342.595 246.558 343.034 249.219C343.687 253.189 343.067 257.264 341.263 260.86C340.053 263.27 338.31 265.115 336.41 266.769C334.609 268.335 332.283 270.047 329.587 272.031L311.293 285.494C308.597 287.478 306.271 289.19 304.24 290.443C302.096 291.766 299.817 292.882 297.156 293.32C293.186 293.974 289.111 293.354 285.515 291.549C283.105 290.339 281.26 288.597 279.606 286.696C278.04 284.896 276.328 282.57 274.344 279.873L232.677 223.255C232.572 223.112 232.467 222.97 232.363 222.83C230.83 220.75 229.478 218.916 228.594 216.819C227.818 214.977 227.336 213.024 227.167 211.032C226.975 208.764 227.319 206.512 227.71 203.958C227.737 203.785 227.763 203.611 227.79 203.435L229.713 190.796C230.216 187.487 230.65 184.631 231.2 182.309C231.781 179.858 232.604 177.457 234.176 175.265C236.521 171.996 239.84 169.553 243.659 168.286C246.219 167.437 248.756 167.365 251.269 167.54C253.649 167.705 256.505 168.14 259.814 168.643L278.731 171.521C278.907 171.548 279.081 171.574 279.254 171.6Z" fill="white"/>
</g>
<g filter="url(#filter1_f_2190_11789)">
<rect x="386.717" y="240.802" width="110.385" height="110.385" transform="rotate(19.7696 386.717 240.802)" fill="#285BF3"/>
</g>
</g>
<rect x="156.246" y="40.5012" width="317.478" height="317.478" rx="158.739" transform="rotate(8.64934 156.246 40.5012)" stroke="white" stroke-opacity="0.16" stroke-width="0.880004"/>
</g>
<g filter="url(#filter2_b_2190_11789)">
<rect x="405.881" y="251.093" width="72.1853" height="72.1853" rx="36.0927" transform="rotate(10 405.881 251.093)" fill="#285BF3"/>
<g clip-path="url(#clip2_2190_11789)">
<path fill-rule="evenodd" clip-rule="evenodd" d="M424.122 283.323C424.363 281.96 425.663 281.05 427.026 281.29C428.389 281.531 429.299 282.831 429.059 284.194C428.819 285.557 427.519 286.467 426.155 286.227C424.792 285.987 423.882 284.687 424.122 283.323ZM431.527 284.629C431.648 283.947 432.298 283.492 432.979 283.612L447.789 286.224C448.471 286.344 448.926 286.994 448.806 287.676C448.686 288.357 448.036 288.812 447.354 288.692L432.544 286.081C431.862 285.961 431.407 285.311 431.527 284.629ZM422.817 290.728C423.057 289.365 424.357 288.455 425.72 288.695C427.083 288.936 427.994 290.236 427.753 291.599C427.513 292.962 426.213 293.872 424.85 293.632C423.486 293.392 422.576 292.092 422.817 290.728ZM430.222 292.034C430.342 291.353 430.992 290.897 431.673 291.018L446.484 293.629C447.165 293.749 447.62 294.399 447.5 295.081C447.38 295.762 446.73 296.218 446.048 296.097L431.238 293.486C430.557 293.366 430.101 292.716 430.222 292.034ZM421.511 298.133C421.751 296.77 423.051 295.86 424.414 296.1C425.778 296.341 426.688 297.641 426.448 299.004C426.207 300.367 424.907 301.277 423.544 301.037C422.181 300.797 421.27 299.497 421.511 298.133ZM428.916 299.439C429.036 298.758 429.686 298.302 430.368 298.423L445.178 301.034C445.859 301.154 446.315 301.804 446.194 302.486C446.074 303.167 445.424 303.623 444.743 303.502L429.932 300.891C429.251 300.771 428.796 300.121 428.916 299.439Z" fill="white"/>
</g>
<rect x="406.491" y="251.964" width="70.6815" height="70.6815" rx="35.3407" transform="rotate(10 406.491 251.964)" stroke="white" stroke-opacity="0.08" stroke-width="1.50386"/>
</g>
<defs>
<filter id="filter0_b_2190_11789" x="93.8374" y="25.8374" width="390.939" height="390.939" filterUnits="userSpaceOnUse" color-interpolation-filters="sRGB">
<feFlood flood-opacity="0" result="BackgroundImageFix"/>
<feGaussianBlur in="BackgroundImageFix" stdDeviation="7.08128"/>
<feComposite in2="SourceAlpha" operator="in" result="effect1_backgroundBlur_2190_11789"/>
<feBlend mode="normal" in="SourceGraphic" in2="effect1_backgroundBlur_2190_11789" result="shape"/>
</filter>
<filter id="filter1_f_2190_11789" x="184.738" y="76.16" width="470.5" height="470.5" filterUnits="userSpaceOnUse" color-interpolation-filters="sRGB">
<feFlood flood-opacity="0" result="BackgroundImageFix"/>
<feBlend mode="normal" in="SourceGraphic" in2="BackgroundImageFix" result="shape"/>
<feGaussianBlur stdDeviation="82.3211" result="effect1_foregroundBlur_2190_11789"/>
</filter>
<filter id="filter2_b_2190_11789" x="364.289" y="222.035" width="141.739" height="141.739" filterUnits="userSpaceOnUse" color-interpolation-filters="sRGB">
<feFlood flood-opacity="0" result="BackgroundImageFix"/>
<feGaussianBlur in="BackgroundImageFix" stdDeviation="14.5288"/>
<feComposite in2="SourceAlpha" operator="in" result="effect1_backgroundBlur_2190_11789"/>
<feBlend mode="normal" in="SourceGraphic" in2="effect1_backgroundBlur_2190_11789" result="shape"/>
</filter>
<linearGradient id="paint0_linear_2190_11789" x1="315.056" y1="40" x2="520.374" y2="403.332" gradientUnits="userSpaceOnUse">
<stop stop-color="white"/>
<stop offset="1" stop-color="white" stop-opacity="0"/>
</linearGradient>
<clipPath id="clip0_2190_11789">
<rect x="155.877" y="40" width="318.358" height="318.358" rx="159.179" transform="rotate(8.64934 155.877 40)" fill="white"/>
</clipPath>
<clipPath id="clip1_2190_11789">
<rect width="152.414" height="152.414" fill="white" transform="translate(225.428 134.506) rotate(8.64934)"/>
</clipPath>
<clipPath id="clip2_2190_11789">
<rect width="30.0772" height="30.0772" fill="white" transform="translate(422.96 275.483) rotate(10)"/>
</clipPath>
</defs>
</svg>
