<svg width="584" height="476" viewBox="0 0 584 476" fill="none" xmlns="http://www.w3.org/2000/svg">
<g opacity="0.74" filter="url(#filter0_b_2190_11674)">
<rect width="226.992" height="263.773" rx="24" transform="matrix(0.99948 -0.0322362 -0.380826 0.924647 256.958 142.819)" fill="url(#paint0_linear_2190_11674)" fill-opacity="0.26"/>
<rect x="0.290987" y="0.41975" width="226.052" height="262.832" rx="23.5296" transform="matrix(0.99948 -0.0322362 -0.380826 0.924647 257.118 142.86)" stroke="white" stroke-opacity="0.16" stroke-width="0.94071"/>
</g>
<g filter="url(#filter1_b_2190_11674)">
<rect width="226.992" height="263.773" rx="24" transform="matrix(0.99948 -0.0322362 -0.380826 0.924647 233.19 122.851)" fill="url(#paint1_linear_2190_11674)" fill-opacity="0.26"/>
<rect x="0.290987" y="0.41975" width="226.052" height="262.832" rx="23.5296" transform="matrix(0.99948 -0.0322362 -0.380826 0.924647 233.35 122.892)" stroke="white" stroke-opacity="0.16" stroke-width="0.94071"/>
</g>
<mask id="mask0_2190_11674" style="mask-type:alpha" maskUnits="userSpaceOnUse" x="124" y="90" width="313" height="250">
<rect width="226.992" height="263.773" rx="24" transform="matrix(0.99948 -0.0322362 -0.380826 0.924647 217.268 96.8335)" fill="url(#paint2_linear_2190_11674)" fill-opacity="0.26"/>
<rect x="0.290987" y="0.41975" width="226.052" height="262.832" rx="23.5296" transform="matrix(0.99948 -0.0322362 -0.380826 0.924647 217.428 96.8745)" stroke="white" stroke-opacity="0.16" stroke-width="0.94071"/>
</mask>
<g mask="url(#mask0_2190_11674)">
<g filter="url(#filter2_b_2190_11674)">
<rect width="226.992" height="263.773" rx="24" transform="matrix(0.99948 -0.0322362 -0.380826 0.924647 217.268 96.8335)" fill="url(#paint3_linear_2190_11674)" fill-opacity="0.26"/>
<rect x="0.290987" y="0.41975" width="226.052" height="262.832" rx="23.5296" transform="matrix(0.99948 -0.0322362 -0.380826 0.924647 217.428 96.8745)" stroke="white" stroke-opacity="0.16" stroke-width="0.94071"/>
</g>
<rect width="181.034" height="17.3313" rx="5" transform="matrix(0.99948 -0.0322362 -0.380826 0.924647 232.504 117.068)" fill="white" fill-opacity="0.12"/>
<rect width="119.443" height="17.3313" rx="5" transform="matrix(0.99948 -0.0322362 -0.380826 0.924647 212.38 141.459)" fill="white" fill-opacity="0.12"/>
<rect width="160.878" height="17.3313" rx="5" transform="matrix(0.99948 -0.0322362 -0.380826 0.924647 201.046 175.561)" fill="white" fill-opacity="0.12"/>
<rect width="133.749" height="17.3313" rx="5" transform="matrix(0.99948 -0.0322362 -0.380826 0.924647 190.6 198.312)" fill="white" fill-opacity="0.12"/>
<g opacity="0.43" filter="url(#filter3_f_2190_11674)">
<path d="M304.5 261H403.5V345H217L304.5 261Z" fill="#4775FF"/>
</g>
</g>
<g filter="url(#filter4_b_2190_11674)">
<rect x="133" y="71.1177" width="116" height="116" rx="58" transform="rotate(-12 133 71.1177)" fill="white" fill-opacity="0.2"/>
<g clip-path="url(#clip0_2190_11674)">
<path fill-rule="evenodd" clip-rule="evenodd" d="M196.506 94.8018C197.003 94.5843 197.54 94.4703 198.082 94.4667C198.71 94.4626 199.311 94.6493 199.789 94.7977C199.834 94.8116 199.877 94.825 199.919 94.838L216.105 99.8035C216.15 99.8172 216.196 99.8312 216.243 99.8454C216.749 99.9984 217.384 100.191 217.921 100.572C218.385 100.901 218.774 101.326 219.062 101.818C219.394 102.386 219.529 103.036 219.637 103.552C219.647 103.601 219.657 103.648 219.667 103.694L221.562 112.612C221.792 113.692 221.102 114.754 220.022 114.984C218.941 115.213 217.879 114.524 217.65 113.443L216.069 106.008L210.898 110.512C210.88 110.529 210.861 110.545 210.842 110.561L203.992 116.527L207.199 131.614L208.087 130.841C208.92 130.116 210.183 130.203 210.908 131.036C211.634 131.869 211.547 133.132 210.714 133.857L208.604 135.695C208.57 135.724 208.536 135.754 208.501 135.785C208.125 136.115 207.652 136.53 207.077 136.782C206.579 136.999 206.043 137.113 205.5 137.117C204.873 137.121 204.272 136.934 203.794 136.786C203.749 136.772 203.706 136.758 203.664 136.745L187.477 131.78C187.433 131.766 187.387 131.752 187.339 131.738C186.834 131.585 186.199 131.393 185.662 131.012C185.197 130.682 184.809 130.257 184.521 129.766C184.189 129.197 184.054 128.547 183.946 128.031C183.936 127.983 183.926 127.935 183.916 127.89L180.541 112.01C180.531 111.964 180.521 111.917 180.51 111.869C180.399 111.353 180.259 110.705 180.331 110.05C180.393 109.484 180.575 108.938 180.866 108.448C181.202 107.881 181.704 107.447 182.103 107.102C182.14 107.07 182.177 107.039 182.212 107.008L188.529 101.505C188.546 101.491 188.563 101.476 188.579 101.462L194.979 95.8881C195.012 95.8591 195.047 95.8291 195.082 95.7983C195.458 95.4683 195.931 95.0532 196.506 94.8018ZM190.345 105.229L186.134 108.896L201.316 113.554L205.527 109.886L190.345 105.229ZM209.079 106.792L193.898 102.134L197.606 98.9045C197.868 98.6767 198.001 98.5614 198.103 98.4829L198.111 98.4764L198.121 98.4789C198.246 98.5094 198.415 98.5604 198.746 98.6621L213.291 103.124L209.079 106.792ZM200.08 117.359L184.769 112.661L187.829 127.058C187.905 127.416 187.945 127.599 187.981 127.73C187.982 127.734 187.984 127.741 187.984 127.741C187.984 127.741 187.991 127.744 187.995 127.745C188.122 127.793 188.301 127.848 188.651 127.956L203.287 132.446L200.08 117.359ZM224.107 117.781C225.033 118.383 225.297 119.621 224.695 120.548L218.533 130.036C217.932 130.963 216.693 131.226 215.767 130.624L211.022 127.543C210.096 126.942 209.833 125.703 210.434 124.777C211.036 123.85 212.274 123.587 213.201 124.189L216.268 126.18L221.34 118.369C221.942 117.443 223.181 117.18 224.107 117.781Z" fill="white"/>
</g>
<rect x="134.186" y="71.8879" width="114" height="114" rx="57" transform="rotate(-12 134.186 71.8879)" stroke="white" stroke-opacity="0.08" stroke-width="2"/>
</g>
<g filter="url(#filter5_b_2190_11674)">
<rect x="344" y="272.495" width="77.165" height="77.165" rx="38.5825" transform="rotate(-8.56667 344 272.495)" fill="#285BF3"/>
<g clip-path="url(#clip1_2190_11674)">
<path fill-rule="evenodd" clip-rule="evenodd" d="M374.661 297.41C374.672 297.418 374.683 297.425 374.695 297.433C374.925 297.577 375.33 297.739 375.937 297.861C377.138 298.104 378.842 298.136 380.741 297.849C382.64 297.563 384.258 297.031 385.335 296.445C385.879 296.15 386.218 295.876 386.395 295.67C386.404 295.659 386.413 295.649 386.421 295.639C386.411 295.632 386.399 295.624 386.387 295.617C386.157 295.472 385.752 295.311 385.146 295.188C383.944 294.946 382.241 294.914 380.342 295.2C378.443 295.486 376.824 296.018 375.747 296.604C375.204 296.9 374.865 297.173 374.687 297.379C374.678 297.39 374.669 297.401 374.661 297.41ZM387.245 298.423C387.043 298.556 386.832 298.681 386.616 298.799C385.2 299.569 383.265 300.179 381.14 300.499C379.015 300.819 376.986 300.806 375.406 300.487C375.279 300.462 375.153 300.434 375.029 300.403L375.365 302.638C375.384 302.655 375.414 302.679 375.46 302.71C375.653 302.84 376.003 302.994 376.545 303.119C377.617 303.367 379.159 303.438 380.918 303.231C381.123 303.207 381.33 303.18 381.539 303.148C382.271 303.038 382.953 303.542 383.063 304.273C383.173 305.005 382.67 305.688 381.938 305.798C381.7 305.834 381.464 305.865 381.231 305.893C379.258 306.124 377.393 306.065 375.941 305.729C375.903 305.72 375.865 305.711 375.827 305.702L376.164 307.937C376.187 307.958 376.227 307.989 376.292 308.03C376.522 308.175 376.927 308.336 377.533 308.459C378.734 308.701 380.438 308.733 382.337 308.447C383.069 308.337 383.751 308.841 383.861 309.572C383.972 310.304 383.468 310.986 382.736 311.097C380.611 311.417 378.583 311.404 377.003 311.085C376.876 311.06 376.75 311.032 376.625 311.001L376.962 313.236C376.985 313.257 377.025 313.288 377.09 313.329C377.32 313.474 377.725 313.635 378.331 313.758C379.533 314 381.236 314.032 383.135 313.746C383.867 313.636 384.549 314.14 384.66 314.871C384.77 315.603 384.266 316.285 383.535 316.396C381.41 316.716 379.381 316.703 377.801 316.384C377.017 316.226 376.268 315.977 375.665 315.599C375.067 315.223 374.46 314.616 374.325 313.719L371.93 297.822C371.795 296.925 372.197 296.165 372.657 295.63C373.122 295.091 373.764 294.633 374.467 294.251C375.883 293.48 377.818 292.871 379.942 292.551C382.067 292.23 384.096 292.243 385.676 292.562C386.46 292.72 387.209 292.969 387.812 293.347C388.41 293.723 389.017 294.33 389.152 295.228L389.451 297.215C389.561 297.946 389.058 298.629 388.326 298.739C387.921 298.8 387.531 298.673 387.245 298.423ZM387.881 304.225C387.891 304.232 387.903 304.24 387.915 304.247C388.145 304.392 388.55 304.553 389.156 304.676C390.358 304.918 392.061 304.95 393.96 304.664C395.859 304.378 397.478 303.846 398.555 303.26C399.098 302.964 399.437 302.691 399.615 302.485C399.624 302.474 399.633 302.463 399.641 302.454C399.63 302.447 399.619 302.439 399.607 302.431C399.377 302.287 398.972 302.125 398.365 302.003C397.164 301.76 395.46 301.729 393.561 302.015C391.662 302.301 390.043 302.833 388.967 303.419C388.423 303.714 388.084 303.988 387.907 304.194C387.897 304.205 387.889 304.215 387.881 304.225ZM400.171 305.422C400.061 305.488 399.949 305.552 399.835 305.614C398.419 306.384 396.484 306.993 394.359 307.314C392.235 307.634 390.206 307.621 388.626 307.302C388.499 307.276 388.373 307.248 388.249 307.218L388.535 309.121C388.558 309.142 388.598 309.174 388.663 309.215C388.893 309.359 389.298 309.521 389.905 309.643C391.106 309.886 392.81 309.918 394.709 309.632C396.608 309.346 398.226 308.813 399.303 308.228C399.846 307.932 400.186 307.658 400.363 307.453C400.413 307.394 400.442 307.352 400.458 307.325L400.171 305.422ZM400.919 310.39C400.809 310.456 400.697 310.519 400.584 310.581C399.168 311.352 397.233 311.961 395.108 312.281C392.983 312.601 390.954 312.589 389.374 312.27C389.247 312.244 389.121 312.216 388.997 312.186L389.284 314.089C389.307 314.11 389.346 314.142 389.412 314.183C389.642 314.327 390.046 314.489 390.653 314.611C391.854 314.854 393.558 314.886 395.457 314.6C397.356 314.313 398.975 313.781 400.051 313.195C400.595 312.9 400.934 312.626 401.111 312.42C401.162 312.362 401.19 312.32 401.206 312.293L400.919 310.39ZM403.868 311.978C404.003 312.875 403.602 313.634 403.141 314.169C402.676 314.709 402.035 315.167 401.332 315.549C399.916 316.319 397.981 316.929 395.856 317.249C393.731 317.569 391.703 317.557 390.123 317.238C389.338 317.079 388.59 316.831 387.987 316.452C387.389 316.077 386.782 315.469 386.647 314.572L385.15 304.637C385.015 303.739 385.416 302.98 385.877 302.445C386.342 301.906 386.984 301.448 387.686 301.065C389.102 300.295 391.037 299.685 393.162 299.365C395.287 299.045 397.316 299.058 398.896 299.377C399.68 299.535 400.428 299.784 401.031 300.162C401.629 300.538 402.236 301.145 402.371 302.042L403.868 311.978Z" fill="white"/>
</g>
<rect x="344.915" y="273.17" width="75.5574" height="75.5574" rx="37.7787" transform="rotate(-8.56667 344.915 273.17)" stroke="white" stroke-opacity="0.08" stroke-width="1.6076"/>
</g>
<defs>
<filter id="filter0_b_2190_11674" x="148.817" y="121.122" width="342.704" height="279.973" filterUnits="userSpaceOnUse" color-interpolation-filters="sRGB">
<feFlood flood-opacity="0" result="BackgroundImageFix"/>
<feGaussianBlur in="BackgroundImageFix" stdDeviation="7.56977"/>
<feComposite in2="SourceAlpha" operator="in" result="effect1_backgroundBlur_2190_11674"/>
<feBlend mode="normal" in="SourceGraphic" in2="effect1_backgroundBlur_2190_11674" result="shape"/>
</filter>
<filter id="filter1_b_2190_11674" x="114.189" y="90.2935" width="364.425" height="301.694" filterUnits="userSpaceOnUse" color-interpolation-filters="sRGB">
<feFlood flood-opacity="0" result="BackgroundImageFix"/>
<feGaussianBlur in="BackgroundImageFix" stdDeviation="13"/>
<feComposite in2="SourceAlpha" operator="in" result="effect1_backgroundBlur_2190_11674"/>
<feBlend mode="normal" in="SourceGraphic" in2="effect1_backgroundBlur_2190_11674" result="shape"/>
</filter>
<filter id="filter2_b_2190_11674" x="92.2667" y="58.2759" width="376.425" height="313.694" filterUnits="userSpaceOnUse" color-interpolation-filters="sRGB">
<feFlood flood-opacity="0" result="BackgroundImageFix"/>
<feGaussianBlur in="BackgroundImageFix" stdDeviation="16"/>
<feComposite in2="SourceAlpha" operator="in" result="effect1_backgroundBlur_2190_11674"/>
<feBlend mode="normal" in="SourceGraphic" in2="effect1_backgroundBlur_2190_11674" result="shape"/>
</filter>
<filter id="filter3_f_2190_11674" x="137" y="181" width="346.5" height="244" filterUnits="userSpaceOnUse" color-interpolation-filters="sRGB">
<feFlood flood-opacity="0" result="BackgroundImageFix"/>
<feBlend mode="normal" in="SourceGraphic" in2="BackgroundImageFix" result="shape"/>
<feGaussianBlur stdDeviation="40" result="effect1_foregroundBlur_2190_11674"/>
</filter>
<filter id="filter4_b_2190_11674" x="99" y="13" width="205.583" height="205.583" filterUnits="userSpaceOnUse" color-interpolation-filters="sRGB">
<feFlood flood-opacity="0" result="BackgroundImageFix"/>
<feGaussianBlur in="BackgroundImageFix" stdDeviation="17"/>
<feComposite in2="SourceAlpha" operator="in" result="effect1_backgroundBlur_2190_11674"/>
<feBlend mode="normal" in="SourceGraphic" in2="effect1_backgroundBlur_2190_11674" result="shape"/>
</filter>
<filter id="filter5_b_2190_11674" x="312.938" y="229.938" width="149.923" height="149.923" filterUnits="userSpaceOnUse" color-interpolation-filters="sRGB">
<feFlood flood-opacity="0" result="BackgroundImageFix"/>
<feGaussianBlur in="BackgroundImageFix" stdDeviation="15.5311"/>
<feComposite in2="SourceAlpha" operator="in" result="effect1_backgroundBlur_2190_11674"/>
<feBlend mode="normal" in="SourceGraphic" in2="effect1_backgroundBlur_2190_11674" result="shape"/>
</filter>
<linearGradient id="paint0_linear_2190_11674" x1="113.496" y1="5.06983e-06" x2="295.724" y2="277.505" gradientUnits="userSpaceOnUse">
<stop stop-color="white"/>
<stop offset="1" stop-color="white" stop-opacity="0"/>
</linearGradient>
<linearGradient id="paint1_linear_2190_11674" x1="113.496" y1="5.06983e-06" x2="295.724" y2="277.505" gradientUnits="userSpaceOnUse">
<stop stop-color="white"/>
<stop offset="1" stop-color="white" stop-opacity="0"/>
</linearGradient>
<linearGradient id="paint2_linear_2190_11674" x1="113.496" y1="5.06983e-06" x2="295.724" y2="277.505" gradientUnits="userSpaceOnUse">
<stop stop-color="white"/>
<stop offset="1" stop-color="white" stop-opacity="0"/>
</linearGradient>
<linearGradient id="paint3_linear_2190_11674" x1="113.496" y1="5.06983e-06" x2="295.724" y2="277.505" gradientUnits="userSpaceOnUse">
<stop stop-color="white"/>
<stop offset="1" stop-color="white" stop-opacity="0"/>
</linearGradient>
<clipPath id="clip0_2190_11674">
<rect width="48" height="48" fill="white" transform="translate(173.326 97.3057) rotate(-12)"/>
</clipPath>
<clipPath id="clip1_2190_11674">
<rect width="32.1521" height="32.1521" fill="white" transform="translate(369.608 291.397) rotate(-8.56667)"/>
</clipPath>
</defs>
</svg>
