<svg width="25" height="24" viewBox="0 0 25 24" fill="none" xmlns="http://www.w3.org/2000/svg">
<path fill-rule="evenodd" clip-rule="evenodd" d="M8.66666 1C9.21894 1 9.66666 1.44772 9.66666 2V3H15.6667V2C15.6667 1.44772 16.1144 1 16.6667 1C17.2189 1 17.6667 1.44772 17.6667 2V3.00163C18.1421 3.00489 18.5577 3.01471 18.9185 3.04419C19.4806 3.09012 19.9973 3.18868 20.4826 3.43597C21.2353 3.81947 21.8472 4.43139 22.2307 5.18404C22.478 5.66937 22.5765 6.18608 22.6225 6.74817C22.6667 7.28936 22.6667 7.95372 22.6667 8.75868V12.5C22.6667 13.0523 22.2189 13.5 21.6667 13.5C21.1144 13.5 20.6667 13.0523 20.6667 12.5V11H4.66666V17.2C4.66666 18.0566 4.66744 18.6389 4.70421 19.089C4.74003 19.5274 4.80495 19.7516 4.88464 19.908C5.07639 20.2843 5.38235 20.5903 5.75868 20.782C5.91508 20.8617 6.13928 20.9266 6.5777 20.9624C7.02778 20.9992 7.61008 21 8.46666 21H12.6667C13.2189 21 13.6667 21.4477 13.6667 22C13.6667 22.5523 13.2189 23 12.6667 23H8.42533C7.62037 23 6.95602 23 6.41483 22.9558C5.85273 22.9099 5.33603 22.8113 4.85069 22.564C4.09805 22.1805 3.48612 21.5686 3.10263 20.816C2.85534 20.3306 2.75678 19.8139 2.71085 19.2518C2.66663 18.7106 2.66664 18.0463 2.66666 17.2413V8.7587C2.66664 7.95373 2.66663 7.28937 2.71085 6.74817C2.75678 6.18608 2.85534 5.66937 3.10263 5.18404C3.48612 4.43139 4.09805 3.81947 4.8507 3.43597C5.33603 3.18868 5.85273 3.09012 6.41483 3.04419C6.77564 3.01471 7.19119 3.00489 7.66666 3.00163V2C7.66666 1.44772 8.11437 1 8.66666 1ZM7.66666 5.00176C7.22113 5.00489 6.87129 5.01356 6.5777 5.03755C6.13928 5.07337 5.91508 5.1383 5.75868 5.21799C5.38235 5.40973 5.07639 5.71569 4.88464 6.09202C4.80495 6.24842 4.74003 6.47262 4.70421 6.91104C4.66744 7.36113 4.66666 7.94342 4.66666 8.8V9H20.6667V8.8C20.6667 7.94342 20.6659 7.36113 20.6291 6.91104C20.5933 6.47262 20.5284 6.24842 20.4487 6.09202C20.2569 5.71569 19.951 5.40973 19.5746 5.21799C19.4182 5.1383 19.194 5.07337 18.7556 5.03755C18.462 5.01356 18.1122 5.00489 17.6667 5.00176V6C17.6667 6.55228 17.2189 7 16.6667 7C16.1144 7 15.6667 6.55228 15.6667 6V5H9.66666V6C9.66666 6.55228 9.21894 7 8.66666 7C8.11437 7 7.66666 6.55228 7.66666 6V5.00176ZM22.3738 15.7929C22.7643 16.1834 22.7643 16.8166 22.3738 17.2071L17.8738 21.7071C17.4832 22.0976 16.8501 22.0976 16.4596 21.7071L14.4596 19.7071C14.069 19.3166 14.069 18.6834 14.4596 18.2929C14.8501 17.9024 15.4832 17.9024 15.8738 18.2929L17.1667 19.5858L20.9595 15.7929C21.3501 15.4024 21.9832 15.4024 22.3738 15.7929Z" fill="white"/>
</svg>
