<svg width="608" height="425" viewBox="0 0 608 425" fill="none" xmlns="http://www.w3.org/2000/svg">
<mask id="mask0_311_39361" style="mask-type:alpha" maskUnits="userSpaceOnUse" x="141" y="105" width="323" height="350">
<path fill-rule="evenodd" clip-rule="evenodd" d="M410.156 182.434C413.431 183.219 416.448 184.003 419.213 184.822C426.824 187.074 433.675 189.892 439.799 194.577C449.347 201.88 456.507 211.861 460.369 223.251C462.846 230.557 463.323 237.954 463.022 245.893C462.733 253.511 461.66 262.72 460.364 273.837L448.939 371.847C447.401 385.047 446.136 395.898 444.37 404.592C442.543 413.586 439.922 421.731 434.842 428.924C427.009 440.013 415.685 448.152 402.683 452.034C394.25 454.553 385.701 454.435 376.602 453.292C367.807 452.187 357.131 449.918 344.142 447.157L217.576 420.254C204.587 417.494 193.91 415.224 185.426 412.656C176.649 409.999 168.791 406.63 162.111 400.899C151.813 392.064 144.778 380.023 142.133 366.707C140.417 358.07 141.336 349.562 143.325 340.603C145.248 331.942 148.506 321.515 152.47 308.829L181.897 214.647C185.234 203.964 187.999 195.114 190.834 188.038C193.788 180.663 197.233 174.099 202.468 168.432C210.628 159.598 221.229 153.392 232.921 150.603C240.422 148.815 247.826 149.027 255.696 150.065C258.555 150.442 261.63 150.952 264.941 151.567C278.956 119.111 314.303 99.9357 350.183 107.562C386.062 115.188 410.554 147.083 410.156 182.434ZM379.486 175.769C377.057 157.198 363.228 141.324 343.88 137.211C324.533 133.099 305.442 141.976 295.67 157.953L379.486 175.769Z" fill="url(#paint0_linear_311_39361)"/>
</mask>
<g mask="url(#mask0_311_39361)">
<g filter="url(#filter0_b_311_39361)">
<path fill-rule="evenodd" clip-rule="evenodd" d="M410.156 182.434C413.431 183.219 416.448 184.003 419.213 184.822C426.824 187.074 433.675 189.892 439.799 194.577C449.347 201.88 456.507 211.861 460.369 223.251C462.846 230.557 463.323 237.954 463.022 245.893C462.733 253.511 461.66 262.72 460.364 273.837L448.939 371.847C447.401 385.047 446.136 395.898 444.37 404.592C442.543 413.586 439.922 421.731 434.842 428.924C427.009 440.013 415.685 448.152 402.683 452.034C394.25 454.553 385.701 454.435 376.602 453.292C367.807 452.187 357.131 449.918 344.142 447.157L217.576 420.254C204.587 417.494 193.91 415.224 185.426 412.656C176.649 409.999 168.791 406.63 162.111 400.899C151.813 392.064 144.778 380.023 142.133 366.707C140.417 358.07 141.336 349.562 143.325 340.603C145.248 331.942 148.506 321.515 152.47 308.829L181.897 214.647C185.234 203.964 187.999 195.114 190.834 188.038C193.788 180.663 197.233 174.099 202.468 168.432C210.628 159.598 221.229 153.392 232.921 150.603C240.422 148.815 247.826 149.027 255.696 150.065C258.555 150.442 261.63 150.952 264.941 151.567C278.956 119.111 314.303 99.9357 350.183 107.562C386.062 115.188 410.554 147.083 410.156 182.434ZM379.486 175.769C377.057 157.198 363.228 141.324 343.88 137.211C324.533 133.099 305.442 141.976 295.67 157.953L379.486 175.769Z" fill="url(#paint1_linear_311_39361)" fill-opacity="0.26"/>
<path d="M409.156 182.422L409.147 183.22L409.923 183.406C413.187 184.189 416.186 184.969 418.929 185.781C426.482 188.016 433.203 190.79 439.192 195.371C448.582 202.553 455.624 212.37 459.422 223.572C461.844 230.716 462.321 237.977 462.023 245.855C461.736 253.425 460.668 262.591 459.371 273.721L447.946 371.731C446.406 384.947 445.146 395.75 443.39 404.393C441.576 413.325 438.991 421.316 434.025 428.347C426.322 439.254 415.184 447.257 402.397 451.076C394.154 453.538 385.763 453.435 376.727 452.3C367.983 451.202 357.354 448.943 344.35 446.179L217.783 419.276C204.779 416.512 194.15 414.252 185.716 411.699C176.999 409.06 169.292 405.742 162.763 400.14C152.634 391.451 145.715 379.609 143.114 366.512C141.437 358.069 142.326 349.718 144.301 340.819C146.213 332.209 149.456 321.828 153.424 309.128L182.851 214.945C186.193 204.249 188.945 195.442 191.762 188.409C194.694 181.091 198.084 174.652 203.202 169.111C211.228 160.422 221.654 154.318 233.153 151.576C240.487 149.827 247.756 150.026 255.565 151.056C258.401 151.431 261.458 151.938 264.759 152.551L265.543 152.696L265.859 151.964C279.689 119.936 314.571 101.015 349.975 108.54C385.378 116.065 409.549 147.539 409.156 182.422ZM379.278 176.747L380.661 177.041L380.478 175.639C377.996 156.662 363.864 140.437 344.088 136.233C324.313 132.03 304.803 141.104 294.817 157.431L294.08 158.637L295.462 158.931L379.278 176.747Z" stroke="white" stroke-opacity="0.16" stroke-width="2"/>
</g>
<g opacity="0.3" filter="url(#filter1_f_311_39361)">
<ellipse cx="434.559" cy="369.755" rx="70.9275" ry="72.3055" transform="rotate(-33.2557 434.559 369.755)" fill="#285BF3"/>
</g>
</g>
<g filter="url(#filter2_b_311_39361)">
<rect x="406.532" y="297.665" width="96" height="96" rx="48" transform="rotate(10 406.532 297.665)" fill="#285BF3"/>
<g clip-path="url(#clip0_311_39361)">
<path fill-rule="evenodd" clip-rule="evenodd" d="M436.293 338.115C435.387 337.955 434.523 338.56 434.363 339.466C434.203 340.373 434.808 341.237 435.715 341.397L458.693 345.449C461.413 345.929 463.229 348.522 462.749 351.241L459.855 367.655C459.376 370.374 456.782 372.19 454.063 371.711L431.084 367.659C428.365 367.179 426.549 364.586 427.028 361.867L431.08 338.888C431.56 336.168 434.153 334.352 436.872 334.832L456.568 338.305C457.475 338.465 458.08 339.329 457.92 340.236C457.761 341.142 456.896 341.747 455.99 341.588L436.293 338.115ZM433.544 344.11L430.311 362.445C430.151 363.352 430.756 364.216 431.663 364.376L454.642 368.428C455.548 368.588 456.413 367.982 456.572 367.076L459.467 350.662C459.626 349.756 459.021 348.892 458.115 348.732L435.136 344.68C434.56 344.578 434.025 344.382 433.544 344.11ZM449.813 357.422C450.053 356.062 451.349 355.154 452.709 355.394C454.069 355.634 454.977 356.931 454.737 358.29C454.497 359.65 453.2 360.558 451.841 360.318C450.481 360.079 449.573 358.782 449.813 357.422Z" fill="white"/>
</g>
<rect x="407.343" y="298.824" width="94" height="94" rx="47" transform="rotate(10 407.343 298.824)" stroke="white" stroke-opacity="0.08" stroke-width="2"/>
</g>
<g filter="url(#filter3_b_311_39361)">
<rect x="99" y="180.118" width="116" height="116" rx="58" transform="rotate(-12 99 180.118)" fill="white" fill-opacity="0.2"/>
<g clip-path="url(#clip1_311_39361)">
<path fill-rule="evenodd" clip-rule="evenodd" d="M164.05 207.185C158.647 208.333 155.199 213.643 156.347 219.045C157.496 224.447 162.806 227.896 168.208 226.748C173.61 225.599 177.058 220.289 175.91 214.887C174.762 209.485 169.452 206.036 164.05 207.185ZM152.435 219.877C150.827 212.314 155.655 204.88 163.218 203.272C170.781 201.664 178.215 206.492 179.823 214.055C180.05 215.126 180.149 216.194 180.129 217.243C185.396 218.34 189.784 222.439 190.975 228.042C192.582 235.605 187.754 243.04 180.191 244.647C177.283 245.265 174.391 244.931 171.845 243.856C169.955 245.875 167.45 247.355 164.541 247.974C156.978 249.581 149.544 244.754 147.936 237.191C146.745 231.587 149.086 226.058 153.451 222.914C153.007 221.963 152.662 220.947 152.435 219.877ZM155.654 226.258C152.621 228.521 151.011 232.417 151.849 236.359C152.997 241.761 158.307 245.209 163.709 244.061C166.207 243.53 168.287 242.11 169.688 240.202C169.697 240.189 169.706 240.177 169.715 240.165C171.325 237.951 172.026 235.089 171.412 232.201C171.261 231.491 171.039 230.816 170.754 230.181C170.201 230.375 169.628 230.535 169.04 230.66C163.935 231.745 158.889 229.899 155.654 226.258ZM174.307 228.333C174.753 229.284 175.097 230.3 175.324 231.369C176.004 234.568 175.533 237.744 174.19 240.466C175.806 240.993 177.576 241.114 179.36 240.735C184.762 239.586 188.21 234.276 187.062 228.874C186.224 224.933 183.169 222.028 179.477 221.194C178.569 224.052 176.757 226.568 174.307 228.333Z" fill="white"/>
</g>
<rect x="100.186" y="180.888" width="114" height="114" rx="57" transform="rotate(-12 100.186 180.888)" stroke="white" stroke-opacity="0.08" stroke-width="2"/>
</g>
<defs>
<filter id="filter0_b_311_39361" x="109.043" y="73.7058" width="386.246" height="412.552" filterUnits="userSpaceOnUse" color-interpolation-filters="sRGB">
<feFlood flood-opacity="0" result="BackgroundImageFix"/>
<feGaussianBlur in="BackgroundImageFix" stdDeviation="16.0937"/>
<feComposite in2="SourceAlpha" operator="in" result="effect1_backgroundBlur_311_39361"/>
<feBlend mode="normal" in="SourceGraphic" in2="effect1_backgroundBlur_311_39361" result="shape"/>
</filter>
<filter id="filter1_f_311_39361" x="294.879" y="229.525" width="279.359" height="280.46" filterUnits="userSpaceOnUse" color-interpolation-filters="sRGB">
<feFlood flood-opacity="0" result="BackgroundImageFix"/>
<feBlend mode="normal" in="SourceGraphic" in2="BackgroundImageFix" result="shape"/>
<feGaussianBlur stdDeviation="34.1638" result="effect1_foregroundBlur_311_39361"/>
</filter>
<filter id="filter2_b_311_39361" x="351.217" y="259.021" width="188.5" height="188.5" filterUnits="userSpaceOnUse" color-interpolation-filters="sRGB">
<feFlood flood-opacity="0" result="BackgroundImageFix"/>
<feGaussianBlur in="BackgroundImageFix" stdDeviation="19.322"/>
<feComposite in2="SourceAlpha" operator="in" result="effect1_backgroundBlur_311_39361"/>
<feBlend mode="normal" in="SourceGraphic" in2="effect1_backgroundBlur_311_39361" result="shape"/>
</filter>
<filter id="filter3_b_311_39361" x="77.1775" y="134.177" width="181.228" height="181.228" filterUnits="userSpaceOnUse" color-interpolation-filters="sRGB">
<feFlood flood-opacity="0" result="BackgroundImageFix"/>
<feGaussianBlur in="BackgroundImageFix" stdDeviation="10.9112"/>
<feComposite in2="SourceAlpha" operator="in" result="effect1_backgroundBlur_311_39361"/>
<feBlend mode="normal" in="SourceGraphic" in2="effect1_backgroundBlur_311_39361" result="shape"/>
</filter>
<linearGradient id="paint0_linear_311_39361" x1="350.183" y1="107.562" x2="492.935" y2="511.25" gradientUnits="userSpaceOnUse">
<stop stop-color="white"/>
<stop offset="1" stop-color="white" stop-opacity="0"/>
</linearGradient>
<linearGradient id="paint1_linear_311_39361" x1="350.183" y1="107.562" x2="492.935" y2="511.25" gradientUnits="userSpaceOnUse">
<stop stop-color="white"/>
<stop offset="1" stop-color="white" stop-opacity="0"/>
</linearGradient>
<clipPath id="clip0_311_39361">
<rect width="40" height="40" fill="white" transform="translate(429.244 330.102) rotate(10)"/>
</clipPath>
<clipPath id="clip1_311_39361">
<rect width="48" height="48" fill="white" transform="translate(139.326 206.306) rotate(-12)"/>
</clipPath>
</defs>
</svg>
