<svg width="20" height="20" viewBox="0 0 20 20" fill="none" xmlns="http://www.w3.org/2000/svg">
<g clip-path="url(#clip0_517_17762)">
<path fill-rule="evenodd" clip-rule="evenodd" d="M3.05967 0.840404C3.17079 0.84891 3.32564 0.870556 3.49152 0.946362C3.7096 1.04603 3.89442 1.20632 4.02393 1.40812C4.12244 1.56161 4.16576 1.71185 4.1899 1.82065C4.21039 1.91304 4.22535 2.01805 4.2376 2.10404C4.23843 2.10983 4.23924 2.11553 4.24004 2.12113L4.53225 4.16659L17.5497 4.16659C17.6681 4.16655 17.8047 4.1665 17.9232 4.17683C18.0565 4.18845 18.2567 4.21862 18.4592 4.33664C18.7152 4.4858 18.9098 4.72102 19.0084 5.00035C19.0865 5.22134 19.0787 5.42368 19.0651 5.55679C19.0531 5.67512 19.0275 5.8093 19.0053 5.9256L17.8928 11.7661C17.8239 12.128 17.7638 12.4435 17.6941 12.7028C17.6198 12.979 17.5207 13.2481 17.3466 13.501C17.0835 13.8831 16.7194 14.1844 16.2949 14.3713C16.0139 14.495 15.731 14.542 15.4458 14.5633C15.178 14.5833 14.8569 14.5833 14.4884 14.5833H7.29892C6.91153 14.5833 6.5748 14.5833 6.2949 14.5618C5.99754 14.539 5.70238 14.4886 5.41154 14.355C4.9737 14.1538 4.60332 13.8304 4.34497 13.4237C4.17336 13.1535 4.08367 12.8678 4.02096 12.5763C3.96192 12.3018 3.91654 11.9682 3.86433 11.5843L2.98415 5.11502L2.61057 2.49993H1.66665C1.20641 2.49993 0.833313 2.12683 0.833313 1.66659C0.833313 1.20636 1.20641 0.833261 1.66665 0.833261H2.75512C2.76078 0.833261 2.76654 0.833259 2.77238 0.833257C2.85924 0.833223 2.96531 0.833181 3.05967 0.840404ZM4.76389 5.83326L5.51181 11.3304C5.56914 11.7519 5.6064 12.0214 5.65035 12.2258C5.69212 12.4199 5.72797 12.4925 5.75182 12.5301C5.83794 12.6656 5.9614 12.7734 6.10734 12.8405C6.14776 12.8591 6.22451 12.8848 6.42253 12.9C6.63094 12.916 6.90307 12.9166 7.3284 12.9166H14.46C14.8651 12.9166 15.1234 12.9161 15.3217 12.9012C15.5095 12.8872 15.5834 12.8635 15.6233 12.8459C15.7648 12.7836 15.8862 12.6832 15.9738 12.5559C15.9986 12.52 16.0357 12.4518 16.0846 12.2699C16.1363 12.0779 16.1851 11.8242 16.2609 11.4263L17.3263 5.83326H4.76389ZM5.83331 17.4999C5.83331 16.5795 6.5795 15.8333 7.49998 15.8333C8.42045 15.8333 9.16665 16.5795 9.16665 17.4999C9.16665 18.4204 8.42045 19.1666 7.49998 19.1666C6.5795 19.1666 5.83331 18.4204 5.83331 17.4999ZM12.5 17.4999C12.5 16.5795 13.2462 15.8333 14.1666 15.8333C15.0871 15.8333 15.8333 16.5795 15.8333 17.4999C15.8333 18.4204 15.0871 19.1666 14.1666 19.1666C13.2462 19.1666 12.5 18.4204 12.5 17.4999Z" fill="white"/>
</g>
<defs>
<clipPath id="clip0_517_17762">
<rect width="20" height="20" fill="white"/>
</clipPath>
</defs>
</svg>
