<svg width="496" height="425" viewBox="0 0 496 425" fill="none" xmlns="http://www.w3.org/2000/svg">
<g filter="url(#filter0_b_1990_38199)">
<g clip-path="url(#clip0_1990_38199)">
<rect x="113" y="145" width="335" height="335" rx="167.5" fill="url(#paint0_linear_1990_38199)" fill-opacity="0.28"/>
<path fill-rule="evenodd" clip-rule="evenodd" d="M212.849 225.964C215.719 212.459 228.995 203.838 242.5 206.708L356.617 230.965C370.123 233.835 378.744 247.111 375.873 260.616L351.617 374.733C348.746 388.239 335.471 396.86 321.965 393.989L312.181 391.909L293.405 404.103C289.545 406.609 284.384 405.512 281.877 401.653L265.99 377.191L241.529 393.076C237.669 395.583 232.508 394.486 230.001 390.626L217.808 371.85L207.848 369.733C194.343 366.862 185.722 353.587 188.592 340.081L212.849 225.964ZM230.363 360.582L239.441 374.56L251.918 366.457C247.624 362.783 244.33 358.069 242.35 352.798L230.363 360.582ZM241.054 333.766L214.297 351.143C213.323 351.775 212.502 352.598 211.875 353.55L211.313 353.43C206.812 352.474 203.938 348.048 204.895 343.547L229.151 229.429C230.108 224.928 234.533 222.054 239.035 223.011L353.152 247.267C357.654 248.224 360.528 252.649 359.571 257.151L335.314 371.268C334.358 375.77 329.932 378.644 325.431 377.687L325.044 377.605C324.859 376.48 324.443 375.395 323.811 374.42L306.294 347.448C309.751 329.645 298.311 312.286 280.5 308.5C262.629 304.701 245.061 315.994 241.054 333.766ZM256.973 339.565C256.975 339.548 256.976 339.53 256.978 339.513C257.038 338.891 257.134 338.266 257.267 337.64C259.181 328.636 268.031 322.889 277.035 324.802C286.039 326.716 291.786 335.567 289.872 344.57C287.975 353.498 279.256 359.224 270.331 357.454C270.288 357.444 270.244 357.435 270.201 357.426L270.069 357.4C261.729 355.609 256.193 347.861 256.973 339.565ZM283.164 373.034C288.573 371.404 293.487 368.419 297.425 364.392L305.294 376.509L291.316 385.586L283.164 373.034ZM258.291 252.662C259.248 248.16 263.673 245.287 268.175 246.244L317.082 256.639C321.584 257.596 324.458 262.021 323.501 266.523C322.544 271.025 318.119 273.899 313.617 272.942L264.709 262.546C260.208 261.589 257.334 257.164 258.291 252.662ZM235.924 277.726C236.881 273.225 241.306 270.351 245.808 271.308L327.32 288.634C331.822 289.591 334.696 294.016 333.739 298.518C332.782 303.019 328.357 305.893 323.855 304.936L242.343 287.61C237.841 286.653 234.967 282.228 235.924 277.726Z" fill="white"/>
<g opacity="0.4" filter="url(#filter1_f_1990_38199)">
<path d="M115.819 252.894C90.514 230.109 88.4708 191.125 111.256 165.819C134.041 140.514 173.026 138.471 198.331 161.256C223.636 184.041 225.679 223.026 202.894 248.331C180.109 273.636 141.125 275.679 115.819 252.894Z" fill="#285BF3"/>
</g>
</g>
<rect x="113.5" y="145.5" width="334" height="334" rx="167" stroke="white" stroke-opacity="0.16"/>
</g>
<g filter="url(#filter2_b_1990_38199)">
<rect x="85" y="148.474" width="104" height="104" rx="52" transform="rotate(-8 85 148.474)" fill="#285BF3"/>
<g clip-path="url(#clip1_1990_38199)">
<path fill-rule="evenodd" clip-rule="evenodd" d="M140.675 172.964C140.765 172.951 140.855 172.939 140.947 172.926C141.04 172.913 141.13 172.9 141.22 172.887C142.795 172.665 143.965 172.5 145.016 172.629C147.853 172.977 150.289 174.813 151.405 177.444C151.654 178.03 151.813 178.686 151.947 179.458L155.605 178.944C156.649 178.797 157.55 178.671 158.3 178.627C159.092 178.581 159.891 178.613 160.694 178.889C161.892 179.302 162.928 180.083 163.655 181.121C164.142 181.817 164.393 182.576 164.567 183.35C164.732 184.083 164.858 184.984 165.005 186.028L167.142 201.233C167.289 202.277 167.415 203.177 167.459 203.928C167.505 204.72 167.473 205.518 167.197 206.321C166.784 207.519 166.003 208.556 164.965 209.283C164.269 209.77 163.51 210.021 162.736 210.195C162.003 210.36 161.102 210.486 160.058 210.633L132.97 214.44C131.926 214.587 131.026 214.713 130.275 214.757C129.483 214.803 128.685 214.771 127.882 214.495C126.684 214.082 125.647 213.301 124.92 212.263C124.433 211.567 124.182 210.808 124.008 210.034C123.843 209.301 123.717 208.4 123.57 207.356L121.433 192.151C121.287 191.107 121.16 190.207 121.116 189.456C121.07 188.664 121.102 187.866 121.379 187.063C121.791 185.865 122.572 184.828 123.61 184.101C124.306 183.614 125.065 183.363 125.839 183.189C126.572 183.024 127.473 182.898 128.517 182.751L132.174 182.237C132.091 181.458 132.062 180.783 132.14 180.151C132.488 177.314 134.324 174.879 136.954 173.762C137.93 173.348 139.1 173.184 140.675 172.964ZM129.15 186.702C128.008 186.862 127.271 186.967 126.716 187.092C126.184 187.211 125.995 187.314 125.904 187.378C125.558 187.62 125.298 187.966 125.161 188.365C125.124 188.47 125.078 188.68 125.11 189.224C125.143 189.792 125.245 190.529 125.405 191.671L127.521 206.723C127.681 207.865 127.786 208.602 127.911 209.157C128.03 209.689 128.133 209.878 128.197 209.969C128.439 210.315 128.785 210.575 129.184 210.712C129.289 210.749 129.499 210.795 130.043 210.764C130.611 210.731 131.348 210.628 132.49 210.468L159.425 206.682C160.567 206.522 161.304 206.417 161.859 206.292C162.391 206.173 162.58 206.07 162.671 206.006C163.017 205.764 163.277 205.418 163.415 205.019C163.451 204.914 163.497 204.704 163.466 204.16C163.433 203.592 163.331 202.855 163.17 201.713L161.055 186.661C160.894 185.519 160.789 184.782 160.664 184.227C160.545 183.695 160.442 183.506 160.379 183.415C160.136 183.069 159.791 182.809 159.391 182.672C159.286 182.635 159.076 182.589 158.532 182.62C157.965 182.653 157.227 182.756 156.085 182.916L129.15 186.702ZM147.983 180.015L136.139 181.68C136.085 181.167 136.08 180.883 136.11 180.639C136.284 179.22 137.202 178.002 138.517 177.444C138.941 177.264 139.535 177.163 141.504 176.887C143.474 176.61 144.072 176.543 144.529 176.599C145.947 176.773 147.165 177.691 147.723 179.006C147.82 179.233 147.893 179.508 147.983 180.015Z" fill="white"/>
</g>
<rect x="86.1294" y="149.325" width="102" height="102" rx="51" transform="rotate(-8 86.1294 149.325)" stroke="white" stroke-opacity="0.08" stroke-width="2"/>
</g>
<defs>
<filter id="filter0_b_1990_38199" x="97.8607" y="129.86" width="365.279" height="365.279" filterUnits="userSpaceOnUse" color-interpolation-filters="sRGB">
<feFlood flood-opacity="0" result="BackgroundImageFix"/>
<feGaussianBlur in="BackgroundImageFix" stdDeviation="7.56977"/>
<feComposite in2="SourceAlpha" operator="in" result="effect1_backgroundBlur_1990_38199"/>
<feBlend mode="normal" in="SourceGraphic" in2="effect1_backgroundBlur_1990_38199" result="shape"/>
</filter>
<filter id="filter1_f_1990_38199" x="27.0912" y="77.0912" width="259.968" height="259.968" filterUnits="userSpaceOnUse" color-interpolation-filters="sRGB">
<feFlood flood-opacity="0" result="BackgroundImageFix"/>
<feBlend mode="normal" in="SourceGraphic" in2="BackgroundImageFix" result="shape"/>
<feGaussianBlur stdDeviation="34.1638" result="effect1_foregroundBlur_1990_38199"/>
</filter>
<filter id="filter2_b_1990_38199" x="63.1775" y="112.178" width="161.107" height="161.107" filterUnits="userSpaceOnUse" color-interpolation-filters="sRGB">
<feFlood flood-opacity="0" result="BackgroundImageFix"/>
<feGaussianBlur in="BackgroundImageFix" stdDeviation="10.9112"/>
<feComposite in2="SourceAlpha" operator="in" result="effect1_backgroundBlur_1990_38199"/>
<feBlend mode="normal" in="SourceGraphic" in2="effect1_backgroundBlur_1990_38199" result="shape"/>
</filter>
<linearGradient id="paint0_linear_1990_38199" x1="280.5" y1="145" x2="496.552" y2="527.325" gradientUnits="userSpaceOnUse">
<stop stop-color="white"/>
<stop offset="1" stop-color="white" stop-opacity="0"/>
</linearGradient>
<clipPath id="clip0_1990_38199">
<rect x="113" y="145" width="335" height="335" rx="167.5" fill="white"/>
</clipPath>
<clipPath id="clip1_1990_38199">
<rect width="48" height="48" fill="white" transform="translate(116.624 172.305) rotate(-8)"/>
</clipPath>
</defs>
</svg>
