<svg width="584" height="476" viewBox="0 0 584 476" fill="none" xmlns="http://www.w3.org/2000/svg">
<g filter="url(#filter0_b_2092_14609)">
<g clip-path="url(#clip0_2092_14609)">
<rect x="155.877" y="40" width="318.358" height="318.358" rx="159.179" transform="rotate(8.64934 155.877 40)" fill="url(#paint0_linear_2092_14609)" fill-opacity="0.26"/>
<g clip-path="url(#clip1_2092_14609)">
<path fill-rule="evenodd" clip-rule="evenodd" d="M329.818 169.897C327.027 169.237 323.372 168.676 317.994 167.858L301.043 165.279C297.575 164.752 295.192 161.513 295.719 158.046C296.247 154.578 299.485 152.195 302.953 152.722L320.164 155.34C325.217 156.109 329.389 156.743 332.744 157.538C336.229 158.363 339.379 159.475 342.19 161.492C346.549 164.618 349.807 169.044 351.496 174.136C352.585 177.419 352.71 180.757 352.462 184.33C352.222 187.77 351.588 191.941 350.819 196.995L340.808 262.809C340.039 267.863 339.404 272.034 338.61 275.389C337.785 278.875 336.673 282.024 334.656 284.835C331.53 289.194 327.104 292.452 322.012 294.141C318.729 295.23 315.391 295.355 311.818 295.107C308.378 294.868 304.207 294.233 299.153 293.464L258.452 287.273C253.399 286.504 249.228 285.87 245.872 285.075C242.387 284.25 239.237 283.138 236.426 281.122C232.067 277.995 228.809 273.569 227.121 268.477C226.031 265.194 225.906 261.856 226.155 258.283C226.394 254.843 227.028 250.672 227.797 245.618L228.505 240.964C229.033 237.496 232.271 235.113 235.739 235.641C239.206 236.168 241.589 239.406 241.062 242.874L240.393 247.269C239.575 252.647 239.024 256.303 238.825 259.164C238.631 261.951 238.825 263.421 239.176 264.479C240.02 267.024 241.649 269.238 243.829 270.801C244.734 271.451 246.08 272.072 248.798 272.716C251.589 273.377 255.244 273.938 260.622 274.756L300.803 280.868C306.181 281.686 309.838 282.237 312.699 282.436C315.486 282.63 316.955 282.437 318.013 282.086C320.559 281.241 322.772 279.612 324.336 277.433C324.985 276.527 325.607 275.181 326.251 272.463C326.911 269.672 327.472 266.017 328.29 260.639L338.223 195.345C339.041 189.967 339.592 186.31 339.791 183.449C339.985 180.662 339.791 179.193 339.44 178.135C338.596 175.589 336.967 173.376 334.788 171.812C333.882 171.163 332.536 170.541 329.818 169.897ZM268.696 166.782C266.962 166.518 265.343 167.71 265.079 169.444L259.826 203.975C259.299 207.442 256.06 209.825 252.593 209.298C249.126 208.771 246.742 205.532 247.27 202.065L252.522 167.534C253.841 158.865 261.937 152.907 270.606 154.225C279.275 155.544 285.233 163.64 283.914 172.309L278.661 206.84C276.552 220.71 263.598 230.243 249.728 228.133C235.858 226.023 226.325 213.069 228.435 199.2L232.255 174.086C232.782 170.619 236.021 168.235 239.488 168.763C242.956 169.29 245.339 172.529 244.812 175.996L240.991 201.11C239.936 208.044 244.703 214.521 251.638 215.576C258.573 216.631 265.05 211.865 266.105 204.93L271.358 170.399C271.621 168.665 270.43 167.046 268.696 166.782ZM289.034 201.994C289.562 198.527 292.8 196.143 296.267 196.671L318.242 200.013C321.709 200.541 324.092 203.779 323.565 207.247C323.038 210.714 319.799 213.098 316.332 212.57L294.357 209.227C290.89 208.7 288.507 205.462 289.034 201.994ZM278.936 226.152C279.463 222.685 282.701 220.302 286.169 220.829L314.422 225.127C317.889 225.654 320.272 228.893 319.745 232.36C319.217 235.828 315.979 238.211 312.511 237.684L284.259 233.386C280.791 232.858 278.408 229.62 278.936 226.152ZM253.141 247.923C253.669 244.456 256.907 242.072 260.375 242.6L310.601 250.24C314.069 250.768 316.452 254.006 315.925 257.474C315.397 260.941 312.159 263.324 308.691 262.797L258.464 255.157C254.997 254.629 252.614 251.391 253.141 247.923Z" fill="white"/>
</g>
<g filter="url(#filter1_f_2092_14609)">
<rect x="386.716" y="240.802" width="110.385" height="110.385" transform="rotate(19.7696 386.716 240.802)" fill="#285BF3"/>
</g>
</g>
<rect x="156.246" y="40.5012" width="317.478" height="317.478" rx="158.739" transform="rotate(8.64934 156.246 40.5012)" stroke="white" stroke-opacity="0.16" stroke-width="0.880004"/>
</g>
<g filter="url(#filter2_b_2092_14609)">
<rect x="405.881" y="251.093" width="72.1853" height="72.1853" rx="36.0927" transform="rotate(10 405.881 251.093)" fill="#285BF3"/>
<g clip-path="url(#clip2_2092_14609)">
<path fill-rule="evenodd" clip-rule="evenodd" d="M426.954 288.913C428.037 282.77 433.923 278.688 440.086 279.775C446.248 280.862 450.383 286.711 449.299 292.853C449.055 294.237 448.566 295.52 447.882 296.663C447.816 296.774 447.778 296.838 447.751 296.886C447.747 296.892 447.744 296.898 447.742 296.902C447.741 296.904 447.741 296.906 447.741 296.908C447.738 296.949 447.735 297.006 447.729 297.114L447.513 301.273C447.503 301.464 447.491 301.682 447.465 301.869C447.436 302.075 447.371 302.392 447.159 302.699C446.894 303.083 446.497 303.355 446.043 303.462C445.68 303.548 445.361 303.493 445.158 303.445C444.974 303.402 444.767 303.333 444.585 303.272C444.574 303.269 444.563 303.265 444.552 303.261L440.722 301.992C440.616 301.957 440.56 301.938 440.519 301.926C440.517 301.925 440.515 301.925 440.513 301.924C440.508 301.925 440.502 301.926 440.495 301.927C440.439 301.936 440.363 301.95 440.232 301.975C438.924 302.218 437.552 302.234 436.168 301.99C435.947 301.951 435.728 301.906 435.511 301.855C433.824 304.546 430.667 306.11 427.373 305.53C426.475 305.371 425.637 305.065 424.881 304.638C424.756 304.567 424.678 304.523 424.621 304.493C424.611 304.487 424.602 304.483 424.596 304.479C424.593 304.479 424.591 304.479 424.589 304.479C424.546 304.476 424.486 304.473 424.377 304.469L420.592 304.322C420.182 304.306 419.806 304.091 419.585 303.746C419.364 303.401 419.326 302.969 419.482 302.591L420.838 299.315C420.885 299.202 420.91 299.14 420.928 299.095C420.929 299.092 420.93 299.09 420.93 299.088C420.93 299.079 420.928 299.069 420.927 299.057C420.918 298.986 420.905 298.889 420.882 298.732C420.762 297.886 420.772 297.007 420.928 296.122C421.499 292.881 423.888 290.397 426.852 289.62C426.879 289.385 426.913 289.149 426.954 288.913ZM429.416 289.387C429.677 289.406 429.939 289.439 430.202 289.485C434.571 290.256 437.424 294.491 436.648 298.893C436.611 299.101 436.567 299.305 436.516 299.506C436.545 299.511 436.574 299.517 436.604 299.522C437.688 299.713 438.757 299.699 439.774 299.51C439.792 299.507 439.811 299.503 439.83 299.5C440.016 299.465 440.236 299.424 440.431 299.417C440.609 299.412 440.758 299.422 440.934 299.452C441.125 299.484 441.315 299.548 441.468 299.599C441.483 299.603 441.497 299.608 441.511 299.613L445.028 300.779L445.226 296.984C445.227 296.969 445.228 296.955 445.228 296.94C445.236 296.784 445.246 296.591 445.283 296.407C445.317 296.238 445.359 296.1 445.425 295.941C445.497 295.767 445.608 295.582 445.702 295.425C445.712 295.408 445.722 295.393 445.731 295.377C446.261 294.492 446.641 293.496 446.831 292.417C447.671 287.654 444.465 283.092 439.65 282.243C434.835 281.394 430.263 284.584 429.423 289.348C429.42 289.361 429.418 289.374 429.416 289.387ZM433.761 299.827C433.951 299.4 434.094 298.942 434.179 298.458C434.725 295.363 432.717 292.474 429.767 291.954C426.817 291.434 423.942 293.461 423.396 296.557C423.287 297.179 423.28 297.792 423.364 298.379C423.367 298.402 423.371 298.426 423.374 298.45C423.406 298.673 423.443 298.927 423.439 299.133C423.435 299.328 423.417 299.474 423.372 299.663C423.324 299.864 423.241 300.064 423.173 300.227C423.167 300.243 423.16 300.259 423.154 300.274L422.486 301.887L424.474 301.965C424.489 301.965 424.504 301.966 424.519 301.966C424.676 301.972 424.869 301.979 425.049 302.012C425.22 302.044 425.345 302.079 425.507 302.142C425.679 302.209 425.879 302.322 426.056 302.423C426.075 302.434 426.094 302.444 426.113 302.455C426.626 302.744 427.195 302.953 427.808 303.061C430.276 303.496 432.692 302.148 433.735 299.883C433.743 299.864 433.752 299.845 433.761 299.827Z" fill="white"/>
</g>
<rect x="406.491" y="251.964" width="70.6815" height="70.6815" rx="35.3407" transform="rotate(10 406.491 251.964)" stroke="white" stroke-opacity="0.08" stroke-width="1.50386"/>
</g>
<defs>
<filter id="filter0_b_2092_14609" x="93.8374" y="25.8374" width="390.939" height="390.939" filterUnits="userSpaceOnUse" color-interpolation-filters="sRGB">
<feFlood flood-opacity="0" result="BackgroundImageFix"/>
<feGaussianBlur in="BackgroundImageFix" stdDeviation="7.08128"/>
<feComposite in2="SourceAlpha" operator="in" result="effect1_backgroundBlur_2092_14609"/>
<feBlend mode="normal" in="SourceGraphic" in2="effect1_backgroundBlur_2092_14609" result="shape"/>
</filter>
<filter id="filter1_f_2092_14609" x="184.738" y="76.16" width="470.5" height="470.5" filterUnits="userSpaceOnUse" color-interpolation-filters="sRGB">
<feFlood flood-opacity="0" result="BackgroundImageFix"/>
<feBlend mode="normal" in="SourceGraphic" in2="BackgroundImageFix" result="shape"/>
<feGaussianBlur stdDeviation="82.3211" result="effect1_foregroundBlur_2092_14609"/>
</filter>
<filter id="filter2_b_2092_14609" x="364.289" y="222.035" width="141.739" height="141.739" filterUnits="userSpaceOnUse" color-interpolation-filters="sRGB">
<feFlood flood-opacity="0" result="BackgroundImageFix"/>
<feGaussianBlur in="BackgroundImageFix" stdDeviation="14.5288"/>
<feComposite in2="SourceAlpha" operator="in" result="effect1_backgroundBlur_2092_14609"/>
<feBlend mode="normal" in="SourceGraphic" in2="effect1_backgroundBlur_2092_14609" result="shape"/>
</filter>
<linearGradient id="paint0_linear_2092_14609" x1="315.056" y1="40" x2="520.374" y2="403.332" gradientUnits="userSpaceOnUse">
<stop stop-color="white"/>
<stop offset="1" stop-color="white" stop-opacity="0"/>
</linearGradient>
<clipPath id="clip0_2092_14609">
<rect x="155.877" y="40" width="318.358" height="318.358" rx="159.179" transform="rotate(8.64934 155.877 40)" fill="white"/>
</clipPath>
<clipPath id="clip1_2092_14609">
<rect width="152.414" height="152.414" fill="white" transform="translate(225.428 134.506) rotate(8.64934)"/>
</clipPath>
<clipPath id="clip2_2092_14609">
<rect width="30.0772" height="30.0772" fill="white" transform="translate(422.96 275.483) rotate(10)"/>
</clipPath>
</defs>
</svg>
