<svg width="32" height="32" viewBox="0 0 32 32" fill="none" xmlns="http://www.w3.org/2000/svg">
<path fill-rule="evenodd" clip-rule="evenodd" d="M16 3.99998C9.37262 3.99998 4.00004 9.37256 4.00004 16C4.00004 22.6274 9.37262 28 16 28C22.6275 28 28 22.6274 28 16C28 9.37256 22.6275 3.99998 16 3.99998ZM1.33337 16C1.33337 7.8998 7.89986 1.33331 16 1.33331C24.1002 1.33331 30.6667 7.8998 30.6667 16C30.6667 24.1002 24.1002 30.6666 16 30.6666C7.89986 30.6666 1.33337 24.1002 1.33337 16ZM19.5452 12.4548L14.2275 14.2274L12.4549 19.5451L17.7726 17.7726L19.5452 12.4548ZM20.0844 9.48867C20.3279 9.43145 20.7835 9.34306 21.271 9.51693C21.8365 9.71857 22.2815 10.1635 22.4831 10.729C22.657 11.2166 22.5686 11.6721 22.5114 11.9156C22.4525 12.166 22.3541 12.4612 22.2584 12.748C22.2535 12.7627 22.2486 12.7774 22.2437 12.7921L20.2603 18.7423C20.2568 18.7528 20.2528 18.765 20.2484 18.7787C20.2053 18.9115 20.1162 19.1864 19.9504 19.4288C19.8104 19.6335 19.6335 19.8103 19.4288 19.9503C19.1865 20.1161 18.9116 20.2053 18.7787 20.2483C18.765 20.2528 18.7529 20.2567 18.7424 20.2602L12.748 22.2583C12.4612 22.354 12.1661 22.4525 11.9157 22.5113C11.6722 22.5685 11.2166 22.6569 10.729 22.483C10.1636 22.2814 9.71863 21.8364 9.51699 21.271C9.34312 20.7834 9.43151 20.3278 9.48873 20.0843C9.54757 19.8339 9.64602 19.5388 9.74168 19.252C9.7466 19.2372 9.75152 19.2225 9.75642 19.2078L11.7398 13.2576C11.7433 13.2472 11.7472 13.235 11.7517 13.2213C11.7948 13.0885 11.8839 12.8135 12.0497 12.5712C12.1897 12.3665 12.3666 12.1896 12.5712 12.0496C12.8136 11.8838 13.0885 11.7947 13.2214 11.7516C13.235 11.7472 13.2472 11.7432 13.2577 11.7397L19.2079 9.75636C19.2226 9.75146 19.2373 9.74655 19.252 9.74164C19.5388 9.64597 19.834 9.54751 20.0844 9.48867Z" fill="#285BF3"/>
</svg>
