<svg width="32" height="32" viewBox="0 0 32 32" fill="none" xmlns="http://www.w3.org/2000/svg">
<path fill-rule="evenodd" clip-rule="evenodd" d="M16 4.00004C9.37262 4.00004 4.00004 9.37262 4.00004 16C4.00004 22.6275 9.37262 28 16 28C22.6275 28 28 22.6275 28 16C28 9.37262 22.6275 4.00004 16 4.00004ZM1.33337 16C1.33337 7.89986 7.89986 1.33337 16 1.33337C24.1002 1.33337 30.6667 7.89986 30.6667 16C30.6667 24.1002 24.1002 30.6667 16 30.6667C7.89986 30.6667 1.33337 24.1002 1.33337 16ZM19.5452 12.4549L14.2275 14.2275L12.4549 19.5452L17.7726 17.7726L19.5452 12.4549ZM20.0844 9.48873C20.3279 9.43151 20.7835 9.34312 21.271 9.51699C21.8365 9.71863 22.2815 10.1636 22.4831 10.729C22.657 11.2166 22.5686 11.6722 22.5114 11.9157C22.4525 12.1661 22.3541 12.4612 22.2584 12.748C22.2535 12.7628 22.2486 12.7775 22.2437 12.7922L20.2603 18.7424C20.2568 18.7529 20.2528 18.765 20.2484 18.7787C20.2053 18.9116 20.1162 19.1865 19.9504 19.4288C19.8104 19.6335 19.6335 19.8104 19.4288 19.9504C19.1865 20.1162 18.9116 20.2053 18.7787 20.2484C18.765 20.2528 18.7529 20.2568 18.7424 20.2603L12.748 22.2584C12.4612 22.3541 12.1661 22.4525 11.9157 22.5114C11.6722 22.5686 11.2166 22.657 10.729 22.4831C10.1636 22.2815 9.71863 21.8365 9.51699 21.271C9.34312 20.7835 9.43151 20.3279 9.48873 20.0844C9.54757 19.834 9.64602 19.5388 9.74168 19.2521C9.7466 19.2373 9.75152 19.2226 9.75642 19.2079L11.7398 13.2577C11.7433 13.2472 11.7472 13.235 11.7517 13.2214C11.7948 13.0885 11.8839 12.8136 12.0497 12.5712C12.1897 12.3666 12.3666 12.1897 12.5712 12.0497C12.8136 11.8839 13.0885 11.7948 13.2214 11.7517C13.235 11.7472 13.2472 11.7433 13.2577 11.7398L19.2079 9.75642C19.2226 9.75152 19.2373 9.74661 19.252 9.7417C19.5388 9.64603 19.834 9.54757 20.0844 9.48873Z" fill="#285BF3"/>
</svg>
