<svg width="584" height="476" viewBox="0 0 584 476" fill="none" xmlns="http://www.w3.org/2000/svg">
<g filter="url(#filter0_b_2092_14997)">
<g clip-path="url(#clip0_2092_14997)">
<rect x="155.877" y="40" width="318.358" height="318.358" rx="159.179" transform="rotate(8.64934 155.877 40)" fill="url(#paint0_linear_2092_14997)" fill-opacity="0.26"/>
<g clip-path="url(#clip1_2092_14997)">
<path fill-rule="evenodd" clip-rule="evenodd" d="M297.934 152.528C299.151 152.537 300.36 152.721 301.525 153.074C302.868 153.481 304.072 154.158 305.027 154.696C305.115 154.745 305.2 154.793 305.284 154.839L337.027 172.584C337.286 172.729 337.544 172.873 337.8 173.015C341.459 175.053 344.671 176.843 346.943 179.554C348.93 181.926 350.31 184.745 350.963 187.77C351.709 191.227 351.151 194.862 350.515 199.001C350.471 199.291 350.426 199.582 350.381 199.877L345.814 229.902C343.114 247.649 331.212 260.976 319.125 270.258C306.958 279.603 293.765 285.503 286.847 288.243C286.756 288.28 286.662 288.317 286.567 288.355C285.304 288.86 283.664 289.514 281.608 289.639C279.926 289.74 277.918 289.435 276.342 288.838C274.416 288.108 273.045 286.995 271.989 286.138C271.909 286.073 271.831 286.009 271.755 285.948C265.965 281.274 255.123 271.718 246.285 259.178C237.505 246.722 230.104 230.458 232.803 212.712L237.371 182.686C237.415 182.392 237.459 182.1 237.503 181.81C238.127 177.669 238.675 174.032 240.415 170.954C241.938 168.26 244.094 165.978 246.696 164.305C249.671 162.392 253.271 161.639 257.37 160.781C257.656 160.721 257.945 160.66 258.237 160.599L293.82 153.096C293.914 153.076 294.009 153.056 294.108 153.035C295.18 152.806 296.531 152.518 297.934 152.528ZM297.817 165.246C297.548 165.291 297.18 165.368 296.441 165.524L260.857 173.027C255.381 174.181 254.31 174.509 253.565 174.988C252.698 175.546 251.979 176.307 251.472 177.205C251.036 177.976 250.769 179.063 249.927 184.596L245.36 214.622C243.372 227.692 248.729 240.6 256.666 251.861C264.544 263.037 274.378 271.742 279.732 276.064C280.06 276.328 280.296 276.519 280.502 276.68C280.663 276.806 280.771 276.887 280.846 276.94C280.933 276.911 281.06 276.867 281.252 276.794C281.496 276.701 281.778 276.59 282.169 276.435C288.567 273.901 300.544 268.514 311.389 260.185C322.315 251.794 331.269 241.063 333.257 227.992L337.824 197.967C338.666 192.433 338.735 191.316 338.548 190.45C338.33 189.442 337.87 188.502 337.208 187.712C336.639 187.033 335.715 186.402 330.829 183.67L299.086 165.926C298.427 165.557 298.098 165.375 297.855 165.252C297.848 165.249 297.842 165.246 297.837 165.243C297.83 165.244 297.824 165.245 297.817 165.246ZM319.263 202.05C321.341 204.875 320.737 208.851 317.912 210.929L285.362 234.884C282.537 236.963 278.562 236.358 276.483 233.534L265.836 219.067C263.757 216.242 264.362 212.267 267.187 210.188C270.012 208.109 273.987 208.714 276.066 211.539L282.948 220.891L310.384 200.7C313.208 198.621 317.184 199.226 319.263 202.05Z" fill="white"/>
</g>
<g filter="url(#filter1_f_2092_14997)">
<rect x="386.716" y="240.802" width="110.385" height="110.385" transform="rotate(19.7696 386.716 240.802)" fill="#285BF3"/>
</g>
</g>
<rect x="156.246" y="40.5012" width="317.478" height="317.478" rx="158.739" transform="rotate(8.64934 156.246 40.5012)" stroke="white" stroke-opacity="0.16" stroke-width="0.880004"/>
</g>
<g filter="url(#filter2_b_2092_14997)">
<rect x="405.881" y="251.093" width="72.1853" height="72.1853" rx="36.0927" transform="rotate(10 405.881 251.093)" fill="#285BF3"/>
<g clip-path="url(#clip2_2092_14997)">
<path fill-rule="evenodd" clip-rule="evenodd" d="M433.552 278.623L440.02 279.764C440.348 279.821 440.639 280.007 440.829 280.279L446.929 288.99C447.119 289.262 447.194 289.599 447.136 289.926L445.125 301.332C444.95 302.325 444.806 303.145 444.633 303.803C444.454 304.487 444.22 305.103 443.809 305.649C443.172 306.494 442.284 307.116 441.271 307.426C440.619 307.625 439.959 307.634 439.256 307.569C438.578 307.506 437.758 307.361 436.765 307.186L428.764 305.775C427.771 305.6 426.951 305.455 426.292 305.283C425.609 305.104 424.992 304.87 424.447 304.459C423.602 303.822 422.98 302.934 422.67 301.921C422.471 301.268 422.461 300.609 422.527 299.906C422.59 299.228 422.735 298.408 422.91 297.415L425.191 284.477C425.366 283.484 425.511 282.664 425.683 282.005C425.862 281.322 426.096 280.705 426.507 280.16C427.144 279.315 428.033 278.693 429.045 278.383C429.698 278.184 430.357 278.174 431.061 278.24C431.738 278.303 432.558 278.448 433.552 278.623ZM430.828 280.736C430.279 280.684 429.988 280.716 429.778 280.78C429.272 280.935 428.828 281.246 428.509 281.669C428.377 281.844 428.248 282.107 428.108 282.64C427.965 283.188 427.837 283.906 427.651 284.963L425.387 297.799C425.201 298.856 425.075 299.575 425.023 300.138C424.971 300.687 425.003 300.978 425.067 301.188C425.222 301.695 425.533 302.139 425.956 302.457C426.131 302.59 426.394 302.719 426.927 302.858C427.475 303.002 428.193 303.129 429.25 303.316L437.149 304.708C438.206 304.895 438.925 305.021 439.489 305.073C440.037 305.124 440.328 305.093 440.539 305.029C441.045 304.874 441.489 304.563 441.808 304.14C441.94 303.964 442.069 303.702 442.208 303.169C442.352 302.621 442.479 301.903 442.666 300.845L444.45 290.725L440.215 289.978C439.903 289.924 439.6 289.87 439.347 289.804C439.069 289.731 438.745 289.618 438.44 289.388C438.018 289.07 437.707 288.625 437.552 288.119C437.44 287.754 437.445 287.412 437.471 287.126C437.496 286.865 437.549 286.562 437.604 286.25L438.351 282.014L433.167 281.1C432.11 280.914 431.391 280.788 430.828 280.736ZM440.512 284.195L443.14 287.949L440.689 287.517C440.323 287.453 440.123 287.416 439.982 287.379C439.976 287.378 439.971 287.376 439.965 287.375C439.966 287.37 439.966 287.364 439.967 287.358C439.981 287.212 440.015 287.012 440.079 286.646L440.512 284.195ZM435.158 292.904C433.454 292.604 431.829 293.742 431.529 295.446C431.228 297.15 432.366 298.775 434.07 299.075C435.774 299.376 437.399 298.238 437.7 296.534C438 294.83 436.862 293.205 435.158 292.904ZM429.06 295.011C429.601 291.943 432.526 289.895 435.593 290.436C438.661 290.977 440.709 293.902 440.168 296.969C439.976 298.056 439.485 299.015 438.795 299.776L439.707 301.078C440.104 301.645 439.966 302.427 439.399 302.824C438.832 303.221 438.051 303.083 437.654 302.516L436.742 301.213C435.791 301.602 434.722 301.735 433.635 301.544C430.568 301.003 428.52 298.078 429.06 295.011Z" fill="white"/>
</g>
<rect x="406.491" y="251.964" width="70.6815" height="70.6815" rx="35.3407" transform="rotate(10 406.491 251.964)" stroke="white" stroke-opacity="0.08" stroke-width="1.50386"/>
</g>
<defs>
<filter id="filter0_b_2092_14997" x="93.8374" y="25.8374" width="390.939" height="390.939" filterUnits="userSpaceOnUse" color-interpolation-filters="sRGB">
<feFlood flood-opacity="0" result="BackgroundImageFix"/>
<feGaussianBlur in="BackgroundImageFix" stdDeviation="7.08128"/>
<feComposite in2="SourceAlpha" operator="in" result="effect1_backgroundBlur_2092_14997"/>
<feBlend mode="normal" in="SourceGraphic" in2="effect1_backgroundBlur_2092_14997" result="shape"/>
</filter>
<filter id="filter1_f_2092_14997" x="184.738" y="76.1602" width="470.5" height="470.5" filterUnits="userSpaceOnUse" color-interpolation-filters="sRGB">
<feFlood flood-opacity="0" result="BackgroundImageFix"/>
<feBlend mode="normal" in="SourceGraphic" in2="BackgroundImageFix" result="shape"/>
<feGaussianBlur stdDeviation="82.3211" result="effect1_foregroundBlur_2092_14997"/>
</filter>
<filter id="filter2_b_2092_14997" x="364.289" y="222.035" width="141.739" height="141.739" filterUnits="userSpaceOnUse" color-interpolation-filters="sRGB">
<feFlood flood-opacity="0" result="BackgroundImageFix"/>
<feGaussianBlur in="BackgroundImageFix" stdDeviation="14.5288"/>
<feComposite in2="SourceAlpha" operator="in" result="effect1_backgroundBlur_2092_14997"/>
<feBlend mode="normal" in="SourceGraphic" in2="effect1_backgroundBlur_2092_14997" result="shape"/>
</filter>
<linearGradient id="paint0_linear_2092_14997" x1="315.056" y1="40" x2="520.374" y2="403.332" gradientUnits="userSpaceOnUse">
<stop stop-color="white"/>
<stop offset="1" stop-color="white" stop-opacity="0"/>
</linearGradient>
<clipPath id="clip0_2092_14997">
<rect x="155.877" y="40" width="318.358" height="318.358" rx="159.179" transform="rotate(8.64934 155.877 40)" fill="white"/>
</clipPath>
<clipPath id="clip1_2092_14997">
<rect width="152.414" height="152.414" fill="white" transform="translate(225.428 134.507) rotate(8.64934)"/>
</clipPath>
<clipPath id="clip2_2092_14997">
<rect width="30.0772" height="30.0772" fill="white" transform="translate(422.96 275.483) rotate(10)"/>
</clipPath>
</defs>
</svg>
