<svg width="25" height="24" viewBox="0 0 25 24" fill="none" xmlns="http://www.w3.org/2000/svg">
<path fill-rule="evenodd" clip-rule="evenodd" d="M9.01522 2.5737C9.25732 3.07009 9.05119 3.66876 8.55479 3.91086C6.84653 4.74404 5.44589 6.09662 4.55361 7.77476C3.66132 9.45291 3.32321 11.3705 3.58772 13.2526C3.66459 13.7995 3.28354 14.3051 2.73663 14.382C2.18972 14.4589 1.68405 14.0778 1.60719 13.5309C1.28389 11.2305 1.69714 8.88688 2.78771 6.83582C3.87828 4.78476 5.59018 3.1316 7.67805 2.11327C8.17444 1.87117 8.77311 2.07731 9.01522 2.5737ZM15.985 2.57379C16.2271 2.0774 16.8257 1.87126 17.3221 2.11337C19.41 3.13169 21.1219 4.78485 22.2125 6.83592C23.303 8.88698 23.7163 11.2306 23.393 13.531C23.3161 14.0779 22.8105 14.459 22.2635 14.3821C21.7166 14.3052 21.3356 13.7996 21.4125 13.2527C21.677 11.3705 21.3389 9.453 20.4466 7.77486C19.5543 6.09672 18.1536 4.74413 16.4454 3.91096C15.949 3.66885 15.7428 3.07018 15.985 2.57379ZM12.5 7.50011C10.0148 7.50011 8.00004 9.51483 8.00004 12.0001C8.00004 14.4854 10.0148 16.5001 12.5 16.5001C14.9853 16.5001 17 14.4854 17 12.0001C17 9.51483 14.9853 7.50011 12.5 7.50011ZM6.00004 12.0001C6.00004 8.41026 8.91019 5.50011 12.5 5.50011C16.0899 5.50011 19 8.41026 19 12.0001C19 15.59 16.0899 18.5001 12.5 18.5001C8.91019 18.5001 6.00004 15.59 6.00004 12.0001ZM5.81317 19.5025C6.13779 19.0557 6.76316 18.9566 7.20997 19.2813C8.7476 20.3984 10.5994 21.0001 12.5 21.0001C14.4007 21.0001 16.2525 20.3984 17.7901 19.2813C18.2369 18.9566 18.8623 19.0557 19.1869 19.5025C19.5115 19.9493 19.4125 20.5747 18.9657 20.8993C17.0864 22.2647 14.823 23.0001 12.5 23.0001C10.1771 23.0001 7.91372 22.2647 6.0344 20.8993C5.58759 20.5747 5.48854 19.9493 5.81317 19.5025Z" fill="white"/>
</svg>
