<svg width="25" height="24" viewBox="0 0 25 24" fill="none" xmlns="http://www.w3.org/2000/svg">
<path fill-rule="evenodd" clip-rule="evenodd" d="M12.0972 1.18492C12.363 1.13025 12.6372 1.13025 12.903 1.18492C13.2103 1.24812 13.4849 1.40195 13.7033 1.52424C13.7236 1.53563 13.7435 1.54674 13.7628 1.55749L21.1628 5.6686C21.1833 5.67996 21.2043 5.69157 21.2259 5.70347C21.4571 5.83078 21.7477 5.99085 21.9709 6.23303C22.1638 6.44241 22.3098 6.69057 22.3992 6.96092C22.5025 7.27363 22.5013 7.6054 22.5003 7.86928C22.5002 7.89394 22.5001 7.91801 22.5001 7.94141V16.0585C22.5001 16.0819 22.5002 16.106 22.5003 16.1306C22.5013 16.3945 22.5025 16.7263 22.3992 17.039C22.3098 17.3094 22.1638 17.5575 21.9709 17.7669C21.7477 18.0091 21.4571 18.1691 21.2259 18.2965C21.2043 18.3083 21.1833 18.32 21.1628 18.3313L13.7628 22.4424C13.7435 22.4532 13.7236 22.4643 13.7033 22.4757C13.4849 22.598 13.2103 22.7518 12.903 22.815C12.6372 22.8697 12.363 22.8697 12.0972 22.815C11.7899 22.7518 11.5153 22.598 11.297 22.4757C11.2766 22.4643 11.2568 22.4532 11.2375 22.4424L3.83745 18.3313C3.817 18.32 3.79592 18.3084 3.77432 18.2965C3.54319 18.1692 3.25257 18.0091 3.02939 17.7669C2.83644 17.5575 2.69042 17.3094 2.60109 17.039C2.49778 16.7263 2.49899 16.3945 2.49995 16.1306C2.50004 16.106 2.50012 16.0819 2.50012 16.0585L2.50012 7.94141C2.50012 7.91801 2.50004 7.89394 2.49995 7.86928C2.49899 7.60541 2.49778 7.27363 2.60109 6.96093C2.69042 6.69057 2.83644 6.44241 3.02939 6.23303C3.25257 5.99085 3.54318 5.83078 3.77431 5.70348C3.79591 5.69158 3.81699 5.67997 3.83745 5.6686L11.2375 1.55749C11.2568 1.54675 11.2766 1.53563 11.297 1.52424C11.5153 1.40195 11.79 1.24812 12.0972 1.18492ZM12.5001 3.14895C12.4986 3.14968 12.497 3.15044 12.4953 3.15124C12.4376 3.17907 12.3603 3.22161 12.2087 3.3058L5.55926 6.99996L12.5001 10.856L19.441 6.99994L12.7915 3.3058C12.64 3.22161 12.5626 3.17907 12.5049 3.15124C12.5032 3.15044 12.5017 3.14968 12.5001 3.14895ZM20.5001 8.69943V16.0585C20.5001 16.2415 20.4997 16.3351 20.4956 16.403C20.4955 16.405 20.4954 16.4069 20.4953 16.4087C20.4937 16.4097 20.4921 16.4107 20.4904 16.4118C20.4331 16.4483 20.3515 16.4942 20.1915 16.583L13.5001 20.3005L13.5001 12.5883L20.5001 8.69943ZM11.5001 12.5883L4.50012 8.69947V16.0585C4.50012 16.2415 4.50054 16.3351 4.50463 16.403C4.50475 16.405 4.50487 16.4069 4.50499 16.4087C4.50653 16.4097 4.50814 16.4107 4.50983 16.4118C4.56712 16.4483 4.64879 16.4941 4.80874 16.583L11.5001 20.3004L11.5001 12.5883Z" fill="white"/>
</svg>
