<svg width="402" height="389" viewBox="0 0 402 389" fill="none" xmlns="http://www.w3.org/2000/svg">
<g filter="url(#filter0_b_311_61030)">
<g clip-path="url(#clip0_311_61030)">
<rect x="58.4529" y="0.566162" width="340.319" height="340.319" rx="170.16" transform="rotate(8.64934 58.4529 0.566162)" fill="url(#paint0_linear_311_61030)" fill-opacity="0.26"/>
<g clip-path="url(#clip1_311_61030)">
<path fill-rule="evenodd" clip-rule="evenodd" d="M164.38 126.996L202.481 132.792C206.019 133.33 209.071 133.794 211.554 134.382C214.174 135.002 216.741 135.882 219.083 137.563C222.578 140.069 225.19 143.618 226.544 147.7C227.452 150.436 227.529 153.148 227.342 155.835C227.312 156.261 227.275 156.702 227.23 157.157L236.323 158.54C236.434 158.557 236.548 158.574 236.666 158.591C237.941 158.782 239.546 159.022 241.068 159.641C242.388 160.178 243.614 160.92 244.703 161.839C245.959 162.898 246.918 164.208 247.68 165.248C247.749 165.344 247.818 165.437 247.884 165.528L271.004 196.942C271.07 197.033 271.139 197.126 271.209 197.221C271.976 198.258 272.942 199.562 273.58 201.076C274.133 202.389 274.477 203.781 274.597 205.201C274.736 206.838 274.488 208.442 274.29 209.716C274.272 209.833 274.254 209.948 274.238 210.059L271.314 229.279C271.1 230.688 270.891 232.062 270.633 233.218C270.352 234.482 269.917 235.966 269.027 237.438C267.165 240.52 264.154 242.735 260.658 243.597C259.946 243.773 259.257 243.869 258.6 243.913C255.388 255.274 244.143 262.731 232.168 260.909C220.335 259.109 211.876 248.869 211.979 237.238L187.405 233.5C182.664 244.625 170.852 251.582 158.342 249.679C145.498 247.725 136.133 237.072 135.324 224.619C127.573 220.799 122.831 212.282 124.199 203.285L132.202 150.677C132.74 147.139 133.204 144.087 133.792 141.604C134.412 138.984 135.292 136.417 136.973 134.075C139.479 130.58 143.028 127.968 147.11 126.614C149.846 125.707 152.558 125.629 155.245 125.816C157.79 125.993 160.842 126.458 164.38 126.996ZM138.544 209.893C143.846 200.111 154.876 194.218 166.51 195.987C179.019 197.89 188.228 208.045 189.447 220.077L203.716 222.247L212.7 163.187C213.289 159.317 213.663 156.818 213.797 154.893C213.926 153.047 213.776 152.332 213.657 151.975C213.206 150.614 212.335 149.431 211.17 148.595C210.864 148.376 210.227 148.02 208.426 147.594C206.548 147.149 204.05 146.764 200.181 146.175L162.597 140.458C158.727 139.87 156.228 139.495 154.303 139.361C152.457 139.232 151.742 139.382 151.385 139.501C150.024 139.952 148.841 140.823 148.005 141.988C147.786 142.294 147.43 142.932 147.004 144.732C146.559 146.61 146.174 149.108 145.585 152.977L137.622 205.327C137.371 206.975 137.736 208.575 138.544 209.893ZM217.449 222.25L225.306 170.598L234.281 171.963C235.16 172.097 235.599 172.165 235.915 172.228C235.924 172.23 235.932 172.231 235.939 172.233C235.944 172.239 235.949 172.245 235.955 172.252C236.158 172.503 236.422 172.859 236.949 173.575L260.068 204.99C260.595 205.706 260.857 206.065 261.036 206.333C261.041 206.34 261.046 206.347 261.05 206.353C261.049 206.361 261.048 206.369 261.047 206.378C261.013 206.699 260.948 207.138 260.815 208.017L257.918 227.059C257.842 227.561 257.775 227.994 257.716 228.372C254.643 220.927 247.858 215.229 239.315 213.929C230.77 212.629 222.597 216.054 217.449 222.25ZM164.468 209.41C157.055 208.283 150.131 213.378 149.003 220.791C147.876 228.205 152.971 235.129 160.384 236.256C167.798 237.384 174.721 232.288 175.849 224.875C176.977 217.462 171.881 210.538 164.468 209.41ZM237.273 227.352C231.713 226.506 226.52 230.328 225.675 235.888C224.829 241.448 228.65 246.641 234.21 247.486C239.77 248.332 244.963 244.511 245.809 238.951C246.655 233.391 242.833 228.198 237.273 227.352Z" fill="white"/>
</g>
<g filter="url(#filter1_f_311_61030)">
<rect x="305.217" y="215.221" width="118" height="118" transform="rotate(19.7696 305.217 215.221)" fill="#285BF3"/>
</g>
</g>
<rect x="58.8472" y="1.1019" width="339.379" height="339.379" rx="169.689" transform="rotate(8.64934 58.8472 1.1019)" stroke="white" stroke-opacity="0.16" stroke-width="0.94071"/>
</g>
<g filter="url(#filter2_b_311_61030)">
<rect x="0.304443" y="33.3386" width="116" height="116" rx="58" transform="rotate(-12 0.304443 33.3386)" fill="white" fill-opacity="0.2"/>
<g clip-path="url(#clip2_311_61030)">
<path fill-rule="evenodd" clip-rule="evenodd" d="M63.8106 57.0225C64.3079 56.805 64.8442 56.691 65.387 56.6874C66.0144 56.6833 66.6156 56.87 67.0936 57.0184C67.1381 57.0323 67.1816 57.0458 67.2239 57.0587L83.41 62.0242C83.4547 62.0379 83.5008 62.0519 83.548 62.0661C84.0531 62.2191 84.6882 62.4114 85.2255 62.7924C85.69 63.1217 86.0789 63.5465 86.366 64.0382C86.6982 64.607 86.8338 65.2566 86.9416 65.7732C86.9517 65.8215 86.9615 65.8686 86.9713 65.9144L88.8668 74.8323C89.0965 75.9127 88.4068 76.9747 87.3263 77.2044C86.2459 77.434 85.1839 76.7443 84.9542 75.6639L83.3739 68.2289L78.2029 72.7326C78.1844 72.7494 78.1655 72.7658 78.1463 72.7819L71.2968 78.7476L74.5038 93.8347L75.3912 93.0618C76.2241 92.3364 77.4874 92.4235 78.2129 93.2564C78.9384 94.0894 78.8512 95.3527 78.0183 96.0782L75.9083 97.9159C75.875 97.9449 75.8408 97.9749 75.8057 98.0056C75.4294 98.3357 74.9561 98.7508 74.3813 99.0022C73.884 99.2197 73.3476 99.3337 72.8049 99.3373C72.1775 99.3414 71.5762 99.1547 71.0983 99.0062C71.0537 98.9924 71.0103 98.9789 70.968 98.966L54.7819 94.0005C54.7372 93.9868 54.6911 93.9728 54.6439 93.9585C54.1388 93.8056 53.5037 93.6133 52.9664 93.2323C52.5019 92.903 52.113 92.4782 51.8259 91.9864C51.4937 91.4177 51.3581 90.7681 51.2503 90.2515C51.2402 90.2032 51.2304 90.1561 51.2206 90.1103L47.8453 74.2308C47.8356 74.1851 47.8254 74.138 47.815 74.0898C47.7034 73.574 47.5631 72.9254 47.6352 72.2707C47.6975 71.7047 47.88 71.1585 48.1704 70.6687C48.5063 70.1021 49.0082 69.6681 49.4074 69.323C49.4447 69.2907 49.4812 69.2592 49.5165 69.2285L55.834 63.7262C55.8504 63.7114 55.8671 63.6969 55.8839 63.6826L62.2836 58.1088C62.3169 58.0798 62.3511 58.0498 62.3862 58.019C62.7624 57.689 63.2358 57.2739 63.8106 57.0225ZM57.6496 67.4493L53.4384 71.117L68.6202 75.7744L72.8314 72.1066L57.6496 67.4493ZM76.3839 69.0124L61.2022 64.3551L64.9107 61.1252C65.1721 60.8975 65.3058 60.7821 65.4071 60.7036L65.4155 60.6971L65.4258 60.6996C65.5503 60.7301 65.7193 60.7811 66.0507 60.8828L80.5951 65.3447L76.3839 69.0124ZM67.3842 79.5792L52.0732 74.8822L55.1332 89.2787C55.2093 89.6366 55.2491 89.8197 55.2852 89.9506C55.2863 89.9545 55.2883 89.9617 55.2883 89.9617C55.2883 89.9617 55.2954 89.9644 55.2991 89.9658C55.4264 90.0133 55.6052 90.0691 55.9551 90.1764L70.5912 94.6664L67.3842 79.5792ZM91.4115 80.0019C92.3378 80.6035 92.6011 81.8422 91.9995 82.7686L85.8376 92.257C85.236 93.1834 83.9974 93.4467 83.071 92.8451L78.3268 89.7642C77.4004 89.1626 77.1371 87.9239 77.7387 86.9975C78.3403 86.0712 79.579 85.8079 80.5053 86.4095L83.5722 88.4011L88.6448 80.59C89.2464 79.6636 90.4851 79.4004 91.4115 80.0019Z" fill="white"/>
</g>
<rect x="1.4905" y="34.1089" width="114" height="114" rx="57" transform="rotate(-12 1.4905 34.1089)" stroke="white" stroke-opacity="0.08" stroke-width="2"/>
</g>
<g filter="url(#filter3_b_311_61030)">
<rect x="325.704" y="226.221" width="77.165" height="77.165" rx="38.5825" transform="rotate(10 325.704 226.221)" fill="#285BF3"/>
<g clip-path="url(#clip3_311_61030)">
<path fill-rule="evenodd" clip-rule="evenodd" d="M346.836 259.603C346.844 259.613 346.852 259.623 346.861 259.634C347.033 259.845 347.366 260.127 347.902 260.436C348.963 261.048 350.568 261.621 352.459 261.954C354.351 262.288 356.055 262.299 357.262 262.086C357.871 261.979 358.28 261.828 358.513 261.689C358.526 261.682 358.537 261.674 358.548 261.668C358.54 261.658 358.532 261.647 358.523 261.636C358.351 261.426 358.018 261.144 357.482 260.834C356.421 260.222 354.816 259.649 352.925 259.316C351.033 258.982 349.329 258.971 348.122 259.184C347.513 259.291 347.104 259.443 346.871 259.581C346.858 259.589 346.847 259.596 346.836 259.603ZM358.443 264.569C358.209 264.631 357.969 264.682 357.726 264.725C356.139 265.004 354.11 264.966 351.994 264.593C349.878 264.22 347.959 263.562 346.563 262.757C346.45 262.692 346.34 262.625 346.232 262.557L345.839 264.782C345.852 264.804 345.872 264.837 345.906 264.881C346.048 265.065 346.331 265.322 346.804 265.613C347.742 266.19 349.18 266.748 350.914 267.113C351.116 267.155 351.321 267.195 351.529 267.232C352.257 267.36 352.744 268.055 352.616 268.784C352.487 269.512 351.792 269.999 351.064 269.87C350.827 269.829 350.593 269.783 350.363 269.735C348.42 269.326 346.67 268.677 345.4 267.896C345.367 267.875 345.334 267.855 345.301 267.834L344.909 270.059C344.924 270.087 344.951 270.129 345 270.189C345.172 270.399 345.505 270.681 346.041 270.99C347.102 271.603 348.707 272.175 350.598 272.509C351.327 272.637 351.813 273.332 351.685 274.061C351.557 274.79 350.862 275.276 350.133 275.148C348.017 274.774 346.098 274.117 344.702 273.311C344.589 273.246 344.479 273.18 344.371 273.111L343.978 275.337C343.993 275.364 344.021 275.407 344.07 275.466C344.242 275.676 344.574 275.958 345.11 276.268C346.172 276.88 347.777 277.453 349.668 277.786C350.396 277.915 350.883 278.61 350.754 279.338C350.626 280.067 349.931 280.553 349.203 280.425C347.086 280.052 345.167 279.394 343.771 278.588C343.078 278.189 342.448 277.715 341.997 277.164C341.549 276.617 341.167 275.848 341.325 274.955L344.116 259.123C344.274 258.229 344.896 257.637 345.503 257.277C346.116 256.914 346.87 256.684 347.658 256.545C349.245 256.266 351.274 256.304 353.39 256.677C355.506 257.05 357.425 257.708 358.821 258.514C359.514 258.913 360.145 259.387 360.596 259.938C361.043 260.485 361.425 261.254 361.268 262.147L360.919 264.126C360.79 264.855 360.095 265.341 359.367 265.213C358.963 265.142 358.634 264.897 358.443 264.569ZM357.198 270.272C357.205 270.282 357.214 270.292 357.223 270.304C357.395 270.514 357.727 270.796 358.263 271.105C359.325 271.718 360.93 272.29 362.821 272.624C364.712 272.957 366.416 272.968 367.623 272.755C368.233 272.648 368.642 272.497 368.875 272.358C368.887 272.351 368.899 272.344 368.91 272.337C368.902 272.327 368.894 272.316 368.884 272.305C368.712 272.095 368.38 271.813 367.844 271.504C366.783 270.891 365.178 270.319 363.286 269.985C361.395 269.652 359.691 269.641 358.484 269.853C357.875 269.96 357.466 270.112 357.233 270.25C357.22 270.258 357.208 270.265 357.198 270.272ZM368.467 275.32C368.342 275.347 368.215 275.372 368.088 275.394C366.5 275.674 364.472 275.635 362.356 275.262C360.24 274.889 358.321 274.231 356.924 273.426C356.812 273.361 356.702 273.294 356.593 273.226L356.259 275.122C356.274 275.149 356.302 275.192 356.351 275.251C356.523 275.461 356.855 275.743 357.391 276.052C358.453 276.665 360.057 277.238 361.949 277.571C363.84 277.905 365.544 277.915 366.751 277.703C367.36 277.596 367.769 277.444 368.003 277.306C368.069 277.266 368.11 277.236 368.133 277.215L368.467 275.32ZM367.595 280.267C367.47 280.294 367.343 280.319 367.216 280.342C365.628 280.621 363.6 280.583 361.483 280.21C359.367 279.837 357.448 279.179 356.052 278.373C355.94 278.309 355.829 278.242 355.721 278.173L355.387 280.069C355.402 280.096 355.43 280.139 355.478 280.199C355.65 280.409 355.983 280.691 356.519 281C357.58 281.612 359.185 282.185 361.076 282.519C362.968 282.852 364.672 282.863 365.879 282.65C366.488 282.543 366.897 282.392 367.13 282.253C367.197 282.214 367.237 282.183 367.261 282.163L367.595 280.267ZM369.885 282.711C369.727 283.605 369.105 284.197 368.498 284.557C367.885 284.921 367.131 285.15 366.343 285.289C364.756 285.569 362.727 285.53 360.611 285.157C358.495 284.784 356.576 284.126 355.18 283.321C354.487 282.921 353.856 282.447 353.405 281.896C352.958 281.35 352.576 280.581 352.733 279.687L354.478 269.792C354.636 268.899 355.258 268.307 355.865 267.946C356.477 267.583 357.232 267.353 358.02 267.214C359.607 266.935 361.635 266.973 363.752 267.346C365.868 267.72 367.787 268.377 369.183 269.183C369.876 269.583 370.506 270.057 370.957 270.607C371.405 271.154 371.787 271.923 371.629 272.816L369.885 282.711Z" fill="white"/>
</g>
<rect x="326.356" y="227.152" width="75.5574" height="75.5574" rx="37.7787" transform="rotate(10 326.356 227.152)" stroke="white" stroke-opacity="0.08" stroke-width="1.6076"/>
</g>
<defs>
<filter id="filter0_b_311_61030" x="-7.86623" y="-14.5734" width="417.908" height="417.908" filterUnits="userSpaceOnUse" color-interpolation-filters="sRGB">
<feFlood flood-opacity="0" result="BackgroundImageFix"/>
<feGaussianBlur in="BackgroundImageFix" stdDeviation="7.56977"/>
<feComposite in2="SourceAlpha" operator="in" result="effect1_backgroundBlur_311_61030"/>
<feBlend mode="normal" in="SourceGraphic" in2="effect1_backgroundBlur_311_61030" result="shape"/>
</filter>
<filter id="filter1_f_311_61030" x="89.3044" y="39.2209" width="502.957" height="502.957" filterUnits="userSpaceOnUse" color-interpolation-filters="sRGB">
<feFlood flood-opacity="0" result="BackgroundImageFix"/>
<feBlend mode="normal" in="SourceGraphic" in2="BackgroundImageFix" result="shape"/>
<feGaussianBlur stdDeviation="88" result="effect1_foregroundBlur_311_61030"/>
</filter>
<filter id="filter2_b_311_61030" x="-33.6956" y="-24.7791" width="205.583" height="205.583" filterUnits="userSpaceOnUse" color-interpolation-filters="sRGB">
<feFlood flood-opacity="0" result="BackgroundImageFix"/>
<feGaussianBlur in="BackgroundImageFix" stdDeviation="17"/>
<feComposite in2="SourceAlpha" operator="in" result="effect1_backgroundBlur_311_61030"/>
<feBlend mode="normal" in="SourceGraphic" in2="effect1_backgroundBlur_311_61030" result="shape"/>
</filter>
<filter id="filter3_b_311_61030" x="281.242" y="195.159" width="151.516" height="151.517" filterUnits="userSpaceOnUse" color-interpolation-filters="sRGB">
<feFlood flood-opacity="0" result="BackgroundImageFix"/>
<feGaussianBlur in="BackgroundImageFix" stdDeviation="15.5311"/>
<feComposite in2="SourceAlpha" operator="in" result="effect1_backgroundBlur_311_61030"/>
<feBlend mode="normal" in="SourceGraphic" in2="effect1_backgroundBlur_311_61030" result="shape"/>
</filter>
<linearGradient id="paint0_linear_311_61030" x1="228.613" y1="0.566169" x2="448.095" y2="388.962" gradientUnits="userSpaceOnUse">
<stop stop-color="white"/>
<stop offset="1" stop-color="white" stop-opacity="0"/>
</linearGradient>
<clipPath id="clip0_311_61030">
<rect x="58.4529" y="0.566162" width="340.319" height="340.319" rx="170.16" transform="rotate(8.64934 58.4529 0.566162)" fill="white"/>
</clipPath>
<clipPath id="clip1_311_61030">
<rect width="162.928" height="162.928" fill="white" transform="translate(132.802 101.592) rotate(8.64934)"/>
</clipPath>
<clipPath id="clip2_311_61030">
<rect width="48" height="48" fill="white" transform="translate(40.6305 59.5266) rotate(-12)"/>
</clipPath>
<clipPath id="clip3_311_61030">
<rect width="32.1521" height="32.1521" fill="white" transform="translate(343.96 252.294) rotate(10)"/>
</clipPath>
</defs>
</svg>
