<svg width="20" height="20" viewBox="0 0 20 20" fill="none" xmlns="http://www.w3.org/2000/svg">
<g id="download-02">
<path id="Icon" fill-rule="evenodd" clip-rule="evenodd" d="M10 1.66675C10.4602 1.66675 10.8333 2.03984 10.8333 2.50008V12.1549L14.4108 8.57749C14.7362 8.25206 15.2638 8.25206 15.5893 8.57749C15.9147 8.90293 15.9147 9.43057 15.5893 9.756L10.5893 14.756C10.2638 15.0814 9.73619 15.0814 9.41075 14.756L4.41075 9.756C4.08531 9.43057 4.08531 8.90293 4.41075 8.57749C4.73619 8.25206 5.26382 8.25206 5.58926 8.57749L9.16667 12.1549V2.50008C9.16667 2.03984 9.53977 1.66675 10 1.66675ZM1.66667 17.5001C1.66667 17.0398 2.03977 16.6667 2.50001 16.6667H17.5C17.9602 16.6667 18.3333 17.0398 18.3333 17.5001C18.3333 17.9603 17.9602 18.3334 17.5 18.3334H2.50001C2.03977 18.3334 1.66667 17.9603 1.66667 17.5001Z" fill="#285BF3"/>
</g>
</svg>
