<svg width="584" height="400" viewBox="0 0 584 400" fill="none" xmlns="http://www.w3.org/2000/svg">
<g clip-path="url(#clip0_311_44406)">
<g filter="url(#filter0_b_311_44406)">
<mask id="path-2-inside-1_311_44406" fill="white">
<path fill-rule="evenodd" clip-rule="evenodd" d="M360.365 50.9662C358.709 43.3732 350.707 38.9525 343.688 42.289C291.417 67.1382 257.043 119.214 254.503 176.806C254.154 184.709 261.588 190.368 269.317 188.683L293.028 183.513C298.819 182.251 302.91 177.17 303.596 171.282C307.597 136.939 327.983 106.265 358.286 89.3334C363.627 86.3496 366.772 80.3543 365.469 74.3771L360.365 50.9662ZM427.314 76.782C421.633 75.9214 416.809 71.885 415.585 66.2711L410.346 42.2421C408.632 34.3826 414.509 26.8735 422.532 27.4557C476.84 31.3963 525.693 63.6165 550.605 112.248C554.212 119.289 549.809 127.529 542.08 129.214L518.369 134.383C512.577 135.646 506.743 132.73 503.669 127.662C487.038 100.248 458.908 81.5685 427.314 76.782ZM464.109 288.834C462.885 283.221 465.591 277.542 470.398 274.395C497.188 256.856 515.007 228.081 518.667 196.154C519.343 190.256 523.437 185.162 529.237 183.897L552.932 178.731C560.654 177.047 568.084 182.695 567.747 190.591C565.418 245.272 534.391 295.008 486.584 321.235C479.531 325.104 471.062 320.723 469.348 312.863L464.109 288.834ZM303.756 233.057C309.557 231.793 315.4 234.721 318.47 239.803C336.387 269.458 367.744 288.931 402.411 291.717C408.509 292.207 413.864 296.348 415.168 302.325L420.272 325.736C421.927 333.329 416.491 340.68 408.721 340.568C350.771 339.731 297.774 306.602 271.528 255.175C267.935 248.135 272.339 239.907 280.061 238.224L303.756 233.057Z"/>
</mask>
<path fill-rule="evenodd" clip-rule="evenodd" d="M360.365 50.9662C358.709 43.3732 350.707 38.9525 343.688 42.289C291.417 67.1382 257.043 119.214 254.503 176.806C254.154 184.709 261.588 190.368 269.317 188.683L293.028 183.513C298.819 182.251 302.91 177.17 303.596 171.282C307.597 136.939 327.983 106.265 358.286 89.3334C363.627 86.3496 366.772 80.3543 365.469 74.3771L360.365 50.9662ZM427.314 76.782C421.633 75.9214 416.809 71.885 415.585 66.2711L410.346 42.2421C408.632 34.3826 414.509 26.8735 422.532 27.4557C476.84 31.3963 525.693 63.6165 550.605 112.248C554.212 119.289 549.809 127.529 542.08 129.214L518.369 134.383C512.577 135.646 506.743 132.73 503.669 127.662C487.038 100.248 458.908 81.5685 427.314 76.782ZM464.109 288.834C462.885 283.221 465.591 277.542 470.398 274.395C497.188 256.856 515.007 228.081 518.667 196.154C519.343 190.256 523.437 185.162 529.237 183.897L552.932 178.731C560.654 177.047 568.084 182.695 567.747 190.591C565.418 245.272 534.391 295.008 486.584 321.235C479.531 325.104 471.062 320.723 469.348 312.863L464.109 288.834ZM303.756 233.057C309.557 231.793 315.4 234.721 318.47 239.803C336.387 269.458 367.744 288.931 402.411 291.717C408.509 292.207 413.864 296.348 415.168 302.325L420.272 325.736C421.927 333.329 416.491 340.68 408.721 340.568C350.771 339.731 297.774 306.602 271.528 255.175C267.935 248.135 272.339 239.907 280.061 238.224L303.756 233.057Z" fill="#89B4F4" fill-opacity="0.2"/>
<path d="M271.528 255.175L269.948 255.981L271.528 255.175ZM280.061 238.224L280.439 239.957L280.061 238.224ZM408.721 340.568L408.695 342.342L408.721 340.568ZM402.411 291.717L402.553 289.948L402.411 291.717ZM318.47 239.803L316.951 240.72L318.47 239.803ZM303.756 233.057L303.379 231.324L303.756 233.057ZM486.584 321.235L485.73 319.68L486.584 321.235ZM552.932 178.731L553.31 180.464L552.932 178.731ZM518.667 196.154L516.904 195.952L518.667 196.154ZM529.237 183.897L528.859 182.163L529.237 183.897ZM470.398 274.395L471.37 275.879L470.398 274.395ZM503.669 127.662L502.152 128.582L503.669 127.662ZM550.605 112.248L552.184 111.439L550.605 112.248ZM542.08 129.214L541.702 127.48L542.08 129.214ZM256.275 176.884C258.787 119.946 292.774 68.4578 344.45 43.8913L342.926 40.6868C290.061 65.8186 255.3 118.481 252.731 176.728L256.275 176.884ZM292.65 181.78L268.939 186.95L269.695 190.416L293.406 185.247L292.65 181.78ZM357.421 87.7847C326.618 104.995 305.9 136.169 301.834 171.077L305.358 171.488C309.293 137.708 329.347 107.535 359.151 90.8822L357.421 87.7847ZM358.632 51.3441L363.736 74.755L367.203 73.9992L362.098 50.5882L358.632 51.3441ZM417.318 65.8932L412.079 41.8642L408.613 42.62L413.851 66.649L417.318 65.8932ZM422.404 29.2251C476.095 33.121 524.397 64.9783 549.026 113.057L552.184 111.439C526.989 62.2546 477.585 29.6716 422.661 25.6862L422.404 29.2251ZM541.702 127.48L517.991 132.65L518.746 136.117L542.458 130.947L541.702 127.48ZM505.186 126.742C488.281 98.8767 459.693 79.893 427.58 75.028L427.048 78.5361C458.124 83.2441 485.795 101.619 502.152 128.582L505.186 126.742ZM471.37 275.879C498.599 258.052 516.709 228.808 520.43 196.356L516.904 195.952C513.305 227.354 495.776 255.659 469.427 272.911L471.37 275.879ZM529.615 185.63L553.31 180.464L552.554 176.997L528.859 182.163L529.615 185.63ZM565.975 190.516C563.672 244.575 532.995 293.751 485.73 319.68L487.437 322.791C535.787 296.266 567.164 245.969 569.52 190.667L565.975 190.516ZM471.082 312.486L465.843 288.457L462.376 289.212L467.615 313.241L471.082 312.486ZM316.951 240.72C335.163 270.863 367.031 290.654 402.269 293.485L402.553 289.948C368.457 287.208 337.611 268.054 319.988 238.885L316.951 240.72ZM413.434 302.703L418.538 326.114L422.005 325.358L416.901 301.948L413.434 302.703ZM408.746 338.794C351.456 337.967 299.057 305.212 273.108 254.368L269.948 255.981C296.492 307.993 350.086 341.496 408.695 342.342L408.746 338.794ZM280.439 239.957L304.134 234.791L303.379 231.324L279.683 236.49L280.439 239.957ZM273.108 254.368C270.101 248.475 273.729 241.42 280.439 239.957L279.683 236.49C270.949 238.394 265.77 247.795 269.948 255.981L273.108 254.368ZM418.538 326.114C419.977 332.71 415.255 338.888 408.746 338.794L408.695 342.342C417.727 342.472 423.878 333.948 422.005 325.358L418.538 326.114ZM402.269 293.485C407.692 293.921 412.319 297.587 413.434 302.703L416.901 301.948C415.41 295.11 409.325 290.492 402.553 289.948L402.269 293.485ZM319.988 238.885C316.577 233.24 310.014 229.877 303.379 231.324L304.134 234.791C309.1 233.708 314.222 236.203 316.951 240.72L319.988 238.885ZM485.73 319.68C479.831 322.916 472.571 319.317 471.082 312.486L467.615 313.241C469.552 322.129 479.231 327.292 487.437 322.791L485.73 319.68ZM553.31 180.464C560.02 179.001 566.256 183.906 565.975 190.516L569.52 190.667C569.911 181.484 561.288 175.093 552.554 176.997L553.31 180.464ZM520.43 196.356C521.031 191.113 524.649 186.713 529.615 185.63L528.859 182.163C522.224 183.61 517.656 189.399 516.904 195.952L520.43 196.356ZM469.427 272.911C464.084 276.409 460.976 282.792 462.376 289.212L465.843 288.457C464.795 283.65 467.099 278.676 471.37 275.879L469.427 272.911ZM517.991 132.65C513.033 133.731 507.919 131.247 505.186 126.742L502.152 128.582C505.568 134.213 512.122 137.561 518.746 136.117L517.991 132.65ZM549.026 113.057C552.045 118.95 548.418 126.016 541.702 127.48L542.458 130.947C551.199 129.041 556.378 119.627 552.184 111.439L549.026 113.057ZM412.079 41.8642C410.59 35.0322 415.693 28.7382 422.404 29.2251L422.661 25.6862C413.326 25.0089 406.675 33.7329 408.613 42.62L412.079 41.8642ZM413.851 66.649C415.251 73.0698 420.734 77.5795 427.048 78.5361L427.58 75.028C422.532 74.2633 418.366 70.7001 417.318 65.8932L413.851 66.649ZM359.151 90.8822C365.083 87.5683 368.693 80.8372 367.203 73.9992L363.736 74.755C364.851 79.8714 362.171 85.1308 357.421 87.7847L359.151 90.8822ZM293.406 185.247C300.03 183.803 304.596 178.029 305.358 171.488L301.834 171.077C301.224 176.311 297.608 180.699 292.65 181.78L293.406 185.247ZM344.45 43.8913C350.329 41.0965 357.193 44.7481 358.632 51.3441L362.098 50.5882C360.226 41.9984 351.085 36.8084 342.926 40.6868L344.45 43.8913ZM252.731 176.728C252.325 185.918 260.953 192.322 269.695 190.416L268.939 186.95C262.223 188.414 255.984 183.499 256.275 176.884L252.731 176.728Z" fill="white" fill-opacity="0.08" mask="url(#path-2-inside-1_311_44406)"/>
</g>
<g filter="url(#filter1_b_311_44406)">
<rect x="343.967" y="109.663" width="141.675" height="141.675" rx="70.8376" transform="rotate(2.88194 343.967 109.663)" fill="#89B4F4" fill-opacity="0.2"/>
<path fill-rule="evenodd" clip-rule="evenodd" d="M412.258 162.061C406.963 161.795 402.455 165.871 402.189 171.165C401.922 176.459 405.998 180.967 411.292 181.234C416.587 181.5 421.095 177.424 421.361 172.13C421.628 166.836 417.552 162.328 412.258 162.061ZM396.711 170.889C397.13 162.57 404.214 156.165 412.533 156.583C420.853 157.002 427.258 164.086 426.839 172.406C426.42 180.726 419.336 187.131 411.017 186.712C402.697 186.293 396.292 179.209 396.711 170.889ZM410.465 197.667C401.725 197.227 393.548 200.63 387.299 206.623C386.206 207.671 384.47 207.635 383.422 206.542C382.373 205.448 382.41 203.712 383.503 202.664C390.733 195.73 400.347 191.666 410.741 192.19C421.134 192.713 430.292 197.722 436.789 205.347C437.772 206.499 437.633 208.23 436.48 209.213C435.328 210.195 433.597 210.057 432.614 208.904C426.999 202.314 419.206 198.107 410.465 197.667Z" fill="#A8B8CB"/>
<rect x="344.809" y="110.593" width="139.901" height="139.901" rx="69.9506" transform="rotate(2.88194 344.809 110.593)" stroke="white" stroke-opacity="0.08" stroke-width="1.7741"/>
</g>
<g filter="url(#filter2_b_311_44406)">
<mask id="path-7-inside-2_311_44406" fill="white">
<path fill-rule="evenodd" clip-rule="evenodd" d="M47.6503 275.55C48.029 273.627 46.6203 271.801 44.6612 271.869C30.0703 272.375 16.8898 280.979 10.5236 294.054C9.65001 295.848 10.8026 297.903 12.7604 298.289L18.767 299.471C20.234 299.76 21.6905 298.995 22.44 297.701C26.8117 290.154 34.6074 285.1 43.3197 284.221C44.8551 284.067 46.1847 282.995 46.4828 281.481L47.6503 275.55ZM60.5551 288.242C59.3266 287.473 58.6151 286.055 58.8951 284.633L60.0934 278.546C60.4854 276.555 62.599 275.406 64.3975 276.346C76.5714 282.707 84.6455 295.066 85.5319 308.821C85.6602 310.812 83.8144 312.278 81.8566 311.892L75.8501 310.71C74.383 310.421 73.3254 309.161 73.1223 307.679C72.0237 299.666 67.3873 292.52 60.5551 288.242ZM47.7952 341.012C48.0752 339.59 49.2712 338.547 50.6996 338.301C58.6596 336.93 65.6709 332.058 69.7214 325.036C70.4697 323.739 71.9282 322.97 73.3976 323.26L79.4001 324.441C81.3562 324.827 82.5089 326.879 81.6389 328.673C75.6135 341.095 63.442 349.493 49.7459 350.766C47.7255 350.954 46.2049 349.09 46.5968 347.099L47.7952 341.012ZM16.2792 312.014C17.7486 312.304 18.807 313.568 19.0077 315.052C20.1791 323.713 25.4827 331.366 33.2264 335.489C34.5885 336.214 35.4125 337.71 35.1144 339.224L33.9469 345.154C33.5682 347.078 31.5725 348.234 29.7853 347.428C16.4574 341.42 7.51578 328.436 6.60102 313.9C6.4758 311.91 8.3206 310.448 10.2767 310.833L16.2792 312.014Z"/>
</mask>
<path fill-rule="evenodd" clip-rule="evenodd" d="M47.6503 275.55C48.029 273.627 46.6203 271.801 44.6612 271.869C30.0703 272.375 16.8898 280.979 10.5236 294.054C9.65001 295.848 10.8026 297.903 12.7604 298.289L18.767 299.471C20.234 299.76 21.6905 298.995 22.44 297.701C26.8117 290.154 34.6074 285.1 43.3197 284.221C44.8551 284.067 46.1847 282.995 46.4828 281.481L47.6503 275.55ZM60.5551 288.242C59.3266 287.473 58.6151 286.055 58.8951 284.633L60.0934 278.546C60.4854 276.555 62.599 275.406 64.3975 276.346C76.5714 282.707 84.6455 295.066 85.5319 308.821C85.6602 310.812 83.8144 312.278 81.8566 311.892L75.8501 310.71C74.383 310.421 73.3254 309.161 73.1223 307.679C72.0237 299.666 67.3873 292.52 60.5551 288.242ZM47.7952 341.012C48.0752 339.59 49.2712 338.547 50.6996 338.301C58.6596 336.93 65.6709 332.058 69.7214 325.036C70.4697 323.739 71.9282 322.97 73.3976 323.26L79.4001 324.441C81.3562 324.827 82.5089 326.879 81.6389 328.673C75.6135 341.095 63.442 349.493 49.7459 350.766C47.7255 350.954 46.2049 349.09 46.5968 347.099L47.7952 341.012ZM16.2792 312.014C17.7486 312.304 18.807 313.568 19.0077 315.052C20.1791 323.713 25.4827 331.366 33.2264 335.489C34.5885 336.214 35.4125 337.71 35.1144 339.224L33.9469 345.154C33.5682 347.078 31.5725 348.234 29.7853 347.428C16.4574 341.42 7.51578 328.436 6.60102 313.9C6.4758 311.91 8.3206 310.448 10.2767 310.833L16.2792 312.014Z" fill="#89B4F4" fill-opacity="0.2"/>
<path d="M6.60102 313.9L6.15438 313.928L6.60102 313.9ZM33.2264 335.489L33.4367 335.094L33.2264 335.489ZM49.7459 350.766L49.7873 351.212L49.7459 350.766ZM81.6389 328.673L81.2362 328.478L81.6389 328.673ZM69.7214 325.036L69.3337 324.812L69.7214 325.036ZM50.6996 338.301L50.6236 337.86L50.6996 338.301ZM85.5319 308.821L85.9785 308.792L85.5319 308.821ZM81.8566 311.892L81.7701 312.331L81.8566 311.892ZM18.767 299.471L18.6805 299.91L18.767 299.471ZM10.9259 294.25C17.2199 281.324 30.2518 272.817 44.6767 272.316L44.6456 271.421C29.8888 271.934 16.5598 280.635 10.1212 293.858L10.9259 294.25ZM18.8534 299.032L12.8469 297.85L12.674 298.728L18.6805 299.91L18.8534 299.032ZM43.2748 283.776C34.4191 284.669 26.4962 289.805 22.0527 297.477L22.8272 297.925C27.1271 290.502 34.7957 285.53 43.3646 284.667L43.2748 283.776ZM47.2112 275.464L46.0437 281.394L46.9219 281.567L48.0894 275.637L47.2112 275.464ZM59.3342 284.719L60.5325 278.632L59.6543 278.459L58.456 284.546L59.3342 284.719ZM64.1902 276.743C76.226 283.031 84.209 295.251 85.0853 308.85L85.9785 308.792C85.0821 294.881 76.9169 282.383 64.6047 275.949L64.1902 276.743ZM81.943 311.453L75.9365 310.271L75.7636 311.149L81.7701 312.331L81.943 311.453ZM73.5657 307.618C72.4491 299.473 67.737 292.211 60.7926 287.863L60.3176 288.621C67.0377 292.829 71.5984 299.858 72.6789 307.74L73.5657 307.618ZM50.7756 338.742C58.8662 337.348 65.992 332.397 70.1091 325.26L69.3337 324.812C65.3499 331.719 58.453 336.511 50.6236 337.86L50.7756 338.742ZM73.3111 323.699L79.3136 324.881L79.4865 324.002L73.484 322.821L73.3111 323.699ZM81.2362 328.478C75.2793 340.758 63.2451 349.062 49.7045 350.321L49.7873 351.212C63.6389 349.924 75.9476 341.431 82.0415 328.868L81.2362 328.478ZM47.0359 347.186L48.2343 341.099L47.3561 340.926L46.1577 347.013L47.0359 347.186ZM18.5643 315.112C19.7548 323.915 25.1449 331.693 33.0161 335.884L33.4367 335.094C25.8205 331.039 20.6033 323.511 19.4512 314.992L18.5643 315.112ZM34.6753 339.138L33.5078 345.068L34.386 345.241L35.5535 339.31L34.6753 339.138ZM29.9692 347.02C16.793 341.081 7.95203 328.242 7.04766 313.872L6.15438 313.928C7.07953 328.629 16.1219 341.76 29.6014 347.836L29.9692 347.02ZM10.1903 311.272L16.1927 312.454L16.3656 311.575L10.3632 310.394L10.1903 311.272ZM7.04766 313.872C6.94284 312.206 8.49048 310.937 10.1903 311.272L10.3632 310.394C8.15072 309.958 6.00876 311.614 6.15438 313.928L7.04766 313.872ZM33.5078 345.068C33.1788 346.739 31.4662 347.695 29.9692 347.02L29.6014 347.836C31.6787 348.773 33.9576 347.417 34.386 345.241L33.5078 345.068ZM33.0161 335.884C34.2276 336.529 34.9305 337.842 34.6753 339.138L35.5535 339.31C35.8946 337.578 34.9495 335.899 33.4367 335.094L33.0161 335.884ZM19.4512 314.992C19.2282 313.343 18.0465 311.906 16.3656 311.575L16.1927 312.454C17.4507 312.701 18.3858 313.793 18.5643 315.112L19.4512 314.992ZM49.7045 350.321C48.0144 350.478 46.6952 348.916 47.0359 347.186L46.1577 347.013C45.7145 349.264 47.4365 351.43 49.7873 351.212L49.7045 350.321ZM79.3136 324.881C81.0134 325.215 81.9645 326.976 81.2362 328.478L82.0415 328.868C83.0533 326.782 81.699 324.438 79.4865 324.002L79.3136 324.881ZM70.1091 325.26C70.7742 324.106 72.0531 323.451 73.3111 323.699L73.484 322.821C71.8032 322.49 70.1651 323.371 69.3337 324.812L70.1091 325.26ZM50.6236 337.86C49.036 338.134 47.6764 339.299 47.3561 340.926L48.2343 341.099C48.4741 339.881 49.5065 338.961 50.7756 338.742L50.6236 337.86ZM75.9365 310.271C74.6805 310.023 73.7462 308.935 73.5657 307.618L72.6789 307.74C72.9045 309.386 74.0855 310.818 75.7636 311.149L75.9365 310.271ZM85.0853 308.85C85.1927 310.517 83.6444 311.788 81.943 311.453L81.7701 312.331C83.9845 312.767 86.1277 311.108 85.9785 308.792L85.0853 308.85ZM60.5325 278.632C60.8733 276.901 62.6858 275.957 64.1902 276.743L64.6047 275.949C62.5122 274.856 60.0976 276.208 59.6543 278.459L60.5325 278.632ZM58.456 284.546C58.1357 286.173 58.9521 287.766 60.3176 288.621L60.7926 287.863C59.7011 287.179 59.0944 285.937 59.3342 284.719L58.456 284.546ZM43.3646 284.667C45.0698 284.495 46.5808 283.299 46.9219 281.567L46.0437 281.394C45.7885 282.69 44.6404 283.639 43.2748 283.776L43.3646 284.667ZM18.6805 299.91C20.3586 300.241 21.9946 299.363 22.8272 297.925L22.0527 297.477C21.3865 298.627 20.1094 299.28 18.8534 299.032L18.6805 299.91ZM44.6767 272.316C46.3178 272.259 47.5402 273.793 47.2112 275.464L48.0894 275.637C48.5178 273.461 46.9229 271.342 44.6456 271.421L44.6767 272.316ZM10.1212 293.858C9.10531 295.944 10.4596 298.292 12.674 298.728L12.8469 297.85C11.1456 297.515 10.1947 295.751 10.9259 294.25L10.1212 293.858Z" fill="white" fill-opacity="0.08" mask="url(#path-7-inside-2_311_44406)"/>
</g>
<g filter="url(#filter3_b_311_44406)">
<rect x="37.9667" y="287.489" width="35.7384" height="35.7384" rx="17.8692" transform="rotate(26.3191 37.9667 287.489)" fill="#89B4F4" fill-opacity="0.2"/>
<rect x="38.068" y="287.789" width="35.2908" height="35.2908" rx="17.6454" transform="rotate(26.3191 38.068 287.789)" stroke="white" stroke-opacity="0.08" stroke-width="0.447527"/>
</g>
<g filter="url(#filter4_b_311_44406)">
<mask id="path-11-inside-3_311_44406" fill="white">
<path fill-rule="evenodd" clip-rule="evenodd" d="M121.077 75.6206C120.333 72.2059 116.734 70.2178 113.577 71.7184C90.0706 82.8934 74.6121 106.312 73.4696 132.212C73.3128 135.766 76.6557 138.311 80.1315 137.554L90.7949 135.229C93.3993 134.661 95.2389 132.376 95.5474 129.728C97.3468 114.284 106.514 100.489 120.142 92.875C122.544 91.5331 123.959 88.8369 123.373 86.1489L121.077 75.6206ZM151.185 87.2302C148.63 86.8432 146.461 85.028 145.91 82.5033L143.554 71.6971C142.784 68.1626 145.427 64.7856 149.035 65.0474C173.458 66.8195 195.428 81.3092 206.631 103.18C208.253 106.346 206.273 110.051 202.797 110.809L192.134 113.134C189.529 113.702 186.906 112.39 185.523 110.112C178.044 97.783 165.394 89.3827 151.185 87.2302ZM167.733 182.594C167.182 180.069 168.399 177.516 170.561 176.1C182.609 168.212 190.622 155.272 192.268 140.913C192.572 138.261 194.413 135.97 197.022 135.401L207.678 133.078C211.151 132.321 214.492 134.861 214.34 138.412C213.293 163.003 199.339 185.37 177.84 197.165C174.668 198.905 170.859 196.935 170.089 193.4L167.733 182.594ZM95.6194 157.509C98.228 156.941 100.856 158.258 102.236 160.543C110.294 173.88 124.396 182.637 139.986 183.89C142.728 184.11 145.137 185.973 145.723 188.661L148.018 199.189C148.763 202.604 146.318 205.909 142.823 205.859C116.763 205.483 92.9291 190.584 81.1258 167.456C79.5101 164.29 81.4906 160.59 84.9633 159.833L95.6194 157.509Z"/>
</mask>
<path fill-rule="evenodd" clip-rule="evenodd" d="M121.077 75.6206C120.333 72.2059 116.734 70.2178 113.577 71.7184C90.0706 82.8934 74.6121 106.312 73.4696 132.212C73.3128 135.766 76.6557 138.311 80.1315 137.554L90.7949 135.229C93.3993 134.661 95.2389 132.376 95.5474 129.728C97.3468 114.284 106.514 100.489 120.142 92.875C122.544 91.5331 123.959 88.8369 123.373 86.1489L121.077 75.6206ZM151.185 87.2302C148.63 86.8432 146.461 85.028 145.91 82.5033L143.554 71.6971C142.784 68.1626 145.427 64.7856 149.035 65.0474C173.458 66.8195 195.428 81.3092 206.631 103.18C208.253 106.346 206.273 110.051 202.797 110.809L192.134 113.134C189.529 113.702 186.906 112.39 185.523 110.112C178.044 97.783 165.394 89.3827 151.185 87.2302ZM167.733 182.594C167.182 180.069 168.399 177.516 170.561 176.1C182.609 168.212 190.622 155.272 192.268 140.913C192.572 138.261 194.413 135.97 197.022 135.401L207.678 133.078C211.151 132.321 214.492 134.861 214.34 138.412C213.293 163.003 199.339 185.37 177.84 197.165C174.668 198.905 170.859 196.935 170.089 193.4L167.733 182.594ZM95.6194 157.509C98.228 156.941 100.856 158.258 102.236 160.543C110.294 173.88 124.396 182.637 139.986 183.89C142.728 184.11 145.137 185.973 145.723 188.661L148.018 199.189C148.763 202.604 146.318 205.909 142.823 205.859C116.763 205.483 92.9291 190.584 81.1258 167.456C79.5101 164.29 81.4906 160.59 84.9633 159.833L95.6194 157.509Z" fill="#89B4F4" fill-opacity="0.2"/>
<path d="M84.9633 159.833L84.7933 159.053L84.9633 159.833ZM142.823 205.859L142.835 205.061L142.823 205.859ZM139.986 183.89L140.05 183.094L139.986 183.89ZM102.236 160.543L101.553 160.955L102.236 160.543ZM95.6194 157.509L95.4494 156.73L95.6194 157.509ZM207.678 133.078L207.508 132.298L207.678 133.078ZM214.34 138.412L215.138 138.446L214.34 138.412ZM192.268 140.913L191.476 140.822L192.268 140.913ZM197.022 135.401L196.852 134.622L197.022 135.401ZM170.561 176.1L170.998 176.768L170.561 176.1ZM185.523 110.112L184.841 110.525L185.523 110.112ZM206.631 103.18L207.341 102.816L206.631 103.18ZM145.91 82.5033L145.131 82.6733L145.91 82.5033ZM151.185 87.2302L151.066 88.0191L151.185 87.2302ZM120.142 92.875L119.753 92.1785L120.142 92.875ZM95.5474 129.728L94.7549 129.636L95.5474 129.728ZM74.2667 132.247C75.3962 106.642 90.6805 83.4869 113.92 72.4389L113.235 70.9978C89.4606 82.3 73.8281 105.983 72.6725 132.177L74.2667 132.247ZM90.625 134.449L79.9616 136.774L80.3015 138.333L90.9649 136.008L90.625 134.449ZM119.753 92.1785C105.901 99.918 96.5838 113.938 94.7549 129.636L96.3399 129.821C98.1097 114.63 107.128 101.06 120.531 93.5715L119.753 92.1785ZM120.298 75.7906L122.593 86.3189L124.152 85.9789L121.857 75.4507L120.298 75.7906ZM146.69 82.3334L144.334 71.5272L142.775 71.8671L145.131 82.6733L146.69 82.3334ZM148.977 65.8432C173.123 67.5951 194.845 81.9217 205.921 103.543L207.341 102.816C196.01 80.6968 173.793 66.0438 149.092 64.2517L148.977 65.8432ZM202.627 110.03L191.964 112.355L192.304 113.914L202.967 111.589L202.627 110.03ZM186.205 109.698C178.603 97.1664 165.746 88.6292 151.305 86.4414L151.066 88.0191C165.041 90.1362 177.485 98.3996 184.841 110.525L186.205 109.698ZM170.998 176.768C183.243 168.75 191.388 155.599 193.061 141.004L191.476 140.822C189.857 154.945 181.974 167.674 170.124 175.433L170.998 176.768ZM197.192 136.181L207.848 133.857L207.508 132.298L196.852 134.622L197.192 136.181ZM213.543 138.378C212.508 162.689 198.712 184.805 177.456 196.465L178.223 197.864C199.967 185.936 214.078 163.316 215.138 138.446L213.543 138.378ZM170.868 193.23L168.512 182.424L166.953 182.764L169.309 193.57L170.868 193.23ZM101.553 160.955C109.743 174.511 124.075 183.412 139.922 184.685L140.05 183.094C124.716 181.862 110.844 173.248 102.919 160.13L101.553 160.955ZM144.943 188.831L147.239 199.359L148.798 199.019L146.502 188.491L144.943 188.831ZM142.835 205.061C117.071 204.689 93.5057 189.958 81.8364 167.093L80.4151 167.819C92.3525 191.209 116.455 206.276 142.812 206.657L142.835 205.061ZM85.1332 160.612L95.7894 158.289L95.4494 156.73L84.7933 159.053L85.1332 160.612ZM81.8364 167.093C80.484 164.443 82.1156 161.27 85.1332 160.612L84.7933 159.053C80.8656 159.91 78.5363 164.137 80.4151 167.819L81.8364 167.093ZM147.239 199.359C147.885 202.325 145.762 205.104 142.835 205.061L142.812 206.657C146.874 206.715 149.64 202.882 148.798 199.019L147.239 199.359ZM139.922 184.685C142.361 184.881 144.442 186.53 144.943 188.831L146.502 188.491C145.832 185.416 143.095 183.339 140.05 183.094L139.922 184.685ZM102.919 160.13C101.385 157.591 98.4334 156.079 95.4494 156.73L95.7894 158.289C98.0227 157.802 100.326 158.924 101.553 160.955L102.919 160.13ZM177.456 196.465C174.803 197.921 171.538 196.302 170.868 193.23L169.309 193.57C170.18 197.567 174.533 199.889 178.223 197.864L177.456 196.465ZM207.848 133.857C210.866 133.199 213.67 135.405 213.543 138.378L215.138 138.446C215.313 134.316 211.436 131.442 207.508 132.298L207.848 133.857ZM193.061 141.004C193.331 138.646 194.959 136.668 197.192 136.181L196.852 134.622C193.868 135.272 191.813 137.875 191.476 140.822L193.061 141.004ZM170.124 175.433C167.721 177.006 166.323 179.876 166.953 182.764L168.512 182.424C168.041 180.262 169.077 178.025 170.998 176.768L170.124 175.433ZM191.964 112.355C189.734 112.841 187.434 111.723 186.205 109.698L184.841 110.525C186.377 113.057 189.325 114.563 192.304 113.914L191.964 112.355ZM205.921 103.543C207.279 106.194 205.648 109.371 202.627 110.03L202.967 111.589C206.898 110.732 209.227 106.498 207.341 102.816L205.921 103.543ZM144.334 71.5272C143.664 68.4547 145.959 65.6242 148.977 65.8432L149.092 64.2517C144.894 63.9471 141.903 67.8704 142.775 71.8671L144.334 71.5272ZM145.131 82.6733C145.76 85.5608 148.226 87.5889 151.066 88.0191L151.305 86.4414C149.035 86.0975 147.161 84.4951 146.69 82.3334L145.131 82.6733ZM120.531 93.5715C123.199 92.0811 124.823 89.0541 124.152 85.9789L122.593 86.3189C123.095 88.6198 121.889 90.985 119.753 92.1785L120.531 93.5715ZM90.9649 136.008C93.944 135.359 95.9972 132.762 96.3399 129.821L94.7549 129.636C94.4807 131.989 92.8546 133.963 90.625 134.449L90.9649 136.008ZM113.92 72.4389C116.564 71.182 119.651 72.8242 120.298 75.7906L121.857 75.4507C121.014 71.5877 116.904 69.2536 113.235 70.9978L113.92 72.4389ZM72.6725 132.177C72.4902 136.31 76.3702 139.19 80.3015 138.333L79.9616 136.774C76.9412 137.433 74.1354 135.222 74.2667 132.247L72.6725 132.177Z" fill="white" fill-opacity="0.08" mask="url(#path-11-inside-3_311_44406)"/>
</g>
<g filter="url(#filter5_b_311_44406)">
<rect x="113.703" y="102.017" width="63.7136" height="63.7136" rx="31.8568" transform="rotate(2.88194 113.703 102.017)" fill="#89B4F4" fill-opacity="0.2"/>
<rect x="114.082" y="102.435" width="62.9158" height="62.9158" rx="31.4579" transform="rotate(2.88194 114.082 102.435)" stroke="white" stroke-opacity="0.08" stroke-width="0.797841"/>
</g>
</g>
<defs>
<filter id="filter0_b_311_44406" x="238.265" y="11.1981" width="345.719" height="345.597" filterUnits="userSpaceOnUse" color-interpolation-filters="sRGB">
<feFlood flood-opacity="0" result="BackgroundImageFix"/>
<feGaussianBlur in="BackgroundImageFix" stdDeviation="8.11289"/>
<feComposite in2="SourceAlpha" operator="in" result="effect1_backgroundBlur_311_44406"/>
<feBlend mode="normal" in="SourceGraphic" in2="effect1_backgroundBlur_311_44406" result="shape"/>
</filter>
<filter id="filter1_b_311_44406" x="320.618" y="93.4371" width="181.071" height="181.071" filterUnits="userSpaceOnUse" color-interpolation-filters="sRGB">
<feFlood flood-opacity="0" result="BackgroundImageFix"/>
<feGaussianBlur in="BackgroundImageFix" stdDeviation="8.11289"/>
<feComposite in2="SourceAlpha" operator="in" result="effect1_backgroundBlur_311_44406"/>
<feBlend mode="normal" in="SourceGraphic" in2="effect1_backgroundBlur_311_44406" result="shape"/>
</filter>
<filter id="filter2_b_311_44406" x="2.50194" y="267.774" width="87.1293" height="87.0987" filterUnits="userSpaceOnUse" color-interpolation-filters="sRGB">
<feFlood flood-opacity="0" result="BackgroundImageFix"/>
<feGaussianBlur in="BackgroundImageFix" stdDeviation="2.04652"/>
<feComposite in2="SourceAlpha" operator="in" result="effect1_backgroundBlur_311_44406"/>
<feBlend mode="normal" in="SourceGraphic" in2="effect1_backgroundBlur_311_44406" result="shape"/>
</filter>
<filter id="filter3_b_311_44406" x="18.0283" y="283.396" width="56.0651" height="56.065" filterUnits="userSpaceOnUse" color-interpolation-filters="sRGB">
<feFlood flood-opacity="0" result="BackgroundImageFix"/>
<feGaussianBlur in="BackgroundImageFix" stdDeviation="2.04652"/>
<feComposite in2="SourceAlpha" operator="in" result="effect1_backgroundBlur_311_44406"/>
<feBlend mode="normal" in="SourceGraphic" in2="effect1_backgroundBlur_311_44406" result="shape"/>
</filter>
<filter id="filter4_b_311_44406" x="66.1673" y="57.7362" width="155.475" height="155.42" filterUnits="userSpaceOnUse" color-interpolation-filters="sRGB">
<feFlood flood-opacity="0" result="BackgroundImageFix"/>
<feGaussianBlur in="BackgroundImageFix" stdDeviation="3.64849"/>
<feComposite in2="SourceAlpha" operator="in" result="effect1_backgroundBlur_311_44406"/>
<feBlend mode="normal" in="SourceGraphic" in2="effect1_backgroundBlur_311_44406" result="shape"/>
</filter>
<filter id="filter5_b_311_44406" x="103.203" y="94.7196" width="81.4304" height="81.4304" filterUnits="userSpaceOnUse" color-interpolation-filters="sRGB">
<feFlood flood-opacity="0" result="BackgroundImageFix"/>
<feGaussianBlur in="BackgroundImageFix" stdDeviation="3.64849"/>
<feComposite in2="SourceAlpha" operator="in" result="effect1_backgroundBlur_311_44406"/>
<feBlend mode="normal" in="SourceGraphic" in2="effect1_backgroundBlur_311_44406" result="shape"/>
</filter>
<clipPath id="clip0_311_44406">
<rect width="584" height="400" rx="12" fill="white"/>
</clipPath>
</defs>
</svg>
