<svg width="283" height="246" viewBox="0 0 283 246" fill="none" xmlns="http://www.w3.org/2000/svg">
<g clip-path="url(#clip0_2221_20930)">
<g opacity="0.2" filter="url(#filter0_f_2221_20930)">
<ellipse cx="150.278" cy="138.961" rx="102.121" ry="79.5337" transform="rotate(5.50343 150.278 138.961)" fill="#5580FF"/>
</g>
<circle cx="139.407" cy="120.407" r="90" transform="rotate(5.50343 139.407 120.407)" fill="#285BF3"/>
<g clip-path="url(#clip1_2221_20930)">
<path fill-rule="evenodd" clip-rule="evenodd" d="M108.946 115.115C110.622 97.7068 126.094 84.9533 143.502 86.6295C160.911 88.3058 173.664 103.777 171.988 121.186C170.312 138.594 154.84 151.348 137.432 149.671C133.445 149.287 129.695 148.178 126.305 146.482C126.015 146.337 125.846 146.253 125.722 146.194C125.707 146.187 125.693 146.181 125.682 146.176C125.678 146.176 125.673 146.176 125.669 146.176C125.563 146.174 125.418 146.174 125.142 146.176L107.981 146.297C107.943 146.297 107.905 146.297 107.867 146.297C107.15 146.303 106.401 146.308 105.78 146.256C105.163 146.203 104.056 146.062 103.053 145.309C101.878 144.427 101.15 143.073 101.063 141.607C100.988 140.356 101.481 139.354 101.778 138.81C102.077 138.264 102.494 137.642 102.894 137.046L109.352 127.429C109.631 127.013 109.781 126.789 109.883 126.622C109.889 126.613 109.894 126.604 109.898 126.597C109.894 126.573 109.889 126.545 109.882 126.513C109.834 126.263 109.755 125.922 109.621 125.347C108.858 122.077 108.608 118.632 108.946 115.115ZM142.863 93.2655C129.12 91.9421 116.906 102.011 115.582 115.754C115.314 118.541 115.513 121.259 116.114 123.833C116.133 123.915 116.152 123.998 116.173 124.084C116.366 124.901 116.592 125.861 116.578 126.709C116.565 127.481 116.447 128.124 116.186 128.851C115.9 129.646 115.403 130.381 115.001 130.976C114.962 131.034 114.924 131.091 114.887 131.146L109.196 139.621L125.095 139.51C125.131 139.51 125.168 139.509 125.206 139.509C125.605 139.505 126.099 139.501 126.577 139.566C127.015 139.625 127.38 139.71 127.798 139.849C128.258 140.003 128.748 140.249 129.162 140.457C129.205 140.479 129.246 140.499 129.287 140.52C131.955 141.854 134.912 142.731 138.071 143.035C151.814 144.359 164.029 134.29 165.352 120.547C166.675 106.803 156.607 94.5889 142.863 93.2655ZM142.521 108.362C141.573 108.104 140.564 108.19 139.673 108.604C138.782 109.018 138.066 109.735 137.653 110.626C136.878 112.296 134.897 113.022 133.227 112.248C131.557 111.473 130.831 109.492 131.605 107.821C132.681 105.502 134.543 103.638 136.862 102.559C139.18 101.481 141.806 101.258 144.273 101.93C146.74 102.602 148.89 104.125 150.342 106.23C151.793 108.335 152.453 110.885 152.204 113.429C151.794 117.675 148.39 120.102 146.193 121.28C144.986 121.927 143.823 122.373 142.975 122.656C142.546 122.799 142.185 122.905 141.923 122.977C141.792 123.013 141.685 123.04 141.606 123.06L141.508 123.084L141.476 123.092L141.464 123.095L141.459 123.096C141.458 123.096 141.455 123.097 140.709 119.848L141.455 123.097C139.66 123.509 137.872 122.388 137.46 120.594C137.048 118.801 138.167 117.013 139.961 116.6L139.956 116.601L139.985 116.594C140.018 116.585 140.077 116.57 140.158 116.548C140.319 116.504 140.563 116.432 140.863 116.332C141.474 116.129 142.265 115.821 143.043 115.404C144.815 114.455 145.499 113.512 145.569 112.787L145.569 112.782C145.665 111.804 145.411 110.824 144.853 110.015C144.296 109.206 143.469 108.62 142.521 108.362ZM136.528 129.492C136.705 127.659 138.333 126.317 140.166 126.493L140.199 126.496C142.031 126.673 143.374 128.301 143.197 130.134C143.021 131.966 141.392 133.309 139.56 133.132L139.527 133.129C137.694 132.953 136.352 131.324 136.528 129.492Z" fill="white"/>
</g>
</g>
<defs>
<filter id="filter0_f_2221_20930" x="0.337158" y="11.1821" width="299.881" height="255.558" filterUnits="userSpaceOnUse" color-interpolation-filters="sRGB">
<feFlood flood-opacity="0" result="BackgroundImageFix"/>
<feBlend mode="normal" in="SourceGraphic" in2="BackgroundImageFix" result="shape"/>
<feGaussianBlur stdDeviation="24" result="effect1_foregroundBlur_2221_20930"/>
</filter>
<clipPath id="clip0_2221_20930">
<rect width="283" height="246" fill="white"/>
</clipPath>
<clipPath id="clip1_2221_20930">
<rect width="80" height="80" fill="white" transform="translate(102.668 76) rotate(5.5)"/>
</clipPath>
</defs>
</svg>
