<svg width="584" height="451" viewBox="0 0 584 451" fill="none" xmlns="http://www.w3.org/2000/svg">
<g filter="url(#filter0_b_2221_20872)">
<g clip-path="url(#clip0_2221_20872)">
<rect x="155.877" y="40.0001" width="318.358" height="318.358" rx="159.179" transform="rotate(8.64934 155.877 40.0001)" fill="url(#paint0_linear_2221_20872)" fill-opacity="0.26"/>
<g clip-path="url(#clip1_2221_20872)">
<path fill-rule="evenodd" clip-rule="evenodd" d="M225.125 207.865C230.865 170.131 266.108 144.196 303.841 149.935C341.575 155.675 367.511 190.918 361.771 228.651C356.031 266.385 320.789 292.321 283.055 286.581C274.413 285.266 266.374 282.398 259.191 278.298C258.576 277.946 258.219 277.743 257.955 277.6C257.922 277.583 257.894 277.568 257.87 277.555C257.861 277.554 257.851 277.554 257.841 277.553C257.611 277.536 257.296 277.52 256.692 277.491L219.284 275.696C219.201 275.692 219.119 275.688 219.036 275.684C217.472 275.609 215.839 275.531 214.493 275.343C213.154 275.155 210.758 274.713 208.664 272.954C206.209 270.891 204.785 267.853 204.771 264.647C204.759 261.912 205.952 259.787 206.664 258.639C207.381 257.483 208.365 256.179 209.309 254.929L224.534 234.747C225.192 233.874 225.545 233.404 225.788 233.05C225.8 233.032 225.812 233.014 225.823 232.998C225.817 232.946 225.809 232.885 225.799 232.813C225.724 232.262 225.593 231.511 225.369 230.242C224.1 223.025 223.966 215.488 225.125 207.865ZM301.653 164.319C271.863 159.788 244.041 180.263 239.509 210.053C238.59 216.094 238.699 222.04 239.698 227.721C239.73 227.902 239.763 228.086 239.797 228.274C240.12 230.078 240.498 232.198 240.365 234.043C240.244 235.725 239.911 237.111 239.254 238.664C238.535 240.363 237.366 241.904 236.417 243.154C236.325 243.275 236.236 243.393 236.148 243.509L222.731 261.295L257.39 262.959C257.469 262.963 257.549 262.966 257.632 262.97C258.501 263.01 259.579 263.06 260.614 263.258C261.56 263.44 262.345 263.668 263.24 264.023C264.223 264.413 265.263 265.009 266.139 265.511C266.229 265.563 266.318 265.613 266.404 265.662C272.058 268.89 278.397 271.156 285.243 272.197C315.033 276.728 342.855 256.253 347.387 226.463C351.918 196.673 331.443 168.851 301.653 164.319ZM299.098 197.175C297.063 196.499 294.854 196.564 292.863 197.361C290.871 198.157 289.226 199.632 288.218 201.525C286.33 205.071 281.925 206.416 278.378 204.528C274.832 202.64 273.488 198.234 275.376 194.688C277.998 189.762 282.279 185.923 287.461 183.851C292.643 181.779 298.39 181.608 303.686 183.368C308.982 185.128 313.484 188.705 316.395 193.466C319.305 198.226 320.437 203.862 319.591 209.377C318.187 218.58 310.479 223.462 305.549 225.765C302.843 227.029 300.255 227.861 298.372 228.376C297.42 228.637 296.621 228.824 296.042 228.949C295.752 229.012 295.515 229.06 295.34 229.094L295.125 229.134L295.053 229.147L295.027 229.152L295.016 229.153C295.014 229.154 295.007 229.155 293.771 221.986L295.007 229.155C291.048 229.838 287.285 227.182 286.602 223.223C285.919 219.265 288.573 215.503 292.53 214.818L292.52 214.82L292.583 214.808C292.658 214.793 292.788 214.768 292.966 214.729C293.323 214.652 293.864 214.526 294.53 214.344C295.884 213.973 297.645 213.398 299.391 212.583C303.365 210.726 304.969 208.754 305.208 207.182L305.21 207.172C305.535 205.052 305.1 202.885 303.982 201.056C302.863 199.226 301.133 197.851 299.098 197.175ZM283.505 242.5C284.109 238.528 287.819 235.797 291.791 236.402L291.863 236.413C295.835 237.017 298.565 240.727 297.961 244.698C297.357 248.67 293.647 251.401 289.675 250.796L289.603 250.785C285.631 250.181 282.901 246.471 283.505 242.5Z" fill="white"/>
</g>
<g filter="url(#filter1_f_2221_20872)">
<rect x="353.698" y="228.935" width="145.472" height="145.472" transform="rotate(19.7696 353.698 228.935)" fill="#285BF3"/>
</g>
</g>
<rect x="156.246" y="40.5012" width="317.478" height="317.478" rx="158.739" transform="rotate(8.64934 156.246 40.5012)" stroke="white" stroke-opacity="0.16" stroke-width="0.880004"/>
</g>
<g filter="url(#filter2_b_2221_20872)">
<rect x="369.645" y="214.459" width="144.538" height="144.538" rx="72.2689" transform="rotate(5.13318 369.645 214.459)" fill="#285BF3"/>
<g clip-path="url(#clip2_2221_20872)">
<path fill-rule="evenodd" clip-rule="evenodd" d="M461.276 288.498C459.558 273.177 445.746 262.15 430.426 263.868C415.105 265.586 404.078 279.398 405.796 294.718C407.514 310.039 421.326 321.066 436.646 319.348C440.155 318.954 443.445 317.925 446.409 316.384C446.663 316.252 446.81 316.175 446.919 316.122C446.932 316.115 446.944 316.11 446.954 316.105C446.958 316.105 446.962 316.105 446.966 316.104C447.059 316.101 447.186 316.1 447.43 316.098L462.557 315.967C462.59 315.967 462.624 315.966 462.657 315.966C463.29 315.961 463.95 315.955 464.496 315.9C465.039 315.846 466.013 315.706 466.887 315.029C467.91 314.235 468.533 313.032 468.59 311.738C468.638 310.634 468.19 309.758 467.921 309.283C467.65 308.805 467.273 308.263 466.912 307.744L461.088 299.357C460.836 298.994 460.701 298.798 460.609 298.652C460.604 298.644 460.599 298.637 460.595 298.63C460.599 298.61 460.603 298.585 460.608 298.556C460.647 298.335 460.712 298.034 460.822 297.525C461.449 294.632 461.623 291.593 461.276 288.498ZM431.08 269.708C443.175 268.352 454.08 277.057 455.436 289.152C455.711 291.605 455.572 294.003 455.079 296.28C455.063 296.353 455.047 296.427 455.03 296.502C454.872 297.225 454.685 298.074 454.709 298.821C454.732 299.502 454.844 300.067 455.085 300.704C455.348 301.401 455.795 302.041 456.158 302.561C456.193 302.611 456.228 302.66 456.261 302.708L461.394 310.1L447.379 310.221C447.348 310.222 447.315 310.222 447.282 310.222C446.93 310.225 446.494 310.228 446.073 310.291C445.689 310.349 445.368 310.429 445.001 310.558C444.599 310.7 444.169 310.924 443.808 311.113C443.77 311.132 443.734 311.151 443.698 311.17C441.365 312.382 438.771 313.196 435.991 313.508C423.896 314.864 412.992 306.158 411.636 294.063C410.28 281.968 418.985 271.064 431.08 269.708ZM431.899 277.008C430.286 277.189 429.125 278.643 429.306 280.255L430.452 290.475C430.633 292.088 432.087 293.249 433.7 293.068C435.312 292.887 436.473 291.433 436.292 289.821L435.146 279.601C434.965 277.988 433.512 276.827 431.899 277.008ZM437.438 300.041C437.257 298.428 435.803 297.267 434.191 297.448L434.161 297.451C432.549 297.632 431.388 299.086 431.569 300.699C431.75 302.311 433.204 303.472 434.816 303.291L434.845 303.288C436.458 303.107 437.619 301.653 437.438 300.041Z" fill="white"/>
</g>
<rect x="370.327" y="215.276" width="143.034" height="143.034" rx="71.5169" transform="rotate(5.13318 370.327 215.276)" stroke="white" stroke-opacity="0.08" stroke-width="1.50386"/>
</g>
<defs>
<filter id="filter0_b_2221_20872" x="93.8374" y="25.8375" width="390.939" height="390.939" filterUnits="userSpaceOnUse" color-interpolation-filters="sRGB">
<feFlood flood-opacity="0" result="BackgroundImageFix"/>
<feGaussianBlur in="BackgroundImageFix" stdDeviation="7.08128"/>
<feComposite in2="SourceAlpha" operator="in" result="effect1_backgroundBlur_2221_20872"/>
<feBlend mode="normal" in="SourceGraphic" in2="effect1_backgroundBlur_2221_20872" result="shape"/>
</filter>
<filter id="filter1_f_2221_20872" x="139.852" y="64.2927" width="515.386" height="515.386" filterUnits="userSpaceOnUse" color-interpolation-filters="sRGB">
<feFlood flood-opacity="0" result="BackgroundImageFix"/>
<feBlend mode="normal" in="SourceGraphic" in2="BackgroundImageFix" result="shape"/>
<feGaussianBlur stdDeviation="82.3211" result="effect1_foregroundBlur_2221_20872"/>
</filter>
<filter id="filter2_b_2221_20872" x="327.656" y="185.402" width="215.005" height="215.005" filterUnits="userSpaceOnUse" color-interpolation-filters="sRGB">
<feFlood flood-opacity="0" result="BackgroundImageFix"/>
<feGaussianBlur in="BackgroundImageFix" stdDeviation="14.5288"/>
<feComposite in2="SourceAlpha" operator="in" result="effect1_backgroundBlur_2221_20872"/>
<feBlend mode="normal" in="SourceGraphic" in2="effect1_backgroundBlur_2221_20872" result="shape"/>
</filter>
<linearGradient id="paint0_linear_2221_20872" x1="315.056" y1="40.0001" x2="520.374" y2="403.332" gradientUnits="userSpaceOnUse">
<stop stop-color="white"/>
<stop offset="1" stop-color="white" stop-opacity="0"/>
</linearGradient>
<clipPath id="clip0_2221_20872">
<rect x="155.877" y="40.0001" width="318.358" height="318.358" rx="159.179" transform="rotate(8.64934 155.877 40.0001)" fill="white"/>
</clipPath>
<clipPath id="clip1_2221_20872">
<rect width="174.59" height="174.59" fill="white" transform="translate(216.133 121.877) rotate(8.64934)"/>
</clipPath>
<clipPath id="clip2_2221_20872">
<rect width="70.5189" height="70.5189" fill="white" transform="matrix(-0.993773 0.111423 0.111423 0.993773 466.27 253.936)"/>
</clipPath>
</defs>
</svg>
