<svg width="88" height="88" viewBox="0 0 88 88" fill="none" xmlns="http://www.w3.org/2000/svg">
<g clip-path="url(#clip0_311_45745)">
<path d="M56.8389 35.1496C56.0015 35.069 55.1859 34.9906 54.5007 34.8676C53.7482 34.7325 52.8673 34.5001 52.011 33.9545C50.8236 33.1979 49.9063 32.085 49.3904 30.775C49.0183 29.8302 48.9583 28.9212 48.9694 28.1568C48.9795 27.4606 49.0582 26.6451 49.139 25.8077L50.2298 14.4867L50.8706 7.83574C49.992 7.69867 49.0333 7.60676 47.9346 7.50143L47.5966 7.46896L36.803 6.42901C34.1321 6.17163 31.9278 5.95921 30.118 5.93291C28.2383 5.90559 26.4924 6.06744 24.803 6.73279C22.1831 7.7646 19.9572 9.59932 18.4441 11.974C17.4685 13.5053 16.9763 15.1882 16.6442 17.0385C16.3245 18.82 16.1121 21.0244 15.8548 23.6952L12.5037 58.4762C12.2463 61.147 12.0339 63.3513 12.0076 65.1611C11.9803 67.0408 12.1421 68.7868 12.8075 70.4761C13.8393 73.096 15.674 75.322 18.0487 76.835C19.5799 77.8107 21.2628 78.3029 23.1132 78.6349C24.8947 78.9547 27.099 79.167 29.7698 79.4243L51.279 81.4967C53.9499 81.7541 56.1542 81.9665 57.964 81.9928C59.8437 82.0201 61.5896 81.8583 63.279 81.1929C65.8988 80.1611 68.1248 78.3264 69.6378 75.9517C70.6135 74.4204 71.1057 72.7375 71.4377 70.8872C71.7575 69.1057 71.9698 66.9014 72.2271 64.2306L74.5458 40.165L74.5785 39.827C74.6849 38.7284 74.7777 37.7698 74.8109 36.8812L68.16 36.2404L56.8389 35.1496Z" fill="white"/>
<path d="M56.4199 19.7525L55.7468 26.7393C55.693 27.2967 55.6662 27.5755 55.7542 27.7988C55.8315 27.9953 55.9691 28.1623 56.1472 28.2757C56.3497 28.4047 56.6284 28.4316 57.1859 28.4853L64.1729 29.1587L73.2142 30.0298C72.5358 28.8207 71.6114 27.7002 70.4365 26.2762L70.2204 26.0142L60.6612 14.4166L60.4453 14.1544C59.3 12.7636 58.393 11.6621 57.3673 10.7764L56.4199 19.7525Z" fill="white"/>
</g>
<defs>
<clipPath id="clip0_311_45745">
<rect width="80" height="80" fill="white" transform="translate(8.06152 0.311035) rotate(5.50343)"/>
</clipPath>
</defs>
</svg>
