<svg width="32" height="32" viewBox="0 0 32 32" fill="none" xmlns="http://www.w3.org/2000/svg">
<path fill-rule="evenodd" clip-rule="evenodd" d="M11.6783 1.33337L20.3217 1.33337C21.395 1.33336 22.2808 1.33334 23.0024 1.3923C23.7519 1.45353 24.4408 1.58495 25.088 1.91467C26.0915 2.426 26.9074 3.24189 27.4187 4.24543C27.7484 4.89254 27.8798 5.58148 27.9411 6.33094C28 7.05253 28 7.93833 28 9.01161V16.6667C28 17.4031 27.403 18 26.6667 18C25.9303 18 25.3333 17.4031 25.3333 16.6667V9.06671C25.3333 7.9246 25.3323 7.14821 25.2833 6.54809C25.2355 5.96354 25.1489 5.6646 25.0427 5.45607C24.787 4.9543 24.3791 4.54635 23.8773 4.29069C23.6688 4.18444 23.3698 4.09787 22.7853 4.05011C22.1852 4.00108 21.4088 4.00004 20.2667 4.00004H11.7333C10.5912 4.00004 9.81484 4.00108 9.21472 4.05011C8.63016 4.09787 8.33123 4.18444 8.12269 4.29069C7.62093 4.54635 7.21298 4.9543 6.95732 5.45607C6.85106 5.6646 6.7645 5.96354 6.71674 6.54809C6.6677 7.14821 6.66667 7.9246 6.66667 9.06671V22.9334C6.66667 24.0755 6.6677 24.8519 6.71674 25.452C6.7645 26.0365 6.85106 26.3355 6.95732 26.544C7.21298 27.0458 7.62093 27.4537 8.12269 27.7094C8.33123 27.8156 8.63016 27.9022 9.21472 27.95C9.81484 27.999 10.5912 28 11.7333 28H16C16.7364 28 17.3333 28.597 17.3333 29.3334C17.3333 30.0698 16.7364 30.6667 16 30.6667H11.6782C10.605 30.6667 9.71915 30.6667 8.99757 30.6078C8.2481 30.5465 7.55917 30.4151 6.91205 30.0854C5.90852 29.5741 5.09262 28.7582 4.5813 27.7547C4.25158 27.1075 4.12016 26.4186 4.05893 25.6691C3.99997 24.9475 3.99998 24.0617 4 22.9884V9.01164C3.99998 7.93835 3.99997 7.05253 4.05893 6.33094C4.12016 5.58148 4.25158 4.89254 4.5813 4.24543C5.09262 3.24189 5.90852 2.426 6.91205 1.91467C7.55917 1.58495 8.2481 1.45353 8.99757 1.3923C9.71916 1.33334 10.605 1.33336 11.6783 1.33337ZM9.33334 9.33338C9.33334 8.597 9.93029 8.00004 10.6667 8.00004H21.3333C22.0697 8.00004 22.6667 8.597 22.6667 9.33338C22.6667 10.0698 22.0697 10.6667 21.3333 10.6667H10.6667C9.93029 10.6667 9.33334 10.0698 9.33334 9.33338ZM9.33334 14.6667C9.33334 13.9303 9.93029 13.3334 10.6667 13.3334H18.6667C19.403 13.3334 20 13.9303 20 14.6667C20 15.4031 19.403 16 18.6667 16H10.6667C9.93029 16 9.33334 15.4031 9.33334 14.6667ZM9.33334 20C9.33334 19.2637 9.93029 18.6667 10.6667 18.6667H13.3333C14.0697 18.6667 14.6667 19.2637 14.6667 20C14.6667 20.7364 14.0697 21.3334 13.3333 21.3334H10.6667C9.93029 21.3334 9.33334 20.7364 9.33334 20ZM28.9428 21.0572C29.4635 21.5779 29.4635 22.4222 28.9428 22.9429L22.9428 28.9429C22.4221 29.4635 21.5779 29.4635 21.0572 28.9429L18.3905 26.2762C17.8698 25.7555 17.8698 24.9113 18.3905 24.3906C18.9112 23.8699 19.7554 23.8699 20.2761 24.3906L22 26.1144L27.0572 21.0572C27.5779 20.5365 28.4221 20.5365 28.9428 21.0572Z" fill="#285BF3"/>
</svg>
