<svg width="32" height="32" viewBox="0 0 32 32" fill="none" xmlns="http://www.w3.org/2000/svg">
<path fill-rule="evenodd" clip-rule="evenodd" d="M4.0034 15.7082C4.00108 15.8052 3.99992 15.9025 3.99992 16C3.99992 21.4709 7.66095 26.0867 12.6667 27.5311L12.6668 26.2465C12.6668 25.7692 12.8376 25.3075 13.1483 24.9451L14.1606 25.8128L14.189 25.8371M14.1606 25.8128L13.1483 24.9451L15.9377 21.6907L12.8298 19.9147C12.5194 19.7373 12.2622 19.4799 12.085 19.1694L13.243 18.5086L12.085 19.1694L9.81452 15.1906L4.0034 15.7082M1.42508 14.3496C1.36441 14.8914 1.33325 15.4421 1.33325 16C1.33325 23.3535 6.74488 29.443 13.8028 30.5032C14.5195 30.6109 15.2532 30.6667 15.9999 30.6667C24.1001 30.6667 30.6666 24.1002 30.6666 16C30.6666 13.6686 30.1216 11.461 29.1513 9.5009C29.2682 9.02065 29.3333 8.52079 29.3333 8.00004C29.3333 4.31814 26.3485 1.33337 22.6666 1.33337C21.7197 1.33337 20.8189 1.53079 20.0031 1.88671C18.7292 1.52602 17.386 1.33337 15.9999 1.33337C8.47159 1.33337 2.26804 7.00545 1.42966 14.3092C1.42793 14.3226 1.4264 14.3361 1.42508 14.3496ZM4.37861 12.9976C5.7116 7.82314 10.4093 4.00004 15.9999 4.00004C16.4335 4.00004 16.8614 4.02298 17.2826 4.06768C16.4761 5.17008 15.9999 6.52946 15.9999 8.00004C15.9999 9.89552 16.8624 11.5143 17.9435 12.9182C18.8429 14.086 19.9941 15.2269 21.105 16.3278C21.3133 16.5342 21.5202 16.7393 21.7238 16.9429C22.2445 17.4635 23.0887 17.4635 23.6094 16.9429C23.813 16.7393 24.0199 16.5342 24.2282 16.3278C25.3391 15.2269 26.4902 14.086 27.3896 12.9182C27.4418 12.8504 27.4935 12.7821 27.5446 12.7133C27.8411 13.7571 27.9999 14.8594 27.9999 16C27.9999 22.6275 22.6273 28 15.9999 28C15.7763 28 15.554 27.9939 15.3334 27.9818L15.3335 26.4933L18.4874 22.8136C19.3045 21.8603 19.0513 20.3986 17.9611 19.7756L14.3109 17.6897L11.9186 13.4974C11.531 12.8181 10.783 12.4271 10.0041 12.4965L4.37861 12.9976ZM22.6666 4.00004C20.4574 4.00004 18.6666 5.7909 18.6666 8.00004C18.6666 9.05008 19.1375 10.098 20.0563 11.2911C20.7701 12.218 21.6668 13.1263 22.6666 14.1199C23.6663 13.1263 24.563 12.218 25.2769 11.2911C26.1957 10.098 26.6666 9.05008 26.6666 8.00004C26.6666 5.7909 24.8757 4.00004 22.6666 4.00004ZM20.9999 7.66671C20.9999 6.74623 21.7461 6.00004 22.6666 6.00004C23.5871 6.00004 24.3333 6.74623 24.3333 7.66671C24.3333 8.58718 23.5871 9.33337 22.6666 9.33337C21.7461 9.33337 20.9999 8.58718 20.9999 7.66671Z" fill="#285BF3"/>
</svg>
