<svg width="18" height="18" viewBox="0 0 18 18" fill="none" xmlns="http://www.w3.org/2000/svg">
<g id="Frame" clip-path="url(#clip0_311_36084)">
<g id="Group">
<path id="Vector" d="M9.18359 7.36366V10.8491H14.1261C13.9091 11.97 13.2578 12.9192 12.281 13.5574L15.2615 15.8238C16.9981 14.2529 17.9999 11.9456 17.9999 9.20466C17.9999 8.56649 17.9415 7.95279 17.8329 7.36375L9.18359 7.36366Z" fill="#4285F4"/>
<path id="Vector_2" d="M4.03679 10.7131L3.36457 11.2174L0.985107 13.0337C2.49624 15.971 5.59343 18.0001 9.18341 18.0001C11.663 18.0001 13.7418 17.1983 15.2613 15.8238L12.2808 13.5574C11.4626 14.0974 10.419 14.4247 9.18341 14.4247C6.79565 14.4247 4.76694 12.8456 4.04054 10.7183L4.03679 10.7131Z" fill="#34A853"/>
<path id="Vector_3" d="M0.985092 4.96639C0.358963 6.17726 0 7.54365 0 9C0 10.4563 0.358963 11.8227 0.985092 13.0336C0.985092 13.0417 4.04082 10.71 4.04082 10.71C3.85715 10.17 3.74858 9.59726 3.74858 8.9999C3.74858 8.40255 3.85715 7.82985 4.04082 7.28985L0.985092 4.96639Z" fill="#FBBC05"/>
<path id="Vector_4" d="M9.1836 3.58365C10.5361 3.58365 11.7383 4.04183 12.6985 4.92548L15.3283 2.34823C13.7337 0.891879 11.6632 0 9.1836 0C5.59362 0 2.49624 2.02092 0.985107 4.9664L4.04074 7.29005C4.76705 5.16274 6.79584 3.58365 9.1836 3.58365Z" fill="#EA4335"/>
</g>
</g>
<defs>
<clipPath id="clip0_311_36084">
<rect width="18" height="18" fill="white"/>
</clipPath>
</defs>
</svg>
