<svg width="24" height="24" viewBox="0 0 24 24" fill="none" xmlns="http://www.w3.org/2000/svg">
<path fill-rule="evenodd" clip-rule="evenodd" d="M11.8026 4.52039L11.8026 4.52039L11.8026 4.52039ZM12 4.61798L19.7639 8.49994L18.5722 9.09583C18.5596 9.1018 18.5471 9.10803 18.5348 9.11451L12 12.3819L5.46521 9.11451C5.4529 9.10803 5.44044 9.1018 5.42784 9.09583L4.23607 8.49994L12 4.61798ZM4 10.618L1.55279 9.39437C1.214 9.22498 1 8.87872 1 8.49994C1 8.12117 1.214 7.77491 1.55279 7.60552L11.195 2.7844C11.2024 2.7807 11.211 2.77633 11.2206 2.77143C11.3139 2.72382 11.507 2.62529 11.7234 2.58468C11.9062 2.55039 12.0938 2.55039 12.2766 2.58468C12.493 2.62529 12.6861 2.72382 12.7794 2.77143C12.789 2.77633 12.7976 2.7807 12.805 2.7844L22.4472 7.60552C22.786 7.77491 23 8.12117 23 8.49994C23 8.87872 22.786 9.22498 22.4472 9.39437L20 10.618V16.0111C20 16.0356 20.0001 16.0609 20.0002 16.0868C20.0012 16.3628 20.0026 16.7097 19.8907 17.0341C19.794 17.3143 19.6363 17.5696 19.4288 17.7813L18.7144 17.0816L19.4288 17.7813C19.1888 18.0264 18.8779 18.1804 18.6305 18.3029C18.6074 18.3144 18.5847 18.3256 18.5628 18.3366L13.1628 21.0366C13.1449 21.0455 13.1266 21.0547 13.1078 21.0642C12.9053 21.1663 12.6503 21.2948 12.3688 21.3476C12.1251 21.3933 11.8749 21.3933 11.6312 21.3476C11.3497 21.2948 11.0947 21.1663 10.8922 21.0642C10.8734 21.0547 10.8551 21.0455 10.8372 21.0366L5.43725 18.3366C5.41528 18.3256 5.39265 18.3144 5.36946 18.3029C5.12211 18.1804 4.81122 18.0264 4.57116 17.7813C4.36373 17.5696 4.20597 17.3143 4.10931 17.0341C3.99744 16.7097 3.99876 16.3628 3.99981 16.0868C3.9999 16.0609 4 16.0356 4 16.0111V10.618ZM6 11.618V16.0111C6 16.2027 6.00045 16.3012 6.00489 16.3725C6.00503 16.3746 6.00516 16.3767 6.00529 16.3786C6.00699 16.3796 6.00876 16.3807 6.01062 16.3818C6.0724 16.4176 6.16032 16.4621 6.33167 16.5477L5.91886 17.3734L6.33167 16.5477L11.7317 19.2477C11.872 19.3179 11.943 19.3531 11.9958 19.376C11.9973 19.3767 11.9987 19.3773 12 19.3778C12.0013 19.3773 12.0027 19.3767 12.0042 19.376C12.057 19.3531 12.128 19.3179 12.2683 19.2477L17.6683 16.5477C17.8397 16.4621 17.9276 16.4176 17.9894 16.3818C17.9912 16.3807 17.993 16.3796 17.9947 16.3786C17.9948 16.3767 17.995 16.3746 17.9951 16.3725C17.9996 16.3012 18 16.2027 18 16.0111V11.618L12.805 14.2155C12.7976 14.2192 12.789 14.2236 12.7794 14.2285C12.6861 14.2761 12.493 14.3746 12.2766 14.4152C12.0938 14.4495 11.9062 14.4495 11.7234 14.4152C11.507 14.3746 11.3139 14.2761 11.2206 14.2285C11.211 14.2236 11.2024 14.2192 11.195 14.2155L6 11.618ZM11.8026 12.4795C11.8024 12.4796 11.8024 12.4796 11.8026 12.4795L11.8026 12.4795ZM12.1974 12.4795C12.1976 12.4796 12.1976 12.4796 12.1974 12.4795L12.1974 12.4795ZM12.1974 4.52039L12.1974 4.52039L12.1974 4.52039Z" fill="white"/>
</svg>
