<svg width="20" height="20" viewBox="0 0 20 20" fill="none" xmlns="http://www.w3.org/2000/svg">
<g clip-path="url(#clip0_311_34412)">
<path fill-rule="evenodd" clip-rule="evenodd" d="M9.99998 2.49992C5.85784 2.49992 2.49998 5.85778 2.49998 9.99992C2.49998 14.1421 5.85784 17.4999 9.99998 17.4999C14.1421 17.4999 17.5 14.1421 17.5 9.99992C17.5 5.85778 14.1421 2.49992 9.99998 2.49992ZM0.833313 9.99992C0.833313 4.93731 4.93737 0.833252 9.99998 0.833252C15.0626 0.833252 19.1666 4.93731 19.1666 9.99992C19.1666 15.0625 15.0626 19.1666 9.99998 19.1666C4.93737 19.1666 0.833313 15.0625 0.833313 9.99992ZM10.2151 6.68685C9.82714 6.62031 9.42818 6.69321 9.08884 6.89264C8.74951 7.09207 8.4917 7.40516 8.36109 7.77645C8.20836 8.21061 7.7326 8.43876 7.29844 8.28603C6.86428 8.1333 6.63614 7.65754 6.78887 7.22338C7.05009 6.48079 7.5657 5.85461 8.24437 5.45575C8.92304 5.05689 9.72097 4.91109 10.4968 5.04417C11.2727 5.17726 11.9764 5.58063 12.4834 6.18286C12.9902 6.78496 13.2677 7.54698 13.2666 8.33401C13.2663 9.60931 12.3208 10.4515 11.6456 10.9016C11.2825 11.1436 10.9254 11.3216 10.6624 11.4385C10.5297 11.4975 10.4179 11.5423 10.3374 11.5729C10.2971 11.5883 10.2644 11.6002 10.2406 11.6087L10.2116 11.6188L10.2024 11.6219L10.1992 11.623L10.1979 11.6235C10.1976 11.6236 10.1968 11.6238 9.93331 10.8333L10.1968 11.6238C9.76022 11.7694 9.28828 11.5334 9.14274 11.0968C8.99725 10.6603 9.23301 10.1885 9.66935 10.0428L9.68221 10.0383C9.69503 10.0337 9.71604 10.0261 9.74407 10.0154C9.80026 9.99404 9.88382 9.96068 9.98549 9.91549C10.1912 9.82407 10.4591 9.68952 10.7211 9.51488C11.2957 9.13177 11.6 8.7242 11.6 8.33325L11.6 8.33201C11.6006 7.93841 11.4618 7.55731 11.2084 7.25619C10.9549 6.95508 10.603 6.75339 10.2151 6.68685ZM9.16665 14.1666C9.16665 13.7063 9.53974 13.3333 9.99998 13.3333H10.0083C10.4685 13.3333 10.8416 13.7063 10.8416 14.1666C10.8416 14.6268 10.4685 14.9999 10.0083 14.9999H9.99998C9.53974 14.9999 9.16665 14.6268 9.16665 14.1666Z" fill="#A8B8CB"/>
</g>
<defs>
<clipPath id="clip0_311_34412">
<rect width="20" height="20" fill="white"/>
</clipPath>
</defs>
</svg>
