<svg width="563" height="473" viewBox="0 0 563 473" fill="none" xmlns="http://www.w3.org/2000/svg">
<g clip-path="url(#clip0_311_44617)">
<rect width="336.67" height="390.228" rx="22" transform="matrix(0.866938 0.367993 -0.57376 0.893176 262.897 0)" fill="#F4F4F4"/>
<rect width="293.047" height="59.3742" rx="12" transform="matrix(0.866938 0.367993 -0.57376 0.893176 227.111 94.9053)" fill="#E5E8F1"/>
<rect width="293.047" height="190.93" rx="12" transform="matrix(0.866938 0.367993 -0.57376 0.893176 180.834 164.486)" fill="#E5E8F1"/>
<g clip-path="url(#clip1_311_44617)">
<path fill-rule="evenodd" clip-rule="evenodd" d="M293.984 48.1494C290.129 46.513 285.243 48.0892 283.07 51.67C280.898 55.2508 282.262 59.4802 286.118 61.1167C289.973 62.7531 294.859 61.1769 297.031 57.5961C299.204 54.0153 297.839 49.7859 293.984 48.1494ZM279.082 49.9769C282.495 44.3499 290.173 41.873 296.232 44.4445C302.29 47.0161 304.434 53.6623 301.02 59.2893C297.607 64.9163 289.928 67.3932 283.87 64.8216C277.812 62.2501 275.668 55.6038 279.082 49.9769ZM276.852 65.3367C276.966 65.385 277.081 65.4341 277.199 65.4838L287.171 69.7168C287.288 69.7665 287.403 69.8155 287.517 69.8638C289.965 70.9019 291.637 71.6108 292.815 72.6142C295.457 74.865 296.546 78.2403 295.717 81.6109C295.348 83.1135 294.405 84.6657 293.025 86.9388C292.961 87.0444 292.896 87.1517 292.83 87.2606C292.209 88.2837 290.813 88.734 289.712 88.2664C288.61 87.7989 288.221 86.5905 288.841 85.5674C290.491 82.8474 291.045 81.8889 291.248 81.0661C291.745 79.0437 291.092 77.0186 289.506 75.6681C288.861 75.1187 287.852 74.6647 284.923 73.4217L274.951 69.1888C272.023 67.9457 270.988 67.532 270.077 67.4209C267.838 67.148 265.499 67.9027 263.841 69.4327C263.167 70.0551 262.569 70.9952 260.919 73.7152C260.299 74.7383 258.902 75.1887 257.801 74.7211C256.699 74.2535 256.31 73.0451 256.93 72.0221C256.996 71.9132 257.061 71.8059 257.125 71.7002C258.504 69.4263 259.445 67.8737 260.676 66.7369C263.439 64.187 267.338 62.9292 271.07 63.384C272.734 63.5868 274.405 64.2968 276.852 65.3367Z" fill="#5580FF"/>
</g>
<g opacity="0.3" filter="url(#filter0_f_311_44617)">
<rect width="181.614" height="52.7061" rx="2.73405" transform="matrix(0.86817 0.365077 -0.570754 0.8951 31.8733 220.729)" fill="#323847"/>
</g>
<rect width="222.807" height="63.9974" rx="17.1991" transform="matrix(0.929683 0.368361 -0.497833 0.867273 48.675 200.677)" fill="#F4F4F4"/>
<rect width="41.6703" height="40.9392" rx="20.4696" transform="matrix(0.929683 0.368361 -0.497833 0.867273 51.5748 214.272)" fill="#5580FF"/>
<g opacity="0.46" filter="url(#filter1_f_311_44617)">
<ellipse cx="20.897" cy="19.7143" rx="20.897" ry="19.7143" transform="matrix(0.86817 0.365077 -0.570754 0.8951 49.97 215.677)" fill="#5580FF"/>
</g>
<g clip-path="url(#clip2_311_44617)">
<path fill-rule="evenodd" clip-rule="evenodd" d="M59.3264 230.7L68.5479 234.354C69.2561 234.635 69.8405 234.866 70.2972 235.089C70.7714 235.32 71.1827 235.575 71.5009 235.934C71.9944 236.49 72.2636 237.172 72.2701 237.882C72.2741 238.324 72.1434 238.74 71.9485 239.17C71.9237 239.314 71.8562 239.449 71.7559 239.564C71.574 239.915 71.345 240.314 71.082 240.772L68.2318 245.737C67.8779 246.354 67.5858 246.863 67.309 247.262C67.0214 247.677 66.7076 248.038 66.2766 248.323C65.6084 248.766 64.801 249.022 63.9703 249.053C63.4346 249.073 62.9367 248.969 62.4221 248.808C61.9265 248.653 61.3421 248.422 60.634 248.141L51.4124 244.487C50.7043 244.207 50.1198 243.975 49.6632 243.753C49.1889 243.521 48.7777 243.266 48.4595 242.907C47.966 242.351 47.6967 241.669 47.6903 240.959C47.6861 240.501 47.8266 240.071 48.0333 239.625C48.2324 239.195 48.5245 238.686 48.8784 238.069L51.7286 233.104C51.9916 232.646 52.2205 232.247 52.4344 231.908C52.4788 231.771 52.5628 231.643 52.6817 231.536C52.9611 231.14 53.2679 230.793 53.6837 230.518C54.352 230.075 55.1594 229.82 55.9901 229.788C56.5257 229.768 57.0236 229.873 57.5383 230.033C58.0338 230.188 58.6183 230.42 59.3264 230.7ZM53.4168 233.925L50.656 238.735C50.4875 239.028 50.3433 239.28 50.2205 239.5L56.0139 237.943L53.4168 233.925ZM58.3212 237.981L54.5374 232.128C54.66 231.982 54.7598 231.896 54.8522 231.835C55.1863 231.613 55.59 231.485 56.0053 231.47C56.178 231.463 56.4037 231.492 56.8052 231.617C57.2173 231.746 57.7299 231.948 58.4834 232.247L67.6323 235.872C68.3858 236.17 68.8977 236.374 69.2775 236.559C69.6474 236.739 69.8161 236.867 69.9186 236.982C70.1654 237.261 70.3 237.602 70.3032 237.957C70.3041 238.055 70.2861 238.174 70.2264 238.345L62.3705 239.586C62.357 239.588 62.3434 239.59 62.3298 239.592L61.1357 239.781C60.2701 239.918 60.0953 239.932 59.9604 239.91C59.8033 239.885 59.6571 239.827 59.5348 239.742C59.4298 239.668 59.3329 239.546 58.916 238.901L58.3408 238.012C58.3345 238.001 58.328 237.991 58.3212 237.981ZM56.9753 239.43L49.7474 241.373C49.8124 241.548 49.9114 241.712 50.0417 241.859C50.1443 241.974 50.313 242.102 50.6829 242.283C51.0627 242.468 51.5746 242.671 52.3281 242.97L61.477 246.595C62.2305 246.893 62.7431 247.096 63.1552 247.224C63.5566 247.35 63.7824 247.378 63.955 247.372C64.1744 247.363 64.3905 247.324 64.5948 247.256L61.863 241.366L61.4242 241.436C61.3782 241.443 61.3325 241.45 61.2872 241.457C60.6399 241.561 60.0716 241.651 59.5327 241.565C59.0613 241.49 58.623 241.316 58.2561 241.059C57.8366 240.766 57.5635 240.342 57.2525 239.859C57.2308 239.825 57.2088 239.791 57.1866 239.757L56.9753 239.43ZM63.8591 241.051L66.0488 245.772C66.1776 245.554 66.3221 245.302 66.4906 245.009L69.2514 240.199L63.8591 241.051Z" fill="white"/>
</g>
<rect opacity="0.2" width="139.124" height="7.99968" rx="3.6661" transform="matrix(0.929683 0.368361 -0.497833 0.867273 99.5652 240.169)" fill="#323847"/>
<rect opacity="0.2" width="84.1876" height="7.99968" rx="3.6661" transform="matrix(0.929683 0.368361 -0.497833 0.867273 91.2941 254.578)" fill="#323847"/>
<g filter="url(#filter2_b_311_44617)">
<rect x="419" y="48.4392" width="96.1493" height="96.1493" rx="48.0747" transform="rotate(-10.4499 419 48.4392)" fill="#89B4F4" fill-opacity="0.2"/>
<path d="M470.32 70.5851C470.8 68.9728 472.935 68.6374 473.886 70.0248L479.384 78.0419C479.767 78.6003 480.406 78.927 481.083 78.9102L490.801 78.6694C492.482 78.6277 493.461 80.5545 492.436 81.888L486.51 89.5937C486.097 90.1304 485.984 90.8394 486.209 91.4779L489.441 100.646C490 102.232 488.47 103.758 486.885 103.195L477.725 99.9405C477.087 99.7139 476.378 99.8253 475.84 100.237L468.12 106.144C466.784 107.166 464.86 106.182 464.905 104.501L465.17 94.7834C465.189 94.1067 464.864 93.4665 464.306 93.0823L456.303 87.5651C454.918 86.6104 455.258 84.4763 456.872 84.0002L466.195 81.2493C466.845 81.0577 467.353 80.5507 467.546 79.9018L470.32 70.5851Z" stroke="white" stroke-width="4.13"/>
<rect x="420.852" y="49.7147" width="92.9687" height="92.9687" rx="46.4843" transform="rotate(-10.4499 420.852 49.7147)" stroke="white" stroke-opacity="0.08" stroke-width="3.18066"/>
</g>
<g opacity="0.2" filter="url(#filter3_f_311_44617)">
<rect width="239.916" height="69.626" rx="3.61174" transform="matrix(0.86817 0.365077 -0.570754 0.8951 267.087 171.736)" fill="#323847"/>
</g>
<rect width="294.333" height="84.542" rx="22.7204" transform="matrix(0.929683 0.368361 -0.497833 0.867273 289.283 145.247)" fill="#F4F4F4"/>
<rect width="55.0474" height="54.0816" rx="27.0408" transform="matrix(0.929683 0.368361 -0.497833 0.867273 293.113 163.207)" fill="#5580FF"/>
<g opacity="0.46" filter="url(#filter4_f_311_44617)">
<ellipse cx="27.6054" cy="26.043" rx="27.6054" ry="26.043" transform="matrix(0.86817 0.365077 -0.570754 0.8951 290.994 165.063)" fill="#5580FF"/>
</g>
<g clip-path="url(#clip3_311_44617)">
<path fill-rule="evenodd" clip-rule="evenodd" d="M318.577 191.885L296.379 190.837L302.258 196.199C302.264 196.205 302.271 196.212 302.28 196.219C302.362 196.293 302.531 196.445 302.651 196.634C302.752 196.794 302.82 196.968 302.854 197.149C302.894 197.364 302.869 197.577 302.857 197.68C302.856 197.691 302.854 197.7 302.854 197.709L302.044 205.187L318.577 191.885ZM320.38 189.76C320.623 189.79 321.107 189.863 321.49 190.179C321.923 190.536 322.127 191.053 322.041 191.574C321.965 192.036 321.64 192.364 321.471 192.525C321.288 192.701 321.042 192.898 320.795 193.097L303.256 207.208C302.98 207.43 302.713 207.645 302.482 207.801C302.283 207.936 301.85 208.22 301.274 208.245C300.638 208.274 300.038 208.035 299.665 207.607C299.327 207.218 299.32 206.76 299.321 206.547C299.323 206.3 299.356 205.992 299.391 205.674L300.256 197.681L294.006 191.981C293.994 191.97 293.983 191.96 293.972 191.95C293.723 191.723 293.48 191.502 293.306 191.31C293.155 191.145 292.839 190.785 292.829 190.292C292.818 189.749 293.118 189.226 293.632 188.891C294.098 188.587 294.634 188.564 294.884 188.557C295.173 188.549 295.532 188.566 295.903 188.583C295.919 188.584 295.935 188.585 295.951 188.586L319.452 189.696C319.783 189.711 320.114 189.727 320.38 189.76Z" fill="white"/>
</g>
<rect opacity="0.2" width="183.785" height="10.5678" rx="4.84299" transform="matrix(0.929683 0.368361 -0.497833 0.867273 356.51 197.417)" fill="#323847"/>
<rect opacity="0.2" width="111.214" height="10.5678" rx="4.84299" transform="matrix(0.929683 0.368361 -0.497833 0.867273 345.584 216.452)" fill="#323847"/>
</g>
<defs>
<filter id="filter0_f_311_44617" x="-75.7806" y="142.866" width="342.897" height="269.207" filterUnits="userSpaceOnUse" color-interpolation-filters="sRGB">
<feFlood flood-opacity="0" result="BackgroundImageFix"/>
<feBlend mode="normal" in="SourceGraphic" in2="BackgroundImageFix" result="shape"/>
<feGaussianBlur stdDeviation="39.3324" result="effect1_foregroundBlur_311_44617"/>
</filter>
<filter id="filter1_f_311_44617" x="3.61267" y="189.827" width="106.495" height="102.252" filterUnits="userSpaceOnUse" color-interpolation-filters="sRGB">
<feFlood flood-opacity="0" result="BackgroundImageFix"/>
<feBlend mode="normal" in="SourceGraphic" in2="BackgroundImageFix" result="shape"/>
<feGaussianBlur stdDeviation="15.9482" result="effect1_foregroundBlur_311_44617"/>
</filter>
<filter id="filter2_b_311_44617" x="389.91" y="1.9099" width="170.174" height="170.174" filterUnits="userSpaceOnUse" color-interpolation-filters="sRGB">
<feFlood flood-opacity="0" result="BackgroundImageFix"/>
<feGaussianBlur in="BackgroundImageFix" stdDeviation="14.545"/>
<feComposite in2="SourceAlpha" operator="in" result="effect1_backgroundBlur_311_44617"/>
<feBlend mode="normal" in="SourceGraphic" in2="effect1_backgroundBlur_311_44617" result="shape"/>
</filter>
<filter id="filter3_f_311_44617" x="124.874" y="68.8775" width="452.975" height="355.628" filterUnits="userSpaceOnUse" color-interpolation-filters="sRGB">
<feFlood flood-opacity="0" result="BackgroundImageFix"/>
<feBlend mode="normal" in="SourceGraphic" in2="BackgroundImageFix" result="shape"/>
<feGaussianBlur stdDeviation="51.959" result="effect1_foregroundBlur_311_44617"/>
</filter>
<filter id="filter4_f_311_44617" x="229.755" y="130.914" width="140.682" height="135.077" filterUnits="userSpaceOnUse" color-interpolation-filters="sRGB">
<feFlood flood-opacity="0" result="BackgroundImageFix"/>
<feBlend mode="normal" in="SourceGraphic" in2="BackgroundImageFix" result="shape"/>
<feGaussianBlur stdDeviation="21.0679" result="effect1_foregroundBlur_311_44617"/>
</filter>
<clipPath id="clip0_311_44617">
<rect width="562.919" height="472.435" fill="white"/>
</clipPath>
<clipPath id="clip1_311_44617">
<rect width="52" height="52" fill="white" transform="matrix(0.920505 0.390731 -0.518656 0.854983 274.546 30.5806)"/>
</clipPath>
<clipPath id="clip2_311_44617">
<rect width="22.7097" height="21.1957" fill="white" transform="matrix(0.929683 0.368361 -0.497833 0.867273 54.6997 226.047)"/>
</clipPath>
<clipPath id="clip3_311_44617">
<rect width="30" height="28" fill="white" transform="matrix(0.929683 0.368361 -0.497833 0.867273 297.242 178.761)"/>
</clipPath>
</defs>
</svg>
