<svg width="25" height="24" viewBox="0 0 25 24" fill="none" xmlns="http://www.w3.org/2000/svg">
<path fill-rule="evenodd" clip-rule="evenodd" d="M8.0922 2H16.5748C17.3798 1.99999 18.0441 1.99998 18.5853 2.04419C19.1474 2.09012 19.6641 2.18868 20.1495 2.43597C20.9021 2.81947 21.514 3.43139 21.8975 4.18404C22.1448 4.66937 22.2434 5.18608 22.2893 5.74817C22.3335 6.28936 22.3335 6.95372 22.3335 7.75868V16.2413C22.3335 17.0463 22.3335 17.7106 22.2893 18.2518C22.2434 18.8139 22.1448 19.3306 21.8975 19.816C21.514 20.5686 20.9021 21.1805 20.1495 21.564C19.6641 21.8113 19.1474 21.9099 18.5853 21.9558C18.0441 22 17.3798 22 16.5748 22H8.09217C7.28721 22 6.62286 22 6.08167 21.9558C5.51957 21.9099 5.00287 21.8113 4.51753 21.564C3.76489 21.1805 3.15296 20.5686 2.76947 19.816C2.52218 19.3306 2.42362 18.8139 2.37769 18.2518C2.34957 17.9076 2.33934 17.5136 2.33562 17.0653C2.3331 17.0265 2.33282 16.9877 2.3348 16.9489C2.33349 16.7261 2.33349 16.4905 2.3335 16.2413V7.7587C2.33348 6.95373 2.33347 6.28937 2.37769 5.74817C2.42362 5.18608 2.52218 4.66937 2.76947 4.18404C3.15296 3.43139 3.76489 2.81947 4.51753 2.43597C5.00287 2.18868 5.51957 2.09012 6.08167 2.04419C6.62287 1.99998 7.28723 1.99999 8.0922 2ZM4.34044 17.4073C4.34569 17.668 4.3549 17.8913 4.37105 18.089C4.40687 18.5274 4.47179 18.7516 4.55148 18.908C4.74323 19.2843 5.04919 19.5903 5.42552 19.782C5.58192 19.8617 5.80612 19.9266 6.24453 19.9624C6.69462 19.9992 7.27692 20 8.1335 20H16.5335C17.3901 20 17.9724 19.9992 18.4225 19.9624C18.8609 19.9266 19.0851 19.8617 19.2415 19.782C19.6178 19.5903 19.9238 19.2843 20.1155 18.908C20.1952 18.7516 20.2601 18.5274 20.2959 18.089C20.3327 17.6389 20.3335 17.0566 20.3335 16.2V7.8C20.3335 6.94342 20.3327 6.36113 20.2959 5.91104C20.2601 5.47262 20.1952 5.24842 20.1155 5.09202C19.9238 4.7157 19.6178 4.40973 19.2415 4.21799C19.0851 4.1383 18.8609 4.07337 18.4225 4.03755C17.9724 4.00078 17.3901 4 16.5335 4H8.1335C7.27692 4 6.69462 4.00078 6.24453 4.03755C5.80612 4.07337 5.58192 4.1383 5.42552 4.21799C5.04919 4.40973 4.74323 4.7157 4.55148 5.09202C4.47179 5.24842 4.40687 5.47262 4.37105 5.91104C4.33427 6.36113 4.3335 6.94342 4.3335 7.8V14.5858L7.0607 11.8586C7.06608 11.8532 7.07154 11.8477 7.07706 11.8422C7.16126 11.758 7.26181 11.6573 7.35766 11.576C7.46874 11.4817 7.63734 11.3561 7.86997 11.2805C8.17124 11.1826 8.49576 11.1826 8.79702 11.2805C9.02966 11.3561 9.19825 11.4817 9.30933 11.5759C9.40519 11.6573 9.50574 11.758 9.58994 11.8422C9.59546 11.8477 9.60091 11.8532 9.60629 11.8586L11.3335 13.5858L14.9193 10H13.3335C12.7812 10 12.3335 9.55229 12.3335 9C12.3335 8.44772 12.7812 8 13.3335 8H17.3335C17.8858 8 18.3335 8.44772 18.3335 9V13C18.3335 13.5523 17.8858 14 17.3335 14C16.7812 14 16.3335 13.5523 16.3335 13V11.4142L12.6063 15.1414C12.6009 15.1468 12.5955 15.1523 12.5899 15.1578C12.5057 15.242 12.4052 15.3427 12.3093 15.4241C12.1983 15.5183 12.0297 15.6439 11.797 15.7195C11.4958 15.8174 11.1712 15.8174 10.87 15.7195C10.6373 15.6439 10.4687 15.5183 10.3577 15.4241C10.2618 15.3427 10.1613 15.2421 10.0771 15.1578C10.0715 15.1523 10.0661 15.1468 10.0607 15.1414L8.3335 13.4142L4.34044 17.4073Z" fill="white"/>
</svg>
