<svg width="584" height="476" viewBox="0 0 584 476" fill="none" xmlns="http://www.w3.org/2000/svg">
<g filter="url(#filter0_b_1978_35210)">
<g clip-path="url(#clip0_1978_35210)">
<rect x="142.816" y="42.0208" width="340.319" height="340.319" rx="170.16" transform="rotate(9.52817 142.816 42.0208)" fill="url(#paint0_linear_1978_35210)" fill-opacity="0.26"/>
<g clip-path="url(#clip1_1978_35210)">
<path fill-rule="evenodd" clip-rule="evenodd" d="M238.472 147.176C230.732 150.065 224.297 155.1 221.475 162.092C221.014 162.919 220.684 163.838 220.519 164.826L205.704 253.091C204.144 262.384 209.003 270.979 216.635 277.277C224.309 283.609 234.548 287.603 244.704 289.307C244.952 289.349 245.2 289.389 245.449 289.428L245.114 291.425C244.611 294.422 245.745 297.46 248.09 299.395L288.431 332.683C288.494 332.738 288.559 332.793 288.624 332.847C290.887 334.714 293.945 335.28 296.716 334.361C296.817 334.327 296.919 334.292 297.019 334.254L297.071 334.235L346.254 315.873C349.101 314.81 351.166 312.309 351.669 309.312L360.345 257.643L360.375 257.478C360.878 254.48 359.744 251.442 357.399 249.507L316.859 216.058C314.514 214.123 311.316 213.586 308.469 214.649L259.447 232.948C259.373 232.974 259.299 233 259.225 233.028C256.377 234.091 254.313 236.593 253.81 239.59L248.264 272.646C248.017 272.608 247.769 272.568 247.521 272.526C239.53 271.185 232.293 268.136 227.464 264.152C222.593 260.133 222.286 257.091 222.485 255.907L233.176 192.212C240.581 197.646 249.947 201.124 259.244 202.685C268.54 204.245 278.528 204.015 287.302 201.297L283.496 223.969L301.904 217.099L308.207 179.544C308.373 178.557 308.361 177.58 308.196 176.648C307.812 169.118 303.373 162.257 297.001 157C289.326 150.667 279.087 146.673 268.931 144.969C258.775 143.264 247.794 143.696 238.472 147.176ZM266.114 161.75C258.123 160.409 250.288 160.928 244.422 163.117C238.575 165.3 237.254 168.036 237.032 169.242L237.024 169.287C236.826 170.472 237.135 173.512 242.003 177.529C246.832 181.513 254.069 184.562 262.06 185.904C270.051 187.245 277.887 186.726 283.752 184.536C289.669 182.328 290.952 179.553 291.15 178.369C291.349 177.186 291.043 174.144 286.171 170.125C281.342 166.14 274.105 163.091 266.114 161.75ZM262.708 289.396L288.09 310.34L293.536 277.886L268.153 256.94L262.708 289.396ZM335.701 301.65L304.872 313.159L310.32 280.705L341.151 269.195L335.701 301.65ZM309.818 232.309L335.202 253.253L304.371 264.762L278.986 243.817L309.818 232.309Z" fill="white"/>
</g>
<g filter="url(#filter1_f_1978_35210)">
<rect x="287.956" y="320.45" width="118" height="118" transform="rotate(20.6484 287.956 320.45)" fill="#285BF3"/>
</g>
</g>
<rect x="143.202" y="42.5625" width="339.379" height="339.379" rx="169.689" transform="rotate(9.52817 143.202 42.5625)" stroke="white" stroke-opacity="0.16" stroke-width="0.94071"/>
</g>
<g filter="url(#filter2_b_1978_35210)">
<rect x="380.45" y="276.656" width="108.678" height="108.678" rx="54.3388" transform="rotate(-4.61456 380.45 276.656)" fill="#285BF3"/>
<g clip-path="url(#clip2_1978_35210)">
<path fill-rule="evenodd" clip-rule="evenodd" d="M416.881 311.844C416.899 311.858 416.918 311.872 416.938 311.887C417.32 312.165 418.004 312.495 419.043 312.78C421.102 313.346 424.058 313.606 427.392 313.337C430.726 313.068 433.603 312.337 435.544 311.448C436.524 311 437.146 310.565 437.479 310.229C437.496 310.211 437.513 310.194 437.528 310.178C437.51 310.164 437.492 310.15 437.471 310.135C437.089 309.857 436.405 309.527 435.366 309.242C433.308 308.676 430.351 308.416 427.017 308.685C423.683 308.954 420.806 309.685 418.865 310.574C417.885 311.022 417.263 311.457 416.931 311.793C416.913 311.811 416.896 311.828 416.881 311.844ZM438.625 315.115C438.259 315.321 437.877 315.513 437.486 315.692C434.934 316.86 431.498 317.687 427.768 317.988C424.037 318.289 420.514 318.024 417.807 317.28C417.589 317.22 417.374 317.157 417.161 317.089L417.478 321.011C417.508 321.043 417.558 321.089 417.634 321.149C417.954 321.397 418.543 321.707 419.469 321.989C421.303 322.549 423.973 322.857 427.055 322.71C427.414 322.693 427.777 322.669 428.143 322.64C429.428 322.536 430.553 323.493 430.657 324.778C430.76 326.062 429.803 327.188 428.519 327.291C428.101 327.325 427.687 327.352 427.278 327.371C423.823 327.536 420.59 327.211 418.106 326.452C418.041 326.433 417.976 326.412 417.912 326.392L418.229 330.315C418.266 330.354 418.331 330.414 418.44 330.493C418.822 330.772 419.506 331.101 420.545 331.386C422.603 331.952 425.56 332.212 428.894 331.943C430.179 331.839 431.304 332.797 431.408 334.081C431.511 335.365 430.554 336.491 429.27 336.594C425.539 336.896 422.016 336.63 419.308 335.886C419.091 335.827 418.875 335.763 418.663 335.695L418.979 339.618C419.017 339.657 419.082 339.717 419.191 339.796C419.573 340.075 420.257 340.404 421.296 340.69C423.354 341.255 426.311 341.515 429.645 341.246C430.929 341.142 432.055 342.1 432.158 343.384C432.262 344.669 431.305 345.794 430.02 345.898C426.29 346.199 422.766 345.933 420.059 345.189C418.715 344.82 417.445 344.298 416.443 343.568C415.449 342.844 414.467 341.716 414.34 340.14L412.087 312.231C411.96 310.656 412.748 309.385 413.613 308.511C414.486 307.629 415.656 306.91 416.923 306.33C419.476 305.162 422.911 304.335 426.641 304.034C430.372 303.733 433.895 303.998 436.603 304.742C437.946 305.111 439.217 305.633 440.219 306.363C441.213 307.087 442.195 308.216 442.322 309.791L442.604 313.279C442.707 314.564 441.75 315.689 440.466 315.793C439.755 315.85 439.093 315.583 438.625 315.115ZM439.033 325.272C439.051 325.286 439.07 325.3 439.09 325.315C439.472 325.593 440.156 325.923 441.195 326.208C443.254 326.774 446.21 327.034 449.544 326.765C452.879 326.496 455.755 325.765 457.696 324.877C458.676 324.428 459.298 323.993 459.631 323.657C459.649 323.639 459.665 323.622 459.68 323.606C459.663 323.592 459.644 323.578 459.623 323.563C459.241 323.285 458.557 322.955 457.518 322.67C455.46 322.104 452.503 321.844 449.169 322.113C445.835 322.382 442.958 323.113 441.017 324.002C440.038 324.45 439.415 324.885 439.083 325.221C439.065 325.239 439.048 325.256 439.033 325.272ZM460.245 328.827C460.046 328.928 459.844 329.026 459.639 329.12C457.086 330.288 453.65 331.115 449.92 331.416C446.189 331.717 442.666 331.452 439.959 330.708C439.741 330.648 439.526 330.585 439.313 330.517L439.583 333.858C439.62 333.898 439.686 333.958 439.794 334.037C440.176 334.315 440.86 334.644 441.899 334.93C443.958 335.496 446.914 335.756 450.248 335.486C453.582 335.217 456.459 334.487 458.4 333.598C459.38 333.15 460.002 332.715 460.335 332.379C460.429 332.283 460.484 332.214 460.515 332.169L460.245 328.827ZM460.949 337.549C460.75 337.65 460.548 337.747 460.343 337.841C457.79 339.01 454.354 339.837 450.624 340.138C446.893 340.439 443.37 340.174 440.663 339.43C440.445 339.37 440.23 339.306 440.017 339.238L440.287 342.58C440.324 342.619 440.39 342.679 440.498 342.758C440.88 343.037 441.564 343.366 442.603 343.652C444.662 344.217 447.618 344.477 450.952 344.208C454.286 343.939 457.163 343.208 459.104 342.32C460.084 341.871 460.706 341.436 461.039 341.1C461.133 341.005 461.188 340.935 461.219 340.891L460.949 337.549ZM465.882 340.662C466.009 342.237 465.221 343.508 464.356 344.383C463.484 345.264 462.314 345.983 461.046 346.563C458.494 347.732 455.058 348.558 451.328 348.86C447.597 349.161 444.074 348.896 441.367 348.151C440.023 347.782 438.753 347.26 437.75 346.53C436.756 345.806 435.774 344.678 435.647 343.102L434.239 325.659C434.112 324.084 434.9 322.813 435.766 321.939C436.638 321.057 437.808 320.338 439.075 319.758C441.628 318.59 445.063 317.763 448.794 317.462C452.524 317.161 456.048 317.426 458.755 318.17C460.099 318.539 461.369 319.061 462.371 319.791C463.365 320.515 464.347 321.644 464.474 323.219L465.882 340.662Z" fill="white"/>
</g>
<rect x="381.527" y="277.572" width="106.678" height="106.678" rx="53.3388" transform="rotate(-4.61456 381.527 277.572)" stroke="white" stroke-opacity="0.08" stroke-width="2"/>
</g>
<g filter="url(#filter3_b_1978_35210)">
<rect x="99.0684" y="88.4563" width="77.1365" height="77.1365" rx="38.5683" transform="rotate(-9.13427 99.0684 88.4563)" fill="white" fill-opacity="0.2"/>
<g clip-path="url(#clip3_1978_35210)">
<path fill-rule="evenodd" clip-rule="evenodd" d="M140.772 106.79L140.772 106.79L140.772 106.79ZM141.096 106.89L153.867 110.899L142.997 118.71L130.226 114.701L141.096 106.89ZM142.72 118.907C142.72 118.907 142.72 118.907 142.72 118.907L142.72 118.907ZM143.321 118.811C143.321 118.811 143.321 118.811 143.321 118.811L143.321 118.811ZM141.373 106.693L141.373 106.693L141.373 106.693ZM140.177 103.862C140.447 103.765 140.733 103.719 141.019 103.726C141.359 103.735 141.677 103.838 141.831 103.888C141.847 103.893 141.861 103.897 141.873 103.901L157.733 108.881C158.291 109.056 158.701 109.531 158.794 110.107C158.887 110.684 158.646 111.264 158.171 111.604L144.671 121.305C144.661 121.312 144.649 121.321 144.635 121.331C144.505 121.426 144.235 121.624 143.916 121.738C143.646 121.835 143.36 121.881 143.073 121.874C142.734 121.865 142.416 121.762 142.262 121.713C142.246 121.707 142.232 121.703 142.22 121.699L126.359 116.719C125.802 116.544 125.392 116.07 125.299 115.493C125.206 114.916 125.447 114.337 125.922 113.996L139.422 104.295C139.432 104.288 139.444 104.279 139.457 104.269C139.588 104.174 139.858 103.977 140.177 103.862ZM126.574 122.399C126.829 121.586 127.695 121.134 128.507 121.389L144.221 126.323L157.596 116.712C158.287 116.215 159.251 116.373 159.748 117.065C160.245 117.756 160.087 118.72 159.395 119.217L145.895 128.917C145.885 128.925 145.873 128.934 145.859 128.943C145.729 129.039 145.459 129.236 145.14 129.351C144.87 129.448 144.584 129.494 144.297 129.486C143.958 129.477 143.64 129.375 143.486 129.325C143.47 129.32 143.456 129.315 143.444 129.312L127.583 124.332C126.771 124.077 126.319 123.211 126.574 122.399ZM143.944 126.52C143.944 126.52 143.944 126.52 143.944 126.52L143.944 126.52ZM144.545 126.423C144.545 126.423 144.545 126.423 144.545 126.423L144.545 126.423ZM127.798 130.011C128.053 129.199 128.919 128.747 129.731 129.002L145.445 133.935L158.82 124.325C159.511 123.828 160.475 123.986 160.972 124.677C161.469 125.369 161.311 126.332 160.619 126.829L147.119 136.53C147.109 136.537 147.097 136.546 147.083 136.556C146.953 136.651 146.683 136.849 146.364 136.963C146.094 137.06 145.808 137.106 145.521 137.099C145.182 137.09 144.864 136.987 144.71 136.938C144.694 136.932 144.68 136.928 144.668 136.924L128.807 131.944C127.995 131.689 127.543 130.824 127.798 130.011Z" fill="white"/>
</g>
<rect x="99.952" y="89.0951" width="75.5945" height="75.5945" rx="37.7972" transform="rotate(-9.13427 99.952 89.0951)" stroke="white" stroke-opacity="0.08" stroke-width="1.54205"/>
</g>
<defs>
<filter id="filter0_b_1978_35210" x="71.3424" y="26.8812" width="422.238" height="422.238" filterUnits="userSpaceOnUse" color-interpolation-filters="sRGB">
<feFlood flood-opacity="0" result="BackgroundImageFix"/>
<feGaussianBlur in="BackgroundImageFix" stdDeviation="7.56977"/>
<feComposite in2="SourceAlpha" operator="in" result="effect1_backgroundBlur_1978_35210"/>
<feBlend mode="normal" in="SourceGraphic" in2="effect1_backgroundBlur_1978_35210" result="shape"/>
</filter>
<filter id="filter1_f_1978_35210" x="70.3452" y="144.45" width="504.031" height="504.031" filterUnits="userSpaceOnUse" color-interpolation-filters="sRGB">
<feFlood flood-opacity="0" result="BackgroundImageFix"/>
<feBlend mode="normal" in="SourceGraphic" in2="BackgroundImageFix" result="shape"/>
<feGaussianBlur stdDeviation="88" result="effect1_foregroundBlur_1978_35210"/>
</filter>
<filter id="filter2_b_1978_35210" x="341.806" y="229.268" width="194.357" height="194.357" filterUnits="userSpaceOnUse" color-interpolation-filters="sRGB">
<feFlood flood-opacity="0" result="BackgroundImageFix"/>
<feGaussianBlur in="BackgroundImageFix" stdDeviation="19.322"/>
<feComposite in2="SourceAlpha" operator="in" result="effect1_backgroundBlur_1978_35210"/>
<feBlend mode="normal" in="SourceGraphic" in2="effect1_backgroundBlur_1978_35210" result="shape"/>
</filter>
<filter id="filter3_b_1978_35210" x="82.2426" y="59.3852" width="122.055" height="122.055" filterUnits="userSpaceOnUse" color-interpolation-filters="sRGB">
<feFlood flood-opacity="0" result="BackgroundImageFix"/>
<feGaussianBlur in="BackgroundImageFix" stdDeviation="8.41287"/>
<feComposite in2="SourceAlpha" operator="in" result="effect1_backgroundBlur_1978_35210"/>
<feBlend mode="normal" in="SourceGraphic" in2="effect1_backgroundBlur_1978_35210" result="shape"/>
</filter>
<linearGradient id="paint0_linear_1978_35210" x1="312.976" y1="42.0208" x2="532.458" y2="430.416" gradientUnits="userSpaceOnUse">
<stop stop-color="white"/>
<stop offset="1" stop-color="white" stop-opacity="0"/>
</linearGradient>
<clipPath id="clip0_1978_35210">
<rect x="142.816" y="42.0208" width="340.319" height="340.319" rx="170.16" transform="rotate(9.52817 142.816 42.0208)" fill="white"/>
</clipPath>
<clipPath id="clip1_1978_35210">
<rect width="204.192" height="204.192" fill="white" transform="translate(198.674 120.413) rotate(9.52817)"/>
</clipPath>
<clipPath id="clip2_1978_35210">
<rect width="56" height="56" fill="white" transform="translate(408.822 300.79) rotate(-4.61456)"/>
</clipPath>
<clipPath id="clip3_1978_35210">
<rect width="37.0093" height="37.0093" fill="white" transform="translate(122.062 105.08) rotate(-9.13427)"/>
</clipPath>
</defs>
</svg>
