<svg width="136" height="28" viewBox="0 0 136 28" fill="none" xmlns="http://www.w3.org/2000/svg">
<g id="Layer_1" clip-path="url(#clip0_311_36009)">
<path id="Vector" fill-rule="evenodd" clip-rule="evenodd" d="M27.0257 13.7021C27.0257 6.13617 20.9743 0 13.5129 0C6.05141 0 0 6.13617 0 13.7021C0 21.2681 6.05141 27.4043 13.5129 27.4043C20.9743 27.4043 27.0257 21.2681 27.0257 13.7021Z" fill="#FC3F1D"/>
<path id="Vector_2" fill-rule="evenodd" clip-rule="evenodd" d="M15.3145 7.76454H14.071C11.7601 7.76454 10.5752 8.96596 10.5752 10.6738C10.5752 12.6199 11.4173 13.5333 13.1113 14.7248L14.5214 15.6979L10.4675 21.8638H7.42224L11.0844 16.383C8.99874 14.844 7.81392 13.3546 7.81392 10.9021C7.81392 7.76454 9.95835 5.64965 14.0612 5.64965H18.115V21.9234H15.2949V7.76454H15.3145Z" fill="white"/>
<path id="Vector_3" fill-rule="evenodd" clip-rule="evenodd" d="M42.7124 0.029789C36.7197 0.029789 31.8629 4.95461 31.8629 11.0312C31.8629 14.0695 33.0771 16.8199 35.0355 18.8057C37.0037 20.8014 41.6255 23.6809 41.8996 26.7092C41.9388 27.166 42.2619 27.5333 42.7124 27.5333C43.1628 27.5333 43.4859 27.166 43.5251 26.7092C43.7993 23.6809 48.4211 20.8014 50.3892 18.8057C52.3476 16.8099 53.5618 14.0596 53.5618 11.0312C53.5618 4.95461 48.705 0.029789 42.7124 0.029789Z" fill="#FF4433"/>
<path id="Vector_4" fill-rule="evenodd" clip-rule="evenodd" d="M42.7123 14.8837C44.8078 14.8837 46.5116 13.156 46.5116 11.0312C46.5116 8.90638 44.8078 7.17872 42.7123 7.17872C40.6169 7.17872 38.9131 8.90638 38.9131 11.0312C38.9131 13.156 40.6169 14.8837 42.7123 14.8837Z" fill="white"/>
<path id="Vector_5" fill-rule="evenodd" clip-rule="evenodd" d="M125.18 20.9206H123.564V16.1447H125.258C126.756 16.1447 127.628 16.8298 127.628 18.5475C127.628 20.2653 126.659 20.9206 125.17 20.9206H125.18ZM132.514 8.78724V23.7106H136V8.78724H132.514ZM120.088 8.78724V23.7106H125.386C128.813 23.7106 131.231 21.9333 131.231 18.4284C131.231 15.1021 129.067 13.3546 125.435 13.3546H123.564V8.78724H120.088ZM118.042 11.5773V8.78724H106.37V11.5773H110.463V23.7106H113.939V11.5773H118.032H118.042ZM99.1824 21.2184C97.3415 21.2184 96.3917 19.7092 96.3917 16.2738C96.3917 12.8383 97.3904 11.2993 99.3488 11.2993C101.307 11.2993 102.179 12.8085 102.179 16.244C102.179 19.6794 101.18 21.2184 99.1726 21.2184H99.1824ZM96.1371 8.79716H92.9155V28H96.3917V21.9532C97.273 23.2837 98.5557 23.9887 100.054 23.9887C103.442 23.9887 105.782 21.2383 105.782 16.2241C105.782 11.2099 103.501 8.48936 100.23 8.48936C98.5851 8.48936 97.2436 9.2539 96.3133 10.7035L96.1371 8.77731V8.79716ZM86.6389 20.156C86.1983 20.8113 85.3758 21.3475 84.1518 21.3475C82.6928 21.3475 81.9584 20.5135 81.9584 19.2426C81.9584 17.5447 83.1628 16.9291 86.1493 16.9291H86.6487V20.156H86.6389ZM90.1151 13.5433C90.1151 9.92908 88.2938 8.5688 84.612 8.5688C82.3011 8.5688 80.4896 9.30355 79.4321 9.93901V12.878C80.3623 12.1532 82.4088 11.3887 84.2007 11.3887C85.8654 11.3887 86.6291 11.9745 86.6291 13.583V14.4071H86.071C80.7442 14.4071 78.3843 16.1943 78.3843 19.2128C78.3843 22.2312 80.1958 23.9291 82.8886 23.9291C84.9351 23.9291 85.8164 23.244 86.4823 22.539H86.6291C86.6585 22.9262 86.776 23.4227 86.8837 23.7305H90.2815C90.164 22.5191 90.1053 21.2979 90.1053 20.0865V13.5532L90.1151 13.5433ZM74.1151 23.7206H78.2375L71.011 12.8979L77.5618 3.1078H73.9682L67.672 12.5901V3.09787H64.1371V23.7106H67.672V14.0397L74.1151 23.7106V23.7206Z" fill="black"/>
</g>
<defs>
<clipPath id="clip0_311_36009">
<rect width="136" height="28" fill="white"/>
</clipPath>
</defs>
</svg>
