<svg width="146" height="29" viewBox="0 0 146 29" fill="none" xmlns="http://www.w3.org/2000/svg">
<g id="Frame" clip-path="url(#clip0_311_36033)">
<path id="Vector" d="M5.42004 21.2385C6.22993 22.2706 6.96704 23.3577 7.62602 24.4921C8.18866 25.5591 8.42319 26.2825 8.83444 27.5679C9.08658 28.2781 9.3145 28.4901 9.80447 28.4901C10.3385 28.4901 10.5807 28.1295 10.7679 27.5718C11.1566 26.3579 11.4616 25.4313 11.9427 24.556C12.8869 22.8659 14.0601 21.364 15.2129 19.9205C15.525 19.512 17.5427 17.1321 18.4511 15.2542C18.4511 15.2542 19.5676 13.1914 19.5676 10.3105C19.5676 7.6156 18.4665 5.74655 18.4665 5.74655L15.2966 6.59547L13.3714 11.6659L12.8952 12.365L12.7999 12.4917L12.6733 12.6502L12.4509 12.9035L12.1332 13.2211L10.4189 14.6178L6.13298 17.0924L5.42004 21.2385Z" fill="#34A853"/>
<path id="Vector_2" d="M0.99646 14.9074C2.04247 17.2967 4.05961 19.397 5.42438 21.2402L12.6732 12.6535C12.6732 12.6535 11.652 13.9891 9.79945 13.9891C7.73606 13.9891 6.06905 12.3414 6.06905 10.2637C6.06905 8.83889 6.92623 7.86005 6.92623 7.86005L2.00558 9.17857L0.99646 14.9074Z" fill="#FBBC04"/>
<path id="Vector_3" d="M12.7542 0.93602C15.1617 1.71227 17.2224 3.34184 18.4688 5.74491L12.6755 12.6486C12.6755 12.6486 13.5327 11.6521 13.5327 10.2361C13.5327 8.10999 11.7424 6.52171 9.80835 6.52171C7.97949 6.52171 6.92908 7.85509 6.92908 7.85509V3.5059L12.7542 0.93602Z" fill="#4285F4"/>
<path id="Vector_4" d="M2.32434 3.98651C3.76233 2.2661 6.29257 0.494492 9.78073 0.494492C11.4731 0.494492 12.7481 0.93877 12.7481 0.93877L6.92348 7.85894H2.7967L2.32434 3.98651Z" fill="#1A73E8"/>
<path id="Vector_5" d="M0.996508 14.9074C0.996508 14.9074 0.0341797 13.0229 0.0341797 10.2928C0.0341797 7.7125 1.03725 5.45698 2.32439 3.98651L6.92683 7.8595L0.996508 14.9074Z" fill="#EA4335"/>
<g id="Group">
<path id="Vector_6" d="M100.026 23.2011V8.4871H101.917L107.034 17.447H107.116L112.233 8.4871H114.124V23.2011H112.233V14.467L112.316 12.0006H112.233L107.631 20.0769H106.522L101.919 12.0006H101.837L101.919 14.467V23.2006L100.026 23.2011ZM119.651 23.5094C118.583 23.5094 117.689 23.2011 116.97 22.5845C116.252 21.9679 115.891 21.1532 115.891 20.1391C115.891 19.038 116.315 18.1836 117.165 17.5598C118.015 16.9361 119.062 16.625 120.303 16.625C121.413 16.625 122.324 16.8304 123.037 17.2416V16.9537C123.037 16.2138 122.783 15.6214 122.277 15.1766C121.77 14.7318 121.147 14.5088 120.406 14.5088C119.858 14.5088 119.362 14.6387 118.917 14.8942C118.472 15.1496 118.167 15.5108 118.003 15.9622L116.277 15.2228C116.509 14.62 116.969 14.0667 117.653 13.5481C118.337 13.0295 119.242 12.7774 120.365 12.7774C121.654 12.7774 122.722 13.1545 123.571 13.9076C124.421 14.6608 124.845 15.7233 124.845 17.0935V23.1819H123.037V21.7835H122.955C122.2 22.9396 121.098 23.5094 119.651 23.5094ZM119.96 21.7835C120.74 21.7835 121.449 21.4917 122.086 20.9104C122.724 20.329 123.042 19.6442 123.042 18.8459C122.508 18.4071 121.706 18.188 120.638 18.188C119.72 18.188 119.028 18.3862 118.562 18.7842C118.097 19.1823 117.863 19.6475 117.863 20.1815C117.863 20.6748 118.076 21.0651 118.5 21.353C118.925 21.6409 119.411 21.7846 119.959 21.7846L119.96 21.7835ZM131.929 23.5094C131.162 23.5094 130.474 23.3443 129.865 23.0162C129.256 22.688 128.8 22.2762 128.499 21.783H128.417L128.499 23.1802V27.6191H126.609V13.1116H128.418V14.5088H128.501C128.802 14.0155 129.257 13.6048 129.866 13.2756C130.475 12.9464 131.164 12.7823 131.93 12.7823C133.232 12.7823 134.355 13.296 135.301 14.3238C136.246 15.3517 136.719 16.625 136.719 18.1462C136.719 19.6673 136.245 20.9412 135.301 21.9685C134.356 22.9958 133.232 23.51 131.93 23.51L131.929 23.5094ZM131.621 21.7835C132.498 21.7835 133.251 21.451 133.881 20.7926C134.512 20.1341 134.827 19.2478 134.827 18.1517C134.827 17.0556 134.512 16.1698 133.881 15.5108C133.251 14.8518 132.497 14.5198 131.621 14.5198C130.731 14.5198 129.973 14.8485 129.35 15.5064C128.727 16.1643 128.416 17.0479 128.416 18.1572C128.416 19.2665 128.727 20.1501 129.35 20.808C129.973 21.4659 130.73 21.7945 131.621 21.7945V21.7835ZM141.742 23.5094C140.619 23.5094 139.691 23.2353 138.958 22.6875C138.225 22.1397 137.692 21.4543 137.345 20.6324L139.029 19.9332C139.563 21.1994 140.475 21.8232 141.763 21.8232C142.352 21.8232 142.836 21.6932 143.212 21.4378C143.589 21.1823 143.778 20.835 143.778 20.4105C143.778 19.7532 143.319 19.3072 142.4 19.0749L140.366 18.5822C139.722 18.4181 139.113 18.106 138.537 17.6474C137.962 17.1888 137.674 16.5683 137.674 15.7882C137.674 14.898 138.068 14.1752 138.856 13.6191C139.643 13.0631 140.579 12.7867 141.66 12.7867C142.551 12.7867 143.345 12.9888 144.044 13.3923C144.729 13.781 145.259 14.3944 145.544 15.1287L143.9 15.807C143.531 14.9167 142.763 14.4714 141.599 14.4714C141.037 14.4714 140.564 14.5881 140.181 14.8204C139.799 15.0527 139.606 15.3687 139.606 15.7662C139.606 16.3415 140.046 16.7318 140.941 16.9377L142.934 17.4101C143.88 17.6292 144.578 18.0063 145.03 18.5403C145.482 19.0744 145.709 19.6777 145.709 20.3494C145.709 21.2534 145.339 22.001 144.599 22.6099C143.859 23.2188 142.907 23.5138 141.736 23.5138L141.742 23.5094ZM44.0018 14.4284H36.247V16.7296H41.7523C41.4809 19.9558 38.796 21.3321 36.2619 21.3321C35.4589 21.3357 34.6632 21.1794 33.9213 20.8721C33.1795 20.5648 32.5062 20.1129 31.941 19.5425C31.3757 18.9722 30.9297 18.2949 30.6291 17.5503C30.3285 16.8057 30.1792 16.0087 30.1901 15.2058C30.1901 11.7226 32.8866 9.03983 36.2679 9.03983C38.8774 9.03983 40.4134 10.7035 40.4134 10.7035L42.0248 9.03543C42.0248 9.03543 39.9565 6.73421 36.1854 6.73421C31.3831 6.73421 27.667 10.7878 27.667 15.1661C27.667 19.4559 31.1629 23.6405 36.3081 23.6405C40.8335 23.6405 44.1477 20.5399 44.1477 15.955C44.1477 14.9883 44.0073 14.429 44.0073 14.429L44.0018 14.4284Z" fill="#767676"/>
<path id="Vector_7" d="M50.3681 12.7917C47.1861 12.7917 44.9058 15.279 44.9058 18.1803C44.9058 21.1245 47.1178 23.6581 50.4111 23.6581C53.3878 23.6581 55.8261 21.3833 55.8261 18.2431C55.8261 14.6442 52.9892 12.7906 50.3736 12.7906L50.3681 12.7917ZM50.3995 14.9261C51.9647 14.9261 53.4472 16.1912 53.4472 18.2293C53.4472 20.2244 51.9702 21.527 50.3918 21.527C48.6576 21.527 47.2896 20.138 47.2896 18.2144C47.2896 16.3327 48.6411 14.9267 50.399 14.9267L50.3995 14.9261Z" fill="#767676"/>
<path id="Vector_8" d="M62.1914 12.7917C59.0093 12.7917 56.729 15.279 56.729 18.1803C56.729 21.1245 58.941 23.6581 62.2343 23.6581C65.211 23.6581 67.6493 21.3833 67.6493 18.2431C67.6493 14.6442 64.8124 12.7906 62.1969 12.7906L62.1914 12.7917ZM62.2228 14.9261C63.7879 14.9261 65.2705 16.1912 65.2705 18.2293C65.2705 20.2244 63.7934 21.527 62.215 21.527C60.4809 21.527 59.1128 20.138 59.1128 18.2144C59.1128 16.3327 60.4644 14.9267 62.2222 14.9267L62.2228 14.9261Z" fill="#767676"/>
<path id="Vector_9" d="M73.8328 12.7917C70.9122 12.7917 68.616 15.35 68.616 18.221C68.616 21.4912 71.2772 23.6603 73.7816 23.6603C75.3302 23.6603 76.1533 23.0453 76.7622 22.339V23.4103C76.7622 25.2849 75.6237 26.408 73.8994 26.408C72.2396 26.408 71.4077 25.1737 71.1181 24.4734L69.03 25.3466C69.771 26.9128 71.2618 28.5468 73.9176 28.5468C76.8216 28.5468 79.0353 26.7179 79.0353 22.8763V13.1154H76.7572V14.0359C76.0569 13.2817 75.099 12.789 73.8284 12.789L73.8328 12.7917ZM74.0442 14.9223C75.4767 14.9223 76.9466 16.1444 76.9466 18.2326C76.9466 20.3554 75.4794 21.5248 74.0123 21.5248C72.4554 21.5248 71.0064 20.2608 71.0064 18.2524C71.0064 16.1604 72.5104 14.9217 74.0442 14.9217V14.9223ZM89.2025 12.7917C86.4477 12.7917 84.1338 14.9828 84.1338 18.2183C84.1338 21.6404 86.7119 23.6707 89.4668 23.6707C91.7658 23.6707 93.1774 22.4128 94.0186 21.2858L92.1468 20.0361C91.6595 20.7926 90.8442 21.5325 89.4849 21.5325C87.9572 21.5325 87.2553 20.6957 86.8204 19.8853L94.1061 16.8574L93.7279 15.9765C93.0232 14.2413 91.3815 12.7923 89.2135 12.7923L89.2025 12.7917ZM89.2972 14.8815C90.2904 14.8815 91.0039 15.41 91.3083 16.042L86.4427 18.0757C86.2335 16.5012 87.7238 14.8815 89.2972 14.8815ZM80.6539 23.347H83.0465V7.32658H80.6539V23.347Z" fill="#767676"/>
</g>
</g>
<defs>
<clipPath id="clip0_311_36033">
<rect width="145.682" height="28" fill="white" transform="translate(0 0.5)"/>
</clipPath>
</defs>
</svg>
