<svg width="25" height="24" viewBox="0 0 25 24" fill="none" xmlns="http://www.w3.org/2000/svg">
<path fill-rule="evenodd" clip-rule="evenodd" d="M3.33299 11.5C3.33299 6.25329 7.58629 2 12.833 2C18.0797 2 22.333 6.25329 22.333 11.5C22.333 16.7467 18.0797 21 12.833 21C11.6314 21 10.4796 20.7764 9.41865 20.3677C9.3277 20.3326 9.27501 20.3124 9.23616 20.2984C9.2314 20.2967 9.22729 20.2953 9.22379 20.2941C9.22252 20.2941 9.22116 20.2942 9.21972 20.2944C9.1881 20.2968 9.14494 20.3012 9.06238 20.3097L3.94136 20.8391C3.93009 20.8402 3.9188 20.8414 3.90748 20.8426C3.69329 20.8648 3.46984 20.8879 3.28295 20.8901C3.09721 20.8923 2.76242 20.8818 2.44141 20.6859C2.06513 20.4564 1.80884 20.073 1.74062 19.6376C1.68242 19.2661 1.80071 18.9527 1.87373 18.7819C1.9472 18.61 2.05402 18.4124 2.15641 18.223L3.80828 15.1655C3.87974 15.0332 3.91793 14.962 3.94364 14.909C3.94499 14.9063 3.94624 14.9036 3.94739 14.9012C3.94546 14.8943 3.94312 14.8861 3.9403 14.8766C3.91865 14.8033 3.88534 14.7039 3.82875 14.536C3.50698 13.5814 3.33299 12.56 3.33299 11.5ZM12.833 4C8.69086 4 5.33299 7.35786 5.33299 11.5C5.33299 12.34 5.4707 13.1458 5.72398 13.8972C5.73203 13.9211 5.74033 13.9455 5.74878 13.9703C5.82993 14.2089 5.92524 14.489 5.9453 14.7425C5.96359 14.9736 5.94692 15.169 5.88976 15.3936C5.82723 15.6393 5.70016 15.8729 5.5971 16.0623C5.58711 16.0807 5.57735 16.0986 5.5679 16.1161L4.1121 18.8108L8.85674 18.3203C8.8675 18.3192 8.87855 18.318 8.88985 18.3169C9.00885 18.3044 9.15633 18.2889 9.30106 18.2944C9.43335 18.2995 9.54482 18.3143 9.67381 18.344C9.8154 18.3767 9.96902 18.4361 10.0986 18.4863C10.1119 18.4914 10.1249 18.4965 10.1376 18.5014C10.9728 18.8231 11.8811 19 12.833 19C16.9751 19 20.333 15.6421 20.333 11.5C20.333 7.35786 16.9751 4 12.833 4ZM17.0401 8.29289C17.4306 8.68342 17.4306 9.31658 17.0401 9.70711L12.5401 14.2071C12.1496 14.5976 11.5164 14.5976 11.1259 14.2071L9.12589 12.2071C8.73536 11.8166 8.73536 11.1834 9.12589 10.7929C9.51641 10.4024 10.1496 10.4024 10.5401 10.7929L11.833 12.0858L15.6259 8.29289C16.0164 7.90237 16.6496 7.90237 17.0401 8.29289Z" fill="white"/>
</svg>
