<svg width="384" height="240" viewBox="0 0 384 240" fill="none" xmlns="http://www.w3.org/2000/svg">
<g clip-path="url(#clip0_311_48510)">
<path fill-rule="evenodd" clip-rule="evenodd" d="M403.288 104.684C401.959 101.119 401.728 97.2386 402.625 93.5417C403.462 89.9242 405.339 86.6304 408.024 84.0657C410.709 81.501 414.085 79.7774 417.737 79.1071L418.76 78.9237C424.784 77.8428 430.132 74.4129 433.628 69.3887C437.123 64.3644 438.48 58.1574 437.399 52.133C436.318 46.1086 432.888 40.7603 427.864 37.2647C422.84 33.7692 416.633 32.4126 410.608 33.4936L408.678 33.84C405.02 34.4812 401.255 34.0389 397.846 32.5677C394.437 31.0965 391.532 28.6605 389.49 25.5596L389.327 24.651C387.2 21.4967 386.068 17.7776 386.075 13.9734C386.082 10.1692 387.228 6.45435 389.366 3.30783L389.925 2.50411C391.659 0.0155488 392.885 -2.79028 393.533 -5.75294C394.181 -8.71561 394.239 -11.777 393.704 -14.7621C393.168 -17.7472 392.049 -20.5975 390.411 -23.15C388.774 -25.7024 386.649 -27.907 384.158 -29.6377C381.67 -31.3711 378.864 -32.5971 375.901 -33.2454C372.938 -33.8938 369.877 -33.9518 366.892 -33.4162C363.907 -32.8806 361.057 -31.7618 358.504 -30.124C355.952 -28.4861 353.747 -26.3611 352.016 -23.8706L351.457 -23.0669C349.25 -19.9683 346.166 -17.6019 342.601 -16.2728C339.037 -14.9437 335.156 -14.7129 331.459 -15.6101C327.841 -16.4471 324.548 -18.3236 321.983 -21.0086C319.418 -23.6937 317.695 -27.07 317.024 -30.7221L316.841 -31.7443C315.76 -37.7687 312.33 -43.117 307.306 -46.6125C302.282 -50.1081 296.075 -51.4646 290.05 -50.3837C284.026 -49.3028 278.678 -45.8729 275.182 -40.8487C271.686 -35.8245 270.33 -29.6174 271.411 -23.593L271.757 -21.6622C272.398 -18.0049 271.956 -14.2399 270.485 -10.8307C269.014 -7.42155 266.578 -4.51696 263.477 -2.47452L262.568 -2.3115C259.414 -0.184997 255.695 0.947805 251.891 0.940826C248.086 0.933853 244.372 -0.212579 241.225 -2.35063L240.421 -2.90981C237.933 -4.64326 235.127 -5.8692 232.164 -6.51754C229.202 -7.16588 226.14 -7.22391 223.155 -6.68831C220.17 -6.1527 217.32 -5.03397 214.767 -3.39608C212.215 -1.75818 210.01 0.366756 208.28 2.85724C206.546 5.34579 205.32 8.15162 204.672 11.1143C204.023 14.077 203.965 17.1384 204.501 20.1235C205.037 23.1086 206.155 25.9588 207.793 28.5113C209.431 31.0638 211.556 33.2684 214.047 34.999L214.85 35.5582C217.949 37.7651 220.315 40.8497 221.644 44.4142C222.974 47.9787 223.204 51.8595 222.307 55.5564C221.642 59.3185 219.861 62.7936 217.195 65.5299C214.529 68.2662 211.102 70.1372 207.358 70.8997L206.336 71.0831C200.312 72.164 194.963 75.5939 191.468 80.6181C187.972 85.6423 186.616 91.8494 187.697 97.8738C188.777 103.898 192.207 109.246 197.232 112.742C202.256 116.238 208.463 117.594 214.487 116.513L216.418 116.167C220.075 115.526 223.84 115.968 227.25 117.439C230.659 118.91 233.563 121.346 235.606 124.447C237.732 127.601 238.865 131.321 238.858 135.125C238.851 138.929 237.705 142.644 235.567 145.79L235.007 146.594C233.274 149.083 232.048 151.888 231.4 154.851C230.751 157.814 230.693 160.875 231.229 163.86C231.765 166.845 232.883 169.696 234.521 172.248C236.159 174.801 238.284 177.005 240.774 178.736C243.263 180.469 246.069 181.695 249.032 182.344C251.994 182.992 255.056 183.05 258.041 182.514C261.026 181.979 263.876 180.86 266.429 179.222C268.981 177.584 271.186 175.459 272.916 172.969L273.475 172.165C275.682 169.066 278.767 166.7 282.331 165.371C285.896 164.042 289.777 163.811 293.474 164.708C297.236 165.373 300.711 167.154 303.447 169.82C306.183 172.486 308.054 175.914 308.817 179.657L309 180.679C310.081 186.704 313.511 192.052 318.535 195.548C323.56 199.043 329.767 200.4 335.791 199.319C341.815 198.238 347.164 194.808 350.659 189.784C354.155 184.76 355.511 178.553 354.43 172.528L354.084 170.597C353.443 166.94 353.885 163.175 355.356 159.766C356.827 156.357 359.263 153.452 362.364 151.41C365.519 149.283 369.238 148.15 373.042 148.157C376.846 148.164 380.561 149.311 383.708 151.449L384.511 152.008C387 153.741 389.806 154.967 392.768 155.616C395.731 156.264 398.792 156.322 401.777 155.786C404.763 155.251 407.613 154.132 410.165 152.494C412.718 150.856 414.922 148.731 416.653 146.241C418.387 143.752 419.612 140.947 420.261 137.984C420.909 135.021 420.967 131.96 420.432 128.975C419.896 125.99 418.777 123.139 417.139 120.587C415.501 118.034 413.377 115.83 410.886 114.099L410.082 113.54C406.984 111.333 404.617 108.248 403.288 104.684ZM319.191 112.029C339.891 108.315 353.66 88.5238 349.946 67.8242C346.232 47.1247 326.441 33.3552 305.741 37.0692C285.042 40.7833 271.272 60.5744 274.986 81.2739C278.7 101.973 298.492 115.743 319.191 112.029Z" fill="#353E54"/>
<mask id="mask0_311_48510" style="mask-type:alpha" maskUnits="userSpaceOnUse" x="187" y="-51" width="251" height="251">
<path fill-rule="evenodd" clip-rule="evenodd" d="M403.288 104.684C401.959 101.119 401.728 97.2384 402.626 93.5415C403.463 89.924 405.339 86.6302 408.024 84.0655C410.709 81.5008 414.086 79.7772 417.738 79.1069L418.76 78.9235C424.784 77.8426 430.133 74.4127 433.628 69.3885C437.124 64.3643 438.48 58.1572 437.399 52.1328C436.318 46.1084 432.889 40.7601 427.864 37.2646C422.84 33.769 416.633 32.4125 410.609 33.4934L408.678 33.8398C405.021 34.481 401.256 34.0388 397.846 32.5675C394.437 31.0963 391.533 28.6603 389.49 25.5594L389.327 24.6508C387.201 21.4965 386.068 17.7774 386.075 13.9732C386.082 10.169 387.228 6.45417 389.366 3.30764L389.925 2.50393C391.659 0.0153657 392.885 -2.79046 393.533 -5.75313C394.181 -8.71579 394.24 -11.7772 393.704 -14.7623C393.168 -17.7474 392.05 -20.5977 390.412 -23.1501C388.774 -25.7026 386.649 -27.9072 384.158 -29.6379C381.67 -31.3713 378.864 -32.5973 375.901 -33.2456C372.939 -33.8939 369.877 -33.952 366.892 -33.4164C363.907 -32.8808 361.057 -31.762 358.504 -30.1241C355.952 -28.4862 353.747 -26.3613 352.017 -23.8708L351.457 -23.0671C349.25 -19.9685 346.166 -17.6021 342.601 -16.273C339.037 -14.9439 335.156 -14.7131 331.459 -15.6103C327.842 -16.4473 324.548 -18.3238 321.983 -21.0088C319.418 -23.6938 317.695 -27.0702 317.025 -30.7223L316.841 -31.7445C315.76 -37.7689 312.33 -43.1171 307.306 -46.6127C302.282 -50.1083 296.075 -51.4648 290.05 -50.3839C284.026 -49.3029 278.678 -45.8731 275.182 -40.8489C271.687 -35.8246 270.33 -29.6176 271.411 -23.5932L271.757 -21.6624C272.399 -18.0051 271.956 -14.2401 270.485 -10.8309C269.014 -7.42173 266.578 -4.51714 263.477 -2.47471L262.568 -2.31168C259.414 -0.18518 255.695 0.947622 251.891 0.940643C248.087 0.93367 244.372 -0.212762 241.225 -2.35082L240.422 -2.91C237.933 -4.64344 235.127 -5.86938 232.165 -6.51772C229.202 -7.16607 226.14 -7.22409 223.155 -6.68849C220.17 -6.15289 217.32 -5.03416 214.768 -3.39626C212.215 -1.75836 210.01 0.366573 208.28 2.85706C206.546 5.34561 205.32 8.15144 204.672 11.1141C204.024 14.0768 203.966 17.1382 204.501 20.1233C205.037 23.1084 206.156 25.9587 207.794 28.5111C209.431 31.0636 211.556 33.2682 214.047 34.9988L214.851 35.558C217.949 37.765 220.316 40.8495 221.645 44.414C222.974 47.9785 223.205 51.8594 222.307 55.5562C221.643 59.3183 219.861 62.7934 217.195 65.5297C214.529 68.266 211.102 70.137 207.358 70.8995L206.336 71.0829C200.312 72.1638 194.964 75.5937 191.468 80.6179C187.972 85.6421 186.616 91.8492 187.697 97.8736C188.778 103.898 192.208 109.246 197.232 112.742C202.256 116.237 208.463 117.594 214.488 116.513L216.418 116.167C220.076 115.525 223.841 115.968 227.25 117.439C230.659 118.91 233.564 121.346 235.606 124.447C237.732 127.601 238.865 131.32 238.858 135.125C238.851 138.929 237.705 142.644 235.567 145.79L235.008 146.594C233.274 149.082 232.048 151.888 231.4 154.851C230.752 157.814 230.694 160.875 231.229 163.86C231.765 166.845 232.883 169.695 234.521 172.248C236.159 174.8 238.284 177.005 240.775 178.736C243.263 180.469 246.069 181.695 249.032 182.343C251.994 182.992 255.056 183.05 258.041 182.514C261.026 181.979 263.876 180.86 266.429 179.222C268.981 177.584 271.186 175.459 272.916 172.969L273.476 172.165C275.683 169.066 278.767 166.7 282.332 165.371C285.896 164.042 289.777 163.811 293.474 164.708C297.236 165.373 300.711 167.154 303.447 169.82C306.184 172.486 308.055 175.914 308.817 179.657L309.001 180.679C310.081 186.704 313.511 192.052 318.536 195.547C323.56 199.043 329.767 200.4 335.791 199.319C341.816 198.238 347.164 194.808 350.659 189.784C354.155 184.759 355.512 178.552 354.431 172.528L354.084 170.597C353.443 166.94 353.885 163.175 355.357 159.766C356.828 156.356 359.264 153.452 362.365 151.409C365.519 149.283 369.238 148.15 373.042 148.157C376.846 148.164 380.561 149.311 383.708 151.449L384.511 152.008C387 153.741 389.806 154.967 392.769 155.616C395.731 156.264 398.793 156.322 401.778 155.786C404.763 155.251 407.613 154.132 410.166 152.494C412.718 150.856 414.923 148.731 416.653 146.241C418.387 143.752 419.613 140.946 420.261 137.984C420.909 135.021 420.967 131.96 420.432 128.974C419.896 125.989 418.777 123.139 417.14 120.587C415.502 118.034 413.377 115.83 410.886 114.099L410.083 113.54C406.984 111.333 404.617 108.248 403.288 104.684ZM319.191 112.029C339.891 108.315 353.66 88.5236 349.946 67.8241C346.232 47.1245 326.441 33.355 305.742 37.0691C285.042 40.7831 271.273 60.5742 274.987 81.2737C278.701 101.973 298.492 115.743 319.191 112.029Z" fill="#353E54"/>
</mask>
<g mask="url(#mask0_311_48510)">
<g opacity="0.3" filter="url(#filter0_f_311_48510)">
<ellipse cx="224.141" cy="51.0967" rx="89.657" ry="52.1257" transform="rotate(-33.2557 224.141 51.0967)" fill="#285BF3"/>
</g>
</g>
<path fill-rule="evenodd" clip-rule="evenodd" d="M200.982 234.7C200.74 232.151 201.267 229.589 202.495 227.343C203.669 225.138 205.464 223.324 207.656 222.126C209.848 220.927 212.343 220.396 214.833 220.597L215.53 220.656C219.634 221.005 223.708 219.708 226.856 217.053C230.004 214.397 231.968 210.6 232.316 206.496C232.664 202.392 231.368 198.318 228.712 195.17C226.057 192.022 222.259 190.058 218.156 189.71L216.84 189.598C214.352 189.377 211.982 188.433 210.023 186.882C208.064 185.331 206.601 183.242 205.814 180.87L205.867 180.251C205.035 177.83 204.948 175.216 205.616 172.744C206.284 170.273 207.677 168.059 209.615 166.387L210.118 165.962C211.679 164.647 212.965 163.037 213.903 161.225C214.841 159.413 215.413 157.433 215.586 155.4C215.758 153.366 215.528 151.319 214.909 149.374C214.29 147.43 213.293 145.626 211.976 144.067C210.661 142.507 209.052 141.221 207.239 140.283C205.427 139.344 203.447 138.773 201.414 138.6C199.38 138.428 197.333 138.658 195.388 139.277C193.444 139.896 191.641 140.893 190.081 142.209L189.578 142.634C187.603 144.263 185.186 145.263 182.637 145.505C180.089 145.747 177.527 145.221 175.28 143.993C173.075 142.818 171.262 141.024 170.064 138.831C168.865 136.639 168.334 134.144 168.535 131.654L168.594 130.957C168.942 126.854 167.646 122.78 164.99 119.632C162.335 116.484 158.537 114.519 154.434 114.171C150.33 113.823 146.256 115.119 143.108 117.775C139.96 120.43 137.996 124.228 137.647 128.332L137.536 129.647C137.315 132.136 136.371 134.505 134.82 136.464C133.269 138.423 131.179 139.886 128.808 140.673L128.189 140.62C125.768 141.452 123.153 141.54 120.682 140.872C118.211 140.204 115.997 138.811 114.325 136.872L113.9 136.369C112.585 134.808 110.975 133.522 109.163 132.584C107.35 131.646 105.371 131.074 103.338 130.902C101.304 130.729 99.2566 130.959 97.3121 131.578C95.3676 132.198 93.5642 133.194 92.0051 134.511C90.4445 135.826 89.1584 137.436 88.2203 139.248C87.2822 141.06 86.7106 143.04 86.538 145.073C86.3655 147.107 86.5955 149.154 87.2147 151.099C87.834 153.043 88.8305 154.847 90.1473 156.406L90.5721 156.909C92.201 158.884 93.2009 161.302 93.443 163.85C93.6851 166.398 93.1583 168.961 91.9304 171.207C90.8422 173.536 89.0786 175.484 86.8687 176.797C84.6588 178.11 82.1049 178.729 79.539 178.571L78.8427 178.512C74.7389 178.164 70.6649 179.46 67.5169 182.116C64.3688 184.771 62.4046 188.569 62.0564 192.673C61.7082 196.776 63.0045 200.85 65.6601 203.998C68.3157 207.146 72.1131 209.111 76.2169 209.459L77.5321 209.57C80.0208 209.792 82.3906 210.736 84.3496 212.286C86.3086 213.837 87.7715 215.927 88.558 218.298C89.3899 220.719 89.4775 223.334 88.8095 225.805C88.1414 228.276 86.7485 230.491 84.8102 232.163L84.3066 232.587C82.746 233.902 81.4599 235.512 80.5218 237.324C79.5837 239.137 79.0121 241.116 78.8395 243.15C78.667 245.183 78.8969 247.231 79.5162 249.175C80.1355 251.12 81.132 252.923 82.4488 254.482C83.7637 256.043 85.3734 257.329 87.1858 258.267C88.9982 259.205 90.9777 259.777 93.0111 259.949C95.0445 260.122 97.0921 259.892 99.0366 259.273C100.981 258.653 102.784 257.657 104.344 256.34L104.847 255.915C106.822 254.286 109.239 253.286 111.788 253.044C114.336 252.802 116.898 253.329 119.145 254.557C121.474 255.645 123.421 257.409 124.735 259.619C126.048 261.828 126.666 264.382 126.509 266.948L126.45 267.645C126.102 271.748 127.398 275.822 130.054 278.97C132.709 282.118 136.507 284.083 140.61 284.431C144.714 284.779 148.788 283.483 151.936 280.827C155.084 278.172 157.048 274.374 157.397 270.27L157.508 268.955C157.729 266.466 158.673 264.097 160.224 262.138C161.775 260.179 163.865 258.716 166.236 257.929C168.657 257.097 171.272 257.01 173.743 257.678C176.214 258.346 178.428 259.739 180.1 261.677L180.525 262.181C181.84 263.741 183.45 265.027 185.262 265.965C187.075 266.904 189.054 267.475 191.087 267.648C193.121 267.82 195.168 267.59 197.113 266.971C199.057 266.352 200.861 265.355 202.42 264.038C203.981 262.724 205.267 261.114 206.205 259.301C207.143 257.489 207.714 255.51 207.887 253.476C208.06 251.443 207.83 249.395 207.21 247.451C206.591 245.506 205.594 243.703 204.278 242.144L203.853 241.64C202.224 239.665 201.224 237.248 200.982 234.7ZM145.046 224.806C159.147 226.002 171.547 215.542 172.744 201.441C173.94 187.341 163.479 174.94 149.379 173.744C135.278 172.547 122.878 183.008 121.681 197.108C120.485 211.209 130.946 223.609 145.046 224.806Z" fill="#353E54"/>
<mask id="mask1_311_48510" style="mask-type:alpha" maskUnits="userSpaceOnUse" x="61" y="114" width="172" height="171">
<path fill-rule="evenodd" clip-rule="evenodd" d="M200.98 234.7C200.738 232.151 201.265 229.589 202.493 227.343C203.668 225.138 205.462 223.324 207.654 222.126C209.846 220.927 212.341 220.396 214.832 220.597L215.528 220.656C219.632 221.005 223.706 219.708 226.854 217.053C230.002 214.397 231.966 210.6 232.314 206.496C232.662 202.392 231.366 198.318 228.71 195.17C226.055 192.022 222.257 190.058 218.154 189.71L216.838 189.598C214.35 189.377 211.98 188.433 210.021 186.882C208.062 185.331 206.599 183.242 205.813 180.87L205.865 180.251C205.033 177.83 204.946 175.216 205.614 172.744C206.282 170.273 207.675 168.059 209.613 166.387L210.117 165.962C211.677 164.647 212.963 163.037 213.901 161.225C214.839 159.413 215.411 157.433 215.584 155.4C215.756 153.366 215.526 151.319 214.907 149.374C214.288 147.43 213.291 145.626 211.974 144.067C210.659 142.507 209.05 141.221 207.237 140.283C205.425 139.344 203.445 138.773 201.412 138.6C199.379 138.428 197.331 138.658 195.387 139.277C193.442 139.896 191.639 140.893 190.079 142.209L189.576 142.634C187.601 144.263 185.184 145.263 182.635 145.505C180.087 145.747 177.525 145.221 175.278 143.993C173.073 142.818 171.26 141.024 170.062 138.831C168.863 136.639 168.332 134.144 168.533 131.654L168.592 130.957C168.94 126.854 167.644 122.78 164.988 119.632C162.333 116.484 158.536 114.519 154.432 114.171C150.328 113.823 146.254 115.119 143.106 117.775C139.958 120.43 137.994 124.228 137.645 128.332L137.534 129.647C137.313 132.136 136.369 134.505 134.818 136.464C133.267 138.423 131.177 139.886 128.806 140.673L128.187 140.62C125.766 141.452 123.151 141.54 120.68 140.872C118.209 140.204 115.995 138.811 114.323 136.872L113.898 136.369C112.583 134.808 110.973 133.522 109.161 132.584C107.349 131.646 105.369 131.074 103.336 130.902C101.302 130.729 99.2547 130.959 97.3101 131.578C95.3656 132.198 93.5623 133.194 92.0031 134.511C90.4425 135.826 89.1564 137.436 88.2183 139.248C87.2803 141.06 86.7086 143.04 86.5361 145.073C86.3635 147.107 86.5935 149.154 87.2128 151.099C87.8321 153.043 88.8286 154.847 90.1453 156.406L90.5701 156.909C92.199 158.884 93.199 161.302 93.4411 163.85C93.6832 166.398 93.1563 168.961 91.9285 171.207C90.8403 173.536 89.0766 175.484 86.8667 176.797C84.6569 178.11 82.103 178.729 79.5371 178.571L78.8408 178.512C74.737 178.164 70.6629 179.46 67.5149 182.116C64.3669 184.771 62.4027 188.569 62.0545 192.673C61.7063 196.776 63.0025 200.85 65.6581 203.998C68.3137 207.146 72.1111 209.111 76.2149 209.459L77.5301 209.57C80.0189 209.792 82.3886 210.736 84.3476 212.286C86.3067 213.837 87.7695 215.927 88.5561 218.298C89.3879 220.719 89.4755 223.334 88.8075 225.805C88.1395 228.276 86.7465 230.491 84.8082 232.163L84.3046 232.587C82.744 233.902 81.4579 235.512 80.5198 237.324C79.5818 239.137 79.0101 241.116 78.8376 243.15C78.665 245.183 78.895 247.231 79.5143 249.175C80.1336 251.12 81.1301 252.923 82.4468 254.482C83.7618 256.043 85.3715 257.329 87.1839 258.267C88.9962 259.205 90.9757 259.777 93.0092 259.949C95.0426 260.122 97.0901 259.892 99.0346 259.273C100.979 258.653 102.783 257.657 104.342 256.34L104.845 255.915C106.82 254.286 109.237 253.286 111.786 253.044C114.334 252.802 116.897 253.329 119.143 254.557C121.472 255.645 123.419 257.409 124.733 259.619C126.046 261.828 126.664 264.382 126.507 266.948L126.448 267.645C126.1 271.748 127.396 275.822 130.052 278.97C132.707 282.118 136.505 284.083 140.608 284.431C144.712 284.779 148.786 283.483 151.934 280.827C155.082 278.172 157.046 274.374 157.395 270.27L157.506 268.955C157.727 266.466 158.672 264.097 160.222 262.138C161.773 260.179 163.863 258.716 166.234 257.929C168.655 257.097 171.27 257.01 173.741 257.678C176.212 258.346 178.426 259.739 180.098 261.677L180.523 262.181C181.838 263.741 183.448 265.027 185.26 265.965C187.073 266.904 189.052 267.475 191.086 267.648C193.119 267.82 195.166 267.59 197.111 266.971C199.056 266.352 200.859 265.355 202.418 264.038C203.979 262.724 205.265 261.114 206.203 259.301C207.141 257.489 207.713 255.51 207.885 253.476C208.058 251.443 207.828 249.395 207.208 247.451C206.589 245.506 205.593 243.703 204.276 242.144L203.851 241.64C202.222 239.665 201.222 237.248 200.98 234.7ZM145.044 224.806C159.145 226.002 171.545 215.542 172.742 201.441C173.938 187.341 163.477 174.94 149.377 173.744C135.276 172.547 122.876 183.008 121.679 197.108C120.483 211.209 130.944 223.609 145.044 224.806Z" fill="#353E54"/>
</mask>
<g mask="url(#mask1_311_48510)">
<g opacity="0.3" filter="url(#filter1_f_311_48510)">
<ellipse cx="60.1794" cy="172.497" rx="83.5764" ry="52.1257" transform="rotate(-40.1846 60.1794 172.497)" fill="#89B4F4"/>
</g>
</g>
<g filter="url(#filter2_b_311_48510)">
<rect x="51.2949" y="104.105" width="72.1283" height="72.1283" rx="36.0641" transform="rotate(6.65386 51.2949 104.105)" fill="#89B4F4" fill-opacity="0.2"/>
<g clip-path="url(#clip1_311_48510)">
<path fill-rule="evenodd" clip-rule="evenodd" d="M84.3497 132.817C80.9259 132.336 77.7603 134.722 77.2791 138.145C76.7979 141.569 79.1834 144.735 82.6072 145.216C86.031 145.697 89.1967 143.312 89.6779 139.888C90.1591 136.464 87.7736 133.298 84.3497 132.817ZM74.7993 137.797C75.473 133.004 79.9049 129.664 84.6983 130.338C89.4916 131.011 92.8313 135.443 92.1576 140.236C92.0623 140.915 91.8916 141.564 91.6553 142.177C94.5189 143.951 96.2222 147.301 95.7231 150.853C95.0495 155.646 90.6176 158.986 85.8242 158.312C83.9811 158.053 82.3513 157.237 81.0834 156.059C79.5398 156.842 77.7492 157.177 75.9051 156.918C71.1118 156.244 67.7721 151.812 68.4458 147.019C68.9449 143.468 71.5058 140.716 74.7472 139.801C74.689 139.147 74.704 138.475 74.7993 137.797ZM75.3267 142.24C73.0578 142.922 71.2766 144.869 70.9255 147.367C70.4443 150.791 72.8298 153.957 76.2537 154.438C77.8366 154.661 79.3644 154.27 80.5972 153.448C80.6052 153.442 80.6131 153.437 80.6212 153.432C82.0424 152.474 83.0671 150.941 83.3243 149.11C83.3876 148.66 83.4014 148.215 83.3701 147.781C83.0029 147.776 82.6319 147.748 82.2587 147.696C79.0235 147.241 76.4506 145.075 75.3267 142.24ZM85.8559 147.455C85.9143 148.11 85.8993 148.781 85.8041 149.458C85.5191 151.486 84.5618 153.253 83.1891 154.567C84.0267 155.223 85.0426 155.673 86.1727 155.832C89.5965 156.313 92.7622 153.928 93.2434 150.504C93.5945 148.006 92.419 145.643 90.4259 144.362C89.2797 145.849 87.6751 146.941 85.8559 147.455Z" fill="white"/>
</g>
<rect x="51.7736" y="104.71" width="71.0371" height="71.0371" rx="35.5186" transform="rotate(6.65386 51.7736 104.71)" stroke="white" stroke-opacity="0.08" stroke-width="1.09112"/>
</g>
<rect x="176.238" y="-22.2256" width="87.9999" height="88" rx="44" transform="rotate(-1 176.238 -22.2256)" fill="#285BF3"/>
<path fill-rule="evenodd" clip-rule="evenodd" d="M212.029 11.9696C211.132 12.0481 210.469 12.8385 210.547 13.7351C210.626 14.6317 211.416 15.2949 212.313 15.2165C213.209 15.138 213.873 14.3476 213.794 13.451C213.716 12.5544 212.925 11.8912 212.029 11.9696ZM207.3 14.0191C207.065 11.3294 209.055 8.9581 211.745 8.72277C214.434 8.48744 216.806 10.4772 217.041 13.167C217.276 15.8567 215.287 18.228 212.597 18.4633C209.907 18.6987 207.536 16.7089 207.3 14.0191ZM232.415 7.39345C233.105 7.97197 233.195 8.99987 232.616 9.68933L211.877 34.4058C211.298 35.0952 210.27 35.1851 209.581 34.6066C208.891 34.0281 208.801 33.0002 209.38 32.3107L230.119 7.59431C230.698 6.90486 231.726 6.81493 232.415 7.39345ZM229.683 26.7836C228.787 26.862 228.123 27.6525 228.202 28.549C228.28 29.4456 229.071 30.1089 229.967 30.0304C230.864 29.952 231.527 29.1616 231.449 28.265C231.37 27.3684 230.58 26.7051 229.683 26.7836ZM224.955 28.8331C224.72 26.1433 226.709 23.7721 229.399 23.5367C232.089 23.3014 234.46 25.2911 234.696 27.9809C234.931 30.6707 232.941 33.042 230.251 33.2773C227.562 33.5126 225.19 31.5229 224.955 28.8331Z" fill="white"/>
</g>
<defs>
<filter id="filter0_f_311_48510" x="75.5533" y="-82.9377" width="297.175" height="268.069" filterUnits="userSpaceOnUse" color-interpolation-filters="sRGB">
<feFlood flood-opacity="0" result="BackgroundImageFix"/>
<feBlend mode="normal" in="SourceGraphic" in2="BackgroundImageFix" result="shape"/>
<feGaussianBlur stdDeviation="34.1638" result="effect1_foregroundBlur_311_48510"/>
</filter>
<filter id="filter1_f_311_48510" x="-80.3295" y="37.1275" width="281.018" height="270.739" filterUnits="userSpaceOnUse" color-interpolation-filters="sRGB">
<feFlood flood-opacity="0" result="BackgroundImageFix"/>
<feBlend mode="normal" in="SourceGraphic" in2="BackgroundImageFix" result="shape"/>
<feGaussianBlur stdDeviation="34.1638" result="effect1_foregroundBlur_311_48510"/>
</filter>
<filter id="filter2_b_311_48510" x="21.1148" y="82.2825" width="123.645" height="123.645" filterUnits="userSpaceOnUse" color-interpolation-filters="sRGB">
<feFlood flood-opacity="0" result="BackgroundImageFix"/>
<feGaussianBlur in="BackgroundImageFix" stdDeviation="10.9112"/>
<feComposite in2="SourceAlpha" operator="in" result="effect1_backgroundBlur_311_48510"/>
<feBlend mode="normal" in="SourceGraphic" in2="effect1_backgroundBlur_311_48510" result="shape"/>
</filter>
<clipPath id="clip0_311_48510">
<rect width="384" height="240" rx="14.4" fill="white"/>
</clipPath>
<clipPath id="clip1_311_48510">
<rect width="30.0496" height="30.0496" fill="white" transform="translate(69.9941 127.007) rotate(8)"/>
</clipPath>
</defs>
</svg>
