<svg width="20" height="20" viewBox="0 0 20 20" fill="none" xmlns="http://www.w3.org/2000/svg">
<path fill-rule="evenodd" clip-rule="evenodd" d="M10 3.33325C10.4602 3.33325 10.8333 3.70635 10.8333 4.16659V9.16659H15.8333C16.2936 9.16659 16.6667 9.53968 16.6667 9.99992C16.6667 10.4602 16.2936 10.8333 15.8333 10.8333H10.8333V15.8333C10.8333 16.2935 10.4602 16.6666 10 16.6666C9.53977 16.6666 9.16668 16.2935 9.16668 15.8333V10.8333H4.16668C3.70644 10.8333 3.33334 10.4602 3.33334 9.99992C3.33334 9.53968 3.70644 9.16659 4.16668 9.16659H9.16668V4.16659C9.16668 3.70635 9.53977 3.33325 10 3.33325Z" fill="#6DA8FF"/>
</svg>
