<svg width="259" height="249" viewBox="0 0 259 249" fill="none" xmlns="http://www.w3.org/2000/svg">
<g opacity="0.2" filter="url(#filter0_f_1978_34684)">
<ellipse cx="150.278" cy="128.039" rx="102.121" ry="79.5337" transform="rotate(5.50343 150.278 128.039)" fill="#5580FF"/>
</g>
<g filter="url(#filter1_b_1978_34684)">
<rect x="44.6792" y="26.9312" width="158.555" height="158.555" rx="79.2773" transform="rotate(-6.21816 44.6792 26.9312)" fill="#285BF3"/>
<path fill-rule="evenodd" clip-rule="evenodd" d="M111.003 59.4438L144.541 55.7918C147.723 55.4452 150.35 55.1591 152.509 55.101C154.751 55.0405 156.836 55.2078 158.862 55.9766C162.003 57.1688 164.685 59.3247 166.526 62.1354C167.712 63.9478 168.325 65.9483 168.748 68.1509C169.156 70.2716 169.442 72.8982 169.788 76.0808L173.44 109.619C173.787 112.802 174.073 115.428 174.131 117.587C174.192 119.829 174.024 121.915 173.256 123.94C172.063 127.081 169.908 129.764 167.097 131.604C165.284 132.791 163.284 133.403 161.081 133.826C158.961 134.234 156.334 134.52 153.151 134.867L119.613 138.519C116.431 138.865 113.804 139.151 111.645 139.209C109.403 139.27 107.318 139.103 105.292 138.334C102.151 137.142 99.4687 134.986 97.6284 132.175C96.4417 130.363 95.8296 128.362 95.406 126.16C94.9982 124.039 94.7122 121.412 94.3657 118.229L90.7137 84.6915C90.3671 81.5088 90.081 78.8821 90.0228 76.7234C89.9624 74.4812 90.1297 72.3959 90.8984 70.3705C92.0906 67.2296 94.2465 64.5468 97.0572 62.7065C98.8696 61.5199 100.87 60.9077 103.073 60.4841C105.193 60.0763 107.82 59.7903 111.003 59.4438ZM127.614 129.646L152.127 126.977C155.514 126.608 157.816 126.354 159.579 126.015C161.297 125.685 162.156 125.332 162.74 124.949C164.145 124.029 165.223 122.688 165.819 121.117C166.067 120.464 166.227 119.55 166.18 117.801C166.132 116.006 165.884 113.703 165.515 110.317L161.899 77.1053C161.53 73.7186 161.276 71.4167 160.937 69.653C160.607 67.935 160.253 67.0765 159.871 66.4925C158.951 65.0871 157.609 64.0092 156.039 63.4131C155.386 63.1653 154.472 63.0052 152.723 63.0523C150.928 63.1007 148.625 63.3483 145.239 63.7171L120.725 66.3864L127.614 129.646ZM112.818 67.2474L119.706 130.507L118.916 130.593C115.529 130.962 113.226 131.21 111.431 131.258C109.682 131.305 108.768 131.145 108.115 130.897C106.545 130.301 105.203 129.223 104.283 127.818C103.901 127.234 103.547 126.375 103.217 124.657C102.878 122.894 102.624 120.592 102.255 117.205L98.6389 83.9937C98.2702 80.607 98.0225 78.3045 97.9742 76.5091C97.927 74.7603 98.0872 73.8459 98.3349 73.1932C98.931 71.6228 100.009 70.2814 101.414 69.3612C101.998 68.9788 102.857 68.6256 104.575 68.2952C106.339 67.9561 108.64 67.7023 112.027 67.3335L112.818 67.2474ZM127.948 77.6018C127.71 75.4182 129.287 73.4553 131.471 73.2175L151.239 71.0649C153.423 70.8271 155.386 72.4045 155.624 74.5881C155.861 76.7717 154.284 78.7346 152.1 78.9723L132.332 81.125C130.148 81.3627 128.185 79.7854 127.948 77.6018ZM129.67 93.4167C129.432 91.2331 131.009 89.2702 133.193 89.0324L152.962 86.8798C155.145 86.642 157.108 88.2194 157.346 90.403C157.584 92.5866 156.006 94.5495 153.823 94.7873L134.054 96.9399C131.87 97.1777 129.907 95.6003 129.67 93.4167ZM131.392 109.232C131.154 107.048 132.731 105.085 134.915 104.847L154.684 102.695C156.867 102.457 158.83 104.034 159.068 106.218C159.306 108.402 157.728 110.364 155.545 110.602L135.776 112.755C133.592 112.993 131.63 111.415 131.392 109.232Z" fill="white"/>
<rect x="45.7753" y="27.8119" width="156.566" height="156.566" rx="78.2831" transform="rotate(-6.21816 45.7753 27.8119)" stroke="white" stroke-opacity="0.16" stroke-width="1.98837"/>
</g>
<defs>
<filter id="filter0_f_1978_34684" x="0.337234" y="0.260376" width="299.882" height="255.558" filterUnits="userSpaceOnUse" color-interpolation-filters="sRGB">
<feFlood flood-opacity="0" result="BackgroundImageFix"/>
<feBlend mode="normal" in="SourceGraphic" in2="BackgroundImageFix" result="shape"/>
<feGaussianBlur stdDeviation="24" result="effect1_foregroundBlur_1978_34684"/>
</filter>
<filter id="filter1_b_1978_34684" x="16.3266" y="-18.5952" width="231.501" height="231.501" filterUnits="userSpaceOnUse" color-interpolation-filters="sRGB">
<feFlood flood-opacity="0" result="BackgroundImageFix"/>
<feGaussianBlur in="BackgroundImageFix" stdDeviation="14.1763"/>
<feComposite in2="SourceAlpha" operator="in" result="effect1_backgroundBlur_1978_34684"/>
<feBlend mode="normal" in="SourceGraphic" in2="effect1_backgroundBlur_1978_34684" result="shape"/>
</filter>
</defs>
</svg>
