<svg width="584" height="400" viewBox="0 0 584 400" fill="none" xmlns="http://www.w3.org/2000/svg">
<g clip-path="url(#clip0_1978_34656)">
<g filter="url(#filter0_b_1978_34656)">
<rect x="47.8315" y="18.88" width="118.455" height="118.455" rx="59.2273" transform="rotate(-8.50395 47.8315 18.88)" fill="white" fill-opacity="0.2"/>
<rect x="48.7768" y="19.5793" width="116.792" height="116.792" rx="58.3958" transform="rotate(-8.50395 48.7768 19.5793)" stroke="white" stroke-opacity="0.08" stroke-width="1.66284"/>
</g>
<g clip-path="url(#clip1_1978_34656)">
<path fill-rule="evenodd" clip-rule="evenodd" d="M112.031 50.4804L112.031 50.4804L112.031 50.4804ZM112.463 50.6189L129.447 56.1576L114.825 66.4222L97.8408 60.8835L112.463 50.6189ZM114.453 66.6809C114.453 66.6812 114.453 66.6811 114.453 66.6809L114.453 66.6809ZM115.257 66.5608C115.257 66.5609 115.257 66.5609 115.257 66.5608L115.257 66.5608ZM112.835 50.3603L112.835 50.3602L112.835 50.3603ZM111.281 46.5644C111.642 46.439 112.024 46.3819 112.407 46.3961C112.86 46.4128 113.283 46.5546 113.487 46.6231C113.508 46.6302 113.527 46.6365 113.543 46.6418L134.637 53.5204C135.378 53.7621 135.919 54.4018 136.034 55.1728C136.149 55.9437 135.819 56.7137 135.181 57.1616L117.022 69.9094C117.008 69.9192 116.992 69.9307 116.974 69.9436C116.799 70.0689 116.436 70.3282 116.007 70.4767C115.646 70.6022 115.264 70.6593 114.881 70.6451C114.428 70.6283 114.005 70.4865 113.801 70.418C113.78 70.4109 113.761 70.4047 113.745 70.3994L92.6512 63.5207C91.9101 63.279 91.3691 62.6394 91.2538 61.8684C91.1386 61.0974 91.4688 60.3275 92.1068 59.8796L110.266 47.1318C110.28 47.122 110.296 47.1105 110.314 47.0976C110.489 46.9723 110.853 46.7129 111.281 46.5644ZM92.8544 71.1033C93.2068 70.0227 94.3685 69.4323 95.4491 69.7847L116.347 76.5995L134.338 63.97C135.268 63.3169 136.552 63.5416 137.205 64.472C137.858 65.4023 137.633 66.6858 136.703 67.3389L118.544 80.0867C118.53 80.0965 118.514 80.108 118.496 80.1209C118.32 80.2462 117.957 80.5055 117.529 80.6541C117.167 80.7795 116.786 80.8366 116.403 80.8224C115.95 80.8057 115.527 80.6639 115.323 80.5953C115.302 80.5883 115.283 80.582 115.267 80.5767L94.173 73.6981C93.0923 73.3457 92.502 72.184 92.8544 71.1033ZM115.975 76.8583C115.975 76.8585 115.975 76.8585 115.975 76.8582L115.975 76.8583ZM116.779 76.7381C116.779 76.7382 116.779 76.7382 116.779 76.7381L116.779 76.7381ZM94.3761 81.2807C94.7285 80.2 95.8902 79.6096 96.9708 79.962L117.869 86.7769L135.86 74.1473C136.79 73.4943 138.074 73.719 138.727 74.6493C139.38 75.5796 139.155 76.8632 138.225 77.5163L120.066 90.2641C120.052 90.2739 120.035 90.2854 120.017 90.2983C119.842 90.4236 119.479 90.6829 119.051 90.8314C118.689 90.9569 118.307 91.014 117.925 90.9998C117.472 90.983 117.049 90.8412 116.844 90.7727C116.823 90.7656 116.805 90.7594 116.788 90.7541L95.6947 83.8754C94.614 83.523 94.0237 82.3613 94.3761 81.2807Z" fill="white"/>
</g>
<g clip-path="url(#clip2_1978_34656)">
<g filter="url(#filter1_b_1978_34656)">
<path fill-rule="evenodd" clip-rule="evenodd" d="M248.7 7.23683L379.819 26.1187C392.262 27.9103 402.531 29.389 410.798 31.2772C419.385 33.2383 427.152 35.912 434.104 40.8148C444.884 48.418 452.981 59.2388 457.233 71.7265C459.975 79.779 460.349 87.9853 459.807 96.7761C459.286 105.24 457.807 115.509 456.015 127.952L437.133 259.072C435.342 271.514 433.863 281.784 431.975 290.051C430.014 298.637 427.34 306.404 422.437 313.356C414.834 324.136 404.013 332.233 391.526 336.485C383.473 339.228 375.267 339.601 366.476 339.06C358.012 338.538 347.743 337.06 335.3 335.268L204.18 316.386C191.738 314.594 181.469 313.115 173.202 311.227C164.615 309.266 156.848 306.592 149.896 301.689C139.116 294.086 131.019 283.265 126.767 270.778C124.024 262.725 123.651 254.519 124.192 245.728C124.714 237.264 126.193 226.995 127.985 214.552L146.867 83.433C148.658 70.9902 150.137 60.7208 152.025 52.4538C153.986 43.8674 156.66 36.0999 161.563 29.1483C169.166 18.3679 179.987 10.2713 192.474 6.01884C200.527 3.27669 208.733 2.9033 217.524 3.44461C225.988 3.9658 236.257 5.4448 248.7 7.23683ZM243.277 290.46L339.114 304.261C352.354 306.167 361.357 307.451 368.396 307.885C375.252 308.307 378.862 307.803 381.457 306.919C387.701 304.793 393.111 300.744 396.913 295.354C398.493 293.114 399.996 289.793 401.525 283.096C403.096 276.221 404.404 267.222 406.31 253.981L425.008 124.139C426.915 110.898 428.199 101.896 428.633 94.8564C429.055 87.9999 428.55 84.3898 427.667 81.7949C425.541 75.551 421.492 70.1406 416.102 66.339C413.862 64.7591 410.541 63.2564 403.844 61.7268C396.968 60.1565 387.969 58.8484 374.729 56.9417L278.893 43.1407L243.277 290.46ZM247.978 38.6888L212.363 286.008L209.271 285.563C196.031 283.656 187.032 282.348 180.156 280.777C173.459 279.248 170.138 277.745 167.898 276.165C162.508 272.364 158.459 266.953 156.333 260.709C155.449 258.114 154.945 254.504 155.367 247.648C155.801 240.609 157.085 231.606 158.991 218.366L177.689 88.5233C179.596 75.2827 180.904 66.2837 182.475 59.4083C184.004 52.7113 185.507 49.3902 187.087 47.1501C190.888 41.7599 196.299 37.7115 202.543 35.5853C205.138 34.7017 208.748 34.1971 215.604 34.6193C222.643 35.0528 231.646 36.3369 244.886 38.2436L247.978 38.6888ZM295.401 92.852C296.63 84.3151 304.547 78.3911 313.084 79.6205L390.372 90.7503C398.909 91.9796 404.832 99.8968 403.603 108.434C402.374 116.971 394.457 122.895 385.92 121.665L308.632 110.535C300.096 109.306 294.172 101.389 295.401 92.852ZM286.497 154.682C287.727 146.145 295.644 140.221 304.181 141.45L381.468 152.58C390.005 153.809 395.929 161.726 394.699 170.263C393.47 178.8 385.553 184.724 377.016 183.495L299.729 172.365C291.192 171.136 285.268 163.219 286.497 154.682ZM277.593 216.511C278.823 207.975 286.74 202.051 295.277 203.28L372.564 214.41C381.101 215.639 387.025 223.556 385.795 232.093C384.566 240.63 376.649 246.554 368.112 245.325L290.825 234.195C282.288 232.966 276.364 225.048 277.593 216.511Z" fill="url(#paint0_linear_1978_34656)" fill-opacity="0.26"/>
<path d="M242.288 290.317L242.145 291.307L243.135 291.449L338.971 305.25C352.195 307.155 361.245 308.446 368.334 308.883C375.252 309.309 379.01 308.809 381.78 307.866C388.223 305.671 393.807 301.493 397.73 295.931C399.417 293.539 400.957 290.076 402.5 283.319C404.082 276.394 405.396 267.347 407.3 254.124L425.998 124.281C427.903 111.057 429.194 102.007 429.631 94.9179C430.057 87.9999 429.557 84.2425 428.613 81.4725C426.419 75.0288 422.241 69.4451 416.678 65.5218C414.287 63.8353 410.823 62.2952 404.066 60.752C397.142 59.1704 388.095 57.8562 374.871 55.9519L279.035 42.151L278.045 42.0084L277.903 42.9982L242.288 290.317ZM248.968 38.8314L249.11 37.8416L248.12 37.699L245.029 37.2539C231.805 35.3496 222.755 34.0578 215.666 33.6212C208.748 33.1952 204.99 33.6954 202.22 34.6387C195.777 36.833 190.193 41.0109 186.27 46.5737C184.583 48.9649 183.043 52.4286 181.5 59.1857C179.918 66.1102 178.604 75.157 176.7 88.3807L158.002 218.223C156.097 231.447 154.806 240.497 154.369 247.586C153.943 254.504 154.443 258.262 155.387 261.032C157.581 267.475 161.759 273.059 167.322 276.982C169.713 278.669 173.176 280.209 179.933 281.752C186.858 283.334 195.905 284.648 209.129 286.552L212.22 286.998L213.21 287.14L213.352 286.15L248.968 38.8314ZM248.557 8.22662L379.677 27.1085C392.134 28.9022 402.357 30.375 410.576 32.2521C419.101 34.1993 426.727 36.8355 433.527 41.632C444.135 49.1135 452.102 59.7611 456.287 72.0488C458.969 79.9268 459.347 87.986 458.809 96.7147C458.291 105.129 456.82 115.352 455.026 127.809L436.144 258.929C434.35 271.386 432.877 281.61 431 289.828C429.053 298.354 426.417 305.979 421.62 312.78C414.139 323.387 403.491 331.354 391.203 335.539C383.325 338.222 375.266 338.599 366.537 338.062C358.123 337.543 347.9 336.072 335.443 334.278L204.323 315.396C191.866 313.602 181.643 312.129 173.424 310.252C164.899 308.305 157.273 305.669 150.472 300.872C139.865 293.391 131.898 282.743 127.713 270.455C125.031 262.578 124.653 254.518 125.191 245.79C125.709 237.376 127.18 227.152 128.974 214.695L147.856 83.5755L146.867 83.433L147.856 83.5755C149.65 71.1181 151.123 60.8948 153 52.6764C154.947 44.1508 157.583 36.5255 162.38 29.7247C169.861 19.1169 180.509 11.1498 192.797 6.96546C200.675 4.28276 208.734 3.90523 217.462 4.44272C225.877 4.96085 236.1 6.43249 248.557 8.22662ZM296.391 92.9945C297.541 85.0043 304.952 79.4597 312.942 80.6103L390.229 91.7401C398.219 92.8907 403.764 100.301 402.613 108.291C401.463 116.281 394.052 121.826 386.062 120.675L308.775 109.546C300.785 108.395 295.24 100.985 296.391 92.9945ZM287.487 154.824C288.638 146.834 296.048 141.289 304.038 142.44L381.325 153.57C389.315 154.72 394.86 162.131 393.709 170.121C392.559 178.111 385.149 183.656 377.158 182.505L299.871 171.375C291.881 170.225 286.336 162.815 287.487 154.824ZM278.583 216.654C279.734 208.664 287.144 203.119 295.134 204.27L372.421 215.4C380.412 216.55 385.956 223.96 384.806 231.951C383.655 239.941 376.245 245.485 368.255 244.335L290.967 233.205C282.977 232.054 277.433 224.644 278.583 216.654Z" stroke="white" stroke-opacity="0.06" stroke-width="2"/>
</g>
<mask id="mask0_1978_34656" style="mask-type:alpha" maskUnits="userSpaceOnUse" x="123" y="3" width="338" height="337">
<path fill-rule="evenodd" clip-rule="evenodd" d="M248.7 7.23683L379.819 26.1187C392.262 27.9103 402.531 29.389 410.798 31.2772C419.385 33.2383 427.152 35.912 434.104 40.8148C444.884 48.418 452.981 59.2388 457.233 71.7265C459.975 79.779 460.349 87.9853 459.807 96.7761C459.286 105.24 457.807 115.509 456.015 127.952L437.133 259.072C435.342 271.514 433.863 281.784 431.975 290.051C430.014 298.637 427.34 306.404 422.437 313.356C414.834 324.136 404.013 332.233 391.526 336.485C383.473 339.228 375.267 339.601 366.476 339.06C358.012 338.538 347.743 337.06 335.3 335.268L204.18 316.386C191.738 314.594 181.469 313.115 173.202 311.227C164.615 309.266 156.848 306.592 149.896 301.689C139.116 294.086 131.019 283.265 126.767 270.778C124.024 262.725 123.651 254.519 124.192 245.728C124.714 237.264 126.193 226.995 127.985 214.552L146.867 83.433C148.658 70.9902 150.137 60.7208 152.025 52.4538C153.986 43.8674 156.66 36.0999 161.563 29.1483C169.166 18.3679 179.987 10.2713 192.474 6.01884C200.527 3.27669 208.733 2.9033 217.524 3.44461C225.988 3.9658 236.257 5.4448 248.7 7.23683ZM243.277 290.46L339.114 304.261C352.354 306.167 361.357 307.451 368.396 307.885C375.252 308.307 378.862 307.803 381.457 306.919C387.701 304.793 393.111 300.744 396.913 295.354C398.493 293.114 399.996 289.793 401.525 283.096C403.096 276.221 404.404 267.222 406.31 253.981L425.008 124.139C426.915 110.898 428.199 101.896 428.633 94.8564C429.055 87.9999 428.55 84.3898 427.667 81.7949C425.541 75.551 421.492 70.1406 416.102 66.339C413.862 64.7591 410.541 63.2564 403.844 61.7268C396.968 60.1565 387.969 58.8484 374.729 56.9417L278.893 43.1407L243.277 290.46ZM247.978 38.6888L212.363 286.008L209.271 285.563C196.031 283.656 187.032 282.348 180.156 280.777C173.459 279.248 170.138 277.745 167.898 276.165C162.508 272.364 158.459 266.953 156.333 260.709C155.449 258.114 154.945 254.504 155.367 247.648C155.801 240.609 157.085 231.606 158.991 218.366L177.689 88.5233C179.596 75.2827 180.904 66.2837 182.475 59.4083C184.004 52.7113 185.507 49.3902 187.087 47.1501C190.888 41.7599 196.299 37.7115 202.543 35.5853C205.138 34.7017 208.748 34.1971 215.604 34.6193C222.643 35.0528 231.646 36.3369 244.886 38.2436L247.978 38.6888ZM295.401 92.852C296.63 84.3151 304.547 78.3911 313.084 79.6205L390.372 90.7503C398.908 91.9796 404.832 99.8968 403.603 108.434C402.374 116.971 394.457 122.895 385.92 121.665L308.632 110.535C300.096 109.306 294.172 101.389 295.401 92.852ZM286.497 154.682C287.727 146.145 295.644 140.221 304.181 141.45L381.468 152.58C390.005 153.809 395.929 161.726 394.699 170.263C393.47 178.8 385.553 184.724 377.016 183.495L299.729 172.365C291.192 171.136 285.268 163.219 286.497 154.682ZM277.593 216.511C278.823 207.975 286.74 202.051 295.277 203.28L372.564 214.41C381.101 215.639 387.025 223.556 385.795 232.093C384.566 240.63 376.649 246.554 368.112 245.325L290.825 234.195C282.288 232.966 276.364 225.048 277.593 216.511Z" fill="url(#paint1_linear_1978_34656)" fill-opacity="0.26"/>
<path d="M242.288 290.317L242.145 291.307L243.135 291.449L338.971 305.25C352.195 307.155 361.245 308.446 368.334 308.883C375.252 309.309 379.01 308.809 381.78 307.866C388.223 305.671 393.807 301.493 397.73 295.931C399.417 293.539 400.957 290.076 402.5 283.319C404.082 276.394 405.396 267.347 407.3 254.124L425.998 124.281C427.903 111.057 429.194 102.007 429.631 94.9179C430.057 87.9999 429.557 84.2425 428.613 81.4725C426.419 75.0288 422.241 69.4451 416.678 65.5218C414.287 63.8353 410.823 62.2952 404.066 60.752C397.142 59.1704 388.095 57.8562 374.871 55.9519L279.035 42.151L278.045 42.0084L277.903 42.9982L242.288 290.317ZM248.968 38.8314L249.11 37.8416L248.12 37.699L245.029 37.2539C231.805 35.3496 222.755 34.0578 215.666 33.6212C208.748 33.1952 204.99 33.6954 202.22 34.6387C195.777 36.833 190.193 41.0109 186.27 46.5737C184.583 48.9649 183.043 52.4286 181.5 59.1857C179.918 66.1102 178.604 75.157 176.7 88.3807L158.002 218.223C156.097 231.447 154.806 240.497 154.369 247.586C153.943 254.504 154.443 258.262 155.387 261.032C157.581 267.475 161.759 273.059 167.322 276.982C169.713 278.669 173.176 280.209 179.933 281.752C186.858 283.334 195.905 284.648 209.129 286.552L212.22 286.998L213.21 287.14L213.352 286.15L248.968 38.8314ZM248.557 8.22662L379.677 27.1085C392.134 28.9022 402.357 30.375 410.576 32.2521C419.101 34.1993 426.727 36.8355 433.527 41.632C444.135 49.1135 452.102 59.7611 456.287 72.0488C458.969 79.9268 459.347 87.986 458.809 96.7147C458.291 105.129 456.82 115.352 455.026 127.809L436.144 258.929C434.35 271.386 432.877 281.61 431 289.828C429.053 298.354 426.417 305.979 421.62 312.78C414.139 323.387 403.491 331.354 391.203 335.539C383.325 338.222 375.266 338.599 366.537 338.062C358.123 337.543 347.9 336.072 335.443 334.278L204.323 315.396C191.866 313.602 181.643 312.129 173.424 310.252C164.899 308.305 157.273 305.669 150.472 300.872C139.865 293.391 131.898 282.743 127.713 270.455C125.031 262.578 124.653 254.518 125.191 245.79C125.709 237.376 127.18 227.152 128.974 214.695L147.856 83.5755L146.867 83.433L147.856 83.5755C149.65 71.1181 151.123 60.8948 153 52.6764C154.947 44.1508 157.583 36.5255 162.38 29.7247C169.861 19.1169 180.509 11.1498 192.797 6.96546C200.675 4.28276 208.734 3.90523 217.462 4.44272C225.877 4.96085 236.1 6.43249 248.557 8.22662ZM296.391 92.9945C297.541 85.0043 304.952 79.4597 312.942 80.6103L390.229 91.7401C398.219 92.8907 403.764 100.301 402.613 108.291C401.463 116.281 394.052 121.826 386.062 120.675L308.775 109.546C300.785 108.395 295.24 100.985 296.391 92.9945ZM287.487 154.824C288.638 146.834 296.048 141.289 304.038 142.44L381.325 153.57C389.315 154.72 394.86 162.131 393.709 170.121C392.559 178.111 385.149 183.656 377.158 182.505L299.871 171.375C291.881 170.225 286.336 162.815 287.487 154.824ZM278.583 216.654C279.734 208.664 287.144 203.119 295.134 204.27L372.421 215.4C380.412 216.55 385.956 223.96 384.806 231.951C383.655 239.941 376.245 245.485 368.255 244.335L290.967 233.205C282.977 232.054 277.433 224.644 278.583 216.654Z" stroke="white" stroke-opacity="0.06" stroke-width="2"/>
</mask>
<g mask="url(#mask0_1978_34656)">
<g opacity="0.4" filter="url(#filter2_f_1978_34656)">
<rect x="247.852" y="101.352" width="373.965" height="373.965" rx="112" transform="rotate(-4.33436 247.852 101.352)" fill="#285BF3"/>
</g>
</g>
</g>
<g filter="url(#filter3_b_1978_34656)">
<rect x="383" y="215.917" width="142.783" height="142.783" rx="71.3917" transform="rotate(-7.18238 383 215.917)" fill="#285BF3" fill-opacity="0.85"/>
<g clip-path="url(#clip3_1978_34656)">
<path fill-rule="evenodd" clip-rule="evenodd" d="M445.668 262.633C444.489 262.781 443.654 263.857 443.802 265.036C443.951 266.214 445.027 267.049 446.205 266.901L476.082 263.136C479.618 262.69 482.846 265.195 483.291 268.731L485.981 290.072C486.426 293.608 483.921 296.835 480.385 297.281L450.508 301.046C446.972 301.491 443.745 298.986 443.299 295.45L439.534 265.573C439.089 262.038 441.594 258.81 445.13 258.364L470.739 255.137C471.917 254.989 472.993 255.824 473.142 257.002C473.29 258.181 472.455 259.257 471.276 259.405L445.668 262.633ZM444.563 271.074L447.567 294.913C447.716 296.091 448.792 296.926 449.97 296.778L479.847 293.013C481.026 292.864 481.861 291.788 481.712 290.61L479.023 269.269C478.875 268.09 477.799 267.255 476.62 267.404L446.743 271.169C445.995 271.263 445.261 271.225 444.563 271.074ZM469.698 281.284C469.475 279.516 470.727 277.902 472.495 277.68C474.263 277.457 475.877 278.709 476.1 280.477C476.323 282.245 475.07 283.859 473.302 284.082C471.534 284.304 469.92 283.052 469.698 281.284Z" fill="white"/>
</g>
<rect x="384.442" y="217.036" width="140.202" height="140.202" rx="70.1011" transform="rotate(-7.18238 384.442 217.036)" stroke="white" stroke-opacity="0.08" stroke-width="2.58113"/>
</g>
</g>
<defs>
<filter id="filter0_b_1978_34656" x="14.5748" y="-31.8935" width="201.182" height="201.182" filterUnits="userSpaceOnUse" color-interpolation-filters="sRGB">
<feFlood flood-opacity="0" result="BackgroundImageFix"/>
<feGaussianBlur in="BackgroundImageFix" stdDeviation="16.6284"/>
<feComposite in2="SourceAlpha" operator="in" result="effect1_backgroundBlur_1978_34656"/>
<feBlend mode="normal" in="SourceGraphic" in2="effect1_backgroundBlur_1978_34656" result="shape"/>
</filter>
<filter id="filter1_b_1978_34656" x="91.7931" y="-28.9547" width="400.414" height="400.414" filterUnits="userSpaceOnUse" color-interpolation-filters="sRGB">
<feFlood flood-opacity="0" result="BackgroundImageFix"/>
<feGaussianBlur in="BackgroundImageFix" stdDeviation="16.0937"/>
<feComposite in2="SourceAlpha" operator="in" result="effect1_backgroundBlur_1978_34656"/>
<feBlend mode="normal" in="SourceGraphic" in2="effect1_backgroundBlur_1978_34656" result="shape"/>
</filter>
<filter id="filter2_f_1978_34656" x="119.991" y="-54.772" width="656.88" height="656.88" filterUnits="userSpaceOnUse" color-interpolation-filters="sRGB">
<feFlood flood-opacity="0" result="BackgroundImageFix"/>
<feBlend mode="normal" in="SourceGraphic" in2="BackgroundImageFix" result="shape"/>
<feGaussianBlur stdDeviation="68" result="effect1_foregroundBlur_1978_34656"/>
</filter>
<filter id="filter3_b_1978_34656" x="332" y="147.065" width="261.515" height="261.515" filterUnits="userSpaceOnUse" color-interpolation-filters="sRGB">
<feFlood flood-opacity="0" result="BackgroundImageFix"/>
<feGaussianBlur in="BackgroundImageFix" stdDeviation="25.5"/>
<feComposite in2="SourceAlpha" operator="in" result="effect1_backgroundBlur_1978_34656"/>
<feBlend mode="normal" in="SourceGraphic" in2="effect1_backgroundBlur_1978_34656" result="shape"/>
</filter>
<linearGradient id="paint0_linear_1978_34656" x1="314.259" y1="16.6778" x2="462.831" y2="398.211" gradientUnits="userSpaceOnUse">
<stop offset="0.151042" stop-color="#E0E1FF"/>
<stop offset="1" stop-color="white" stop-opacity="0"/>
</linearGradient>
<linearGradient id="paint1_linear_1978_34656" x1="314.259" y1="16.6778" x2="462.831" y2="398.211" gradientUnits="userSpaceOnUse">
<stop offset="0.151042" stop-color="#E0E1FF"/>
<stop offset="1" stop-color="white" stop-opacity="0"/>
</linearGradient>
<clipPath id="clip0_1978_34656">
<rect width="584" height="400" rx="12" fill="white"/>
</clipPath>
<clipPath id="clip1_1978_34656">
<rect width="49.3943" height="49.3943" fill="white" transform="translate(87.088 47.924) rotate(-8.50395)"/>
</clipPath>
<clipPath id="clip2_1978_34656">
<rect width="374.805" height="374.805" fill="white" transform="translate(133.222 -40.9486) rotate(8.19457)"/>
</clipPath>
<clipPath id="clip3_1978_34656">
<rect width="51.6227" height="51.6227" fill="white" transform="translate(433.922 255.441) rotate(-7.18238)"/>
</clipPath>
</defs>
</svg>
