<svg width="20" height="20" viewBox="0 0 20 20" fill="none" xmlns="http://www.w3.org/2000/svg">
<path fill-rule="evenodd" clip-rule="evenodd" d="M4.30119 3.33325H15.6988C16.1381 3.33324 16.517 3.33322 16.8292 3.35873C17.1586 3.38565 17.4863 3.44508 17.8016 3.60574C18.272 3.84542 18.6545 4.22787 18.8942 4.69828C19.0548 5.01359 19.1143 5.34128 19.1412 5.67073C19.1667 5.98287 19.1667 6.36183 19.1666 6.80112V9.99992C19.1666 10.4602 18.7936 10.8333 18.3333 10.8333C17.8731 10.8333 17.5 10.4602 17.5 9.99992V9.16659H2.49998V13.1666C2.49998 13.647 2.50063 13.9573 2.51992 14.1934C2.53842 14.4198 2.56982 14.5037 2.59081 14.5449C2.6707 14.7017 2.79819 14.8292 2.95499 14.9091C2.99619 14.9301 3.08013 14.9615 3.30651 14.98C3.54263 14.9993 3.85285 14.9999 4.33331 14.9999H9.99998C10.4602 14.9999 10.8333 15.373 10.8333 15.8333C10.8333 16.2935 10.4602 16.6666 9.99998 16.6666H4.30121C3.86191 16.6666 3.48294 16.6666 3.17079 16.6411C2.84134 16.6142 2.51365 16.5548 2.19834 16.3941C1.72793 16.1544 1.34548 15.772 1.1058 15.3016C0.945136 14.9862 0.885707 14.6586 0.858789 14.3291C0.833286 14.017 0.833299 13.638 0.833314 13.1987V6.80113C0.833299 6.36184 0.833286 5.98287 0.858789 5.67073C0.885707 5.34128 0.945137 5.01359 1.1058 4.69828C1.34548 4.22787 1.72793 3.84542 2.19834 3.60574C2.51365 3.44508 2.84134 3.38565 3.17079 3.35873C3.48293 3.33322 3.8619 3.33324 4.30119 3.33325ZM2.49998 7.49992H17.5V6.83325C17.5 6.35279 17.4993 6.04257 17.48 5.80645C17.4615 5.58007 17.4301 5.49613 17.4092 5.45493C17.3293 5.29813 17.2018 5.17064 17.045 5.09075C17.0038 5.06976 16.9198 5.03836 16.6935 5.01986C16.4573 5.00057 16.1471 4.99992 15.6666 4.99992H4.33332C3.85285 4.99992 3.54263 5.00057 3.30651 5.01986C3.08013 5.03836 2.99619 5.06975 2.95499 5.09075C2.79819 5.17064 2.6707 5.29813 2.59081 5.45493C2.56982 5.49613 2.53842 5.58006 2.51992 5.80645C2.50063 6.04256 2.49998 6.35279 2.49998 6.83325V7.49992ZM18.9226 12.744C19.248 13.0694 19.248 13.5971 18.9226 13.9225L15.5892 17.2558C15.2638 17.5813 14.7362 17.5813 14.4107 17.2558L12.7441 15.5892C12.4186 15.2637 12.4186 14.7361 12.7441 14.4107C13.0695 14.0852 13.5971 14.0852 13.9226 14.4107L15 15.4881L17.7441 12.744C18.0695 12.4186 18.5971 12.4186 18.9226 12.744Z" fill="#ACAEB7"/>
</svg>
