<svg width="20" height="20" viewBox="0 0 20 20" fill="none" xmlns="http://www.w3.org/2000/svg">
<path fill-rule="evenodd" clip-rule="evenodd" d="M6.66669 0.833252C7.12692 0.833252 7.50002 1.20635 7.50002 1.66659V2.49992H12.5V1.66659C12.5 1.20635 12.8731 0.833252 13.3334 0.833252C13.7936 0.833252 14.1667 1.20635 14.1667 1.66659V2.50127C14.5629 2.504 14.9092 2.51218 15.2099 2.53675C15.6783 2.57502 16.1089 2.65715 16.5133 2.86323C17.1405 3.18281 17.6505 3.69274 17.97 4.31995C18.1761 4.7244 18.2583 5.15498 18.2965 5.6234C18.3334 6.07439 18.3334 6.62802 18.3334 7.29882V10.4166C18.3334 10.8768 17.9603 11.2499 17.5 11.2499C17.0398 11.2499 16.6667 10.8768 16.6667 10.4166V9.16658H3.33335V14.3333C3.33335 15.0471 3.334 15.5323 3.36465 15.9074C3.3945 16.2727 3.4486 16.4596 3.51501 16.5899C3.6748 16.9035 3.92977 17.1585 4.24337 17.3183C4.3737 17.3847 4.56054 17.4388 4.92589 17.4686C5.30096 17.4993 5.7862 17.4999 6.50002 17.4999H10C10.4603 17.4999 10.8334 17.873 10.8334 18.3333C10.8334 18.7935 10.4603 19.1666 10 19.1666H6.46558C5.79479 19.1666 5.24116 19.1666 4.79017 19.1298C4.32175 19.0915 3.89117 19.0093 3.48672 18.8033C2.85951 18.4837 2.34958 17.9738 2.03 17.3466C1.82392 16.9421 1.74179 16.5115 1.70352 16.0431C1.66667 15.5921 1.66668 15.0385 1.66669 14.3677V7.29883C1.66668 6.62803 1.66667 6.07439 1.70352 5.6234C1.74179 5.15498 1.82392 4.7244 2.03 4.31995C2.34958 3.69274 2.85951 3.18281 3.48672 2.86323C3.89117 2.65715 4.32175 2.57502 4.79017 2.53675C5.09084 2.51218 5.43713 2.504 5.83335 2.50127V1.66659C5.83335 1.20635 6.20645 0.833252 6.66669 0.833252ZM5.83335 4.16805C5.46208 4.17066 5.17055 4.17789 4.92589 4.19788C4.56054 4.22773 4.3737 4.28183 4.24337 4.34824C3.92977 4.50803 3.6748 4.763 3.51501 5.0766C3.4486 5.20693 3.3945 5.39377 3.36465 5.75912C3.334 6.13419 3.33335 6.61943 3.33335 7.33325V7.49992H16.6667V7.33325C16.6667 6.61944 16.666 6.13419 16.6354 5.75912C16.6055 5.39377 16.5514 5.20693 16.485 5.0766C16.3252 4.763 16.0703 4.50803 15.7567 4.34824C15.6263 4.28183 15.4395 4.22773 15.0742 4.19788C14.8295 4.17789 14.538 4.17066 14.1667 4.16805V4.99992C14.1667 5.46016 13.7936 5.83325 13.3334 5.83325C12.8731 5.83325 12.5 5.46016 12.5 4.99992V4.16658H7.50002V4.99992C7.50002 5.46016 7.12692 5.83325 6.66669 5.83325C6.20645 5.83325 5.83335 5.46016 5.83335 4.99992V4.16805ZM18.0893 13.1607C18.4147 13.4861 18.4147 14.0137 18.0893 14.3392L14.3393 18.0892C14.0138 18.4146 13.4862 18.4146 13.1608 18.0892L11.4941 16.4225C11.1687 16.0971 11.1687 15.5694 11.4941 15.244C11.8195 14.9186 12.3472 14.9186 12.6726 15.244L13.75 16.3214L16.9108 13.1607C17.2362 12.8352 17.7638 12.8352 18.0893 13.1607Z" fill="#ACAEB7"/>
</svg>
