<svg width="20" height="20" viewBox="0 0 20 20" fill="none" xmlns="http://www.w3.org/2000/svg">
<path fill-rule="evenodd" clip-rule="evenodd" d="M5.12987 10.9593C5.12987 10.3149 5.6522 9.7926 6.29653 9.7926H8.35159C8.81183 9.7926 9.18492 10.1657 9.18492 10.6259C9.18492 11.0862 8.81183 11.4593 8.35159 11.4593H6.79653V12.1584H7.82108C8.74155 12.1584 9.48774 12.9046 9.48774 13.825V14.7906C9.48774 15.711 8.74155 16.4572 7.82108 16.4572H6.79653C5.87606 16.4572 5.12987 15.711 5.12987 14.7906V10.9593ZM6.79653 13.825V14.7906H7.82108V13.825H6.79653Z" fill="#ACAEB7"/>
<path fill-rule="evenodd" clip-rule="evenodd" d="M12.179 9.7926C11.2585 9.7926 10.5123 10.5388 10.5123 11.4593V14.7906C10.5123 15.711 11.2585 16.4572 12.179 16.4572H13.2035C14.124 16.4572 14.8702 15.711 14.8702 14.7906V11.4593C14.8702 10.5388 14.124 9.7926 13.2035 9.7926H12.179ZM12.179 11.4593H13.2035V14.7906H12.179V11.4593Z" fill="#ACAEB7"/>
<path fill-rule="evenodd" clip-rule="evenodd" d="M6.66669 0.833252C7.12693 0.833252 7.50002 1.20635 7.50002 1.66659V2.49992H12.5V1.66659C12.5 1.20635 12.8731 0.833252 13.3334 0.833252C13.7936 0.833252 14.1667 1.20635 14.1667 1.66659V2.50127C14.5629 2.504 14.9092 2.51218 15.2099 2.53675C15.6783 2.57502 16.1089 2.65715 16.5133 2.86323C17.1405 3.18281 17.6505 3.69274 17.97 4.31995C18.1761 4.7244 18.2583 5.15498 18.2965 5.6234C18.3334 6.07439 18.3334 6.62802 18.3334 7.29882V14.3677C18.3334 15.0385 18.3334 15.5921 18.2965 16.0431C18.2583 16.5115 18.1761 16.9421 17.97 17.3466C17.6505 17.9738 17.1405 18.4837 16.5133 18.8033C16.1089 19.0093 15.6783 19.0915 15.2099 19.1298C14.7589 19.1666 14.2053 19.1666 13.5345 19.1666H6.46558C5.79479 19.1666 5.24116 19.1666 4.79017 19.1298C4.32175 19.0915 3.89117 19.0093 3.48672 18.8033C2.85951 18.4837 2.34958 17.9738 2.03 17.3466C1.82392 16.9421 1.74179 16.5115 1.70352 16.0431C1.66667 15.5921 1.66668 15.0385 1.66669 14.3677V7.29883C1.66668 6.62803 1.66667 6.07439 1.70352 5.6234C1.74179 5.15498 1.82392 4.7244 2.03 4.31995C2.34958 3.69274 2.85951 3.18281 3.48672 2.86323C3.89117 2.65715 4.32175 2.57502 4.79017 2.53675C5.09084 2.51218 5.43713 2.504 5.83335 2.50127V1.66659C5.83335 1.20635 6.20645 0.833252 6.66669 0.833252ZM5.83335 4.16805C5.46208 4.17066 5.17055 4.17789 4.92589 4.19788C4.56054 4.22773 4.3737 4.28183 4.24337 4.34824C3.92977 4.50803 3.6748 4.763 3.51501 5.0766C3.4486 5.20693 3.3945 5.39377 3.36465 5.75912C3.334 6.13419 3.33335 6.61944 3.33335 7.33325V7.49992H16.6667V7.33325C16.6667 6.61944 16.666 6.13419 16.6354 5.75912C16.6055 5.39377 16.5514 5.20693 16.485 5.0766C16.3252 4.763 16.0703 4.50803 15.7567 4.34824C15.6263 4.28183 15.4395 4.22773 15.0742 4.19788C14.8295 4.17789 14.538 4.17066 14.1667 4.16805V4.99992C14.1667 5.46016 13.7936 5.83325 13.3334 5.83325C12.8731 5.83325 12.5 5.46016 12.5 4.99992V4.16658H7.50002V4.99992C7.50002 5.46016 7.12693 5.83325 6.66669 5.83325C6.20645 5.83325 5.83335 5.46016 5.83335 4.99992V4.16805ZM16.6667 9.16658H3.33335V14.3333C3.33335 15.0471 3.334 15.5323 3.36465 15.9074C3.3945 16.2727 3.4486 16.4596 3.51501 16.5899C3.6748 16.9035 3.92977 17.1585 4.24337 17.3183C4.3737 17.3847 4.56054 17.4388 4.92589 17.4686C5.30096 17.4993 5.7862 17.4999 6.50002 17.4999H13.5C14.2138 17.4999 14.6991 17.4993 15.0742 17.4686C15.4395 17.4388 15.6263 17.3847 15.7567 17.3183C16.0703 17.1585 16.3252 16.9035 16.485 16.5899C16.5514 16.4596 16.6055 16.2727 16.6354 15.9074C16.666 15.5323 16.6667 15.0471 16.6667 14.3333V9.16658Z" fill="#ACAEB7"/>
</svg>
