<svg width="40" height="40" viewBox="0 0 40 40" fill="none" xmlns="http://www.w3.org/2000/svg">
<rect width="40" height="40" rx="20" fill="#285BF3"/>
<path fill-rule="evenodd" clip-rule="evenodd" d="M19.8026 11.0205L19.8026 11.0205L19.8026 11.0205ZM20 11.1181L27.7639 15.0001L20 18.882L12.2361 15.0001L20 11.1181ZM19.8026 18.9796C19.8024 18.9797 19.8024 18.9797 19.8026 18.9796L19.8026 18.9796ZM20.1974 18.9796C20.1976 18.9797 20.1976 18.9797 20.1974 18.9796L20.1974 18.9796ZM20.1974 11.0205L20.1974 11.0205L20.1974 11.0205ZM19.7234 9.0848C19.9062 9.05051 20.0938 9.05051 20.2766 9.0848C20.493 9.12541 20.6861 9.22394 20.7794 9.27155C20.789 9.27646 20.7976 9.28082 20.805 9.28452L30.4472 14.1056C30.786 14.275 31 14.6213 31 15.0001C31 15.3788 30.786 15.7251 30.4472 15.8945L20.805 20.7156C20.7976 20.7193 20.789 20.7237 20.7794 20.7286C20.6861 20.7762 20.493 20.8747 20.2766 20.9153C20.0938 20.9496 19.9062 20.9496 19.7234 20.9153C19.507 20.8747 19.3139 20.7762 19.2206 20.7286C19.211 20.7237 19.2024 20.7193 19.195 20.7156L9.55279 15.8945C9.21401 15.7251 9.00001 15.3788 9.00001 15.0001C9.00001 14.6213 9.21401 14.275 9.55279 14.1056L19.195 9.28452C19.2024 9.28082 19.211 9.27646 19.2206 9.27155C19.3139 9.22394 19.507 9.12541 19.7234 9.0848ZM9.10558 19.5529C9.35257 19.0589 9.95324 18.8586 10.4472 19.1056L20 23.882L29.5528 19.1056C30.0468 18.8586 30.6474 19.0589 30.8944 19.5529C31.1414 20.0468 30.9412 20.6475 30.4472 20.8945L20.805 25.7156C20.7976 25.7193 20.789 25.7237 20.7794 25.7286C20.6861 25.7762 20.493 25.8747 20.2766 25.9153C20.0938 25.9496 19.9062 25.9496 19.7234 25.9153C19.507 25.8747 19.3139 25.7762 19.2206 25.7286C19.211 25.7237 19.2024 25.7193 19.195 25.7156L9.55279 20.8945C9.05881 20.6475 8.85859 20.0468 9.10558 19.5529ZM19.8026 23.9796C19.8024 23.9797 19.8024 23.9797 19.8026 23.9796L19.8026 23.9796ZM20.1974 23.9796C20.1976 23.9797 20.1976 23.9797 20.1974 23.9796L20.1974 23.9796ZM9.10558 24.5529C9.35257 24.0589 9.95324 23.8586 10.4472 24.1056L20 28.882L29.5528 24.1056C30.0468 23.8586 30.6474 24.0589 30.8944 24.5529C31.1414 25.0468 30.9412 25.6475 30.4472 25.8945L20.805 30.7156C20.7976 30.7193 20.789 30.7237 20.7794 30.7286C20.6861 30.7762 20.493 30.8747 20.2766 30.9153C20.0938 30.9496 19.9062 30.9496 19.7234 30.9153C19.507 30.8747 19.3139 30.7762 19.2206 30.7286C19.211 30.7237 19.2024 30.7193 19.195 30.7156L9.55279 25.8945C9.05881 25.6475 8.85859 25.0468 9.10558 24.5529Z" fill="white"/>
</svg>
