<svg width="20" height="20" viewBox="0 0 20 20" fill="none" xmlns="http://www.w3.org/2000/svg">
<g clip-path="url(#clip0_311_34432)">
<path fill-rule="evenodd" clip-rule="evenodd" d="M9.99998 2.49992C5.85784 2.49992 2.49998 5.85778 2.49998 9.99992C2.49998 14.1421 5.85784 17.4999 9.99998 17.4999C14.1421 17.4999 17.5 14.1421 17.5 9.99992C17.5 5.85778 14.1421 2.49992 9.99998 2.49992ZM0.833313 9.99992C0.833313 4.93731 4.93737 0.833252 9.99998 0.833252C15.0626 0.833252 19.1666 4.93731 19.1666 9.99992C19.1666 15.0625 15.0626 19.1666 9.99998 19.1666C4.93737 19.1666 0.833313 15.0625 0.833313 9.99992Z" fill="#ACAEB7"/>
<path d="M9.99998 14.9999C9.99998 15.4602 10.375 15.8394 10.8305 15.7738C12.0706 15.5955 13.2285 15.021 14.1248 14.1247C15.2187 13.0307 15.8333 11.547 15.8333 9.99992C15.8333 8.45282 15.2187 6.96909 14.1248 5.87513C13.2285 4.97885 12.0706 4.40435 10.8305 4.22599C10.375 4.16047 9.99998 4.53968 9.99998 4.99992L9.99998 14.9999Z" fill="#ACAEB7"/>
</g>
<defs>
<clipPath id="clip0_311_34432">
<rect width="20" height="20" fill="white"/>
</clipPath>
</defs>
</svg>
