<svg width="25" height="24" viewBox="0 0 25 24" fill="none" xmlns="http://www.w3.org/2000/svg">
<path fill-rule="evenodd" clip-rule="evenodd" d="M9.2587 1.99951L15.7413 1.99951C16.5463 1.9995 17.2106 1.99949 17.7518 2.04371C18.3139 2.08963 18.8306 2.1882 19.316 2.43549C20.0686 2.81898 20.6805 3.4309 21.064 4.18355C21.3113 4.66889 21.4099 5.18559 21.4558 5.74769C21.5 6.28888 21.5 6.95323 21.5 7.75819V20.9995C21.5 21.3756 21.2889 21.7199 20.9538 21.8906C20.6186 22.0613 20.216 22.0295 19.9118 21.8082L17.7789 20.257L15.8747 21.7804C15.5229 22.0619 15.0262 22.0733 14.6618 21.8082L12.5 20.236L10.3382 21.8082C9.97378 22.0733 9.47715 22.0619 9.12531 21.7804L7.22111 20.257L5.08817 21.8082C4.78399 22.0295 4.38139 22.0613 4.04622 21.8906C3.71105 21.7199 3.5 21.3756 3.5 20.9995L3.5 7.75821C3.49999 6.95324 3.49998 6.28888 3.54419 5.74769C3.59012 5.18559 3.68868 4.66889 3.93597 4.18355C4.31947 3.4309 4.93139 2.81898 5.68404 2.43549C6.16937 2.1882 6.68608 2.08963 7.24818 2.04371C7.78937 1.99949 8.45373 1.9995 9.2587 1.99951ZM7.41104 4.03706C6.97262 4.07288 6.74842 4.13781 6.59202 4.2175C6.2157 4.40925 5.90973 4.71521 5.71799 5.09153C5.6383 5.24793 5.57337 5.47213 5.53755 5.91055C5.50078 6.36064 5.5 6.94293 5.5 7.79951V19.0357L6.66183 18.1908C7.02623 17.9258 7.52285 17.9372 7.8747 18.2186L9.77889 19.742L11.9118 18.1908C12.2625 17.9358 12.7375 17.9358 13.0882 18.1908L15.2211 19.742L17.1253 18.2186C17.4771 17.9372 17.9738 17.9258 18.3382 18.1908L19.5 19.0357V7.79951C19.5 6.94293 19.4992 6.36064 19.4625 5.91055C19.4266 5.47214 19.3617 5.24793 19.282 5.09153C19.0903 4.71521 18.7843 4.40925 18.408 4.2175C18.2516 4.13781 18.0274 4.07288 17.589 4.03706C17.1389 4.00029 16.5566 3.99951 15.7 3.99951L9.3 3.99951C8.44342 3.99951 7.86113 4.00029 7.41104 4.03706ZM16.7071 7.29241C17.0976 7.68293 17.0976 8.31609 16.7071 8.70662L12.2071 13.2066C11.8166 13.5971 11.1834 13.5971 10.7929 13.2066L8.79289 11.2066C8.40237 10.8161 8.40237 10.1829 8.79289 9.79241C9.18342 9.40188 9.81658 9.40188 10.2071 9.79241L11.5 11.0853L15.2929 7.29241C15.6834 6.90188 16.3166 6.90188 16.7071 7.29241Z" fill="white"/>
</svg>
