<svg width="283" height="246" viewBox="0 0 283 246" fill="none" xmlns="http://www.w3.org/2000/svg">
<g clip-path="url(#clip0_311_43274)">
<g opacity="0.2" filter="url(#filter0_f_311_43274)">
<ellipse cx="150.278" cy="138.961" rx="102.121" ry="79.5337" transform="rotate(5.50343 150.278 138.961)" fill="#5580FF"/>
</g>
<circle cx="139.407" cy="120.407" r="90" transform="rotate(5.50343 139.407 120.407)" fill="#285BF3"/>
<g clip-path="url(#clip1_311_43274)">
<path d="M151.839 111.15C151.001 111.069 150.186 110.991 149.501 110.868C148.748 110.733 147.867 110.5 147.011 109.954C145.824 109.198 144.906 108.085 144.39 106.775C144.018 105.83 143.958 104.921 143.969 104.157C143.979 103.461 144.058 102.645 144.139 101.808L145.23 90.4867L145.871 83.8358C144.992 83.6987 144.033 83.6068 142.935 83.5015L142.597 83.469L131.803 82.429C129.132 82.1717 126.928 81.9592 125.118 81.9329C123.238 81.9056 121.492 82.0675 119.803 82.7328C117.183 83.7646 114.957 85.5993 113.444 87.974C112.468 89.5053 111.976 91.1882 111.644 93.0385C111.324 94.8201 111.112 97.0244 110.855 99.6953L107.504 134.476C107.246 137.147 107.034 139.351 107.008 141.161C106.98 143.041 107.142 144.787 107.807 146.476C108.839 149.096 110.674 151.322 113.049 152.835C114.58 153.811 116.263 154.303 118.113 154.635C119.895 154.955 122.099 155.167 124.77 155.424L146.279 157.497C148.95 157.754 151.154 157.967 152.964 157.993C154.844 158.02 156.59 157.858 158.279 157.193C160.899 156.161 163.125 154.326 164.638 151.952C165.613 150.42 166.106 148.738 166.438 146.887C166.757 145.106 166.97 142.901 167.227 140.231L169.546 116.165L169.578 115.827C169.685 114.728 169.778 113.77 169.811 112.881L163.16 112.24L151.839 111.15Z" fill="white"/>
<path d="M151.42 95.7525L150.747 102.739C150.693 103.297 150.666 103.575 150.754 103.799C150.832 103.995 150.969 104.162 151.147 104.276C151.35 104.405 151.628 104.432 152.186 104.485L159.173 105.159L168.214 106.03C167.536 104.821 166.611 103.7 165.436 102.276L165.22 102.014L155.661 90.4166L155.445 90.1545C154.3 88.7636 153.393 87.6622 152.367 86.7764L151.42 95.7525Z" fill="white"/>
</g>
</g>
<defs>
<filter id="filter0_f_311_43274" x="0.337128" y="11.1822" width="299.882" height="255.558" filterUnits="userSpaceOnUse" color-interpolation-filters="sRGB">
<feFlood flood-opacity="0" result="BackgroundImageFix"/>
<feBlend mode="normal" in="SourceGraphic" in2="BackgroundImageFix" result="shape"/>
<feGaussianBlur stdDeviation="24" result="effect1_foregroundBlur_311_43274"/>
</filter>
<clipPath id="clip0_311_43274">
<rect width="283" height="246" fill="white"/>
</clipPath>
<clipPath id="clip1_311_43274">
<rect width="80" height="80" fill="white" transform="translate(103.062 76.311) rotate(5.50343)"/>
</clipPath>
</defs>
</svg>
