<svg width="32" height="32" viewBox="0 0 32 32" fill="none" xmlns="http://www.w3.org/2000/svg">
<path fill-rule="evenodd" clip-rule="evenodd" d="M6.66671 4.00004C5.19395 4.00004 4.00004 5.19395 4.00004 6.66671C4.00004 8.13947 5.19395 9.33337 6.66671 9.33337C8.13947 9.33337 9.33337 8.13947 9.33337 6.66671C9.33337 5.19395 8.13947 4.00004 6.66671 4.00004ZM1.33337 6.66671C1.33337 3.72119 3.72119 1.33337 6.66671 1.33337C9.61223 1.33337 12 3.72119 12 6.66671C12 9.61223 9.61223 12 6.66671 12C3.72119 12 1.33337 9.61223 1.33337 6.66671ZM20.4708 8.08679C19.4265 8.00114 17.9692 8.00004 15.9126 8.00004H15.3334C14.597 8.00004 14 7.40309 14 6.66671C14 5.93033 14.597 5.33337 15.3334 5.33337L15.9796 5.33337C17.9544 5.33336 19.522 5.33335 20.6888 5.42905C21.2831 5.47779 21.8332 5.55531 22.3148 5.69167C22.795 5.82766 23.2898 6.04487 23.6947 6.42795C24.6945 7.37411 25.1377 8.76794 24.8677 10.1178C24.7584 10.6643 24.4799 11.1274 24.1663 11.5157C23.8519 11.9051 23.4476 12.2861 22.9905 12.6691C22.0932 13.421 20.8133 14.3263 19.201 15.4666L13.727 19.3386C12.0479 20.5262 10.8587 21.3686 10.0556 22.0416C9.65733 22.3754 9.40071 22.6295 9.24191 22.8262C9.11046 22.989 9.08259 23.0679 9.07975 23.0762C8.99184 23.5234 9.13844 23.9845 9.46845 24.2988C9.47555 24.304 9.54387 24.3523 9.74521 24.4093C9.98843 24.4782 10.3447 24.5375 10.8626 24.58C11.9069 24.6656 13.3642 24.6667 15.4208 24.6667H16.6667C17.4031 24.6667 18 25.2637 18 26C18 26.7364 17.4031 27.3334 16.6667 27.3334H15.3539C13.379 27.3334 11.8114 27.3334 10.6446 27.2377C10.0503 27.189 9.50019 27.1114 9.01865 26.9751C8.53841 26.8391 8.0436 26.6219 7.63877 26.2388C6.63887 25.2926 6.19576 23.8988 6.46571 22.549C6.57501 22.0024 6.85355 21.5394 7.16709 21.151C7.48149 20.7616 7.88586 20.3806 8.34289 19.9977C9.24024 19.2457 10.5201 18.3405 12.1324 17.2001L17.6065 13.3282C19.2855 12.1406 20.4747 11.2981 21.2778 10.6251C21.6761 10.2914 21.9327 10.0372 22.0915 9.84056C22.2229 9.67781 22.2508 9.5989 22.2537 9.59057C22.3416 9.14338 22.195 8.68224 21.865 8.36791C21.8579 8.36279 21.7895 8.31446 21.5882 8.25745C21.345 8.18857 20.9887 8.12927 20.4708 8.08679ZM25.3334 22.6667C23.8606 22.6667 22.6667 23.8606 22.6667 25.3334C22.6667 26.8061 23.8606 28 25.3334 28C26.8061 28 28 26.8061 28 25.3334C28 23.8606 26.8061 22.6667 25.3334 22.6667ZM20 25.3334C20 22.3879 22.3879 20 25.3334 20C28.2789 20 30.6667 22.3879 30.6667 25.3334C30.6667 28.2789 28.2789 30.6667 25.3334 30.6667C22.3879 30.6667 20 28.2789 20 25.3334Z" fill="#285BF3"/>
</svg>
