<svg width="465" height="262" viewBox="0 0 465 262" fill="none" xmlns="http://www.w3.org/2000/svg">
<g clip-path="url(#clip0_311_52683)">
<rect width="505" height="262" fill="url(#paint0_linear_311_52683)"/>
<g filter="url(#filter0_b_311_52683)">
<path fill-rule="evenodd" clip-rule="evenodd" d="M348.662 238.345C407.671 251.961 466.546 215.164 480.162 156.155C493.779 97.1467 456.982 38.2722 397.973 24.6554C338.964 11.0386 280.09 47.836 266.473 106.845C252.856 165.853 289.654 224.728 348.662 238.345ZM382.232 102.108C379.131 100.809 375.669 100.65 372.463 101.658C369.255 102.666 366.507 104.777 364.707 107.617C361.334 112.937 354.287 114.516 348.967 111.143C343.646 107.77 342.068 100.723 345.441 95.4027C350.126 88.0132 357.275 82.5201 365.622 79.8965C373.969 77.2728 382.975 77.688 391.045 81.0682C399.116 84.4486 405.729 90.576 409.714 98.365C413.699 106.152 414.799 115.098 412.821 123.619C409.534 137.841 396.903 144.556 388.923 147.571C384.542 149.226 380.396 150.219 377.392 150.802C376.607 150.953 375.89 151.08 375.252 151.184C375.016 151.222 374.791 151.258 374.578 151.29C374.25 151.34 373.95 151.384 373.681 151.421L373.303 151.472C373.012 151.51 372.765 151.54 372.567 151.563L372.225 151.6L372.112 151.612L372.07 151.616L372.038 151.619C365.768 152.217 360.2 147.617 359.602 141.346C359.006 135.08 363.599 129.516 369.862 128.912L369.954 128.902C370.072 128.888 370.279 128.863 370.561 128.824C371.128 128.746 371.988 128.613 373.051 128.407C375.212 127.988 378.035 127.299 380.861 126.232C387.294 123.801 390.036 120.909 390.597 118.48C391.357 115.204 390.939 111.749 389.407 108.756C387.875 105.762 385.333 103.407 382.232 102.108ZM366.15 162.566C360.012 161.15 353.888 164.978 352.472 171.116C351.055 177.253 354.883 183.377 361.021 184.794L361.132 184.819C367.27 186.236 373.394 182.408 374.81 176.27C376.227 170.133 372.399 164.008 366.261 162.592L366.15 162.566Z" fill="url(#paint1_linear_311_52683)" fill-opacity="0.26"/>
<path d="M372.801 102.735L372.801 102.735C375.754 101.806 378.94 101.953 381.796 103.15C384.651 104.345 386.991 106.513 388.402 109.27C389.812 112.024 390.198 115.207 389.497 118.224L389.497 118.226C389.069 120.078 386.807 122.779 380.462 125.176L380.462 125.176C377.713 126.214 374.956 126.888 372.836 127.299C371.796 127.501 370.956 127.63 370.407 127.706L370.406 127.706C370.133 127.744 369.935 127.768 369.823 127.781L369.745 127.789C362.866 128.458 357.823 134.57 358.479 141.453L358.479 141.453C359.135 148.345 365.254 153.399 372.145 152.743L372.149 152.742L372.178 152.74L372.181 152.739L372.22 152.736L372.228 152.735L372.341 152.723L372.349 152.722L372.691 152.684L372.695 152.684C372.899 152.661 373.153 152.63 373.451 152.59L373.453 152.59L373.831 152.539L373.835 152.539C374.109 152.501 374.415 152.457 374.748 152.406L374.748 152.406C374.965 152.373 375.194 152.337 375.434 152.298L375.434 152.298C376.082 152.192 376.811 152.064 377.606 151.91L377.392 150.802L377.606 151.91C380.653 151.319 384.864 150.311 389.322 148.627C397.374 145.584 410.497 138.681 413.92 123.874C415.959 115.094 414.825 105.876 410.718 97.8509C406.612 89.8246 399.797 83.5106 391.481 80.0272C383.165 76.544 373.885 76.1162 365.284 78.8197C356.682 81.5233 349.316 87.1838 344.488 94.7983C340.781 100.645 342.516 108.389 348.363 112.096C354.209 115.803 361.953 114.068 365.66 108.221L365.66 108.221C367.318 105.607 369.847 103.663 372.801 102.735ZM479.063 155.902C465.586 214.303 407.317 250.722 348.916 237.245C290.515 223.768 254.096 165.5 267.573 107.098C281.049 48.6971 339.318 12.2785 397.719 25.7551C456.121 39.2318 492.539 97.5003 479.063 155.902ZM366.404 161.467C359.658 159.91 352.929 164.117 351.372 170.862C349.816 177.607 354.022 184.337 360.767 185.893L360.878 185.919C367.623 187.475 374.354 183.269 375.91 176.524C377.467 169.779 373.26 163.049 366.515 161.492L366.404 161.467Z" stroke="white" stroke-opacity="0.16" stroke-width="2.25731"/>
</g>
<g filter="url(#filter1_b_311_52683)">
<rect x="228" y="44.6307" width="73.0683" height="73.0683" rx="36.5342" transform="rotate(-11.494 228 44.6307)" fill="white" fill-opacity="0.2"/>
<g clip-path="url(#clip1_311_52683)">
<path fill-rule="evenodd" clip-rule="evenodd" d="M268.725 61.0053C262.084 62.3551 257.795 68.8324 259.145 75.4728C260.495 82.1132 266.972 86.4021 273.613 85.0523C280.253 83.7025 284.542 77.2252 283.192 70.5848C281.842 63.9444 275.365 59.6555 268.725 61.0053ZM256.473 76.0159C254.824 67.8999 260.066 59.9832 268.182 58.3334C276.298 56.6837 284.214 61.9256 285.864 70.0417C287.514 78.1577 282.272 86.0744 274.156 87.7242C266.04 89.3739 258.123 84.132 256.473 76.0159ZM269.268 63.6772C270.006 63.5272 270.725 64.0038 270.875 64.7416L272.337 71.9316L277.41 73.2981C278.137 73.4939 278.568 74.242 278.372 74.969C278.176 75.696 277.428 76.1266 276.701 75.9308L270.814 74.3451C270.316 74.2108 269.936 73.8064 269.833 73.3004L268.203 65.2847C268.053 64.5469 268.53 63.8272 269.268 63.6772Z" fill="white"/>
</g>
<rect x="228.98" y="45.2797" width="71.4055" height="71.4055" rx="35.7028" transform="rotate(-11.494 228.98 45.2797)" stroke="white" stroke-opacity="0.08" stroke-width="1.66284"/>
</g>
</g>
<defs>
<filter id="filter0_b_311_52683" x="231.453" y="-10.3642" width="283.729" height="283.728" filterUnits="userSpaceOnUse" color-interpolation-filters="sRGB">
<feFlood flood-opacity="0" result="BackgroundImageFix"/>
<feGaussianBlur in="BackgroundImageFix" stdDeviation="16.0937"/>
<feComposite in2="SourceAlpha" operator="in" result="effect1_backgroundBlur_311_52683"/>
<feBlend mode="normal" in="SourceGraphic" in2="effect1_backgroundBlur_311_52683" result="shape"/>
</filter>
<filter id="filter1_b_311_52683" x="194.743" y="-3.18606" width="152.677" height="152.676" filterUnits="userSpaceOnUse" color-interpolation-filters="sRGB">
<feFlood flood-opacity="0" result="BackgroundImageFix"/>
<feGaussianBlur in="BackgroundImageFix" stdDeviation="16.6284"/>
<feComposite in2="SourceAlpha" operator="in" result="effect1_backgroundBlur_311_52683"/>
<feBlend mode="normal" in="SourceGraphic" in2="effect1_backgroundBlur_311_52683" result="shape"/>
</filter>
<linearGradient id="paint0_linear_311_52683" x1="385.574" y1="103.446" x2="-1.5506e-06" y2="103.446" gradientUnits="userSpaceOnUse">
<stop stop-color="#6188FF"/>
<stop offset="1" stop-color="#6188FF" stop-opacity="0"/>
</linearGradient>
<linearGradient id="paint1_linear_311_52683" x1="397.973" y1="24.6554" x2="479.511" y2="300.334" gradientUnits="userSpaceOnUse">
<stop stop-color="white"/>
<stop offset="1" stop-color="white" stop-opacity="0"/>
</linearGradient>
<clipPath id="clip0_311_52683">
<rect width="465" height="263" fill="white"/>
</clipPath>
<clipPath id="clip1_311_52683">
<rect width="32.7183" height="32.7183" fill="white" transform="translate(251.878 60.2562) rotate(-11.49)"/>
</clipPath>
</defs>
</svg>
