<svg width="419" height="392" viewBox="0 0 419 392" fill="none" xmlns="http://www.w3.org/2000/svg">
<g filter="url(#filter0_b_311_53195)">
<g clip-path="url(#clip0_311_53195)">
<rect x="27.4084" y="55.6699" width="340.319" height="340.319" rx="170.16" transform="rotate(-9.28096 27.4084 55.6699)" fill="url(#paint0_linear_311_53195)" fill-opacity="0.26"/>
<g clip-path="url(#clip1_311_53195)">
<path fill-rule="evenodd" clip-rule="evenodd" d="M208.805 121.034L208.805 121.034L208.805 121.034ZM210.596 121.582L281.113 143.525L221.249 186.773L150.732 164.831L210.596 121.582ZM219.726 187.863C219.724 187.864 219.724 187.864 219.726 187.863L219.726 187.863ZM223.04 187.322C223.042 187.322 223.042 187.322 223.04 187.322L223.04 187.322ZM212.119 120.492L212.119 120.492L212.119 120.492ZM205.484 104.889C206.971 104.35 208.546 104.093 210.128 104.13C212.002 104.174 213.758 104.737 214.607 105.008C214.694 105.036 214.772 105.061 214.839 105.082L302.416 132.333C305.493 133.29 307.766 135.904 308.285 139.084C308.805 142.265 307.483 145.466 304.871 147.353L230.524 201.064C230.467 201.106 230.401 201.154 230.327 201.208C229.609 201.736 228.123 202.828 226.362 203.466C224.874 204.005 223.299 204.263 221.717 204.225C219.843 204.182 218.087 203.619 217.238 203.347C217.151 203.319 217.073 203.294 217.006 203.274L129.429 176.023C126.352 175.065 124.08 172.452 123.56 169.271C123.04 166.091 124.362 162.89 126.974 161.003L201.321 107.291C201.378 107.25 201.444 107.202 201.518 107.147C202.236 106.619 203.722 105.527 205.484 104.889ZM130.693 207.354C132.089 202.868 136.858 200.362 141.345 201.758L228.11 228.756L301.767 175.543C305.576 172.791 310.894 173.648 313.646 177.457C316.397 181.266 315.54 186.584 311.732 189.336L237.385 243.048C237.328 243.089 237.262 243.137 237.188 243.191C236.47 243.719 234.984 244.812 233.222 245.449C231.734 245.988 230.159 246.246 228.577 246.209C226.704 246.165 224.948 245.602 224.099 245.33C224.012 245.302 223.934 245.278 223.867 245.257L136.289 218.006C131.803 216.61 129.297 211.841 130.693 207.354ZM226.586 229.847C226.585 229.848 226.585 229.847 226.587 229.846L226.586 229.847ZM229.901 229.305C229.903 229.305 229.903 229.305 229.901 229.305L229.901 229.305ZM137.554 249.337C138.95 244.851 143.719 242.345 148.206 243.741L234.97 270.739L308.628 217.526C312.436 214.774 317.755 215.631 320.506 219.44C323.258 223.249 322.401 228.567 318.592 231.319L244.245 285.031C244.188 285.072 244.123 285.12 244.049 285.175C243.331 285.702 241.844 286.795 240.083 287.433C238.595 287.971 237.02 288.229 235.438 288.192C233.565 288.148 231.808 287.585 230.96 287.313C230.872 287.285 230.794 287.261 230.727 287.24L143.15 259.989C138.663 258.593 136.158 253.824 137.554 249.337Z" fill="white"/>
</g>
<g filter="url(#filter1_f_311_53195)">
<rect x="254.568" y="272.435" width="118" height="118" transform="rotate(1.83929 254.568 272.435)" fill="#285BF3"/>
</g>
</g>
<rect x="27.9485" y="56.0583" width="339.379" height="339.379" rx="169.689" transform="rotate(-9.28096 27.9485 56.0583)" stroke="white" stroke-opacity="0.16" stroke-width="0.94071"/>
</g>
<g filter="url(#filter2_b_311_53195)">
<rect x="313.67" y="264" width="96" height="96" rx="48" transform="rotate(10 313.67 264)" fill="#285BF3"/>
<g clip-path="url(#clip2_311_53195)">
<path fill-rule="evenodd" clip-rule="evenodd" d="M343.432 304.45C342.525 304.29 341.661 304.895 341.501 305.801C341.341 306.708 341.946 307.572 342.853 307.732L365.832 311.784C368.551 312.264 370.367 314.857 369.888 317.576L366.993 333.99C366.514 336.709 363.921 338.525 361.201 338.046L338.222 333.994C335.503 333.514 333.687 330.921 334.167 328.201L338.218 305.223C338.698 302.503 341.291 300.687 344.011 301.167L363.707 304.64C364.613 304.8 365.219 305.664 365.059 306.571C364.899 307.477 364.034 308.082 363.128 307.922L343.432 304.45ZM340.682 310.445L337.449 328.78C337.289 329.687 337.895 330.551 338.801 330.711L361.78 334.763C362.686 334.923 363.551 334.317 363.711 333.411L366.605 316.997C366.765 316.091 366.159 315.227 365.253 315.067L342.274 311.015C341.699 310.913 341.164 310.717 340.682 310.445ZM356.951 323.757C357.191 322.397 358.487 321.489 359.847 321.729C361.207 321.969 362.115 323.266 361.875 324.625C361.635 325.985 360.339 326.893 358.979 326.653C357.619 326.413 356.711 325.117 356.951 323.757Z" fill="white"/>
</g>
<rect x="314.481" y="265.158" width="94" height="94" rx="47" transform="rotate(10 314.481 265.158)" stroke="white" stroke-opacity="0.08" stroke-width="2"/>
</g>
<g filter="url(#filter3_b_311_53195)">
<rect y="64.1174" width="116" height="116" rx="58" transform="rotate(-12 0 64.1174)" fill="white" fill-opacity="0.2"/>
<g clip-path="url(#clip3_311_53195)">
<path fill-rule="evenodd" clip-rule="evenodd" d="M65.0491 91.1847C59.647 92.333 56.1985 97.6432 57.3468 103.045C58.495 108.447 63.8052 111.896 69.2074 110.748C74.6095 109.599 78.058 104.289 76.9097 98.8871C75.7615 93.4849 70.4513 90.0365 65.0491 91.1847ZM53.4342 103.877C51.8266 96.3139 56.6545 88.8797 64.2175 87.2721C71.7805 85.6646 79.2148 90.4924 80.8223 98.0554C81.0499 99.126 81.1485 100.194 81.1286 101.243C86.3958 102.341 90.7831 106.439 91.9741 112.043C93.5817 119.606 88.7538 127.04 81.1908 128.647C78.2828 129.265 75.3906 128.931 72.844 127.856C70.9548 129.875 68.45 131.355 65.5404 131.974C57.9774 133.581 50.5432 128.754 48.9356 121.191C47.7446 115.587 50.0855 110.058 54.4509 106.914C54.006 105.963 53.6617 104.948 53.4342 103.877ZM56.6534 110.258C53.6201 112.521 52.0104 116.418 52.8482 120.359C53.9964 125.761 59.3066 129.21 64.7088 128.061C67.2064 127.53 69.2864 126.11 70.6876 124.202C70.6966 124.189 70.7056 124.177 70.7148 124.165C72.325 121.951 73.0251 119.089 72.4111 116.201C72.2602 115.491 72.0381 114.816 71.754 114.182C71.2001 114.375 70.6278 114.535 70.039 114.66C64.9345 115.745 59.8887 113.899 56.6534 110.258ZM75.3069 112.333C75.7523 113.285 76.0965 114.3 76.3237 115.369C77.0037 118.568 76.5323 121.744 75.1895 124.466C76.8052 124.993 78.576 125.114 80.3591 124.735C85.7613 123.587 89.2098 118.276 88.0615 112.874C87.2237 108.933 84.1684 106.028 80.477 105.195C79.5688 108.053 77.7569 110.568 75.3069 112.333Z" fill="white"/>
</g>
<rect x="1.18606" y="64.8877" width="114" height="114" rx="57" transform="rotate(-12 1.18606 64.8877)" stroke="white" stroke-opacity="0.08" stroke-width="2"/>
</g>
<defs>
<filter id="filter0_b_311_53195" x="12.2689" y="-14.3549" width="421.029" height="421.029" filterUnits="userSpaceOnUse" color-interpolation-filters="sRGB">
<feFlood flood-opacity="0" result="BackgroundImageFix"/>
<feGaussianBlur in="BackgroundImageFix" stdDeviation="7.56977"/>
<feComposite in2="SourceAlpha" operator="in" result="effect1_backgroundBlur_311_53195"/>
<feBlend mode="normal" in="SourceGraphic" in2="effect1_backgroundBlur_311_53195" result="shape"/>
</filter>
<filter id="filter1_f_311_53195" x="74.7808" y="96.4353" width="473.727" height="473.727" filterUnits="userSpaceOnUse" color-interpolation-filters="sRGB">
<feFlood flood-opacity="0" result="BackgroundImageFix"/>
<feBlend mode="normal" in="SourceGraphic" in2="BackgroundImageFix" result="shape"/>
<feGaussianBlur stdDeviation="88" result="effect1_foregroundBlur_311_53195"/>
</filter>
<filter id="filter2_b_311_53195" x="258.356" y="225.356" width="188.5" height="188.5" filterUnits="userSpaceOnUse" color-interpolation-filters="sRGB">
<feFlood flood-opacity="0" result="BackgroundImageFix"/>
<feGaussianBlur in="BackgroundImageFix" stdDeviation="19.322"/>
<feComposite in2="SourceAlpha" operator="in" result="effect1_backgroundBlur_311_53195"/>
<feBlend mode="normal" in="SourceGraphic" in2="effect1_backgroundBlur_311_53195" result="shape"/>
</filter>
<filter id="filter3_b_311_53195" x="-21.8225" y="18.1773" width="181.228" height="181.228" filterUnits="userSpaceOnUse" color-interpolation-filters="sRGB">
<feFlood flood-opacity="0" result="BackgroundImageFix"/>
<feGaussianBlur in="BackgroundImageFix" stdDeviation="10.9112"/>
<feComposite in2="SourceAlpha" operator="in" result="effect1_backgroundBlur_311_53195"/>
<feBlend mode="normal" in="SourceGraphic" in2="effect1_backgroundBlur_311_53195" result="shape"/>
</filter>
<linearGradient id="paint0_linear_311_53195" x1="197.568" y1="55.6699" x2="417.051" y2="444.066" gradientUnits="userSpaceOnUse">
<stop stop-color="white"/>
<stop offset="1" stop-color="white" stop-opacity="0"/>
</linearGradient>
<clipPath id="clip0_311_53195">
<rect x="27.4084" y="55.6699" width="340.319" height="340.319" rx="170.16" transform="rotate(-9.28096 27.4084 55.6699)" fill="white"/>
</clipPath>
<clipPath id="clip1_311_53195">
<rect width="204.192" height="204.192" fill="white" transform="translate(105.558 111.866) rotate(-9.28096)"/>
</clipPath>
<clipPath id="clip2_311_53195">
<rect width="40" height="40" fill="white" transform="translate(336.383 296.437) rotate(10)"/>
</clipPath>
<clipPath id="clip3_311_53195">
<rect width="48" height="48" fill="white" transform="translate(40.326 90.3054) rotate(-12)"/>
</clipPath>
</defs>
</svg>
