<svg width="25" height="24" viewBox="0 0 25 24" fill="none" xmlns="http://www.w3.org/2000/svg">
<path fill-rule="evenodd" clip-rule="evenodd" d="M12.3807 1.08855C12.5704 1.06114 12.7631 1.06114 12.9528 1.08855C13.1714 1.12015 13.3749 1.197 13.5364 1.25803C13.5512 1.26361 13.5656 1.26906 13.5797 1.27434L18.9415 3.28501C18.9854 3.30148 19.0289 3.31774 19.0721 3.33386C19.6899 3.56451 20.2325 3.76707 20.6503 4.13529C21.0158 4.45741 21.2974 4.8637 21.4706 5.31905C21.6687 5.83956 21.6679 6.41867 21.6669 7.07812C21.6668 7.12421 21.6668 7.1707 21.6668 7.21759V12C21.6668 14.8266 20.1295 17.1832 18.4677 18.9144C16.7948 20.6572 14.8808 21.8882 13.8687 22.4786C13.8553 22.4864 13.8417 22.4944 13.8277 22.5026C13.643 22.6111 13.4033 22.7519 13.0861 22.8199C12.8267 22.8755 12.5069 22.8755 12.2474 22.8199C11.9303 22.7519 11.6905 22.6111 11.5058 22.5026C11.4919 22.4944 11.4782 22.4864 11.4649 22.4786C10.4528 21.8882 8.53873 20.6572 6.86583 18.9144C5.20406 17.1832 3.66677 14.8266 3.66677 12V7.21759C3.66677 7.17071 3.6667 7.12422 3.66663 7.07812C3.66568 6.41868 3.66484 5.83956 3.86291 5.31905C4.03618 4.8637 4.31774 4.45741 4.68326 4.13529C5.10108 3.76707 5.64362 3.56451 6.26141 3.33386C6.3046 3.31773 6.34815 3.30148 6.39205 3.28501L11.7538 1.27434C11.7679 1.26906 11.7823 1.26361 11.7971 1.25803C11.9587 1.197 12.1621 1.12015 12.3807 1.08855ZM12.6638 3.07127C12.6229 3.08466 12.5675 3.10522 12.4561 3.147L7.0943 5.15767C6.26906 5.46713 6.11024 5.54354 6.0056 5.63576C5.88376 5.74313 5.78991 5.87856 5.73215 6.03034C5.68254 6.16071 5.66677 6.33624 5.66677 7.21759V12C5.66677 14.0818 6.80646 15.9644 8.30868 17.5294C9.79978 19.0828 11.5367 20.2051 12.4727 20.7511C12.5299 20.7845 12.5712 20.8085 12.607 20.8287C12.6352 20.8446 12.6539 20.8546 12.6668 20.8611C12.6796 20.8546 12.6983 20.8446 12.7265 20.8287C12.7624 20.8085 12.8036 20.7845 12.8608 20.7511C13.7968 20.2051 15.5338 19.0828 17.0249 17.5294C18.5271 15.9644 19.6668 14.0818 19.6668 12V7.21759C19.6668 6.33624 19.651 6.16071 19.6014 6.03034C19.5436 5.87856 19.4498 5.74313 19.3279 5.63576C19.2233 5.54354 19.0645 5.46713 18.2392 5.15767L12.8774 3.147C12.766 3.10522 12.7106 3.08466 12.6698 3.07127C12.6687 3.07092 12.6677 3.0706 12.6668 3.07028C12.6658 3.0706 12.6648 3.07092 12.6638 3.07127ZM16.8739 8.29289C17.2644 8.68341 17.2644 9.31658 16.8739 9.7071L12.3739 14.2071C11.9834 14.5976 11.3502 14.5976 10.9597 14.2071L8.95966 12.2071C8.56914 11.8166 8.56914 11.1834 8.95966 10.7929C9.35019 10.4024 9.98335 10.4024 10.3739 10.7929L11.6668 12.0858L15.4597 8.29289C15.8502 7.90236 16.4834 7.90236 16.8739 8.29289Z" fill="white"/>
</svg>
