<svg width="584" height="476" viewBox="0 0 584 476" fill="none" xmlns="http://www.w3.org/2000/svg">
<path fill-rule="evenodd" clip-rule="evenodd" d="M438.926 254.309C438.475 250.573 439.154 246.787 440.874 243.44C442.519 240.155 445.088 237.423 448.265 235.579C451.442 233.736 455.089 232.862 458.757 233.065L459.783 233.126C465.827 233.484 471.767 231.427 476.294 227.406C480.822 223.385 483.567 217.731 483.925 211.686C484.284 205.642 482.226 199.702 478.206 195.175C474.185 190.647 468.531 187.902 462.486 187.544L460.549 187.429C456.883 187.197 453.365 185.898 450.427 183.692C447.49 181.486 445.262 178.469 444.017 175.013L444.071 174.101C442.758 170.574 442.532 166.735 443.422 163.078C444.311 159.421 446.276 156.115 449.062 153.585L449.786 152.941C452.031 150.95 453.861 148.537 455.172 145.838C456.483 143.139 457.249 140.208 457.427 137.213C457.604 134.218 457.19 131.218 456.207 128.383C455.224 125.548 453.692 122.935 451.699 120.692C449.708 118.448 447.294 116.618 444.595 115.307C441.896 113.996 438.966 113.229 435.971 113.052C432.975 112.874 429.975 113.289 427.14 114.272C424.305 115.254 421.692 116.786 419.45 118.78L418.725 119.423C415.884 121.891 412.368 123.451 408.632 123.902C404.895 124.353 401.11 123.674 397.763 121.954C394.478 120.309 391.746 117.74 389.902 114.563C388.059 111.385 387.185 107.738 387.388 104.071L387.448 103.045C387.807 97.0005 385.749 91.0611 381.729 86.5335C377.708 82.0059 372.054 79.261 366.009 78.9025C359.964 78.544 354.025 80.6014 349.498 84.6221C344.97 88.6427 342.225 94.2973 341.866 100.342L341.752 102.279C341.52 105.945 340.221 109.463 338.015 112.4C335.809 115.338 332.792 117.566 329.336 118.81L328.424 118.756C324.897 120.069 321.058 120.296 317.401 119.406C313.744 118.517 310.437 116.552 307.907 113.766L307.264 113.042C305.273 110.797 302.859 108.967 300.161 107.656C297.462 106.345 294.531 105.579 291.536 105.401C288.541 105.223 285.54 105.638 282.705 106.621C279.871 107.604 277.257 109.136 275.015 111.129C272.77 113.12 270.94 115.534 269.629 118.233C268.318 120.932 267.552 123.862 267.374 126.857C267.197 129.852 267.611 132.853 268.594 135.688C269.577 138.523 271.109 141.136 273.102 143.378L273.746 144.103C276.213 146.944 277.773 150.46 278.225 154.196C278.676 157.932 277.997 161.718 276.276 165.065C274.764 168.529 272.245 171.458 269.046 173.471C265.847 175.483 262.116 176.487 258.339 176.352L257.314 176.291C251.269 175.933 245.33 177.99 240.802 182.011C236.275 186.031 233.53 191.686 233.171 197.73C232.813 203.775 234.87 209.714 238.891 214.242C242.911 218.77 248.566 221.515 254.61 221.873L256.548 221.988C260.214 222.22 263.732 223.519 266.669 225.725C269.606 227.931 271.834 230.948 273.079 234.404C274.392 237.931 274.618 241.77 273.729 245.427C272.839 249.084 270.875 252.391 268.089 254.921L267.364 255.564C265.12 257.555 263.29 259.969 261.979 262.667C260.668 265.366 259.901 268.297 259.724 271.292C259.546 274.287 259.961 277.288 260.943 280.122C261.926 282.957 263.458 285.571 265.452 287.813C267.443 290.057 269.857 291.887 272.555 293.199C275.254 294.51 278.185 295.276 281.18 295.453C284.175 295.631 287.176 295.217 290.011 294.234C292.845 293.251 295.459 291.719 297.701 289.725L298.425 289.082C301.267 286.614 304.782 285.054 308.519 284.603C312.255 284.152 316.041 284.831 319.388 286.552C322.852 288.064 325.78 290.583 327.793 293.782C329.806 296.981 330.81 300.712 330.675 304.489L330.614 305.514C330.255 311.559 332.313 317.498 336.333 322.026C340.354 326.553 346.009 329.298 352.053 329.657C358.098 330.015 364.037 327.958 368.565 323.937C373.092 319.916 375.837 314.262 376.196 308.217L376.311 306.28C376.543 302.614 377.842 299.096 380.048 296.159C382.254 293.222 385.27 290.993 388.726 289.749C392.253 288.436 396.093 288.209 399.75 289.099C403.407 289.988 406.713 291.953 409.243 294.739L409.886 295.464C411.877 297.708 414.291 299.538 416.99 300.849C419.689 302.16 422.619 302.926 425.615 303.104C428.61 303.282 431.61 302.867 434.445 301.884C437.28 300.902 439.893 299.37 442.136 297.376C444.38 295.385 446.21 292.971 447.521 290.272C448.832 287.574 449.598 284.643 449.776 281.648C449.954 278.653 449.539 275.652 448.556 272.817C447.573 269.982 446.042 267.369 444.048 265.127L443.405 264.403C440.937 261.561 439.377 258.046 438.926 254.309ZM356.345 241.858C377.114 243.089 394.949 227.251 396.18 206.483C397.412 185.714 381.574 167.879 360.805 166.648C340.037 165.416 322.202 181.254 320.97 202.022C319.739 222.791 335.576 240.626 356.345 241.858Z" fill="#353E54"/>
<mask id="mask0_2092_10768" style="mask-type:alpha" maskUnits="userSpaceOnUse" x="233" y="78" width="251" height="252">
<path fill-rule="evenodd" clip-rule="evenodd" d="M438.926 254.309C438.475 250.572 439.154 246.786 440.874 243.439C442.519 240.155 445.088 237.422 448.265 235.579C451.443 233.736 455.09 232.862 458.757 233.064L459.783 233.125C465.827 233.484 471.767 231.426 476.294 227.406C480.822 223.385 483.567 217.73 483.925 211.686C484.284 205.641 482.226 199.702 478.206 195.174C474.185 190.647 468.531 187.902 462.486 187.543L460.549 187.428C456.883 187.196 453.365 185.897 450.427 183.691C447.49 181.485 445.262 178.469 444.018 175.013L444.072 174.101C442.759 170.574 442.532 166.734 443.422 163.078C444.311 159.421 446.276 156.114 449.062 153.584L449.786 152.941C452.031 150.95 453.861 148.536 455.172 145.837C456.483 143.139 457.249 140.208 457.427 137.213C457.604 134.218 457.19 131.217 456.207 128.382C455.224 125.547 453.692 122.934 451.699 120.692C449.708 118.447 447.294 116.617 444.595 115.306C441.896 113.995 438.966 113.229 435.971 113.051C432.976 112.874 429.975 113.288 427.14 114.271C424.305 115.254 421.692 116.786 419.45 118.779L418.725 119.423C415.884 121.89 412.368 123.45 408.632 123.901C404.896 124.352 401.11 123.674 397.763 121.953C394.478 120.309 391.746 117.74 389.902 114.562C388.059 111.385 387.185 107.738 387.388 104.07L387.448 103.045C387.807 97 385.75 91.0606 381.729 86.533C377.708 82.0054 372.054 79.2605 366.009 78.902C359.965 78.5436 354.025 80.601 349.498 84.6216C344.97 88.6423 342.225 94.2968 341.867 100.341L341.752 102.279C341.52 105.945 340.221 109.463 338.015 112.4C335.809 115.337 332.792 117.565 329.336 118.81L328.424 118.756C324.897 120.069 321.058 120.295 317.401 119.406C313.744 118.516 310.437 116.552 307.907 113.765L307.264 113.041C305.273 110.797 302.859 108.966 300.161 107.655C297.462 106.344 294.531 105.578 291.536 105.401C288.541 105.223 285.54 105.637 282.706 106.62C279.871 107.603 277.257 109.135 275.015 111.129C272.771 113.12 270.94 115.534 269.629 118.232C268.318 120.931 267.552 123.862 267.375 126.857C267.197 129.852 267.611 132.853 268.594 135.687C269.577 138.522 271.109 141.135 273.103 143.378L273.746 144.102C276.214 146.944 277.774 150.459 278.225 154.196C278.676 157.932 277.997 161.718 276.276 165.065C274.764 168.529 272.245 171.457 269.046 173.47C265.847 175.483 262.116 176.487 258.339 176.351L257.314 176.291C251.269 175.932 245.33 177.99 240.802 182.01C236.275 186.031 233.53 191.685 233.171 197.73C232.813 203.774 234.87 209.714 238.891 214.241C242.911 218.769 248.566 221.514 254.611 221.872L256.548 221.987C260.214 222.219 263.732 223.518 266.669 225.724C269.606 227.93 271.835 230.947 273.079 234.403C274.392 237.93 274.619 241.77 273.729 245.427C272.84 249.084 270.875 252.39 268.089 254.92L267.364 255.563C265.12 257.554 263.29 259.968 261.979 262.667C260.668 265.366 259.902 268.296 259.724 271.291C259.546 274.286 259.961 277.287 260.944 280.122C261.926 282.957 263.458 285.57 265.452 287.812C267.443 290.057 269.857 291.887 272.556 293.198C275.254 294.509 278.185 295.275 281.18 295.453C284.175 295.63 287.176 295.216 290.011 294.233C292.845 293.25 295.459 291.718 297.701 289.725L298.425 289.082C301.267 286.614 304.782 285.054 308.519 284.603C312.255 284.152 316.041 284.83 319.388 286.551C322.852 288.063 325.781 290.583 327.793 293.782C329.806 296.981 330.81 300.711 330.675 304.488L330.614 305.514C330.255 311.558 332.313 317.498 336.334 322.025C340.354 326.553 346.009 329.298 352.053 329.656C358.098 330.015 364.037 327.957 368.565 323.937C373.092 319.916 375.837 314.261 376.196 308.217L376.311 306.28C376.543 302.614 377.842 299.095 380.048 296.158C382.254 293.221 385.27 290.993 388.727 289.748C392.254 288.435 396.093 288.209 399.75 289.098C403.407 289.988 406.713 291.952 409.243 294.739L409.886 295.463C411.877 297.708 414.291 299.538 416.99 300.849C419.689 302.16 422.62 302.926 425.615 303.104C428.61 303.281 431.61 302.867 434.445 301.884C437.28 300.901 439.893 299.369 442.136 297.376C444.38 295.385 446.21 292.971 447.521 290.272C448.832 287.573 449.599 284.642 449.776 281.647C449.954 278.652 449.539 275.652 448.556 272.817C447.574 269.982 446.042 267.369 444.048 265.126L443.405 264.402C440.937 261.561 439.377 258.045 438.926 254.309ZM356.345 241.857C377.114 243.089 394.949 227.251 396.18 206.482C397.412 185.714 381.574 167.879 360.805 166.647C340.037 165.415 322.202 181.253 320.97 202.022C319.739 222.791 335.577 240.625 356.345 241.857Z" fill="#353E54"/>
</mask>
<g mask="url(#mask0_2092_10768)">
<g opacity="0.3" filter="url(#filter0_f_2092_10768)">
<ellipse cx="279.075" cy="161.202" rx="88.6981" ry="51.5682" transform="rotate(-19.6897 279.075 161.202)" fill="#285BF3"/>
</g>
</g>
<path fill-rule="evenodd" clip-rule="evenodd" d="M214.196 332.399C214.555 329.892 215.656 327.55 217.358 325.675C219 323.827 221.146 322.499 223.532 321.855C225.919 321.212 228.442 321.28 230.79 322.051L231.446 322.269C235.312 323.557 239.531 323.255 243.174 321.432C246.818 319.609 249.588 316.413 250.875 312.547C252.163 308.681 251.861 304.462 250.038 300.818C248.215 297.175 245.018 294.404 241.153 293.117L239.914 292.705C237.571 291.914 235.512 290.457 233.987 288.511C232.463 286.565 231.541 284.216 231.335 281.752L231.529 281.169C231.291 278.648 231.814 276.113 233.03 273.892C234.245 271.67 236.099 269.864 238.351 268.706L238.934 268.414C240.74 267.512 242.35 266.262 243.673 264.737C244.996 263.212 246.005 261.441 246.643 259.525C247.28 257.609 247.534 255.587 247.39 253.573C247.246 251.559 246.706 249.594 245.801 247.789C244.899 245.983 243.649 244.373 242.124 243.05C240.599 241.727 238.828 240.718 236.912 240.08C234.997 239.442 232.974 239.188 230.96 239.333C228.947 239.477 226.981 240.017 225.176 240.921L224.593 241.213C222.316 242.321 219.759 242.722 217.252 242.364C214.745 242.005 212.403 240.904 210.528 239.202C208.68 237.56 207.353 235.414 206.709 233.027C206.065 230.641 206.133 228.118 206.904 225.77L207.123 225.114C208.41 221.248 208.109 217.029 206.285 213.386C204.462 209.742 201.266 206.972 197.4 205.685C193.534 204.397 189.315 204.699 185.672 206.522C182.028 208.345 179.258 211.542 177.971 215.407L177.558 216.646C176.768 218.988 175.31 221.048 173.364 222.573C171.418 224.097 169.069 225.019 166.606 225.225L166.023 225.031C163.501 225.269 160.967 224.746 158.745 223.53C156.524 222.314 154.717 220.461 153.559 218.209L153.267 217.626C152.365 215.82 151.115 214.21 149.59 212.887C148.065 211.564 146.294 210.555 144.378 209.917C142.463 209.28 140.44 209.026 138.427 209.17C136.413 209.314 134.447 209.854 132.642 210.759C130.836 211.661 129.226 212.911 127.903 214.436C126.58 215.961 125.571 217.732 124.934 219.648C124.296 221.563 124.042 223.586 124.186 225.599C124.33 227.613 124.87 229.579 125.775 231.384L126.066 231.967C127.175 234.244 127.575 236.801 127.217 239.308C126.858 241.815 125.757 244.157 124.055 246.032C122.468 248.019 120.32 249.483 117.89 250.233C115.46 250.984 112.86 250.985 110.429 250.239L109.773 250.02C105.907 248.733 101.689 249.034 98.0449 250.858C94.4011 252.681 91.631 255.877 90.3438 259.743C89.0566 263.609 89.3578 267.828 91.1812 271.471C93.0046 275.115 96.2007 277.885 100.067 279.172L101.306 279.585C103.648 280.375 105.708 281.833 107.232 283.779C108.756 285.725 109.678 288.074 109.884 290.537C110.122 293.059 109.6 295.593 108.384 297.815C107.168 300.036 105.314 301.843 103.062 303.001L102.479 303.292C100.673 304.195 99.063 305.445 97.7403 306.97C96.4175 308.495 95.4084 310.266 94.7706 312.182C94.1328 314.097 93.8788 316.12 94.0232 318.133C94.1675 320.147 94.7074 322.113 95.6119 323.918C96.5144 325.724 97.764 327.334 99.2892 328.657C100.815 329.98 102.586 330.989 104.501 331.626C106.417 332.264 108.439 332.518 110.453 332.374C112.467 332.23 114.432 331.69 116.237 330.785L116.82 330.493C119.097 329.385 121.654 328.985 124.161 329.343C126.668 329.702 129.01 330.803 130.885 332.505C132.872 334.092 134.336 336.24 135.087 338.67C135.837 341.1 135.839 343.7 135.092 346.131L134.873 346.787C133.586 350.653 133.888 354.871 135.711 358.515C137.534 362.159 140.73 364.929 144.596 366.216C148.462 367.503 152.681 367.202 156.325 365.379C159.968 363.555 162.739 360.359 164.026 356.493L164.438 355.254C165.229 352.912 166.686 350.852 168.632 349.328C170.578 347.804 172.927 346.882 175.391 346.676C177.912 346.438 180.447 346.96 182.668 348.176C184.89 349.392 186.696 351.246 187.854 353.498L188.146 354.081C189.048 355.887 190.298 357.497 191.823 358.82C193.348 360.142 195.119 361.152 197.035 361.789C198.951 362.427 200.973 362.681 202.987 362.537C205 362.392 206.966 361.853 208.771 360.948C210.577 360.046 212.187 358.796 213.51 357.271C214.833 355.745 215.842 353.974 216.48 352.059C217.118 350.143 217.372 348.121 217.227 346.107C217.083 344.093 216.543 342.128 215.639 340.323L215.347 339.74C214.239 337.463 213.838 334.906 214.196 332.399ZM162.699 309.904C175.981 314.327 190.335 307.144 194.757 293.861C199.18 280.579 191.997 266.225 178.715 261.803C165.432 257.38 151.079 264.563 146.656 277.845C142.233 291.128 149.416 305.481 162.699 309.904Z" fill="#353E54"/>
<mask id="mask1_2092_10768" style="mask-type:alpha" maskUnits="userSpaceOnUse" x="89" y="204" width="163" height="164">
<path fill-rule="evenodd" clip-rule="evenodd" d="M214.195 332.399C214.553 329.892 215.654 327.55 217.356 325.675C218.998 323.827 221.144 322.499 223.531 321.855C225.917 321.211 228.44 321.279 230.788 322.051L231.444 322.269C235.31 323.556 239.529 323.255 243.172 321.432C246.816 319.608 249.586 316.412 250.873 312.546C252.161 308.681 251.859 304.462 250.036 300.818C248.213 297.174 245.017 294.404 241.151 293.117L239.912 292.704C237.57 291.914 235.51 290.456 233.986 288.51C232.461 286.564 231.54 284.215 231.333 281.752L231.528 281.169C231.289 278.648 231.812 276.113 233.028 273.892C234.244 271.67 236.097 269.864 238.349 268.706L238.932 268.414C240.738 267.511 242.348 266.262 243.671 264.737C244.994 263.211 246.003 261.44 246.641 259.525C247.279 257.609 247.533 255.587 247.388 253.573C247.244 251.559 246.704 249.594 245.8 247.789C244.897 245.983 243.647 244.372 242.122 243.05C240.597 241.727 238.826 240.718 236.91 240.08C234.995 239.442 232.972 239.188 230.959 239.333C228.945 239.477 226.979 240.017 225.174 240.921L224.591 241.213C222.314 242.321 219.757 242.722 217.251 242.363C214.744 242.005 212.402 240.903 210.526 239.201C208.678 237.56 207.351 235.414 206.707 233.027C206.063 230.641 206.131 228.118 206.903 225.77L207.121 225.114C208.408 221.248 208.107 217.029 206.284 213.385C204.46 209.742 201.264 206.972 197.398 205.684C193.532 204.397 189.314 204.698 185.67 206.522C182.026 208.345 179.256 211.541 177.969 215.407L177.556 216.646C176.766 218.988 175.308 221.048 173.362 222.572C171.416 224.096 169.067 225.018 166.604 225.224L166.021 225.03C163.5 225.269 160.965 224.746 158.743 223.53C156.522 222.314 154.716 220.461 153.557 218.209L153.266 217.626C152.363 215.82 151.114 214.209 149.588 212.887C148.063 211.564 146.292 210.555 144.376 209.917C142.461 209.279 140.438 209.025 138.425 209.17C136.411 209.314 134.445 209.854 132.64 210.758C130.834 211.661 129.224 212.91 127.901 214.436C126.579 215.961 125.569 217.732 124.932 219.648C124.294 221.563 124.04 223.585 124.184 225.599C124.329 227.613 124.868 229.579 125.773 231.384L126.065 231.966C127.173 234.244 127.574 236.8 127.215 239.307C126.856 241.814 125.755 244.156 124.053 246.032C122.466 248.019 120.318 249.483 117.888 250.233C115.458 250.983 112.858 250.985 110.427 250.238L109.771 250.02C105.906 248.733 101.687 249.034 98.043 250.857C94.3993 252.681 91.6291 255.877 90.3419 259.743C89.0547 263.609 89.356 267.827 91.1793 271.471C93.0027 275.115 96.1989 277.885 100.065 279.172L101.304 279.585C103.646 280.375 105.706 281.833 107.23 283.779C108.754 285.725 109.676 288.074 109.882 290.537C110.12 293.058 109.598 295.593 108.382 297.815C107.166 300.036 105.312 301.842 103.06 303.001L102.477 303.292C100.672 304.195 99.0611 305.444 97.7384 306.97C96.4157 308.495 95.4066 310.266 94.7688 312.181C94.131 314.097 93.877 316.119 94.0213 318.133C94.1657 320.147 94.7055 322.112 95.61 323.917C96.5125 325.723 97.7621 327.334 99.2874 328.657C100.813 329.979 102.584 330.988 104.499 331.626C106.415 332.264 108.437 332.518 110.451 332.374C112.465 332.229 114.43 331.689 116.235 330.785L116.818 330.493C119.095 329.385 121.652 328.984 124.159 329.343C126.666 329.701 129.008 330.803 130.883 332.505C132.871 334.092 134.334 336.24 135.085 338.67C135.835 341.1 135.837 343.699 135.09 346.131L134.872 346.786C133.584 350.652 133.886 354.871 135.709 358.515C137.532 362.159 140.729 364.929 144.594 366.216C148.46 367.503 152.679 367.202 156.323 365.378C159.967 363.555 162.737 360.359 164.024 356.493L164.436 355.254C165.227 352.912 166.684 350.852 168.63 349.328C170.576 347.804 172.926 346.882 175.389 346.676C177.91 346.438 180.445 346.96 182.666 348.176C184.888 349.392 186.694 351.245 187.852 353.497L188.144 354.08C189.046 355.886 190.296 357.497 191.821 358.819C193.347 360.142 195.118 361.151 197.033 361.789C198.949 362.427 200.971 362.681 202.985 362.537C204.999 362.392 206.964 361.852 208.769 360.948C210.575 360.045 212.186 358.796 213.508 357.27C214.831 355.745 215.84 353.974 216.478 352.059C217.116 350.143 217.37 348.121 217.225 346.107C217.081 344.093 216.541 342.128 215.637 340.323L215.345 339.74C214.237 337.463 213.836 334.906 214.195 332.399ZM162.697 309.904C175.98 314.326 190.333 307.144 194.755 293.861C199.178 280.578 191.996 266.225 178.713 261.802C165.43 257.38 151.077 264.562 146.654 277.845C142.231 291.128 149.414 305.481 162.697 309.904Z" fill="#353E54"/>
</mask>
<g mask="url(#mask1_2092_10768)">
<g opacity="0.3" filter="url(#filter1_f_2092_10768)">
<ellipse cx="93.2207" cy="239.904" rx="82.6825" ry="51.5682" transform="rotate(-26.6186 93.2207 239.904)" fill="#89B4F4"/>
</g>
</g>
<g filter="url(#filter2_b_2092_10768)">
<rect x="100.547" y="172.07" width="71.3568" height="71.3568" rx="35.6784" transform="rotate(20.2198 100.547 172.07)" fill="#89B4F4" fill-opacity="0.2"/>
<g clip-path="url(#clip0_2092_10768)">
<path fill-rule="evenodd" clip-rule="evenodd" d="M125.673 207.353C122.492 206.096 118.894 207.655 117.637 210.836C116.379 214.017 117.939 217.615 121.12 218.873C124.301 220.13 127.899 218.57 129.156 215.389C130.413 212.208 128.854 208.61 125.673 207.353ZM115.333 209.926C117.093 205.472 122.13 203.289 126.583 205.049C131.037 206.809 133.22 211.846 131.46 216.3C131.211 216.93 130.896 217.515 130.527 218.05C132.869 220.42 133.73 224.037 132.426 227.337C130.665 231.79 125.628 233.974 121.175 232.213C119.462 231.537 118.084 230.374 117.138 228.947C115.472 229.342 113.672 229.248 111.959 228.571C107.506 226.811 105.322 221.774 107.082 217.32C108.387 214.021 111.488 211.969 114.817 211.841C114.913 211.198 115.083 210.556 115.333 209.926ZM114.809 214.321C112.469 214.45 110.304 215.91 109.386 218.231C108.129 221.412 109.689 225.01 112.87 226.267C114.34 226.848 115.9 226.828 117.277 226.323C117.286 226.319 117.294 226.316 117.303 226.313C118.892 225.722 120.234 224.485 120.906 222.784C121.071 222.366 121.188 221.941 121.258 221.517C120.906 221.427 120.556 221.314 120.209 221.177C117.204 219.989 115.232 217.308 114.809 214.321ZM123.725 221.78C123.629 222.423 123.459 223.065 123.21 223.694C122.465 225.578 121.134 227.056 119.509 228.001C120.163 228.826 121.035 229.495 122.085 229.91C125.266 231.167 128.864 229.607 130.122 226.426C131.039 224.105 130.457 221.56 128.837 219.866C127.39 221.03 125.593 221.708 123.725 221.78Z" fill="white"/>
</g>
<rect x="100.867" y="172.763" width="70.2774" height="70.2774" rx="35.1387" transform="rotate(20.2198 100.867 172.763)" stroke="white" stroke-opacity="0.08" stroke-width="1.07945"/>
</g>
<rect x="250.021" y="79.5713" width="87.0588" height="87.0588" rx="43.5294" transform="rotate(12.566 250.021 79.5713)" fill="#285BF3"/>
<path fill-rule="evenodd" clip-rule="evenodd" d="M276.506 120.763C275.625 120.63 274.804 121.237 274.671 122.117C274.539 122.998 275.145 123.819 276.026 123.952C276.906 124.084 277.727 123.478 277.86 122.597C277.993 121.717 277.386 120.896 276.506 120.763ZM271.483 121.637C271.881 118.996 274.345 117.177 276.986 117.575C279.627 117.973 281.446 120.436 281.048 123.078C280.65 125.719 278.187 127.538 275.545 127.14C272.904 126.742 271.085 124.278 271.483 121.637ZM297.174 121.093C297.702 121.809 297.55 122.819 296.834 123.348L271.153 142.305C270.437 142.833 269.427 142.681 268.899 141.965C268.37 141.249 268.522 140.239 269.238 139.711L294.919 120.753C295.635 120.225 296.645 120.377 297.174 121.093ZM290.047 139.107C289.166 138.974 288.345 139.58 288.212 140.461C288.08 141.341 288.686 142.162 289.566 142.295C290.447 142.428 291.268 141.821 291.401 140.941C291.533 140.06 290.927 139.239 290.047 139.107ZM285.024 139.98C285.422 137.339 287.886 135.52 290.527 135.918C293.168 136.316 294.987 138.78 294.589 141.421C294.191 144.063 291.727 145.881 289.086 145.483C286.445 145.086 284.626 142.622 285.024 139.98Z" fill="white"/>
<defs>
<filter id="filter0_f_2092_10768" x="126.16" y="36.5839" width="305.828" height="249.236" filterUnits="userSpaceOnUse" color-interpolation-filters="sRGB">
<feFlood flood-opacity="0" result="BackgroundImageFix"/>
<feBlend mode="normal" in="SourceGraphic" in2="BackgroundImageFix" result="shape"/>
<feGaussianBlur stdDeviation="33.7984" result="effect1_foregroundBlur_2092_10768"/>
</filter>
<filter id="filter1_f_2092_10768" x="-51.8425" y="113.163" width="290.126" height="253.483" filterUnits="userSpaceOnUse" color-interpolation-filters="sRGB">
<feFlood flood-opacity="0" result="BackgroundImageFix"/>
<feBlend mode="normal" in="SourceGraphic" in2="BackgroundImageFix" result="shape"/>
<feGaussianBlur stdDeviation="33.7984" result="effect1_foregroundBlur_2092_10768"/>
</filter>
<filter id="filter2_b_2092_10768" x="54.2952" y="150.481" width="134.8" height="134.8" filterUnits="userSpaceOnUse" color-interpolation-filters="sRGB">
<feFlood flood-opacity="0" result="BackgroundImageFix"/>
<feGaussianBlur in="BackgroundImageFix" stdDeviation="10.7945"/>
<feComposite in2="SourceAlpha" operator="in" result="effect1_backgroundBlur_2092_10768"/>
<feBlend mode="normal" in="SourceGraphic" in2="effect1_backgroundBlur_2092_10768" result="shape"/>
</filter>
<clipPath id="clip0_2092_10768">
<rect width="29.7282" height="29.7282" fill="white" transform="translate(113.215 198.433) rotate(21.566)"/>
</clipPath>
</defs>
</svg>
