<svg width="16" height="16" viewBox="0 0 16 16" fill="none" xmlns="http://www.w3.org/2000/svg">
<path fill-rule="evenodd" clip-rule="evenodd" d="M7.5696 1.18378C7.84184 1.05398 8.15811 1.05398 8.43035 1.18378C8.6657 1.29599 8.79545 1.49081 8.86089 1.59769C8.92854 1.70819 8.99798 1.84895 9.06567 1.98614C9.06913 1.99315 9.07258 2.00014 9.07603 2.00713L10.5028 4.89765L13.7175 5.36753C13.8688 5.38961 14.0241 5.41228 14.1501 5.44256C14.2719 5.47186 14.4972 5.53523 14.6764 5.72445C14.8838 5.94336 14.9814 6.24417 14.9419 6.54313C14.9078 6.80155 14.7625 6.98505 14.6811 7.08027C14.5969 7.17869 14.4844 7.28815 14.3749 7.39482L12.0497 9.65959L12.5983 12.8584C12.6242 13.0092 12.6508 13.164 12.661 13.2932C12.6709 13.4181 12.6805 13.6521 12.556 13.8812C12.412 14.1463 12.1561 14.3322 11.8595 14.3871C11.6031 14.4347 11.3836 14.3533 11.2678 14.3052C11.1481 14.2556 11.0092 14.1825 10.8737 14.1112L7.99998 12.5999L5.1262 14.1112C4.99076 14.1825 4.85181 14.2556 4.73212 14.3052C4.61636 14.3533 4.39684 14.4347 4.14043 14.3871C3.84385 14.3322 3.58793 14.1463 3.44396 13.8812C3.3195 13.6521 3.32906 13.4181 3.33895 13.2932C3.34918 13.164 3.37575 13.0093 3.40165 12.8584L3.95029 9.65958L1.64185 7.41116C1.63628 7.40573 1.63069 7.40029 1.6251 7.39485C1.51552 7.28817 1.40309 7.1787 1.31888 7.08027C1.23741 6.98505 1.09218 6.80155 1.05805 6.54313C1.01857 6.24417 1.11611 5.94337 1.3235 5.72445C1.50278 5.53523 1.72805 5.47186 1.84989 5.44256C1.97584 5.41228 2.13111 5.38961 2.28244 5.36752C2.29016 5.3664 2.29788 5.36527 2.30557 5.36415L5.49713 4.89765L6.92393 2.00713C6.92737 2.00014 6.93083 1.99315 6.93428 1.98614C7.00197 1.84895 7.07141 1.70819 7.13906 1.59769C7.2045 1.49081 7.33426 1.29599 7.5696 1.18378Z" fill="#768395"/>
</svg>
