<svg width="25" height="24" viewBox="0 0 25 24" fill="none" xmlns="http://www.w3.org/2000/svg">
<path fill-rule="evenodd" clip-rule="evenodd" d="M12.6667 1C13.219 1 13.6667 1.44772 13.6667 2V4C13.6667 4.55228 13.219 5 12.6667 5C12.1145 5 11.6667 4.55228 11.6667 4V2C11.6667 1.44772 12.1145 1 12.6667 1ZM4.85954 4.1928C5.25007 3.80227 5.88323 3.80227 6.27376 4.1928L7.68797 5.60701C8.0785 5.99753 8.0785 6.6307 7.68797 7.02122C7.29745 7.41175 6.66428 7.41175 6.27376 7.02122L4.85954 5.60701C4.46902 5.21648 4.46902 4.58332 4.85954 4.1928ZM20.474 4.1928C20.8645 4.58332 20.8645 5.21648 20.474 5.60701L19.0597 7.02122C18.6692 7.41175 18.036 7.41175 17.6455 7.02122C17.255 6.6307 17.255 5.99753 17.6455 5.60701L19.0597 4.1928C19.4503 3.80227 20.0834 3.80227 20.474 4.1928ZM12.6667 8C10.4576 8 8.66675 9.79086 8.66675 12C8.66675 14.2091 10.4576 16 12.6667 16C14.8759 16 16.6667 14.2091 16.6667 12C16.6667 9.79086 14.8759 8 12.6667 8ZM6.66675 12C6.66675 8.68629 9.35304 6 12.6667 6C15.9805 6 18.6667 8.68629 18.6667 12C18.6667 15.3137 15.9805 18 12.6667 18C9.35304 18 6.66675 15.3137 6.66675 12ZM1.66675 12C1.66675 11.4477 2.11446 11 2.66675 11H4.66675C5.21903 11 5.66675 11.4477 5.66675 12C5.66675 12.5523 5.21903 13 4.66675 13H2.66675C2.11446 13 1.66675 12.5523 1.66675 12ZM19.6667 12C19.6667 11.4477 20.1145 11 20.6667 11H22.6667C23.219 11 23.6667 11.4477 23.6667 12C23.6667 12.5523 23.219 13 22.6667 13H20.6667C20.1145 13 19.6667 12.5523 19.6667 12ZM7.68797 16.9829C8.0785 17.3734 8.0785 18.0066 7.68797 18.3971L6.27376 19.8113C5.88323 20.2018 5.25007 20.2018 4.85954 19.8113C4.46902 19.4208 4.46902 18.7876 4.85954 18.3971L6.27376 16.9829C6.66428 16.5924 7.29745 16.5924 7.68797 16.9829ZM17.6455 16.9829C18.036 16.5924 18.6692 16.5924 19.0597 16.9829L20.474 18.3971C20.8645 18.7876 20.8645 19.4208 20.474 19.8113C20.0834 20.2018 19.4503 20.2018 19.0597 19.8113L17.6455 18.3971C17.255 18.0066 17.255 17.3734 17.6455 16.9829ZM12.6667 19C13.219 19 13.6667 19.4477 13.6667 20V22C13.6667 22.5523 13.219 23 12.6667 23C12.1145 23 11.6667 22.5523 11.6667 22V20C11.6667 19.4477 12.1145 19 12.6667 19Z" fill="white"/>
</svg>
