<svg width="25" height="24" viewBox="0 0 25 24" fill="none" xmlns="http://www.w3.org/2000/svg">
<path fill-rule="evenodd" clip-rule="evenodd" d="M7.5 2C7.5 1.44772 7.94772 1 8.5 1L16.5 1C17.0523 1 17.5 1.44772 17.5 2C17.5 2.55228 17.0523 3 16.5 3H13.5V4L15.7413 4C16.5463 3.99999 17.2106 3.99998 17.7518 4.04419C18.3139 4.09012 18.8306 4.18868 19.316 4.43597C20.0686 4.81947 20.6805 5.43139 21.064 6.18404C21.3113 6.66937 21.4099 7.18608 21.4558 7.74817C21.5 8.28936 21.5 8.95372 21.5 9.75868V14.2413C21.5 15.0463 21.5 15.7106 21.4558 16.2518C21.4099 16.8139 21.3113 17.3306 21.064 17.816C20.6805 18.5686 20.0686 19.1805 19.316 19.564C19.2038 19.6212 19.0901 19.6703 18.9744 19.7128L19.8944 21.5528C20.1414 22.0468 19.9412 22.6474 19.4472 22.8944C18.9532 23.1414 18.3526 22.9412 18.1056 22.4472L16.8789 19.9939C16.5357 20 16.1573 20 15.7413 20H9.25868C8.84274 20 8.46434 20 8.12108 19.9939L6.89443 22.4472C6.64744 22.9412 6.04677 23.1414 5.55279 22.8944C5.05881 22.6474 4.85858 22.0468 5.10557 21.5528L6.02558 19.7128C5.90994 19.6703 5.79615 19.6212 5.68404 19.564C4.93139 19.1805 4.31947 18.5686 3.93597 17.816C3.68868 17.3306 3.59012 16.8139 3.54419 16.2518C3.49998 15.7106 3.49999 15.0463 3.5 14.2413V9.7587C3.49999 8.95373 3.49998 8.28937 3.54419 7.74817C3.59012 7.18608 3.68868 6.66937 3.93597 6.18404C4.31947 5.43139 4.93139 4.81947 5.68404 4.43597C6.16937 4.18868 6.68608 4.09012 7.24818 4.04419C7.78937 3.99998 8.45373 3.99999 9.2587 4L11.5 4V3L8.5 3C7.94772 3 7.5 2.55228 7.5 2ZM9.3 6C8.44342 6 7.86113 6.00078 7.41104 6.03755C6.97262 6.07337 6.74842 6.1383 6.59202 6.21799C6.2157 6.40973 5.90973 6.7157 5.71799 7.09202C5.6383 7.24842 5.57337 7.47262 5.53755 7.91104C5.50078 8.36113 5.5 8.94342 5.5 9.8V11H19.5V9.8C19.5 8.94342 19.4992 8.36113 19.4625 7.91104C19.4266 7.47262 19.3617 7.24842 19.282 7.09202C19.0903 6.71569 18.7843 6.40973 18.408 6.21799C18.2516 6.1383 18.0274 6.07337 17.589 6.03755C17.1389 6.00078 16.5566 6 15.7 6H9.3ZM19.5 13H5.5V14.2C5.5 15.0566 5.50078 15.6389 5.53755 16.089C5.57337 16.5274 5.6383 16.7516 5.71799 16.908C5.90973 17.2843 6.2157 17.5903 6.59202 17.782C6.74842 17.8617 6.97262 17.9266 7.41104 17.9624C7.86113 17.9992 8.44342 18 9.3 18H15.7C16.5566 18 17.1389 17.9992 17.589 17.9624C18.0274 17.9266 18.2516 17.8617 18.408 17.782C18.7843 17.5903 19.0903 17.2843 19.282 16.908C19.3617 16.7516 19.4266 16.5274 19.4625 16.089C19.4992 15.6389 19.5 15.0566 19.5 14.2V13ZM7.5 15.5C7.5 14.6716 8.17157 14 9 14C9.82843 14 10.5 14.6716 10.5 15.5C10.5 16.3284 9.82843 17 9 17C8.17157 17 7.5 16.3284 7.5 15.5ZM14.5 15.5C14.5 14.6716 15.1716 14 16 14C16.8284 14 17.5 14.6716 17.5 15.5C17.5 16.3284 16.8284 17 16 17C15.1716 17 14.5 16.3284 14.5 15.5ZM9 22C9 21.4477 9.44772 21 10 21H15C15.5523 21 16 21.4477 16 22C16 22.5523 15.5523 23 15 23H10C9.44772 23 9 22.5523 9 22Z" fill="white"/>
</svg>
