<svg width="25" height="24" viewBox="0 0 25 24" fill="none" xmlns="http://www.w3.org/2000/svg">
<path fill-rule="evenodd" clip-rule="evenodd" d="M5.66146 2.99988H11.3385C11.8657 2.99986 12.3205 2.99985 12.695 3.03045C13.0904 3.06275 13.4836 3.13407 13.862 3.32686C14.4265 3.61448 14.8854 4.07342 15.173 4.63791C15.3658 5.01629 15.4371 5.40951 15.4694 5.80485C15.4746 5.86762 15.4788 5.93264 15.4824 5.99988H16.8373C16.8538 5.99988 16.8709 5.99983 16.8883 5.99979C17.0782 5.99928 17.3173 5.99864 17.5527 6.05514C17.7568 6.10413 17.9518 6.18494 18.1308 6.2946C18.3371 6.42106 18.5058 6.59061 18.6397 6.72525C18.652 6.73762 18.664 6.74969 18.6757 6.7614L22.7385 10.8241C22.7502 10.8359 22.7623 10.8479 22.7746 10.8602C22.9093 10.9941 23.0788 11.1627 23.2053 11.3691C23.3149 11.548 23.3957 11.7431 23.4447 11.9472C23.5012 12.1825 23.5006 12.4217 23.5001 12.6116C23.5 12.629 23.5 12.6461 23.5 12.6626V15.5264C23.5 15.7364 23.5 15.941 23.4882 16.1151C23.4752 16.3055 23.4447 16.5312 23.3478 16.7652C23.1448 17.2553 22.7554 17.6447 22.2654 17.8476C22.1656 17.889 22.0673 17.9182 21.9727 17.9392C21.7566 19.6648 20.2842 20.9999 18.5 20.9999C16.7368 20.9999 15.2781 19.696 15.0354 17.9999H11.374C10.9299 19.7251 9.36384 20.9999 7.5 20.9999C5.58623 20.9999 3.98636 19.6559 3.59276 17.8603C2.37937 17.4757 1.5 16.3405 1.5 14.9999L1.5 7.16134C1.49998 6.63419 1.49997 6.17942 1.53057 5.80485C1.56287 5.40951 1.63419 5.01629 1.82698 4.63791C2.1146 4.07342 2.57354 3.61448 3.13803 3.32686C3.51641 3.13407 3.90963 3.06275 4.30497 3.03045C4.67955 2.99985 5.13431 2.99986 5.66146 2.99988ZM3.73547 15.6445C4.29077 14.1024 5.76663 12.9999 7.5 12.9999C9.36384 12.9999 10.9299 14.2747 11.374 15.9999H13.5V7.19988C13.5 6.62333 13.4992 6.25105 13.4761 5.96772C13.4539 5.69605 13.4162 5.59533 13.391 5.54589C13.2951 5.35773 13.1422 5.20475 12.954 5.10887C12.9045 5.08368 12.8038 5.046 12.5322 5.02381C12.2488 5.00066 11.8766 4.99988 11.3 4.99988H5.7C5.12345 4.99988 4.75118 5.00066 4.46784 5.02381C4.19617 5.046 4.09546 5.08368 4.04601 5.10887C3.85785 5.20475 3.70487 5.35773 3.609 5.54589C3.5838 5.59533 3.54613 5.69605 3.52393 5.96772C3.50078 6.25105 3.5 6.62333 3.5 7.19988L3.5 14.9999C3.5 15.2455 3.58855 15.4704 3.73547 15.6445ZM15.5 15.6961V7.99988H16.8373C16.9683 7.99988 17.0336 8.00012 17.0811 8.00229C17.0824 8.00235 17.0836 8.0024 17.0847 8.00246C17.0856 8.00323 17.0865 8.00404 17.0874 8.00488C17.1225 8.03692 17.1689 8.08298 17.2615 8.17562L21.3243 12.2384C21.4169 12.331 21.463 12.3774 21.495 12.4125C21.4958 12.4134 21.4966 12.4143 21.4974 12.4152C21.4975 12.4163 21.4975 12.4175 21.4976 12.4187C21.4998 12.4662 21.5 12.5316 21.5 12.6626V15.4999C21.5 15.5747 21.5 15.6392 21.4997 15.6956C20.8872 14.6794 19.773 13.9999 18.5 13.9999C17.2268 13.9999 16.1125 14.6797 15.5 15.6961ZM7.5 14.9999C6.39543 14.9999 5.5 15.8953 5.5 16.9999C5.5 18.1045 6.39543 18.9999 7.5 18.9999C8.60457 18.9999 9.5 18.1045 9.5 16.9999C9.5 15.8953 8.60457 14.9999 7.5 14.9999ZM18.5 15.9999C17.6716 15.9999 17 16.6715 17 17.4999C17 18.3283 17.6716 18.9999 18.5 18.9999C19.3284 18.9999 20 18.3283 20 17.4999C20 16.6715 19.3284 15.9999 18.5 15.9999Z" fill="white"/>
</svg>
