<svg width="32" height="32" viewBox="0 0 32 32" fill="none" xmlns="http://www.w3.org/2000/svg">
<path fill-rule="evenodd" clip-rule="evenodd" d="M6.88199 3.99994L14.4514 3.99994C15.1543 3.99992 15.7607 3.9999 16.2601 4.0407C16.7872 4.08377 17.3115 4.17886 17.816 4.43592C18.5687 4.81941 19.1806 5.43133 19.5641 6.18398C19.8211 6.68849 19.9162 7.21278 19.9593 7.7399C19.9661 7.8236 19.9718 7.91029 19.9766 7.99994H21.7831C21.8052 7.99994 21.8279 7.99988 21.8511 7.99982C22.1043 7.99914 22.4232 7.99829 22.7369 8.07362C23.009 8.13895 23.2692 8.24669 23.5078 8.3929C23.7829 8.56151 24.0078 8.78758 24.1863 8.9671C24.2027 8.98359 24.2187 8.99968 24.2344 9.0153L29.6514 14.4323C29.667 14.4479 29.6831 14.4639 29.6996 14.4803C29.8791 14.6589 30.1052 14.8838 30.2738 15.1589C30.42 15.3975 30.5277 15.6576 30.593 15.9297C30.6684 16.2435 30.6675 16.5623 30.6668 16.8156C30.6668 16.8388 30.6667 16.8615 30.6667 16.8836V20.7019C30.6667 20.982 30.6668 21.2548 30.6509 21.4869C30.6336 21.7407 30.593 22.0417 30.4637 22.3538C30.1931 23.0072 29.6739 23.5263 29.0205 23.797C28.8875 23.8521 28.7565 23.891 28.6303 23.919C28.3422 26.2199 26.379 27.9999 24 27.9999C21.6491 27.9999 19.7041 26.2615 19.3806 23.9999H14.4987C13.9066 26.3002 11.8185 27.9999 9.33338 27.9999C6.78167 27.9999 4.64852 26.2079 4.12372 23.8138C2.50587 23.3011 1.33338 21.7874 1.33338 19.9999L1.33338 9.54855C1.33335 8.84568 1.33333 8.23933 1.37414 7.7399C1.4172 7.21278 1.51229 6.68849 1.76935 6.18398C2.15284 5.43133 2.76477 4.81941 3.51741 4.43592C4.02192 4.17886 4.54621 4.08377 5.07334 4.0407C5.57277 3.9999 6.17912 3.99992 6.88199 3.99994ZM4.31401 20.8594C5.0544 18.8034 7.02221 17.3333 9.33338 17.3333C11.8185 17.3333 13.9066 19.033 14.4987 21.3333H17.3334V9.59994C17.3334 8.8312 17.3323 8.33484 17.3015 7.95706C17.2719 7.59484 17.2216 7.46055 17.1881 7.39462C17.0602 7.14374 16.8562 6.93976 16.6054 6.81193C16.5394 6.77834 16.4051 6.72811 16.0429 6.69851C15.6651 6.66765 15.1688 6.66661 14.4 6.66661H6.93338C6.16464 6.66661 5.66828 6.66765 5.29049 6.69851C4.92827 6.72811 4.79398 6.77834 4.72806 6.81193C4.47717 6.93976 4.2732 7.14374 4.14537 7.39462C4.11178 7.46055 4.06154 7.59484 4.03195 7.95706C4.00108 8.33484 4.00004 8.8312 4.00004 9.59994V19.9999C4.00004 20.3274 4.11811 20.6273 4.31401 20.8594ZM20 20.9282V10.6666H21.7831C21.9577 10.6666 22.0449 10.6669 22.1082 10.6698C22.1099 10.6699 22.1115 10.67 22.113 10.67C22.1141 10.6711 22.1153 10.6721 22.1165 10.6733C22.1634 10.716 22.2252 10.7774 22.3487 10.9009L27.7657 16.3179C27.8892 16.4414 27.9507 16.5033 27.9934 16.5501C27.9945 16.5513 27.9956 16.5525 27.9966 16.5537C27.9967 16.5552 27.9968 16.5568 27.9968 16.5584C27.9997 16.6218 28 16.7089 28 16.8836V20.6666C28 20.7664 28 20.8524 27.9996 20.9275C27.183 19.5727 25.6973 18.6666 24 18.6666C22.3025 18.6666 20.8166 19.573 20 20.9282ZM9.33338 19.9999C7.86062 19.9999 6.66671 21.1939 6.66671 22.6666C6.66671 24.1394 7.86062 25.3333 9.33338 25.3333C10.8061 25.3333 12 24.1394 12 22.6666C12 21.1939 10.8061 19.9999 9.33338 19.9999ZM24 21.3333C22.8955 21.3333 22 22.2287 22 23.3333C22 24.4378 22.8955 25.3333 24 25.3333C25.1046 25.3333 26 24.4378 26 23.3333C26 22.2287 25.1046 21.3333 24 21.3333Z" fill="#285BF3"/>
</svg>
