<svg width="34" height="34" viewBox="0 0 34 34" fill="none" xmlns="http://www.w3.org/2000/svg">
<g id="user-03">
<path id="Icon" fill-rule="evenodd" clip-rule="evenodd" d="M16.9999 5.66667C14.2615 5.66667 12.0416 7.88659 12.0416 10.625C12.0416 13.3634 14.2615 15.5833 16.9999 15.5833C19.7383 15.5833 21.9583 13.3634 21.9583 10.625C21.9583 7.88659 19.7383 5.66667 16.9999 5.66667ZM9.20826 10.625C9.20826 6.32178 12.6967 2.83333 16.9999 2.83333C21.3031 2.83333 24.7916 6.32178 24.7916 10.625C24.7916 14.9282 21.3031 18.4167 16.9999 18.4167C12.6967 18.4167 9.20826 14.9282 9.20826 10.625ZM16.9999 24.0833C12.4791 24.0833 8.3488 26.051 5.28069 29.3052C4.74396 29.8744 3.84736 29.9008 3.27809 29.3641C2.70881 28.8274 2.68243 27.9308 3.21916 27.3615C6.76912 23.5963 11.624 21.25 16.9999 21.25C22.3758 21.25 27.2307 23.5963 30.7807 27.3615C31.3174 27.9308 31.291 28.8274 30.7218 29.3641C30.1525 29.9008 29.2559 29.8744 28.7192 29.3052C25.651 26.051 21.5208 24.0833 16.9999 24.0833Z" fill="#A8B8CB"/>
</g>
</svg>
