<svg width="25" height="24" viewBox="0 0 25 24" fill="none" xmlns="http://www.w3.org/2000/svg">
<path fill-rule="evenodd" clip-rule="evenodd" d="M12.6747 2.03218C12.5585 2.02199 12.4415 2.02199 12.3253 2.03218C12.1916 2.04391 12.064 2.07244 11.9628 2.09509L11.936 2.10109L4.50934 3.75145C4.30892 3.79596 4.1097 3.84021 3.94126 3.89083C3.75328 3.94734 3.53935 4.02943 3.33093 4.17958C3.03659 4.39164 2.80546 4.67976 2.6623 5.0131C2.56094 5.24912 2.52721 5.47577 2.51284 5.67154C2.49995 5.84694 2.49998 6.05102 2.5 6.25631L2.5 19.432C2.49997 19.6844 2.49994 19.9302 2.51695 20.1384C2.53563 20.367 2.57969 20.6367 2.71799 20.9081C2.90974 21.2844 3.2157 21.5904 3.59202 21.7822C3.86345 21.9205 4.13318 21.9645 4.36178 21.9832C4.56985 22.0002 4.81553 22.0002 5.06781 22.0001H5.06784H5.06787H5.06791L13.6461 22.0001L13.654 22.0002H18.27L18.2779 22.0001L19.9319 22.0001H19.932H19.932H19.932C20.1843 22.0002 20.4302 22.0002 20.6382 21.9832C20.8668 21.9645 21.1366 21.9205 21.408 21.7822C21.7843 21.5904 22.0903 21.2844 22.282 20.9081C22.4203 20.6367 22.4644 20.367 22.4831 20.1384C22.5001 19.9303 22.5 19.6846 22.5 19.4324V19.4323V19.4323V19.4322V6.25632C22.5 6.05102 22.5001 5.84694 22.4872 5.67154C22.4728 5.47577 22.4391 5.24912 22.3377 5.0131C22.1946 4.67977 21.9634 4.39164 21.6691 4.17958C21.4607 4.02943 21.2467 3.94734 21.0587 3.89083C20.8903 3.84021 20.6911 3.79597 20.4907 3.75146L13.0372 2.09509C12.936 2.07244 12.8084 2.04391 12.6747 2.03218ZM19.9 20.0001C20.1965 20.0001 20.3588 19.9994 20.4754 19.9898L20.4886 19.9887L20.4897 19.9755C20.4992 19.8589 20.5 19.6967 20.5 19.4001V6.28362C20.5 6.0401 20.4994 5.91108 20.4925 5.81804L20.4918 5.80886L20.483 5.80618C20.3937 5.77933 20.2679 5.75073 20.0302 5.69791L12.6302 4.05346C12.5606 4.03801 12.5266 4.03053 12.5017 4.02567L12.5 4.02534L12.4983 4.02567C12.4734 4.03053 12.4394 4.03801 12.3698 4.05346L4.96985 5.6979C4.73213 5.75073 4.60631 5.77933 4.51697 5.80618L4.50817 5.80887L4.50746 5.81803C4.50063 5.91108 4.50001 6.0401 4.50001 6.28362V19.4001C4.50001 19.6967 4.50078 19.8589 4.51031 19.9755L4.51145 19.9887L4.52464 19.9898C4.55071 19.992 5.31917 19.9937 6.5 19.995L6.5 9.00012C6.5 8.44784 6.94772 8.00012 7.5 8.00012H17.5C18.0523 8.00012 18.5 8.44784 18.5 9.00012V20L19.9 20.0001ZM16.5 19.9997V10.0001H8.5V19.9967C10.9793 19.9984 14.1364 19.9993 16.5 19.9997ZM10.5 17.0001C10.5 16.4478 10.9477 16.0001 11.5 16.0001H13.5C14.0523 16.0001 14.5 16.4478 14.5 17.0001C14.5 17.5524 14.0523 18.0001 13.5 18.0001H11.5C10.9477 18.0001 10.5 17.5524 10.5 17.0001ZM11.5 12.0001C10.9477 12.0001 10.5 12.4478 10.5 13.0001C10.5 13.5524 10.9477 14.0001 11.5 14.0001H13.5C14.0523 14.0001 14.5 13.5524 14.5 13.0001C14.5 12.4478 14.0523 12.0001 13.5 12.0001H11.5Z" fill="white"/>
</svg>
