<svg width="584" height="476" viewBox="0 0 584 476" fill="none" xmlns="http://www.w3.org/2000/svg">
<g filter="url(#filter0_b_2092_15387)">
<g clip-path="url(#clip0_2092_15387)">
<rect x="155.877" y="40" width="318.358" height="318.358" rx="159.179" transform="rotate(8.64934 155.877 40)" fill="url(#paint0_linear_2092_15387)" fill-opacity="0.26"/>
<g clip-path="url(#clip1_2092_15387)">
<path fill-rule="evenodd" clip-rule="evenodd" d="M326.485 158.184C329.31 156.105 333.285 156.71 335.364 159.535L356.657 188.468C358.736 191.293 358.132 195.268 355.307 197.347L326.373 218.64C323.548 220.719 319.573 220.115 317.494 217.29C315.415 214.465 316.02 210.49 318.845 208.411L335.43 196.205L267.713 185.904C262.335 185.086 258.679 184.535 255.818 184.336C253.031 184.142 251.561 184.336 250.503 184.687C247.958 185.531 245.744 187.16 244.181 189.339C243.532 190.245 242.91 191.591 242.266 194.309C241.605 197.1 241.044 200.755 240.226 206.133L240.035 207.388C239.508 210.856 236.269 213.239 232.802 212.712C229.335 212.184 226.951 208.946 227.479 205.478L227.709 203.963C228.478 198.909 229.112 194.738 229.907 191.383C230.732 187.898 231.844 184.748 233.86 181.937C236.987 177.578 241.413 174.32 246.505 172.631C249.788 171.542 253.126 171.417 256.699 171.665C260.139 171.905 264.31 172.539 269.364 173.308L337.34 183.648L325.135 167.063C323.056 164.238 323.66 160.263 326.485 158.184ZM261.12 225.324C263.199 228.149 262.594 232.125 259.769 234.203L243.184 246.409L310.901 256.71C316.279 257.528 319.936 258.079 322.796 258.278C325.583 258.472 327.053 258.279 328.111 257.928C330.657 257.083 332.87 255.455 334.433 253.275C335.083 252.369 335.705 251.024 336.348 248.305C337.009 245.515 337.57 241.859 338.388 236.481L338.579 235.226C339.106 231.758 342.345 229.375 345.812 229.903C349.28 230.43 351.663 233.668 351.136 237.136L350.905 238.651C350.136 243.705 349.502 247.876 348.708 251.231C347.882 254.717 346.77 257.867 344.754 260.678C341.627 265.037 337.201 268.294 332.11 269.983C328.826 271.072 325.488 271.197 321.915 270.949C318.475 270.71 314.304 270.075 309.25 269.306L241.274 258.966L253.48 275.551C255.559 278.376 254.954 282.351 252.129 284.43C249.304 286.509 245.329 285.904 243.25 283.08L221.957 254.146C219.878 251.321 220.483 247.346 223.308 245.267L252.241 223.974C255.066 221.895 259.041 222.5 261.12 225.324Z" fill="white"/>
</g>
<g filter="url(#filter1_f_2092_15387)">
<rect x="386.716" y="240.802" width="110.385" height="110.385" transform="rotate(19.7696 386.716 240.802)" fill="#285BF3"/>
</g>
</g>
<rect x="156.246" y="40.5012" width="317.478" height="317.478" rx="158.739" transform="rotate(8.64934 156.246 40.5012)" stroke="white" stroke-opacity="0.16" stroke-width="0.880004"/>
</g>
<g filter="url(#filter2_b_2092_15387)">
<rect x="405.881" y="251.093" width="72.1853" height="72.1853" rx="36.0927" transform="rotate(10 405.881 251.093)" fill="#285BF3"/>
<g clip-path="url(#clip2_2092_15387)">
<path fill-rule="evenodd" clip-rule="evenodd" d="M436.587 280.145C437.133 279.994 437.718 280.097 438.18 280.426C438.579 280.711 438.756 281.114 438.842 281.333C438.931 281.559 439.014 281.843 439.094 282.119C439.098 282.133 439.103 282.147 439.107 282.161L440.804 287.978L446.602 289.897C446.875 289.987 447.155 290.08 447.379 290.177C447.595 290.271 447.991 290.462 448.261 290.871C448.574 291.344 448.656 291.933 448.485 292.473C448.338 292.94 448.009 293.233 447.827 293.382C447.639 293.537 447.395 293.703 447.158 293.865L442.114 297.298L442.085 303.399C442.084 303.687 442.083 303.982 442.059 304.225C442.037 304.459 441.978 304.895 441.673 305.279C441.32 305.723 440.785 305.983 440.218 305.988C439.728 305.993 439.348 305.77 439.15 305.644C438.944 305.513 438.711 305.332 438.484 305.156L433.657 301.42L427.843 303.28C427.569 303.367 427.288 303.457 427.05 303.51C426.82 303.561 426.387 303.64 425.928 303.469C425.397 303.27 424.984 302.842 424.804 302.305C424.648 301.84 424.743 301.41 424.802 301.182C424.863 300.946 424.962 300.668 425.06 300.397L427.12 294.655L423.58 289.739C423.571 289.727 423.563 289.715 423.554 289.703C423.386 289.47 423.214 289.23 423.09 289.021C422.97 288.818 422.761 288.431 422.783 287.941C422.807 287.375 423.086 286.85 423.541 286.512C423.935 286.22 424.373 286.177 424.608 286.162C424.851 286.147 425.146 286.156 425.433 286.164C425.448 286.165 425.462 286.165 425.477 286.166L431.538 286.344L435.122 281.458C435.131 281.447 435.14 281.435 435.149 281.423C435.319 281.191 435.493 280.953 435.654 280.771C435.81 280.594 436.114 280.276 436.587 280.145ZM436.843 283.351L433.48 287.933C433.474 287.942 433.467 287.952 433.458 287.963C433.378 288.075 433.212 288.305 432.982 288.479C432.788 288.626 432.568 288.733 432.333 288.796C432.054 288.87 431.77 288.86 431.633 288.854C431.619 288.854 431.606 288.853 431.595 288.853L425.911 288.686L429.231 293.297C429.237 293.306 429.244 293.316 429.253 293.327C429.334 293.438 429.502 293.668 429.597 293.941C429.677 294.171 429.711 294.414 429.698 294.657C429.682 294.945 429.584 295.212 429.536 295.341C429.531 295.355 429.527 295.366 429.523 295.377L427.605 300.724L433.019 298.992C433.029 298.989 433.041 298.985 433.054 298.981C433.185 298.938 433.455 298.849 433.744 298.843C433.987 298.838 434.229 298.881 434.456 298.969C434.725 299.073 434.949 299.249 435.057 299.334C435.068 299.343 435.078 299.35 435.087 299.357L439.581 302.836L439.608 297.155C439.608 297.144 439.608 297.131 439.608 297.117C439.607 296.98 439.606 296.695 439.69 296.419C439.761 296.186 439.876 295.969 440.03 295.78C440.212 295.556 440.449 295.398 440.563 295.322C440.575 295.314 440.585 295.307 440.594 295.301L445.291 292.103L439.892 290.316C439.882 290.313 439.87 290.309 439.856 290.304C439.725 290.262 439.455 290.175 439.219 290.01C439.019 289.871 438.849 289.694 438.717 289.49C438.56 289.248 438.483 288.975 438.446 288.843C438.442 288.829 438.438 288.817 438.435 288.807L436.843 283.351Z" fill="white"/>
</g>
<rect x="406.491" y="251.964" width="70.6815" height="70.6815" rx="35.3407" transform="rotate(10 406.491 251.964)" stroke="white" stroke-opacity="0.08" stroke-width="1.50386"/>
</g>
<defs>
<filter id="filter0_b_2092_15387" x="93.8374" y="25.8374" width="390.939" height="390.939" filterUnits="userSpaceOnUse" color-interpolation-filters="sRGB">
<feFlood flood-opacity="0" result="BackgroundImageFix"/>
<feGaussianBlur in="BackgroundImageFix" stdDeviation="7.08128"/>
<feComposite in2="SourceAlpha" operator="in" result="effect1_backgroundBlur_2092_15387"/>
<feBlend mode="normal" in="SourceGraphic" in2="effect1_backgroundBlur_2092_15387" result="shape"/>
</filter>
<filter id="filter1_f_2092_15387" x="184.738" y="76.1602" width="470.5" height="470.5" filterUnits="userSpaceOnUse" color-interpolation-filters="sRGB">
<feFlood flood-opacity="0" result="BackgroundImageFix"/>
<feBlend mode="normal" in="SourceGraphic" in2="BackgroundImageFix" result="shape"/>
<feGaussianBlur stdDeviation="82.3211" result="effect1_foregroundBlur_2092_15387"/>
</filter>
<filter id="filter2_b_2092_15387" x="364.289" y="222.035" width="141.739" height="141.739" filterUnits="userSpaceOnUse" color-interpolation-filters="sRGB">
<feFlood flood-opacity="0" result="BackgroundImageFix"/>
<feGaussianBlur in="BackgroundImageFix" stdDeviation="14.5288"/>
<feComposite in2="SourceAlpha" operator="in" result="effect1_backgroundBlur_2092_15387"/>
<feBlend mode="normal" in="SourceGraphic" in2="effect1_backgroundBlur_2092_15387" result="shape"/>
</filter>
<linearGradient id="paint0_linear_2092_15387" x1="315.056" y1="40" x2="520.374" y2="403.332" gradientUnits="userSpaceOnUse">
<stop stop-color="white"/>
<stop offset="1" stop-color="white" stop-opacity="0"/>
</linearGradient>
<clipPath id="clip0_2092_15387">
<rect x="155.877" y="40" width="318.358" height="318.358" rx="159.179" transform="rotate(8.64934 155.877 40)" fill="white"/>
</clipPath>
<clipPath id="clip1_2092_15387">
<rect width="152.414" height="152.414" fill="white" transform="translate(225.428 134.507) rotate(8.64934)"/>
</clipPath>
<clipPath id="clip2_2092_15387">
<rect width="30.0772" height="30.0772" fill="white" transform="translate(422.96 275.483) rotate(10)"/>
</clipPath>
</defs>
</svg>
