<svg width="28" height="28" viewBox="0 0 28 28" fill="none" xmlns="http://www.w3.org/2000/svg">
<g id="Frame" clip-path="url(#clip0_311_36064)">
<path id="Vector" d="M14.0466 1.33333C7.04953 1.33333 1.37988 7.00428 1.37988 14C1.37988 20.9957 7.04953 26.6667 14.0466 26.6667C21.0411 26.6667 26.7132 20.9958 26.7132 14C26.7132 7.00415 21.0411 1.33333 14.0466 1.33333Z" fill="#FC3F1D" stroke="#F4F5F8" stroke-width="2"/>
<path id="Vector_2" d="M15.5399 8.94367H14.4619C12.4856 8.94367 11.4461 9.94467 11.4461 11.4205C11.4461 13.0888 12.1648 13.8705 13.6406 14.8727L14.8598 15.694L11.3563 20.9288H8.73828L11.8824 16.2458C10.0741 14.9497 9.05911 13.6908 9.05911 11.5617C9.05911 8.89233 10.9199 7.07 14.4491 7.07H17.9526V20.916H15.5399V8.94367Z" fill="white"/>
</g>
<defs>
<clipPath id="clip0_311_36064">
<rect width="28" height="28" fill="white"/>
</clipPath>
</defs>
</svg>
