<svg>

	<symbol id="rating-star" xmlns="http://www.w3.org/2000/svg" viewBox="0 0 24 24">
		<path fill-rule="evenodd" clip-rule="evenodd"
			d="M11.3545 1.77565C11.7628 1.58095 12.2372 1.58095 12.6456 1.77565C12.9986 1.94397 13.1932 2.23621 13.2914 2.39653C13.3929 2.56227 13.497 2.77341 13.5986 2.9792C13.6037 2.98971 13.6089 3.00021 13.6141 3.01068L15.7543 7.34647L20.5763 8.05128C20.8033 8.08441 21.0362 8.1184 21.2252 8.16383C21.4079 8.20778 21.7458 8.30283 22.0147 8.58667C22.3258 8.91504 22.4721 9.36625 22.4129 9.81469C22.3617 10.2023 22.1439 10.4776 22.0217 10.6204C21.8954 10.768 21.7267 10.9322 21.5624 11.0922L18.0745 14.4894L18.8975 19.2876C18.9364 19.5138 18.9762 19.746 18.9916 19.9398C19.0064 20.1272 19.0207 20.4781 18.834 20.8218C18.6181 21.2194 18.2342 21.4982 17.7893 21.5807C17.4047 21.652 17.0755 21.5299 16.9018 21.4578C16.7223 21.3833 16.5138 21.2737 16.3107 21.1668L12 18.8999L7.68936 21.1668C7.4862 21.2737 7.27778 21.3833 7.09823 21.4578C6.9246 21.5299 6.59531 21.652 6.21071 21.5807C5.76584 21.4982 5.38196 21.2194 5.16601 20.8218C4.97931 20.4781 4.99365 20.1272 5.00849 19.9398C5.02383 19.746 5.06369 19.5139 5.10254 19.2876L5.9255 14.4894L2.46283 11.1167C2.45448 11.1086 2.4461 11.1004 2.43771 11.0923C2.27335 10.9322 2.10469 10.768 1.97838 10.6204C1.85618 10.4776 1.63833 10.2023 1.58714 9.81469C1.52792 9.36625 1.67422 8.91504 1.98531 8.58667C2.25423 8.30283 2.59214 8.20778 2.7749 8.16383C2.96382 8.1184 3.19673 8.08441 3.42372 8.05127C3.43531 8.04958 3.44688 8.0479 3.45842 8.04621L8.24576 7.34647L10.386 3.01068C10.3911 3.00021 10.3963 2.98971 10.4015 2.9792C10.503 2.77341 10.6072 2.56227 10.7087 2.39653C10.8068 2.23621 11.0014 1.94397 11.3545 1.77565Z" />
	</symbol>

	<symbol id="download-ico" xmlns="http://www.w3.org/2000/svg" viewBox="0 0 16 16">
		<path fill-rule="evenodd" clip-rule="evenodd"
			d="M8.00016 1.33331C8.36835 1.33331 8.66683 1.63179 8.66683 1.99998V8.3905L10.8621 6.19524C11.1224 5.93489 11.5446 5.93489 11.8049 6.19524C12.0653 6.45559 12.0653 6.8777 11.8049 7.13805L8.47157 10.4714C8.21122 10.7317 7.78911 10.7317 7.52876 10.4714L4.19543 7.13805C3.93508 6.8777 3.93508 6.45559 4.19543 6.19524C4.45577 5.93489 4.87788 5.93489 5.13823 6.19524L7.3335 8.3905V1.99998C7.3335 1.63179 7.63197 1.33331 8.00016 1.33331ZM2.00016 9.33331C2.36835 9.33331 2.66683 9.63179 2.66683 9.99998V10.8C2.66683 11.371 2.66735 11.7592 2.69186 12.0593C2.71574 12.3516 2.75903 12.501 2.81215 12.6053C2.93999 12.8562 3.14396 13.0602 3.39484 13.188C3.49911 13.2411 3.64858 13.2844 3.94086 13.3083C4.24091 13.3328 4.62911 13.3333 5.20016 13.3333H10.8002C11.3712 13.3333 11.7594 13.3328 12.0595 13.3083C12.3517 13.2844 12.5012 13.2411 12.6055 13.188C12.8564 13.0602 13.0603 12.8562 13.1882 12.6053C13.2413 12.501 13.2846 12.3516 13.3085 12.0593C13.333 11.7592 13.3335 11.371 13.3335 10.8V9.99998C13.3335 9.63179 13.632 9.33331 14.0002 9.33331C14.3684 9.33331 14.6668 9.63179 14.6668 9.99998V10.8275C14.6668 11.3642 14.6668 11.8071 14.6374 12.1679C14.6067 12.5426 14.541 12.8871 14.3762 13.2106C14.1205 13.7124 13.7126 14.1203 13.2108 14.376C12.8872 14.5409 12.5428 14.6066 12.168 14.6372C11.8073 14.6667 11.3644 14.6667 10.8277 14.6666H5.17261C4.63597 14.6667 4.19307 14.6667 3.83228 14.6372C3.45755 14.6066 3.11308 14.5409 2.78952 14.376C2.28776 14.1203 1.87981 13.7124 1.62415 13.2106C1.45929 12.8871 1.39358 12.5426 1.36296 12.1679C1.33348 11.8071 1.33349 11.3642 1.3335 10.8275L1.3335 9.99998C1.3335 9.63179 1.63197 9.33331 2.00016 9.33331Z" />
	</symbol>

	<symbol id="delete-ico" xmlns="http://www.w3.org/2000/svg" viewBox="0 0 16 16">
		<path fill-rule="evenodd" clip-rule="evenodd"
			d="M7.44113 0.666688H8.55919C8.91063 0.666676 9.2138 0.666665 9.46352 0.687068C9.72708 0.708602 9.98922 0.756146 10.2415 0.884675C10.6178 1.07642 10.9238 1.38238 11.1155 1.75871C11.244 2.01096 11.2916 2.27311 11.3131 2.53667C11.3314 2.76052 11.3333 3.02733 11.3335 3.33336H14.0002C14.3684 3.33336 14.6668 3.63183 14.6668 4.00002C14.6668 4.36821 14.3684 4.66669 14.0002 4.66669H13.3335V11.4942C13.3335 12.0309 13.3335 12.4738 13.304 12.8346C13.2734 13.2093 13.2077 13.5538 13.0428 13.8773C12.7872 14.3791 12.3792 14.787 11.8775 15.0427C11.5539 15.2076 11.2094 15.2733 10.8347 15.3039C10.4739 15.3334 10.031 15.3334 9.49438 15.3334H6.50595C5.96931 15.3334 5.52641 15.3334 5.16561 15.3039C4.79088 15.2733 4.44641 15.2076 4.12286 15.0427C3.62109 14.787 3.21314 14.3791 2.95748 13.8773C2.79262 13.5538 2.72691 13.2093 2.69629 12.8346C2.66681 12.4738 2.66682 12.0309 2.66683 11.4942L2.66683 4.66669H2.00016C1.63197 4.66669 1.3335 4.36821 1.3335 4.00002C1.3335 3.63183 1.63197 3.33336 2.00016 3.33336H4.66685C4.66703 3.02733 4.66892 2.76052 4.68721 2.53667C4.70874 2.27311 4.75629 2.01096 4.88482 1.75871C5.07656 1.38238 5.38252 1.07642 5.75885 0.884675C6.0111 0.756146 6.27325 0.708602 6.53681 0.687068C6.78653 0.666665 7.0897 0.666676 7.44113 0.666688ZM4.00016 4.66669V11.4667C4.00016 12.0377 4.00068 12.4259 4.0252 12.726C4.04908 13.0183 4.09236 13.1677 4.14549 13.272C4.27332 13.5229 4.47729 13.7269 4.72818 13.8547C4.83244 13.9078 4.98191 13.9511 5.27419 13.975C5.57425 13.9995 5.96244 14 6.5335 14H9.46683C10.0379 14 10.4261 13.9995 10.7261 13.975C11.0184 13.9511 11.1679 13.9078 11.2722 13.8547C11.523 13.7269 11.727 13.5229 11.8548 13.272C11.908 13.1677 11.9512 13.0183 11.9751 12.726C11.9996 12.4259 12.0002 12.0377 12.0002 11.4667V4.66669H4.00016ZM10.0001 3.33336H6.00021C6.00051 3.02329 6.00254 2.81134 6.01611 2.64525C6.03091 2.46414 6.05603 2.39699 6.07283 2.36403C6.13674 2.23859 6.23873 2.1366 6.36417 2.07268C6.39713 2.05589 6.46428 2.03077 6.64539 2.01597C6.83428 2.00054 7.08246 2.00002 7.46683 2.00002H8.5335C8.91787 2.00002 9.16605 2.00054 9.35494 2.01597C9.53605 2.03077 9.60319 2.05589 9.63616 2.07268C9.7616 2.1366 9.86358 2.23859 9.9275 2.36403C9.9443 2.39699 9.96941 2.46414 9.98421 2.64525C9.99778 2.81134 9.99982 3.02329 10.0001 3.33336Z" />
	</symbol>

	<symbol id="info-ico" xmlns="http://www.w3.org/2000/svg" viewBox="0 0 16 16">
		<g clip-path="url(#clip0_311_39463)">
			<path fill-rule="evenodd" clip-rule="evenodd"
				d="M7.99984 2.00002C4.68613 2.00002 1.99984 4.68631 1.99984 8.00002C1.99984 11.3137 4.68613 14 7.99984 14C11.3135 14 13.9998 11.3137 13.9998 8.00002C13.9998 4.68631 11.3135 2.00002 7.99984 2.00002ZM0.666504 8.00002C0.666504 3.94993 3.94975 0.666687 7.99984 0.666687C12.0499 0.666687 15.3332 3.94993 15.3332 8.00002C15.3332 12.0501 12.0499 15.3334 7.99984 15.3334C3.94975 15.3334 0.666504 12.0501 0.666504 8.00002ZM7.33317 5.33335C7.33317 4.96516 7.63165 4.66669 7.99984 4.66669H8.0065C8.37469 4.66669 8.67317 4.96516 8.67317 5.33335C8.67317 5.70154 8.37469 6.00002 8.0065 6.00002H7.99984C7.63165 6.00002 7.33317 5.70154 7.33317 5.33335ZM7.99984 7.33335C8.36803 7.33335 8.6665 7.63183 8.6665 8.00002V10.6667C8.6665 11.0349 8.36803 11.3334 7.99984 11.3334C7.63165 11.3334 7.33317 11.0349 7.33317 10.6667V8.00002C7.33317 7.63183 7.63165 7.33335 7.99984 7.33335Z" />
		</g>
		<defs>
			<clipPath id="clip0_311_39463">
				<rect width="16" height="16" fill="white" />
			</clipPath>
		</defs>
	</symbol>

	<symbol id="plus-ico" viewBox="0 0 20 20" xmlns="http://www.w3.org/2000/svg">
		<path fill-rule="evenodd" clip-rule="evenodd"
			d="M10 3.33325C10.4602 3.33325 10.8333 3.70635 10.8333 4.16659V9.16659H15.8333C16.2936 9.16659 16.6667 9.53968 16.6667 9.99992C16.6667 10.4602 16.2936 10.8333 15.8333 10.8333H10.8333V15.8333C10.8333 16.2935 10.4602 16.6666 10 16.6666C9.53977 16.6666 9.16668 16.2935 9.16668 15.8333V10.8333H4.16668C3.70644 10.8333 3.33334 10.4602 3.33334 9.99992C3.33334 9.53968 3.70644 9.16659 4.16668 9.16659H9.16668V4.16659C9.16668 3.70635 9.53977 3.33325 10 3.33325Z" />
	</symbol>

	<symbol id="plus-big-ico" viewBox="0 0 20 20" xmlns="http://www.w3.org/2000/svg">
		<path fill-rule="evenodd" clip-rule="evenodd" d="M3.33337 10.0001H16.66674" stroke-width="2" stroke-linecap="round"
			stroke-linejoin="round" stroke="#285BF3"></path>
		<path fill-rule="evenodd" clip-rule="evenodd" d="M10.0001 3.33337V16.66674" stroke-width="2" stroke-linecap="round"
			stroke-linejoin="round" stroke="#285BF3"></path>
	</symbol>

	<symbol id="vector-top-ico" width="971" height="473" viewBox="0 0 971 473" fill="none"
		xmlns="http://www.w3.org/2000/svg">
		<g opacity="0.2" filter="url(#filter0_f_311_43081)">
			<path
				d="M386.36 -163.263C479.396 -197.381 1084.67 -5.61551 986.027 -15.2292C641.555 -48.8006 666.271 144.779 443.946 175.915C387.42 183.831 319.053 196.359 298.361 188.855C177.597 145.059 265.774 -119.041 386.36 -163.263Z"
				fill="#1C55DF" />
		</g>
		<g opacity="0.2" filter="url(#filter1_f_311_43081)">
			<path
				d="M577.992 230.037C637.827 251.98 1027.1 128.648 963.658 134.831C742.116 156.422 758.012 31.9247 615.027 11.9002C578.674 6.80894 534.705 -1.24818 521.397 3.57792C443.729 31.7442 500.439 201.596 577.992 230.037Z"
				fill="#1CB7DF" />
		</g>
		<defs>
			<filter id="filter0_f_311_43081" x="0.699768" y="-407.335" width="1236.16" height="838.497"
				filterUnits="userSpaceOnUse" color-interpolation-filters="sRGB">
				<feFlood flood-opacity="0" result="BackgroundImageFix" />
				<feBlend mode="normal" in="SourceGraphic" in2="BackgroundImageFix" result="shape" />
				<feGaussianBlur stdDeviation="120" result="effect1_foregroundBlur_311_43081" />
			</filter>
			<filter id="filter1_f_311_43081" x="244.313" y="-237.906" width="966.31" height="710.562"
				filterUnits="userSpaceOnUse" color-interpolation-filters="sRGB">
				<feFlood flood-opacity="0" result="BackgroundImageFix" />
				<feBlend mode="normal" in="SourceGraphic" in2="BackgroundImageFix" result="shape" />
				<feGaussianBlur stdDeviation="120" result="effect1_foregroundBlur_311_43081" />
			</filter>
		</defs>
	</symbol>

	<symbol id="vector-middle-ico" width="1440" height="912" viewBox="0 0 1440 912" fill="none"
		xmlns="http://www.w3.org/2000/svg">
		<g style="mix-blend-mode:screen" opacity="0.4">
			<g opacity="0.34" filter="url(#filter0_f_311_43075)">
				<path
					d="M202.148 329.782C195.821 447.298 912.5 601.421 1802.9 674.025C2693.29 746.629 3420.23 710.22 3426.56 592.704C3432.88 475.188 2716.2 321.065 1825.81 248.461C935.412 175.857 208.475 212.266 202.148 329.782Z"
					fill="#2665ED" />
			</g>
			<g opacity="0.34" filter="url(#filter1_f_311_43075)">
				<path
					d="M205.277 271.673C200.678 357.097 918.757 485.203 1809.15 557.807C2699.55 630.411 3425.09 620.019 3429.68 534.595C3434.28 449.172 2716.2 321.065 1825.81 248.461C935.412 175.857 209.876 186.25 205.277 271.673Z"
					fill="#2665ED" />
			</g>
			<g opacity="0.56" filter="url(#filter2_f_311_43075)">
				<path
					d="M-286.049 173.239C-287.679 203.515 432.808 286.916 1323.2 359.52C2213.6 432.124 2936.73 466.437 2938.36 436.161C2939.99 405.884 2219.5 322.483 1329.11 249.879C438.711 177.275 -284.419 142.962 -286.049 173.239Z"
					fill="#447CF7" />
			</g>
		</g>
		<defs>
			<filter id="filter0_f_311_43075" x="2.10657" y="11.0923" width="3624.49" height="900.302"
				filterUnits="userSpaceOnUse" color-interpolation-filters="sRGB">
				<feFlood flood-opacity="0" result="BackgroundImageFix" />
				<feBlend mode="normal" in="SourceGraphic" in2="BackgroundImageFix" result="shape" />
				<feGaussianBlur stdDeviation="100" result="effect1_foregroundBlur_311_43075" />
			</filter>
			<filter id="filter1_f_311_43075" x="5.25464" y="0.138184" width="3624.45" height="805.992"
				filterUnits="userSpaceOnUse" color-interpolation-filters="sRGB">
				<feFlood flood-opacity="0" result="BackgroundImageFix" />
				<feBlend mode="normal" in="SourceGraphic" in2="BackgroundImageFix" result="shape" />
				<feGaussianBlur stdDeviation="100" result="effect1_foregroundBlur_311_43075" />
			</filter>
			<filter id="filter2_f_311_43075" x="-358.051" y="90.229" width="3368.41" height="428.941"
				filterUnits="userSpaceOnUse" color-interpolation-filters="sRGB">
				<feFlood flood-opacity="0" result="BackgroundImageFix" />
				<feBlend mode="normal" in="SourceGraphic" in2="BackgroundImageFix" result="shape" />
				<feGaussianBlur stdDeviation="36" result="effect1_foregroundBlur_311_43075" />
			</filter>
		</defs>
	</symbol>

	<symbol id="arrow-right-ico" viewBox="0 0 20 20" fill="none" xmlns="http://www.w3.org/2000/svg">
		<path fill-rule="evenodd" clip-rule="evenodd"
			d="M9.41079 3.57733C9.73622 3.25189 10.2639 3.25189 10.5893 3.57733L16.4226 9.41066C16.7481 9.7361 16.7481 10.2637 16.4226 10.5892L10.5893 16.4225C10.2639 16.7479 9.73622 16.7479 9.41079 16.4225C9.08535 16.0971 9.08535 15.5694 9.41079 15.244L13.8215 10.8333H4.16671C3.70647 10.8333 3.33337 10.4602 3.33337 9.99992C3.33337 9.53968 3.70647 9.16659 4.16671 9.16659H13.8215L9.41079 4.75584C9.08535 4.4304 9.08535 3.90277 9.41079 3.57733Z"
			fill="#285BF3" />
	</symbol>

	<symbol id="external-ico" xmlns="http://www.w3.org/2000/svg" viewBox="0 0 20 20">
		<path fill-rule="evenodd" clip-rule="evenodd"
			d="M11.6667 2.50001C11.6667 2.03977 12.0398 1.66667 12.5 1.66667H17.5C17.9602 1.66667 18.3333 2.03977 18.3333 2.50001L18.3333 7.5C18.3333 7.96024 17.9602 8.33334 17.5 8.33334C17.0398 8.33334 16.6667 7.96024 16.6667 7.50001L16.6667 4.51185L11.4226 9.75593C11.0972 10.0814 10.5695 10.0814 10.2441 9.75593C9.91865 9.43049 9.91865 8.90285 10.2441 8.57742L15.4882 3.33334H12.5C12.0398 3.33334 11.6667 2.96024 11.6667 2.50001ZM6.46559 3.33334L8.33334 3.33334C8.79358 3.33334 9.16667 3.70643 9.16667 4.16667C9.16667 4.62691 8.79358 5.00001 8.33334 5.00001H6.50001C5.78619 5.00001 5.30095 5.00065 4.92587 5.0313C4.56052 5.06115 4.37369 5.11525 4.24336 5.18166C3.92975 5.34145 3.67478 5.59642 3.51499 5.91002C3.44859 6.04035 3.39448 6.22719 3.36463 6.59254C3.33399 6.96761 3.33334 7.45286 3.33334 8.16667V13.5C3.33334 14.2138 3.33399 14.6991 3.36463 15.0741C3.39448 15.4395 3.44859 15.6263 3.51499 15.7567C3.67478 16.0703 3.92975 16.3252 4.24335 16.485C4.37369 16.5514 4.56052 16.6055 4.92587 16.6354C5.30095 16.666 5.78619 16.6667 6.50001 16.6667H11.8333C12.5472 16.6667 13.0324 16.666 13.4075 16.6354C13.7728 16.6055 13.9597 16.5514 14.09 16.485C14.4036 16.3252 14.6586 16.0703 14.8183 15.7567C14.8848 15.6263 14.9389 15.4395 14.9687 15.0741C14.9994 14.6991 15 14.2138 15 13.5V11.6667C15 11.2064 15.3731 10.8333 15.8333 10.8333C16.2936 10.8333 16.6667 11.2064 16.6667 11.6667V13.5344C16.6667 14.2052 16.6667 14.7589 16.6298 15.2099C16.5916 15.6783 16.5094 16.1089 16.3034 16.5133C15.9838 17.1405 15.4738 17.6504 14.8466 17.97C14.4422 18.1761 14.0116 18.2582 13.5432 18.2965C13.0922 18.3334 12.5386 18.3334 11.8678 18.3333H6.46557C5.79477 18.3334 5.24114 18.3334 4.79015 18.2965C4.32174 18.2582 3.89115 18.1761 3.4867 17.97C2.8595 17.6504 2.34956 17.1405 2.02998 16.5133C1.82391 16.1089 1.74177 15.6783 1.7035 15.2099C1.66665 14.7589 1.66666 14.2052 1.66667 13.5344V8.13226C1.66666 7.46145 1.66665 6.90781 1.7035 6.45682C1.74177 5.9884 1.82391 5.55782 2.02998 5.15337C2.34956 4.52616 2.8595 4.01623 3.4867 3.69665C3.89115 3.49057 4.32174 3.40844 4.79015 3.37017C5.24115 3.33332 5.79478 3.33333 6.46559 3.33334Z">
		</path>
	</symbol>

	<symbol id="chevron-ico" xmlns="http://www.w3.org/2000/svg" viewBox="0 0 20 20">
		<path fill-rule="evenodd" clip-rule="evenodd"
			d="M4.41058 6.91083C4.73602 6.58539 5.26366 6.58539 5.58909 6.91083L9.99984 11.3216L14.4106 6.91083C14.736 6.58539 15.2637 6.58539 15.5891 6.91083C15.9145 7.23626 15.9145 7.7639 15.5891 8.08934L10.5891 13.0893C10.2637 13.4148 9.73602 13.4148 9.41058 13.0893L4.41058 8.08934C4.08514 7.7639 4.08514 7.23626 4.41058 6.91083Z" />
	</symbol>

	<symbol id="check-ico" xmlns="http://www.w3.org/2000/svg" viewBox="0 0 20 20" fill="none">
		<path fill-rule="evenodd" clip-rule="evenodd"
			d="M17.2559 4.41083C17.5814 4.73626 17.5814 5.2639 17.2559 5.58934L8.08926 14.756C7.76382 15.0814 7.23618 15.0814 6.91074 14.756L2.74408 10.5893C2.41864 10.2639 2.41864 9.73626 2.74408 9.41083C3.06951 9.08539 3.59715 9.08539 3.92259 9.41083L7.5 12.9882L16.0774 4.41083C16.4028 4.08539 16.9305 4.08539 17.2559 4.41083Z"
			fill="#285BF3" />
	</symbol>

	<symbol id="eye-ico" xmlns="http://www.w3.org/2000/svg" width="16" height="16" viewBox="0 0 16 16" fill="none">
		<path fill-rule="evenodd" clip-rule="evenodd"
			d="M4.23916 5.49511C3.23497 6.33322 2.53223 7.31809 2.17712 7.88037C2.15356 7.91768 2.13708 7.94381 2.12331 7.96649C2.11422 7.98145 2.10822 7.99181 2.10421 7.99903C2.10421 7.9993 2.10421 7.99957 2.10421 7.99984C2.10421 8.00011 2.10421 8.00038 2.10421 8.00065C2.10822 8.00786 2.11422 8.01822 2.12331 8.03318C2.13708 8.05586 2.15356 8.082 2.17712 8.11931C2.53223 8.68159 3.23497 9.66646 4.23916 10.5046C5.24179 11.3414 6.50476 11.9998 8.00031 11.9998C9.49586 11.9998 10.7588 11.3414 11.7615 10.5046C12.7657 9.66646 13.4684 8.68159 13.8235 8.11931C13.8471 8.082 13.8635 8.05586 13.8773 8.03318C13.8864 8.01822 13.8924 8.00786 13.8964 8.00064C13.8964 8.00038 13.8964 8.00011 13.8964 7.99984C13.8964 7.99957 13.8964 7.9993 13.8964 7.99903C13.8924 7.99181 13.8864 7.98146 13.8773 7.96649C13.8635 7.94381 13.8471 7.91768 13.8235 7.88037C13.4684 7.31809 12.7657 6.33322 11.7615 5.49511C10.7588 4.6583 9.49586 3.99984 8.00031 3.99984C6.50476 3.99984 5.24179 4.6583 4.23916 5.49511ZM3.38481 4.47146C4.53721 3.50965 6.09253 2.6665 8.00031 2.6665C9.90809 2.6665 11.4634 3.50965 12.6158 4.47146C13.7666 5.43196 14.5557 6.54269 14.9508 7.1684C14.9561 7.17667 14.9614 7.18511 14.9669 7.19373C15.0453 7.31715 15.1471 7.47741 15.1986 7.70195C15.2401 7.88325 15.2401 8.11642 15.1986 8.29772C15.1471 8.52227 15.0453 8.68252 14.9669 8.80595C14.9614 8.81457 14.9561 8.823 14.9508 8.83127C14.5557 9.45698 13.7666 10.5677 12.6158 11.5282C11.4634 12.49 9.90809 13.3332 8.00031 13.3332C6.09253 13.3332 4.53721 12.49 3.38481 11.5282C2.23397 10.5677 1.44495 9.45698 1.04979 8.83127C1.04457 8.823 1.03921 8.81457 1.03373 8.80595C0.955318 8.68252 0.853509 8.52227 0.802041 8.29772C0.760485 8.11642 0.760485 7.88325 0.802041 7.70195C0.853509 7.47741 0.955319 7.31715 1.03373 7.19372C1.03921 7.18511 1.04457 7.17667 1.04979 7.1684C1.44495 6.54269 2.23397 5.43196 3.38481 4.47146ZM8.00031 6.6665C7.26393 6.6665 6.66698 7.26346 6.66698 7.99984C6.66698 8.73622 7.26393 9.33317 8.00031 9.33317C8.73669 9.33317 9.33364 8.73622 9.33364 7.99984C9.33364 7.26346 8.73669 6.6665 8.00031 6.6665ZM5.33364 7.99984C5.33364 6.52708 6.52755 5.33317 8.00031 5.33317C9.47307 5.33317 10.667 6.52708 10.667 7.99984C10.667 9.4726 9.47307 10.6665 8.00031 10.6665C6.52755 10.6665 5.33364 9.4726 5.33364 7.99984Z"
			fill="#E1E4EA" />
	</symbol>

	<symbol id="vk-ico" xmlns="http://www.w3.org/2000/svg" width="24" height="24" viewBox="0 0 24 24">
		<path
			d="M4.92764 5.53333H1.21844C1.39443 13.9805 5.61804 19.057 13.0229 19.057H13.4425V14.2242C16.1635 14.495 18.2212 16.4849 19.0469 19.057H22.8915C21.8356 15.2124 19.0605 13.0871 17.3277 12.2749C19.0605 11.2731 21.4972 8.8364 22.0793 5.53333H18.5867C17.8286 8.21369 15.5814 10.6504 13.4425 10.8805V5.53333H9.94994V14.9011C7.78399 14.3596 5.04947 11.7334 4.92764 5.53333Z" />
	</symbol>

	<symbol id="ok-ico" xmlns="http://www.w3.org/2000/svg" width="24" height="24" viewBox="0 0 24 24">
		<path
			d="M12.0003 1.72864C14.7765 1.72864 17.0336 4.10682 17.0336 7.03052C17.0336 9.95399 14.7765 12.3308 12.0003 12.3308C9.2241 12.3308 6.96554 9.95399 6.96554 7.03052C6.96554 4.10682 9.22408 1.72864 12.0003 1.72864ZM11.9468 4.8349C10.8223 4.86505 9.91562 5.83931 9.91562 7.03054C9.91562 8.24017 10.8511 9.22456 12.0003 9.22456C13.1493 9.22456 14.0835 8.24017 14.0835 7.03054C14.0835 5.82043 13.1493 4.8349 12.0003 4.8349C11.9824 4.8349 11.9647 4.83441 11.9468 4.8349ZM7.83243 12.5112C8.09908 12.5121 8.3681 12.5894 8.61067 12.7503C10.6711 14.1149 13.3273 14.1158 15.3884 12.7503C16.0785 12.2926 16.9881 12.5123 17.4227 13.239C17.8568 13.9645 17.6482 14.9238 16.9586 15.3807C16.0595 15.9759 15.0715 16.4068 14.0361 16.6553L16.8509 19.6198C17.4271 20.2255 17.4271 21.2097 16.8509 21.8163C16.2743 22.423 15.3416 22.423 14.7661 21.8163L11.9988 18.9032L9.23448 21.8163C8.94662 22.1196 8.56891 22.2712 8.19175 22.2712C7.81418 22.2712 7.43775 22.1192 7.14901 21.8163C6.57289 21.2094 6.57306 20.2267 7.14901 19.6198L9.96225 16.6553C8.93779 16.4093 7.94929 15.9822 7.03893 15.3807C6.35069 14.9238 6.14374 13.9656 6.57795 13.239C6.84856 12.7849 7.30572 12.5283 7.77893 12.512C7.79677 12.5114 7.81459 12.5111 7.83243 12.5112Z" />
	</symbol>

	<symbol id="telegram-ico" xmlns="http://www.w3.org/2000/svg" width="24" height="24" viewBox="0 0 24 24">
		<path fill-rule="evenodd" clip-rule="evenodd"
			d="M19.4215 3.71744C19.6686 3.61343 19.9391 3.57756 20.2048 3.61356C20.4705 3.64956 20.7216 3.75611 20.9322 3.92213C21.1427 4.08814 21.3049 4.30755 21.4019 4.55752C21.4988 4.80749 21.527 5.07888 21.4835 5.34344L19.2155 19.1004C18.9955 20.4274 17.5395 21.1884 16.3225 20.5274C15.3045 19.9744 13.7925 19.1224 12.4325 18.2334C11.7525 17.7884 9.66949 16.3634 9.92549 15.3494C10.1455 14.4824 13.6455 11.2244 15.6455 9.28744C16.4305 8.52644 16.0725 8.08744 15.1455 8.78744C12.8425 10.5254 9.14749 13.1684 7.92549 13.9124C6.84749 14.5684 6.28549 14.6804 5.61349 14.5684C4.38749 14.3644 3.25049 14.0484 2.32249 13.6634C1.06849 13.1434 1.12949 11.4194 2.32149 10.9174L19.4215 3.71744Z" />
	</symbol>

	<symbol id="link-ico" xmlns="http://www.w3.org/2000/svg" width="24" height="24" viewBox="0 0 24 24">
		<path fill-rule="evenodd" clip-rule="evenodd"
			d="M12.0005 3.51468C14.3436 1.17154 18.1426 1.17154 20.4857 3.51468C22.8289 5.85783 22.8289 9.65682 20.4857 12L19.0715 13.4142C18.681 13.8047 18.0478 13.8047 17.6573 13.4142C17.2668 13.0237 17.2668 12.3905 17.6573 12L19.0715 10.5858C20.6336 9.02365 20.6336 6.49099 19.0715 4.9289C17.5094 3.3668 14.9768 3.3668 13.4147 4.9289L12.0005 6.34311C11.6099 6.73363 10.9768 6.73363 10.5862 6.34311C10.1957 5.95259 10.1957 5.31942 10.5862 4.9289L12.0005 3.51468ZM16.2076 7.79284C16.5981 8.18336 16.5981 8.81653 16.2076 9.20705L9.20756 16.207C8.81704 16.5976 8.18387 16.5976 7.79335 16.207C7.40282 15.8165 7.40282 15.1834 7.79335 14.7928L14.7933 7.79284C15.1839 7.40231 15.817 7.40231 16.2076 7.79284ZM6.3436 10.5858C6.73412 10.9763 6.73412 11.6094 6.3436 12L4.92939 13.4142C3.36729 14.9763 3.36729 17.5089 4.92939 19.071C6.49148 20.6331 9.02414 20.6331 10.5862 19.071L12.0005 17.6568C12.391 17.2663 13.0241 17.2663 13.4147 17.6568C13.8052 18.0473 13.8052 18.6805 13.4147 19.071L12.0005 20.4852C9.65731 22.8284 5.85832 22.8284 3.51517 20.4852C1.17203 18.1421 1.17203 14.3431 3.51517 12L4.92939 10.5858C5.31991 10.1952 5.95307 10.1952 6.3436 10.5858Z" />
	</symbol>

	<symbol id="vk-ico-white" xmlns="http://www.w3.org/2000/svg" viewBox="0 0 20 20">
		<path
			d="M8.11675 1.00225L8.6635 1H11.3365L11.884 1.00225L12.5695 1.00975L12.8942 1.015L13.2078 1.02325L13.51 1.03375L13.801 1.04575L14.0815 1.0615L14.3515 1.08025L14.6102 1.10275L14.86 1.12751C16.165 1.27451 17.0597 1.58952 17.7347 2.26455C18.4097 2.93958 18.7248 3.83362 18.8717 5.13942L18.8973 5.38918L18.919 5.64869L18.9377 5.9187L18.9528 6.19847L18.9715 6.63948L18.9805 6.947L18.9902 7.43002L18.997 8.1163L19 8.85133L18.9993 11.3362L18.997 11.8837L18.9895 12.5692L18.9842 12.894L18.976 13.2075L18.9655 13.5098L18.9535 13.8008L18.9377 14.0813L18.919 14.3513L18.8965 14.6101L18.8717 14.8598C18.7248 16.1649 18.4097 17.0597 17.7347 17.7347C17.0597 18.4097 16.1657 18.7247 14.86 18.8717L14.6102 18.8972L14.3507 18.919L14.0807 18.9377L13.801 18.9527L13.36 18.9715L13.0525 18.9805L12.5695 18.9902L11.8832 18.997L11.1483 19L8.6635 18.9993L8.116 18.997L7.4305 18.9895L7.10575 18.9842L6.79225 18.976L6.49 18.9655L6.199 18.9535L5.9185 18.9377L5.6485 18.919L5.38975 18.8965L5.14 18.8717C3.835 18.7247 2.94025 18.4097 2.26525 17.7347C1.59025 17.0597 1.27525 16.1656 1.12825 14.8598L1.10275 14.6101L1.081 14.3506L1.06225 14.0805L1.04725 13.8008L1.0285 13.3598L1.0195 13.0523L1.00975 12.5692L1.003 11.883L1 11.1479L1.00075 8.66307L1.003 8.11555L1.0105 7.43002L1.01575 7.10525L1.024 6.79174L1.0345 6.48948L1.0465 6.19847L1.06225 5.91795L1.081 5.64794L1.1035 5.38918L1.12825 5.13942C1.27525 3.83437 1.59025 2.93958 2.26525 2.26455C2.94025 1.58952 3.83425 1.27451 5.14 1.12751L5.38975 1.102L5.64925 1.08025L5.91925 1.0615L6.199 1.0465L6.64 1.02775L6.9475 1.01875L7.4305 1.009L8.11675 1.00225ZM6.0925 6.47448H4.0375C4.135 11.1547 6.475 13.9673 10.5775 13.9673H10.81V11.2897C12.3175 11.4397 13.4575 12.5422 13.915 13.9673H16.045C15.46 11.8372 13.9225 10.6597 12.9625 10.2096C13.9225 9.65461 15.2725 8.30455 15.595 6.47448H13.66C13.24 7.95954 11.995 9.3096 10.81 9.4371V6.47448H8.875V11.6647C7.675 11.3647 6.16 9.90962 6.0925 6.47448Z"
			fill="white" />
	</symbol>

	<symbol id="youtube-ico-white" xmlns="http://www.w3.org/2000/svg" viewBox="0 0 20 20">
		<path
			d="M10.2033 3.33337C10.6483 3.33587 11.7617 3.34671 12.945 3.39421L13.365 3.41254C14.5558 3.46837 15.7458 3.56504 16.3367 3.72921C17.1242 3.95087 17.7425 4.59587 17.9517 5.41421C18.285 6.71421 18.3267 9.24921 18.3317 9.86337L18.3325 9.99004V10.135C18.3267 10.7492 18.285 13.285 17.9517 14.5842C17.74 15.405 17.1208 16.0509 16.3367 16.2692C15.7458 16.4334 14.5558 16.53 13.365 16.5859L12.945 16.605C11.7617 16.6517 10.6483 16.6634 10.2033 16.665L10.0075 16.6659H9.79499C8.85332 16.66 4.91499 16.6175 3.66166 16.2692C2.87499 16.0475 2.25582 15.4025 2.04666 14.5842C1.71332 13.2842 1.67166 10.7492 1.66666 10.135V9.86337C1.67166 9.24921 1.71332 6.71337 2.04666 5.41421C2.25832 4.59337 2.87749 3.94754 3.66249 3.73004C4.91499 3.38087 8.85416 3.33837 9.79582 3.33337H10.2033ZM8.33249 7.08337V12.9167L13.3325 10L8.33249 7.08337Z"
			fill="white" />
	</symbol>

	<symbol id="location-ico" xmlns="http://www.w3.org/2000/svg" viewBox="0 0 16 16">
		<path fill-rule="evenodd" clip-rule="evenodd"
			d="M8 2.00008C5.42267 2.00008 3.33333 4.08942 3.33333 6.66675C3.33333 7.92815 3.90211 9.11878 4.86152 10.3645C5.67161 11.4164 6.70849 12.4449 7.82152 13.5489C7.8808 13.6077 7.9403 13.6668 8 13.726C8.0597 13.6668 8.1192 13.6077 8.17848 13.5489C9.29151 12.4449 10.3284 11.4164 11.1385 10.3645C12.0979 9.11878 12.6667 7.92815 12.6667 6.66675C12.6667 4.08942 10.5773 2.00008 8 2.00008ZM2 6.66675C2 3.35304 4.68629 0.666748 8 0.666748C11.3137 0.666748 14 3.35304 14 6.66675C14 8.35087 13.2354 9.8269 12.1949 11.1781C11.3253 12.3072 10.2124 13.4105 9.10055 14.5126C8.89024 14.7211 8.67998 14.9296 8.4714 15.1382C8.21106 15.3985 7.78895 15.3985 7.5286 15.1382C7.32002 14.9296 7.10976 14.7211 6.89945 14.5126C5.78765 13.4105 4.6747 12.3072 3.80515 11.1781C2.76455 9.8269 2 8.35087 2 6.66675ZM8 5.33341C7.26362 5.33341 6.66667 5.93037 6.66667 6.66675C6.66667 7.40313 7.26362 8.00008 8 8.00008C8.73638 8.00008 9.33333 7.40313 9.33333 6.66675C9.33333 5.93037 8.73638 5.33341 8 5.33341ZM5.33333 6.66675C5.33333 5.19399 6.52724 4.00008 8 4.00008C9.47276 4.00008 10.6667 5.19399 10.6667 6.66675C10.6667 8.13951 9.47276 9.33341 8 9.33341C6.52724 9.33341 5.33333 8.13951 5.33333 6.66675Z" />
	</symbol>

	<symbol id="clock-ico" xmlns="http://www.w3.org/2000/svg" viewBox="0 0 16 16">
		<g clip-path="url(#clip0_311_56059)">
			<path fill-rule="evenodd" clip-rule="evenodd"
				d="M8.00008 2.00008C4.68637 2.00008 2.00008 4.68637 2.00008 8.00008C2.00008 11.3138 4.68637 14.0001 8.00008 14.0001C11.3138 14.0001 14.0001 11.3138 14.0001 8.00008C14.0001 4.68637 11.3138 2.00008 8.00008 2.00008ZM0.666748 8.00008C0.666748 3.94999 3.94999 0.666748 8.00008 0.666748C12.0502 0.666748 15.3334 3.94999 15.3334 8.00008C15.3334 12.0502 12.0502 15.3334 8.00008 15.3334C3.94999 15.3334 0.666748 12.0502 0.666748 8.00008ZM8.00008 3.33341C8.36827 3.33341 8.66675 3.63189 8.66675 4.00008V7.58806L10.9649 8.73713C11.2942 8.90179 11.4277 9.30224 11.263 9.63156C11.0984 9.96088 10.6979 10.0944 10.3686 9.9297L7.70194 8.59637C7.47608 8.48344 7.33341 8.2526 7.33341 8.00008V4.00008C7.33341 3.63189 7.63189 3.33341 8.00008 3.33341Z" />
		</g>
		<defs>
			<clipPath id="clip0_311_56059">
				<rect width="16" height="16" fill="white" />
			</clipPath>
		</defs>
	</symbol>

	<symbol id="tel-ico" xmlns="http://www.w3.org/2000/svg" viewBox="0 0 16 16">
		<path
			d="M5.58685 5.90223C6.05085 6.86865 6.68337 7.77441 7.48443 8.57546C8.28548 9.37651 9.19124 10.009 10.1577 10.473C10.2408 10.5129 10.2823 10.5329 10.3349 10.5482C10.5218 10.6027 10.7513 10.5636 10.9096 10.4502C10.9542 10.4183 10.9923 10.3802 11.0685 10.304C11.3016 10.071 11.4181 9.95443 11.5353 9.87824C11.9772 9.59091 12.5469 9.59091 12.9889 9.87824C13.106 9.95443 13.2226 10.071 13.4556 10.304L13.5856 10.4339C13.9398 10.7882 14.117 10.9654 14.2132 11.1556C14.4046 11.534 14.4046 11.9809 14.2132 12.3592C14.117 12.5495 13.9398 12.7266 13.5856 13.0809L13.4805 13.186C13.1274 13.5391 12.9508 13.7156 12.7108 13.8505C12.4445 14.0001 12.0308 14.1077 11.7253 14.1068C11.45 14.1059 11.2619 14.0525 10.8856 13.9457C8.86333 13.3717 6.95509 12.2888 5.36311 10.6968C3.77112 9.10479 2.68814 7.19655 2.11416 5.17429C2.00735 4.79799 1.95395 4.60984 1.95313 4.33455C1.95222 4.02906 2.0598 3.6154 2.20941 3.34907C2.34424 3.10904 2.52078 2.9325 2.87386 2.57942L2.97895 2.47433C3.33325 2.12004 3.5104 1.94289 3.70065 1.84666C4.07903 1.65528 4.52587 1.65528 4.90424 1.84666C5.0945 1.94289 5.27164 2.12004 5.62594 2.47433L5.75585 2.60424C5.98892 2.83732 6.10546 2.95385 6.18165 3.07104C6.46898 3.51296 6.46898 4.08268 6.18165 4.52461C6.10546 4.6418 5.98892 4.75833 5.75585 4.9914C5.67964 5.06761 5.64154 5.10571 5.60965 5.15026C5.4963 5.30854 5.45717 5.53805 5.51165 5.72495C5.52698 5.77754 5.54694 5.81911 5.58685 5.90223Z" />
	</symbol>

	<symbol id="email-ico" xmlns="http://www.w3.org/2000/svg" viewBox="0 0 16 16">
		<path fill-rule="evenodd" clip-rule="evenodd"
			d="M4.50569 2H11.4941C12.0307 1.99999 12.4736 1.99998 12.8344 2.02946C13.2092 2.06008 13.5536 2.12579 13.8772 2.29065C14.379 2.54631 14.7869 2.95426 15.0426 3.45603C15.2017 3.76826 15.2684 4.09996 15.3004 4.45954C15.3361 4.56847 15.3423 4.68337 15.3211 4.79306C15.3332 5.09314 15.3332 5.44024 15.3332 5.83912V10.1609C15.3332 10.6975 15.3332 11.1404 15.3038 11.5012C15.2731 11.8759 15.2074 12.2204 15.0426 12.544C14.7869 13.0457 14.379 13.4537 13.8772 13.7094C13.5536 13.8742 13.2092 13.9399 12.8344 13.9705C12.4737 14 12.0307 14 11.4941 14H4.50568C3.96904 14 3.52614 14 3.16534 13.9705C2.79061 13.9399 2.44614 13.8742 2.12259 13.7094C1.62082 13.4537 1.21287 13.0457 0.95721 12.544C0.79235 12.2204 0.72664 11.8759 0.696024 11.5012C0.666545 11.1404 0.666552 10.6975 0.666561 10.1609V5.83913C0.666554 5.44025 0.666549 5.09315 0.678652 4.79306C0.657481 4.68337 0.66373 4.56846 0.699372 4.45953C0.731364 4.09995 0.798122 3.76825 0.95721 3.45603C1.21287 2.95426 1.62082 2.54631 2.12259 2.29065C2.44614 2.12579 2.79061 2.06008 3.16534 2.02946C3.52614 1.99998 3.96905 1.99999 4.50569 2ZM1.99989 5.9471V10.1333C1.99989 10.3888 2 10.6077 2.00231 10.7984L5.02721 8.06623L1.99989 5.9471ZM6.46554 7.44552L2.05507 4.35819C2.07889 4.22008 2.10988 4.13071 2.14522 4.06135C2.27305 3.81046 2.47702 3.60649 2.72791 3.47866C2.83217 3.42553 2.98164 3.38225 3.27392 3.35837C3.57398 3.33385 3.96217 3.33333 4.53323 3.33333H11.4666C12.0376 3.33333 12.4258 3.33385 12.7259 3.35837C13.0181 3.38225 13.1676 3.42553 13.2719 3.47866C13.5228 3.60649 13.7267 3.81046 13.8546 4.06135C13.8899 4.13071 13.9209 4.22008 13.9447 4.35819L9.53427 7.4455C9.52656 7.45066 9.51893 7.456 9.5114 7.46151L8.84097 7.93081C8.35501 8.27098 8.25206 8.33 8.16114 8.35267C8.05526 8.37906 7.94453 8.37906 7.83865 8.35267C7.74773 8.33 7.64477 8.27098 7.15881 7.93081L6.48837 7.46149C6.48085 7.45599 6.47324 7.45067 6.46554 7.44552ZM6.14789 8.8507L2.37398 12.2594C2.476 12.3651 2.59541 12.4538 2.72791 12.5213C2.83217 12.5745 2.98164 12.6178 3.27392 12.6416C3.57398 12.6661 3.96217 12.6667 4.53323 12.6667H11.4666C12.0376 12.6667 12.4258 12.6661 12.7259 12.6416C13.0181 12.6178 13.1676 12.5745 13.2719 12.5213C13.4044 12.4538 13.5238 12.3651 13.6258 12.2594L9.8519 8.8507L9.60559 9.02312C9.57972 9.04123 9.5541 9.05922 9.5287 9.07705C9.16559 9.33202 8.84676 9.5559 8.48363 9.64641C8.166 9.72559 7.83379 9.72559 7.51616 9.64641C7.15303 9.5559 6.8342 9.33202 6.4711 9.07706C6.44569 9.05922 6.42007 9.04123 6.3942 9.02312L6.14789 8.8507ZM10.9726 8.06623L13.9975 10.7984C13.9998 10.6077 13.9999 10.3888 13.9999 10.1333V5.9471L10.9726 8.06623Z" />
	</symbol>

	<symbol id="message-ico" xmlns="http://www.w3.org/2000/svg" viewBox="0 0 20 20">
		<path fill-rule="evenodd" clip-rule="evenodd"
			d="M9.99996 18.3334C14.6023 18.3334 18.3333 14.6025 18.3333 10.0001C18.3333 5.39771 14.6023 1.66675 9.99996 1.66675C5.39759 1.66675 1.66663 5.39771 1.66663 10.0001C1.66663 11.1085 1.88305 12.1665 2.27594 13.1339C2.35113 13.319 2.38874 13.4116 2.40551 13.4865C2.42192 13.5597 2.42792 13.6138 2.42793 13.6888C2.42794 13.7655 2.41402 13.8491 2.38617 14.0161L1.83711 17.3105C1.77962 17.6555 1.75087 17.828 1.80437 17.9527C1.85119 18.0619 1.93818 18.1489 2.04735 18.1957C2.17208 18.2492 2.34457 18.2204 2.68955 18.1629L5.98389 17.6139C6.15097 17.586 6.2345 17.5721 6.31119 17.5721C6.38621 17.5721 6.44039 17.5781 6.51359 17.5945C6.58842 17.6113 6.681 17.6489 6.86615 17.7241C7.83357 18.117 8.89149 18.3334 9.99996 18.3334ZM6.92138 10C6.92138 10.6679 6.37993 11.2094 5.71202 11.2094C5.04412 11.2094 4.50267 10.6679 4.50267 10C4.50267 9.33213 5.04412 8.79068 5.71202 8.79068C6.37993 8.79068 6.92138 9.33213 6.92138 10ZM11.2093 10C11.2093 10.6679 10.6679 11.2094 9.99996 11.2094C9.33205 11.2094 8.79061 10.6679 8.79061 10C8.79061 9.33213 9.33205 8.79068 9.99996 8.79068C10.6679 8.79068 11.2093 9.33213 11.2093 10ZM14.2879 11.2094C14.9558 11.2094 15.4972 10.6679 15.4972 10C15.4972 9.33213 14.9558 8.79068 14.2879 8.79068C13.62 8.79068 13.0785 9.33213 13.0785 10C13.0785 10.6679 13.62 11.2094 14.2879 11.2094Z" />
	</symbol>

	<symbol id="whatsapp-ico" xmlns="http://www.w3.org/2000/svg" viewBox="0 0 20 20">
		<path
			d="M1.66997 18.3334L2.79664 14.1934C2.05425 12.9208 1.66422 11.4734 1.66664 10.0001C1.66664 5.39758 5.39747 1.66675 9.99997 1.66675C14.6025 1.66675 18.3333 5.39758 18.3333 10.0001C18.3333 14.6026 14.6025 18.3334 9.99997 18.3334C8.52729 18.3358 7.08052 17.9461 5.8083 17.2042L1.66997 18.3334ZM6.99247 6.09008C6.88486 6.09676 6.7797 6.12511 6.6833 6.17341C6.59291 6.22461 6.51038 6.2886 6.4383 6.36341C6.3383 6.45758 6.28164 6.53925 6.2208 6.61841C5.91281 7.01924 5.74715 7.51126 5.74997 8.01675C5.75164 8.42508 5.8583 8.82258 6.02497 9.19425C6.3658 9.94591 6.92664 10.7417 7.66747 11.4792C7.8458 11.6567 8.01997 11.8351 8.20747 12.0009C9.12696 12.8105 10.2227 13.3943 11.4075 13.7059L11.8816 13.7784C12.0358 13.7867 12.19 13.7751 12.345 13.7676C12.5877 13.7551 12.8246 13.6893 13.0391 13.5751C13.1483 13.5189 13.2548 13.4577 13.3583 13.3917C13.3583 13.3917 13.3941 13.3684 13.4625 13.3167C13.575 13.2334 13.6441 13.1742 13.7375 13.0767C13.8066 13.0051 13.8666 12.9209 13.9125 12.8251C13.9775 12.6892 14.0425 12.4301 14.0691 12.2142C14.0891 12.0492 14.0833 11.9592 14.0808 11.9034C14.0775 11.8142 14.0033 11.7217 13.9225 11.6826L13.4375 11.4651C13.4375 11.4651 12.7125 11.1492 12.27 10.9476C12.2233 10.9272 12.1733 10.9157 12.1225 10.9134C12.0655 10.9076 12.0078 10.914 11.9535 10.9322C11.8992 10.9505 11.8494 10.9802 11.8075 11.0192V11.0176C11.8033 11.0176 11.7475 11.0651 11.145 11.7951C11.1104 11.8415 11.0628 11.8767 11.0081 11.896C10.9535 11.9153 10.8944 11.9178 10.8383 11.9034C10.784 11.8889 10.7308 11.8705 10.6791 11.8484C10.5758 11.8051 10.54 11.7884 10.4691 11.7576L10.465 11.7559C9.98823 11.5478 9.54682 11.2666 9.15664 10.9226C9.05164 10.8309 8.95414 10.7309 8.85414 10.6342C8.52629 10.3203 8.24057 9.96509 8.00414 9.57758L7.95497 9.49841C7.91966 9.44522 7.8911 9.38783 7.86997 9.32758C7.8383 9.20508 7.9208 9.10675 7.9208 9.10675C7.9208 9.10675 8.1233 8.88508 8.21747 8.76508C8.29588 8.66535 8.36903 8.5616 8.43664 8.45425C8.53497 8.29592 8.5658 8.13341 8.51414 8.00758C8.2808 7.43758 8.03914 6.87008 7.7908 6.30675C7.74164 6.19508 7.5958 6.11508 7.4633 6.09925C7.4183 6.09425 7.3733 6.08925 7.3283 6.08591C7.21639 6.08035 7.10425 6.0823 6.99247 6.09008Z" />
	</symbol>

	<symbol id="vk-ico2" xmlns="http://www.w3.org/2000/svg" viewBox="0 0 20 20">
		<path
			d="M8.11675 1.00225L8.6635 1H11.3365L11.884 1.00225L12.5695 1.00975L12.8942 1.015L13.2078 1.02325L13.51 1.03375L13.801 1.04575L14.0815 1.0615L14.3515 1.08025L14.6102 1.10275L14.86 1.12751C16.165 1.27451 17.0597 1.58952 17.7347 2.26455C18.4097 2.93958 18.7248 3.83362 18.8717 5.13942L18.8973 5.38918L18.919 5.64869L18.9377 5.9187L18.9528 6.19847L18.9715 6.63948L18.9805 6.947L18.9902 7.43002L18.997 8.1163L19 8.85133L18.9993 11.3362L18.997 11.8837L18.9895 12.5692L18.9842 12.894L18.976 13.2075L18.9655 13.5098L18.9535 13.8008L18.9377 14.0813L18.919 14.3513L18.8965 14.6101L18.8717 14.8598C18.7248 16.1649 18.4097 17.0597 17.7347 17.7347C17.0597 18.4097 16.1657 18.7247 14.86 18.8717L14.6102 18.8972L14.3507 18.919L14.0807 18.9377L13.801 18.9527L13.36 18.9715L13.0525 18.9805L12.5695 18.9902L11.8832 18.997L11.1483 19L8.6635 18.9993L8.116 18.997L7.4305 18.9895L7.10575 18.9842L6.79225 18.976L6.49 18.9655L6.199 18.9535L5.9185 18.9377L5.6485 18.919L5.38975 18.8965L5.14 18.8717C3.835 18.7247 2.94025 18.4097 2.26525 17.7347C1.59025 17.0597 1.27525 16.1656 1.12825 14.8598L1.10275 14.6101L1.081 14.3506L1.06225 14.0805L1.04725 13.8008L1.0285 13.3598L1.0195 13.0523L1.00975 12.5692L1.003 11.883L1 11.1479L1.00075 8.66307L1.003 8.11555L1.0105 7.43002L1.01575 7.10525L1.024 6.79174L1.0345 6.48948L1.0465 6.19847L1.06225 5.91795L1.081 5.64794L1.1035 5.38918L1.12825 5.13942C1.27525 3.83437 1.59025 2.93958 2.26525 2.26455C2.94025 1.58952 3.83425 1.27451 5.14 1.12751L5.38975 1.102L5.64925 1.08025L5.91925 1.0615L6.199 1.0465L6.64 1.02775L6.9475 1.01875L7.4305 1.009L8.11675 1.00225ZM6.0925 6.47448H4.0375C4.135 11.1547 6.475 13.9673 10.5775 13.9673H10.81V11.2897C12.3175 11.4397 13.4575 12.5422 13.915 13.9673H16.045C15.46 11.8372 13.9225 10.6597 12.9625 10.2096C13.9225 9.65461 15.2725 8.30455 15.595 6.47448H13.66C13.24 7.95954 11.995 9.3096 10.81 9.4371V6.47448H8.875V11.6647C7.675 11.3647 6.16 9.90962 6.0925 6.47448Z" />
	</symbol>

	<symbol id="shopping-ico" xmlns="http://www.w3.org/2000/svg" viewBox="0 0 16 16">
		<g clip-path="url(#clip0_1225_261)">
			<path fill-rule="evenodd" clip-rule="evenodd"
				d="M2.44775 0.67247C2.53665 0.679274 2.66053 0.696592 2.79323 0.757236C2.9677 0.836971 3.11556 0.965206 3.21916 1.12665C3.29796 1.24943 3.33263 1.36963 3.35194 1.45666C3.36833 1.53058 3.3803 1.61458 3.3901 1.68338C3.39076 1.68801 3.39141 1.69257 3.39205 1.69705L3.62582 3.33342L14.0398 3.33342C14.1345 3.33338 14.2438 3.33335 14.3386 3.34161C14.4452 3.35091 14.6054 3.37504 14.7674 3.46946C14.9721 3.58879 15.1279 3.77696 15.2068 4.00043C15.2692 4.17722 15.2629 4.33909 15.2521 4.44558C15.2425 4.54024 15.222 4.64758 15.2043 4.74063L14.3143 9.41301C14.2591 9.70257 14.2111 9.95494 14.1553 10.1624C14.0958 10.3833 14.0166 10.5986 13.8773 10.801C13.6669 11.1066 13.3756 11.3476 13.036 11.4972C12.8111 11.5962 12.5848 11.6337 12.3567 11.6508C12.1424 11.6668 11.8855 11.6668 11.5907 11.6668H5.83915C5.52924 11.6668 5.25985 11.6668 5.03594 11.6496C4.79805 11.6313 4.56192 11.591 4.32925 11.4841C3.97898 11.3232 3.68267 11.0645 3.47599 10.7391C3.33871 10.523 3.26696 10.2944 3.21678 10.0612C3.16955 9.84161 3.13325 9.57469 3.09148 9.2676L2.38734 4.09216L2.08847 2.00009H1.33333C0.965144 2.00009 0.666667 1.70161 0.666667 1.33342C0.666667 0.965232 0.965144 0.666755 1.33333 0.666755H2.20411C2.20864 0.666755 2.21324 0.666754 2.21792 0.666752C2.28741 0.666725 2.37226 0.666692 2.44775 0.67247ZM3.81113 4.66676L4.40946 9.06448C4.45533 9.40164 4.48513 9.61729 4.5203 9.78077C4.55371 9.9361 4.58239 9.99417 4.60147 10.0242C4.67037 10.1327 4.76913 10.2189 4.88589 10.2725C4.91823 10.2874 4.97963 10.308 5.13804 10.3202C5.30477 10.333 5.52248 10.3334 5.86274 10.3334H11.568C11.8921 10.3334 12.0987 10.333 12.2573 10.3211C12.4076 10.3099 12.4667 10.2909 12.4987 10.2769C12.6118 10.2271 12.7089 10.1467 12.7791 10.0448C12.7989 10.0161 12.8286 9.96156 12.8677 9.81606C12.909 9.66245 12.9481 9.45953 13.0088 9.14119L13.861 4.66676H3.81113ZM4.66667 14.0001C4.66667 13.2637 5.26362 12.6668 6 12.6668C6.73638 12.6668 7.33333 13.2637 7.33333 14.0001C7.33333 14.7365 6.73638 15.3334 6 15.3334C5.26362 15.3334 4.66667 14.7365 4.66667 14.0001ZM10 14.0001C10 13.2637 10.597 12.6668 11.3333 12.6668C12.0697 12.6668 12.6667 13.2637 12.6667 14.0001C12.6667 14.7365 12.0697 15.3334 11.3333 15.3334C10.597 15.3334 10 14.7365 10 14.0001Z"
				fill="white" />
		</g>
		<defs>
			<clipPath id="clip0_1225_261">
				<rect width="16" height="16" fill="white" />
			</clipPath>
		</defs>
	</symbol>

	<symbol id="notice-ico" xmlns="http://www.w3.org/2000/svg" viewBox="0 0 22 22">
		<path fill-rule="evenodd" clip-rule="evenodd"
			d="M11 2C6.02944 2 2 6.02944 2 11C2 15.9706 6.02944 20 11 20C15.9706 20 20 15.9706 20 11C20 6.02944 15.9706 2 11 2ZM0 11C0 4.92487 4.92487 0 11 0C17.0751 0 22 4.92487 22 11C22 17.0751 17.0751 22 11 22C4.92487 22 0 17.0751 0 11ZM11 6C11.5523 6 12 6.44772 12 7V11C12 11.5523 11.5523 12 11 12C10.4477 12 10 11.5523 10 11V7C10 6.44772 10.4477 6 11 6ZM10 15C10 14.4477 10.4477 14 11 14H11.01C11.5623 14 12.01 14.4477 12.01 15C12.01 15.5523 11.5623 16 11.01 16H11C10.4477 16 10 15.5523 10 15Z" />
	</symbol>

	<symbol id="dots-ico" xmlns="http://www.w3.org/2000/svg" viewBox="0 0 20 20">
		<path
			d="M10 10.8333C10.4603 10.8333 10.8334 10.4602 10.8334 9.99992C10.8334 9.53968 10.4603 9.16658 10 9.16658C9.53978 9.16658 9.16669 9.53968 9.16669 9.99992C9.16669 10.4602 9.53978 10.8333 10 10.8333Z" />
		<path
			d="M10 4.99992C10.4603 4.99992 10.8334 4.62682 10.8334 4.16659C10.8334 3.70635 10.4603 3.33325 10 3.33325C9.53978 3.33325 9.16669 3.70635 9.16669 4.16659C9.16669 4.62682 9.53978 4.99992 10 4.99992Z" />
		<path
			d="M10 16.6666C10.4603 16.6666 10.8334 16.2935 10.8334 15.8333C10.8334 15.373 10.4603 14.9999 10 14.9999C9.53978 14.9999 9.16669 15.373 9.16669 15.8333C9.16669 16.2935 9.53978 16.6666 10 16.6666Z" />
		<path
			d="M10 10.8333C10.4603 10.8333 10.8334 10.4602 10.8334 9.99992C10.8334 9.53968 10.4603 9.16658 10 9.16658C9.53978 9.16658 9.16669 9.53968 9.16669 9.99992C9.16669 10.4602 9.53978 10.8333 10 10.8333Z"
			stroke="#285BF3" stroke-width="2" stroke-linecap="round" stroke-linejoin="round" />
		<path
			d="M10 4.99992C10.4603 4.99992 10.8334 4.62682 10.8334 4.16659C10.8334 3.70635 10.4603 3.33325 10 3.33325C9.53978 3.33325 9.16669 3.70635 9.16669 4.16659C9.16669 4.62682 9.53978 4.99992 10 4.99992Z"
			stroke="#285BF3" stroke-width="2" stroke-linecap="round" stroke-linejoin="round" />
		<path
			d="M10 16.6666C10.4603 16.6666 10.8334 16.2935 10.8334 15.8333C10.8334 15.373 10.4603 14.9999 10 14.9999C9.53978 14.9999 9.16669 15.373 9.16669 15.8333C9.16669 16.2935 9.53978 16.6666 10 16.6666Z"
			stroke="#285BF3" stroke-width="2" stroke-linecap="round" stroke-linejoin="round" />
	</symbol>

	<symbol id="search-ico" xmlns="http://www.w3.org/2000/svg" viewBox="0 0 20 20">
		<path opacity="0.6" fill-rule="evenodd" clip-rule="evenodd"
			d="M9.58332 3.33317C6.13154 3.33317 3.33332 6.13139 3.33332 9.58317C3.33332 13.035 6.13154 15.8332 9.58332 15.8332C11.2609 15.8332 12.7841 15.1722 13.9068 14.0965C13.9327 14.0606 13.9618 14.0263 13.9942 13.9939C14.0265 13.9616 14.0608 13.9324 14.0968 13.9065C15.1724 12.7839 15.8333 11.2607 15.8333 9.58317C15.8333 6.13139 13.0351 3.33317 9.58332 3.33317ZM15.7396 14.5609C16.8405 13.201 17.5 11.4691 17.5 9.58317C17.5 5.21092 13.9556 1.6665 9.58332 1.6665C5.21107 1.6665 1.66666 5.21092 1.66666 9.58317C1.66666 13.9554 5.21107 17.4998 9.58332 17.4998C11.4693 17.4998 13.2012 16.8404 14.5611 15.7394L16.9107 18.0891C17.2362 18.4145 17.7638 18.4145 18.0892 18.0891C18.4147 17.7637 18.4147 17.236 18.0893 16.9106L15.7396 14.5609Z" />
	</symbol>

	<symbol id="clear-ico" xmlns="http://www.w3.org/2000/svg" viewBox="0 0 20 20">
		<g clip-path="url(#clip0_396_2019)">
			<path opacity="0.6" fill-rule="evenodd" clip-rule="evenodd"
				d="M9.99992 2.50016C5.85778 2.50016 2.49992 5.85803 2.49992 10.0002C2.49992 14.1423 5.85778 17.5002 9.99992 17.5002C14.1421 17.5002 17.4999 14.1423 17.4999 10.0002C17.4999 5.85803 14.1421 2.50016 9.99992 2.50016ZM0.833252 10.0002C0.833252 4.93755 4.93731 0.833496 9.99992 0.833496C15.0625 0.833496 19.1666 4.93755 19.1666 10.0002C19.1666 15.0628 15.0625 19.1668 9.99992 19.1668C4.93731 19.1668 0.833252 15.0628 0.833252 10.0002ZM6.91066 6.91091C7.2361 6.58547 7.76374 6.58547 8.08917 6.91091L9.99992 8.82165L11.9107 6.91091C12.2361 6.58547 12.7637 6.58547 13.0892 6.91091C13.4146 7.23634 13.4146 7.76398 13.0892 8.08942L11.1784 10.0002L13.0892 11.9109C13.4146 12.2363 13.4146 12.764 13.0892 13.0894C12.7637 13.4149 12.2361 13.4149 11.9107 13.0894L9.99992 11.1787L8.08917 13.0894C7.76374 13.4149 7.2361 13.4149 6.91066 13.0894C6.58523 12.764 6.58523 12.2363 6.91066 11.9109L8.82141 10.0002L6.91066 8.08942C6.58523 7.76398 6.58523 7.23634 6.91066 6.91091Z" />
		</g>
		<defs>
			<clipPath id="clip0_396_2019">
				<rect width="20" height="20" fill="white" />
			</clipPath>
		</defs>
	</symbol>

	<symbol id="loading-ico" xmlns="http://www.w3.org/2000/svg" viewBox="0 0 32 32">
		<path
			d="M13.1999 26.4501C12.9167 27.507 13.545 28.6099 14.6329 28.7267C16.8226 28.962 19.048 28.6292 21.0892 27.7447C23.7398 26.5962 25.924 24.5848 27.2866 22.0376C28.6492 19.4904 29.1101 16.5572 28.5944 13.7149C28.0787 10.8726 26.6167 8.28824 24.4461 6.38209C22.2756 4.47595 19.524 3.36007 16.6389 3.21589C13.7537 3.07172 10.9047 3.90771 8.55485 5.58796C6.20504 7.26821 4.49269 9.6939 3.69619 12.4707C3.08282 14.609 3.04036 16.8588 3.55648 18.9998C3.81292 20.0635 4.98773 20.544 5.9992 20.1266C7.01068 19.7092 7.4677 18.5493 7.28566 17.4704C7.06728 16.1761 7.13857 14.8408 7.50506 13.5632C8.05498 11.646 9.23725 9.97127 10.8596 8.81117C12.482 7.65107 14.4491 7.07387 16.4411 7.17342C18.4331 7.27296 20.3329 8.0434 21.8315 9.35946C23.3301 10.6755 24.3395 12.4598 24.6956 14.4223C25.0517 16.3847 24.7334 18.4099 23.7926 20.1686C22.8518 21.9272 21.3438 23.3159 19.5138 24.1089C18.2942 24.6374 16.9794 24.8806 15.6677 24.8312C14.5743 24.7901 13.4831 25.3932 13.1999 26.4501Z" />
	</symbol>

	<symbol id="text-arrow" xmlns="http://www.w3.org/2000/svg" viewBox="0 0 38 38" fill="none">
		<path fill-rule="evenodd" clip-rule="evenodd"
			d="M17.4423 0.645224C18.3026 -0.215075 19.6974 -0.215075 20.5577 0.645224L37.3548 17.4423C37.7679 17.8554 38 18.4157 38 19C38 19.5843 37.7679 20.1446 37.3548 20.5577L20.5577 37.3548C19.6974 38.2151 18.3026 38.2151 17.4423 37.3548C16.582 36.4945 16.582 35.0997 17.4423 34.2394L30.4787 21.2029H2.20293C0.986286 21.2029 0 20.2166 0 19C0 17.7834 0.986286 16.7971 2.20293 16.7971H30.4787L17.4423 3.76064C16.582 2.90034 16.582 1.50552 17.4423 0.645224Z"
			fill="#01050F" />
	</symbol>

	<symbol id="zoom-ico" xmlns="http://www.w3.org/2000/svg" viewBox="0 0 20 20">
		<path fill-rule="evenodd" clip-rule="evenodd"
			d="M9.1665 3.33329C5.94484 3.33329 3.33317 5.94496 3.33317 9.16663C3.33317 12.3883 5.94484 15 9.1665 15C10.7381 15 12.1646 14.3784 13.2135 13.3678C13.2354 13.3393 13.2595 13.3118 13.2856 13.2857C13.3117 13.2596 13.3391 13.2355 13.3677 13.2136C14.3783 12.1647 14.9998 10.7382 14.9998 9.16663C14.9998 5.94496 12.3882 3.33329 9.1665 3.33329ZM15.0264 13.848C16.0528 12.565 16.6665 10.9375 16.6665 9.16663C16.6665 5.02449 13.3086 1.66663 9.1665 1.66663C5.02437 1.66663 1.6665 5.02449 1.6665 9.16663C1.6665 13.3088 5.02437 16.6666 9.1665 16.6666C10.9373 16.6666 12.5649 16.0529 13.8479 15.0265L16.9106 18.0892C17.236 18.4147 17.7637 18.4147 18.0891 18.0892C18.4145 17.7638 18.4145 17.2361 18.0891 16.9107L15.0264 13.848ZM9.1665 5.83329C9.62674 5.83329 9.99984 6.20639 9.99984 6.66663V8.33329H11.6665C12.1267 8.33329 12.4998 8.70639 12.4998 9.16663C12.4998 9.62686 12.1267 9.99996 11.6665 9.99996H9.99984V11.6666C9.99984 12.1269 9.62674 12.5 9.1665 12.5C8.70627 12.5 8.33317 12.1269 8.33317 11.6666V9.99996H6.6665C6.20627 9.99996 5.83317 9.62686 5.83317 9.16663C5.83317 8.70639 6.20627 8.33329 6.6665 8.33329H8.33317V6.66663C8.33317 6.20639 8.70627 5.83329 9.1665 5.83329Z" />
	</symbol>

	<symbol id="close-ico" width="20" height="20" viewBox="0 0 20 20" fill="none" xmlns="http://www.w3.org/2000/svg">
		<path fill-rule="evenodd" clip-rule="evenodd"
			d="M4.41083 4.41083C4.73626 4.08539 5.2639 4.08539 5.58934 4.41083L10.0001 8.82157L14.4108 4.41083C14.7363 4.08539 15.2639 4.08539 15.5893 4.41083C15.9148 4.73626 15.9148 5.2639 15.5893 5.58934L11.1786 10.0001L15.5893 14.4108C15.9148 14.7363 15.9148 15.2639 15.5893 15.5893C15.2639 15.9148 14.7363 15.9148 14.4108 15.5893L10.0001 11.1786L5.58934 15.5893C5.2639 15.9148 4.73626 15.9148 4.41083 15.5893C4.08539 15.2639 4.08539 14.7363 4.41083 14.4108L8.82157 10.0001L4.41083 5.58934C4.08539 5.2639 4.08539 4.73626 4.41083 4.41083Z"
			fill="#01050F">
		</path>
	</symbol>


	<symbol id="point-ico" xmlns="http://www.w3.org/2000/svg" viewBox="0 0 16 16" fill="none">
		<circle cx="8" cy="8" r="7.5" fill="#285BF3" stroke="white" />
		<circle cx="8" cy="8" r="3" fill="white" />
	</symbol>

	<symbol id="point-big-ico" xmlns="http://www.w3.org/2000/svg" width="28" height="28" viewBox="0 0 28 28" fill="none">
		<circle cx="14" cy="14" r="13" fill="#285BF3" stroke="white" stroke-width="2" />
		<path
			d="M14 6.5L16.1601 11.0269L21.1329 11.6824L17.4951 15.1356L18.4084 20.0676L14 17.675L9.59161 20.0676L10.5049 15.1356L6.86708 11.6824L11.8399 11.0269L14 6.5Z"
			fill="white" />
	</symbol>

</svg>