<svg width="213" height="88" viewBox="0 0 213 88" fill="none" xmlns="http://www.w3.org/2000/svg">
<g clip-path="url(#clip0_592_7809)">
<g>
<path d="M26.4442 27.5933L22.955 39.0737C45.1278 39.5239 53.5692 45.8268 54.3571 53.3678C54.3571 53.3678 52.6688 52.3548 50.4178 51.9046L46.591 51.2293C44.3399 44.0259 30.7211 40.5368 13.3881 41.0996C13.3881 41.0996 7.08519 41.0996 -1.80642 42.2251C-1.83079 42.1033 -1.84461 42.0394 -1.8513 42.0086C-1.85536 41.9898 -1.8568 41.9832 -1.85637 41.983C-1.85614 41.983 -1.85536 41.9848 -1.85414 41.9877C-1.84431 42.0112 -1.80642 42.1014 -1.80642 41.7749C5.84712 39.8615 14.176 39.1862 14.176 39.1862C16.3145 39.0737 18.2279 39.0737 20.1412 39.0737L22.0546 32.4331C17.44 31.5327 4.27139 34.7967 4.27139 34.7967C7.42285 33.1084 10.3492 31.8703 12.8254 30.8574V18.8143L14.4011 17.6888V30.0695C14.683 29.9755 14.9453 29.9012 15.1961 29.8301C15.5462 29.7308 15.8741 29.6379 16.2019 29.5067V17.126L17.7776 16.4507V29.0565C23.6304 27.3682 26.4442 27.5933 26.4442 27.5933Z" fill="#FFFFFF"/>
<path d="M53.4566 55.1686C48.7295 53.0301 44.4525 52.3548 39.5002 52.805C35.21 53.151 31.2601 54.2627 27.2844 55.3817C24.7935 56.0829 22.2923 56.7868 19.691 57.3071C15.414 58.2075 9.44877 58.6577 5.05924 57.5322C4.93993 57.4924 4.46929 57.3824 3.91051 57.2518C2.96887 57.0316 1.77677 56.7529 1.59407 56.6533L1.57013 56.6318C1.57013 56.6375 1.57838 56.6448 1.59407 56.6533C1.65136 56.7054 1.72448 56.7754 1.81357 56.8606L1.81413 56.8611C3.42609 58.4035 10.2547 64.9372 22.955 61.0213C25.0841 60.3696 27.2971 59.5333 29.5357 58.6873C33.0957 57.342 36.7205 55.9722 40.1755 55.2812C44.1148 54.6059 49.6299 54.2682 53.4566 55.1686Z" fill="#FFFFFF"/>
<path d="M51.2056 59.108C47.1537 57.4197 43.5521 57.082 39.6127 57.8699C36.1681 58.5588 33.1451 59.9646 30.0792 61.3904C28.1363 62.2939 26.1762 63.2055 24.0805 63.9477C20.704 65.1858 15.9768 66.0862 12.3751 65.4109C12.15 65.2983 9.44878 64.8481 9.44878 64.8481C10.3492 65.636 11.2496 66.0862 12.0375 66.4238C13.6132 66.9866 14.7387 67.3243 16.3145 67.6619C20.2538 68.3372 24.6433 68.6749 28.1324 66.9866C29.9924 66.1056 31.7459 65.033 33.4948 63.9632C35.7676 62.573 38.0325 61.1876 40.5132 60.2335C43.5521 59.2205 47.9416 58.4326 51.2056 59.108Z" fill="#FFFFFF"/>
<path d="M37.5868 64.3979C36.7441 64.9396 35.9094 65.6263 35.0268 66.3523C32.6089 68.3413 29.8314 70.6262 25.5437 71.0384C25.6233 71.0498 25.7522 71.0795 25.9246 71.1193C27.4591 71.4732 32.4366 72.6211 36.6864 68.6749C44.565 61.359 48.0542 62.9347 48.0542 62.9347C47.9979 62.8784 47.9135 62.8503 47.8291 62.8222C47.7447 62.794 47.6602 62.7659 47.604 62.7096C44.4525 61.4715 40.063 62.8221 37.5868 64.3979Z" fill="#FFFFFF"/>
<path fill-rule="evenodd" clip-rule="evenodd" d="M20.2538 45.9393L19.9162 46.9523C19.5785 47.9653 19.3534 48.4155 19.0157 48.4155C19.3534 48.528 19.3534 48.8657 19.1283 49.541C18.6781 51.1167 18.453 52.0172 18.453 52.0172C18.2279 52.6925 17.8902 53.2552 17.5526 53.4803C17.1024 53.818 16.5396 53.9305 15.5266 53.9305H12.3752L15.3015 43.9134H18.453C19.3534 43.9134 19.9162 44.1385 20.2538 44.3636C20.4789 44.5887 20.4789 45.1515 20.2538 45.9393ZM18.5655 46.5021L18.6781 46.0519C18.7906 45.7142 18.7906 45.4891 18.5655 45.4891H16.427L15.7517 47.8527H17.3275C17.8902 47.8527 18.3404 47.6276 18.453 47.0649L18.5655 46.5021ZM17.5323 50.3492C17.569 50.1569 17.5955 50.0178 17.6651 49.8787C17.6651 49.541 17.6651 49.3159 17.44 49.4285C17.2149 49.3159 16.9898 49.3159 16.7647 49.3159H15.3015L14.2885 52.5799H15.8643C16.427 52.5799 16.8772 52.2423 16.9898 51.792L17.44 50.7791C17.483 50.6071 17.5096 50.468 17.5323 50.3492Z" fill="#FFFFFF"/>
<path fill-rule="evenodd" clip-rule="evenodd" d="M10.5743 43.9134H13.2756L10.1241 53.9305H8.7735L9.2237 52.5799H5.39693L4.38396 53.9305H2.80823L10.5743 43.9134ZM6.63501 51.2293H9.78646L11.4747 45.3766H11.0245L7.31032 50.2163L6.63501 51.2293Z" fill="#FFFFFF"/>
<path d="M77.6038 42.2536H75.3186L74.7474 40.1113H71.4624L70.7483 42.2536H68.4631L71.8909 29.6852H74.1761L77.6038 42.2536ZM74.1761 37.8261L73.1763 33.113L72.1765 37.8261H74.1761ZM79.889 40.2541C80.8888 39.1115 81.0316 36.9692 81.0316 35.6838V29.6852H87.8871V40.3969H89.0297V44.2532H86.8873V42.3965H81.1744V44.2532H79.0321V40.3969H79.889V40.2541ZM83.1739 35.6838C83.1739 37.112 82.8883 39.1115 82.1742 40.2541H85.6019V31.5419H83.1739V35.6838ZM95.7424 39.2544L93.3144 34.2555L93.4572 37.8261V42.2536H91.3148V29.6852H93.4572L96.028 35.2553L98.5988 29.6852H100.741V42.2536H98.5988V37.8261L98.7417 34.2555L96.3137 39.2544H95.7424ZM103.883 29.6852H106.026V32.6845L105.74 37.9689L109.596 29.6852H111.739V42.2536H109.596V39.1115L109.739 34.2555L106.026 42.2536H103.883V29.6852ZM118.023 29.6852C121.022 29.6852 122.45 30.8278 122.45 33.3986V34.5412C122.45 37.112 121.022 38.3974 118.023 38.3974H117.166V42.2536H114.881V29.5424H118.023V29.6852ZM118.023 36.2551C119.594 36.2551 120.165 35.6838 120.165 34.5412V33.5414C120.165 32.3988 119.737 31.6847 118.023 31.6847H117.166V36.2551H118.023ZM132.591 42.2536H130.306L129.591 40.1113H126.449L125.735 42.3965H123.45L126.878 29.828H129.163L132.591 42.2536ZM129.02 37.8261L128.02 33.113L127.021 37.8261H129.02ZM143.445 42.2536H141.16V31.6847H138.161L138.018 36.3979C137.875 39.9685 137.59 42.6821 133.876 42.2536L134.019 39.9685C136.019 40.1113 135.876 37.8261 135.876 36.2551L136.019 29.3996H143.445V42.2536ZM152.872 31.6847H150.301V42.2536H148.016V31.6847H145.445V29.6852H152.872V31.6847ZM162.155 29.6852V31.6847H157.156V34.8268H161.441V36.9692H157.156V40.2541H162.441V42.3965H154.871V29.6852H162.155ZM164.869 29.6852H167.154V32.6845L166.868 38.1118L170.582 29.828H172.867V42.5393H170.725V39.2544L170.867 34.3984L167.154 42.3965H165.012V29.6852H164.869ZM166.297 26.2574H168.154C168.154 26.9716 168.582 27.1144 169.153 27.1144C169.725 27.1144 170.153 26.9716 170.153 26.2574H172.01C172.01 28.1141 171.153 28.8283 169.153 28.8283C167.011 28.8283 166.297 28.1141 166.297 26.2574ZM184.007 38.3974C184.007 41.1111 182.722 42.3965 179.722 42.3965C176.723 42.3965 175.438 41.2539 175.438 38.6831V33.5414C175.438 30.8278 176.58 29.828 179.722 29.828C182.722 29.828 184.007 30.9706 184.007 33.6842H181.722C181.722 32.3988 181.436 31.8275 179.722 31.8275C178.151 31.8275 177.723 32.5417 177.723 33.6842V38.5402C177.723 39.6828 178.009 40.3969 179.722 40.3969C181.293 40.3969 181.722 39.6828 181.722 38.3974H184.007ZM192.576 42.2536L189.292 36.9692H188.435V42.2536H186.149V29.5424H188.435V34.684H189.006C190.006 34.684 190.149 33.8271 190.434 32.9701C191.005 31.1134 191.577 29.2567 194.862 29.6852L194.719 31.8275C193.005 31.6847 193.005 32.256 192.576 33.6842C192.291 34.684 192.005 35.5409 191.291 36.1122L195.433 42.3965H192.576V42.2536ZM197.29 29.6852H199.575V32.6845L199.289 37.9689L203.003 29.6852H205.288V42.2536H203.003V39.1115L203.288 34.2555L199.575 42.2536H197.29V29.6852ZM215.571 29.6852V31.6847H210.572V34.8268H214.857V36.9692H210.572V40.2541H215.857V42.3965H208.287V29.6852H215.571Z" fill="#FFFFFF"/>
<path d="M85.7447 49.9661V47.9666H78.4608V60.6778H85.8876V58.5355H80.7459V55.2505H85.0306V53.1082H80.7459V49.9661H85.7447Z" fill="#FFFFFF"/>
<path d="M115.309 47.9666H113.024V60.535H115.166L119.023 52.5369L118.737 57.3929V60.535H121.022V47.9666H118.737L115.023 56.2503L115.309 50.9658V47.9666Z" fill="#FFFFFF"/>
<path fill-rule="evenodd" clip-rule="evenodd" d="M72.0337 47.9666H68.4631V60.8206H71.8909C74.7473 60.8206 76.3184 59.8209 76.3184 56.8216C76.3184 55.1077 75.4615 54.1079 74.1761 53.8223C75.3187 53.251 75.7471 52.3941 75.7471 51.2515C75.7471 48.9663 74.1761 47.9666 72.0337 47.9666ZM70.7483 50.1089V52.8225H72.1765C73.0335 52.8225 73.6048 52.1084 73.6048 51.3943C73.6048 50.823 73.3191 50.1089 72.1765 50.1089H70.7483ZM71.7481 58.5355H70.6055V54.8221H71.7481C73.3191 54.8221 73.7476 55.3934 73.7476 56.6788C73.7476 58.2498 73.1763 58.5355 71.7481 58.5355Z" fill="#FFFFFF"/>
<path fill-rule="evenodd" clip-rule="evenodd" d="M92.1718 47.9666C95.1711 47.9666 96.5993 49.1091 96.5993 51.68V52.9654C96.5993 55.5362 95.1711 56.8216 92.1718 56.8216H91.3149V60.6778H89.0297V48.1094H92.1718V47.9666ZM94.3141 52.8225C94.3141 53.9651 93.7428 54.5364 92.1718 54.5364H91.3149V49.9661H92.1718C93.8857 49.9661 94.3141 50.6802 94.3141 51.8228V52.8225Z" fill="#FFFFFF"/>
<path fill-rule="evenodd" clip-rule="evenodd" d="M103.312 59.1068V60.6778H105.597V59.1068H106.026C109.025 59.1068 110.453 57.9642 110.453 55.3934V53.251C110.453 50.6802 109.025 49.5376 106.026 49.5376H105.597V47.9666H103.312V49.5376H102.884C99.8842 49.5376 98.456 50.5374 98.456 53.251V55.3934C98.456 57.9642 99.8842 59.1068 102.884 59.1068H103.312ZM103.312 51.3943H102.884C101.17 51.3943 100.741 52.1084 100.741 53.251V55.1077C100.741 56.2503 101.312 56.9644 102.884 56.9644H103.312V51.3943ZM108.311 55.1077C108.311 56.3931 107.74 56.9644 106.168 56.9644H105.74V51.3943H106.168C107.882 51.3943 108.311 52.1084 108.311 53.251V55.1077Z" fill="#FFFFFF"/>
</g>
</g>
<defs>
<clipPath id="clip0_592_7809">
<rect width="213" height="88" fill="white"/>
</clipPath>
</defs>
</svg>
