<svg width="225" height="263" viewBox="0 0 225 263" fill="none" xmlns="http://www.w3.org/2000/svg">
<g filter="url(#filter0_b_1272_29065)">
<path fill-rule="evenodd" clip-rule="evenodd" d="M120.662 238.345C179.671 251.961 238.546 215.164 252.162 156.155C265.779 97.1467 228.982 38.2722 169.973 24.6554C110.964 11.0386 52.0898 47.836 38.4731 106.845C24.8563 165.853 61.6536 224.728 120.662 238.345ZM154.233 102.108C151.131 100.809 147.669 100.65 144.463 101.658C141.255 102.666 138.507 104.777 136.707 107.617C133.334 112.937 126.287 114.516 120.967 111.143C115.646 107.77 114.068 100.723 117.441 95.4027C122.126 88.0132 129.275 82.5201 137.622 79.8965C145.969 77.2728 154.975 77.688 163.045 81.0682C171.116 84.4486 177.729 90.576 181.714 98.365C185.699 106.152 186.799 115.098 184.821 123.619C181.534 137.841 168.903 144.556 160.923 147.571C156.542 149.226 152.396 150.219 149.392 150.802C148.607 150.953 147.89 151.08 147.252 151.184C147.016 151.222 146.791 151.258 146.578 151.29C146.25 151.34 145.95 151.384 145.681 151.421L145.303 151.472C145.012 151.51 144.765 151.54 144.567 151.563L144.225 151.6L144.112 151.612L144.07 151.616L144.038 151.619C137.768 152.217 132.2 147.617 131.602 141.346C131.006 135.08 135.599 129.516 141.862 128.912L141.954 128.902C142.072 128.888 142.279 128.863 142.561 128.824C143.128 128.746 143.988 128.613 145.051 128.407C147.212 127.988 150.035 127.299 152.861 126.232C159.294 123.801 162.036 120.909 162.597 118.48C163.357 115.204 162.939 111.749 161.407 108.756C159.875 105.762 157.333 103.407 154.233 102.108ZM138.15 162.566C132.012 161.15 125.888 164.978 124.472 171.116C123.055 177.253 126.883 183.377 133.021 184.794L133.132 184.819C139.27 186.236 145.394 182.408 146.81 176.27C148.227 170.133 144.399 164.008 138.261 162.592L138.15 162.566Z" fill="url(#paint0_linear_1272_29065)" fill-opacity="0.26"/>
<path d="M144.801 102.735L144.801 102.735C147.754 101.806 150.94 101.953 153.796 103.15C156.652 104.345 158.991 106.513 160.402 109.27C161.812 112.025 162.198 115.207 161.497 118.224L161.497 118.226C161.07 120.078 158.807 122.779 152.462 125.176L152.462 125.176C149.713 126.214 146.956 126.888 144.837 127.299C143.796 127.501 142.956 127.63 142.407 127.706L142.406 127.706C142.136 127.743 141.938 127.767 141.826 127.78C141.825 127.78 141.824 127.781 141.823 127.781L141.744 127.79C134.866 128.458 129.823 134.57 130.479 141.453L130.479 141.453C131.135 148.345 137.254 153.399 144.145 152.743L144.149 152.742L144.178 152.74L144.181 152.739L144.22 152.736L144.228 152.735L144.341 152.723L144.349 152.722L144.691 152.684L144.695 152.684C144.899 152.661 145.153 152.63 145.451 152.59L145.453 152.59L145.831 152.539L145.835 152.539C146.109 152.501 146.415 152.457 146.748 152.406L146.748 152.406C146.965 152.373 147.194 152.337 147.434 152.298L147.434 152.298C148.082 152.192 148.811 152.064 149.606 151.91L149.402 150.855L149.606 151.91C152.653 151.319 156.864 150.311 161.322 148.627L160.923 147.571L161.322 148.627C169.374 145.584 182.497 138.681 185.92 123.874C187.959 115.094 186.825 105.876 182.719 97.8509C178.612 89.8246 171.797 83.5106 163.481 80.0272C155.165 76.544 145.885 76.1162 137.284 78.8197C128.682 81.5233 121.316 87.1838 116.488 94.7983C112.781 100.645 114.516 108.389 120.363 112.096C126.209 115.803 133.953 114.068 137.66 108.221L137.66 108.221C139.318 105.607 141.847 103.663 144.801 102.735ZM251.063 155.902C237.586 214.303 179.317 250.722 120.916 237.245C62.5147 223.768 26.0962 165.5 39.5728 107.098C53.0494 48.6971 111.318 12.2785 169.719 25.7551C228.121 39.2318 264.539 97.5003 251.063 155.902ZM138.404 161.467C131.658 159.91 124.929 164.117 123.372 170.862C121.816 177.607 126.022 184.337 132.767 185.893L132.878 185.919C139.623 187.475 146.354 183.269 147.91 176.524C149.467 169.779 145.26 163.049 138.515 161.492L138.404 161.467Z" stroke="white" stroke-opacity="0.16" stroke-width="2.25731"/>
</g>
<g filter="url(#filter1_b_1272_29065)">
<rect y="44.6306" width="73.0683" height="73.0683" rx="36.5342" transform="rotate(-11.494 0 44.6306)" fill="white" fill-opacity="0.2"/>
<g clip-path="url(#clip0_1272_29065)">
<path fill-rule="evenodd" clip-rule="evenodd" d="M40.7246 61.0053C34.0842 62.3551 29.7953 68.8324 31.1451 75.4728C32.4949 82.1132 38.9722 86.4021 45.6126 85.0523C52.253 83.7025 56.5419 77.2252 55.1921 70.5848C53.8423 63.9444 47.365 59.6555 40.7246 61.0053ZM28.4732 76.0159C26.8235 67.8999 32.0654 59.9832 40.1815 58.3334C48.2975 56.6837 56.2142 61.9256 57.864 70.0417C59.5137 78.1577 54.2718 86.0744 46.1557 87.7242C38.0397 89.3739 30.123 84.132 28.4732 76.0159ZM41.2677 63.6772C42.0055 63.5272 42.7252 64.0038 42.8752 64.7416L44.3367 71.9316L49.41 73.2981C50.137 73.4939 50.5676 74.242 50.3718 74.969C50.176 75.696 49.4279 76.1266 48.7009 75.9308L42.814 74.3451C42.3154 74.2108 41.9355 73.8064 41.8327 73.3004L40.2033 65.2847C40.0533 64.5469 40.5299 63.8272 41.2677 63.6772Z" fill="white"/>
</g>
<rect x="0.980418" y="45.2797" width="71.4055" height="71.4055" rx="35.7028" transform="rotate(-11.494 0.980418 45.2797)" stroke="white" stroke-opacity="0.08" stroke-width="1.66284"/>
</g>
<defs>
<filter id="filter0_b_1272_29065" x="3.45338" y="-10.3642" width="283.728" height="283.728" filterUnits="userSpaceOnUse" color-interpolation-filters="sRGB">
<feFlood flood-opacity="0" result="BackgroundImageFix"/>
<feGaussianBlur in="BackgroundImageFix" stdDeviation="16.0937"/>
<feComposite in2="SourceAlpha" operator="in" result="effect1_backgroundBlur_1272_29065"/>
<feBlend mode="normal" in="SourceGraphic" in2="effect1_backgroundBlur_1272_29065" result="shape"/>
</filter>
<filter id="filter1_b_1272_29065" x="-33.2567" y="-3.18618" width="152.677" height="152.677" filterUnits="userSpaceOnUse" color-interpolation-filters="sRGB">
<feFlood flood-opacity="0" result="BackgroundImageFix"/>
<feGaussianBlur in="BackgroundImageFix" stdDeviation="16.6284"/>
<feComposite in2="SourceAlpha" operator="in" result="effect1_backgroundBlur_1272_29065"/>
<feBlend mode="normal" in="SourceGraphic" in2="effect1_backgroundBlur_1272_29065" result="shape"/>
</filter>
<linearGradient id="paint0_linear_1272_29065" x1="169.973" y1="24.6554" x2="251.511" y2="300.334" gradientUnits="userSpaceOnUse">
<stop stop-color="white"/>
<stop offset="1" stop-color="white" stop-opacity="0"/>
</linearGradient>
<clipPath id="clip0_1272_29065">
<rect width="32.7183" height="32.7183" fill="white" transform="translate(23.8777 60.2561) rotate(-11.49)"/>
</clipPath>
</defs>
</svg>
