<svg width="580" height="411" viewBox="0 0 580 411" fill="none" xmlns="http://www.w3.org/2000/svg">
<g clip-path="url(#clip0_1300_30846)">
<g opacity="0.6" filter="url(#filter0_f_1300_30846)">
<g clip-path="url(#clip1_1300_30846)">
<rect width="199.101" height="235.735" rx="15.9281" transform="matrix(0.999493 0.0318261 -0.218804 0.975769 319.888 248.911)" fill="white" fill-opacity="0.72"/>
<g filter="url(#filter1_f_1300_30846)">
<ellipse cx="95.5683" cy="25.4849" rx="95.5683" ry="25.4849" transform="matrix(0.932263 0.233774 -0.421602 0.947886 424.577 226.417)" fill="#2665ED"/>
</g>
<g filter="url(#filter2_f_1300_30846)">
<ellipse cx="95.5683" cy="25.4849" rx="95.5683" ry="25.4849" transform="matrix(0.932263 0.233774 -0.421602 0.947886 224.422 429.012)" fill="#2665ED"/>
</g>
<path fill-rule="evenodd" clip-rule="evenodd" d="M354.153 290.998C352.693 290.952 351.25 292.07 350.93 293.496L330.513 384.545C330.194 385.971 331.118 387.165 332.579 387.211L444.795 390.784C446.255 390.831 447.698 389.713 448.018 388.287L468.435 297.237C468.754 295.811 467.83 294.618 466.369 294.571L354.153 290.998ZM455.154 305.395L360.392 302.378L343.796 376.388L438.558 379.405L455.154 305.395Z" fill="#285BF3"/>
<path d="M385.491 403.338L385.036 403.324L384.937 403.767L385.391 403.782L385.491 403.338ZM410.262 292.785L413.884 288.428L408.631 288.261L410.262 292.785ZM388.687 388.998L385.07 393.358L390.324 393.519L388.687 388.998ZM385.391 403.782L411.318 404.607L411.517 403.719L385.59 402.894L385.391 403.782ZM413.126 277.968L410.703 288.774L411.613 288.803L414.036 277.997L413.126 277.968ZM387.341 392.981L385.036 403.324L385.946 403.352L388.251 393.008L387.341 392.981Z" fill="white"/>
<path d="M417.574 407.489C417.009 407.471 416.52 407.354 416.107 407.136C415.695 406.913 415.4 406.6 415.222 406.196C415.044 405.792 415.019 405.307 415.146 404.739C415.257 404.245 415.444 403.845 415.705 403.539C415.974 403.227 416.294 402.983 416.667 402.807C417.039 402.63 417.439 402.501 417.865 402.42C418.291 402.339 418.723 402.28 419.161 402.241C419.712 402.201 420.158 402.166 420.498 402.135C420.837 402.103 421.092 402.046 421.261 401.962C421.436 401.874 421.547 401.728 421.593 401.525L421.601 401.486C421.712 400.991 421.654 400.604 421.427 400.325C421.205 400.045 420.814 399.896 420.255 399.878C419.674 399.86 419.184 399.97 418.787 400.209C418.397 400.443 418.102 400.714 417.904 401.022L416.348 400.603C416.664 400.079 417.045 399.661 417.49 399.35C417.942 399.034 418.428 398.809 418.946 398.673C419.471 398.538 419.999 398.479 420.532 398.496C420.89 398.507 421.259 398.561 421.64 398.657C422.022 398.748 422.365 398.908 422.667 399.138C422.977 399.362 423.198 399.679 423.332 400.087C423.466 400.494 423.462 401.016 423.32 401.651L422.021 407.442L420.318 407.388L420.586 406.194L420.522 406.192C420.367 406.402 420.152 406.61 419.875 406.816C419.603 407.022 419.275 407.19 418.892 407.319C418.509 407.449 418.069 407.505 417.574 407.489ZM418.254 406.143C418.739 406.159 419.172 406.081 419.554 405.91C419.938 405.733 420.254 405.497 420.503 405.201C420.751 404.905 420.914 404.588 420.99 404.249L421.243 403.117C421.167 403.173 421.034 403.223 420.847 403.27C420.659 403.316 420.45 403.354 420.217 403.384C419.985 403.413 419.759 403.44 419.539 403.464C419.32 403.483 419.137 403.498 418.989 403.509C418.643 403.546 418.32 403.609 418.021 403.699C417.723 403.784 417.467 403.917 417.255 404.099C417.049 404.276 416.912 404.515 416.844 404.817C416.75 405.238 416.838 405.561 417.11 405.785C417.382 406.008 417.763 406.128 418.254 406.143Z" fill="white"/>
<path d="M410.264 292.785L388.689 388.998" stroke="white" stroke-width="0.910174" stroke-dasharray="5.46 5.46"/>
</g>
<rect x="0.310872" y="0.401226" width="198.304" height="234.939" rx="15.5299" transform="matrix(0.999493 0.0318261 -0.218804 0.975769 319.976 248.911)" stroke="white" stroke-opacity="0.08" stroke-width="0.796403"/>
</g>
<rect opacity="0.4" width="227.544" height="149.504" transform="matrix(0.999493 0.0318261 -0.218804 0.975769 303.597 244.955)" fill="url(#paint0_linear_1300_30846)"/>
<g opacity="0.8" filter="url(#filter3_f_1300_30846)">
<g clip-path="url(#clip2_1300_30846)">
<rect width="191.873" height="227.177" rx="15.3498" transform="matrix(0.999493 0.0318261 -0.218804 0.975769 85.0335 -20.3709)" fill="white" fill-opacity="0.48"/>
<g filter="url(#filter4_f_1300_30846)">
<ellipse cx="92.0989" cy="24.5597" rx="92.0989" ry="24.5597" transform="matrix(0.932263 0.233774 -0.421602 0.947886 185.919 -42.0485)" fill="#2665ED"/>
</g>
<g filter="url(#filter5_f_1300_30846)">
<ellipse cx="92.0989" cy="24.5597" rx="92.0989" ry="24.5597" transform="matrix(0.932263 0.233774 -0.421602 0.947886 -6.96933 153.192)" fill="#2665ED"/>
</g>
<path fill-rule="evenodd" clip-rule="evenodd" d="M127.186 20.4792C125.778 20.4344 124.388 21.512 124.08 22.8861L104.404 110.63C104.096 112.004 104.987 113.155 106.395 113.199L196.272 116.061C197.68 116.106 199.07 115.029 199.379 113.654L219.054 25.9103C219.362 24.5362 218.471 23.3859 217.064 23.3411L127.186 20.4792ZM206.256 33.7717L133.198 31.4454L117.205 102.769L190.262 105.095L206.256 33.7717Z" fill="#285BF3"/>
<path d="M148.254 128.45L147.815 128.437L147.72 128.864L148.158 128.878L148.254 128.45ZM172.126 21.9103L175.616 17.7115L170.554 17.5503L172.126 21.9103ZM151.334 114.631L147.849 118.833L152.912 118.987L151.334 114.631ZM148.158 128.878L173.143 129.674L173.335 128.818L148.35 128.022L148.158 128.878ZM174.886 7.63173L172.551 18.0449L173.428 18.0728L175.763 7.65965L174.886 7.63173ZM150.037 118.469L147.815 128.437L148.692 128.463L150.914 118.496L150.037 118.469Z" fill="white"/>
<path d="M179.077 132.876C178.532 132.858 178.061 132.745 177.663 132.535C177.266 132.321 176.982 132.019 176.811 131.629C176.639 131.24 176.615 130.772 176.738 130.225C176.844 129.749 177.024 129.363 177.276 129.068C177.535 128.768 177.844 128.533 178.203 128.363C178.562 128.192 178.947 128.068 179.357 127.991C179.768 127.913 180.184 127.855 180.607 127.818C181.138 127.78 181.567 127.745 181.895 127.715C182.222 127.685 182.467 127.63 182.63 127.549C182.799 127.464 182.906 127.323 182.95 127.128L182.958 127.09C183.065 126.614 183.009 126.241 182.79 125.971C182.576 125.702 182.2 125.558 181.66 125.541C181.1 125.523 180.629 125.629 180.246 125.86C179.87 126.085 179.586 126.346 179.396 126.643L177.895 126.239C178.2 125.734 178.567 125.331 178.996 125.032C179.432 124.728 179.9 124.51 180.4 124.38C180.905 124.249 181.414 124.192 181.928 124.209C182.272 124.22 182.628 124.271 182.995 124.364C183.364 124.451 183.694 124.606 183.986 124.827C184.284 125.044 184.497 125.349 184.626 125.742C184.756 126.135 184.752 126.637 184.614 127.249L183.363 132.83L181.722 132.778L181.98 131.627L181.918 131.625C181.769 131.828 181.561 132.028 181.294 132.227C181.032 132.425 180.717 132.587 180.347 132.712C179.978 132.836 179.554 132.891 179.077 132.876ZM179.732 131.578C180.2 131.593 180.618 131.518 180.986 131.353C181.355 131.183 181.66 130.955 181.899 130.67C182.139 130.385 182.296 130.079 182.369 129.753L182.613 128.662C182.539 128.716 182.412 128.765 182.231 128.809C182.05 128.854 181.848 128.891 181.625 128.919C181.401 128.947 181.183 128.973 180.971 128.997C180.76 129.015 180.583 129.03 180.441 129.04C180.107 129.075 179.796 129.136 179.508 129.223C179.22 129.304 178.974 129.433 178.77 129.608C178.571 129.779 178.439 130.009 178.374 130.3C178.283 130.706 178.368 131.017 178.63 131.233C178.892 131.448 179.26 131.563 179.732 131.578Z" fill="white"/>
<path d="M172.125 21.91L151.334 114.63" stroke="white" stroke-width="0.877133" stroke-dasharray="5.26 5.26"/>
<path d="M118.372 181.208C117.843 181.192 117.383 181.079 116.992 180.87C116.602 180.656 116.322 180.357 116.152 179.974C115.981 179.59 115.956 179.133 116.075 178.601C116.18 178.133 116.359 177.759 116.614 177.477C116.869 177.19 117.173 176.969 117.524 176.814C117.882 176.653 118.26 176.537 118.658 176.467C119.062 176.396 119.463 176.343 119.864 176.306C120.387 176.259 120.81 176.223 121.133 176.199C121.46 176.175 121.705 176.124 121.869 176.046C122.037 175.968 122.144 175.829 122.189 175.629L122.198 175.585C122.315 175.063 122.259 174.654 122.029 174.357C121.805 174.055 121.395 173.895 120.801 173.876C120.192 173.856 119.683 173.973 119.274 174.225C118.867 174.472 118.56 174.742 118.353 175.035L117.22 174.572C117.551 174.082 117.93 173.703 118.357 173.437C118.789 173.171 119.232 172.989 119.687 172.89C120.146 172.792 120.586 172.749 121.005 172.763C121.275 172.771 121.578 172.813 121.913 172.887C122.249 172.957 122.561 173.095 122.847 173.3C123.139 173.501 123.348 173.8 123.475 174.197C123.609 174.589 123.603 175.109 123.457 175.758L122.25 181.14L120.962 181.099L121.211 179.988L121.151 179.986C121.027 180.159 120.839 180.344 120.589 180.542C120.339 180.736 120.028 180.9 119.656 181.036C119.29 181.166 118.862 181.224 118.372 181.208ZM118.82 180.088C119.329 180.105 119.78 180.021 120.174 179.837C120.567 179.653 120.888 179.41 121.137 179.109C121.386 178.802 121.549 178.481 121.624 178.145L121.884 176.989C121.814 177.051 121.681 177.106 121.485 177.153C121.294 177.196 121.074 177.233 120.826 177.265C120.582 177.296 120.345 177.323 120.114 177.345C119.883 177.363 119.699 177.376 119.561 177.387C119.217 177.42 118.889 177.481 118.577 177.569C118.267 177.652 118.001 177.784 117.78 177.963C117.563 178.143 117.419 178.394 117.347 178.716C117.249 179.15 117.341 179.484 117.62 179.719C117.905 179.949 118.305 180.072 118.82 180.088ZM129.181 176.073L129.44 174.917L136.152 175.131L135.893 176.286L129.181 176.073ZM128.476 179.217L128.735 178.062L135.447 178.275L135.188 179.431L128.476 179.217ZM140.701 179.474L140.944 178.392L147.542 170.971L148.351 170.997L147.974 172.679L147.42 172.661L142.437 178.262L142.417 178.35L149.024 178.561L148.762 179.731L140.701 179.474ZM145.443 181.879L146.017 179.319L146.132 178.807L147.887 170.982L149.175 171.023L146.732 181.92L145.443 181.879ZM153.186 182.273C152.732 182.258 152.293 182.163 151.87 181.988C151.447 181.807 151.09 181.519 150.796 181.121C150.509 180.719 150.326 180.181 150.246 179.505C150.166 178.83 150.238 177.99 150.464 176.986C150.68 176.021 150.964 175.168 151.316 174.428C151.674 173.688 152.084 173.067 152.549 172.567C153.019 172.061 153.534 171.685 154.092 171.437C154.652 171.185 155.246 171.069 155.875 171.089C156.499 171.109 157.027 171.248 157.456 171.508C157.891 171.767 158.215 172.119 158.427 172.562C158.64 173.001 158.729 173.502 158.693 174.066L157.375 174.024C157.359 173.532 157.208 173.12 156.92 172.787C156.638 172.454 156.202 172.278 155.613 172.259C154.749 172.232 153.985 172.578 153.32 173.298C152.662 174.014 152.183 175.037 151.885 176.368L151.975 176.371C152.247 176.075 152.547 175.825 152.875 175.619C153.204 175.409 153.551 175.253 153.916 175.151C154.281 175.045 154.657 174.998 155.041 175.01C155.68 175.031 156.23 175.205 156.689 175.534C157.15 175.858 157.478 176.298 157.676 176.855C157.874 177.406 157.894 178.033 157.737 178.735C157.586 179.408 157.293 180.017 156.859 180.563C156.431 181.104 155.9 181.532 155.266 181.845C154.634 182.154 153.94 182.297 153.186 182.273ZM153.449 181.103C153.908 181.117 154.345 181.021 154.759 180.813C155.173 180.6 155.53 180.31 155.829 179.941C156.129 179.568 156.331 179.152 156.433 178.693C156.535 178.24 156.522 177.827 156.394 177.455C156.273 177.078 156.057 176.774 155.746 176.543C155.441 176.312 155.058 176.189 154.599 176.175C154.14 176.16 153.697 176.261 153.271 176.479C152.85 176.696 152.487 176.989 152.184 177.357C151.886 177.721 151.688 178.12 151.591 178.554C151.494 178.988 151.507 179.398 151.632 179.785C151.757 180.167 151.974 180.479 152.282 180.719C152.595 180.96 152.984 181.088 153.449 181.103Z" fill="white"/>
</g>
<rect x="0.299586" y="0.38666" width="191.105" height="226.41" rx="14.9661" transform="matrix(0.999493 0.0318261 -0.218804 0.975769 85.1183 -20.3711)" stroke="white" stroke-opacity="0.26" stroke-width="0.767491"/>
</g>
<g filter="url(#filter6_b_1300_30846)">
<g clip-path="url(#clip3_1300_30846)">
<rect width="277.15" height="328.145" rx="22.172" transform="matrix(0.999493 0.0318261 -0.218804 0.975769 166.018 44.4996)" fill="white" fill-opacity="0.7"/>
<mask id="path-21-inside-1_1300_30846" fill="white">
<path d="M354.707 183.422C344.794 227.632 300.047 262.302 254.762 260.86C209.478 259.418 180.804 222.41 190.718 178.2C200.631 133.991 245.378 99.3207 290.662 100.763C335.947 102.205 364.62 139.213 354.707 183.422ZM213.676 178.931C206.538 210.762 227.184 237.408 259.788 238.446C292.393 239.484 324.611 214.522 331.749 182.691C338.886 150.86 318.241 124.214 285.636 123.176C253.031 122.138 220.814 147.1 213.676 178.931Z"/>
</mask>
<path d="M354.707 183.422C344.794 227.632 300.047 262.302 254.762 260.86C209.478 259.418 180.804 222.41 190.718 178.2C200.631 133.991 245.378 99.3207 290.662 100.763C335.947 102.205 364.62 139.213 354.707 183.422ZM213.676 178.931C206.538 210.762 227.184 237.408 259.788 238.446C292.393 239.484 324.611 214.522 331.749 182.691C338.886 150.86 318.241 124.214 285.636 123.176C253.031 122.138 220.814 147.1 213.676 178.931Z" fill="#5580FF" stroke="white" stroke-opacity="0.08" stroke-width="4.26384" mask="url(#path-21-inside-1_1300_30846)"/>
<path d="M326.941 254.987L326.484 255.381L326.611 255.521L326.82 255.528L326.941 254.987ZM359.324 110.575L359.445 110.034L359.218 110.027L359.021 110.178L359.324 110.575ZM341.81 123.981L348.354 122.605L344.86 118.014L341.81 123.981ZM322.276 138.934L315.734 140.353L319.268 144.914L322.276 138.934ZM233.862 117.927L233.528 111.848L228.031 116.141L233.862 117.927ZM315.314 242.143L316.03 248.127L321.309 243.574L315.314 242.143ZM326.82 255.528L368.925 256.868L369.168 255.787L327.063 254.446L326.82 255.528ZM401.55 111.375L359.445 110.034L359.202 111.116L401.308 112.457L401.55 111.375ZM359.021 110.178L345.825 120.279L346.43 121.074L359.626 110.973L359.021 110.178ZM317.673 141.869L306.59 150.455L307.202 151.245L318.285 142.658L317.673 141.869ZM219.894 101.075C223.568 105.771 227.871 111.263 230.612 114.76L231.564 114.017C228.824 110.52 224.521 105.028 220.846 100.332L219.894 101.075ZM317.877 245.874L326.484 255.381L327.398 254.593L318.792 245.086L317.877 245.874Z" fill="#323847"/>
<path d="M364.886 246.333C364.198 246.311 363.602 246.168 363.099 245.903C362.598 245.632 362.238 245.25 362.022 244.758C361.805 244.266 361.774 243.674 361.929 242.983C362.064 242.381 362.291 241.894 362.61 241.521C362.937 241.142 363.328 240.845 363.781 240.629C364.235 240.414 364.721 240.257 365.24 240.159C365.759 240.06 366.286 239.988 366.819 239.941C367.491 239.892 368.033 239.849 368.447 239.811C368.861 239.773 369.171 239.703 369.377 239.601C369.591 239.493 369.725 239.315 369.781 239.068L369.792 239.021C369.927 238.419 369.856 237.947 369.579 237.606C369.309 237.266 368.833 237.085 368.151 237.063C367.444 237.04 366.848 237.175 366.364 237.466C365.888 237.751 365.53 238.081 365.289 238.456L363.393 237.946C363.778 237.307 364.242 236.798 364.784 236.419C365.335 236.035 365.926 235.76 366.558 235.595C367.197 235.43 367.84 235.358 368.49 235.379C368.925 235.393 369.374 235.458 369.838 235.575C370.304 235.686 370.721 235.881 371.09 236.161C371.467 236.434 371.737 236.82 371.9 237.316C372.063 237.813 372.058 238.448 371.885 239.221L370.303 246.276L368.229 246.21L368.555 244.755L368.477 244.753C368.289 245.008 368.026 245.262 367.688 245.513C367.357 245.764 366.959 245.968 366.492 246.126C366.025 246.283 365.489 246.352 364.886 246.333ZM365.714 244.693C366.305 244.712 366.833 244.617 367.298 244.409C367.765 244.194 368.15 243.906 368.453 243.545C368.756 243.185 368.954 242.799 369.047 242.387L369.356 241.008C369.262 241.075 369.101 241.137 368.873 241.194C368.644 241.25 368.389 241.296 368.106 241.332C367.823 241.368 367.548 241.4 367.28 241.43C367.013 241.454 366.79 241.472 366.61 241.486C366.188 241.53 365.795 241.606 365.431 241.716C365.067 241.819 364.756 241.982 364.497 242.203C364.246 242.419 364.08 242.71 363.997 243.078C363.882 243.591 363.99 243.984 364.322 244.257C364.653 244.529 365.117 244.674 365.714 244.693Z" fill="#323847"/>
<path d="M399.36 102.513C398.704 102.493 398.19 102.368 397.816 102.139C397.45 101.904 397.18 101.637 397.005 101.337C396.837 101.038 396.712 100.776 396.632 100.55L396.457 100.544L396.086 102.199L394.041 102.133L397.217 87.9674L399.321 88.0343L398.14 93.3015L398.257 93.3052C398.436 93.0875 398.673 92.8365 398.965 92.5521C399.264 92.268 399.646 92.0248 400.11 91.8225C400.575 91.6139 401.142 91.5203 401.81 91.5416C402.687 91.5695 403.418 91.8098 404.003 92.2625C404.594 92.7154 404.996 93.357 405.209 94.1873C405.422 95.0175 405.399 96.0094 405.14 97.163C404.884 98.3039 404.469 99.2801 403.895 100.092C403.322 100.897 402.642 101.51 401.854 101.932C401.074 102.348 400.243 102.542 399.36 102.513ZM399.297 100.74C399.926 100.76 400.489 100.612 400.985 100.296C401.481 99.9797 401.899 99.543 402.24 98.9857C402.589 98.4223 402.843 97.7856 403.002 97.0757C403.16 96.3722 403.194 95.7381 403.105 95.1735C403.016 94.6089 402.796 94.1583 402.447 93.8216C402.097 93.4849 401.604 93.3064 400.968 93.2862C400.351 93.2665 399.797 93.4053 399.305 93.7024C398.815 93.9932 398.397 94.414 398.051 94.9647C397.714 95.5094 397.461 96.1524 397.295 96.894C397.129 97.6356 397.093 98.292 397.187 98.8631C397.281 99.4342 397.504 99.885 397.855 100.215C398.212 100.546 398.693 100.721 399.297 100.74Z" fill="#323847"/>
<path d="M341.811 123.981L322.277 138.934M233.818 117.87L314.894 241.53" stroke="#323847" stroke-width="1.1086" stroke-dasharray="6.65 6.65"/>
<path d="M150.92 341.549C150.155 341.524 149.491 341.361 148.926 341.06C148.363 340.751 147.959 340.32 147.712 339.766C147.466 339.212 147.429 338.551 147.601 337.783C147.753 337.107 148.012 336.566 148.379 336.159C148.748 335.745 149.187 335.426 149.695 335.201C150.212 334.969 150.758 334.802 151.333 334.7C151.915 334.598 152.496 334.52 153.074 334.468C153.831 334.4 154.442 334.348 154.907 334.313C155.38 334.279 155.734 334.205 155.97 334.092C156.213 333.979 156.367 333.778 156.432 333.49L156.446 333.426C156.615 332.673 156.534 332.081 156.201 331.652C155.878 331.216 155.287 330.985 154.428 330.957C153.548 330.929 152.813 331.097 152.223 331.462C151.634 331.819 151.19 332.209 150.892 332.632L149.255 331.963C149.733 331.255 150.281 330.708 150.898 330.324C151.521 329.939 152.162 329.676 152.818 329.534C153.482 329.392 154.117 329.33 154.723 329.35C155.113 329.362 155.55 329.422 156.034 329.53C156.52 329.63 156.97 329.829 157.383 330.126C157.804 330.416 158.107 330.848 158.291 331.421C158.484 331.987 158.475 332.739 158.265 333.676L156.522 341.451L154.66 341.391L155.02 339.786L154.934 339.783C154.754 340.032 154.484 340.3 154.122 340.587C153.761 340.866 153.312 341.104 152.774 341.299C152.245 341.488 151.627 341.571 150.92 341.549ZM151.566 339.931C152.302 339.954 152.954 339.833 153.522 339.568C154.09 339.302 154.554 338.951 154.913 338.516C155.274 338.074 155.508 337.609 155.617 337.124L155.992 335.454C155.892 335.543 155.7 335.622 155.415 335.691C155.14 335.754 154.823 335.807 154.464 335.853C154.112 335.898 153.769 335.937 153.435 335.969C153.103 335.994 152.837 336.014 152.637 336.029C152.14 336.077 151.666 336.164 151.216 336.292C150.767 336.412 150.383 336.602 150.064 336.862C149.751 337.121 149.543 337.483 149.439 337.948C149.298 338.575 149.43 339.058 149.833 339.397C150.245 339.729 150.823 339.907 151.566 339.931ZM166.533 334.13L166.907 332.461L176.602 332.77L176.228 334.439L166.533 334.13ZM165.514 338.673L165.888 337.004L175.584 337.312L175.209 338.982L165.514 338.673ZM183.173 339.044L183.523 337.48L193.054 326.761L194.223 326.799L193.678 329.228L192.877 329.203L185.679 337.293L185.651 337.42L195.195 337.724L194.816 339.414L183.173 339.044ZM190.022 342.517L190.851 338.82L191.017 338.08L193.552 326.777L195.413 326.836L191.883 342.577L190.022 342.517ZM201.207 343.086C200.55 343.065 199.916 342.928 199.305 342.675C198.695 342.414 198.178 341.997 197.755 341.423C197.34 340.842 197.075 340.064 196.959 339.089C196.844 338.114 196.949 336.9 197.274 335.45C197.587 334.055 197.997 332.824 198.506 331.755C199.022 330.686 199.615 329.79 200.286 329.066C200.965 328.336 201.708 327.792 202.515 327.435C203.323 327.071 204.182 326.903 205.091 326.932C205.993 326.961 206.754 327.162 207.375 327.537C208.003 327.911 208.47 328.419 208.777 329.06C209.085 329.694 209.213 330.418 209.161 331.232L207.257 331.171C207.234 330.461 207.016 329.866 206.601 329.384C206.193 328.903 205.563 328.649 204.712 328.622C203.464 328.582 202.36 329.083 201.4 330.123C200.449 331.157 199.758 332.635 199.327 334.558L199.457 334.562C199.85 334.134 200.284 333.772 200.757 333.475C201.232 333.171 201.733 332.946 202.26 332.8C202.789 332.646 203.331 332.578 203.886 332.596C204.809 332.626 205.603 332.878 206.266 333.353C206.932 333.821 207.407 334.457 207.691 335.26C207.978 336.056 208.007 336.962 207.78 337.976C207.562 338.948 207.139 339.828 206.512 340.617C205.894 341.398 205.127 342.016 204.211 342.469C203.298 342.915 202.296 343.121 201.207 343.086ZM201.586 341.396C202.249 341.417 202.88 341.278 203.478 340.977C204.077 340.67 204.593 340.25 205.024 339.718C205.458 339.179 205.749 338.578 205.897 337.916C206.044 337.261 206.025 336.665 205.841 336.127C205.665 335.582 205.353 335.143 204.904 334.81C204.463 334.476 203.911 334.299 203.247 334.278C202.584 334.257 201.944 334.403 201.329 334.717C200.721 335.031 200.197 335.454 199.758 335.986C199.328 336.512 199.043 337.088 198.902 337.714C198.762 338.341 198.781 338.934 198.961 339.493C199.142 340.045 199.456 340.495 199.901 340.842C200.353 341.19 200.915 341.375 201.586 341.396Z" fill="#323847"/>
<path d="M275.691 345.501C274.919 345.476 274.327 345.33 273.915 345.061C273.505 344.786 273.21 344.482 273.03 344.15C272.851 343.811 272.717 343.533 272.628 343.318L272.411 343.311L272.004 345.128L270.229 345.071L273.759 329.331L275.598 329.39L274.296 335.2L274.447 335.205C274.63 335.005 274.879 334.75 275.196 334.441C275.514 334.125 275.932 333.848 276.45 333.609C276.969 333.37 277.621 333.263 278.408 333.288C279.425 333.321 280.263 333.599 280.923 334.124C281.584 334.641 282.029 335.365 282.256 336.294C282.493 337.216 282.472 338.297 282.194 339.537C281.914 340.783 281.455 341.861 280.815 342.77C280.177 343.672 279.416 344.36 278.532 344.836C277.648 345.311 276.701 345.533 275.691 345.501ZM275.818 343.866C276.59 343.891 277.28 343.711 277.89 343.326C278.501 342.934 279.013 342.4 279.425 341.726C279.846 341.051 280.15 340.295 280.338 339.457C280.524 338.626 280.562 337.871 280.453 337.194C280.343 336.517 280.073 335.973 279.642 335.562C279.218 335.151 278.613 334.933 277.827 334.908C277.069 334.884 276.392 335.05 275.797 335.407C275.202 335.757 274.697 336.262 274.28 336.923C273.872 337.577 273.568 338.347 273.369 339.235C273.17 340.122 273.127 340.912 273.241 341.603C273.356 342.288 273.627 342.832 274.052 343.235C274.486 343.632 275.075 343.843 275.818 343.866ZM290.304 338.072L290.678 336.403L300.373 336.711L299.999 338.38L290.304 338.072ZM289.285 342.614L289.659 340.945L299.355 341.254L298.98 342.923L289.285 342.614ZM306.587 346.229L306.895 344.856L313.498 339.321C314.266 338.679 314.905 338.117 315.412 337.637C315.926 337.157 316.33 336.702 316.623 336.271C316.923 335.841 317.126 335.386 317.234 334.907C317.358 334.351 317.329 333.868 317.145 333.458C316.969 333.041 316.675 332.716 316.262 332.483C315.85 332.25 315.351 332.124 314.767 332.105C314.147 332.086 313.578 332.192 313.061 332.423C312.551 332.655 312.12 332.993 311.766 333.435C311.421 333.871 311.182 334.389 311.047 334.987L309.186 334.928C309.393 334.005 309.791 333.202 310.38 332.519C310.977 331.836 311.694 331.312 312.531 330.949C313.376 330.579 314.268 330.408 315.206 330.438C316.151 330.468 316.944 330.692 317.584 331.11C318.226 331.52 318.678 332.063 318.941 332.738C319.212 333.407 319.256 334.149 319.073 334.966C318.944 335.544 318.709 336.104 318.369 336.646C318.039 337.182 317.534 337.779 316.856 338.438C316.185 339.098 315.28 339.895 314.14 340.831L309.678 344.498L309.649 344.624L317.137 344.863L316.758 346.553L306.587 346.229ZM324.177 347.002C322.994 346.964 322.055 346.615 321.361 345.955C320.666 345.294 320.233 344.358 320.061 343.147C319.891 341.929 319.998 340.464 320.382 338.753C320.764 337.048 321.31 335.601 322.02 334.411C322.739 333.214 323.588 332.312 324.567 331.705C325.547 331.09 326.626 330.802 327.801 330.839C328.977 330.877 329.912 331.229 330.605 331.897C331.299 332.557 331.731 333.5 331.899 334.725C332.077 335.944 331.974 337.405 331.592 339.11C331.208 340.821 330.661 342.272 329.951 343.462C329.243 344.645 328.399 345.541 327.42 346.148C326.448 346.755 325.367 347.04 324.177 347.002ZM324.551 345.333C325.352 345.358 326.086 345.13 326.754 344.648C327.423 344.158 328.009 343.439 328.513 342.491C329.023 341.542 329.429 340.396 329.731 339.05C330.034 337.698 330.145 336.539 330.064 335.571C329.99 334.604 329.733 333.859 329.291 333.334C328.849 332.809 328.228 332.534 327.427 332.508C326.23 332.47 325.18 333.004 324.278 334.11C323.376 335.217 322.698 336.784 322.243 338.812C321.941 340.157 321.827 341.313 321.901 342.28C321.982 343.247 322.244 343.993 322.685 344.518C323.136 345.036 323.758 345.308 324.551 345.333Z" fill="#323847"/>
</g>
<rect x="0.744608" y="0.961026" width="275.242" height="326.238" rx="21.2182" transform="matrix(0.999493 0.0318261 -0.218804 0.975769 166.228 44.4992)" stroke="white" stroke-opacity="0.26" stroke-width="1.90757"/>
</g>
<g filter="url(#filter7_b_1300_30846)">
<rect x="58.8133" y="230.332" width="96.1493" height="96.1493" rx="48.0747" fill="#89B4F4" fill-opacity="0.2"/>
<path fill-rule="evenodd" clip-rule="evenodd" d="M99.9783 261.408L114.132 261.741C115.475 261.772 116.584 261.798 117.485 261.893C118.421 261.992 119.28 262.176 120.08 262.608C121.321 263.278 122.318 264.323 122.928 265.593C123.322 266.413 123.466 267.279 123.52 268.219C123.573 269.123 123.547 270.232 123.515 271.575L123.183 285.729C123.151 287.072 123.125 288.181 123.03 289.082C122.931 290.018 122.747 290.877 122.315 291.677C121.646 292.917 120.601 293.915 119.33 294.525C118.51 294.918 117.644 295.063 116.704 295.117C115.8 295.17 114.691 295.144 113.348 295.112L99.194 294.78C97.8509 294.748 96.7423 294.722 95.8411 294.627C94.905 294.528 94.0467 294.344 93.2465 293.912C92.0057 293.243 91.0087 292.198 90.3983 290.927C90.0047 290.107 89.8605 289.241 89.8059 288.301C89.7533 287.397 89.7794 286.288 89.811 284.945L90.1436 270.791C90.1751 269.448 90.2012 268.339 90.2962 267.438C90.3948 266.502 90.5796 265.644 91.0112 264.843C91.6806 263.603 92.7256 262.606 93.9965 261.995C94.8161 261.602 95.6821 261.457 96.6218 261.403C97.5266 261.35 98.6351 261.376 99.9783 261.408ZM96.8154 264.735C96.0824 264.778 95.7058 264.877 95.4417 265.004C94.8063 265.309 94.2837 265.808 93.949 266.428C93.8099 266.686 93.6928 267.058 93.6159 267.788C93.5369 268.537 93.5127 269.509 93.4791 270.938L93.1498 284.954C93.1162 286.384 93.0947 287.355 93.1384 288.108C93.1809 288.841 93.2805 289.217 93.4073 289.481C93.7125 290.117 94.211 290.639 94.8314 290.974C95.0893 291.113 95.4608 291.23 96.191 291.307C96.9405 291.386 97.9121 291.41 99.3414 291.444L113.357 291.773C114.787 291.807 115.758 291.829 116.511 291.785C117.244 291.742 117.62 291.643 117.885 291.516C118.52 291.211 119.042 290.712 119.377 290.092C119.516 289.834 119.633 289.462 119.71 288.732C119.789 287.983 119.814 287.011 119.847 285.582L120.176 271.566C120.21 270.136 120.232 269.165 120.188 268.412C120.145 267.679 120.046 267.303 119.919 267.039C119.614 266.403 119.115 265.881 118.495 265.546C118.237 265.407 117.865 265.29 117.135 265.213C116.386 265.134 115.414 265.11 113.985 265.076L99.9688 264.747C98.5395 264.713 97.5678 264.692 96.8154 264.735ZM101.078 267.277C101.999 267.299 102.729 268.063 102.707 268.985L102.668 270.653L104.337 270.693C105.258 270.714 105.988 271.479 105.966 272.4C105.944 273.322 105.18 274.051 104.258 274.03L102.59 273.991L102.55 275.659C102.529 276.581 101.764 277.31 100.843 277.289C99.9212 277.267 99.1917 276.502 99.2133 275.581L99.2525 273.912L97.5839 273.873C96.6624 273.851 95.9329 273.087 95.9546 272.165C95.9762 271.244 96.7408 270.514 97.6624 270.536L99.3309 270.575L99.3702 268.906C99.3918 267.985 100.156 267.255 101.078 267.277ZM114.904 268.091C115.571 267.455 116.627 267.479 117.264 268.146C117.9 268.813 117.875 269.87 117.208 270.506L98.4224 288.429C97.7555 289.066 96.699 289.041 96.0627 288.374C95.4264 287.707 95.4512 286.65 96.1181 286.014L114.904 268.091ZM107.36 284.12C107.382 283.198 108.146 282.469 109.068 282.49L115.742 282.647C116.664 282.669 117.393 283.433 117.372 284.355C117.35 285.277 116.585 286.006 115.664 285.984L108.99 285.828C108.068 285.806 107.339 285.041 107.36 284.12Z" fill="white"/>
<rect x="60.4036" y="231.922" width="92.9687" height="92.9687" rx="46.4843" stroke="white" stroke-opacity="0.08" stroke-width="3.18066"/>
</g>
</g>
<defs>
<filter id="filter0_f_1300_30846" x="264.516" y="245.118" width="258.164" height="243.944" filterUnits="userSpaceOnUse" color-interpolation-filters="sRGB">
<feFlood flood-opacity="0" result="BackgroundImageFix"/>
<feBlend mode="normal" in="SourceGraphic" in2="BackgroundImageFix" result="shape"/>
<feGaussianBlur stdDeviation="1.8962" result="effect1_foregroundBlur_1300_30846"/>
</filter>
<filter id="filter1_f_1300_30846" x="285.754" y="112.587" width="434.347" height="320.658" filterUnits="userSpaceOnUse" color-interpolation-filters="sRGB">
<feFlood flood-opacity="0" result="BackgroundImageFix"/>
<feBlend mode="normal" in="SourceGraphic" in2="BackgroundImageFix" result="shape"/>
<feGaussianBlur stdDeviation="63.7122" result="effect1_foregroundBlur_1300_30846"/>
</filter>
<filter id="filter2_f_1300_30846" x="85.5991" y="315.181" width="434.347" height="320.658" filterUnits="userSpaceOnUse" color-interpolation-filters="sRGB">
<feFlood flood-opacity="0" result="BackgroundImageFix"/>
<feBlend mode="normal" in="SourceGraphic" in2="BackgroundImageFix" result="shape"/>
<feGaussianBlur stdDeviation="63.7122" result="effect1_foregroundBlur_1300_30846"/>
</filter>
<filter id="filter3_f_1300_30846" x="31.6715" y="-24.0256" width="248.792" height="235.089" filterUnits="userSpaceOnUse" color-interpolation-filters="sRGB">
<feFlood flood-opacity="0" result="BackgroundImageFix"/>
<feBlend mode="normal" in="SourceGraphic" in2="BackgroundImageFix" result="shape"/>
<feGaussianBlur stdDeviation="1.82736" result="effect1_foregroundBlur_1300_30846"/>
</filter>
<filter id="filter4_f_1300_30846" x="52.1349" y="-151.747" width="418.579" height="309.017" filterUnits="userSpaceOnUse" color-interpolation-filters="sRGB">
<feFlood flood-opacity="0" result="BackgroundImageFix"/>
<feBlend mode="normal" in="SourceGraphic" in2="BackgroundImageFix" result="shape"/>
<feGaussianBlur stdDeviation="61.3993" result="effect1_foregroundBlur_1300_30846"/>
</filter>
<filter id="filter5_f_1300_30846" x="-140.753" y="43.4937" width="418.579" height="309.017" filterUnits="userSpaceOnUse" color-interpolation-filters="sRGB">
<feFlood flood-opacity="0" result="BackgroundImageFix"/>
<feBlend mode="normal" in="SourceGraphic" in2="BackgroundImageFix" result="shape"/>
<feGaussianBlur stdDeviation="61.3993" result="effect1_foregroundBlur_1300_30846"/>
</filter>
<filter id="filter6_b_1300_30846" x="33.176" y="-16.5424" width="470.893" height="451.099" filterUnits="userSpaceOnUse" color-interpolation-filters="sRGB">
<feFlood flood-opacity="0" result="BackgroundImageFix"/>
<feGaussianBlur in="BackgroundImageFix" stdDeviation="30.521"/>
<feComposite in2="SourceAlpha" operator="in" result="effect1_backgroundBlur_1300_30846"/>
<feBlend mode="normal" in="SourceGraphic" in2="effect1_backgroundBlur_1300_30846" result="shape"/>
</filter>
<filter id="filter7_b_1300_30846" x="29.7232" y="201.242" width="154.33" height="154.33" filterUnits="userSpaceOnUse" color-interpolation-filters="sRGB">
<feFlood flood-opacity="0" result="BackgroundImageFix"/>
<feGaussianBlur in="BackgroundImageFix" stdDeviation="14.545"/>
<feComposite in2="SourceAlpha" operator="in" result="effect1_backgroundBlur_1300_30846"/>
<feBlend mode="normal" in="SourceGraphic" in2="effect1_backgroundBlur_1300_30846" result="shape"/>
</filter>
<linearGradient id="paint0_linear_1300_30846" x1="113.772" y1="0" x2="113.772" y2="149.504" gradientUnits="userSpaceOnUse">
<stop stop-color="#285BF3"/>
<stop offset="1" stop-color="#285BF3" stop-opacity="0"/>
</linearGradient>
<clipPath id="clip0_1300_30846">
<rect width="559.552" height="448.914" fill="white" transform="translate(35.6851 -33.0085) rotate(4.44509)"/>
</clipPath>
<clipPath id="clip1_1300_30846">
<rect width="199.101" height="235.735" rx="15.9281" transform="matrix(0.999493 0.0318261 -0.218804 0.975769 319.888 248.911)" fill="white"/>
</clipPath>
<clipPath id="clip2_1300_30846">
<rect width="191.873" height="227.177" rx="15.3498" transform="matrix(0.999493 0.0318261 -0.218804 0.975769 85.0335 -20.3709)" fill="white"/>
</clipPath>
<clipPath id="clip3_1300_30846">
<rect width="277.15" height="328.145" rx="22.172" transform="matrix(0.999493 0.0318261 -0.218804 0.975769 166.018 44.4996)" fill="white"/>
</clipPath>
</defs>
</svg>
