<svg width="32" height="32" viewBox="0 0 32 32" fill="none" xmlns="http://www.w3.org/2000/svg">
<path fill-rule="evenodd" clip-rule="evenodd" d="M8.20784 17.5349C8.20784 16.504 9.04357 15.6683 10.0745 15.6683H13.3626C14.099 15.6683 14.6959 16.2652 14.6959 17.0016C14.6959 17.738 14.099 18.3349 13.3626 18.3349H10.8745V19.4535H12.5138C13.9865 19.4535 15.1804 20.6474 15.1804 22.1202V23.665C15.1804 25.1378 13.9865 26.3317 12.5138 26.3317H10.8745C9.40174 26.3317 8.20784 25.1378 8.20784 23.665V17.5349ZM10.8745 22.1202V23.665H12.5138V22.1202H10.8745Z" fill="white"/>
<path fill-rule="evenodd" clip-rule="evenodd" d="M19.4864 15.6683C18.0136 15.6683 16.8197 16.8622 16.8197 18.3349V23.665C16.8197 25.1378 18.0136 26.3317 19.4864 26.3317H21.1257C22.5984 26.3317 23.7923 25.1378 23.7923 23.665V18.3349C23.7923 16.8622 22.5984 15.6683 21.1257 15.6683H19.4864ZM19.4864 18.3349H21.1257V23.665H19.4864V18.3349Z" fill="white"/>
<path fill-rule="evenodd" clip-rule="evenodd" d="M10.6667 1.33331C11.4031 1.33331 12.0001 1.93027 12.0001 2.66665V3.99998H20.0001V2.66665C20.0001 1.93027 20.597 1.33331 21.3334 1.33331C22.0698 1.33331 22.6667 1.93027 22.6667 2.66665V4.00215C23.3007 4.0065 23.8548 4.0196 24.3358 4.0589C25.0853 4.12014 25.7742 4.25156 26.4214 4.58128C27.4249 5.0926 28.2408 5.9085 28.7521 6.91203C29.0818 7.55914 29.2133 8.24808 29.2745 8.99754C29.3334 9.71913 29.3334 10.6049 29.3334 11.6782V22.9884C29.3334 24.0617 29.3334 24.9475 29.2745 25.6691C29.2133 26.4185 29.0818 27.1075 28.7521 27.7546C28.2408 28.7581 27.4249 29.574 26.4214 30.0853C25.7742 30.4151 25.0853 30.5465 24.3358 30.6077C23.6143 30.6667 22.7285 30.6667 21.6552 30.6666H10.345C9.2717 30.6667 8.3859 30.6667 7.66431 30.6077C6.91485 30.5465 6.22591 30.4151 5.5788 30.0853C4.57527 29.574 3.75937 28.7581 3.24805 27.7546C2.91833 27.1075 2.78691 26.4185 2.72567 25.6691C2.66672 24.9475 2.66673 24.0617 2.66675 22.9884V11.6782C2.66673 10.605 2.66672 9.71913 2.72567 8.99754C2.78691 8.24808 2.91833 7.55914 3.24805 6.91203C3.75937 5.9085 4.57527 5.0926 5.5788 4.58128C6.22591 4.25156 6.91485 4.12014 7.66432 4.0589C8.14539 4.0196 8.69946 4.0065 9.33342 4.00215V2.66665C9.33342 1.93027 9.93037 1.33331 10.6667 1.33331ZM9.33342 6.669C8.73938 6.67317 8.27292 6.68473 7.88147 6.71671C7.29691 6.76447 6.99797 6.85104 6.78944 6.9573C6.28768 7.21296 5.87973 7.62091 5.62407 8.12267C5.51781 8.3312 5.43124 8.63014 5.38349 9.2147C5.33445 9.81481 5.33342 10.5912 5.33342 11.7333V12H26.6667V11.7333C26.6667 10.5912 26.6657 9.81482 26.6167 9.2147C26.5689 8.63014 26.4823 8.3312 26.3761 8.12267C26.1204 7.62091 25.7125 7.21296 25.2107 6.9573C25.0022 6.85104 24.7032 6.76447 24.1187 6.71671C23.7272 6.68473 23.2608 6.67317 22.6667 6.669V7.99998C22.6667 8.73636 22.0698 9.33331 21.3334 9.33331C20.597 9.33331 20.0001 8.73636 20.0001 7.99998V6.66665H12.0001V7.99998C12.0001 8.73636 11.4031 9.33331 10.6667 9.33331C9.93037 9.33331 9.33342 8.73636 9.33342 7.99998V6.669ZM26.6667 14.6666H5.33342V22.9333C5.33342 24.0754 5.33445 24.8518 5.38349 25.4519C5.43125 26.0365 5.51781 26.3354 5.62407 26.544C5.87973 27.0457 6.28768 27.4537 6.78944 27.7093C6.99797 27.8156 7.29691 27.9021 7.88147 27.9499C8.48159 27.9989 9.25798 28 10.4001 28H21.6001C22.7422 28 23.5186 27.9989 24.1187 27.9499C24.7033 27.9021 25.0022 27.8156 25.2107 27.7093C25.7125 27.4537 26.1204 27.0457 26.3761 26.544C26.4823 26.3354 26.5689 26.0365 26.6167 25.4519C26.6657 24.8518 26.6667 24.0754 26.6667 22.9333V14.6666Z" fill="white"/>
</svg>
