<svg width="115" height="115" viewBox="0 0 115 115" fill="none" xmlns="http://www.w3.org/2000/svg">
<g filter="url(#filter0_b_1272_43525)">
<circle cx="57.0155" cy="57.6694" r="45.8793" transform="rotate(16.4704 57.0155 57.6694)" fill="#285BF3"/>
<circle cx="57.0155" cy="57.6694" r="44.914" transform="rotate(16.4704 57.0155 57.6694)" stroke="white" stroke-opacity="0.15" stroke-width="1.93068"/>
</g>
<g clip-path="url(#clip0_1272_43525)">
<path fill-rule="evenodd" clip-rule="evenodd" d="M57.0341 37.2431L68.1072 40.5168C69.4822 40.9233 70.617 41.2588 71.5191 41.6077C72.4561 41.97 73.2889 42.3993 73.993 43.0668C75.085 44.1019 75.8212 45.4562 76.0962 46.9355C76.2735 47.8894 76.1809 48.8218 75.9755 49.8051C75.7777 50.7519 75.4422 51.8867 75.0356 53.2616L73.1462 59.6523C72.8673 60.5957 71.8765 61.1344 70.9331 60.8555C69.9897 60.5765 69.451 59.5857 69.73 58.6423L71.5985 52.3222C72.0311 50.8591 72.3238 49.864 72.4883 49.0766C72.6485 48.3097 72.6509 47.8939 72.5937 47.5865C72.4562 46.8469 72.0881 46.1697 71.5421 45.6522C71.3152 45.4371 70.9651 45.2129 70.2343 44.9303C69.484 44.6402 68.4898 44.3448 67.0266 43.9123L56.0946 40.6802C54.6314 40.2476 53.6364 39.9549 52.849 39.7904C52.082 39.6302 51.6663 39.6278 51.3589 39.685C50.6192 39.8224 49.9421 40.1906 49.4245 40.7365C49.2094 40.9634 48.9853 41.3136 48.7027 42.0444C48.4126 42.7946 48.1172 43.7889 47.6846 45.252L42.4325 63.0166C41.9999 64.4798 41.7072 65.4748 41.5427 66.2622C41.3825 67.0292 41.3802 67.4449 41.4373 67.7523C41.5748 68.492 41.9429 69.1691 42.4889 69.6867C42.7158 69.9018 43.0659 70.1259 43.7967 70.4085C44.547 70.6986 45.5412 70.994 47.0044 71.4266L51.6163 72.7901C52.5597 73.069 53.0984 74.0599 52.8195 75.0033C52.5405 75.9467 51.5497 76.4853 50.6063 76.2064L45.9238 74.822C44.5488 74.4155 43.414 74.08 42.5119 73.7312C41.5749 73.3689 40.7421 72.9396 40.038 72.2721C38.946 71.2369 38.2098 69.8826 37.9348 68.4033C37.7575 67.4494 37.8501 66.5171 38.0555 65.5337C38.2533 64.587 38.5888 63.4522 38.9954 62.0772L44.2892 44.1715C44.6957 42.7965 45.0312 41.6616 45.38 40.7595C45.7423 39.8226 46.1717 38.9898 46.8392 38.2856C47.8743 37.1937 49.2286 36.4575 50.7079 36.1825C51.6618 36.0052 52.5942 36.0978 53.5775 36.3032C54.5243 36.501 55.6591 36.8365 57.0341 37.2431ZM50.9999 46.6037C51.2788 45.6603 52.2697 45.1217 53.213 45.4006L66.8781 49.4407C67.8215 49.7196 68.3601 50.7104 68.0812 51.6538C67.8023 52.5972 66.8115 53.1358 65.8681 52.8569L52.203 48.8168C51.2596 48.5379 50.721 47.5471 50.9999 46.6037ZM48.9798 53.4362C49.2588 52.4929 50.2496 51.9542 51.193 52.2331L61.4418 55.2632C62.3852 55.5421 62.9238 56.533 62.6449 57.4763C62.366 58.4197 61.3751 58.9584 60.4318 58.6795L50.183 55.6494C49.2396 55.3705 48.7009 54.3796 48.9798 53.4362ZM65.4968 66.678C63.1383 65.9807 60.6612 67.3273 59.9639 69.6858C59.2666 72.0442 60.6133 74.5214 62.9717 75.2186C65.3302 75.9159 67.8073 74.5693 68.5046 72.2108C69.2019 69.8524 67.8552 67.3752 65.4968 66.678ZM56.5476 68.6758C57.8027 64.4306 62.2616 62.0066 66.5068 63.2617C70.752 64.5168 73.1759 68.9757 71.9208 73.2209C71.4762 74.7249 70.6293 76.0004 69.5323 76.9646L70.6117 78.9502C71.0815 79.8144 70.7618 80.896 69.8975 81.3658C69.0332 81.8357 67.9516 81.5159 67.4818 80.6516L66.4024 78.6661C64.9967 79.0624 63.4658 79.0796 61.9617 78.6349C57.7165 77.3798 55.2925 72.9209 56.5476 68.6758ZM46.9598 60.2688C47.2387 59.3254 48.2296 58.7867 49.1729 59.0656L52.5892 60.0757C53.5326 60.3546 54.0712 61.3454 53.7923 62.2888C53.5134 63.2322 52.5226 63.7709 51.5792 63.4919L48.1629 62.4819C47.2195 62.203 46.6809 61.2122 46.9598 60.2688Z" fill="white"/>
</g>
<defs>
<filter id="filter0_b_1272_43525" x="-8.18264" y="-7.52871" width="130.396" height="130.396" filterUnits="userSpaceOnUse" color-interpolation-filters="sRGB">
<feFlood flood-opacity="0" result="BackgroundImageFix"/>
<feGaussianBlur in="BackgroundImageFix" stdDeviation="9.65339"/>
<feComposite in2="SourceAlpha" operator="in" result="effect1_backgroundBlur_1272_43525"/>
<feBlend mode="normal" in="SourceGraphic" in2="effect1_backgroundBlur_1272_43525" result="shape"/>
</filter>
<clipPath id="clip0_1272_43525">
<rect width="42.7494" height="42.7494" fill="white" transform="translate(42.578 31.1117) rotate(16.4704)"/>
</clipPath>
</defs>
</svg>
