<svg width="70" height="40" viewBox="0 0 70 40" fill="none" xmlns="http://www.w3.org/2000/svg">
<path d="M33.4743 12.6319C33.4743 9.08301 30.5776 6.20605 27.0044 6.20605H8.24539C4.67218 6.20605 1.77551 9.08301 1.77551 12.6319V31.2633C1.77551 34.8122 4.67218 37.6892 8.24539 37.6892H27.0044C30.5776 37.6892 33.4743 34.8122 33.4743 31.2633V12.6319Z" fill="#285BF3"/>
<path d="M18.6231 15.0303V12.2422H9.76868V27.0051H12.69V21.3086H18.4518V18.5305H12.69V15.0303H18.6231Z" fill="white"/>
<path fill-rule="evenodd" clip-rule="evenodd" d="M22.9446 22.8531H30.9328C31.0033 22.4018 31.0335 22.0307 31.0335 21.7399C31.0335 20.1653 30.5299 18.8515 29.5124 17.7783C28.5152 16.7052 27.2459 16.1736 25.6745 16.1736C24.0225 16.1736 22.6828 16.7152 21.6553 17.7783C20.6076 18.8414 20.0838 20.1653 20.0838 21.7399C20.0838 23.3345 20.6177 24.6684 21.6754 25.7215C22.7331 26.7746 24.1333 27.3061 25.886 27.3061C27.9209 27.3061 29.452 26.5539 30.4996 25.0495L28.2936 23.7858C27.7597 24.4879 26.974 24.8389 25.9264 24.8389C24.2945 24.8389 23.2972 24.1769 22.9446 22.8531ZM28.3037 20.747H22.9044C23.0555 20.065 23.3778 19.5435 23.8512 19.1724C24.3347 18.8013 24.9392 18.6108 25.6745 18.6108C26.3192 18.6108 26.8833 18.8013 27.3567 19.1624C27.8302 19.5335 28.1526 20.055 28.3037 20.747Z" fill="white"/>
<path d="M32.4756 2.37891H9.29187C6.43329 2.37891 4.11597 4.68048 4.11597 7.5196V30.5456C4.11597 33.3847 6.4333 35.6863 9.29187 35.6863H32.4756C35.0311 35.6863 37.1541 33.8469 37.5755 31.4284H35.5869C35.2007 32.7736 33.954 33.7585 32.4756 33.7585H9.29187C7.50526 33.7585 6.05693 32.3201 6.05693 30.5456V7.5196C6.05693 5.74515 7.50526 4.30667 9.29187 4.30667H32.4756C34.2622 4.30667 35.7105 5.74514 35.7105 7.5196V8.57124H37.6515V7.5196C37.6515 4.68047 35.3342 2.37891 32.4756 2.37891Z" fill="#01050F"/>
<path fill-rule="evenodd" clip-rule="evenodd" d="M47.0235 27.4515H44.7715L41.3468 21.6344H37.7457V27.4515H35.7117V12.2422H41.8242C43.1318 12.2422 44.2526 12.7072 45.1866 13.6371C46.1206 14.5463 46.5876 15.6622 46.5876 16.9641C46.5876 17.9457 46.2867 18.8446 45.6951 19.6608C45.0829 20.4874 44.3253 21.0557 43.4224 21.3761L47.0235 27.4515ZM41.8242 14.133H37.7457V19.8055H41.8242C42.5818 19.8055 43.2252 19.5265 43.7441 18.9789C44.2837 18.4313 44.5536 17.7597 44.5536 16.9538C44.5536 16.1582 44.2837 15.4866 43.7441 14.9596C43.2252 14.412 42.5818 14.133 41.8242 14.133Z" fill="#01050F"/>
<path d="M55.3939 22.3473V16.5921H57.2931V27.4515H55.3939V25.8914C54.6363 27.1209 53.4636 27.7408 51.8551 27.7408C50.5786 27.7408 49.5512 27.3379 48.7832 26.532C48.0153 25.726 47.6313 24.6411 47.6313 23.2669V16.6025H49.5304V23.1636C49.5304 24.0315 49.7691 24.7134 50.2465 25.2094C50.7239 25.7054 51.3881 25.943 52.2287 25.943C53.2042 25.943 53.9721 25.6433 54.5429 25.0441C55.1137 24.4241 55.3939 23.5355 55.3939 22.3473Z" fill="#01050F"/>
<path d="M61.0454 19.5265C61.0454 20.2187 61.7615 20.7664 63.204 21.159C63.7436 21.2727 64.2002 21.3967 64.5634 21.5207C64.9371 21.6446 65.3418 21.8306 65.788 22.0786C66.2343 22.3266 66.5664 22.6469 66.805 23.0602C67.0334 23.4631 67.1579 23.9384 67.1579 24.4964C67.1579 25.4779 66.774 26.2735 66.006 26.8625C65.2381 27.4515 64.2625 27.751 63.0794 27.751C62.0312 27.751 61.1284 27.5238 60.3605 27.0692C59.5925 26.6145 59.0529 25.9946 58.7311 25.2093L60.3708 24.2794C60.5472 24.796 60.869 25.2093 61.3567 25.5193C61.8341 25.8189 62.4153 25.9739 63.0794 25.9739C63.7332 25.9739 64.2625 25.8499 64.6465 25.6019C65.0408 25.3539 65.2381 24.982 65.2381 24.4964C65.2381 23.7628 64.522 23.2255 63.0794 22.8845C62.8369 22.8163 62.6238 22.7587 62.4402 22.7091C62.2625 22.6611 62.1123 22.6204 61.9898 22.5849C61.7407 22.5125 61.4086 22.3782 60.9727 22.1923C60.5472 22.0063 60.2151 21.81 59.9972 21.593C59.7793 21.3863 59.5821 21.097 59.3953 20.7457C59.2085 20.3944 59.1255 19.9914 59.1255 19.5575C59.1255 18.6172 59.4887 17.8423 60.2151 17.2327C60.952 16.6231 61.8756 16.3234 62.986 16.3234C63.8681 16.3234 64.6672 16.5198 65.3522 16.9227C66.0475 17.3257 66.5664 17.8733 66.9088 18.5862L65.321 19.4748C64.9266 18.5449 64.1483 18.0799 62.986 18.0799C62.436 18.0799 61.969 18.2143 61.6058 18.4726C61.2322 18.7205 61.0454 19.0719 61.0454 19.5265Z" fill="#01050F"/>
</svg>
