<svg width="20" height="20" viewBox="0 0 20 20" fill="none" xmlns="http://www.w3.org/2000/svg">
<g clip-path="url(#clip0_592_7446)">
<path fill-rule="evenodd" clip-rule="evenodd" d="M9.99992 2.49992C5.85778 2.49992 2.49992 5.85778 2.49992 9.99992C2.49992 14.1421 5.85778 17.4999 9.99992 17.4999C14.1421 17.4999 17.4999 14.1421 17.4999 9.99992C17.4999 5.85778 14.1421 2.49992 9.99992 2.49992ZM0.833252 9.99992C0.833252 4.93731 4.93731 0.833252 9.99992 0.833252C15.0625 0.833252 19.1666 4.93731 19.1666 9.99992C19.1666 15.0625 15.0625 19.1666 9.99992 19.1666C4.93731 19.1666 0.833252 15.0625 0.833252 9.99992ZM9.99992 4.16658C10.4602 4.16658 10.8333 4.53968 10.8333 4.99992V9.48489L13.7059 10.9212C14.1176 11.1271 14.2844 11.6276 14.0786 12.0393C13.8728 12.4509 13.3722 12.6178 12.9606 12.4119L9.62724 10.7453C9.34492 10.6041 9.16658 10.3156 9.16658 9.99992V4.99992C9.16658 4.53968 9.53968 4.16658 9.99992 4.16658Z" fill="white"/>
</g>
<defs>
<clipPath id="clip0_592_7446">
<rect width="20" height="20" fill="white"/>
</clipPath>
</defs>
</svg>
