<svg width="20" height="20" viewBox="0 0 20 20" fill="none" xmlns="http://www.w3.org/2000/svg">
<path d="M9.90786 1.40723C5.23504 1.45629 1.45629 5.23504 1.40723 9.90786C5.21245 9.7851 6.94941 9.69298 8.34268 8.34268C9.69298 6.94941 9.7851 5.21245 9.90786 1.40723Z" fill="#285BF3"/>
<path d="M9.90786 18.5927C5.23504 18.5436 1.45629 14.7648 1.40723 10.092C5.21245 10.2148 6.94941 10.3069 8.34268 11.6572C9.69298 13.0505 9.7851 14.7874 9.90786 18.5927Z" fill="#285BF3"/>
<path d="M18.5927 10.092C18.5436 14.7648 14.7648 18.5436 10.092 18.5927C10.2148 14.7874 10.3069 13.0505 11.6572 11.6572C13.0505 10.3069 14.7874 10.2148 18.5927 10.092Z" fill="#285BF3"/>
<path d="M10.092 1.40723C14.7648 1.45629 18.5436 5.23504 18.5927 9.90786C14.7874 9.7851 13.0505 9.69298 11.6572 8.34268C10.3069 6.94941 10.2086 5.21245 10.092 1.40723Z" fill="#285BF3"/>
</svg>
