<svg width="186" height="134" viewBox="0 0 186 134" fill="none" xmlns="http://www.w3.org/2000/svg">
<path fill-rule="evenodd" clip-rule="evenodd" d="M146.982 128.7C146.74 126.151 147.267 123.589 148.495 121.343C149.669 119.138 151.464 117.324 153.656 116.126C155.848 114.927 158.343 114.396 160.833 114.597L161.53 114.656C165.634 115.004 169.708 113.708 172.856 111.053C176.004 108.397 177.968 104.6 178.316 100.496C178.664 96.392 177.368 92.318 174.712 89.1699C172.057 86.0219 168.259 84.0577 164.156 83.7095L162.84 83.5979C160.352 83.3767 157.982 82.4327 156.023 80.8819C154.064 79.3312 152.601 77.2414 151.814 74.87L151.867 74.251C151.035 71.8301 150.948 69.2155 151.616 66.7444C152.284 64.2733 153.677 62.0589 155.615 60.3869L156.118 59.9621C157.679 58.6471 158.965 57.0374 159.903 55.225C160.841 53.4127 161.413 51.4332 161.586 49.3997C161.758 47.3663 161.528 45.3188 160.909 43.3743C160.29 41.4297 159.293 39.6264 157.976 38.0672C156.661 36.5066 155.052 35.2205 153.239 34.2825C151.427 33.3444 149.447 32.7727 147.414 32.6002C145.38 32.4277 143.333 32.6576 141.388 33.2769C139.444 33.8962 137.641 34.8927 136.081 36.2094L135.578 36.6342C133.603 38.2631 131.186 39.2631 128.637 39.5052C126.089 39.7473 123.527 39.2205 121.28 37.9926C119.075 36.8177 117.262 35.0237 116.064 32.8314C114.865 30.639 114.334 28.1441 114.535 25.6537L114.594 24.9574C114.942 20.8536 113.646 16.7796 110.99 13.6315C108.335 10.4835 104.537 8.51931 100.434 8.1711C96.3299 7.82288 92.2558 9.11916 89.1078 11.7748C85.9597 14.4304 83.9956 18.2277 83.6473 22.3315L83.5357 23.6468C83.3146 26.1355 82.3705 28.5052 80.8198 30.4643C79.269 32.4233 77.1793 33.8861 74.8078 34.6727L74.1889 34.6202C71.768 35.4521 69.1534 35.5396 66.6822 34.8716C64.2111 34.2036 61.9968 32.8106 60.3247 30.8723L59.8999 30.3687C58.5849 28.8081 56.9752 27.522 55.1629 26.584C53.3505 25.6459 51.371 25.0742 49.3376 24.9017C47.3041 24.7291 45.2566 24.9591 43.3121 25.5784C41.3676 26.1977 39.5642 27.1942 38.0051 28.5109C36.4445 29.8259 35.1584 31.4356 34.2203 33.248C33.2822 35.0603 32.7106 37.0398 32.538 39.0733C32.3655 41.1067 32.5955 43.1542 33.2147 45.0987C33.834 47.0432 34.8305 48.8466 36.1473 50.4058L36.5721 50.9093C38.201 52.8841 39.2009 55.3015 39.443 57.8498C39.6851 60.3982 39.1583 62.9606 37.9304 65.2068C36.8422 67.5358 35.0786 69.4836 32.8687 70.797C30.6588 72.1103 28.1049 72.7285 25.539 72.5711L24.8427 72.512C20.7389 72.1638 16.6649 73.4601 13.5169 76.1157C10.3688 78.7713 8.40463 82.5687 8.05642 86.6725C7.7082 90.7763 9.00448 94.8503 11.6601 97.9984C14.3157 101.146 18.1131 103.111 22.2169 103.459L23.5321 103.57C26.0208 103.792 28.3906 104.736 30.3496 106.286C32.3086 107.837 33.7715 109.927 34.558 112.298C35.3899 114.719 35.4775 117.334 34.8095 119.805C34.1414 122.276 32.7485 124.49 30.8102 126.162L30.3066 126.587C28.746 127.902 27.4599 129.512 26.5218 131.324C25.5837 133.137 25.0121 135.116 24.8395 137.15C24.667 139.183 24.8969 141.231 25.5162 143.175C26.1355 145.12 27.132 146.923 28.4488 148.482C29.7637 150.043 31.3734 151.329 33.1858 152.267C34.9982 153.205 36.9777 153.777 39.0111 153.949C41.0445 154.122 43.0921 153.892 45.0366 153.272C46.9811 152.653 48.7845 151.657 50.3436 150.34L50.8472 149.915C52.8219 148.286 55.2393 147.286 57.7877 147.044C60.336 146.802 62.8985 147.329 65.1446 148.557C67.4736 149.645 69.4214 151.409 70.7348 153.618C72.0482 155.828 72.6663 158.382 72.5089 160.948L72.4499 161.644C72.1017 165.748 73.3979 169.822 76.0535 172.97C78.7091 176.118 82.5065 178.083 86.6103 178.431C90.7141 178.779 94.7881 177.483 97.9362 174.827C101.084 172.172 103.048 168.374 103.397 164.27L103.508 162.955C103.729 160.466 104.673 158.097 106.224 156.138C107.775 154.179 109.865 152.716 112.236 151.929C114.657 151.097 117.272 151.01 119.743 151.678C122.214 152.346 124.428 153.739 126.1 155.677L126.525 156.181C127.84 157.741 129.45 159.027 131.262 159.965C133.075 160.903 135.054 161.475 137.087 161.648C139.121 161.82 141.168 161.59 143.113 160.971C145.057 160.352 146.861 159.355 148.42 158.038C149.981 156.723 151.267 155.114 152.205 153.301C153.143 151.489 153.714 149.51 153.887 147.476C154.06 145.443 153.83 143.395 153.21 141.451C152.591 139.506 151.594 137.703 150.278 136.144L149.853 135.64C148.224 133.665 147.224 131.248 146.982 128.7ZM91.0462 118.806C105.147 120.002 117.547 109.541 118.744 95.441C119.94 81.3406 109.479 68.94 95.3789 67.7436C81.2784 66.5472 68.8779 77.0079 67.6814 91.1083C66.485 105.209 76.9458 117.609 91.0462 118.806Z" fill="#353E54"/>
<mask id="mask0_993_9739" style="mask-type:alpha" maskUnits="userSpaceOnUse" x="8" y="8" width="171" height="171">
<path fill-rule="evenodd" clip-rule="evenodd" d="M146.981 128.7C146.739 126.151 147.266 123.589 148.494 121.343C149.669 119.138 151.463 117.324 153.655 116.126C155.848 114.927 158.342 114.396 160.833 114.597L161.529 114.656C165.633 115.004 169.707 113.708 172.855 111.053C176.003 108.397 177.967 104.6 178.316 100.496C178.664 96.392 177.367 92.318 174.712 89.1699C172.056 86.0219 168.259 84.0577 164.155 83.7095L162.84 83.5979C160.351 83.3767 157.981 82.4327 156.022 80.8819C154.063 79.3312 152.6 77.2414 151.814 74.87L151.866 74.251C151.035 71.8301 150.947 69.2155 151.615 66.7444C152.283 64.2733 153.676 62.0589 155.614 60.3869L156.118 59.9621C157.678 58.6471 158.965 57.0374 159.903 55.225C160.841 53.4127 161.412 51.4332 161.585 49.3997C161.757 47.3663 161.528 45.3188 160.908 43.3743C160.289 41.4297 159.292 39.6264 157.976 38.0672C156.661 36.5066 155.051 35.2205 153.239 34.2825C151.426 33.3444 149.447 32.7727 147.413 32.6002C145.38 32.4277 143.332 32.6576 141.388 33.2769C139.443 33.8962 137.64 34.8927 136.081 36.2094L135.577 36.6342C133.603 38.2631 131.185 39.2631 128.637 39.5052C126.088 39.7473 123.526 39.2205 121.28 37.9926C119.075 36.8177 117.261 35.0237 116.063 32.8314C114.864 30.639 114.333 28.1441 114.534 25.6537L114.594 24.9574C114.942 20.8536 113.645 16.7796 110.99 13.6315C108.334 10.4835 104.537 8.51931 100.433 8.1711C96.3293 7.82288 92.2552 9.11916 89.1072 11.7748C85.9592 14.4304 83.995 18.2277 83.6468 22.3315L83.5352 23.6468C83.314 26.1355 82.3699 28.5052 80.8192 30.4643C79.2684 32.4233 77.1787 33.8861 74.8072 34.6727L74.1883 34.6202C71.7674 35.4521 69.1528 35.5396 66.6817 34.8716C64.2105 34.2036 61.9962 32.8106 60.3241 30.8723L59.8993 30.3687C58.5843 28.8081 56.9746 27.522 55.1623 26.584C53.3499 25.6459 51.3704 25.0742 49.337 24.9017C47.3035 24.7291 45.256 24.9591 43.3115 25.5784C41.367 26.1977 39.5636 27.1942 38.0045 28.5109C36.4439 29.8259 35.1578 31.4356 34.2197 33.248C33.2816 35.0603 32.71 37.0398 32.5374 39.0733C32.3649 41.1067 32.5949 43.1542 33.2142 45.0987C33.8335 47.0432 34.83 48.8466 36.1467 50.4058L36.5715 50.9093C38.2004 52.8841 39.2003 55.3015 39.4424 57.8498C39.6846 60.3982 39.1577 62.9606 37.9298 65.2068C36.8417 67.5358 35.078 69.4836 32.8681 70.797C30.6582 72.1103 28.1043 72.7285 25.5384 72.5711L24.8421 72.512C20.7383 72.1638 16.6643 73.4601 13.5163 76.1157C10.3682 78.7713 8.40404 82.5687 8.05583 86.6725C7.70762 90.7763 9.00389 94.8503 11.6595 97.9984C14.3151 101.146 18.1125 103.111 22.2163 103.459L23.5315 103.57C26.0202 103.792 28.39 104.736 30.349 106.286C32.308 107.837 33.7709 109.927 34.5574 112.298C35.3893 114.719 35.4769 117.334 34.8089 119.805C34.1408 122.276 32.7479 124.49 30.8096 126.162L30.306 126.587C28.7454 127.902 27.4593 129.512 26.5212 131.324C25.5831 133.137 25.0115 135.116 24.8389 137.15C24.6664 139.183 24.8964 141.231 25.5156 143.175C26.1349 145.12 27.1314 146.923 28.4482 148.482C29.7632 150.043 31.3729 151.329 33.1852 152.267C34.9976 153.205 36.9771 153.777 39.0105 153.949C41.044 154.122 43.0915 153.892 45.036 153.272C46.9805 152.653 48.7839 151.657 50.343 150.34L50.8466 149.915C52.8213 148.286 55.2387 147.286 57.7871 147.044C60.3354 146.802 62.8979 147.329 65.144 148.557C67.473 149.645 69.4209 151.409 70.7342 153.618C72.0476 155.828 72.6657 158.382 72.5084 160.948L72.4493 161.644C72.1011 165.748 73.3973 169.822 76.0529 172.97C78.7085 176.118 82.5059 178.083 86.6097 178.431C90.7135 178.779 94.7876 177.483 97.9356 174.827C101.084 172.172 103.048 168.374 103.396 164.27L103.508 162.955C103.729 160.466 104.673 158.097 106.224 156.138C107.774 154.179 109.864 152.716 112.236 151.929C114.656 151.097 117.271 151.01 119.742 151.678C122.213 152.346 124.428 153.739 126.1 155.677L126.525 156.181C127.84 157.741 129.449 159.027 131.262 159.965C133.074 160.903 135.053 161.475 137.087 161.648C139.12 161.82 141.168 161.59 143.112 160.971C145.057 160.352 146.86 159.355 148.419 158.038C149.98 156.723 151.266 155.114 152.204 153.301C153.142 151.489 153.714 149.51 153.886 147.476C154.059 145.443 153.829 143.395 153.21 141.451C152.59 139.506 151.594 137.703 150.277 136.144L149.852 135.64C148.223 133.665 147.224 131.248 146.981 128.7ZM91.0456 118.806C105.146 120.002 117.547 109.541 118.743 95.441C119.939 81.3406 109.479 68.94 95.3783 67.7436C81.2778 66.5472 68.8773 77.0079 67.6809 91.1083C66.4844 105.209 76.9452 117.609 91.0456 118.806Z" fill="#353E54"/>
</mask>
<g mask="url(#mask0_993_9739)">
<g opacity="0.3" filter="url(#filter0_f_993_9739)">
<ellipse cx="6.18001" cy="66.4969" rx="83.5764" ry="52.1257" transform="rotate(-40.1846 6.18001 66.4969)" fill="#89B4F4"/>
</g>
</g>
<defs>
<filter id="filter0_f_993_9739" x="-134.329" y="-68.8726" width="281.018" height="270.739" filterUnits="userSpaceOnUse" color-interpolation-filters="sRGB">
<feFlood flood-opacity="0" result="BackgroundImageFix"/>
<feBlend mode="normal" in="SourceGraphic" in2="BackgroundImageFix" result="shape"/>
<feGaussianBlur stdDeviation="34.1638" result="effect1_foregroundBlur_993_9739"/>
</filter>
</defs>
</svg>
