<svg width="219" height="222" viewBox="0 0 219 222" fill="none" xmlns="http://www.w3.org/2000/svg">
<path fill-rule="evenodd" clip-rule="evenodd" d="M238.288 104.684C236.959 101.12 236.728 97.2387 237.625 93.5418C238.462 89.9243 240.339 86.6304 243.024 84.0657C245.709 81.5011 249.085 79.7775 252.737 79.1071L253.76 78.9237C259.784 77.8428 265.132 74.413 268.628 69.3887C272.123 64.3645 273.48 58.1574 272.399 52.133C271.318 46.1086 267.888 40.7604 262.864 37.2648C257.84 33.7692 251.633 32.4127 245.608 33.4936L243.678 33.8401C240.02 34.4812 236.255 34.039 232.846 32.5678C229.437 31.0965 226.532 28.6606 224.49 25.5597L224.327 24.6511C222.2 21.4967 221.068 17.7777 221.074 13.9735C221.081 10.1693 222.228 6.45441 224.366 3.30789L224.925 2.50417C226.659 0.0156098 227.885 -2.79021 228.533 -5.75288C229.181 -8.71555 229.239 -11.777 228.704 -14.7621C228.168 -17.7472 227.049 -20.5974 225.411 -23.1499C223.774 -25.7024 221.649 -27.9069 219.158 -29.6376C216.67 -31.3711 213.864 -32.597 210.901 -33.2454C207.938 -33.8937 204.877 -33.9517 201.892 -33.4161C198.907 -32.8805 196.056 -31.7618 193.504 -30.1239C190.952 -28.486 188.747 -26.3611 187.016 -23.8706L186.457 -23.0669C184.25 -19.9683 181.166 -17.6018 177.601 -16.2727C174.037 -14.9436 170.156 -14.7128 166.459 -15.61C162.841 -16.447 159.548 -18.3235 156.983 -21.0086C154.418 -23.6936 152.695 -27.07 152.024 -30.7221L151.841 -31.7442C150.76 -37.7686 147.33 -43.1169 142.306 -46.6125C137.282 -50.108 131.075 -51.4646 125.05 -50.3836C119.026 -49.3027 113.677 -45.8729 110.182 -40.8486C106.686 -35.8244 105.33 -29.6173 106.411 -23.5929L106.757 -21.6621C107.398 -18.0048 106.956 -14.2399 105.485 -10.8307C104.014 -7.42149 101.578 -4.5169 98.4768 -2.47446L97.5682 -2.31144C94.4138 -0.184936 90.6948 0.947866 86.8906 0.940887C83.0864 0.933914 79.3715 -0.212518 76.225 -2.35057L75.4213 -2.90975C72.9327 -4.6432 70.1269 -5.86914 67.1642 -6.51748C64.2016 -7.16582 61.1402 -7.22385 58.1551 -6.68825C55.1699 -6.15264 52.3197 -5.03391 49.7672 -3.39602C47.2148 -1.75812 45.0102 0.366817 43.2795 2.8573C41.546 5.34585 40.3201 8.15168 39.6718 11.1143C39.0234 14.077 38.9654 17.1384 39.501 20.1235C40.0366 23.1086 41.1553 25.9589 42.7932 28.5114C44.4311 31.0638 46.5561 33.2684 49.0465 34.9991L49.8503 35.5583C52.9489 37.7652 55.3153 40.8498 56.6444 44.4143C57.9735 47.9787 58.2043 51.8596 57.3071 55.5565C56.6423 59.3186 54.8612 62.7936 52.1952 65.53C49.5291 68.2663 46.1016 70.1373 42.3581 70.8997L41.3359 71.0831C35.3115 72.1641 29.9632 75.5939 26.4677 80.6181C22.9721 85.6424 21.6156 91.8494 22.6965 97.8738C23.7774 103.898 27.2073 109.246 32.2315 112.742C37.2557 116.238 43.4628 117.594 49.4872 116.513L51.418 116.167C55.0753 115.526 58.8403 115.968 62.2495 117.439C65.6587 118.91 68.5632 121.346 70.6057 124.447C72.7322 127.602 73.865 131.321 73.858 135.125C73.851 138.929 72.7046 142.644 70.5665 145.79L70.0074 146.594C68.2739 149.083 67.048 151.888 66.3996 154.851C65.7513 157.814 65.6933 160.875 66.2289 163.86C66.7645 166.845 67.8832 169.696 69.5211 172.248C71.159 174.801 73.2839 177.005 75.7744 178.736C78.263 180.469 81.0688 181.695 84.0315 182.344C86.9941 182.992 90.0555 183.05 93.0406 182.514C96.0258 181.979 98.876 180.86 101.428 179.222C103.981 177.584 106.186 175.459 107.916 172.969L108.475 172.165C110.682 169.067 113.767 166.7 117.331 165.371C120.896 164.042 124.777 163.811 128.474 164.708C132.236 165.373 135.711 167.154 138.447 169.82C141.183 172.486 143.054 175.914 143.817 179.657L144 180.679C145.081 186.704 148.511 192.052 153.535 195.548C158.559 199.043 164.767 200.4 170.791 199.319C176.815 198.238 182.164 194.808 185.659 189.784C189.155 184.76 190.511 178.553 189.43 172.528L189.084 170.597C188.443 166.94 188.885 163.175 190.356 159.766C191.827 156.357 194.263 153.452 197.364 151.41C200.519 149.283 204.238 148.15 208.042 148.157C211.846 148.164 215.561 149.311 218.707 151.449L219.511 152.008C222 153.741 224.806 154.967 227.768 155.616C230.731 156.264 233.792 156.322 236.777 155.787C239.763 155.251 242.613 154.132 245.165 152.494C247.718 150.856 249.922 148.731 251.653 146.241C253.386 143.752 254.612 140.947 255.261 137.984C255.909 135.021 255.967 131.96 255.432 128.975C254.896 125.99 253.777 123.139 252.139 120.587C250.501 118.034 248.376 115.83 245.886 114.099L245.082 113.54C241.984 111.333 239.617 108.248 238.288 104.684ZM154.191 112.029C174.891 108.315 188.66 88.5238 184.946 67.8243C181.232 47.1248 161.441 33.3553 140.741 37.0693C120.042 40.7833 106.272 60.5744 109.986 81.274C113.7 101.974 133.492 115.743 154.191 112.029Z" fill="#353E54"/>
<mask id="mask0_993_9734" style="mask-type:alpha" maskUnits="userSpaceOnUse" x="22" y="-51" width="251" height="251">
<path fill-rule="evenodd" clip-rule="evenodd" d="M238.288 104.684C236.959 101.119 236.728 97.2384 237.626 93.5415C238.463 89.924 240.339 86.6302 243.024 84.0655C245.709 81.5008 249.086 79.7772 252.738 79.1069L253.76 78.9235C259.784 77.8426 265.132 74.4127 268.628 69.3885C272.124 64.3643 273.48 58.1572 272.399 52.1328C271.318 46.1084 267.888 40.7601 262.864 37.2646C257.84 33.769 251.633 32.4125 245.609 33.4934L243.678 33.8398C240.02 34.481 236.255 34.0388 232.846 32.5675C229.437 31.0963 226.532 28.6603 224.49 25.5594L224.327 24.6508C222.2 21.4965 221.068 17.7774 221.075 13.9732C221.082 10.169 222.228 6.45417 224.366 3.30764L224.925 2.50393C226.659 0.0153657 227.885 -2.79046 228.533 -5.75313C229.181 -8.71579 229.239 -11.7772 228.704 -14.7623C228.168 -17.7474 227.049 -20.5977 225.412 -23.1501C223.774 -25.7026 221.649 -27.9072 219.158 -29.6379C216.67 -31.3713 213.864 -32.5973 210.901 -33.2456C207.939 -33.8939 204.877 -33.952 201.892 -33.4164C198.907 -32.8808 196.057 -31.762 193.504 -30.1241C190.952 -28.4862 188.747 -26.3613 187.016 -23.8708L186.457 -23.0671C184.25 -19.9685 181.166 -17.6021 177.601 -16.273C174.037 -14.9439 170.156 -14.7131 166.459 -15.6103C162.842 -16.4473 159.548 -18.3238 156.983 -21.0088C154.418 -23.6938 152.695 -27.0702 152.024 -30.7223L151.841 -31.7445C150.76 -37.7689 147.33 -43.1171 142.306 -46.6127C137.282 -50.1083 131.075 -51.4648 125.05 -50.3839C119.026 -49.3029 113.678 -45.8731 110.182 -40.8489C106.687 -35.8246 105.33 -29.6176 106.411 -23.5932L106.757 -21.6624C107.399 -18.0051 106.956 -14.2401 105.485 -10.8309C104.014 -7.42173 101.578 -4.51714 98.477 -2.47471L97.5684 -2.31168C94.414 -0.18518 90.695 0.947622 86.8908 0.940643C83.0866 0.93367 79.3717 -0.212762 76.2252 -2.35082L75.4215 -2.91C72.9329 -4.64344 70.1271 -5.86938 67.1644 -6.51772C64.2018 -7.16607 61.1404 -7.22409 58.1552 -6.68849C55.1701 -6.15289 52.3199 -5.03416 49.7674 -3.39626C47.215 -1.75836 45.0104 0.366573 43.2797 2.85706C41.5462 5.34561 40.3203 8.15144 39.672 11.1141C39.0236 14.0768 38.9656 17.1382 39.5012 20.1233C40.0368 23.1084 41.1555 25.9587 42.7934 28.5111C44.4313 31.0636 46.5563 33.2682 49.0467 34.9988L49.8505 35.558C52.9491 37.765 55.3155 40.8495 56.6446 44.414C57.9737 47.9785 58.2045 51.8594 57.3073 55.5562C56.6425 59.3183 54.8614 62.7934 52.1953 65.5297C49.5293 68.266 46.1018 70.137 42.3583 70.8995L41.3361 71.0829C35.3117 72.1638 29.9634 75.5937 26.4679 80.6179C22.9723 85.6421 21.6158 91.8492 22.6967 97.8736C23.7776 103.898 27.2075 109.246 32.2317 112.742C37.2559 116.237 43.463 117.594 49.4874 116.513L51.4182 116.167C55.0755 115.525 58.8405 115.968 62.2497 117.439C65.6589 118.91 68.5634 121.346 70.6059 124.447C72.7324 127.601 73.8652 131.32 73.8582 135.125C73.8512 138.929 72.7048 142.644 70.5667 145.79L70.0076 146.594C68.2741 149.082 67.0482 151.888 66.3998 154.851C65.7515 157.814 65.6935 160.875 66.2291 163.86C66.7647 166.845 67.8834 169.695 69.5213 172.248C71.1592 174.8 73.2841 177.005 75.7746 178.736C78.2632 180.469 81.069 181.695 84.0317 182.343C86.9943 182.992 90.0557 183.05 93.0408 182.514C96.026 181.979 98.8762 180.86 101.429 179.222C103.981 177.584 106.186 175.459 107.916 172.969L108.476 172.165C110.683 169.066 113.767 166.7 117.332 165.371C120.896 164.042 124.777 163.811 128.474 164.708C132.236 165.373 135.711 167.154 138.447 169.82C141.184 172.486 143.055 175.914 143.817 179.657L144 180.679C145.081 186.704 148.511 192.052 153.535 195.547C158.56 199.043 164.767 200.4 170.791 199.319C176.816 198.238 182.164 194.808 185.659 189.784C189.155 184.759 190.511 178.552 189.431 172.528L189.084 170.597C188.443 166.94 188.885 163.175 190.356 159.766C191.828 156.356 194.264 153.452 197.365 151.409C200.519 149.283 204.238 148.15 208.042 148.157C211.846 148.164 215.561 149.311 218.708 151.449L219.511 152.008C222 153.741 224.806 154.967 227.768 155.616C230.731 156.264 233.793 156.322 236.778 155.786C239.763 155.251 242.613 154.132 245.165 152.494C247.718 150.856 249.923 148.731 251.653 146.241C253.387 143.752 254.613 140.946 255.261 137.984C255.909 135.021 255.967 131.96 255.432 128.974C254.896 125.989 253.777 123.139 252.139 120.587C250.502 118.034 248.377 115.83 245.886 114.099L245.082 113.54C241.984 111.333 239.617 108.248 238.288 104.684ZM154.191 112.029C174.891 108.315 188.66 88.5236 184.946 67.8241C181.232 47.1245 161.441 33.355 140.742 37.0691C120.042 40.7831 106.273 60.5742 109.987 81.2737C113.701 101.973 133.492 115.743 154.191 112.029Z" fill="#353E54"/>
</mask>
<g mask="url(#mask0_993_9734)">
<g opacity="0.3" filter="url(#filter0_f_993_9734)">
<ellipse cx="59.1407" cy="51.0967" rx="89.657" ry="52.1257" transform="rotate(-33.2557 59.1407 51.0967)" fill="#285BF3"/>
</g>
</g>
<defs>
<filter id="filter0_f_993_9734" x="-89.4467" y="-82.9376" width="297.175" height="268.069" filterUnits="userSpaceOnUse" color-interpolation-filters="sRGB">
<feFlood flood-opacity="0" result="BackgroundImageFix"/>
<feBlend mode="normal" in="SourceGraphic" in2="BackgroundImageFix" result="shape"/>
<feGaussianBlur stdDeviation="34.1638" result="effect1_foregroundBlur_993_9734"/>
</filter>
</defs>
</svg>
