<svg width="213" height="88" viewBox="0 0 213 88" fill="none" xmlns="http://www.w3.org/2000/svg">
<g>
<path fill-rule="evenodd" clip-rule="evenodd" d="M55.6751 70.0673C55.6213 69.3598 55.4797 68.6618 55.2535 67.9894C54.1332 68.2604 52.8925 68.3508 52.501 67.1703C51.709 67.7234 50.73 67.94 49.7786 67.7726C49.351 66.8029 48.9294 65.8332 48.5319 64.8635C48.2006 64.6226 47.8694 64.4118 47.5682 64.1949C46.5684 62.9904 46.4479 61.834 44.7796 61.1112C43.4184 59.0514 43.3582 59.1116 40.7864 58.5695C40.0576 58.2925 39.1542 57.8106 38.3772 57.8106C38.6483 58.2322 38.9494 58.69 39.2566 59.1417C39.7083 59.3224 40.1901 59.5031 40.678 59.6898C41.7982 60.8101 41.9789 62.7013 43.2498 63.9058C43.2924 63.4981 43.2409 63.086 43.0992 62.7013C45.0988 62.7013 45.8818 63.3999 46.0324 65.3634C44.882 67.9412 42.521 67.6642 41.3405 65.273C41.0092 65.0321 39.0096 64.1227 37.0462 63.0988C36.2572 62.0387 35.8416 60.7679 34.896 59.8283C33.837 59.2499 32.8656 58.5239 32.011 57.6721C31.942 56.6862 31.6406 55.7306 31.1316 54.8835C30.7703 54.5522 28.8911 53.1609 28.8911 52.7092C26.4458 51.9323 27.2107 43.7652 27.4095 41.8679C27.8878 40.638 28.2645 39.371 28.5358 38.0795C28.7164 36.2726 28.7164 36.2726 28.9272 31.2074C29.6861 30.0028 30.5595 29.2138 28.9574 28.5753C29.4994 27.2443 30.8967 26.395 31.4087 25.0941C31.4087 24.552 31.2581 24.3051 31.2581 24.0039C33.4384 22.5825 35.0405 21.7634 35.9199 19.282C36.375 18.7679 36.8907 18.3108 37.4557 17.9208H37.6665C37.6063 18.6194 37.5762 19.3121 37.5461 20.0408C39.7264 19.6433 39.9552 19.5229 40.2383 19.553C39.9909 19.8683 39.8347 20.2453 39.7866 20.6431C40.4852 20.7034 41.1779 20.7937 41.9067 20.8841C44.1472 21.7032 46.8093 20.7034 49.1342 21.3418C49.2954 21.5181 49.4162 21.7275 49.488 21.9553C49.5598 22.1832 49.5808 22.424 49.5498 22.6608C50.9892 22.8776 51.441 24.2449 50.1039 24.7628C49.2543 24.7369 48.4061 24.8488 47.5923 25.0941C47.5979 25.2482 47.6181 25.4015 47.6525 25.5518C48.3452 25.5518 49.0739 25.5819 49.8027 25.6121C50.0436 26.913 48.8631 28.1236 47.6224 27.3045C46.6341 27.3164 45.6494 27.4274 44.6832 27.6358C44.2315 28.756 42.0211 28.8403 41.0695 28.8403C40.8937 30.9463 40.8836 33.0629 41.0394 35.1704C43.1895 34.8994 44.0508 34.8332 46.1528 35.4114C47.279 34.6933 48.4733 34.088 49.7184 33.6045C54.4404 32.3999 59.59 33.1769 64.4384 33.1769C64.6918 33.1725 64.9451 33.1826 65.1973 33.207C65.0268 33.6726 64.7577 34.0958 64.4083 34.4477C63.6346 34.6595 62.876 34.923 62.1377 35.2367C62.3359 35.4149 62.5764 35.5393 62.8363 35.5981C62.4087 37.1098 58.7468 36.5377 58.3553 37.7784C58.5888 37.9755 58.8686 38.1102 59.1684 38.1699C56.1569 39.5009 53.6032 38.3506 50.4532 38.2C50.1942 38.2623 49.9404 38.3448 49.6943 38.4469C50.8146 40.3622 51.0374 43.9459 51.1217 46.7405C51.1068 46.8907 51.1068 47.042 51.1217 47.1922C52.3085 49.4543 53.0642 51.9174 53.3502 54.4559C53.7142 55.4733 54.2568 56.4176 54.9523 57.2445C55.3768 58.4896 55.711 59.7638 55.9521 61.057C56.5544 61.9906 57.1567 62.9602 57.759 63.9299C58.1565 65.4778 60.3308 67.622 60.1682 68.8326C59.8068 68.8326 58.8251 69.7782 58.6745 70.0793H55.663M55.4522 64.4599C55.4945 64.3864 55.5603 64.3291 55.6389 64.2973C55.8558 64.6647 56.9158 66.2668 56.7592 66.7848C56.4861 66.9583 56.2245 67.1495 55.9762 67.357C55.5486 66.9354 55.5486 65.0863 55.4884 64.4539M55.6389 64.2973C55.5746 64.3337 55.5222 64.3882 55.4884 64.4539L54.6452 64.3636C54.6261 64.121 54.6784 63.8781 54.7957 63.6649H55.3077C55.4062 63.8818 55.5168 64.0929 55.6389 64.2973ZM52.6275 64.2973L50.2183 62.7856C50.0677 61.6352 48.8571 60.9426 48.0681 60.1536C47.6164 59.2742 47.1888 58.4009 46.7672 57.5517C45.4361 56.0038 43.4064 56.2206 45.3156 54.0704C45.7232 53.8671 46.157 53.7212 46.6045 53.6367C47.0708 54.9917 48.0476 56.1111 49.3269 56.7566C50.9953 58.5153 50.6279 60.9064 52.2962 62.5687C52.3866 62.8097 53.019 64.1708 52.6275 64.2913M53.8682 61.2798C52.8082 60.7619 53.019 59.738 53.019 58.7984C52.236 57.377 51.718 56.076 50.1761 55.4376C49.7124 54.6606 48.6584 53.4561 49.3209 52.5466C51.2603 52.5466 51.5915 53.974 52.0131 55.5159C52.772 57.1782 53.7116 58.7261 54.5608 60.2981C54.5351 60.5603 54.5251 60.8237 54.5307 61.0871L53.8923 61.2859M38.0038 60.8944C37.4926 59.8875 36.9151 58.9157 36.2752 57.9853C35.155 56.865 33.6432 56.3832 34.7635 54.8955H35.5826C37.2148 56.323 36.8233 58.9851 39.0277 60.2258V60.6173C38.6663 60.7077 38.3351 60.804 38.0038 60.8944ZM38.1724 52.3358C37.0937 52.0606 35.9852 51.919 34.8719 51.9142C32.8723 51.0951 32.0893 50.7096 31.8604 48.4932C32.2545 48.0772 32.7302 47.7471 33.2577 47.5235C34.4357 48.2855 35.4695 49.25 36.3114 50.3723C37.1305 50.7638 37.8231 50.4928 38.6422 51.0951C39.4011 51.1553 39.4011 51.1553 39.5818 51.2456C39.5768 51.339 39.587 51.4326 39.6119 51.5227C39.1665 51.8506 38.6832 52.1236 38.1724 52.3358ZM40.7141 50.6735C40.5635 50.3121 40.4732 50.2458 40.5635 49.8543C42.3704 48.7642 41.5332 47.5536 39.9613 46.7405C39.8107 46.4032 39.6601 46.1021 39.5396 45.8009C39.63 45.5901 39.7203 45.3733 39.8107 45.1986C42.0211 45.0782 43.1414 44.9878 43.84 47.138C43.6834 47.8969 42.9908 48.5594 42.5029 49.1376C42.0211 50.288 41.9609 50.559 40.696 50.6795M47.7489 50.288C46.99 49.2581 46.2974 48.2884 45.0265 49.1978C44.9363 49.1733 44.8428 49.1632 44.7495 49.1677C44.5989 48.1077 45.5385 48.5654 45.9541 47.8969C45.6228 45.3793 42.9426 42.7473 41.4128 40.9043C41.0662 39.4456 40.8844 37.9526 40.8707 36.4533C42.3146 36.4436 43.7348 36.82 44.9844 37.5435C45.1129 37.2161 45.1463 36.8591 45.0807 36.5136C50.8266 38.3204 50.0075 42.94 48.7427 46.078C48.1404 47.1079 47.0141 46.2888 46.9358 47.8848C48.1404 47.8848 48.3873 48.4871 48.9655 49.4568C48.9655 49.9989 48.2066 50.2398 47.7609 50.3061M39.2144 38.471C37.9135 35.5378 38.2146 31.8458 38.4555 28.6657C38.8922 28.6713 39.3152 28.8193 39.6601 29.0873C39.333 32.204 39.1922 35.3375 39.2385 38.471M40.9912 22.45C41.6296 21.8116 42.5029 21.7875 42.6535 22.697C42.5346 22.8054 42.3931 22.886 42.2392 22.9329C42.0853 22.9798 41.9228 22.9919 41.7637 22.9683C41.6045 22.9446 41.4526 22.8858 41.319 22.7962C41.1854 22.7066 41.0734 22.5883 40.9912 22.45ZM49.5257 22.6668C49.3722 22.7172 49.2214 22.7755 49.0739 22.8415C48.556 23.1065 47.9236 22.8054 48.1163 22.2392C48.2006 22.2392 49.5738 22.6367 49.5257 22.6548" fill="#FFFFFF"/>
<path fill-rule="evenodd" clip-rule="evenodd" d="M158.369 44.2862L155.997 51.5768H160.766L158.369 44.2862ZM112.042 44.2862L109.658 51.5768H114.44L112.042 44.2862ZM90.1459 33.22V42.0382L98.8399 33.22H106.093L98.6412 40.672L103.721 53.5764L110.428 33.22H116.141L122.711 53.0051V33.22H132.076L136.398 47.5527L141.167 33.22H150.11V53.0051L156.655 33.22H162.431L169.361 54.3341L176.416 37.567H169.324V33.1703H186.799L178.241 54.421H186.861L186.737 58.768L163.139 58.8301L162.195 55.9735H154.544L153.612 58.8301H142.434V44.8948L138.162 58.8301H131.952L127.505 44.8948V58.8301H116.812L115.88 55.9735H108.217L107.286 58.8301H97.0514L92.2946 46.6212L90.1459 48.7326V58.8301H82.4082V33.22H90.1459Z" fill="#FFFFFF"/>
</g>
</svg>
