<svg width="32" height="32" viewBox="0 0 32 32" fill="none" xmlns="http://www.w3.org/2000/svg">
<path fill-rule="evenodd" clip-rule="evenodd" d="M17.8642 1.44359C18.4072 1.67928 18.7298 2.24471 18.6563 2.83204L17.5104 12L25.7703 12C26.0917 11.9999 26.4171 11.9999 26.683 12.0239C26.9345 12.0467 27.4161 12.1069 27.8337 12.4444C28.3118 12.8308 28.5857 13.4155 28.5764 14.0301C28.5683 14.567 28.3063 14.9755 28.1628 15.1833C28.0111 15.403 27.8027 15.6529 27.5969 15.8997L15.6909 30.1869C15.312 30.6416 14.6787 30.7921 14.1357 30.5564C13.5928 30.3207 13.2702 29.7553 13.3436 29.1679L14.4896 20L6.22962 20C5.90829 20.0001 5.58284 20.0001 5.31693 19.976C5.06546 19.9533 4.5839 19.893 4.16628 19.5556C3.68818 19.1692 3.4143 18.5845 3.42357 17.9698C3.43166 17.433 3.69367 17.0245 3.83717 16.8167C3.98891 16.597 4.19733 16.347 4.40309 16.1002C4.41327 16.088 4.42346 16.0758 4.43362 16.0636L16.309 1.81308C16.6879 1.35837 17.3213 1.2079 17.8642 1.44359ZM6.8467 17.3333H16C16.3824 17.3333 16.7464 17.4975 16.9995 17.7843C17.2527 18.071 17.3705 18.4526 17.323 18.832L16.5538 24.986L25.1533 14.6667H16C15.6175 14.6667 15.2535 14.5024 15.0004 14.2157C14.7473 13.929 14.6295 13.5474 14.6769 13.1679L15.4462 7.01394L6.8467 17.3333Z" fill="white"/>
</svg>
