<svg width="97" height="56" viewBox="0 0 97 56" fill="none" xmlns="http://www.w3.org/2000/svg">
<path d="M46.3857 17.6844C46.3857 12.716 42.3717 8.68823 37.4203 8.68823H11.4256C6.47415 8.68823 2.46021 12.716 2.46021 17.6844V43.7684C2.46021 48.7369 6.47415 52.7646 11.4256 52.7646H37.4203C42.3717 52.7646 46.3857 48.7369 46.3857 43.7684V17.6844Z" fill="#2564EF"/>
<path d="M25.8066 21.0428V17.1394H13.5369V37.8075H17.5849V29.8324H25.5693V25.943H17.5849V21.0428H25.8066Z" fill="#F9F9F9"/>
<path fill-rule="evenodd" clip-rule="evenodd" d="M31.795 31.9947H42.8643C42.962 31.3629 43.0038 30.8434 43.0038 30.4362C43.0038 28.2317 42.3059 26.3924 40.8961 24.89C39.5141 23.3876 37.7553 22.6434 35.5778 22.6434C33.2886 22.6434 31.4321 23.4016 30.0083 24.89C28.5565 26.3783 27.8307 28.2317 27.8307 30.4362C27.8307 32.6687 28.5705 34.5361 30.0362 36.0104C31.5019 37.4847 33.4421 38.2289 35.8709 38.2289C38.6906 38.2289 40.8123 37.1758 42.264 35.0697L39.2071 33.3005C38.4672 34.2834 37.3785 34.7748 35.9268 34.7748C33.6655 34.7748 32.2835 33.8481 31.795 31.9947ZM39.2211 29.0462H31.7392C31.9485 28.0914 32.3952 27.3612 33.0512 26.8417C33.7213 26.3221 34.5589 26.0554 35.5778 26.0554C36.4712 26.0554 37.2529 26.3221 37.9089 26.8277C38.5649 27.3472 39.0117 28.0773 39.2211 29.0462Z" fill="#F9F9F9"/>
<path d="M45.0017 3.33032H12.8757C8.91452 3.33032 5.70337 6.55252 5.70337 10.5273V42.7637C5.70337 46.7385 8.91453 49.9607 12.8757 49.9607H45.0017C48.5429 49.9607 51.4847 47.3855 52.0687 43.9996H49.3131C48.7779 45.8829 47.0503 47.2618 45.0017 47.2618H12.8757C10.4 47.2618 8.39299 45.248 8.39299 42.7637V10.5273C8.39299 8.04306 10.4 6.02919 12.8757 6.02919H45.0017C47.4774 6.02919 49.4844 8.04305 49.4844 10.5273V11.9996H52.174V10.5273C52.174 6.55251 48.9629 3.33032 45.0017 3.33032Z" fill="white"/>
<path fill-rule="evenodd" clip-rule="evenodd" d="M65.161 38.4325H62.0405L57.2948 30.2885H52.3047V38.4325H49.4861V17.1394H57.9563C59.7682 17.1394 61.3214 17.7904 62.6157 19.0923C63.9099 20.3652 64.557 21.9275 64.557 23.7501C64.557 25.1243 64.14 26.3828 63.3203 27.5255C62.4719 28.6828 61.4221 29.4784 60.1709 29.9268L65.161 38.4325ZM57.9563 19.7866H52.3047V27.728H57.9563C59.0061 27.728 59.8977 27.3375 60.6167 26.5708C61.3645 25.8041 61.7384 24.8639 61.7384 23.7356C61.7384 22.6218 61.3645 21.6815 60.6167 20.9438C59.8977 20.1771 59.0061 19.7866 57.9563 19.7866Z" fill="white"/>
<path d="M76.76 31.2866V23.2293H79.3917V38.4325H76.76V36.2482C75.7102 37.9695 74.0852 38.8375 71.8562 38.8375C70.0874 38.8375 68.6637 38.2734 67.5996 37.1451C66.5353 36.0168 66.0033 34.4979 66.0033 32.574V23.2438H68.6349V32.4294C68.6349 33.6444 68.9657 34.5991 69.6272 35.2935C70.2887 35.9878 71.2091 36.3205 72.3739 36.3205C73.7257 36.3205 74.7899 35.901 75.5808 35.0621C76.3717 34.1941 76.76 32.9501 76.76 31.2866Z" fill="white"/>
<path d="M84.5913 27.3374C84.5913 28.3066 85.5836 29.0732 87.5826 29.6229C88.3304 29.7821 88.9631 29.9557 89.4664 30.1293C89.9841 30.3028 90.545 30.5632 91.1633 30.9104C91.7817 31.2576 92.2419 31.7059 92.5726 32.2846C92.889 32.8487 93.0616 33.5142 93.0616 34.2953C93.0616 35.6694 92.5295 36.7833 91.4653 37.6078C90.4012 38.4324 89.0494 38.8518 87.41 38.8518C85.9575 38.8518 84.7064 38.5336 83.6423 37.8972C82.5781 37.2607 81.8303 36.3928 81.3845 35.2933L83.6566 33.9915C83.9011 34.7147 84.3469 35.2933 85.0228 35.7273C85.6843 36.1468 86.4896 36.3638 87.41 36.3638C88.3159 36.3638 89.0494 36.1903 89.5814 35.843C90.1279 35.4959 90.4012 34.9751 90.4012 34.2953C90.4012 33.2682 89.4089 32.516 87.41 32.0387C87.0739 31.9432 86.7786 31.8625 86.5242 31.7931C86.278 31.7258 86.0697 31.669 85.9 31.6192C85.5549 31.5179 85.0947 31.3298 84.4907 31.0695C83.9011 30.8091 83.4409 30.5343 83.1389 30.2305C82.8369 29.9412 82.5636 29.5362 82.3049 29.0443C82.046 28.5525 81.9309 27.9884 81.9309 27.3808C81.9309 26.0645 82.4343 24.9796 83.4409 24.1262C84.4619 23.2727 85.7418 22.8532 87.2806 22.8532C88.5029 22.8532 89.6102 23.128 90.5593 23.6922C91.5228 24.2563 92.2419 25.023 92.7164 26.021L90.5162 27.2651C89.9697 25.9632 88.8912 25.3123 87.2806 25.3123C86.5184 25.3123 85.8713 25.5003 85.3679 25.8619C84.8502 26.2091 84.5913 26.701 84.5913 27.3374Z" fill="white"/>
</svg>
