<svg width="213" height="88" viewBox="0 0 213 88" fill="none" xmlns="http://www.w3.org/2000/svg">
<g>
<path fill-rule="evenodd" clip-rule="evenodd" d="M22.2124 29.8396H53.3443V60.4077H22.2124V29.8396ZM46.7878 33.9104C47.0586 33.3514 47.6028 32.8902 48.3184 32.8902C49.2551 32.8414 50.0891 33.5449 50.1612 34.5945C50.1612 34.7385 50.0933 35.2509 50.0412 35.3729L46.4156 41.1521C46.0479 41.7624 46.1225 42.2259 46.2715 42.7385L51.7399 56.4848H29.2902C27.2926 56.4848 25.7367 54.9001 25.7367 52.9229L25.6647 34.736C25.7392 32.3243 29.166 32.3244 29.2902 34.6652V51.8025C29.2902 52.3419 29.7794 52.9229 30.3707 52.9229H46.8358L42.5979 42.9803C42.4514 42.6629 42.3999 42.3211 42.3999 41.9306C42.3999 41.4936 42.5972 40.8357 42.8681 40.2499L46.7878 33.9104ZM37.6698 34.6652C37.6698 33.4948 38.5478 32.9022 39.4286 32.8961C40.3094 32.89 41.1933 33.4704 41.1933 34.6652V47.0257C41.1933 49.8524 39.0454 51.7317 36.4093 51.7317C33.8452 51.7317 31.7033 49.8524 31.7033 47.0257V34.6652C31.7033 32.3244 35.2268 32.3244 35.2268 34.6652V46.9314C35.2268 48.5668 37.6698 48.7108 37.6698 46.9314V34.6652Z" fill="#FFFFFF"/>
<path d="M65.079 33.3888V46.1135C65.079 49.2941 64.7485 51.0613 62.1148 51.0613C61.6204 51.0613 61.29 51.0613 60.7955 50.8856V56.3631C61.7844 56.717 62.4428 56.717 63.2677 56.717C70.6792 56.717 71.0097 51.2395 71.0097 48.0565V38.8687H75.2906V56.3631H81.2213V33.3888H65.079Z" fill="#FFFFFF"/>
<path d="M83.1966 33.3888L91.269 50.0019L88.3049 56.3631H94.7275L104.281 33.3888H97.8581L94.3995 43.1087L90.2801 33.3888H83.1966Z" fill="#FFFFFF"/>
<path d="M106.092 56.3631H112.023V46.4674L118.117 56.3631H125.695L117.295 44.522L125.529 33.3888H118.448L112.023 43.1087V33.3888H106.092V56.3631Z" fill="#FFFFFF"/>
<path d="M135.413 57.071C143.319 57.071 146.944 51.0613 146.944 44.8759C146.944 38.8687 143.319 32.8591 135.413 32.8591C127.671 32.8591 124.048 38.8687 124.048 44.8759C124.048 51.0613 127.671 57.071 135.413 57.071ZM135.413 51.591C132.776 51.591 130.143 49.2941 130.143 44.8759C130.143 40.4578 132.776 38.3366 135.413 38.3366C138.213 38.3366 140.849 40.4578 140.849 44.8759C140.849 49.2941 138.213 51.591 135.413 51.591Z" fill="#FFFFFF"/>
<path d="M149.908 33.3888V56.3631H155.674L163.908 42.579V56.3631H169.675V33.3888H163.908L155.674 47.1729V33.3888H149.908ZM159.955 32.1512C162.428 32.1512 164.897 31.2676 166.05 28.6167L162.592 27.2034C162.097 28.9706 160.614 29.1488 159.955 29.1488C159.461 29.1488 157.814 28.9706 157.486 27.2034L154.027 28.6167C155.014 31.2676 157.65 32.1512 159.955 32.1512Z" fill="#FFFFFF"/>
<path d="M175.934 33.3888V46.1135C175.934 49.2941 175.603 51.0613 172.97 51.0613C172.475 51.0613 172.145 51.0613 171.65 50.8856V56.3631C172.639 56.717 173.298 56.717 174.122 56.717C181.534 56.717 181.864 51.2395 181.864 48.0565V38.8687H186.145V56.3631H192.076V33.3888H175.934Z" fill="#FFFFFF"/>
</g>
</svg>
