<svg width="72" height="72" viewBox="0 0 72 72" fill="none" xmlns="http://www.w3.org/2000/svg">
<path fill-rule="evenodd" clip-rule="evenodd" d="M33.0756 5.07556C34.5096 3.64148 36.8347 3.64148 38.2688 5.07556L66.2688 33.0756C66.9575 33.7642 67.3444 34.6983 67.3444 35.6722C67.3444 36.6461 66.9575 37.5802 66.2688 38.2688L38.2688 66.2688C36.8347 67.7029 34.5096 67.7029 33.0756 66.2688C31.6415 64.8347 31.6415 62.5096 33.0756 61.0756L54.8067 39.3444H7.6722C5.6441 39.3444 4 37.7003 4 35.6722C4 33.6441 5.6441 32 7.6722 32H54.8067L33.0756 10.2688C31.6415 8.83475 31.6415 6.50964 33.0756 5.07556Z" fill="#F9F9F9"/>
</svg>
