<svg width="58" height="58" viewBox="0 0 58 58" fill="none" xmlns="http://www.w3.org/2000/svg">
<circle cx="29" cy="29" r="29" fill="#285BF3"/>
<path d="M37.4974 38.2084C36.9338 38.2084 36.3933 37.9845 35.9948 37.586C35.5963 37.1875 35.3724 36.647 35.3724 36.0834C35.3724 35.5198 35.5963 34.9793 35.9948 34.5808C36.3933 34.1823 36.9338 33.9584 37.4974 33.9584C38.061 33.9584 38.6015 34.1823 39 34.5808C39.3985 34.9793 39.6224 35.5198 39.6224 36.0834C39.6224 36.647 39.3985 37.1875 39 37.586C38.6015 37.9845 38.061 38.2084 37.4974 38.2084ZM39.6224 25.4584L42.3991 29.0001H36.0807V25.4584M20.4974 38.2084C19.9338 38.2084 19.3933 37.9845 18.9948 37.586C18.5963 37.1875 18.3724 36.647 18.3724 36.0834C18.3724 35.5198 18.5963 34.9793 18.9948 34.5808C19.3933 34.1823 19.9338 33.9584 20.4974 33.9584C21.061 33.9584 21.6015 34.1823 22 34.5808C22.3985 34.9793 22.6224 35.5198 22.6224 36.0834C22.6224 36.647 22.3985 37.1875 22 37.586C21.6015 37.9845 21.061 38.2084 20.4974 38.2084ZM40.3307 23.3334H36.0807V17.6667H16.2474C14.6749 17.6667 13.4141 18.9276 13.4141 20.5001V36.0834H16.2474C16.2474 37.2106 16.6952 38.2916 17.4922 39.0886C18.2892 39.8856 19.3702 40.3334 20.4974 40.3334C21.6246 40.3334 22.7056 39.8856 23.5026 39.0886C24.2996 38.2916 24.7474 37.2106 24.7474 36.0834H33.2474C33.2474 37.2106 33.6952 38.2916 34.4922 39.0886C35.2892 39.8856 36.3702 40.3334 37.4974 40.3334C38.6246 40.3334 39.7056 39.8856 40.5026 39.0886C41.2996 38.2916 41.7474 37.2106 41.7474 36.0834H44.5807V29.0001L40.3307 23.3334Z" fill="white"/>
</svg>
