<svg width="1042" height="698" viewBox="0 0 1042 698" fill="none" xmlns="http://www.w3.org/2000/svg">
<g opacity="0.6" clip-path="url(#clip0_592_8467)">
<path fill-rule="evenodd" clip-rule="evenodd" d="M1014.16 561.331C1011.74 558.279 1009.67 554.939 1007.03 552.08C1005.37 551.273 1006.95 550.128 1007.49 549.092C1008.64 548.06 1008.36 546.905 1007.63 545.71C1007.3 544.342 1006.52 543.438 1005.09 543.213C1003.84 542.847 1002.67 542.373 1002.11 541.111C1001.12 540.479 1003.04 538.402 1003.58 538.814C1007.01 542.064 1010.66 545.054 1014.58 547.698C1018.3 550.051 1021.01 553.644 1024.35 556.415C1026.69 557.344 1029.2 557.973 1031.44 559.091C1034.33 561.226 1037.08 563.609 1040.06 565.586C1045.57 567.811 1051.03 570.149 1056.46 572.551C1054.07 572.741 1051.64 572.727 1049.45 573.823C1048.16 574.29 1046.86 574.756 1045.57 575.222C1044.87 579.349 1047.25 582.633 1049.7 585.687C1051.29 587.586 1051.73 590.097 1052.71 592.318C1055.67 592.849 1058.63 593.377 1061.63 593.565C1062.25 594.68 1062.31 596.363 1063.86 596.537C1065.71 597.386 1067.86 596.754 1069.84 596.949C1071.3 596.564 1071.17 598.588 1071.81 599.442C1069.86 599.625 1067.78 599.33 1065.91 599.815C1064.93 600.494 1062.93 600.709 1063.88 602.258C1064.38 603.794 1064.18 605.732 1065.72 606.674C1067.32 608.012 1068.68 609.539 1069.67 611.374C1068.01 612.074 1066.35 612.7 1064.52 612.442C1063.57 611.853 1063.01 610.483 1062.21 609.607C1059.87 606.166 1056.37 603.695 1053.76 600.503C1052.27 598.012 1051.13 595.268 1049.42 592.936C1048.29 591.89 1047.32 590.443 1046.08 589.647C1044.73 589.806 1043.51 589.747 1043.03 588.274C1040.35 583.973 1036.56 580.537 1033.3 576.69C1030.33 573.41 1027.37 570.097 1024.51 566.739C1022.69 565.546 1020.94 564.176 1018.71 563.87C1017.04 563.423 1015.68 562.13 1014.16 561.331Z" fill="#353E54" stroke="#171B24" stroke-width="0.905775"/>
<path fill-rule="evenodd" clip-rule="evenodd" d="M969.405 558.276C968.154 558.552 967.377 559.778 968.647 561.046C970.04 562.436 970.47 559.816 970.667 559.031C970.786 558.556 969.825 558.527 969.405 558.276Z" fill="#353E54" stroke="#171B24" stroke-width="0.905775"/>
<path fill-rule="evenodd" clip-rule="evenodd" d="M974.453 554.498C974.702 553.504 972.437 556.022 972.686 557.017C972.994 558.246 973.461 558.536 974.453 559.031C975.939 559.773 976.564 557.153 976.725 556.513C977.225 554.516 976.13 554.163 974.453 554.498Z" fill="#353E54" stroke="#171B24" stroke-width="0.905775"/>
<path fill-rule="evenodd" clip-rule="evenodd" d="M1039.32 410.94C1039.32 410.824 1039.32 408.439 1039.32 406.91C1039.32 405.196 1038.8 403.875 1037.81 403.132C1036.2 401.929 1036.7 400.939 1034.78 402.377C1033.94 403.007 1034.34 404.953 1034.53 405.903C1034.76 407.041 1035.64 407.876 1036.04 408.673C1036.43 409.458 1037.55 409.923 1038.06 410.436C1038.38 410.756 1038.9 410.772 1039.32 410.94Z" fill="#353E54" stroke="#171B24" stroke-width="0.905775"/>
<path fill-rule="evenodd" clip-rule="evenodd" d="M1017.17 264.773C1017.06 266.268 1017.07 267.778 1017.25 269.266C1017.36 269.866 1017.55 270.498 1018.03 270.91C1018.67 271.197 1019.21 270.543 1019.54 270.074C1020.25 269.092 1020.34 267.847 1020.7 266.723C1021.09 265.252 1021.54 263.792 1022.1 262.374C1022.25 261.86 1022.62 261.212 1022.19 260.733C1021.74 260.227 1021.06 260.032 1020.46 259.747C1018.2 258.678 1017.76 262.669 1017.17 264.773Z" fill="#353E54" stroke="#171B24" stroke-width="0.905775"/>
<path fill-rule="evenodd" clip-rule="evenodd" d="M934.572 289.798C933.699 289.246 932.83 287.645 931.038 288.539C929.411 289.351 929.019 289.178 929.019 291.309C929.019 292.804 929.014 294.323 929.524 295.339C929.981 296.252 930.081 297.563 930.281 298.361C930.456 299.06 931.659 300.24 932.048 300.628C933.016 301.594 934.262 301.612 934.572 300.376C934.936 298.921 935.329 298.22 935.329 296.346C935.329 294.919 935.329 293.492 935.329 292.065C935.329 290.56 936.228 291.451 934.572 289.798Z" fill="#353E54" stroke="#171B24" stroke-width="0.905775"/>
<path fill-rule="evenodd" clip-rule="evenodd" d="M935.077 338.154C935.077 337.115 933.583 340.442 934.319 341.176C935.266 342.121 936.77 341.464 937.348 341.176C939.165 340.27 936.69 337.617 935.077 338.154Z" fill="#353E54" stroke="#171B24" stroke-width="0.905775"/>
<path fill-rule="evenodd" clip-rule="evenodd" d="M857.081 391.296C858.438 390.619 854.055 391.548 852.538 391.548C850.763 391.548 850.014 391.485 850.014 393.311C850.014 394.427 849.004 395.136 849.004 396.585C849.004 397.436 850.379 398.209 850.771 398.6C851.914 399.741 852.867 398.498 853.547 397.593C854.755 395.987 855.395 395.508 855.819 393.815C856.124 392.598 856.32 392.561 857.081 391.296Z" fill="#353E54" stroke="#171B24" stroke-width="0.905775"/>
<path fill-rule="evenodd" clip-rule="evenodd" d="M835.626 400.614C835.845 399.737 833.742 400.982 833.102 401.622C832.587 402.136 835.477 403.096 835.626 403.133C837.177 403.52 837.428 403.748 837.897 401.874C838.147 400.879 836.417 400.93 835.626 400.614Z" fill="#353E54" stroke="#171B24" stroke-width="0.905775"/>
<path fill-rule="evenodd" clip-rule="evenodd" d="M845.723 390.037C846.032 388.804 844.909 392.582 845.218 393.815C845.459 394.777 847.175 394.819 847.49 393.563C847.85 392.127 846.855 390.94 845.723 390.037Z" fill="#353E54" stroke="#171B24" stroke-width="0.905775"/>
<path fill-rule="evenodd" clip-rule="evenodd" d="M824.268 387.77C824.512 386.792 823.554 390.079 824.268 390.792C825.428 391.949 826.287 391.253 826.287 389.784C826.287 388.386 825.797 388.024 824.268 387.77Z" fill="#353E54" stroke="#171B24" stroke-width="0.905775"/>
<path fill-rule="evenodd" clip-rule="evenodd" d="M828.81 385.503C828.81 384.1 827.579 382.923 828.305 381.473C828.989 380.109 830.137 380.466 831.839 380.466C834.015 380.466 833.606 379.412 833.606 377.443C833.606 375.367 834.061 374.991 834.868 373.917C835.682 372.834 837.693 374.019 838.907 373.414C840.038 372.849 840.203 371.903 841.936 371.903C843.014 371.903 843.85 371.625 844.965 371.903C845.769 372.103 846.463 373.382 846.731 373.917C847.325 375.103 847.166 376.894 845.974 377.192C844.404 377.583 844.145 378.451 842.188 378.451C840.795 378.451 840.666 376.186 838.654 376.688C837.742 376.915 839.251 378.543 839.916 379.206C840.687 379.976 841.286 380.321 841.936 380.969C842.8 381.831 842.945 382.197 842.945 383.74C842.945 384.008 839.187 385.433 838.907 385.503C837.755 385.79 837.897 387.909 837.897 389.281C837.897 391.497 837.537 391.547 835.373 391.547C833.579 391.547 832.441 390.733 831.839 389.532C831.36 388.577 829.928 387.362 828.81 385.503Z" fill="#353E54" stroke="#171B24" stroke-width="0.905775"/>
<path fill-rule="evenodd" clip-rule="evenodd" d="M848.247 370.644C847.908 369.968 850.388 367.939 851.529 367.37C852.743 366.764 853.126 365.943 854.305 365.355C855.607 364.706 855.735 364.201 857.334 364.6C858.121 364.796 858.596 366.24 858.596 367.118C858.596 369.183 857.881 369.49 856.577 370.14C855.357 370.749 853.864 371.132 852.791 371.4C851.321 371.766 849.439 371.358 848.247 370.644Z" fill="#353E54" stroke="#171B24" stroke-width="0.905775"/>
<path fill-rule="evenodd" clip-rule="evenodd" d="M840.169 357.295C838.743 357.651 838.704 358.1 839.917 359.31C841.183 360.573 841.972 359.381 841.431 358.303C841.191 357.822 840.59 357.631 840.169 357.295Z" fill="#353E54" stroke="#171B24" stroke-width="0.905775"/>
<path fill-rule="evenodd" clip-rule="evenodd" d="M815.181 428.822C815.022 428.505 812.443 429.83 811.142 429.83C808.955 429.83 809.265 428.614 807.861 427.563C806.904 426.847 808.597 423.587 808.618 423.534C809.299 421.835 809.869 422.022 811.9 422.022C812.637 422.022 813.823 423.186 814.171 423.534C814.875 424.236 815.209 425.157 815.433 426.052C815.826 427.62 814.802 426.934 815.181 428.822Z" fill="#353E54" stroke="#171B24" stroke-width="0.905775"/>
<path fill-rule="evenodd" clip-rule="evenodd" d="M820.228 429.829C820.649 431.508 817.723 427.347 816.947 425.799C816.245 424.398 816.584 423.219 816.947 421.77C817.273 420.468 818.833 420.288 819.723 420.511C820.632 420.737 821.498 421.525 821.995 422.022C823.005 423.029 821.902 424.964 821.238 425.296C820.814 425.507 821.254 427.782 820.986 428.318C820.748 428.793 820.06 429.325 820.228 429.829Z" fill="#353E54" stroke="#171B24" stroke-width="0.905775"/>
<path fill-rule="evenodd" clip-rule="evenodd" d="M774.29 429.073C773.184 429.299 771.708 429.439 771.008 430.836C770.279 432.292 772.03 432.851 773.028 432.851C774.466 432.851 774.584 430.541 774.29 429.073Z" fill="#353E54" stroke="#171B24" stroke-width="0.905775"/>
<path fill-rule="evenodd" clip-rule="evenodd" d="M770.503 435.622C771.745 435.622 768.333 436.831 767.221 437.385C766.07 437.96 768.997 438.896 769.493 438.896C770.4 438.896 770.615 436.18 770.503 435.622Z" fill="#353E54" stroke="#171B24" stroke-width="0.905775"/>
<path fill-rule="evenodd" clip-rule="evenodd" d="M726.836 406.659C727.281 406.167 724.433 407.546 723.555 408.422C722.86 409.116 725.091 410.322 725.322 410.437C727.531 411.539 726.482 407.051 726.836 406.659Z" fill="#353E54" stroke="#171B24" stroke-width="0.905775"/>
<path fill-rule="evenodd" clip-rule="evenodd" d="M750.058 392.806C750.872 393.212 748.322 394.192 748.543 395.073C748.939 396.651 750.713 395.427 751.067 395.073C751.737 394.404 750.165 392.913 750.058 392.806Z" fill="#353E54" stroke="#171B24" stroke-width="0.905775"/>
<path fill-rule="evenodd" clip-rule="evenodd" d="M736.176 390.037C736.525 388.664 736.385 387.238 736.453 385.839C736.863 385.016 737.863 384.808 738.679 384.594C739.544 384.42 740.631 384.395 741.261 385.116C741.777 385.813 741.66 386.897 742.486 387.378C743.246 387.902 744.347 388.061 744.753 388.992C745.086 389.749 745.399 390.592 745.291 391.43C745.029 392.617 743.873 393.269 742.863 393.761C741.586 394.463 740.298 395.199 738.856 395.499C737.786 395.85 736.638 396.287 735.972 397.251C735.399 396.739 735.336 395.872 735.251 395.15C735.158 393.397 735.766 391.715 736.176 390.037Z" fill="#353E54" stroke="#171B24" stroke-width="0.905775"/>
<path fill-rule="evenodd" clip-rule="evenodd" d="M729.613 390.037C729.268 390.726 731.57 389.782 732.137 387.519C732.446 386.287 732.39 384.871 732.39 383.489C732.39 382.062 732.39 380.635 732.39 379.208C732.39 378.133 729.735 376.941 728.604 376.941C727.071 376.941 726.003 377.193 724.313 377.193C723.066 377.193 722.249 378.926 721.536 379.459C721.011 379.852 721.723 382.975 721.788 383.237C721.99 384.042 722.853 385.055 723.303 385.504C724.074 386.273 724.42 386.87 725.07 387.519C725.841 388.288 726.187 388.885 726.837 389.534C727.668 390.364 728.38 390.653 729.613 390.037Z" fill="#353E54" stroke="#171B24" stroke-width="0.905775"/>
<path fill-rule="evenodd" clip-rule="evenodd" d="M720.273 377.191C721.297 378.213 718.287 375.006 717.749 373.665C717.309 372.567 717.807 370.162 718.002 369.384C718.338 368.04 719.5 366.897 720.021 365.858C720.74 364.423 721.123 363.671 722.293 363.088C723.381 362.545 725.318 363.338 725.827 363.591C726.622 363.988 727.012 365.201 727.341 365.858C727.789 366.752 727.593 368.386 727.593 369.636C727.593 371.247 726.992 372.227 726.079 372.91C724.77 373.89 724.267 374.821 723.05 375.428C721.797 376.053 721.991 376.849 720.273 377.191Z" fill="#353E54" stroke="#171B24" stroke-width="0.905775"/>
<path fill-rule="evenodd" clip-rule="evenodd" d="M687.965 420.763C687.284 420.915 685.508 421.03 685.946 422.778C686.097 423.38 687.938 423.904 688.47 424.037C689.544 424.305 688.535 421.71 687.965 420.763Z" fill="#353E54" stroke="#171B24" stroke-width="0.905775"/>
<path fill-rule="evenodd" clip-rule="evenodd" d="M687.333 435.749C686.739 436.327 686.699 436.879 687.207 437.386C687.625 437.803 688.127 438.247 688.343 437.386C688.634 436.224 688.772 435.749 687.333 435.749Z" fill="#353E54" stroke="#171B24" stroke-width="0.905775"/>
<path fill-rule="evenodd" clip-rule="evenodd" d="M665.122 436.882C665.175 436.671 663.442 437.427 663.102 437.512C662.417 437.683 663.074 438.743 663.229 438.897C663.886 439.553 664.44 438.796 664.743 438.393C665.036 438.003 665.122 437.408 665.122 436.882Z" fill="#353E54" stroke="#171B24" stroke-width="0.905775"/>
<path fill-rule="evenodd" clip-rule="evenodd" d="M673.703 445.823C673.705 445.82 672.65 445.028 672.189 445.949C671.858 446.609 672.351 447.371 672.567 447.586C672.971 447.989 673.303 448.268 673.703 448.467C674.416 448.823 674.713 448.849 674.713 447.964C674.713 446.783 674.87 446.211 673.703 445.823Z" fill="#353E54" stroke="#171B24" stroke-width="0.905775"/>
<path fill-rule="evenodd" clip-rule="evenodd" d="M649.345 433.356C649.345 432.762 648.083 434.021 648.083 434.615C648.083 435.535 648.287 435.574 648.714 436C649.303 436.588 650.05 435.097 650.102 434.993C650.509 434.18 649.974 433.46 649.345 433.356Z" fill="#353E54" stroke="#171B24" stroke-width="0.905775"/>
<path fill-rule="evenodd" clip-rule="evenodd" d="M598.611 443.178C599.231 441.939 597.601 445.823 597.601 447.207C597.601 448.411 598.253 449.117 598.863 449.726C600.021 450.881 601.546 448.085 601.64 447.711C602.031 446.148 602.312 445.023 601.64 443.681C600.948 442.302 600.178 442.239 598.611 443.178Z" fill="#353E54" stroke="#171B24" stroke-width="0.905775"/>
<path fill-rule="evenodd" clip-rule="evenodd" d="M596.339 437.637C596.315 437.589 597.601 434.594 597.601 433.608C597.601 432.309 598.102 430.855 598.358 429.83C598.648 428.675 599.116 427.31 599.368 426.304C599.731 424.853 599.777 423.666 600.125 422.274C600.517 420.709 601.564 419.907 602.145 418.748C602.638 417.763 604.09 417.148 604.921 416.733C606.479 415.956 608.511 416.508 608.96 414.718C609.514 412.505 608.345 412.484 607.698 411.192C606.843 409.487 605.871 408.77 604.164 407.918C602.714 407.195 600.908 408.479 600.125 408.674C598.799 409.005 598.445 410.561 597.601 411.192C596.534 411.991 596.584 413.473 596.087 414.467C595.761 415.117 592.703 414.718 592.048 414.718C590.37 414.718 589.036 414.937 588.514 415.978C587.962 417.08 588.224 418.343 588.514 419.504C588.858 420.875 589.173 421.462 588.514 422.778C587.629 424.545 589.114 423.99 590.029 423.533C590.887 423.105 591.117 421.943 591.796 421.267C592.285 420.778 592.805 423.594 592.805 424.037C592.805 425.537 592.722 426.136 591.038 426.556C589.579 426.92 588.812 427.724 588.262 428.822C587.582 430.178 588.832 431.406 589.272 431.845C590.08 432.651 590.141 433.034 591.291 433.608C592.146 434.034 592.646 434.913 593.563 435.371C594.871 436.023 594.854 436.451 596.339 437.637Z" fill="#353E54" stroke="#171B24" stroke-width="0.905775"/>
<path fill-rule="evenodd" clip-rule="evenodd" d="M612.493 412.956C613.642 413.529 609.688 412.131 609.212 410.941C608.754 409.8 608.657 408.047 608.202 406.912C607.357 404.804 608.981 404.897 610.474 404.897C611.987 404.897 612.784 404.374 613.755 403.889C615.138 403.199 615.338 402.745 616.027 401.371C616.555 400.317 618.504 401.646 619.56 401.119C620.957 400.422 621.154 399.797 621.58 398.097C621.984 396.484 623.126 396.837 624.861 396.837C626.677 396.837 627.204 396.334 628.647 396.334C630.193 396.334 631.017 395.196 631.676 394.319C632.304 393.483 634.284 393.882 635.21 394.067C636.625 394.349 637.543 394.571 638.996 394.571C639.981 394.571 641.751 394.88 642.53 395.074C643.255 395.255 644.1 396.235 644.802 396.586C645.815 397.091 647.391 396.837 648.588 396.837C650.058 396.837 651.476 396.802 652.626 397.089C653.606 397.333 654.664 395.443 655.403 395.074C656.443 394.555 657.667 394.506 658.937 394.823C659.574 394.982 659.806 397.032 659.946 397.593C660.371 399.289 659.862 400.657 658.937 401.119C657.504 401.833 656.314 402.025 654.898 402.378C653.59 402.704 652.384 402.63 650.86 402.63C649.208 402.63 647.874 402.647 646.569 402.126C645.147 401.559 641.97 401.623 640.511 401.623C638.584 401.623 637.789 402.05 636.472 402.378C635.273 402.677 634.019 403.305 632.686 403.637C631.17 404.016 629.94 403.819 628.647 404.141C627.262 404.487 626.122 405.086 624.861 405.4C623.92 405.635 622.662 407.082 621.327 407.415C619.882 407.776 618.968 408.74 618.046 409.43C616.996 410.216 616.4 411.037 614.765 411.445C613.739 411.701 613.747 412.456 612.493 412.956Z" fill="#353E54" stroke="#171B24" stroke-width="0.905775"/>
<path fill-rule="evenodd" clip-rule="evenodd" d="M571.35 443.43C570.029 444.194 570.177 445.281 571.098 446.2C572.003 447.104 572.297 447.129 573.622 447.459C575.639 447.963 575.101 445.231 574.884 444.689C574.561 443.883 572.262 443.612 571.35 443.43Z" fill="#353E54" stroke="#171B24" stroke-width="0.905775"/>
<path fill-rule="evenodd" clip-rule="evenodd" d="M564.535 427.814C564.397 427.469 561.53 428.867 560.497 429.073C559.002 429.372 558.165 430.094 558.477 431.34C558.718 432.301 560.086 432.693 560.749 433.355C561.399 434.003 563.282 433.859 564.535 433.859C565.805 433.859 566.263 431.999 566.555 430.836C567.015 428.999 566.398 428.186 564.535 427.814Z" fill="#353E54" stroke="#171B24" stroke-width="0.905775"/>
<path fill-rule="evenodd" clip-rule="evenodd" d="M493.86 414.466C494.07 413.628 492.21 415.96 492.598 416.733C493.376 418.286 494.264 417.085 495.122 416.229C495.633 415.719 494.425 414.917 493.86 414.466Z" fill="#353E54" stroke="#171B24" stroke-width="0.905775"/>
<path fill-rule="evenodd" clip-rule="evenodd" d="M687.965 373.917C688.63 373.254 686.703 375.497 686.703 376.436C686.703 377.34 688.975 376.786 688.975 375.429C688.975 374.45 689.094 375.044 687.965 373.917Z" fill="#353E54" stroke="#171B24" stroke-width="0.905775"/>
<path fill-rule="evenodd" clip-rule="evenodd" d="M696.547 361.325C696.547 360.397 696.142 363.439 696.8 364.095C698.214 365.507 698.639 362.545 698.819 361.828C698.857 361.675 696.634 361.325 696.547 361.325Z" fill="#353E54" stroke="#171B24" stroke-width="0.905775"/>
<path fill-rule="evenodd" clip-rule="evenodd" d="M715.477 362.837C715.044 362.675 714.433 364.028 714.72 364.599C715.439 366.035 717.88 364.086 718.001 363.844C718.365 363.119 716.71 363.295 715.477 362.837Z" fill="#353E54" stroke="#171B24" stroke-width="0.905775"/>
<path fill-rule="evenodd" clip-rule="evenodd" d="M673.325 343.191C674.099 343.384 672.003 344.894 672.568 345.458C673.599 346.487 674.539 346.237 675.597 345.709C676.878 345.07 673.542 343.234 673.325 343.191Z" fill="#353E54" stroke="#171B24" stroke-width="0.905775"/>
<path fill-rule="evenodd" clip-rule="evenodd" d="M672.454 351.098C672.067 351.09 671.267 350.92 670.579 350.92C669.991 350.92 669.687 351.165 669.687 351.721C669.687 352.236 669.856 352.513 670.133 352.79C670.684 353.34 671.183 353.492 671.918 353.858C672.626 354.212 673.316 354.333 673.703 353.948C674.219 353.433 673.792 352.756 673.792 352.256C673.792 351.907 672.676 351.187 672.454 351.098Z" fill="#353E54" stroke="#171B24" stroke-width="0.905775"/>
<path fill-rule="evenodd" clip-rule="evenodd" d="M659.156 343.618C658.729 343.405 658.087 343.882 657.817 344.241C657.4 344.796 658.204 345.963 658.531 346.289C659.342 347.098 661.36 347.002 662.458 347.002C663.044 347.002 663.082 346.36 663.082 345.755C663.082 345.299 661.722 344.487 661.476 344.241C661.094 343.861 659.983 343.529 659.602 343.529C659.45 343.529 659.304 343.588 659.156 343.618Z" fill="#353E54" stroke="#171B24" stroke-width="0.905775"/>
<path fill-rule="evenodd" clip-rule="evenodd" d="M663.618 351.631C663.325 351.589 662.887 351.754 662.636 352.254C662.316 352.893 663.858 353.138 664.242 353.234C664.361 353.264 664.48 353.293 664.599 353.323C665.208 353.475 665.269 353.301 665.759 353.056C666.362 352.755 666.473 352.423 666.473 351.72C666.473 351.317 665.23 351.129 664.867 351.008C664.285 350.814 663.864 351.222 663.618 351.631Z" fill="#353E54" stroke="#171B24" stroke-width="0.905775"/>
<path fill-rule="evenodd" clip-rule="evenodd" d="M649.697 341.659C649.511 341.597 649.518 340.658 649.518 340.056C649.518 339.431 649.889 339.151 650.232 338.809C650.586 338.456 651.279 339.052 651.392 339.165C651.697 339.47 651.819 339.711 651.928 340.145C652.087 340.781 652.027 341.117 651.66 341.392C651.337 341.633 650.642 341.646 650.232 341.748C650.057 341.792 649.875 341.688 649.697 341.659Z" fill="#353E54" stroke="#171B24" stroke-width="0.905775"/>
<path fill-rule="evenodd" clip-rule="evenodd" d="M646.394 340.233C646.322 340.252 645.066 339.877 644.342 339.877C643.884 339.877 643.388 340.383 643.182 340.59C642.781 340.99 643.101 341.408 643.271 341.747C643.707 342.617 645.057 342.549 645.948 342.549C646.751 342.549 646.692 342.163 646.84 341.569C646.991 340.968 646.703 340.644 646.394 340.233Z" fill="#353E54" stroke="#171B24" stroke-width="0.905775"/>
<path fill-rule="evenodd" clip-rule="evenodd" d="M645.502 334.981C645.603 334.576 644.446 335.196 643.985 335.426C643.49 335.673 643.628 336.497 643.717 336.851C643.838 337.336 644.866 337.296 645.234 337.296C645.62 337.296 645.952 336.567 646.037 336.228C646.197 335.591 646.156 335.373 645.502 334.981Z" fill="#353E54" stroke="#171B24" stroke-width="0.905775"/>
<path fill-rule="evenodd" clip-rule="evenodd" d="M555.1 316.104C553.03 316.14 555.384 319.973 555.823 317.213C556.133 316.105 556.601 315.678 555.1 316.104Z" fill="#353E54" stroke="#171B24" stroke-width="0.905775"/>
<path fill-rule="evenodd" clip-rule="evenodd" d="M582.229 321.98C580.681 321.756 580.298 324.475 582.586 324.117C584.924 324.786 584.729 320.994 582.229 321.98Z" fill="#353E54" stroke="#171B24" stroke-width="0.905775"/>
<path fill-rule="evenodd" clip-rule="evenodd" d="M605.075 316.459C603.443 316.988 605.24 320.407 606.503 318.062C606.965 317.022 606.264 315.85 605.075 316.459Z" fill="#353E54" stroke="#171B24" stroke-width="0.905775"/>
<path fill-rule="evenodd" clip-rule="evenodd" d="M609.359 318.24C607.251 319.132 610.234 322.479 610.47 319.226C610.353 318.704 609.78 318.469 609.359 318.24Z" fill="#353E54" stroke="#171B24" stroke-width="0.905775"/>
<path fill-rule="evenodd" clip-rule="evenodd" d="M615.071 311.116C616.108 310.202 619.561 313.418 618.413 310.299C617.29 307.881 621.496 305.6 619.075 303.172C618.031 302.264 615.866 299.651 616.32 302.746C616.235 303.767 617.91 307.424 615.963 305.239C615.071 303.727 612.913 300.734 616.186 300.906C618.559 299.853 616.883 295.875 614.937 297.989C614.286 301.379 612.879 294.882 611.634 297.943C609.387 299.243 613.426 301.705 610.42 301.807C607.636 302.232 609.054 306.779 609.858 308.638C611.151 310.517 612.698 311.649 615.071 311.116Z" fill="#353E54" stroke="#171B24" stroke-width="0.905775"/>
<path fill-rule="evenodd" clip-rule="evenodd" d="M591.867 310.938C591.731 312.211 586.78 312.483 589.726 314.5C592.134 315.881 594.957 315.228 595.556 312.281C597.448 310.609 596.734 308.48 594.295 310.204C593.544 310.62 592.724 310.868 591.867 310.938Z" fill="#353E54" stroke="#171B24" stroke-width="0.905775"/>
<path fill-rule="evenodd" clip-rule="evenodd" d="M598.829 305.061C596.369 305.322 595.185 308.142 598.033 309.015C601.062 310.373 601.289 305.523 598.829 305.061Z" fill="#353E54" stroke="#171B24" stroke-width="0.905775"/>
<path fill-rule="evenodd" clip-rule="evenodd" d="M593.296 303.637C591.788 302.022 589.192 304.803 587.108 304.405C584.412 304.48 581.712 304.358 579.095 303.668C577.029 304.505 574.952 300.196 578.177 301.803C581.476 303.067 580.129 298.346 581.426 296.873C583.167 294.147 585.446 296.171 586.157 298.472C587.886 300.203 590.597 298.722 588.996 296.551C587.011 295.51 585.776 293.352 588.5 292.324C591.874 292.083 592.074 296.299 594.567 297.04C596.907 297.42 599.534 291.578 595.881 291.973C592.879 293.742 590.874 288.698 594.28 287.867C596.159 286.352 598.325 285.943 600.54 286.643C601.636 284.883 602.472 282.791 605.068 283.706C608.115 284.864 603.843 286.526 603.291 287.713C602.756 289.846 608.119 290.519 604.677 291.744C602.939 291.952 600.648 294.183 603.572 294.574C606.131 294.217 608.771 291.666 611.352 293.316C611.504 296.269 608.133 296.263 606.392 297.659C603.979 299.125 605.263 302.498 603.791 304.449C601.495 306.867 599.533 303.677 597.707 302.561C596.118 301.917 594.733 303.2 593.296 303.637Z" fill="#353E54" stroke="#171B24" stroke-width="0.905775"/>
<path fill-rule="evenodd" clip-rule="evenodd" d="M289.876 256.28C303.738 256.28 317.6 256.28 331.462 256.28C330.627 257.227 329.961 258.35 329.011 259.178C328.15 259.749 327.371 260.497 326.457 260.957C325.567 261.179 324.677 261.401 323.788 261.623C323.153 261.045 322.341 260.561 321.814 259.925C321.699 258.829 321.583 257.733 321.467 256.636C320.913 258.291 320.63 260.058 319.675 261.548C319.319 261.953 319.281 262.862 318.681 262.883C316.238 263.006 313.731 262.983 311.384 263.717C310.741 264.382 309.653 265.661 311.02 266.071C311.643 266.543 312.508 266.812 312.667 267.669C312.923 268.265 313.179 268.862 313.436 269.459C312.777 270.497 312.243 271.638 311.507 272.612C310.861 273.102 310.362 273.894 309.469 273.87C308.387 274.025 307.277 274.35 306.212 274.4C305.03 273.784 303.846 273.166 302.935 272.162C300.843 270.167 299.09 267.841 296.977 265.859C296.621 265.151 296.054 265.511 295.507 265.767C295.089 266.061 294.08 266.006 294.391 266.728C294.612 268.524 294.776 270.324 294.873 272.13C294.184 271.96 293.555 271.688 293.102 271.122C292.207 270.211 291.07 269.495 290.542 268.292C290.163 267.541 289.566 266.857 289.328 266.062C289.128 263.235 288.991 260.371 289.415 257.561C289.51 257.118 289.614 256.66 289.876 256.28Z" fill="#353E54" stroke="#171B24" stroke-width="0.905775"/>
<path fill-rule="evenodd" clip-rule="evenodd" d="M345.315 325.184C344.89 325.11 344.064 325.679 343.548 326.065C342.941 326.52 342.791 326.651 342.791 327.576C342.791 328.313 342.953 328.746 343.422 329.213C343.871 329.661 344.199 330.182 344.684 330.473C345.268 330.822 345.78 330.805 346.073 330.221C346.459 329.45 346.83 329.283 346.83 328.332C346.83 327.381 346.574 327.066 346.199 326.317C345.882 325.686 345.759 326.07 345.315 325.184Z" fill="#353E54" stroke="#171B24" stroke-width="0.905775"/>
<path fill-rule="evenodd" clip-rule="evenodd" d="M342.033 334.754C341.898 334.485 340.191 335.623 340.14 335.635C339.94 335.685 340.261 337.502 340.266 337.524C340.453 338.268 341.75 338.28 342.412 338.28C342.965 338.28 343.043 337.146 343.043 336.517C343.043 335.535 342.925 335.347 342.033 334.754Z" fill="#353E54" stroke="#171B24" stroke-width="0.905775"/>
<path fill-rule="evenodd" clip-rule="evenodd" d="M346.956 339.917C346.956 339.619 346.703 338.156 346.703 337.021C346.703 336.147 346.956 335.734 346.956 335.006C346.956 334.359 347.64 333.873 348.218 333.873C348.836 333.873 349.224 332.88 349.354 332.361C349.477 331.871 350.263 332.917 350.49 333.369C350.785 333.959 350.868 334.471 350.868 335.132C350.868 335.74 350.341 336.31 350.111 336.769C349.915 337.16 349.859 338.401 349.859 338.658C349.859 339.161 348.743 339.818 348.344 339.917C347.771 340.06 347.617 340.049 346.956 339.917Z" fill="#353E54" stroke="#171B24" stroke-width="0.905775"/>
<path fill-rule="evenodd" clip-rule="evenodd" d="M354.023 338.28C353.162 338.495 352.597 338.047 351.878 338.406C351.141 338.773 351.362 339.356 351.499 340.043C351.642 340.755 352.361 341.171 352.887 341.302C353.552 341.468 354.045 340.209 354.15 339.791C354.305 339.169 354.304 338.98 354.023 338.28Z" fill="#353E54" stroke="#171B24" stroke-width="0.905775"/>
<path fill-rule="evenodd" clip-rule="evenodd" d="M340.393 348.606C340.545 348.001 339.284 349.308 339.005 349.866C338.689 350.495 339.438 350.928 339.636 351.125C340.043 351.531 341.152 351.099 341.403 350.999C342.238 350.665 341.189 349.08 341.15 348.984C341.045 348.723 340.645 348.732 340.393 348.606Z" fill="#353E54" stroke="#171B24" stroke-width="0.905775"/>
<path fill-rule="evenodd" clip-rule="evenodd" d="M349.353 355.91C349.183 355.484 347.917 356.418 347.586 356.665C346.899 357.179 347.614 357.686 348.091 357.924C348.871 358.314 349.627 358.165 350.111 357.924C351.327 357.317 349.831 356.291 349.353 355.91Z" fill="#353E54" stroke="#171B24" stroke-width="0.905775"/>
<path fill-rule="evenodd" clip-rule="evenodd" d="M374.847 371.777C374.747 371.605 375.94 370.413 376.488 370.14C377.441 369.664 377.18 369.384 378.633 369.384C379.433 369.384 380.232 369.384 381.031 369.384C381.818 369.384 382.459 369.709 383.177 369.888C383.585 369.99 384.231 370.393 384.565 370.643C384.995 370.965 385.07 371.402 385.07 372.029C385.07 372.81 384.075 373.036 383.303 373.036C382.105 373.036 380.457 373.253 379.517 372.784C378.761 372.407 377.477 372.837 376.866 372.532C376.341 372.27 375 372.036 374.847 371.777Z" fill="#353E54" stroke="#171B24" stroke-width="0.905775"/>
<path fill-rule="evenodd" clip-rule="evenodd" d="M366.897 321.028C366.71 320.998 365.665 321.517 365.13 321.784C364.506 322.095 364.12 322.384 364.12 323.169C364.12 323.815 364.328 324.339 364.625 324.932C365.05 325.78 365.705 326.066 366.645 326.066C367.635 326.066 367.659 325.622 368.285 325.31C368.853 325.027 369.025 324.12 369.169 323.547C369.414 322.566 368.999 321.993 368.538 321.532C368.134 321.129 367.516 321.028 366.897 321.028Z" fill="#353E54" stroke="#171B24" stroke-width="0.905775"/>
<path fill-rule="evenodd" clip-rule="evenodd" d="M414.098 367.873C413.425 367.202 411.413 366.483 410.564 367.118C409.35 368.026 408.545 368.053 408.545 369.888C408.545 371.342 409.767 371.641 410.817 371.903C412.425 372.304 413.006 370.471 413.341 369.636C413.579 369.043 413.86 368.467 414.098 367.873Z" fill="#353E54" stroke="#171B24" stroke-width="0.905775"/>
<path fill-rule="evenodd" clip-rule="evenodd" d="M400.267 389.742C399.956 389.703 399.275 389.676 399.018 390.188C398.798 390.627 398.765 391.003 399.107 391.345C399.374 391.611 399.735 391.613 400.089 391.701C400.683 391.85 400.868 391.661 401.071 391.256C401.447 390.504 400.864 390.04 400.267 389.742Z" fill="#353E54" stroke="#171B24" stroke-width="0.905775"/>
<path fill-rule="evenodd" clip-rule="evenodd" d="M404.53 387.412C404.218 387.373 403.537 387.345 403.28 387.857C403.06 388.297 403.027 388.673 403.37 389.015C403.636 389.28 403.997 389.282 404.351 389.371C404.946 389.519 405.13 389.331 405.333 388.925C405.71 388.174 405.126 387.709 404.53 387.412Z" fill="#353E54" stroke="#171B24" stroke-width="0.905775"/>
<path fill-rule="evenodd" clip-rule="evenodd" d="M396.073 387.339C395.814 387.371 395.094 387.422 394.824 387.962C394.583 388.442 394.467 388.48 394.467 389.209C394.467 389.604 394.812 389.781 395.091 389.921C395.797 390.273 396.543 390.303 397.055 390.099C397.425 389.951 397.412 389.205 397.412 388.763C397.412 388.298 396.524 387.608 396.073 387.339Z" fill="#353E54" stroke="#171B24" stroke-width="0.905775"/>
<path fill-rule="evenodd" clip-rule="evenodd" d="M1017.87 697.3L1021.91 699.315L1019.89 693.27L1021.91 688.233L1027.46 686.218L1032 687.226L1040.59 678.159L1040.33 656.499L1040.59 629.803L1037.56 617.21L1035.54 607.136V598.069L1023.42 582.454L1016.86 574.898L1014.84 565.328L1012.82 562.306L1007.77 558.276L1005.25 555.254L998.18 552.232L996.161 553.239H991.112L988.083 554.75L987.074 560.795L988.083 567.343L984.55 567.846L979.501 562.306L978.492 569.358L972.434 562.306L966.881 566.839H963.347L963.852 558.276C963.852 558.276 963.852 553.239 965.366 551.224C966.881 549.209 967.386 545.683 967.386 545.683L965.114 538.631L965.366 526.794L966.628 522.513L965.619 519.742L964.104 507.905L964.609 500.853L973.696 490.023L977.735 489.52L977.482 484.734L982.026 481.712L986.569 476.423L984.55 472.645L986.569 468.364L988.841 469.119C988.841 469.119 990.103 468.616 991.112 468.616C992.122 468.616 995.151 467.86 995.151 467.86L996.161 464.838H998.937L1001.21 464.334L1003.73 460.808L1004.74 456.778L1007.27 453.001L1007.52 448.719C1007.52 448.719 1003.99 450.734 1003.23 449.726C1002.47 448.719 998.432 445.697 998.432 444.689C998.432 443.682 996.413 435.874 996.413 435.874L992.374 427.311L993.132 421.519L993.384 419.504L996.413 414.719L999.19 410.437L1002.98 412.452L1004.74 414.97L1008.78 414.467L1010.04 412.452L1006.76 408.17L1005.25 402.63L1007.01 399.355L1003.48 396.333L998.685 392.303L999.19 388.778L1001.46 385.252L1003.99 381.474L1004.49 384.244L1005 388.526L1006 392.303L1011.31 395.829L1015.34 397.341L1015.6 403.385L1016.86 411.193L1020.9 417.741L1023.67 426.052L1027.21 432.348L1029.48 439.149L1028.72 443.934L1030.49 449.475L1034.53 452.497L1035.28 457.534L1038.82 462.823L1045.38 468.112L1056.49 474.156L1063.55 478.186L1070.37 479.949L1077.18 482.468L1081.73 484.231L1087.03 487.253L1089.81 488.764L1092.33 489.016C1092.33 489.016 1092.33 488.764 1091.32 487.001C1090.31 485.238 1089.3 481.964 1089.3 481.964L1088.8 476.423L1083.75 470.63L1081.73 467.86L1082.23 464.082L1079.71 461.564L1079.96 457.534L1076.93 455.015L1072.64 451.741L1070.12 446.956L1071.13 442.675L1073.15 438.897L1070.37 436.882L1066.33 434.867L1062.29 431.845L1058.76 427.563L1060.02 425.8L1061.03 421.519L1058.76 421.015L1056.74 423.03L1054.72 421.519L1052.2 421.267L1049.17 419.252L1045.63 415.978L1044.37 416.23L1043.87 421.519L1039.07 420.511L1036.29 417.489L1033.77 412.452L1032.26 410.941L1027.21 405.4L1024.18 403.889L1024.43 400.615L1025.95 397.089L1024.94 392.555L1025.19 388.274C1025.19 388.274 1026.95 391.296 1027.96 390.792C1028.97 390.289 1029.73 389.029 1029.73 389.029L1027.21 385.755L1028.22 382.229L1027.21 379.207L1028.72 375.429L1029.73 372.911L1035.03 371.903L1037.56 369.133L1037.81 367.874L1034.27 366.362L1031.25 355.785L1029.23 350.244L1022.92 335.384L1021.91 330.095L1018.63 327.325L1019.89 325.058L1023.67 321.532L1024.68 317.503L1021.91 315.74L1016.35 316.243L1012.32 316.747L1010.8 317.754L1006.76 316.999L1004.74 317.503L1003.23 319.517L1001.21 321.784L1001.46 319.517L1000.45 317.754L1000.96 314.48L998.432 311.458L997.423 308.436L994.394 306.421H989.598L985.307 304.406L984.802 301.384H988.588H992.122L993.636 299.621L993.889 295.591L994.394 291.813L997.675 287.532L1000.7 287.784L1004.49 286.272L1006.76 280.48L1009.29 275.946L1005.75 274.939L1002.47 276.198L999.947 273.68L997.423 270.909L994.899 267.635L991.365 262.85L988.841 263.102L986.821 266.124L983.288 270.406L980.259 274.183V277.961L980.511 281.235L982.783 280.228L986.064 278.717L986.821 280.984L985.307 283.754L982.026 284.258L973.191 283.25L955.775 301.132L944.164 312.465L942.144 315.236L941.64 318.51L940.378 322.54L938.863 326.066L936.339 330.851L937.349 333.873L940.378 334.881H944.921L947.697 336.14V338.406L943.911 340.421L941.892 342.184H938.358L936.086 345.207L933.31 352.259L929.271 356.54L928.009 363.34L929.019 366.362L932.3 368.629L927 367.622L923.718 369.385L920.942 368.881L917.66 367.37L915.389 365.859H912.865L908.069 368.377L904.535 372.407L903.02 375.933L899.992 380.718L900.244 383.74C900.244 383.74 896.963 386.763 895.953 386.763C894.943 386.763 890.4 387.015 890.4 387.015L888.381 389.533L885.604 389.785L881.818 388.022L879.546 387.518L876.517 388.778L875.76 391.8L876.517 397.592L874.498 401.118L872.479 397.341L870.964 397.592L868.692 399.104L867.43 397.341L866.421 395.829L860.363 398.6L857.081 400.867L857.839 403.133L858.343 405.4L858.091 408.17L860.11 410.689L863.139 413.711L864.906 415.978L861.877 416.733L859.101 417.741L861.12 421.015L859.101 421.771L853.8 422.022L850.519 424.289C850.519 424.289 851.528 427.06 850.519 427.311C849.509 427.563 847.49 427.815 847.49 427.815L843.199 427.311L841.937 430.334L844.461 433.608L844.208 439.149H840.17C840.17 439.149 837.646 438.141 836.636 437.134C835.626 436.126 832.345 433.356 832.345 433.356L828.811 431.845L826.035 432.6L826.287 430.585L824.773 427.563L824.015 429.83C824.015 429.83 825.782 433.608 824.773 433.86C823.763 434.111 823.006 434.363 823.006 434.363L819.472 430.585L817.2 429.578L813.919 430.837L810.385 431.341L809.375 432.852L804.58 434.111L799.784 435.371L797.007 435.874L793.221 433.104L785.649 433.86L782.115 436.378L780.6 437.637L777.572 437.889L776.562 436.126L774.29 437.637L771.766 438.645L772.018 440.156L763.184 445.445C763.184 445.445 758.388 448.467 757.883 449.475C757.379 450.482 758.136 446.452 758.136 446.452L761.417 439.904L765.456 436.378L767.223 431.845C767.223 431.845 768.99 430.082 769.494 429.074C769.999 428.067 771.514 424.541 771.514 424.541L773.028 420.763L771.009 417.489L770.504 414.215L768.99 409.933L764.446 407.919L761.922 406.407L757.631 408.674L753.087 409.933L752.33 407.667L747.282 407.163L748.292 404.896L749.301 401.118L745.01 399.859L740.215 402.126L738.7 406.156L740.972 412.2L737.69 413.711L735.166 415.222L735.419 417.489L731.885 417.993V420.511L727.846 421.015L726.837 419H724.06L721.284 419.504L718.759 421.015L715.478 422.778L712.702 424.037L709.673 424.289C709.673 424.289 706.391 425.045 706.391 426.052C706.391 427.06 703.867 428.822 703.867 428.822L701.091 429.326L699.324 431.341L697.557 434.363L698.314 436.63L700.333 440.156L699.071 442.171L683.422 441.919L680.645 441.163L677.869 446.452L678.878 448.719L679.131 453.001L681.15 454.512L682.412 456.778L681.907 460.556L679.383 460.808L676.102 458.29L673.325 454.26L670.801 451.741L666.51 449.223L667.267 451.741L668.277 453.504L665.753 454.764V457.03L663.734 455.267L662.219 456.778L662.976 461.06L666.258 463.578V467.104L661.209 461.815L659.19 460.808L657.676 457.534L658.433 454.764L659.443 451.238L661.462 449.223L661.209 444.689L659.19 443.178L658.938 448.215L657.676 450.23L655.404 451.489L652.375 453.756L651.87 457.534L651.113 467.356L649.094 468.867L645.56 472.897L645.055 476.423V480.201L649.346 481.712L651.618 481.964L654.899 484.482L657.171 487.253L657.423 490.023L655.909 493.297L654.899 495.06L655.404 498.838L656.414 501.609L654.394 501.105L653.889 498.838V493.549V489.771C653.889 489.771 652.375 487.253 651.365 486.497C650.356 485.742 648.589 484.734 648.589 484.734L645.812 485.49L644.045 487.253L645.055 492.542L639.25 496.823L634.454 501.609L630.92 504.127H628.648L625.872 506.142L623.095 504.631C623.095 504.631 618.804 502.364 618.299 501.105C617.794 499.846 615.27 497.075 616.28 497.075C617.29 497.075 619.057 497.579 619.057 497.579L624.357 498.838C624.357 498.838 626.377 498.083 627.639 498.083C628.901 498.083 631.677 496.068 631.677 496.068L636.473 492.038L639.25 488.512L640.007 485.49L638.745 481.964L639.502 477.431L642.783 471.89L644.55 466.349L645.812 462.067L647.832 454.512L648.589 451.741L651.618 446.704L653.132 442.926L651.113 440.156L648.084 439.149L644.045 436.378L641.269 437.889L638.745 441.667L637.735 445.193L633.444 447.712L629.405 449.726L626.124 453.001L627.134 457.534L623.348 461.06L622.843 463.075L624.61 466.349V469.623V473.905L625.619 475.416L623.852 479.445L621.076 480.201L619.309 478.942L616.785 470.63L614.008 466.349L611.484 462.319L609.465 458.038L605.174 452.497L603.407 451.993L599.621 454.008L599.873 457.03L595.33 459.297L593.311 461.564L591.544 461.06L590.786 458.038C590.786 458.038 593.311 456.275 591.796 455.771C590.282 455.267 585.486 454.26 585.486 454.26L579.428 452.497L573.622 450.482L570.341 449.475L568.322 446.2L566.807 442.423L562.516 440.912L557.973 441.163L553.429 439.904L550.4 441.163L548.129 438.645L545.605 441.415C545.605 441.415 545.605 442.926 544.09 443.178C542.576 443.43 537.023 440.408 537.023 440.408L537.78 435.371L538.789 431.341L542.071 431.593L544.595 433.356L547.371 433.608L549.896 430.334L550.4 426.304L548.633 423.282L546.867 421.015L545.1 417.993L543.08 419.756L543.585 421.771L542.576 424.037L539.294 425.297L535.508 427.563L533.994 430.082V433.86L529.45 436.126L525.159 439.4L524.402 435.623L523.392 431.845C523.392 431.845 520.111 428.822 519.101 428.822C518.092 428.822 513.296 429.074 513.296 429.074L510.772 428.571L507.743 429.83L505.723 433.104C505.723 433.104 504.714 435.371 503.199 434.867C501.685 434.363 500.675 433.86 500.675 433.86V430.334L498.656 429.074L496.132 424.793L493.608 422.778L493.355 425.8L492.346 429.83L489.317 431.341L486.54 431.089L485.026 424.541L486.54 417.489C486.54 417.489 486.288 414.467 487.802 413.963C489.317 413.459 493.355 410.185 493.355 410.185L496.889 409.178L500.423 405.652L499.413 400.615L500.423 398.348L504.966 389.281L504.714 396.837L505.219 402.63L506.228 410.689L509.257 416.985L510.772 420.763L514.81 423.785L520.111 424.793L526.674 420.259C526.674 420.259 529.198 417.489 529.45 416.23C529.703 414.97 529.703 406.156 529.703 406.156L530.207 400.363L530.46 392.052L528.441 387.015L526.926 381.474L528.188 378.2L528.945 375.177L526.674 370.644L523.392 369.385L514.706 368.863L509.51 371.651L507.072 373.605L506.985 377.192L503.199 378.955C503.199 378.955 497.394 380.214 496.384 380.718C495.374 381.222 489.877 383.44 489.877 383.44L489.773 390.184L484.146 391.634L480.23 393.815L476.696 399.104L471.395 401.622L465.363 403.029L466.852 410.689L460.776 411.144L455.746 412.452L448.931 409.32L441.106 410.185L436.458 407.336L430 411.445L428.233 413.963C428.233 413.963 424.951 413.963 423.942 414.215C422.932 414.467 414.35 414.719 414.35 414.719L407.03 416.733L405.516 420.008L400.72 421.519L398.196 425.297L394.157 427.563L391.885 431.845L390.371 435.371L392.138 440.408L392.643 447.712L390.623 450.734L386.585 453.252L383.556 455.771L383.051 459.801C383.051 459.801 380.527 461.564 380.527 462.823C380.527 464.082 380.527 465.341 380.022 466.853C379.517 468.364 377.245 470.63 377.245 470.63H374.217L371.945 466.601C371.945 466.601 369.926 465.09 368.916 465.845C367.906 466.601 363.615 470.379 363.615 470.379L363.11 474.156L365.13 477.431L368.916 480.201L370.683 482.719L370.178 487.253L368.159 490.275L365.13 491.283L362.858 496.068L366.392 499.342L362.606 502.364L360.586 504.883L362.353 508.661L363.615 513.446L366.644 515.964L367.149 522.764L368.916 525.787L369.673 531.076L371.44 533.594L370.935 538.883L367.654 540.898L364.625 541.402C364.625 541.402 361.596 541.402 360.586 543.92C359.577 546.439 359.577 546.691 359.577 546.691H356.548L354.276 546.187L350.995 542.913L345.946 541.905L341.655 543.668L345.189 547.446L343.675 548.706H339.888L337.364 548.202L333.578 544.676L333.073 548.706L331.559 551.476L326.006 549.461L322.977 550.217L320.2 551.98L317.424 548.202L314.9 549.461L314.395 552.483L312.123 555.002L313.638 558.276L313.89 561.298L315.657 563.061L316.414 566.587L314.395 568.602V572.38L316.919 574.898L315.72 578.173L316.667 581.447L322.22 590.765L324.491 596.306C324.491 596.306 326.763 600.084 328.025 600.84C329.287 601.595 329.035 605.625 329.035 605.625V610.914L334.335 617.462L336.607 621.743L339.131 624.514C339.131 624.514 338.122 627.284 338.374 628.292C338.626 629.299 337.617 634.84 337.617 634.84L339.131 638.114L341.151 644.41L342.16 648.944L349.228 650.707C349.228 650.707 351.247 650.203 351.499 648.692C351.752 647.181 351.752 643.403 352.004 641.892C352.257 640.381 354.781 634.084 354.781 634.084C354.781 634.084 358.567 630.307 359.324 629.299C360.081 628.292 362.353 624.766 362.353 624.766L362.858 617.462L364.372 614.44L369.673 613.432L373.207 610.914H377.75L379.77 612.929L386.332 614.188L390.623 612.173H393.652L396.429 607.64L398.196 601.091V597.565L394.662 593.032L396.176 588.499L394.157 584.469L397.186 580.187C397.186 580.187 399.71 581.699 400.972 580.187C402.234 578.676 404.758 575.15 404.758 575.15L408.545 573.639L414.35 572.632C414.35 572.632 415.612 573.891 415.612 574.898C415.612 575.906 416.622 581.699 416.622 581.699L419.903 580.439L421.67 577.921L440.853 578.173L443.378 581.699L447.164 583.21L450.95 585.98L452.969 590.513L454.988 596.558L457.008 601.343L459.532 607.136L467.104 609.654L471.648 609.906L474.172 613.18L478.968 614.188L479.725 617.21L482.501 625.018C482.501 625.018 486.792 625.521 487.802 626.277C488.812 627.032 492.85 628.795 492.85 628.795L498.656 629.551L500.423 625.773L497.646 621.492L495.879 615.699L499.413 615.195L503.452 614.943L504.209 609.151H507.743L510.014 607.64L511.024 602.854L512.791 598.825L518.849 602.854L528.693 605.121L538.537 607.64L544.342 608.647L553.429 610.662L559.992 611.417L563.021 608.395L566.555 610.158L570.593 613.432L574.127 615.195L574.884 619.225L576.146 622.247L573.37 624.514L574.884 628.04L577.409 629.047L583.971 634.084L586.243 636.855L586.748 641.136L592.553 640.633L602.397 638.87L607.446 638.366C607.446 638.366 605.931 642.396 607.193 643.655C608.455 644.914 610.475 648.944 610.475 648.944L612.746 655.996C612.746 655.996 613.756 661.788 614.261 662.796C614.766 663.803 616.028 670.1 616.028 670.1L617.29 676.648L618.552 681.433L622.338 680.426C622.338 680.426 623.095 677.907 624.105 678.663C625.114 679.418 628.143 681.433 628.143 681.433L628.648 683.448C629.91 684.707 635.463 686.47 635.463 686.47L643.541 685.463C643.541 685.463 644.803 685.967 644.803 686.974C644.803 687.981 647.074 691.507 647.074 691.507L648.589 696.293L650.103 697.3L654.142 702.085L656.666 703.345L662.471 704.604L666.762 707.878L669.287 710.396C669.287 710.396 676.607 709.137 677.111 707.878C677.616 706.619 683.422 706.871 683.422 706.871L693.013 701.582L701.091 697.3L704.624 695.789L713.206 697.3L721.536 699.063L723.05 703.093L737.69 706.115L742.991 705.611L747.534 700.826L748.039 697.552L745.263 694.278L746.525 687.981L752.078 680.174L756.369 682.189L762.932 684.204C762.932 684.204 767.727 684.455 768.737 684.707C769.747 684.959 775.3 686.218 775.3 686.218L776.057 690.752L779.086 695.285L782.872 696.796C782.872 696.796 787.668 698.056 788.93 698.056C790.192 698.056 794.988 694.781 794.988 694.781L800.541 693.27C800.541 693.27 805.337 693.522 806.599 693.522C807.861 693.522 810.133 694.781 811.142 695.033C812.152 695.285 818.715 695.537 818.715 695.537L821.996 699.315L835.879 699.819L845.218 695.537L853.043 691.004L857.334 685.715L860.363 679.67L865.663 678.663L870.207 680.174L876.012 678.411C876.012 678.411 877.779 676.648 878.789 676.9C879.799 677.152 885.352 678.663 885.352 678.663L890.905 678.159L894.943 670.855L897.72 667.329L896.71 664.307L895.701 658.262L896.71 648.692L897.972 642.144L893.429 638.87L890.905 634.336L897.972 630.307L902.768 625.269L906.807 622.247L911.35 621.24H920.689L927 623.506L942.397 634.336L947.193 640.381L952.998 644.41H958.551C958.551 644.41 962.085 641.892 963.095 641.892C964.104 641.892 973.948 642.396 973.948 642.396L977.482 642.899L981.268 646.677C981.268 646.677 984.045 648.692 985.055 648.692C986.064 648.692 989.093 649.196 990.355 648.188C991.617 647.181 995.656 641.388 995.656 641.388C995.656 641.388 999.442 635.092 1000.45 633.833C1001.46 632.573 1005.25 625.269 1005.25 625.269C1005.25 625.269 1006.76 627.536 1007.01 628.544C1007.27 629.551 1009.54 633.329 1009.54 633.329L1011.31 638.114C1011.31 638.114 1010.3 641.892 1011.05 642.899C1011.81 643.907 1013.83 648.188 1013.83 648.188L1015.6 652.722C1015.6 652.722 1016.35 658.514 1016.61 659.774C1016.86 661.033 1017.11 666.07 1017.11 666.07L1015.09 667.833L1010.8 669.344L1007.52 671.359L1006.26 674.885L1007.01 679.418L1011.31 683.7L1015.34 688.737L1017.36 692.767L1017.87 697.3Z" fill="#353E54" stroke="#171B24" stroke-width="0.905775"/>
<path fill-rule="evenodd" clip-rule="evenodd" d="M420.66 393.563C420.015 392.497 418.026 390.896 417.378 389.281C416.945 388.2 417.44 385.761 417.631 385C417.927 383.817 418.336 382.438 418.64 381.222C419.059 379.55 419.77 378.464 420.407 377.192C421.133 375.745 421.134 374.815 422.427 374.17C423.607 373.581 424.953 372.784 426.213 372.155C427.555 371.486 427.8 371.148 429.747 371.148C430.458 371.148 432.321 370.644 433.533 370.644C435.157 370.644 436.024 369.702 436.562 368.629C436.788 368.179 439.073 367.376 439.591 367.118C440.814 366.508 442.57 367.321 443.124 367.874C443.921 368.669 444.777 369.019 445.396 369.637C445.803 370.043 448 370.141 448.678 370.141C450.272 370.141 450.73 370.778 452.211 371.148C454.029 371.601 455.664 372.407 457.764 372.407C459.389 372.407 461.734 373.02 463.317 373.415C464.88 373.804 466.013 374.024 467.609 374.422C469.035 374.778 470.931 374.275 471.647 373.918C472.861 373.313 473.565 372.61 474.171 371.4C474.851 370.043 475.181 369.252 475.181 367.622C475.181 365.762 474.335 364.927 473.666 363.592C472.92 362.103 471.666 361.121 471.142 359.814C470.749 358.833 467.704 357.973 466.851 357.548C465.867 357.057 463.251 357.627 462.56 357.8C460.7 358.264 460.434 358.194 459.279 359.059C457.964 360.043 458.254 360.976 456.502 361.326C454.663 361.693 453.789 360.476 452.464 359.814C450.797 358.983 450.703 358.303 448.678 358.303C447.149 358.303 445.946 356.311 444.891 355.785C443.004 354.843 442.711 353.06 441.105 352.259C439.589 351.502 438.763 350.964 437.319 350.244C436.308 349.74 434.928 349.237 433.533 349.237C432.048 349.237 430.362 349.209 429.242 349.488C427.942 349.813 426.949 350.496 425.456 350.496C424.296 350.496 422.744 350.748 421.417 350.748C419.832 350.748 418.68 350.927 417.378 351.251C415.871 351.628 415.008 352.585 414.097 353.266C413.199 353.938 413.592 355.858 413.592 357.044C413.592 357.746 411.509 359.342 411.068 359.563C410.282 359.955 409.283 361.209 408.039 361.829C406.542 362.576 405.671 362.885 404.253 363.592C402.924 364.255 402.28 364.6 400.467 364.6C398.914 364.6 398.019 363.592 396.428 363.592C395.632 363.592 393.091 361.167 392.642 360.57C391.573 359.148 390.072 358.831 389.108 357.548C388.047 356.135 386.479 355.963 385.322 356.54C383.795 357.302 383.116 357.988 381.536 358.303C380.442 358.522 378.938 358.555 377.497 358.555C375.922 358.555 374.966 359.753 373.711 360.066C373.01 360.241 371.437 361.263 370.177 361.577C368.926 361.89 367.184 361.577 365.886 361.577C364.473 361.577 363.225 360.011 362.1 359.563C360.994 359.121 360.962 356.284 360.586 355.533C359.731 353.828 358.759 353.11 357.052 352.259C355.489 351.479 355.177 351.251 353.013 351.251C351.65 351.251 350.651 348.562 349.48 347.977C347.886 347.182 349.604 345.019 350.237 344.703C351.25 344.198 352.482 344.194 353.771 344.451C355.423 344.781 356.023 343.017 356.295 341.933C356.601 340.712 358.387 340.944 359.324 341.177C360.364 341.437 361.363 341.681 362.857 341.681C363.693 341.681 364.542 339.581 365.381 339.162C365.723 338.992 365.827 337.886 365.886 337.651C366.621 337.285 368.655 333.968 368.915 333.622C369.985 332.198 370.189 332.356 371.692 331.607C372.645 331.131 373.79 330.56 374.721 330.096C376.443 329.237 377.191 330.503 378.255 329.088C378.927 328.193 380.107 327.464 380.779 326.57C381.795 325.217 382.16 325.251 383.555 324.555C385.452 323.608 386.287 324.733 386.837 322.54C387.278 320.779 385.617 319.613 384.817 319.014C383.15 317.766 382.702 316.322 381.031 315.488C379.326 314.637 379.577 312.969 377.245 312.969C376.057 312.969 374.534 310.238 374.216 309.443C373.737 308.248 373.206 307.177 373.206 305.666C373.206 304.065 373.684 303.004 373.964 301.888C374.415 300.087 375.362 299.328 375.73 297.858C376.098 296.391 377.13 296.038 378.255 296.599C379.333 297.137 379.893 297.322 381.031 297.606C383.056 298.111 383.393 296.625 383.808 295.591C384.527 293.797 384.937 294.296 386.332 295.34C387.509 296.221 387.855 296.339 388.856 295.34C390.131 294.067 389.902 293.613 391.128 294.836C391.942 295.648 392.947 296.641 393.399 294.836C393.806 293.213 394.371 292.55 395.419 293.073C396.617 293.671 396.872 294.827 397.438 292.569C397.747 291.337 399.337 293.205 399.71 293.577C400.296 294.161 401.756 292.681 402.486 292.317C402.709 292.206 404.644 293.715 404.758 293.828C405.475 294.544 405.263 296.23 405.263 297.354C405.263 299.048 404.694 299.62 405.01 300.88C405.331 302.162 405.724 302.318 407.03 302.643C407.5 302.761 407.534 298.941 407.534 298.362C407.534 297.09 407.03 296.093 407.03 294.332C407.03 292.537 409.011 293.252 410.311 293.577C411.773 293.941 412.057 294.543 412.583 295.591C413.1 296.624 413.841 297.226 414.602 297.606C416.061 298.334 415.478 296.214 416.874 297.606C417.645 298.376 417.486 299.476 418.136 300.125C418.596 300.584 419.903 297.701 419.903 300.629C419.903 301.023 421.854 301.5 422.174 302.14C422.511 302.811 422.652 303.624 423.184 304.154C423.98 304.949 424.36 305.069 424.698 306.421C424.964 307.48 426.886 306.421 427.98 306.421C428.711 306.421 428.767 307.873 429.999 305.414C430.172 305.069 431.438 307.529 431.514 307.68C431.976 308.604 431.514 310.9 431.514 311.962C431.514 313.132 432.436 313.802 432.776 314.481C433.275 315.477 433.823 315.778 434.542 316.495C435.136 317.087 436.551 317.246 437.571 317.755C438.923 318.429 439.843 318.484 439.843 316.495C439.843 314.39 437.981 314.438 437.067 313.221C435.717 311.426 434.985 311.741 437.067 310.703C438.153 310.161 439.65 311.725 440.6 311.962C441.61 312.214 442.075 313.181 442.62 313.725C443.171 314.276 443.642 315.766 443.882 316.244C444.658 317.793 445.262 316.814 446.406 316.244C447.133 315.881 449.272 317.844 449.435 318.007C450.208 318.778 450.736 319.213 451.959 319.518C453.167 319.819 452.386 318.181 453.978 319.77C454.514 320.304 455.515 319.953 456.25 319.77C457.532 319.45 457.664 321.33 459.026 319.518C459.616 318.733 460.266 320.016 461.298 320.273C462.459 320.563 462.401 320.422 463.822 320.777C464.906 321.047 465.235 318.606 465.842 321.029C466.277 322.767 466.896 321.784 468.113 321.784C468.719 321.784 469.88 321.281 471.142 321.281C472.626 321.281 472.69 322.321 473.414 323.044C474.249 323.877 474.453 324.318 475.433 324.807C476.958 325.567 477.46 324.814 478.462 325.814C479.639 326.988 478.646 327.577 480.734 327.577C482.274 327.577 481.71 327.829 483.763 327.829C486.105 327.829 484.909 328.115 486.792 328.584C488.72 329.065 488.773 328.546 489.821 329.592C490.434 330.203 491.535 330.447 492.345 330.851C492.353 330.855 495.187 330.676 495.626 330.851C496.648 331.259 497.476 330.263 498.655 330.851C499.758 331.401 500.335 331.837 501.432 332.11C502.501 332.377 502.43 333.576 502.694 334.629C502.795 335.033 504.623 335.74 505.218 335.888C505.504 335.959 506.44 337.863 506.732 338.155C507.598 339.019 508.064 338.797 508.752 340.17C509.223 341.111 510.218 341.165 511.276 341.429C512.366 341.701 511.951 342.688 513.8 342.688C515.065 342.688 515.334 344.026 515.567 344.955C515.905 346.304 516.376 346.518 517.081 347.222C517.692 347.831 519.012 346.466 520.363 346.466C521.605 346.466 522.743 346.934 523.896 347.222C525.279 347.567 526.352 347.657 527.178 348.481C528.309 349.61 527.689 350.746 526.421 351C524.852 351.313 523.781 351.154 522.382 351.503C520.579 351.953 520.549 352.631 521.12 353.77C521.433 354.395 523.717 353.662 524.149 353.77C525.756 354.171 525.829 354.446 525.159 355.785C524.517 357.066 524.085 356.713 526.421 357.296C526.584 357.337 526.757 357.296 526.925 357.296C528.175 357.296 528.737 356.14 529.954 355.533C531.141 354.941 532.452 356.488 532.731 357.044C532.855 357.292 529.414 358.699 529.197 358.807C527.351 359.728 526.596 358.205 525.663 360.066C525.129 361.133 526.851 360.552 527.935 360.822C528.673 361.006 530.108 362.032 530.712 362.333C531.285 362.619 531.905 362.803 532.478 363.089C533.433 363.565 533.236 365.159 533.236 366.363C533.236 367.412 529.8 365.152 529.197 364.852C528.121 364.315 527.511 364.139 525.663 364.6C525.01 364.763 525.5 365.963 525.663 366.615L523.392 369.133C522.971 369.301 522.55 369.469 522.13 369.637C522.019 369.681 521.961 369.805 521.877 369.889C521.268 370.496 518.063 370.141 517.081 370.141C515.345 370.141 515.028 370.053 513.548 370.644C512.157 371.199 510.906 371.584 509.761 372.155C508.107 372.981 508.247 373.298 508.247 375.429C508.247 377.194 506.986 377.192 505.975 378.2C505.231 378.943 502.904 379.426 502.189 379.711C500.79 380.269 499.665 380.341 498.15 380.718C496.599 381.105 495.75 381.884 494.364 382.23C492.887 382.598 492.328 384.027 491.84 385C491.4 385.879 491.84 388.274 491.84 389.281C491.84 391.49 491.971 391.925 490.073 392.304C488.821 392.554 487.458 393.128 486.539 393.311C485.102 393.598 483.872 394.012 482.753 394.57C481.625 395.133 479.935 395.695 478.967 396.082C477.253 396.766 477.64 398.718 476.073 399.343C475.211 399.687 474.193 400.352 473.162 400.867C471.778 401.557 470.798 402.298 469.628 402.882C468.105 403.641 467.104 403.837 467.104 406.156C467.104 407.583 467.104 409.01 467.104 410.437C467.104 411.928 466.366 412.321 464.832 412.704C463.386 413.065 463.363 413.963 461.298 413.963C459.771 413.963 458.335 413.492 457.26 412.956C456.076 412.365 454.773 412.452 453.221 412.452C451.356 412.452 450.897 411.948 449.182 411.948C447.431 411.948 446.426 411.445 444.891 411.445C443.391 411.445 442.51 410.941 440.6 410.941C439.604 410.941 437.89 410.437 436.562 410.437C435.13 410.437 434.509 409.43 432.776 409.43C432.004 409.43 429.598 408.222 428.989 407.919C427.72 407.286 426.321 406.12 425.708 404.897C425.241 403.965 427.589 402.768 427.98 402.378C428.158 402.2 425.228 399.242 424.951 399.104C423.223 398.242 422.384 397.865 421.669 396.082C421.115 394.699 422.517 394.49 420.66 393.563Z" fill="#353E54" stroke="#171B24" stroke-width="0.905775"/>
<path fill-rule="evenodd" clip-rule="evenodd" d="M276.459 266.007L276.28 494.809L279.88 494.192L279.523 497.219L284.164 498.288L286.841 495.795L290.232 495.617H295.23L296.836 498.466L299.513 497.754L304.333 498.822L306.653 500.959L306.474 502.562L308.259 503.809L313.435 502.206L309.509 504.343L309.687 505.946L310.936 508.261C310.936 508.261 312.007 510.398 311.115 510.398C310.222 510.398 307.367 508.261 307.367 508.261L305.046 507.192V508.973L305.76 511.645L307.724 513.96L309.509 517.878L308.081 521.439L305.403 521.083L300.584 516.809L298.443 517.521L299.157 520.371C299.157 520.371 300.049 522.33 300.049 523.042C300.049 523.755 300.049 525.892 300.049 525.892L297.193 527.138L294.159 528.385C294.159 528.385 293.267 529.631 293.624 530.344C293.981 531.056 296.122 533.371 296.122 533.371L299.335 534.262L302.548 536.933L306.831 539.426L308.259 539.783L309.33 542.988C309.33 542.988 309.33 543.879 310.758 544.413C312.186 544.947 314.149 545.125 314.149 545.125C314.149 545.125 316.291 543.879 315.755 543.166C315.22 542.454 313.078 541.029 313.078 541.029L311.293 538.892L310.222 536.755C310.222 536.755 310.222 533.549 310.579 532.659C310.936 531.768 312.007 530.166 312.007 530.166C312.007 530.166 313.614 528.385 314.328 528.385C315.041 528.385 317.719 528.741 317.719 528.741L321.11 530.166L324.144 532.659L328.963 534.618L331.462 538.18L336.102 540.139L339.672 542.632L341.992 543.7L346.276 541.92L351.095 543.166L354.665 546.55L360.315 544.713L361.625 542.632L367.158 540.317L370.907 538.714L371.263 534.084L369.836 530.878L368.765 525.001L366.98 522.33V516.809L364.303 513.603L361.447 506.124L360.733 504.699L366.801 499.356L362.875 496.151L365.73 491.342L369.122 489.562L370.371 486.89L370.728 482.616L367.158 479.054L363.946 475.849L363.232 472.999L364.124 469.616L369.657 465.342L371.62 466.588L373.227 468.013L373.941 470.15L376.796 470.684L378.76 468.903L380.723 464.985L380.366 461.78L383.043 459.287L384.114 455.19L390.897 450.382L392.681 447.355L392.324 440.409L390.54 435.423L393.931 427.587L398.393 425.272L400.535 421.71L404.997 419.929L407.138 416.901L411.422 415.477L415.527 414.764L422.845 414.052L420.525 411.559L419.454 407.641L416.955 402.12L415.527 399.449L411.957 395.353L409.459 392.147L408.388 391.435C408.388 391.435 406.781 391.435 406.781 392.147C406.781 392.859 404.64 394.106 404.64 394.106L402.676 394.64L400.892 396.599L402.319 398.202L401.784 400.161L398.214 401.408L394.645 401.052L394.109 402.12L392.503 403.723L389.647 403.011L387.505 401.052L388.219 398.736L390.183 393.572L389.112 388.763C389.112 388.763 386.434 386.804 385.185 386.983C383.936 387.161 379.117 388.763 379.117 388.763L375.369 389.298L369.836 391.613L366.087 392.681L360.886 392.009L361.991 399.627L360.982 402.724L359.314 404.579L357.877 403.949C357.877 403.949 356.893 401.456 356.536 400.744C356.179 400.032 354.268 397.134 354.268 396.421C354.268 395.709 352.462 389.371 352.462 389.371L349.31 386.983L348.596 385.202L348.953 382.53L351.452 379.681L352.166 376.475L349.667 373.626L345.027 369.53L340.743 365.256L337.352 358.488L335.21 355.283L334.496 353.324L336.459 349.94L338.78 345.666L337.352 344.241L335.032 341.926L333.604 339.967L331.819 338.186L331.997 335.515L333.782 333.912L334.675 332.309L335.745 329.104L337.173 327.501H339.494L341.278 324.83L345.027 322.693L347.347 321.624L349.667 322.693L350.024 324.117L353.058 325.542L354.665 326.967L355.735 327.857L358.056 327.679L359.127 323.939L361.447 324.474H363.053V321.624C363.053 321.624 362.518 320.556 360.733 319.843C358.948 319.131 357.699 318.062 357.699 318.062L354.843 314.679L352.166 315.213C352.166 315.213 349.667 316.281 348.596 316.46C347.525 316.638 343.42 316.994 343.42 316.994L338.958 318.419L335.032 320.199L332.533 320.734L330.569 322.158L328.785 324.652L327.357 326.789L326.286 326.076L327.714 323.049L325.572 321.09L323.252 320.912L322.538 318.062L324.858 313.788L323.43 310.761L320.217 309.158L320.753 306.487L321.11 302.925L318.968 300.788L316.291 299.363L313.614 301.144C313.614 301.144 310.758 303.103 309.152 302.391C307.545 301.678 305.939 299.541 305.939 299.541L307.545 298.295H309.152L312.007 299.363L313.614 297.226L311.472 295.267H308.438L305.403 294.555L301.655 291.527C301.655 291.527 299.335 292.061 300.227 292.596C301.12 293.13 302.191 296.336 302.191 296.336C302.191 296.336 303.44 298.295 302.369 298.295C301.298 298.295 299.692 297.404 299.692 297.404L296.122 292.774L297.729 289.924L298.264 287.609L296.658 286.006L295.587 284.76L293.802 280.664L291.66 277.636L289.518 275.321H286.127L282.915 274.609L281.487 273.184L278.988 270.157L277.203 266.773L276.459 266.007Z" fill="#353E54" stroke="#171B24" stroke-width="0.905775"/>
<path fill-rule="evenodd" clip-rule="evenodd" d="M350.111 387.895C351.488 387.991 352.805 388.409 354.14 388.698C355.584 389.6 357.221 390.112 358.819 390.666C360.054 391.533 361.925 391.48 362.912 392.576C363.376 394.169 363.177 395.836 363.363 397.466C363.301 399.44 363.498 401.435 363.24 403.396C363.056 405.041 361.675 405.982 360.084 406.079C358.614 406.605 357.083 406.225 356.379 404.771C355.774 403.541 355.411 402.113 354.282 401.228C353.822 400.015 353.466 398.763 352.887 397.592C352.274 396.11 353.059 394.362 352.166 392.943C351.663 391.667 350.327 390.78 350.331 389.275C349.955 388.863 349.791 388.433 350.111 387.895Z" fill="#353E54" stroke="#171B24" stroke-width="0.905775"/>
<path fill-rule="evenodd" clip-rule="evenodd" d="M276.846 572.016V712.706H328.963V711.281L326.821 708.432L325.393 702.733L325.75 696.322L321.109 692.048L318.968 688.486L321.466 683.499L326.107 678.513L331.461 677.088L334.317 675.664L339.315 670.677L346.811 669.965L351.451 673.17L349.31 667.115L350.024 659.636L350.738 654.649L351.005 650.375L347.703 650.642L342.26 648.95L339.315 638.71L337.441 634.792L338.333 628.648L338.601 626.867L339.136 624.73L336.994 621.97L334.853 618.497L332.622 615.559L328.873 610.572L328.963 602.914L328.427 601.134L326.196 598.997L322.983 593.298L319.86 586.263L316.469 581.099L315.781 577.945L314.416 582.523L314.684 587.065L316.023 590.27V593.387L313.256 599.264L311.293 603.271L308.526 604.517L302.904 604.606L299.156 603.716L295.229 602.647L293.98 603.894L292.909 601.045L291.124 597.483L289.34 593.921L285.77 589.469L283.45 587.332L280.594 583.77L278.809 580.03V575.756L276.846 572.016Z" fill="#353E54" stroke="#171B24" stroke-width="0.905775"/>
<path fill-rule="evenodd" clip-rule="evenodd" d="M1016.12 712.349H358.235L362.161 709.5L364.303 708.788L365.017 704.87V701.308L363.589 700.596L359.305 702.376L360.733 700.239L362.875 698.815H367.873L369.3 696.678V694.897L365.731 691.335V688.486L370.014 684.211L372.424 682.698L373.406 681.807L373.584 685.102C373.584 685.102 374.833 686.527 375.101 686.883C375.369 687.239 376.707 688.753 377.332 689.287C377.957 689.821 379.742 690.89 380.188 691.157C380.634 691.424 384.025 692.136 384.025 692.136L387.327 689.821C387.327 689.821 385.542 688.04 385.542 687.595C385.542 687.15 385.899 684.835 385.899 684.835L386.613 681.896C386.613 681.896 387.238 679.759 387.238 679.047C387.238 678.334 387.059 676.197 387.059 676.197L384.293 673.971L381.348 672.547L379.563 674.417L375.994 677.978L373.852 680.204C373.852 680.204 375.101 677.266 375.19 676.643C375.28 676.019 375.904 672.814 375.904 672.814C375.904 672.814 376.083 671.656 376.529 671.122C376.975 670.588 379.117 669.608 379.117 669.608C379.117 669.608 380.723 668.54 381.17 668.272C381.616 668.005 383.847 667.115 384.115 666.581C384.382 666.046 385.185 663.642 385.185 663.642L383.49 661.772L382.508 658.389L380.723 656.251L380.009 652.868L381.437 649.484C381.437 649.484 382.508 647.169 382.687 646.279C382.865 645.388 383.222 642.895 383.222 642.895L382.865 638.443C382.865 638.443 382.865 636.128 383.044 635.415C383.222 634.703 384.471 634.347 384.471 634.347L386.435 635.771L388.22 639.867L389.647 640.936L391.075 640.758L391.432 637.374L391.789 635.593L393.931 634.881H396.965L400.356 636.84L403.034 640.58L404.818 642.361L407.496 644.498L408.924 646.635L406.425 648.059L404.283 649.662L402.855 651.799L405.532 651.621L407.674 650.553L408.924 650.196L410.351 651.443L412.136 652.155L412.85 649.84L414.635 647.703C414.635 647.703 415.884 644.676 414.278 644.854C412.672 645.032 410.53 645.388 410.53 645.388L408.745 643.251C408.745 643.251 408.924 640.936 409.638 640.58C410.351 640.224 413.207 638.443 413.207 638.443L415.349 635.593L417.669 631.319L416.955 626.867L412.315 624.908L409.994 622.059L409.638 620.1C409.638 620.1 410.708 618.853 406.782 617.784C402.855 616.716 402.498 616.716 402.498 616.716L398.393 616.004L396.073 614.935L395.002 613.866L393.931 612.086L395.984 608.079L398.125 601.133V597.215L394.377 592.763L396.073 588.756L394.377 584.571L397.322 580.03L398.661 580.92L400.624 580.564L405.086 575.221L409.459 573.44L414.546 572.728L415.26 573.975L416.777 581.811L420.079 580.386L422.221 577.893L440.515 578.427L443.371 581.721L447.833 583.591L450.867 586.352L459.345 607.099L466.93 609.949L471.749 610.038L474.07 613.243L479.067 614.401L482.637 625.086L487.01 626.065L492.007 628.47L498.254 629.716L500.396 625.976L497.986 621.969L496.112 615.647L503.43 615.113L504.322 609.503L507.267 609.058L510.212 607.544L511.105 602.825L512.89 598.729L518.512 602.558L539.662 607.9L544.66 608.791L554.655 610.75L560.277 611.284L563.222 608.524L566.434 610.216L570.004 612.887L573.841 615.202L574.734 618.853L575.805 621.88L573.574 624.374L575.002 628.381L577.322 629.538L582.141 632.922L585.8 636.395L586.781 641.025L594.635 640.58L602.309 638.977L607.128 638.443L606.682 640.847L606.771 643.073L608.199 645.121L611.412 651.799L612.751 656.875L614.357 663.731L616.409 672.814L618.016 680.293L618.551 681.362L622.032 680.561L622.835 679.225L623.638 678.869L627.922 681.54L628.546 683.766L634.793 686.527L643.093 685.636L644.431 686.17L645.324 688.218L646.662 691.068L648.626 696.589L650.5 697.746L653.355 701.575L655.14 703L661.923 704.692L664.421 706.116L669.419 710.479L676.201 708.788L678.075 707.274L683.876 706.918L692.711 701.931L704.491 695.876L721.179 698.993L723.142 703.267L737.242 706.205L743.221 705.582L747.326 701.13L748.04 697.479L745.274 694.006L746.434 688.218L752.056 680.293L757.946 682.965L765.175 684.657L769.369 685.102L775.08 686.348L775.973 690.623L778.739 695.164L787.931 698.28L792.125 696.678L795.16 694.897L800.693 693.294L807.386 693.917L810.866 695.164L818.362 695.965L822.111 699.26L835.764 699.972L844.778 696.143L851.828 691.958L853.523 690.444L857.539 685.725L860.217 679.759L865.66 678.691L870.033 680.115L876.012 678.513L878.065 677.088L881.634 677.978L885.383 678.602L890.916 677.978L894.664 671.389L897.698 667.471L895.645 658.478L897.787 642.45L893.504 638.977L891.094 634.258L897.966 630.429L902.695 625.175L906.979 622.148L911.441 621.079L920.544 621.168L926.523 623.216L942.14 634.079L946.245 639.6L952.581 644.409L958.203 644.498L962.844 642.004L977.479 642.806L981.495 646.724L984.53 648.505L987.921 648.95C993.312 647.369 994.845 642.513 997.648 638.354L1005.14 625.531L1006.3 627.045L1009.61 633.723L1011.3 637.908L1010.59 641.025L1010.77 642.628L1015.59 652.334L1017.01 662.217L1017.1 665.69L1015.23 667.738L1010.86 669.252L1007.11 671.567L1006.13 675.04L1007.02 679.403L1011.66 684.033L1015.5 688.753L1017.46 692.403L1017.99 697.301L1017.82 699.794L1019.42 702.198L1018.98 704.424L1016.92 705.582L1015.67 707.274L1016.12 712.349Z" fill="#353E54" stroke="#171B24" stroke-width="0.905775"/>
<path d="M809.88 648.943C802.33 653.908 790.408 656.67 787.725 644.97C787.54 636.314 791.181 627.739 791.475 619.359C800.887 613.203 802.372 601.303 811.649 595.276C819.657 589.35 820.894 579.148 825.602 570.821C832.164 560.83 843.025 572.268 850.964 568.806C854.106 557.775 864.143 552.464 873.998 547.867C881.437 542.209 886.938 534.204 891.672 526.318C892.706 518.453 885.575 506.684 876.63 509.77C867.037 510.498 859.074 505.145 850.892 501.113C844.493 494.15 837.088 487.735 832.402 479.428C828.619 468.511 831.172 456.536 832.571 445.38C831.856 435.335 828.419 441.856 824 433.906" stroke="#171B24" stroke-width="0.905775"/>
<path d="M637.23 711.404C641.008 706.631 642.694 701.395 636.327 697.908C630.305 689.996 621.228 686.234 612.585 682.168C601.734 675.217 599.287 661.455 597.688 649.654C593.13 642.375 591.59 633.642 587.258 626.285C586.277 617.059 601.326 617.236 600.456 608.037C599.629 597.813 588.931 594.694 583.555 587.461C580.87 582.807 567.771 579.368 578.234 575.719C581.851 569.419 590.607 566.43 591.976 558.025C589.886 550.236 585.693 542.325 583.09 534.249C576.061 524.92 589.974 519.369 592.564 511.521C595.9 504.293 599.038 493.184 608.124 492.192C611.58 493.499 613.415 496.454 616.859 497.8" stroke="#171B24" stroke-width="0.905775"/>
<path d="M662.975 701.329C656.677 706.82 649.542 692.423 660.524 694.678C668.594 691.599 654.087 681.774 661.054 676.225C663.046 666.426 643.74 673.98 649.703 663.546C650.379 653.398 634.616 657.667 635.045 648.17C641.971 646.356 649.282 643.12 651.044 634.732C656.295 627.823 663.473 618.282 656.507 609.788C650.241 603.692 647.342 594.511 640.736 588.902C631.868 583.796 634.525 571.106 626.326 565.364C617.13 557.463 605.173 553.965 593.856 550.259C591.992 550.167 591.019 550.417 589.154 550.394" stroke="#171B24" stroke-width="0.905775"/>
<path d="M748.544 674.128C743.575 682.324 732.819 679.769 727.508 673.818C717.789 672.524 721.582 688.011 711.601 685.959C701.12 686.803 705.536 675.602 699.801 670.417C704.514 663.782 698.222 656.483 700.342 648.82C706.527 644.59 707.959 634.545 714.147 630.875C715.018 622.204 712.479 613.151 705.93 607.168C700.152 599.973 700.85 590.335 697.126 582.262C697.429 573.656 692.211 567.415 689.109 559.394C682.713 552.141 689.579 543.917 691.322 536.359C696.698 527.999 687.22 520.48 687.919 512.659C689.672 504.461 690.065 495.893 689.219 487.593C688.26 481.092 675.878 483.431 681.355 475.07C683.494 469.973 682.273 465.896 684.202 461.235L683.452 460.373L682.16 459.548" stroke="#171B24" stroke-width="0.905775"/>
<path d="M411.321 451.489C413.988 456.528 404.161 464.021 413.317 465.302C419.426 464.139 420.069 469.848 422.039 473.235C428.24 475.238 434.87 474.114 441.041 472.899C443.786 475.736 441.517 483.672 445.473 487.627C448.221 492.401 453.485 498.73 446.242 502.545C442.674 509.195 445.957 517.75 453.221 519.993C458.904 524.605 464.07 531.662 462.047 539.309C459.69 545.556 446.299 540.902 448.814 549.44C448.027 552.278 442.573 554.895 448.425 557.268C452.342 564.213 443.666 556.298 441.235 555.821C435.734 558.298 428.23 563.472 422.932 557.772C417.537 553.263 410.4 556.911 406.681 561.674C400.711 564.144 394.82 566.143 388.998 569.05C384.901 570.509 379.946 571.943 385.575 576.157C391.393 581.429 382.804 588.259 387.143 594.131C381.746 598.055 388.92 608.439 380.477 608.714C379.098 609.531 377.422 609.781 376.235 610.913" stroke="#171B24" stroke-width="0.905775"/>
<path d="M402.991 498.083C402.405 504.862 397.56 508.006 391.885 510.424C387.659 514.064 383.658 518.236 380.574 522.764C383.332 528.975 374.598 531.021 375.837 536.733C377.06 543.812 381.962 549.403 384.98 555.831C389.88 563.416 379.267 564.973 373.837 564.573C367.253 565.988 361.678 564.053 358.152 558.259C352.817 555.035 347.487 552.138 342.412 548.454" stroke="#171B24" stroke-width="0.905775"/>
<path d="M378.255 564.572C378.282 566.329 381.873 570.153 383.245 572.216" stroke="#171B24" stroke-width="0.905775"/>
</g>
<g filter="url(#filter0_f_592_8467)">
<path d="M314.669 110.965L930.5 235C930.5 235 915.203 313.866 903.5 349.5C851.823 365.572 626.366 372.11 493 445C351.241 522.477 345.917 682.85 447.572 774.473C388.627 755.114 123.047 694.419 123.047 694.419L157.5 176.5L314.669 110.965Z" fill="url(#paint0_radial_592_8467)"/>
</g>
<circle cx="486.114" cy="503.304" r="3.6231" fill="#6DA8FF"/>
<circle cx="456.223" cy="544.97" r="3.6231" fill="#6DA8FF"/>
<circle cx="559.482" cy="589.352" r="3.6231" fill="#6DA8FF"/>
<circle cx="500.607" cy="662.721" r="3.6231" fill="#6DA8FF"/>
<circle cx="772.339" cy="530.477" r="3.6231" fill="#6DA8FF"/>
<circle cx="509.665" cy="506.928" r="3.6231" fill="#6DA8FF"/>
<circle cx="405.501" cy="467.073" r="3.6231" fill="#6DA8FF"/>
<circle cx="386.479" cy="522.326" r="3.6231" fill="#6DA8FF"/>
<circle cx="518.722" cy="596.599" r="3.6231" fill="#6DA8FF"/>
<defs>
<filter id="filter0_f_592_8467" x="21.5998" y="9.51812" width="1010.35" height="866.402" filterUnits="userSpaceOnUse" color-interpolation-filters="sRGB">
<feFlood flood-opacity="0" result="BackgroundImageFix"/>
<feBlend mode="normal" in="SourceGraphic" in2="BackgroundImageFix" result="shape"/>
<feGaussianBlur stdDeviation="50.7234" result="effect1_foregroundBlur_592_8467"/>
</filter>
<radialGradient id="paint0_radial_592_8467" cx="0" cy="0" r="1" gradientUnits="userSpaceOnUse" gradientTransform="translate(527.023 503.901) rotate(155.446) scale(196.207 219.375)">
<stop stop-color="#1A1F2B" stop-opacity="0"/>
<stop offset="1" stop-color="#1A1F2B"/>
</radialGradient>
<clipPath id="clip0_592_8467">
<rect width="896.718" height="459.228" fill="white" transform="translate(275.07 254.216)"/>
</clipPath>
</defs>
</svg>
