<svg width="20" height="20" viewBox="0 0 20 20" fill="none" xmlns="http://www.w3.org/2000/svg">
<path fill-rule="evenodd" clip-rule="evenodd" d="M9.99984 18.3332C14.6022 18.3332 18.3332 14.6022 18.3332 9.99984C18.3332 5.39746 14.6022 1.6665 9.99984 1.6665C5.39746 1.6665 1.6665 5.39746 1.6665 9.99984C1.6665 11.1083 1.88293 12.1662 2.27582 13.1336C2.35101 13.3188 2.38862 13.4114 2.40539 13.4862C2.4218 13.5594 2.4278 13.6136 2.42781 13.6886C2.42782 13.7653 2.41389 13.8488 2.38605 14.0159L1.83699 17.3102C1.7795 17.6552 1.75075 17.8277 1.80425 17.9524C1.85107 18.0616 1.93806 18.1486 2.04723 18.1954C2.17196 18.2489 2.34445 18.2202 2.68943 18.1627L5.98377 17.6136C6.15084 17.5858 6.23438 17.5719 6.31107 17.5719C6.38609 17.5719 6.44026 17.5779 6.51347 17.5943C6.5883 17.6111 6.68088 17.6487 6.86603 17.7239C7.83345 18.1167 8.89137 18.3332 9.99984 18.3332ZM6.92126 9.99979C6.92126 10.6677 6.37981 11.2091 5.7119 11.2091C5.04399 11.2091 4.50255 10.6677 4.50255 9.99979C4.50255 9.33188 5.04399 8.79044 5.7119 8.79044C6.37981 8.79044 6.92126 9.33188 6.92126 9.99979ZM11.2092 9.99979C11.2092 10.6677 10.6677 11.2091 9.99984 11.2091C9.33193 11.2091 8.79048 10.6677 8.79048 9.99979C8.79048 9.33188 9.33193 8.79044 9.99984 8.79044C10.6677 8.79044 11.2092 9.33188 11.2092 9.99979ZM14.2878 11.2091C14.9557 11.2091 15.4971 10.6677 15.4971 9.99979C15.4971 9.33188 14.9557 8.79044 14.2878 8.79044C13.6199 8.79044 13.0784 9.33188 13.0784 9.99979C13.0784 10.6677 13.6199 11.2091 14.2878 11.2091Z" fill="#285BF3"/>
</svg>
