<svg width="20" height="20" viewBox="0 0 20 20" fill="none" xmlns="http://www.w3.org/2000/svg">
<path d="M10.0004 1.44043C12.3139 1.44043 14.1948 3.42225 14.1948 5.85866C14.1948 8.29489 12.3139 10.2756 10.0004 10.2756C7.68693 10.2756 5.80479 8.29489 5.80479 5.85866C5.80479 3.42225 7.68691 1.44043 10.0004 1.44043ZM9.95584 4.02899C9.01875 4.05411 8.26319 4.86599 8.26319 5.85869C8.26319 6.86671 9.04274 7.68703 10.0004 7.68703C10.958 7.68703 11.7364 6.86671 11.7364 5.85869C11.7364 4.85026 10.9579 4.02899 10.0004 4.02899C9.98548 4.02899 9.97074 4.02858 9.95584 4.02899ZM6.5272 10.4259C6.74941 10.4267 6.97359 10.4911 7.17573 10.6251C8.89278 11.7623 11.1063 11.763 12.8239 10.6251C13.399 10.2437 14.1569 10.4268 14.5191 11.0324C14.8808 11.637 14.707 12.4364 14.1324 12.8172C13.3831 13.3131 12.5597 13.6722 11.6969 13.8793L14.0425 16.3498C14.5227 16.8544 14.5227 17.6747 14.0425 18.1801C13.5621 18.6858 12.7849 18.6858 12.3053 18.1801L9.99916 15.7526L7.69557 18.1801C7.45569 18.4329 7.14093 18.5592 6.82663 18.5592C6.51199 18.5592 6.1983 18.4325 5.95768 18.1801C5.47758 17.6744 5.47772 16.8555 5.95768 16.3498L8.30205 13.8793C7.44833 13.6743 6.62458 13.3184 5.86595 12.8172C5.29242 12.4364 5.11995 11.6379 5.4818 11.0324C5.70731 10.6539 6.08828 10.4401 6.48262 10.4265C6.49748 10.426 6.51233 10.4258 6.5272 10.4259Z" fill="#285BF3"/>
</svg>
