<svg width="20" height="20" viewBox="0 0 20 20" fill="none" xmlns="http://www.w3.org/2000/svg">
<path fill-rule="evenodd" clip-rule="evenodd" d="M10.3357 0.987538C10.1141 0.941979 9.88567 0.941979 9.66415 0.987538C9.40809 1.0402 9.17922 1.16839 8.99727 1.2703L8.94768 1.29801L5.85745 3.0148C5.84875 3.01943 5.84013 3.02422 5.83159 3.02917L2.78101 4.72394L2.72839 4.753C2.53578 4.85909 2.2936 4.99248 2.10762 5.19429C1.94683 5.36878 1.82515 5.57558 1.75071 5.80087C1.66461 6.06146 1.66562 6.33794 1.66642 6.55783L1.66657 6.61794V13.3822L1.66642 13.4423C1.66562 13.6622 1.66461 13.9387 1.75071 14.1993C1.82515 14.4246 1.94683 14.6314 2.10762 14.8059C2.2936 15.0077 2.53579 15.1411 2.7284 15.2471L2.78101 15.2762L8.94768 18.7021L8.99727 18.7298C9.17922 18.8317 9.40809 18.9599 9.66415 19.0126C9.88567 19.0582 10.1141 19.0582 10.3357 19.0126C10.5917 18.9599 10.8206 18.8318 11.0025 18.7299L11.0025 18.7298L11.0521 18.7021L17.2188 15.2762L17.2714 15.2471C17.464 15.1411 17.7062 15.0077 17.8922 14.8059C18.053 14.6314 18.1747 14.4246 18.2491 14.1993C18.3352 13.9387 18.3342 13.6622 18.3334 13.4423L18.3332 13.3822V6.61794L18.3334 6.55783C18.3342 6.33794 18.3352 6.06146 18.2491 5.80087C18.1747 5.57558 18.053 5.36878 17.8922 5.19429C17.7062 4.99248 17.464 4.85908 17.2714 4.753L17.2188 4.72393L11.0521 1.29801L11.0025 1.2703C10.8206 1.16839 10.5917 1.0402 10.3357 0.987538ZM6.24992 4.70336L4.21585 5.8334L9.99988 9.04675L12.0339 7.91671L6.24992 4.70336ZM14.1424 8.65193C14.1511 8.64732 14.1597 8.64255 14.1682 8.63763L16.6666 7.24963V13.3822C16.6666 13.5347 16.6662 13.6127 16.6628 13.6692L16.6625 13.674L16.6585 13.6766C16.6107 13.707 16.5427 13.7452 16.4094 13.8193L10.8332 16.9171L10.8332 10.4904L14.1424 8.65193ZM13.7499 6.96341L7.96586 3.75006L9.75708 2.75494C9.88337 2.68478 9.94783 2.64933 9.99592 2.62614L9.9999 2.62423L10.0039 2.62614C10.052 2.64933 10.1164 2.68478 10.2427 2.75494L15.7839 5.83338L13.7499 6.96341ZM3.33323 7.24966L9.16654 10.4904L9.16656 16.9171L3.59041 13.8193C3.45712 13.7452 3.38907 13.707 3.34132 13.6766L3.33729 13.674L3.33698 13.6692C3.33358 13.6127 3.33323 13.5347 3.33323 13.3822V7.24966Z" fill="white"/>
</svg>
