<svg width="213" height="88" viewBox="0 0 213 88" fill="none" xmlns="http://www.w3.org/2000/svg">
<g>
<g clip-path="url(#clip0_592_7818)">
<path d="M40.5813 41.283C39.0852 39.9294 36.7778 40.0462 35.4275 41.5473C34.0797 43.0484 34.1997 45.3634 35.6959 46.7182C37.192 48.0718 39.4981 47.9537 40.8484 46.4539C42.1963 44.9527 42.0774 42.639 40.5813 41.2842V41.283Z" fill="#FFFFFF"/>
<path d="M27.692 30.0794C25.3051 31.8854 23.3972 34.2963 22.1952 37.0833C23.6386 37.4399 27.9592 38.8512 29.9418 44.2213C30.5385 44.0258 31.8239 43.2746 32.7147 40.3732C33.9106 36.4883 36.1787 32.7521 39.1207 31.4969C36.1873 28.5844 32.3226 27.8996 27.692 30.0782V30.0794Z" fill="#FFFFFF"/>
<path d="M51.5125 32.8886C48.3291 29.0319 43.5197 26.5756 38.138 26.5756C34.2169 26.5756 30.5985 27.88 27.692 30.0794C34.1189 27.0538 39.0729 29.5495 42.1056 35.8588C46.9371 36.728 50.2186 34.3159 51.5125 32.8886Z" fill="#FFFFFF"/>
<path d="M31.3472 60.0352C34.0993 61.2068 37.1345 61.6592 40.1415 61.3101C39.7285 59.8778 38.785 55.4175 42.4292 51.0101C41.9623 50.5896 40.672 49.8483 37.7214 50.5245C33.7709 51.4281 29.4112 51.3248 26.8576 49.3959C25.8112 53.4013 27.1517 57.1031 31.3472 60.0364V60.0352Z" fill="#FFFFFF"/>
<path d="M21.8619 37.9316H21.8606C20.1256 42.6268 20.4099 48.0349 23.1007 52.7104C25.0612 56.1183 27.9959 58.6091 31.3484 60.0352C25.5232 55.9634 25.2009 50.4102 29.1293 44.6196C27.4641 39.986 23.7415 38.341 21.8631 37.9304L21.8619 37.9316Z" fill="#FFFFFF"/>
<path d="M55.3747 41.8818C55.0096 38.9041 53.8823 36.0421 52.0774 33.6029C51.0481 34.6786 47.6698 37.7276 42.0443 36.7649C41.9144 37.3809 41.9206 38.8734 43.9791 41.0986C46.7337 44.0799 48.8253 47.9194 48.4369 51.1036C52.4168 50.0106 54.941 46.9949 55.3747 41.8818Z" fill="#FFFFFF"/>
<path d="M41.0396 61.1761C45.9606 60.3376 50.4845 57.3858 53.1753 52.7104C55.1359 49.3024 55.8196 45.5072 55.3736 41.8817C54.7707 48.9791 50.1402 52.0366 43.1791 51.5178C40.0128 55.2823 40.4539 59.3393 41.0396 61.1773V61.1761Z" fill="#FFFFFF"/>
<path d="M66.725 53.1862H62.8015V34.8139H69.1059C70.2564 34.8139 71.2943 34.9368 72.2194 35.1815C73.1433 35.4261 73.9325 35.7986 74.5868 36.2966C75.2411 36.7945 75.7423 37.4338 76.0903 38.212C76.4395 38.9902 76.6135 39.9049 76.6135 40.9548C76.6135 42.0047 76.4346 42.9059 76.0768 43.7111C75.719 44.5164 75.2007 45.1938 74.5206 45.7446C73.8406 46.2953 73.0122 46.7158 72.0356 47.0047C71.059 47.2936 69.9599 47.4375 68.7395 47.4375H66.725V53.1862ZM66.6466 43.9742H68.7922C69.9783 43.9742 70.9022 43.7431 71.5651 43.2784C72.228 42.8149 72.5589 42.0932 72.5589 41.1134C72.5589 40.0807 72.2354 39.3504 71.5908 38.9226C70.9463 38.4935 70.0212 38.2796 68.8179 38.2796H66.6466V43.9742Z" fill="#FFFFFF"/>
<path d="M88.4882 53.5009C87.1624 53.5009 85.9554 53.2944 84.8649 52.8838C83.7756 52.4731 82.8382 51.8646 82.0527 51.0593C81.2673 50.2553 80.662 49.2619 80.2343 48.0805C79.8067 46.899 79.5935 45.5393 79.5935 44C79.5935 42.4608 79.8153 41.0999 80.2601 39.9184C80.7049 38.7369 81.3188 37.7448 82.1042 36.9395C82.8897 36.1343 83.8172 35.5269 84.8906 35.1151C85.9628 34.7045 87.1269 34.4979 88.3828 34.4979C89.7956 34.4979 91.0553 34.7168 92.163 35.1544C93.2695 35.5921 94.2032 36.2166 94.9616 37.0305C95.7201 37.8444 96.2997 38.8414 96.7016 40.0229C97.1023 41.2044 97.3033 42.5297 97.3033 43.9988C97.3033 45.6253 97.0815 47.0391 96.6367 48.2378C96.1919 49.4365 95.5731 50.4249 94.7791 51.2032C93.9851 51.9814 93.0526 52.5592 91.9804 52.9354C90.9082 53.3116 89.7442 53.4997 88.4882 53.4997V53.5009ZM88.6193 50.0364C89.2822 50.0364 89.8924 49.9135 90.45 49.6689C91.0075 49.4242 91.4878 49.0517 91.8885 48.5538C92.2892 48.0559 92.5992 47.4301 92.8173 46.6777C93.0354 45.9253 93.1445 45.0327 93.1445 44C93.1445 41.9174 92.7083 40.3917 91.837 39.4205C90.9646 38.4493 89.814 37.9636 88.384 37.9636C87.7383 37.9636 87.133 38.0866 86.5657 38.3312C85.9983 38.5759 85.507 38.9484 85.0879 39.4463C84.6688 39.9442 84.3429 40.5749 84.1064 41.3359C83.8711 42.0969 83.7535 42.9858 83.7535 44C83.7535 45.0143 83.8797 45.9253 84.1334 46.6777C84.3858 47.4301 84.7301 48.0559 85.1663 48.5538C85.6025 49.0529 86.1172 49.4242 86.7102 49.6689C87.3033 49.9135 87.9405 50.0364 88.6205 50.0364H88.6193Z" fill="#FFFFFF"/>
<path d="M114.883 52.4584C114.638 52.5801 114.373 52.7018 114.085 52.8235C113.797 52.9452 113.457 53.0583 113.065 53.1628C112.673 53.2673 112.219 53.3497 111.705 53.41C111.19 53.4702 110.602 53.5009 109.939 53.5009C108.543 53.5009 107.275 53.2993 106.133 52.8973C104.991 52.4953 104.014 51.9039 103.203 51.1257C102.392 50.3475 101.765 49.3799 101.32 48.2255C100.875 47.0711 100.652 45.7409 100.652 44.2361C100.652 42.7313 100.875 41.2658 101.32 40.0499C101.765 38.8341 102.406 37.8149 103.242 36.9924C104.079 36.1699 105.095 35.5491 106.29 35.1286C107.485 34.7082 108.831 34.4992 110.332 34.4992C111.326 34.4992 112.219 34.5864 113.013 34.761C113.806 34.9356 114.447 35.1372 114.936 35.3647L114.072 38.6718C113.513 38.48 112.947 38.3398 112.371 38.2513C111.795 38.164 111.299 38.1198 110.88 38.1198C109.973 38.1198 109.15 38.2341 108.408 38.4615C107.667 38.6902 107.03 39.0443 106.498 39.5274C105.966 40.0094 105.552 40.6241 105.256 41.3691C104.959 42.1154 104.812 42.9956 104.812 44.0123C104.812 45.9585 105.356 47.4227 106.447 48.405C107.536 49.3873 109.005 49.8779 110.854 49.8779C111.273 49.8779 111.778 49.8213 112.371 49.707C112.964 49.5939 113.54 49.4144 114.098 49.1685L114.882 52.4559L114.883 52.4584Z" fill="#FFFFFF"/>
<path d="M122.756 49.1709L121.448 53.1862H117.578L123.829 34.8139H128.93L135.104 53.1862H131.102L129.794 49.1709H122.756ZM123.829 45.7065H128.721L126.289 37.9907L123.829 45.7065Z" fill="#FFFFFF"/>
<path d="M144.024 53.1862H140.101V38.4357H134.894V34.8139H149.204V38.4357H144.024V53.1862Z" fill="#FFFFFF"/>
<path d="M159.928 53.5009C158.603 53.5009 157.395 53.2944 156.304 52.8838C155.214 52.4731 154.278 51.8646 153.492 51.0593C152.707 50.2553 152.101 49.2619 151.674 48.0805C151.246 46.899 151.033 45.5393 151.033 44C151.033 42.4608 151.256 41.0999 151.701 39.9184C152.146 38.7369 152.761 37.7448 153.545 36.9395C154.329 36.1343 155.258 35.5269 156.331 35.1151C157.405 34.7045 158.569 34.4979 159.824 34.4979C161.236 34.4979 162.496 34.7168 163.604 35.1544C164.71 35.5921 165.644 36.2166 166.402 37.0305C167.161 37.8444 167.74 38.8414 168.142 40.0229C168.543 41.2044 168.744 42.5297 168.744 43.9988C168.744 45.6253 168.522 47.0391 168.077 48.2378C167.633 49.4365 167.014 50.4249 166.22 51.2032C165.426 51.9814 164.493 52.5592 163.421 52.9354C162.348 53.3116 161.185 53.4997 159.929 53.4997L159.928 53.5009ZM160.059 50.0364C160.72 50.0364 161.331 49.9135 161.889 49.6689C162.448 49.4242 162.927 49.0517 163.328 48.5538C163.729 48.0559 164.039 47.4301 164.257 46.6777C164.475 45.9253 164.584 45.0327 164.584 44C164.584 41.9174 164.148 40.3917 163.276 39.4205C162.404 38.4493 161.253 37.9636 159.824 37.9636C159.179 37.9636 158.572 38.0866 158.005 38.3312C157.439 38.5759 156.945 38.9484 156.527 39.4463C156.108 39.9442 155.781 40.5749 155.546 41.3359C155.311 42.0969 155.193 42.9858 155.193 44C155.193 45.0143 155.319 45.9253 155.572 46.6777C155.824 47.4301 156.17 48.0559 156.606 48.5538C157.041 49.0529 157.555 49.4242 158.148 49.6689C158.742 49.9135 159.377 50.0364 160.059 50.0364Z" fill="#FFFFFF"/>
<path d="M193.229 53.1862H189.278L188.284 40.9818L184.518 53.1862H180.777L177.062 41.0347L176.068 53.1862H172.117L173.948 34.8139H178.63L182.763 48.6718L186.845 34.8139H191.37L193.227 53.1862H193.229Z" fill="#FFFFFF"/>
</g>
</g>
<defs>
<clipPath id="clip0_592_7818">
<rect width="172.457" height="34.8489" fill="white" transform="translate(20.7714 26.5756)"/>
</clipPath>
</defs>
</svg>
