<svg width="213" height="88" viewBox="0 0 213 88" fill="none" xmlns="http://www.w3.org/2000/svg">
<g>
<path fill-rule="evenodd" clip-rule="evenodd" d="M117.014 56.839C119.095 56.839 120.783 58.7337 120.783 61.0678C120.783 63.402 119.095 65.2967 117.014 65.2967C114.934 65.2967 113.246 63.402 113.246 61.0678C113.246 58.7337 114.934 56.839 117.014 56.839ZM117.014 53.6172C121.159 53.6172 124.52 56.9538 124.52 61.0679C124.52 65.1819 121.159 68.5185 117.014 68.5185C112.87 68.5185 109.509 65.1819 109.509 61.0679C109.509 56.9538 112.87 53.6172 117.014 53.6172ZM134.568 56.839C135.854 56.839 137.064 57.4151 137.744 58.5198L140.209 56.1551C138.833 54.5997 136.816 53.6172 134.568 53.6172C130.423 53.6172 127.062 56.9538 127.062 61.0679C127.062 65.1819 130.423 68.5185 134.568 68.5185C136.868 68.5185 138.927 67.4899 140.304 65.8714L137.742 63.6778C137.058 64.7474 135.829 65.2967 134.568 65.2967C132.487 65.2967 130.8 63.402 130.8 61.0678C130.8 58.7337 132.487 56.839 134.568 56.839ZM159.378 62.0457H170.158C170.199 61.7257 170.22 61.3993 170.22 61.0679C170.22 56.9538 166.978 53.6172 162.981 53.6172C158.983 53.6172 155.741 56.9538 155.741 61.0679C155.741 65.1819 158.983 68.5185 162.981 68.5185C165.261 68.5185 167.882 68.1316 169.209 66.4358L167.561 64.0503C166.734 65.239 164.546 65.5701 163.15 65.5701C161.305 65.5701 159.761 64.0611 159.378 62.0457ZM159.46 59.7295C159.949 57.8973 161.417 56.5656 163.15 56.5656C164.884 56.5656 166.352 57.8973 166.841 59.7295H159.46ZM142.481 53.9577H154.083V57.1545H150.073V68.178H146.49V57.1545H142.481V53.9577ZM176.15 60.847L171.267 53.9577H175.581L178.504 58.3597L181.427 53.9577H185.741L180.858 60.847L185.963 68.178H181.793L178.504 63.4183L175.215 68.178H171.045L176.15 60.847ZM178.504 59.0258L178.487 59.0539L178.504 59.0542L178.521 59.0539L178.504 59.0258ZM100.794 52.0899C102.35 52.0899 103.611 53.3517 103.611 54.9078C103.611 56.4638 102.35 57.7256 100.794 57.7256H96.0441V52.0899H100.794ZM92.1088 48.7437H101.604C105.007 48.7437 107.768 51.504 107.768 54.9077C107.768 58.3116 105.007 61.0719 101.604 61.0719H96.0441V68.178H92.1088V48.7437Z" fill="#FFFFFF"/>
<path fill-rule="evenodd" clip-rule="evenodd" d="M34.3492 25.7932H50.8523L44.5406 19.4814H28.0375V35.9846L34.3492 42.2963V25.7932ZM54.2598 25.7932H70.7629V42.2963L77.0746 35.9846V19.4814H60.5715L54.2598 25.7932ZM70.7629 45.7038V62.2069H54.2598L60.5715 68.5186H77.0746V52.0155L70.7629 45.7038ZM50.8523 62.2069H34.3492V45.7038L28.0375 52.0155V68.5186H44.5406L50.8523 62.2069Z" fill="#FFFFFF"/>
</g>
</svg>
