<svg width="213" height="88" viewBox="0 0 213 88" fill="none" xmlns="http://www.w3.org/2000/svg">
<g clip-path="url(#clip0_592_7798)">
<path d="M132.968 21.3888V23.3924H150.31C151.463 23.3924 153.202 23.3924 154.359 24.5361C155.517 25.6841 155.517 27.4039 155.517 28.5519V45.7503C155.517 46.8984 155.517 48.6182 154.359 49.7618C153.202 50.9099 151.463 50.9099 150.31 50.9099H141.947C140.504 50.9099 138.62 50.9099 137.898 49.3341C137.18 47.7539 138.186 46.3222 139.06 45.1785L150.327 30.2936H132.986L126.032 39.4603C124.87 40.9968 123.866 42.3281 123.866 44.0436C123.866 45.7634 124.799 47.0031 126.032 48.6269L127.766 50.9186C129.5 53.2103 131.234 55.5019 133.532 56.6368C135.847 57.7761 138.593 57.7761 142.335 57.7761H149.861C154.201 57.7761 160.688 57.7761 165.046 53.4809C169.377 49.1813 169.377 42.8738 169.377 40.6039V33.7071C169.377 31.4111 169.377 25.1079 165.046 20.8301C160.706 16.5261 154.218 16.5392 149.861 16.5349L137.889 16.5283C136.74 16.5283 135.288 16.5283 134.13 17.6763C132.982 18.8244 132.982 20.2561 132.982 21.4041" fill="#FFFFFF"/>
<path d="M112.282 30.25H129.447L108.761 57.75H91.155L112.282 30.25Z" fill="#FFFFFF"/>
<path d="M44.5001 35.1389C44.5001 33.9952 44.5001 32.5591 45.6577 31.4111C46.8108 30.2675 48.2633 30.2675 49.4165 30.2675H78.4658C82.2202 30.2675 84.9798 30.2675 87.2686 31.4111C89.5749 32.5635 91.3091 34.8552 93.0344 37.1294L94.773 39.421C96.0098 41.0492 96.9473 42.2889 96.9473 44.0044C96.9473 45.7242 95.9349 47.0556 94.773 48.5877L87.8187 57.7544H70.4772L81.7448 42.8694C82.6119 41.7214 83.6286 40.294 82.9024 38.7139C82.1849 37.1425 80.3055 37.1425 78.8619 37.1425H65.2615V71.5393H51.3971V37.1425H44.4429V35.1345" fill="#FFFFFF"/>
</g>
<defs>
<clipPath id="clip0_592_7798">
<rect width="125" height="55" fill="white" transform="translate(44.5 16.5)"/>
</clipPath>
</defs>
</svg>
