<svg width="213" height="88" viewBox="0 0 213 88" fill="none" xmlns="http://www.w3.org/2000/svg">
<g>
<path d="M62.1027 42.2031C62.1027 42.2031 62.7769 34.6064 62.8455 33.8626C62.8654 33.4302 62.7976 32.9982 62.646 32.5924C62.4943 32.1866 62.262 31.8152 61.9629 31.5005C61.6638 31.1858 61.3039 30.9342 60.9048 30.7606C60.5058 30.587 60.0756 30.495 59.64 30.4901H40.3441C39.4545 30.4289 38.5764 30.7179 37.8996 31.2948C37.2227 31.8717 36.8016 32.6901 36.7272 33.5731C36.6415 34.4645 35.0416 52.8317 34.9444 53.8877C34.8874 54.3374 34.9263 54.7941 35.0585 55.2279C35.1908 55.6617 35.4134 56.063 35.712 56.4057C36.0105 56.7484 36.3783 57.0249 36.7915 57.2171C37.2046 57.4093 37.6538 57.513 38.1099 57.5214H57.2915C59.8399 57.5214 60.8284 56.1815 61.0456 54.1148C61.177 52.8771 61.8055 45.3996 61.8055 45.3996H50.2063L49.7092 51.1795H46.7722L48.035 36.8321H50.972L50.5034 42.2031H62.1027Z" fill="#FFFFFF"/>
<path d="M79.9986 32.8008C79.5872 33.9817 76.2103 44.4797 76.2103 44.4797L77.713 30.4786H66.1195L63.6911 57.5213H72.4276C74.6218 57.5213 75.3703 56.2835 75.736 55.29C76.176 54.109 79.3929 45.2746 79.3929 45.2746L78.2101 57.5213H89.8094L92.1978 30.49H83.0955C82.3959 30.4849 81.7139 30.7083 81.1544 31.1258C80.5949 31.5433 80.1888 32.1317 79.9986 32.8008Z" fill="#FFFFFF"/>
<path d="M138.749 30.4901L137.663 42.8162H134.721L135.806 30.4901H124.213C124.213 30.4901 123.099 43.5487 122.979 44.8034C122.841 46.308 123.699 48.4371 126.264 48.4371H137.172L136.932 51.1794H122.419L121.847 57.5214H144.926C146.491 57.5214 148 56.5051 148.206 54.3362C148.337 52.9452 150.331 30.4901 150.331 30.4901H138.749Z" fill="#FFFFFF"/>
<path d="M153.262 30.4958L150.885 57.5214H162.479L163.216 49.1582H174.484C176.478 49.1582 177.798 48.1476 178.015 45.8311C178.095 44.9284 179.015 34.6859 179.072 33.7832C179.215 31.7846 177.615 30.4958 175.644 30.4958H153.262ZM163.713 43.5544L164.284 36.8491H167.193L166.621 43.5544H163.713Z" fill="#FFFFFF"/>
<path d="M105.951 39.5686L106.197 36.832H120.722L121.293 30.4901H95.1518L92.7748 57.5157H115.916C117.39 57.5157 118.985 56.6527 119.19 54.393C119.344 52.6897 120.059 44.6615 120.19 43.2023C120.362 41.2549 119.116 39.5686 116.676 39.5686H105.951ZM107.825 51.8948H104.865L105.437 45.1952H108.391L107.825 51.8948Z" fill="#FFFFFF"/>
</g>
</svg>
