<svg width="20" height="20" viewBox="0 0 20 20" fill="none" xmlns="http://www.w3.org/2000/svg">
<path fill-rule="evenodd" clip-rule="evenodd" d="M16.1845 3.09789C16.3904 3.01121 16.6158 2.98132 16.8372 3.01132C17.0586 3.04132 17.2679 3.13011 17.4434 3.26846C17.6188 3.40681 17.754 3.58965 17.8348 3.79796C17.9156 4.00626 17.9391 4.23242 17.9028 4.45289L16.0128 15.9171C15.8295 17.0229 14.6161 17.6571 13.602 17.1062C12.7536 16.6454 11.4936 15.9354 10.3603 15.1946C9.79365 14.8237 8.05782 13.6362 8.27115 12.7912C8.45448 12.0687 11.3711 9.35372 13.0378 7.73955C13.692 7.10539 13.3936 6.73955 12.6212 7.32289C10.702 8.77122 7.62282 10.9737 6.60448 11.5937C5.70615 12.1404 5.23782 12.2337 4.67782 12.1404C3.65615 11.9704 2.70865 11.7071 1.93532 11.3862C0.890317 10.9529 0.94115 9.51622 1.93448 9.09789L16.1845 3.09789Z" fill="#285BF3"/>
</svg>
