<svg width="32" height="32" viewBox="0 0 32 32" fill="none" xmlns="http://www.w3.org/2000/svg">
<path fill-rule="evenodd" clip-rule="evenodd" d="M6.88186 4H14.4513C15.1542 3.99998 15.7605 3.99996 16.26 4.04076C16.7871 4.08383 17.3114 4.17892 17.8159 4.43598C18.5685 4.81947 19.1805 5.43139 19.5639 6.18404C19.821 6.68855 19.9161 7.21284 19.9592 7.73996C19.966 7.82366 19.9717 7.91035 19.9764 8H21.7829C21.805 8 21.8277 7.99994 21.851 7.99988C22.1042 7.9992 22.423 7.99835 22.7368 8.07368C23.0089 8.13901 23.269 8.24675 23.5076 8.39296C23.7828 8.56157 24.0076 8.78764 24.1862 8.96716C24.2026 8.98365 24.2186 8.99974 24.2342 9.01537L29.6512 14.4324C29.6669 14.448 29.683 14.464 29.6994 14.4804C29.879 14.659 30.105 14.8838 30.2736 15.159C30.4198 15.3975 30.5276 15.6577 30.5929 15.9298C30.6682 16.2435 30.6674 16.5624 30.6667 16.8156C30.6666 16.8389 30.6666 16.8616 30.6666 16.8837V20.702C30.6666 20.982 30.6666 21.2549 30.6508 21.487C30.6335 21.7408 30.5929 22.0418 30.4636 22.3538C30.193 23.0072 29.6738 23.5264 29.0204 23.797C28.8874 23.8521 28.7564 23.8911 28.6302 23.9191C28.3421 26.2199 26.3789 28 23.9999 28C21.6489 28 19.704 26.2615 19.3805 24H14.4986C13.9065 26.3003 11.8184 28 9.33325 28C6.78155 28 4.64839 26.208 4.1236 23.8138C2.50574 23.3012 1.33325 21.7875 1.33325 20L1.33325 9.54861C1.33323 8.84574 1.33321 8.23939 1.37401 7.73996C1.41708 7.21284 1.51217 6.68855 1.76923 6.18404C2.15272 5.43139 2.76464 4.81947 3.51729 4.43598C4.0218 4.17892 4.54609 4.08383 5.07322 4.04076C5.57265 3.99996 6.179 3.99998 6.88186 4ZM4.31388 20.8595C5.05427 18.8034 7.02209 17.3333 9.33325 17.3333C11.8184 17.3333 13.9065 19.033 14.4986 21.3333H17.3333V9.6C17.3333 8.83126 17.3322 8.3349 17.3014 7.95712C17.2718 7.5949 17.2215 7.46061 17.1879 7.39468C17.0601 7.1438 16.8561 6.93982 16.6052 6.81199C16.5393 6.7784 16.405 6.72817 16.0428 6.69857C15.665 6.66771 15.1687 6.66667 14.3999 6.66667H6.93326C6.16452 6.66667 5.66815 6.66771 5.29037 6.69857C4.92815 6.72817 4.79386 6.7784 4.72793 6.81199C4.47705 6.93982 4.27308 7.1438 4.14525 7.39468C4.11166 7.46061 4.06142 7.5949 4.03182 7.95712C4.00096 8.3349 3.99992 8.83126 3.99992 9.6V20C3.99992 20.3275 4.11799 20.6274 4.31388 20.8595ZM19.9999 20.9283V10.6667H21.7829C21.9576 10.6667 22.0448 10.667 22.1081 10.6699C22.1098 10.67 22.1114 10.67 22.1129 10.6701C22.114 10.6711 22.1152 10.6722 22.1164 10.6733C22.1632 10.7161 22.2251 10.7775 22.3486 10.901L27.7656 16.318C27.8891 16.4415 27.9505 16.5033 27.9933 16.5502C27.9944 16.5514 27.9955 16.5526 27.9965 16.5537C27.9966 16.5552 27.9966 16.5568 27.9967 16.5585C27.9996 16.6218 27.9999 16.709 27.9999 16.8837V20.6667C27.9999 20.7664 27.9999 20.8525 27.9995 20.9276C27.1828 19.5728 25.6972 18.6667 23.9999 18.6667C22.3024 18.6667 20.8165 19.5731 19.9999 20.9283ZM9.33325 20C7.8605 20 6.66659 21.1939 6.66659 22.6667C6.66659 24.1394 7.8605 25.3333 9.33325 25.3333C10.806 25.3333 11.9999 24.1394 11.9999 22.6667C11.9999 21.1939 10.806 20 9.33325 20ZM23.9999 21.3333C22.8954 21.3333 21.9999 22.2288 21.9999 23.3333C21.9999 24.4379 22.8954 25.3333 23.9999 25.3333C25.1045 25.3333 25.9999 24.4379 25.9999 23.3333C25.9999 22.2288 25.1045 21.3333 23.9999 21.3333Z" fill="white"/>
</svg>
