<svg width="213" height="88" viewBox="0 0 213 88" fill="none" xmlns="http://www.w3.org/2000/svg">
<g clip-path="url(#clip0_592_7760)">
<path fill-rule="evenodd" clip-rule="evenodd" d="M35.7395 41.5276C35.3578 41.5276 35.0273 41.5276 34.824 41.5276V35.016C34.8611 35.016 34.9 35.016 34.9459 35.016C35.1475 35.016 35.4249 35.016 35.7395 35.016C36.2556 35.0177 36.6515 35.4039 36.655 35.9091V40.6364C36.6515 41.1415 36.2556 41.5276 35.7395 41.5276ZM18.548 42.4352V46.124H8V42.4352H18.548ZM64.9442 46.124H64.7374V42.4352H75.2871V46.124H64.9442ZM35.7395 53.5666C36.2556 53.5649 36.6515 53.1769 36.655 52.6735V46.1084C36.6515 45.6023 36.2556 45.2171 35.7395 45.2154C35.4249 45.2154 35.1475 45.2154 34.9459 45.2154C34.9 45.2154 34.8611 45.2154 34.824 45.2154V53.5666C35.0273 53.5666 35.3578 53.5666 35.7395 53.5666ZM45.7484 35.9091V53.0235C45.752 53.5269 46.1461 53.9148 46.6657 53.9148C47.18 53.9148 47.5759 53.5269 47.5759 53.0235V47.429H54.7144V49.7409C54.718 50.2461 55.1157 50.6323 55.6336 50.6339C56.1478 50.6323 56.5455 50.2461 56.5472 49.7409V46.1084C56.5472 45.636 56.1956 45.2688 55.7519 45.2205H54.3433V41.7725H55.4975L56.5472 40.7502V38.3503H54.7144V38.3537H47.5759V35.016C47.3356 35.016 46.9308 35.016 46.6657 35.016C46.1461 35.0177 45.752 35.4039 45.7484 35.9091ZM41.9697 53.0235C41.9732 55.5854 44.0817 57.598 46.6657 57.6008C49.2886 57.598 51.3511 55.5819 51.3582 53.0235V51.6536C52.0881 53.2373 53.7123 54.3199 55.6336 54.3199C58.2122 54.3148 60.3207 52.3029 60.3243 49.7409V46.1084C60.3243 44.9781 59.8718 43.9861 59.285 43.2448L60.3243 42.2328V38.3537H75.2871V34.6626H66.519C62.6732 24.9201 52.9895 18.0033 41.6445 18.0033C30.2976 18.0033 20.6158 24.9184 16.7717 34.6626H8V38.352H23.6593V53.969H27.4557L27.4397 38.352H31.0488L31.0471 57.2515H35.7395C38.1309 57.2473 40.432 55.4188 40.432 52.6735L40.4338 46.1084C40.432 44.6844 39.7816 43.7024 39.5094 43.3534C39.787 43.019 40.432 42.0845 40.432 40.6364L40.4338 35.9091C40.4284 33.3489 38.3642 31.3352 35.7395 31.33H31.0471V34.6626H20.432C21.5967 32.1507 23.2139 29.8784 25.1899 27.9526C29.4051 23.8426 35.2129 21.3048 41.6445 21.3048C48.0725 21.3048 53.8803 23.8426 58.0973 27.9526C60.0715 29.8784 61.6887 32.1507 62.8516 34.6626H51.3582V31.33C51.3582 31.33 46.8672 31.33 46.6657 31.33C44.0817 31.3352 41.9732 33.3472 41.9697 35.9091V53.0235ZM17.0032 53.9148H8V50.2106H19.2567L19.299 50.3409C20.4072 54.0569 22.4575 57.3819 25.1899 60.0496C29.4051 64.1607 35.2129 66.6968 41.6445 66.6985C48.0725 66.6968 53.8803 64.1607 58.0973 60.0513C60.8298 57.3819 62.8799 54.0569 63.9846 50.3409L64.027 50.1961L75.2871 50.2261V53.9148H66.2822C62.286 63.3556 52.7614 70 41.6445 70C30.5239 70 20.9993 63.3556 17.0032 53.9148Z" fill="#FFFFFF"/>
<path d="M85.2295 37.4675H83.799V31.6314H81.7251V30.4169H87.3037V31.6314H85.2295V37.4675Z" fill="#FFFFFF"/>
<path d="M89.5279 35.3311H89.5379L92.2749 30.4169H93.885V37.4675H92.4551V32.4468H92.4364L89.6326 37.4675H88.0974V30.4169H89.5279V35.3311Z" fill="#FFFFFF"/>
<path d="M96.5157 30.4169L97.738 32.6993L98.9884 30.4169H100.646L98.5523 33.8064L100.788 37.4675H99.0364L97.738 35.0591L96.3549 37.4675H94.6782L96.8949 33.8647L94.8013 30.4169H96.5157Z" fill="#FFFFFF"/>
<path d="M103.011 36.2538H104.754C105.455 36.2538 105.863 35.9331 105.863 35.2146C105.863 34.6025 105.351 34.3598 104.83 34.3598H103.011V36.2538ZM103.011 33.175H104.688C105.257 33.175 105.702 32.952 105.702 32.3885C105.702 31.8155 105.304 31.6314 104.65 31.6314H103.011V33.175ZM101.581 30.4169H104.972C106.649 30.4169 107.075 31.4952 107.075 32.2141C107.075 33.2237 106.526 33.5247 106.241 33.6702C107.085 33.9909 107.294 34.6709 107.294 35.3604C107.294 35.9625 107.075 37.4675 104.537 37.4675H101.581V30.4169Z" fill="#FFFFFF"/>
<path d="M109.81 35.3311H109.82L112.556 30.4169H114.166V37.4675H112.737V32.4468H112.718L109.914 37.4675H108.379V30.4169H109.81V35.3311Z" fill="#FFFFFF"/>
<path d="M116.921 33.0875H119.601V30.4169H121.032V37.4675H119.601V34.3019H116.921V37.4675H115.49V30.4169H116.921V33.0875Z" fill="#FFFFFF"/>
<path d="M126.807 32.7286C126.694 32.3011 126.466 31.4756 125.282 31.4756C124.591 31.4756 123.549 31.9807 123.549 33.9717C123.549 35.234 124.07 36.4091 125.282 36.4091C126.078 36.4091 126.637 35.914 126.807 35.0495H128.238C127.954 36.5839 126.977 37.6521 125.253 37.6521C123.426 37.6521 122.118 36.3798 122.118 33.9523C122.118 31.4856 123.502 30.2325 125.273 30.2325C127.328 30.2325 128.162 31.6894 128.238 32.7286H126.807Z" fill="#FFFFFF"/>
<path d="M130.698 33.2819L133.322 30.4169H135.178L132.374 33.3013L135.34 37.4675H133.493L131.371 34.3699L130.698 35.0784V37.4675H129.268V30.4169H130.698V33.2819Z" fill="#FFFFFF"/>
<path d="M137.477 35.3311H137.487L140.223 30.4169H141.833V37.4675H140.404V32.4468H140.385L137.581 37.4675H136.046V30.4169H137.477V35.3311Z" fill="#FFFFFF"/>
<path d="M146.048 29.0478C146.852 29.0478 146.927 28.6305 146.975 28.3681H147.609C147.581 28.7664 147.326 29.7956 146.048 29.7956C144.768 29.7956 144.512 28.7664 144.484 28.3681H145.118C145.166 28.6305 145.241 29.0478 146.048 29.0478ZM144.588 35.3311H144.607L147.335 30.4169H148.945V37.4675H147.515V32.4468H147.496L144.693 37.4675H143.157V30.4169H144.588V35.3311Z" fill="#FFFFFF"/>
<path d="M83.6858 46.8462H85.4285C86.1295 46.8462 86.5367 46.5255 86.5367 45.807C86.5367 45.1949 86.0248 44.9522 85.5044 44.9522H83.6858V46.8462ZM83.6858 43.7674H85.362C85.9304 43.7674 86.3758 43.5444 86.3758 42.981C86.3758 42.4079 85.9782 42.2238 85.3242 42.2238H83.6858V43.7674ZM82.2549 41.0094H85.647C87.3231 41.0094 87.7491 42.0876 87.7491 42.8065C87.7491 43.8161 87.1994 44.1171 86.9156 44.2626C87.7587 44.5833 87.9672 45.2633 87.9672 45.9528C87.9672 46.5549 87.7491 48.0599 85.2111 48.0599H82.2549V41.0094Z" fill="#FFFFFF"/>
<path d="M90.9577 45.3894H92.7951L91.8574 42.602H91.8389L90.9577 45.3894ZM92.6908 41.0094L95.1069 48.0599H93.5534L93.108 46.6031H90.5788L90.0956 48.0599H88.5894L91.0341 41.0094H92.6908Z" fill="#FFFFFF"/>
<path d="M100.863 41.0094V42.2238H97.3963V48.0599H95.9658V41.0094H100.863Z" fill="#FFFFFF"/>
<path d="M104.83 47.0015C105.606 47.0015 106.696 46.5064 106.696 44.5348C106.696 42.5635 105.606 42.068 104.83 42.068C104.053 42.068 102.964 42.5635 102.964 44.5348C102.964 46.5064 104.053 47.0015 104.83 47.0015ZM104.83 40.825C105.739 40.825 108.126 41.2332 108.126 44.5348C108.126 47.8366 105.739 48.2445 104.83 48.2445C103.92 48.2445 101.533 47.8366 101.533 44.5348C101.533 41.2332 103.92 40.825 104.83 40.825Z" fill="#FFFFFF"/>
<path d="M110.644 43.6799H113.324V41.0094H114.755V48.0599H113.324V44.8943H110.644V48.0599H109.213V41.0094H110.644V43.6799Z" fill="#FFFFFF"/>
<path d="M119.136 47.0015C119.914 47.0015 121.003 46.5064 121.003 44.5348C121.003 42.5635 119.914 42.068 119.136 42.068C118.361 42.068 117.271 42.5635 117.271 44.5348C117.271 46.5064 118.361 47.0015 119.136 47.0015ZM119.136 40.825C120.046 40.825 122.434 41.2332 122.434 44.5348C122.434 47.8366 120.046 48.2445 119.136 48.2445C118.228 48.2445 115.841 47.8366 115.841 44.5348C115.841 41.2332 118.228 40.825 119.136 40.825Z" fill="#FFFFFF"/>
<path d="M127.972 43.3211C127.859 42.8935 127.631 42.068 126.447 42.068C125.756 42.068 124.714 42.5731 124.714 44.5641C124.714 45.8264 125.234 47.0015 126.447 47.0015C127.242 47.0015 127.802 46.5064 127.972 45.6419H129.402C129.118 47.1763 128.143 48.2445 126.418 48.2445C124.591 48.2445 123.282 46.9722 123.282 44.5447C123.282 42.078 124.666 40.825 126.438 40.825C128.493 40.825 129.326 42.2818 129.402 43.3211H127.972Z" fill="#FFFFFF"/>
<path d="M133.407 48.0599H131.976V42.2238H129.902V41.0094H135.481V42.2238H133.407V48.0599Z" fill="#FFFFFF"/>
<path d="M137.705 44.3016H139.041C139.987 44.3016 140.11 43.6413 140.11 43.2041C140.11 42.5152 139.741 42.2238 138.852 42.2238H137.705V44.3016ZM137.705 48.0599H136.274V41.0094H139.42C140.746 41.0094 141.541 41.8741 141.541 43.2627C141.541 43.8937 141.2 45.5156 139.353 45.5156H137.705V48.0599Z" fill="#FFFFFF"/>
<path d="M145.686 47.0015C146.464 47.0015 147.553 46.5064 147.553 44.5348C147.553 42.5635 146.464 42.068 145.686 42.068C144.911 42.068 143.821 42.5635 143.821 44.5348C143.821 46.5064 144.911 47.0015 145.686 47.0015ZM145.686 40.825C146.596 40.825 148.984 41.2332 148.984 44.5348C148.984 47.8366 146.596 48.2445 145.686 48.2445C144.777 48.2445 142.391 47.8366 142.391 44.5348C142.391 41.2332 144.777 40.825 145.686 40.825Z" fill="#FFFFFF"/>
<path d="M151.501 45.9235H151.51L154.247 41.0094H155.858V48.0599H154.427V43.0392H154.409L151.605 48.0599H150.07V41.0094H151.501V45.9235Z" fill="#FFFFFF"/>
<path d="M160.156 48.0599H158.725V42.2238H156.651V41.0094H162.23V42.2238H160.156V48.0599Z" fill="#FFFFFF"/>
<path d="M168.101 41.0094V42.2238H164.454V43.6799H167.798V44.8943H164.454V46.8462H168.252V48.0599H163.024V41.0094H168.101Z" fill="#FFFFFF"/>
<path d="M174.843 41.0094V48.06H173.412V42.2239H171.47V45.234C171.47 47.0597 171.035 48.2445 169.68 48.2445C169.358 48.2445 169.056 48.2152 168.809 48.1376V47.0115C168.895 47.0401 169.046 47.0695 169.235 47.0695C169.879 47.0695 170.04 46.6032 170.04 45.0789V41.0094H174.843Z" fill="#FFFFFF"/>
<path d="M177.596 46.8462H179.216C179.908 46.8462 180.305 46.409 180.305 45.8263C180.305 45.205 179.861 44.8943 179.216 44.8943H177.596V46.8462ZM177.596 43.6799H179.387C180.712 43.6799 181.736 44.5057 181.736 45.9039C181.736 47.2928 180.741 48.0599 179.367 48.0599H176.166V41.0094H177.596V43.6799Z" fill="#FFFFFF"/>
<path d="M184.252 43.6799H186.933V41.0094H188.363V48.0599H186.933V44.8943H184.252V48.0599H182.822V41.0094H184.252V43.6799Z" fill="#FFFFFF"/>
<path d="M197.89 48.0599H196.459V41.0094H197.89V48.0599ZM191.117 46.8462H192.737C193.428 46.8462 193.826 46.409 193.826 45.8263C193.826 45.205 193.381 44.8943 192.737 44.8943H191.117V46.8462ZM191.117 43.6799H192.908C194.233 43.6799 195.257 44.5057 195.257 45.9039C195.257 47.2928 194.261 48.0599 192.888 48.0599H189.686V41.0094H191.117V43.6799Z" fill="#FFFFFF"/>
<path d="M202.103 39.6402C202.908 39.6402 202.983 39.2229 203.03 38.9605H203.665C203.636 39.3588 203.381 40.388 202.103 40.388C200.823 40.388 200.568 39.3588 200.54 38.9605H201.174C201.221 39.2229 201.296 39.6402 202.103 39.6402ZM200.644 45.9235H200.662L203.39 41.0094H205V48.0599H203.57V43.0392H203.552L200.748 48.0599H199.213V41.0094H200.644V45.9235Z" fill="#FFFFFF"/>
<path d="M82.0281 53.6997C82.1041 52.5342 82.9472 51.4174 84.7086 51.4174C86.6127 51.4174 87.3329 52.4956 87.3329 53.2821C87.3329 54.1755 86.8496 54.7096 86.149 54.9134C86.8973 55.0496 87.5884 55.6713 87.5884 56.7685C87.5884 57.856 86.7358 58.8369 84.8036 58.8369C82.454 58.8369 81.9238 57.6232 81.9238 56.4771H83.2688C83.2688 57.0988 83.5339 57.6232 84.7563 57.6232C85.6177 57.6232 86.1575 57.2343 86.1575 56.6129C86.1575 55.9043 85.5895 55.5447 84.8984 55.5447H84.2356V54.3599H84.8602C85.5424 54.3599 85.9588 54.0204 85.9588 53.4473C85.9588 52.9132 85.4951 52.6318 84.7376 52.6318C83.7807 52.6318 83.4297 53.0293 83.3731 53.6997H82.0281Z" fill="#FFFFFF"/>
<path d="M90.532 55.9819H92.3691L91.4312 53.1945H91.4129L90.532 55.9819ZM92.2648 51.6019L94.6809 58.6525H93.1273L92.6819 57.1957H90.1528L89.6696 58.6525H88.1633L90.608 51.6019H92.2648Z" fill="#FFFFFF"/>
<path d="M96.9705 57.4387H98.7133C99.4146 57.4387 99.8218 57.1181 99.8218 56.3995C99.8218 55.7875 99.3096 55.5447 98.7893 55.5447H96.9705V57.4387ZM96.9705 54.36H98.6472C99.2155 54.36 99.6607 54.1369 99.6607 53.5735C99.6607 53.0004 99.2635 52.8163 98.6092 52.8163H96.9705V54.36ZM95.54 51.6019H98.9314C100.608 51.6019 101.034 52.6801 101.034 53.3991C101.034 54.4086 100.485 54.7096 100.201 54.8552C101.043 55.1759 101.252 55.8558 101.252 56.5454C101.252 57.1475 101.034 58.6525 98.4961 58.6525H95.54V51.6019Z" fill="#FFFFFF"/>
<path d="M105.398 57.5939C106.174 57.5939 107.264 57.0988 107.264 55.1272C107.264 53.1559 106.174 52.6604 105.398 52.6604C104.622 52.6604 103.532 53.1559 103.532 55.1272C103.532 57.0988 104.622 57.5939 105.398 57.5939ZM105.398 51.4174C106.307 51.4174 108.695 51.8256 108.695 55.1272C108.695 58.429 106.307 58.8369 105.398 58.8369C104.488 58.8369 102.101 58.429 102.101 55.1272C102.101 51.8256 104.488 51.4174 105.398 51.4174Z" fill="#FFFFFF"/>
<path d="M113.977 57.4387V52.8163H112.101V53.7966C112.101 55.613 111.988 56.4384 111.401 57.4387H113.977ZM115.407 51.6018V57.4387H116.08V60.1382H114.745V58.6524H110.7V60.1382H109.365V57.4387H109.979C110.615 56.4384 110.757 55.4961 110.757 53.6997V51.6018H115.407Z" fill="#FFFFFF"/>
</g>
<defs>
<clipPath id="clip0_592_7760">
<rect width="197" height="52" fill="white" transform="translate(8 18)"/>
</clipPath>
</defs>
</svg>
