<svg width="32" height="32" viewBox="0 0 32 32" fill="none" xmlns="http://www.w3.org/2000/svg">
<path fill-rule="evenodd" clip-rule="evenodd" d="M16.233 2.70941C16.078 2.69582 15.9221 2.69582 15.7671 2.70941C15.5888 2.72505 15.4188 2.76309 15.2838 2.7933L15.2481 2.80129L5.34586 5.00177C5.07865 5.06112 4.81301 5.12011 4.58843 5.18761C4.33779 5.26295 4.05254 5.37241 3.77466 5.57261C3.3822 5.85535 3.07403 6.23952 2.88315 6.68397C2.74801 6.99867 2.70303 7.30087 2.68386 7.56189C2.66668 7.79576 2.66672 8.06786 2.66675 8.34159L2.66675 25.9092C2.66671 26.2457 2.66667 26.5735 2.68935 26.851C2.71425 27.1558 2.77301 27.5154 2.9574 27.8773C3.21307 28.3791 3.62102 28.787 4.12278 29.0427C4.48468 29.2271 4.84432 29.2859 5.14911 29.3108C5.42655 29.3334 5.75412 29.3334 6.09049 29.3334H6.09053H6.09058H6.09062L17.5282 29.3334L17.5387 29.3334H23.6934L23.704 29.3334L25.9093 29.3334H25.9094H25.9094H25.9094C26.2458 29.3334 26.5736 29.3334 26.8511 29.3108C27.1558 29.2859 27.5155 29.2271 27.8774 29.0427C28.3792 28.787 28.7871 28.3791 29.0428 27.8773C29.2272 27.5154 29.2859 27.1558 29.3108 26.851C29.3335 26.5736 29.3335 26.246 29.3334 25.9096V25.9096V25.9095V25.9095V8.3416C29.3335 8.06787 29.3335 7.79576 29.3163 7.56188C29.2971 7.30087 29.2522 6.99867 29.117 6.68398C28.9262 6.23952 28.618 5.85535 28.2255 5.57261C27.9476 5.37241 27.6624 5.26295 27.4117 5.18762C27.1872 5.12012 26.9216 5.06112 26.6544 5.00178L16.7163 2.7933C16.5814 2.76309 16.4113 2.72505 16.233 2.70941ZM25.8668 26.6667C26.2621 26.6667 26.4785 26.6657 26.6339 26.653L26.6515 26.6514L26.653 26.6338C26.6657 26.4784 26.6668 26.2621 26.6668 25.8667V8.37799C26.6668 8.05331 26.6659 7.88127 26.6568 7.75722L26.6559 7.74499L26.6441 7.74142C26.525 7.70561 26.3573 7.66748 26.0403 7.59704L16.1736 5.40445C16.0809 5.38385 16.0356 5.37388 16.0024 5.3674L16.0001 5.36696L15.9978 5.3674C15.9646 5.37388 15.9193 5.38385 15.8265 5.40445L5.95988 7.59704C5.64292 7.66748 5.47517 7.70561 5.35604 7.74141L5.34431 7.74499L5.34336 7.75721C5.33425 7.88127 5.33342 8.0533 5.33342 8.37799V25.8667C5.33342 26.2621 5.33446 26.4784 5.34716 26.6338L5.34869 26.6514L5.36627 26.653C5.40103 26.6558 6.42564 26.658 8.00008 26.6598V12C8.00008 11.2636 8.59704 10.6667 9.33342 10.6667H22.6667C23.4031 10.6667 24.0001 11.2636 24.0001 12V26.6665L25.8668 26.6667ZM21.3334 26.6661V13.3333H10.6667V26.6622C13.9725 26.6644 18.182 26.6656 21.3334 26.6661ZM13.3334 22.6667C13.3334 21.9303 13.9304 21.3333 14.6667 21.3333H17.3334C18.0698 21.3333 18.6667 21.9303 18.6667 22.6667C18.6667 23.403 18.0698 24 17.3334 24H14.6667C13.9304 24 13.3334 23.403 13.3334 22.6667ZM14.6667 16C13.9304 16 13.3334 16.597 13.3334 17.3333C13.3334 18.0697 13.9304 18.6667 14.6667 18.6667H17.3334C18.0698 18.6667 18.6667 18.0697 18.6667 17.3333C18.6667 16.597 18.0698 16 17.3334 16H14.6667Z" fill="white"/>
</svg>
