<svg width="20" height="20" viewBox="0 0 20 20" fill="none" xmlns="http://www.w3.org/2000/svg">
<path d="M1.66985 18.3332L2.79652 14.1932C2.05413 12.9205 1.6641 11.4732 1.66652 9.99984C1.66652 5.39734 5.39735 1.6665 9.99985 1.6665C14.6023 1.6665 18.3332 5.39734 18.3332 9.99984C18.3332 14.6023 14.6023 18.3332 9.99985 18.3332C8.52716 18.3355 7.0804 17.9458 5.80818 17.204L1.66985 18.3332ZM6.99235 6.08984C6.88473 6.09652 6.77958 6.12486 6.68318 6.17317C6.59278 6.22436 6.51026 6.28836 6.43818 6.36317C6.33818 6.45734 6.28152 6.539 6.22068 6.61817C5.91269 7.019 5.74702 7.51102 5.74985 8.0165C5.75151 8.42484 5.85818 8.82234 6.02485 9.194C6.36568 9.94567 6.92652 10.7415 7.66735 11.479C7.84568 11.6565 8.01985 11.8348 8.20735 12.0007C9.12684 12.8102 10.2226 13.394 11.4073 13.7057L11.8815 13.7782C12.0357 13.7865 12.1898 13.7748 12.3448 13.7673C12.5875 13.7548 12.8245 13.6891 13.039 13.5748C13.1481 13.5186 13.2546 13.4574 13.3582 13.3915C13.3582 13.3915 13.394 13.3682 13.4623 13.3165C13.5748 13.2332 13.644 13.174 13.7373 13.0765C13.8065 13.0048 13.8665 12.9207 13.9123 12.8248C13.9773 12.689 14.0423 12.4298 14.069 12.214C14.089 12.049 14.0832 11.959 14.0807 11.9032C14.0773 11.814 14.0032 11.7215 13.9223 11.6823L13.4373 11.4648C13.4373 11.4648 12.7123 11.149 12.2698 10.9473C12.2232 10.927 12.1732 10.9154 12.1223 10.9132C12.0653 10.9073 12.0077 10.9137 11.9534 10.932C11.8991 10.9502 11.8493 10.9799 11.8073 11.019V11.0173C11.8032 11.0173 11.7473 11.0648 11.1448 11.7948C11.1103 11.8413 11.0626 11.8764 11.008 11.8957C10.9534 11.915 10.8943 11.9176 10.8382 11.9032C10.7839 11.8887 10.7307 11.8703 10.679 11.8482C10.5757 11.8048 10.5398 11.7882 10.469 11.7573L10.4648 11.7557C9.98811 11.5475 9.5467 11.2664 9.15651 10.9223C9.05151 10.8307 8.95401 10.7307 8.85401 10.634C8.52616 10.32 8.24044 9.96485 8.00401 9.57734L7.95485 9.49817C7.91953 9.44497 7.89098 9.38759 7.86985 9.32734C7.83818 9.20484 7.92068 9.1065 7.92068 9.1065C7.92068 9.1065 8.12318 8.88484 8.21735 8.76484C8.29576 8.6651 8.36891 8.56135 8.43651 8.454C8.53485 8.29567 8.56568 8.13317 8.51401 8.00734C8.28068 7.43734 8.03901 6.86984 7.79068 6.3065C7.74151 6.19484 7.59568 6.11484 7.46318 6.099C7.41818 6.094 7.37318 6.089 7.32818 6.08567C7.21627 6.08011 7.10413 6.08206 6.99235 6.08984Z" fill="#285BF3"/>
</svg>
